<svg xmlns="http://www.w3.org/2000/svg" xmlns:xlink="http://www.w3.org/1999/xlink" id="Layer_1" x="0px" y="0px" viewBox="0 0 91 91" style="enable-background:new 0 0 91 91;" xml:space="preserve"> <style type="text/css"> .st0{fill-rule:evenodd;clip-rule:evenodd;fill:#FFFFFF;} .st1{fill-rule:evenodd;clip-rule:evenodd;fill:#0B2852;} </style> <g> <circle class="st0" cx="45.5" cy="45.5" r="45.5"></circle> <path class="st1" d="M45.55,34.32c4.93,0,8.03-0.45,10.7-3.73c0.47-0.57,1.31-0.98,1.85-1.59c0.94-1.06,0.39-1.63,0.87-2.92 c0.33-0.9,3.15-2.53,3.42-3.7c0.21-0.94-1.28-4.3-1.74-5.23c-0.98-1.98-2.05-2.06-4.22-2.98c-11.36-4.83-10.53-4.7-21.74-0.01 c-2.07,0.87-3.27,1-4.24,3c-0.46,0.94-1.96,4.25-1.73,5.22c0.26,1.11,3.12,2.87,3.43,3.7c0.44,1.17-0.24,1.5,0.72,2.78 c0.6,0.81,1.39,1.01,2,1.75c1.48,1.8,1.7,2.18,4.31,2.91C41.17,34.08,43.22,34.32,45.55,34.32L45.55,34.32z M43.67,80.37 c0.06-1.96-0.99-7.88-1.34-10.03c-0.28-1.71-0.61-3.83-0.79-5.44c-0.31-2.78,1.43-1.88,1.71-4.2c-0.76-1.48-1.94-1.74-2.53-3.16 c0.5-1.79,2.99-2.36,3.92-4.02c-0.43-1.88-3.93-4.89-6.11-4.98c-1.91,4.22-0.63,3.22-5.9,3.51c-2.84,0.16-5.65,0.6-7.34,2.17 c-2.66,2.49-4.93,9.38-5.86,13.46c-0.67,2.92-1.75,5.83,0.95,7.26C24.63,77.17,40.01,80.81,43.67,80.37L43.67,80.37z M50.4,57.53 c-0.61,1.47-1.75,1.65-2.53,3.16c0.27,2.24,1.89,1.45,1.75,4.01c-0.12,2.2-1.77,11.11-2.15,15.63c5.66,0.38,21.54-3.7,24.71-6.43 c1.1-4.36-2.97-14.69-4.73-17.57c-3.5-5.7-8.85-3.6-12.63-4.44c-1.48-0.33-1.54-1.87-2.24-3.37c-2.03,0.09-4.85,2.55-5.73,3.99 C45.49,54.75,49.76,55.18,50.4,57.53L50.4,57.53z M57.92,33.11c0.28,0.89,0.44,2.28,0.21,3.41c-0.25,1.28-0.78,1.33-1.38,2.04 c-0.74,0.87-1.53,3.2-2.43,4.46c-2.01,2.82-4.96,5.03-9.05,4.99c-7.96-0.08-9.91-8.09-11.33-9.6c-1.57-1.67-1.66-2.99-0.99-5.31 c1.61,0.08,0.32,0.24,2.71,1.6c0.83,0.47,1.7,0.81,2.85,1.17c2.1,0.64,4.6,0.94,7.04,0.93C54.63,36.78,56.57,33.48,57.92,33.11 L57.92,33.11z M53.69,65.57c1.14-0.55,2.86-0.28,3.72-1.08c0.68-0.63,0.99-2.16,2.02-2.95l1.83,3.24l3.67,0.68 c-0.12,0.86-1.49,1.84-1.99,2.55c-0.73,1.03-0.15,2.73-0.1,4.24c-1.34-0.25-2.63-1.22-3.49-1.23c-0.94-0.02-2.27,0.96-3.54,1.22 c0.02-1.61,0.52-3.24-0.22-4.34C54.95,66.99,54.02,66.74,53.69,65.57L53.69,65.57z M42.75,17.61l2.83-1.68l2.78,1.67 c0.4,2.28-1.29,4.57-2.81,5.22C43.97,22.17,42.36,19.79,42.75,17.61L42.75,17.61z M29.22,66.03l0.06-2.95 c1.84-0.15,3.8-0.03,5.66-0.06c2.84-0.05,2.83-0.22,2.44,3.05L29.22,66.03z"></path> </g> </svg>