<svg xmlns="http://www.w3.org/2000/svg" xmlns:xlink="http://www.w3.org/1999/xlink" xml:space="preserve" width="91px" height="91px" style="shape-rendering:geometricPrecision; text-rendering:geometricPrecision; image-rendering:optimizeQuality; fill-rule:evenodd; clip-rule:evenodd" viewBox="0 0 4.15 4.15"> <defs> <style type="text/css"> .fil1 {fill:#083264} .fil0 {fill:white} </style> </defs> <g id="Layer_x0020_1"> <metadata id="CorelCorpID_0Corel-Layer"></metadata> <g id="_1753808841984"> <circle class="fil0" cx="2.07" cy="2.07" r="2.07"></circle> <path class="fil1" d="M1.66 1.11c0.17,0 0.32,0.14 0.32,0.32 0,0.18 -0.15,0.32 -0.32,0.32 -0.18,0 -0.33,-0.14 -0.33,-0.32 0,-0.18 0.15,-0.32 0.33,-0.32zm-0.52 1.21c0,-0.03 0.01,-0.04 0.04,-0.04 0.02,0 0.04,0.01 0.04,0.04l0 0.89 0.88 0 0 -0.89c0,-0.03 0.02,-0.04 0.04,-0.04 0.03,0 0.04,0.01 0.04,0.04l0 0.89 0.28 0 0 -0.98c0,-0.22 -0.18,-0.4 -0.4,-0.4l-0.08 0 -0.23 0.37 -0.03 -0.27 0.04 -0.1 -0.18 0 0.04 0.1 -0.03 0.27 -0.24 -0.37 -0.09 0c-0.22,0 -0.4,0.18 -0.4,0.4l0 0.98 0.28 0 0 -0.89 0 0 0 0zm2.15 -0.97l0 0.65 -0.7 0 0 -0.65 0.09 0 0 -0.15c0,-0.14 0.12,-0.27 0.27,-0.27 0.15,0 0.27,0.13 0.27,0.27l0 0.15 0.07 0zm-0.29 0.36c0.03,-0.02 0.05,-0.05 0.05,-0.09 0,-0.06 -0.05,-0.11 -0.11,-0.11 -0.06,0 -0.1,0.05 -0.1,0.11 0,0.04 0.01,0.07 0.04,0.09l-0.02 0.13 0.16 0 -0.02 -0.13zm0.11 -0.51c0,-0.09 -0.07,-0.16 -0.16,-0.16 -0.09,0 -0.16,0.07 -0.16,0.16l0 0.15 0.26 0 0.06 0 0 -0.15z"></path> </g> </g> </svg>