<svg xmlns="http://www.w3.org/2000/svg" xmlns:xlink="http://www.w3.org/1999/xlink" id="Layer_1" x="0px" y="0px" viewBox="0 0 91 91" style="enable-background:new 0 0 91 91;" xml:space="preserve"> <style type="text/css"> .st0{fill-rule:evenodd;clip-rule:evenodd;fill:#FFFFFF;} .st1{fill-rule:evenodd;clip-rule:evenodd;fill:#0B2852;} </style> <g> <circle class="st0" cx="45.5" cy="45.5" r="45.5"></circle> <path class="st1" d="M12.89,40.46c2.77,1.53,3.01,1.51,6.42,1.83c0.17,0.56,0.29,2.91,1.33,6.43c0.5,1.69,1.53,4.59,1.64,6.14 c-0.76-0.39-2.25-2.18-2.95-3.03c-1.86-2.23-1.03-1.34-4.13-1.27l2.33-5.68l-7.07,2.58c-2.56,1.5-2.39,5.95-1.02,7.02 c3.39,2.64,10.87,3.73,16.26,3.44c1.22-3.09,1.12-4.09,4.81-5.15c2.65-0.76,5.02-1.91,7.23-3.09c-0.09-2.66-5.38-3.69-8.35-4.8 c0.32,1.59,1.55,3.88,2.08,5.67c-2.79-0.09-2.12-1.1-3.91,1.05c-0.5,0.61-2.12,2.4-2.7,2.84c-0.39-0.77,0.15-1.78,0.45-2.76 c0.5-1.66,2.01-5.98,2.11-7.45c0.02-0.33,0.01-0.69,0.06-1c0.01-0.08,0.02-0.15,0.04-0.22c0.43-1.92,3.85-0.2,6.4-2.65 c-0.24-0.48,0.02-0.06-0.31-0.45c-1.06-1.24-1.84-1.62-2.01-4.46c-0.17-2.89,1.16-9.75-2.7-11.85c-0.98-0.53-1.94-0.36-2.82-0.75 c-0.92-0.41-1.08-0.93-2.52-1.06c-4.42-0.41-7.23,2.75-7.85,6.51c-0.51,3.09,0.22,6.66-1.06,9.82 C14.04,39.61,13.47,39.3,12.89,40.46L12.89,40.46z M39.12,25.86c0.85-0.22,4.77,0.13,6.46-0.03c2.43-0.23,3.97,0.34,5.07,1.69 c1.23,1.52,0.02,0.83,1.95,1.64c2.86,1.21,2.18,5.36,1.72,7.83l0.3,0.26c0.04,0.03,0.11,0.09,0.15,0.12c0.64,0.6,0.7,0.66,0.7,1.67 c0.01,3.93-1.99,4.43-2.44,5.42c-0.65,1.45-1.62,6.55-7.45,6.53c-6.65-0.03-6.57-5.87-8.22-7.34c-1.37-1.23-2.11-4.8-1.4-5.89 c0.5-0.76-0.14,0.21,0.9-0.77c-0.36-1.93-0.5-4.11,0.09-5.79c0.69-1.96,1.63-2.55,2.7-3.79C39.3,26.64,39.19,26.75,39.12,25.86 L39.12,25.86z M45.57,69.25c-4.16,0-7.16-0.4-10.68-1.37c-1.61-0.44-2.9-0.9-4.42-1.58c-1.8-0.8-2.51-0.68-2.68-3.01 c-0.31-4.18-0.16-7.3,3.24-8.5c6.05-2.13,5.2-2.36,8.08-3.53c0.79,1.11,3.08,9.45,3.9,11.56c0.44-0.54,1.46-3.08,1.41-3.81 c-0.09-1.33-1.54-1.6-1.12-4.17c1.33-1.45,2.99-1.31,4.5-0.19c0.56,2.62-0.99,2.99-1.08,4.36c-0.05,0.8,0.97,3.26,1.43,3.83 c0.78-2.04,3.01-10.32,3.89-11.58c1.29,0.54,2.28,1.33,3.89,2.02c5.3,2.29,8.03,1.02,7.43,10.11c-0.15,2.21-1.18,2.25-2.87,2.99 C55.81,68.42,50.99,69.24,45.57,69.25L45.57,69.25z M57.21,40.35c2.58,2.48,6.02,0.72,6.4,2.65c0.08,0.39,0.06,0.58,0.09,0.97 c0.13,1.91,0.53,2.52,1.16,4.53c0.46,1.47,1.6,4.63,1.71,6.12c-0.8-0.41-2.17-2.09-2.87-2.88c-2-2.28-0.75-1.27-4.01-1.2l2.1-5.65 c-1.63,0.58-2.98,1-4.9,1.67c-1.58,0.56-3.43,1.42-3.49,3.12c9.66,5.17,9.53,1.64,12.04,8.24c4.4,0.25,17.1-1.03,17.1-5.14 c0-3.26,0-4.62-2.94-5.84c-1.1-0.46-1.99-0.7-3.06-1.01c-0.97-0.29-2.06-0.84-2.89-1.06l2.38,5.66c-3.2-0.04-2.41-0.9-4.23,1.31 c-0.69,0.84-2.18,2.64-2.94,3.03c0.09-1.32,1.9-7.07,2.49-9.14c0.36-1.27,0.12-2.21,0.48-3.42c3.09-0.32,4.29-0.47,6.42-1.84 c-0.54-1.07-1-0.76-1.65-2.14c-1.37-2.88-0.69-6.66-1.12-9.84c-0.5-3.73-3.16-6.93-7.63-6.7c-1.49,0.08-1.51,0.41-2.6,0.98 c-1.4,0.73-4.57-0.23-5.61,5.25c-1,5.25,1.55,7.8-1.97,11.76C57.15,40.32,57.48,39.83,57.21,40.35z"></path> </g> </svg>