<svg xmlns="http://www.w3.org/2000/svg" xmlns:xlink="http://www.w3.org/1999/xlink" xml:space="preserve" width="91px" height="91px" style="shape-rendering:geometricPrecision; text-rendering:geometricPrecision; image-rendering:optimizeQuality; fill-rule:evenodd; clip-rule:evenodd" viewBox="0 0 13.39 13.39"> <defs> <style type="text/css"> .fil1 {fill:#083264} .fil0 {fill:white} </style> </defs> <g id="Layer_x0020_1"> <metadata id="CorelCorpID_0Corel-Layer"></metadata> <g id="_1718320308784"> <circle class="fil0" cx="6.7" cy="6.7" r="6.7"></circle> <path class="fil1" d="M4.58 7.77l0 -1.62c0,-0.31 0.49,-0.38 0.49,0.01l0 1.07c0,0.09 0.02,0.14 0.06,0.19 0.05,0.05 0.12,0.08 0.2,0.08 0.31,0.01 0.53,0.22 0.62,0.45 0.06,0.15 0.04,0.28 0.04,0.49 0,0.09 0,0.16 0.04,0.22 0.12,0.19 0.41,0.13 0.41,-0.15 0,-0.47 0.01,-0.67 -0.28,-1.05 -0.1,-0.14 -0.42,-0.37 -0.64,-0.38l0 -2.94c0,-0.29 0.39,-0.33 0.47,-0.1 0.05,0.13 -0.02,2.01 0.03,2.15 0.08,0.24 0.42,0.2 0.43,-0.05 0.02,-0.28 0,-0.95 0,-1.25 0,-0.13 -0.01,-1.18 0.01,-1.25 0.05,-0.24 0.42,-0.25 0.48,-0.01 0.02,0.12 -0.02,2.11 0,2.49 0.01,0.3 0.4,0.3 0.44,0.04 0.03,-0.16 -0.02,-2.19 0.01,-2.33 0.06,-0.29 0.45,-0.23 0.48,-0.01 0.03,0.17 -0.01,2.13 0,2.56 0.02,0.25 0.31,0.31 0.42,0.12 0.04,-0.08 0.03,-0.17 0.03,-0.28l0 -1.21c0,-0.17 0,-0.37 0.26,-0.37 0.15,0 0.23,0.12 0.23,0.27l0 1.51c0,0.23 -0.02,0.42 -0.02,0.65 0,0.66 0.08,1.05 -0.17,1.61 -0.02,0.04 -0.03,0.08 -0.05,0.12 -0.04,0.07 -0.08,0.13 -0.13,0.2 -0.14,0.23 -0.27,0.35 -0.48,0.52 -0.56,0.44 -1.41,0.54 -2.06,0.26 -0.18,-0.08 -0.28,-0.13 -0.43,-0.23 -0.07,-0.05 -0.12,-0.1 -0.18,-0.15 -0.11,-0.08 -0.23,-0.24 -0.31,-0.35 -0.25,-0.32 -0.4,-0.79 -0.4,-1.28zm2.05 -4.75l0.02 0c0.26,0 0.5,0.08 0.61,0.28 0.31,-0.21 0.72,-0.12 0.95,0.19 0.14,0.21 0.11,0.41 0.11,0.75 0.08,-0.02 0.13,-0.04 0.23,-0.04 0.39,0 0.69,0.31 0.69,0.61l0 3.11c0,0.49 -0.2,1.02 -0.46,1.38 -0.27,0.38 -0.58,0.63 -0.99,0.83 -0.4,0.2 -0.72,0.24 -1.17,0.25l-0.05 0c-0.72,-0.01 -1.56,-0.48 -1.95,-1.06 -0.04,-0.07 -0.08,-0.12 -0.12,-0.19 -0.02,-0.04 -0.03,-0.06 -0.05,-0.1 -0.02,-0.03 -0.04,-0.05 -0.05,-0.09 -0.12,-0.27 -0.25,-0.63 -0.25,-0.95l0 -1.91c0,-0.3 0.28,-0.59 0.59,-0.62 0.1,-0.01 0.08,-0.01 0.17,0 0.07,0.01 0.11,0.02 0.16,0.03 0,-0.23 0,-0.46 0,-0.69 0,-0.43 -0.08,-0.86 0.21,-1.15 0.18,-0.18 0.5,-0.27 0.76,-0.14 0.06,-0.13 0.08,-0.23 0.21,-0.33 0.09,-0.08 0.22,-0.16 0.38,-0.16z"></path> </g> </g> </svg>