<svg xmlns="http://www.w3.org/2000/svg" xmlns:xlink="http://www.w3.org/1999/xlink" id="Layer_1" x="0px" y="0px" viewBox="0 0 91 91" style="enable-background:new 0 0 91 91;" xml:space="preserve"> <style type="text/css"> .st0{fill-rule:evenodd;clip-rule:evenodd;fill:#FFFFFF;} .st1{fill-rule:evenodd;clip-rule:evenodd;fill:#0B2852;} </style> <g> <circle class="st0" cx="45.5" cy="45.5" r="45.5"></circle> <path class="st1" d="M35.4,13.86c-1.92,0.54-3.05,2.73-4.1,4.38c-3.86,6.09-5.54,4.18-10.66,6.31c-5.47,2.28-0.74,8.01-3.46,13.1 c-0.91,1.7-2.51,3.19-3.68,4.85c-3.36,4.75,1.33,6.57,3.69,10.84c1.22,2.2,0.89,4.66,0.73,7.32c-0.2,3.28,0.19,4.75,2.74,5.78 c2.07,0.84,4.45,1.06,6.45,1.98c4.24,1.96,4.96,7.78,8.24,8.72c1.86,0.53,5.1-1.15,6.67-1.7c2.75-0.96,4.25-0.97,6.98,0 c5.93,2.12,6.87,3.6,10.7-2.71c1.13-1.85,2.24-3.43,4.21-4.32c2.01-0.91,4.4-1.16,6.45-1.98c5.38-2.16,0.81-8.25,3.46-13.11 c2.22-4.08,7.06-6.08,3.7-10.82l-1.88-2.34c-3.15-3.56-2.77-5.18-2.55-9.83c0.15-3.26-0.14-4.73-2.71-5.79 c-2.04-0.84-4.47-1.05-6.46-1.97c-4.25-1.97-4.93-7.72-8.24-8.72c-1.82-0.55-5.11,1.12-6.7,1.68c-2.76,0.98-4.16,0.96-6.95,0.01 C40.33,14.97,37.33,13.32,35.4,13.86L35.4,13.86z M43.76,18.12c15.66-1.1,28.25,11.19,29.12,25.66 c0.94,15.63-11.06,28.2-25.56,29.08C31.59,73.81,19.07,61.88,18.13,47.3c-0.55-8.59,2.93-15.87,7.1-20.27 C30.22,21.77,36.07,18.66,43.76,18.12L43.76,18.12z M43.15,19.98c3.79-0.4,7.91,0.22,11.17,1.44c3.53,1.32,7.18,3.62,9.66,6.3 c3.91,4.22,6.45,9.24,7.03,15.37C72.42,58,61.18,69.72,47.92,70.99c-14.88,1.43-26.67-9.82-27.93-23.09 c-0.75-7.94,2.37-14.99,6.19-19.23l1.56-1.65c1.02-1.17,4.07-3.29,5.57-4.07C36.42,21.32,39.16,20.4,43.15,19.98L43.15,19.98z M43.09,45.85c2.62-0.33,5.07,0.41,6.95,1.54c0.45,0.27,1.02,0.56,0.75,1.37c-0.17,0.51-0.78,0.72-1.3,0.49 c-0.7-0.31-1.09-0.88-2.98-1.35c-5.21-1.3-9.56,2.02-10.9,5.76c-1.9,5.28,1.18,9.81,4.69,11.49c2.16,1.03,4.79,1.21,7.13,0.34 c5.16-1.92,5.44-6.37,6.12-6.84c0.35-0.24,2.11-0.58,1.04,2.15c-2.74,7.01-11.3,9.12-16.78,5.04c-1.6-1.19-2.89-2.59-3.8-4.83 C31.39,54.59,35.19,46.86,43.09,45.85L43.09,45.85z M57.04,46.85c1.41-0.31,2.63,1.06,2.03,2.47c-0.26,0.63-7.07,7.22-7.45,7.61 c-1.67,1.67-3.42,3.3-5.02,5.02c-0.4,0.43-0.89,0.8-1.74,0.65c-0.87-0.15-3.3-2.9-3.96-3.56c-0.61-0.61-2.15-1.87-2.28-2.72 c-0.21-1.44,1.28-2.61,2.65-1.87c0.53,0.29,2.07,1.96,2.56,2.46c1.57,1.57,1.52,1.19,2.92-0.21c1.7-1.7,3.32-3.32,5.02-5.02 C52.67,50.79,56.07,47.07,57.04,46.85L57.04,46.85z M39,28.8c3.06-0.34,3.78,3.07,3.84,5.85c0.06,2.81-0.82,6.15-3.46,6.29 c-4.46,0.23-4.46-7.07-3.15-10.05C36.74,29.71,37.53,28.96,39,28.8L39,28.8z M47.31,28.79c3.01-0.34,3.78,3.08,3.81,5.85 c0.03,2.76-0.77,6.2-3.51,6.3c-3.07,0.11-3.76-3.12-3.84-5.92C43.69,32.46,44.39,29.12,47.31,28.79L47.31,28.79z M32.77,40.8 l-2.79-0.04l-0.02-9.18l-2.04,0.95l-0.44-2.24l2.81-1.34l2.38,0h0.11L32.77,40.8L32.77,40.8z M54.24,28.8 c3.33-0.43,3.43,6.93,0.35,7.31c-1.84,0.23-2.65-1.7-2.7-3.46C51.84,30.75,52.53,29.02,54.24,28.8L54.24,28.8z M60.76,33.61 c3.51-0.76,3.66,6.67,0.79,7.24C57.98,41.56,57.64,34.28,60.76,33.61L60.76,33.61z M59.91,29.43c0.69-0.2,1.08,0.38,1.08,1.01 c0,0.39-2.01,4.03-2.26,4.48c-0.48,0.83-2.68,5.48-3.31,5.64c-0.71,0.19-1.3-0.37-1.19-1.07l4.65-8.83 C59.45,29.56,59.31,29.6,59.91,29.43L59.91,29.43z M38.35,33.95c0-0.5,0.08-1.27,0.19-1.75c0.13-0.62,0.24-0.94,0.86-0.94 c0.71,0.73,0.54,3.52,0.54,4.7c0,3.51-1.59,3.31-1.59,0.1V33.95L38.35,33.95z M47.73,38.45c-0.78,0.06-0.88-0.5-0.98-1.22 c-0.16-1.09-0.28-5.37,0.49-5.89c1.06-0.73,1,2.53,1,3.21C48.23,35.82,48.38,37.59,47.73,38.45L47.73,38.45z M60.52,36.76 c0-0.67,0.14-1.34,0.43-1.7c0.44,0.05,0.52,0.2,0.62,0.69c0.17,0.81,0.28,3.24-0.4,3.64C60.35,39.18,60.52,37.7,60.52,36.76 L60.52,36.76z M53.77,32.04c0-0.32,0.05-0.83,0.13-1.15c0.11-0.45,0.19-0.54,0.57-0.64c0.63,0.68,0.69,3.73-0.02,4.37 C53.55,34.38,53.77,32.75,53.77,32.04L53.77,32.04z M32.77,40.8l0-11.84h-0.11l-2.38,0c0.25-0.24,2.18-0.12,2.51-0.07 c0.19,0.57,0.07,4.99,0.07,5.96C32.87,35.3,32.99,40.4,32.77,40.8z"></path> </g> </svg>