<svg xmlns="http://www.w3.org/2000/svg" xmlns:xlink="http://www.w3.org/1999/xlink" xml:space="preserve" width="91px" height="91px" style="shape-rendering:geometricPrecision; text-rendering:geometricPrecision; image-rendering:optimizeQuality; fill-rule:evenodd; clip-rule:evenodd" viewBox="0 0 16.2 16.2"> <defs> <style type="text/css"> .fil1 {fill:#083264} .fil0 {fill:white} </style> </defs> <g id="Layer_x0020_1"> <metadata id="CorelCorpID_0Corel-Layer"></metadata> <g id="_1718025934192"> <circle class="fil0" cx="8.1" cy="8.1" r="8.1"></circle> <path class="fil1" d="M7.79 9.43l-1.21 -1.22 0.53 -0.54 0.67 0.67c0.08,-0.03 0.13,-0.1 0.18,-0.15 0.16,-0.16 1.07,-1.05 1.12,-1.13l0.54 0.54 -1.83 1.83zm-3.36 -4.39c0,0.28 -0.02,0.5 -0.02,0.79 0,1.98 -0.06,3.53 1.19,5.12l0.59 0.58c0.1,0.09 0.22,0.18 0.34,0.25 0.35,0.24 0.38,0.24 0.73,0.44l0.41 0.18c0.49,0.2 0.37,0.2 0.85,0.01 1.52,-0.62 2.62,-1.73 3.04,-3.39 0.27,-1.09 0.23,-2.05 0.23,-3.19 0,-0.29 -0.02,-0.51 -0.02,-0.79 -0.29,0 -0.88,-0.06 -1.15,-0.1 -0.28,-0.05 -0.74,-0.17 -0.99,-0.28 -0.35,-0.16 -0.9,-0.44 -1.19,-0.71l-0.34 -0.3 -0.51 0.43c-0.17,0.13 -0.6,0.4 -0.78,0.47 -0.44,0.18 -0.7,0.3 -1.22,0.39 -0.28,0.05 -0.85,0.1 -1.16,0.1z"></path> </g> </g> </svg>