<svg xmlns="http://www.w3.org/2000/svg" xmlns:xlink="http://www.w3.org/1999/xlink" xml:space="preserve" width="91px" height="91px" style="shape-rendering:geometricPrecision; text-rendering:geometricPrecision; image-rendering:optimizeQuality; fill-rule:evenodd; clip-rule:evenodd" viewBox="0 0 4.07 4.07"> <defs> <style type="text/css"> .fil1 {fill:#083264} .fil0 {fill:white} </style> </defs> <g id="Layer_x0020_1"> <metadata id="CorelCorpID_0Corel-Layer"></metadata> <g id="_1718018291856"> <circle class="fil0" cx="2.04" cy="2.04" r="2.04"></circle> <path class="fil1" d="M1.18 1.69l0 0.03c0,0.05 0.06,0.12 0.14,0.12l0 0.07c0,0.12 0.05,0.24 0.12,0.31 0.06,0.06 0.11,0.08 0.13,0.16 0.02,0.07 -0.01,0.07 0.04,0.11 0.02,0.03 0.05,0.05 0.07,0.07 0.04,0.05 0.05,0.07 0.1,0.07 0.04,0 0.13,-0.11 0.16,-0.14 0.05,-0.05 0.02,-0.04 0.04,-0.11 0.02,-0.11 0.1,-0.09 0.19,-0.25 0.04,-0.05 0.07,-0.17 0.06,-0.23l0 -0.06c0.08,0 0.13,-0.06 0.13,-0.12 0,-0.05 0,-0.07 -0.04,-0.11 -0.02,-0.03 -0.05,-0.04 -0.1,-0.04 0,0.03 -0.02,0.09 -0.04,0.11 -0.12,0.19 -0.29,0.16 -0.52,0.16 -0.13,0 -0.23,-0.06 -0.29,-0.16 -0.02,-0.02 -0.04,-0.07 -0.05,-0.11 -0.08,0 -0.14,0.06 -0.14,0.12zm0.45 0.01l0.28 0c0.07,0 0.12,-0.03 0.16,-0.08 0.01,-0.01 0.01,-0.03 0.02,-0.05l-0.63 0c0.03,0.07 0.08,0.13 0.17,0.13zm0.21 1.05l0 0.41 0.54 0c-0.02,-0.09 -0.01,-0.08 -0.02,-0.11 0,-0.02 -0.01,-0.03 -0.02,-0.04 -0.05,-0.05 -0.11,-0.08 -0.11,-0.2l0 -0.37c0,-0.08 0.05,-0.08 -0.08,-0.08 -0.02,0 -0.04,0.03 -0.04,0.05 -0.02,0.04 0.01,0.08 -0.09,0.18 -0.04,0.04 -0.11,0.12 -0.16,0.14 -0.01,0.01 -0.02,0.01 -0.02,0.02zm-0.51 0.01l0.1 0c0.11,0 0.11,0.13 0,0.13l-0.1 0c-0.11,0 -0.11,-0.13 0,-0.13zm0.38 0.4l-0.66 0 0 -0.49c0,-0.15 0.16,-0.31 0.31,-0.31 0.03,0 0.07,0 0.08,0.05 0.01,0.01 0.01,0.04 0.02,0.08 0.01,0.04 0.04,0.07 0.07,0.1 0.04,0.04 0.11,0.12 0.16,0.15 0.01,0 0.02,0 0.02,0.01l0 0.41zm-0.05 -2.05l0.23 0c0.11,0 0.11,0.14 0,0.14l-0.23 0c-0.11,0 -0.11,-0.14 0,-0.14zm0.11 -0.19l0 0c0.04,0 0.43,0.1 0.48,0.11 0.03,0.01 0.11,0.02 0.11,0.08 0,0.04 -0.05,0.2 -0.07,0.26 -0.01,0.03 -0.02,0.07 -0.04,0.07l-0.95 0c-0.02,0 -0.02,-0.02 -0.02,-0.03 -0.01,-0.02 -0.01,-0.03 -0.02,-0.04 -0.01,-0.03 -0.01,-0.06 -0.02,-0.08 -0.02,-0.05 -0.06,-0.14 -0.06,-0.18 0,-0.03 0.03,-0.05 0.05,-0.06 0.02,-0.01 0.05,-0.01 0.08,-0.02 0.05,-0.01 0.1,-0.02 0.15,-0.04 0.03,-0.01 0.28,-0.07 0.31,-0.07zm0.87 1.71l0.11 0c0.1,0 0.1,0.13 0,0.13l-0.11 0c-0.1,0 -0.1,-0.13 0,-0.13zm0.19 0.53l-0.28 0c-0.02,0 -0.03,-0.02 -0.04,-0.03 -0.02,-0.02 -0.01,-0.07 -0.01,-0.11 0,-0.04 0,-0.03 -0.02,-0.05 -0.02,-0.03 -0.12,-0.11 -0.12,-0.14l0 -0.41c0,-0.03 0.03,-0.06 0.06,-0.06l0.08 0 0 -0.6c0,-0.07 0.13,-0.07 0.13,0l0 0.6 0.13 0 0 -0.07c0,-0.08 0.13,-0.08 0.13,0l0 0.07 0.07 0c0.03,0 0.06,0.03 0.06,0.06l0 0.41c0,0.04 -0.09,0.12 -0.12,0.14 -0.03,0.03 0.01,0.12 -0.03,0.17 -0.01,0 -0.02,0.02 -0.04,0.02z"></path> </g> </g> </svg>