<svg xmlns="http://www.w3.org/2000/svg" xmlns:xlink="http://www.w3.org/1999/xlink" xml:space="preserve" width="91px" height="91px" style="shape-rendering:geometricPrecision; text-rendering:geometricPrecision; image-rendering:optimizeQuality; fill-rule:evenodd; clip-rule:evenodd" viewBox="0 0 7.93 7.93"> <defs> <style type="text/css"> .fil1 {fill:#083264} .fil0 {fill:white} </style> </defs> <g id="Layer_x0020_1"> <metadata id="CorelCorpID_0Corel-Layer"></metadata> <g id="_1717989082896"> <circle class="fil0" cx="3.97" cy="3.97" r="3.97"></circle> <g> <path class="fil1" d="M5.03 5.3c0,0.1 -0.05,0.19 -0.1,0.24 -0.06,0.06 -0.15,0.1 -0.26,0.1l-1.89 0c-0.33,0 -0.44,-0.28 -0.36,-0.46 0.04,-0.09 0.12,-0.19 0.17,-0.27l0.26 -0.4c0.11,-0.17 0.56,-0.87 0.61,-0.93 0.08,-0.08 0.17,-0.13 0.32,-0.11 0.13,0.03 0.18,0.1 0.25,0.19l0.86 1.33c0.06,0.08 0.14,0.19 0.14,0.31zm-3.41 -2.64c0,-0.13 0.07,-0.2 0.2,-0.2l3.79 0c0.25,0 0.2,0.24 0.2,0.5l-4.19 0 0 -0.3zm-0.17 -0.07l0 3.25c0,0.08 0.06,0.17 0.1,0.21 0.04,0.04 0.13,0.09 0.2,0.09l3.91 0c0.16,0 0.32,-0.15 0.32,-0.31l0 -3.23c0,-0.16 -0.16,-0.31 -0.32,-0.31l-3.91 0c-0.14,0 -0.3,0.16 -0.3,0.3z"></path> <path class="fil1" d="M3.47 5.16c0,-0.39 0.48,-0.31 0.48,-0.05 0,0.08 0,0.15 -0.07,0.21 -0.1,0.09 -0.24,0.09 -0.33,0 -0.03,-0.03 -0.08,-0.1 -0.08,-0.16zm0.54 -0.97c0,0.13 -0.12,0.76 -0.39,0.58 -0.02,-0.02 -0.04,-0.05 -0.06,-0.08 -0.08,-0.13 -0.17,-0.47 -0.12,-0.62 0.13,-0.31 0.57,-0.19 0.57,0.12zm-1.45 1.11c0,0.1 0.07,0.17 0.17,0.17l1.97 0c0.12,0 0.17,-0.08 0.17,-0.2 0,-0.04 -0.04,-0.08 -0.06,-0.11l-0.21 -0.32c-0.04,-0.07 -0.09,-0.14 -0.13,-0.2l-0.62 -0.95c-0.06,-0.08 -0.2,-0.08 -0.27,0l-0.14 0.2c-0.02,0.04 -0.04,0.07 -0.07,0.11 -0.09,0.15 -0.18,0.29 -0.27,0.43l-0.42 0.63c-0.02,0.04 -0.04,0.07 -0.07,0.11 -0.02,0.04 -0.05,0.06 -0.05,0.13z"></path> <path class="fil1" d="M1.79 2.71c0,0.05 0.03,0.08 0.08,0.08l0.34 0c0.11,0 0.11,-0.17 0,-0.17l-0.34 0c-0.05,0 -0.08,0.04 -0.08,0.09z"></path> <path class="fil1" d="M2.37 2.71c0,0.05 0.04,0.08 0.09,0.08l0.33 0c0.11,0 0.11,-0.17 0,-0.17l-0.33 0c-0.05,0 -0.09,0.04 -0.09,0.09z"></path> <path class="fil1" d="M2.96 2.71c0,0.05 0.03,0.08 0.08,0.08l0.34 0c0.11,0 0.11,-0.17 0,-0.17l-0.34 0c-0.05,0 -0.08,0.04 -0.08,0.09z"></path> <path class="fil1" d="M5.64 1.87c0,0.18 -0.03,0.34 0.08,0.34 0.12,0 0.09,-0.15 0.09,-0.36 0,-0.08 -0.17,-0.1 -0.17,0.02z"></path> <path class="fil1" d="M5.93 2.24c0,0.04 0.05,0.09 0.09,0.09 0.06,0 0.11,-0.07 0.14,-0.11 0.1,-0.1 0.12,-0.08 0.12,-0.17 0,-0.06 -0.07,-0.06 -0.11,-0.06 -0.03,0 -0.1,0.08 -0.12,0.11 -0.03,0.03 -0.12,0.09 -0.12,0.14z"></path> <path class="fil1" d="M6.06 2.54c0,0.12 0.16,0.08 0.33,0.08 0.12,0 0.12,-0.16 0,-0.16 -0.17,0 -0.33,-0.04 -0.33,0.08z"></path> </g> </g> </g> </svg>