<svg xmlns="http://www.w3.org/2000/svg" xmlns:xlink="http://www.w3.org/1999/xlink" xml:space="preserve" width="91px" height="91px" style="shape-rendering:geometricPrecision; text-rendering:geometricPrecision; image-rendering:optimizeQuality; fill-rule:evenodd; clip-rule:evenodd" viewBox="0 0 7.72 7.72"> <defs> <style type="text/css"> .fil1 {fill:#083264} .fil0 {fill:white} </style> </defs> <g id="Layer_x0020_1"> <metadata id="CorelCorpID_0Corel-Layer"></metadata> <g id="_1718189933792"> <circle class="fil0" cx="3.86" cy="3.86" r="3.86"></circle> <path class="fil1" d="M3.85 1.74c0.72,0.46 1.38,0.67 1.93,0.62 0.1,1.97 -0.63,3.14 -1.92,3.62 -1.24,-0.45 -1.98,-1.57 -1.93,-3.65 0.66,0.04 1.3,-0.11 1.92,-0.59zm-0.77 1.39l0.45 0 0 -0.13c0,-0.04 0.03,-0.07 0.07,-0.07l0.52 0c0,0 0,0 0,0 0.04,0 0.07,0.03 0.07,0.07 0,0 0,0 0,0l0 0.13 0.45 0c0.02,0 0.05,0.01 0.07,0.03 0.02,0.02 0.03,0.04 0.03,0.07l0 0.15c-0.11,0.07 -0.23,0.14 -0.35,0.19 -0.13,0.06 -0.26,0.1 -0.4,0.13l0 -0.09c0,-0.04 -0.03,-0.07 -0.07,-0.07l-0.13 0c0,0 0,0 0,0 -0.02,0 -0.03,0.01 -0.05,0.02 -0.01,0.01 -0.02,0.03 -0.02,0.05 0,0 0,0 0,0l0 0.09c-0.13,-0.03 -0.26,-0.07 -0.39,-0.13 -0.12,-0.05 -0.24,-0.12 -0.35,-0.2l0 -0.14c0,-0.06 0.04,-0.1 0.1,-0.1 0,0 0,0 0,0l0 0zm0.88 0l-0.31 0c0,0 0,0 0,0 0,0 0,0 0,0 -0.01,0 -0.01,0 -0.01,0l0 0.1 0.43 0 0 -0.2c0,0 0,0 0,0 0,0 0,0 -0.01,0 0,0 0,0 0,0l-0.1 0.1zm-0.04 0.47l-0.13 0c0,0 0,0.01 0,0.01 0,0 -0.01,0 -0.01,0 0,0 0,0 0,0l0 0.28c0,0 0,0 0,0 0,0 0.01,0 0.01,0 0,0 0,0 0,0 0,0 0,0 0,0l0.13 0c0,0 0.01,0 0.01,0 0,0 0,0 0,0 0,0 0,0 0,0l0 -0.28c0,0 0,0 0,0 0,-0.01 -0.01,-0.01 -0.01,-0.01l0 0zm0.08 0.19c0,0.01 0,0.01 0.01,0.01 0,0 0,0 0.01,-0.01 0.14,-0.03 0.29,-0.07 0.42,-0.13 0.11,-0.05 0.21,-0.11 0.3,-0.17l0 0.71c0,0.06 -0.04,0.1 -0.1,0.1l-1.56 0c-0.03,0 -0.06,-0.01 -0.08,-0.02 -0.01,-0.02 -0.02,-0.05 -0.02,-0.08l0 -0.72c0.09,0.07 0.2,0.13 0.31,0.17 0.13,0.06 0.28,0.11 0.42,0.14l0.01 0 0 0.09c0,0.04 0.03,0.07 0.07,0.07l0.13 0c0,0 0,0 0,0 0.02,0 0.04,0 0.05,-0.02 0.01,-0.01 0.02,-0.03 0.02,-0.05 0,0 0,0 0,0l0 -0.09 0.01 0zm-0.14 -1.72c0.59,0.38 1.17,0.59 1.63,0.55 0.08,1.63 -0.56,2.63 -1.63,3.04 -1.03,-0.38 -1.68,-1.34 -1.63,-3.07 0.6,0.03 1.15,-0.15 1.63,-0.52z"></path> </g> </g> </svg>