<svg xmlns="http://www.w3.org/2000/svg" xmlns:xlink="http://www.w3.org/1999/xlink" xml:space="preserve" width="91px" height="91px" style="shape-rendering:geometricPrecision; text-rendering:geometricPrecision; image-rendering:optimizeQuality; fill-rule:evenodd; clip-rule:evenodd" viewBox="0 0 10.49 10.49"> <defs> <style type="text/css"> .fil1 {fill:#083264} .fil0 {fill:white} </style> </defs> <g id="Layer_x0020_1"> <metadata id="CorelCorpID_0Corel-Layer"></metadata> <g id="_1718164749808"> <circle class="fil0" cx="5.25" cy="5.25" r="5.25"></circle> <path class="fil1" d="M7.51 7.47l-1.32 -0.55 0.01 -0.51 1.31 0.52 0 0.53 0 0.01zm-2.12 -0.61l0.09 0.52 0.44 -1.06 -0.59 0.17 0.22 0.21 -0.15 0.16 -0.01 0zm-0.37 0.49l0.09 -0.49 -0.16 -0.16 0.2 -0.2 -0.55 -0.17 0.42 1.02zm-1.06 -3.13l0.01 -0.01 0 0c0,0 0,0 0,0 0,-0.02 0.01,-0.03 0.02,-0.03l0.03 0c0.18,-0.11 0.51,-0.18 0.87,-0.21 0.08,0.13 0.2,0.23 0.34,0.28 0.14,-0.05 0.26,-0.15 0.34,-0.28 0.34,0.03 0.65,0.1 0.85,0.21l0.03 0c0,0 0,0 0,0 0.02,0 0.04,0.01 0.04,0.03 0,0 0,0 0,0 0,0 0,0 0,0 0,0 0,0 0,0l0 0 0 0.01 -0.01 0.01 -0.01 0.1 0.02 0.15c0.02,0 0.03,0.01 0.04,0.02 0.02,0.01 0.04,0.03 0.05,0.05 0.02,0.03 0.03,0.07 0.03,0.1 0,0.02 0,0.04 0,0.06 0,0.02 0,0.03 0,0.05l0 0.01c0,0.03 -0.01,0.07 -0.02,0.11 -0.01,0.04 -0.02,0.07 -0.03,0.11l0 0c-0.03,0.07 -0.06,0.13 -0.11,0.18 -0.03,0.03 -0.07,0.06 -0.12,0.07l-0.01 0.03c0,0.02 -0.01,0.04 -0.01,0.05 -0.05,0.16 -0.09,0.29 -0.18,0.42 -0.03,0.02 -0.05,0.05 -0.07,0.08 -0.02,0.01 -0.04,0.03 -0.06,0.05 0,0 0,0 0,0 0,0.01 0,0.01 0,0.01l0 0.28c0.02,-0.01 0.03,-0.01 0.05,-0.01 0.01,0 0.02,0 0.03,0.01l1.55 0.62c0.04,0.02 0.07,0.05 0.07,0.09 0,0 0,0 0,0l0 0.59c0.05,0.09 0.09,0.2 0.11,0.31 0.03,0.17 0.04,0.11 0.04,0.26 0,0.06 -0.04,0.1 -0.09,0.1l-5.02 0c0,0 0,0 0,0 -0.05,0 -0.09,-0.04 -0.09,-0.09 -0.01,-0.15 0,-0.09 0.03,-0.24 0.02,-0.12 0.06,-0.22 0.12,-0.32l0 -0.61 0 0c0,0 0,0 0,0 0,-0.04 0.02,-0.07 0.06,-0.09l1.56 -0.62 0 0c0.01,0 0.02,0 0.02,-0.01l0 -0.28c0,0 0,0 0,0 0,-0.01 0,-0.02 0.01,-0.03l-0.03 -0.02c-0.02,-0.02 -0.04,-0.04 -0.06,-0.06l0 0c-0.05,-0.07 -0.1,-0.15 -0.13,-0.23 -0.04,-0.08 -0.07,-0.16 -0.1,-0.26l-0.02 -0.05c-0.03,0 -0.07,-0.02 -0.1,-0.04 -0.04,-0.04 -0.07,-0.08 -0.1,-0.13 -0.02,-0.04 -0.03,-0.09 -0.04,-0.13 -0.02,-0.04 -0.03,-0.09 -0.03,-0.13 0,-0.02 -0.01,-0.05 -0.01,-0.07 0,-0.02 0.01,-0.04 0.01,-0.07 0,-0.03 0.01,-0.07 0.03,-0.1l0 0c0.02,-0.02 0.03,-0.04 0.05,-0.06 0.02,0 0.03,-0.01 0.05,-0.01l0.01 -0.12 -0.01 -0.13 -0.01 -0.01zm3.33 2.76c0.07,0 0.13,0.06 0.13,0.14 0,0.07 -0.06,0.13 -0.13,0.13 -0.08,0 -0.14,-0.06 -0.14,-0.13 0,0 0,0 0,0 0,0 0,0 0,0 0,-0.08 0.06,-0.14 0.14,-0.14 0,0 0,0 0,0l0 0zm-4.22 0.14c0.07,0 0.13,0.06 0.13,0.13 0,0.08 -0.06,0.14 -0.13,0.14 -0.08,0 -0.14,-0.06 -0.14,-0.14 0,-0.07 0.06,-0.13 0.14,-0.13 -0.01,0 -0.01,0 -0.01,0 0,-0.08 0.07,-0.14 0.14,-0.14 0,0 0,0 0,0l-0.13 0.14zm1.23 -0.71l0.01 0.51 -1.32 0.55 0 -0.54 1.31 -0.52zm1.58 -0.44c-0.03,0.02 -0.07,0.04 -0.1,0.06 -0.02,0.01 -0.04,0.02 -0.06,0.02 -0.08,0.04 -0.16,0.07 -0.24,0.09 -0.08,0.02 -0.16,0.03 -0.24,0.03 0,0 -0.01,0 -0.01,0 -0.07,0 -0.14,-0.01 -0.2,-0.03l0 0c-0.07,-0.01 -0.14,-0.03 -0.2,-0.06 -0.05,-0.02 -0.1,-0.04 -0.14,-0.06 -0.04,-0.02 -0.08,-0.05 -0.12,-0.07l0 0.23 0.65 0.21 0.65 -0.19 0 -0.23 0.01 0zm-1.92 -1.98l0 -0.25 -0.21 -0.23c-0.29,-0.33 -0.23,-0.32 0.08,-0.41 0.46,-0.13 0.77,-0.41 1.04,-0.58 0.31,-0.21 0.4,-0.21 0.71,0 0.27,0.17 0.58,0.45 1.03,0.58 0.32,0.09 0.38,0.08 0.08,0.41l-0.2 0.23 0 0.25c-0.28,-0.1 -0.56,-0.17 -0.85,-0.21 0.03,-0.1 0.04,-0.2 0.04,-0.31 0,-0.02 0,-0.05 0,-0.07 -0.13,0.01 -0.28,-0.04 -0.45,-0.15l0 0c-0.12,0.09 -0.26,0.14 -0.41,0.14 -0.02,0 -0.03,0 -0.05,0 0,0.02 0,0.04 0,0.06 0,0.11 0.02,0.22 0.04,0.33 -0.29,0.04 -0.58,0.11 -0.85,0.21l0 0zm1.15 0.22l-0.04 0.24c0,0.01 -0.02,0.03 -0.03,0.03 -0.01,0 -0.01,0 -0.01,0 0,-0.01 -0.01,-0.01 -0.01,-0.01l-0.97 0.14 -0.01 0c-0.02,-0.01 -0.03,-0.01 -0.04,0.01 -0.01,0.02 -0.02,0.04 -0.02,0.06 0,0.01 0,0.03 0,0.04 0,0.02 0,0.04 0,0.05 0.01,0.04 0.01,0.07 0.02,0.11 0.01,0.03 0.03,0.07 0.04,0.1 0.02,0.03 0.04,0.06 0.06,0.08 0.01,0.01 0.02,0.02 0.04,0.02 0,0 0,0 0,-0.01l0 0c0.01,0 0.01,0 0.02,0 0.01,0 0.02,0.01 0.03,0.01 0.02,0.01 0.03,0.02 0.04,0.04l0 0 0.02 0.06 0.02 0.05c0.05,0.17 0.1,0.31 0.2,0.43l0 0c0.05,0.05 0.1,0.1 0.15,0.14 0.06,0.04 0.12,0.08 0.19,0.11l0 0c0.02,0.01 0.03,0.02 0.04,0.02l0.04 0.02 0 0c0.06,0.02 0.12,0.04 0.17,0.05 0.06,0.01 0.11,0.01 0.17,0.01 0,0 0,0 0.01,0 0.06,0 0.12,0 0.18,-0.02 0.07,-0.01 0.13,-0.03 0.19,-0.05l0.04 -0.02 0 0c0.07,-0.03 0.13,-0.07 0.19,-0.12 0.06,-0.04 0.12,-0.09 0.17,-0.15 0.04,-0.05 0.07,-0.11 0.09,-0.17 0.03,-0.06 0.05,-0.12 0.07,-0.2l0.01 -0.02c0.01,-0.03 0.02,-0.07 0.03,-0.1 0,-0.02 0.01,-0.04 0.03,-0.05l0 0c0.01,0 0.02,-0.01 0.04,-0.01 0,0 0.01,0 0.01,0l0 0c0.02,0.01 0.03,-0.01 0.05,-0.03 0.04,-0.04 0.06,-0.08 0.08,-0.13 0.01,-0.03 0.02,-0.06 0.03,-0.1 0.01,-0.03 0.01,-0.06 0.01,-0.09l0 0c0.01,-0.01 0.01,-0.03 0.01,-0.04 0,-0.01 0,-0.02 -0.01,-0.04 0,-0.01 0,-0.03 -0.01,-0.04l0 0c-0.01,-0.02 -0.01,-0.03 -0.02,-0.03 -0.01,0 -0.01,0 -0.02,0 0,0 -0.01,0 -0.01,0l-0.05 0.03c-0.03,0.03 -0.07,0.05 -0.12,0.06 0,0 0,0 -0.01,0 -0.01,0 -0.02,-0.01 -0.03,-0.03 0,0 0,0 0,0 0,0 0,0 0,0l-0.02 -0.25c-0.58,0.25 -1.41,0.24 -1.91,0.02l0.85 -0.22z"></path> </g> </g> </svg>