<svg xmlns="http://www.w3.org/2000/svg" xmlns:xlink="http://www.w3.org/1999/xlink" id="Layer_1" x="0px" y="0px" viewBox="0 0 91 91" style="enable-background:new 0 0 91 91;" xml:space="preserve"> <style type="text/css"> .st0{fill-rule:evenodd;clip-rule:evenodd;fill:#FFFFFF;} .st1{fill-rule:evenodd;clip-rule:evenodd;fill:#0B2852;} </style> <g> <circle class="st0" cx="45.5" cy="45.5" r="45.5"></circle> <path class="st1" d="M44.42,13.5c-5.65,0.53-9.81,2.95-12.39,5.84c-11.25,12.6-1.57,31.68,14.61,30.72 c12.94-0.77,21.19-14.78,15.23-26.52C58.76,17.42,51.8,12.82,44.42,13.5L44.42,13.5z M36.88,68.84c-2.98,0.1-6.1,0.01-9.09,0.01 c-2.76,0-2.83,0.31-3.81-0.72c-0.75-0.79-1.42-1.47-2.18-2.25c-5.25-5.36-6.39-5.09-6.46-11.56c-0.03-2.48-0.56-16.61-0.2-17.73 c0.3-0.91,1.45-1.87,2.87-1.58c1.34,0.28,1.62,1.21,2.12,2.42c0.47,1.13,2.44,5.77,2.51,6.52c-2.37,2.33-2.53,4.19-0.72,7.52 c1.27,2.33,2.69,4.5,4.1,6.39c0.89,1.19,1.63,2.66,2.88,2.39c0.57-0.12,1.14-0.82,1.01-1.59c-0.08-0.51-0.76-1.28-1.03-1.64 c-1.48-1.97-2.94-3.96-4.2-6.31c-0.6-1.12-1.69-2.66-0.8-3.98c0.96-1.42,2.51-1.1,3.49,0.04c0.85,0.99,1.65,1.84,2.47,2.84 c0.81,0.98,1.63,1.8,2.42,2.77c1.69,2.09,3.84,3.78,4.35,6.28C36.82,59.7,37.05,67.8,36.88,68.84L36.88,68.84z M54.21,63.22 c-0.1-0.9,0.01-3.85,0.18-4.65c0.34-1.59,1.01-2.26,1.78-3.19l4.58-5.28c2.13-2.28,3.46-5,5.47-4.09c2.77,1.25-0.19,5.05-1.04,6.5 c-0.82,1.41-3.97,5.63-4.06,5.83c-0.61,1.5,1.22,2.7,2.35,1.44c1.73-1.91,4.7-6.61,5.88-8.92c1.53-3.01,1.11-4.73-1.06-6.9 c0.06-0.67,1.75-4.63,2.09-5.47c0.52-1.27,1.24-4.31,3.85-3.41c2.26,0.78,1.7,3.44,1.66,5.84c-0.04,2.49-0.09,4.98-0.11,7.46 c-0.02,2.39-0.11,4.77-0.14,7.21c-0.04,2.53-0.5,4.08-1.88,5.63l-7.37,7.46l-12.25,0.01L54.21,63.22L54.21,63.22z M44.94,19.55 c1.48-0.4,2.82,0.68,3.14,1.83c0.23,0.82,0.11,9.01,0.12,10.55c0.01,1.84-0.52,2.93-2.02,3.33c-1.61,0.43-2.94-0.68-3.27-1.91 c-0.22-0.83-0.1-8.98-0.11-10.54C42.79,20.89,43.39,19.97,44.94,19.55L44.94,19.55z M66.09,71.55l-12.07-0.01 c-0.1,1.1-0.24,4.91,0.33,5.55c0.65,0.73,4.5,0.39,5.7,0.39c1.11,0,5.08,0.24,5.68-0.28C66.38,76.66,66.21,72.71,66.09,71.55 L66.09,71.55z M36.85,71.58l-12.07-0.04c-0.13,1.2-0.31,4.86,0.35,5.56c0.66,0.71,4.45,0.38,5.7,0.38c1.13,0,5.06,0.24,5.66-0.3 C37.13,76.6,36.95,72.79,36.85,71.58L36.85,71.58z M44.91,38c1.75-0.4,3.29,0.84,3.61,2.3c0.39,1.8-0.77,3.38-2.3,3.73 C42.3,44.94,40.68,38.97,44.91,38L44.91,38z M66.39,68.68l-12.25,0.01l0.07-5.47c-0.28,0.76-0.29,4.96-0.16,5.57 c0.73,0.18,9.33,0.07,11.56,0.07c0.03,0,0.37,0,0.38,0C66.49,68.78,66.19,68.86,66.39,68.68z"></path> </g> </svg>