<svg xmlns="http://www.w3.org/2000/svg" xmlns:xlink="http://www.w3.org/1999/xlink" id="Layer_1" x="0px" y="0px" viewBox="0 0 91 91" style="enable-background:new 0 0 91 91;" xml:space="preserve"> <style type="text/css"> .st0{fill-rule:evenodd;clip-rule:evenodd;fill:#FFFFFF;} .st1{fill-rule:evenodd;clip-rule:evenodd;fill:#0B2852;} </style> <g> <circle class="st0" cx="45.5" cy="45.5" r="45.5"></circle> <path class="st1" d="M65.84,59.07c-1.49,0.15-3.84-1.19-5.2-1.77c-1.95-0.84-3.53-0.97-2.65-3.18c0.91-2.28,1.45-1.79,4.36-0.47 c1.41,0.64,3.54,1.44,4.56,2.09C67.14,57.02,66.65,58.09,65.84,59.07L65.84,59.07z M60.98,53.28l-0.84,0.98l-1.19-0.51l0.67,1.1 l-0.85,0.97l1.25-0.29l0.66,1.11l0.11-1.28l1.26-0.29l-1.19-0.5L60.98,53.28L60.98,53.28z M65,54.98l-0.84,0.98l-1.18-0.5l0.67,1.1 l-0.84,0.97l1.25-0.29l0.66,1.11l0.11-1.29l1.26-0.29l-1.19-0.5L65,54.98L65,54.98z M26.05,54.99l0.83,0.99l1.19-0.49l-0.68,1.09 l0.83,0.98l-1.25-0.31l-0.68,1.1l-0.09-1.29l-1.25-0.31l1.2-0.48L26.05,54.99L26.05,54.99z M30.09,53.35l0.83,0.99l1.2-0.49 l-0.69,1.09l0.83,0.99L31,55.62l-0.68,1.09l-0.09-1.29l-1.25-0.31l1.19-0.48L30.09,53.35L30.09,53.35z M31.18,28.21 c0.92,0.83,5.36,2.19,6.42,2.48c7.01,1.9,14.8,1.09,21.35-1.96c0.21-0.1,0.26-0.12,0.44-0.23c0.24-0.15,0.29-0.19,0.4-0.29 c-2.73-1.94-10.18-3.49-14.3-3.48C41.22,24.74,34.1,26.23,31.18,28.21L31.18,28.21z M44.65,16.5c3.1-1.31,4.56,3.5,1.79,4.47 C43.31,22.06,41.68,17.76,44.65,16.5L44.65,16.5z M30.24,27.27c-2.9-7.09,13.63-17.96,25.84-9c3.93,2.88,5.29,4.77,4.84,9 c-0.32,0-5.73-2.13-7.03-2.48c-2.65-0.72-5.49-1.14-8.4-1.15c-4.31,0-8.1,0.84-11.98,2.3C32.46,26.33,31.14,27.06,30.24,27.27 L30.24,27.27z M32.68,30.83c-0.01,3.53-0.52,1.61-1.13,3.72c-1.41,4.88,2.79,9.01,3.56,10.52c0.6,1.16,0.86,2.25,1.56,3.4 c3.48,5.76,10.27,7.33,15.66,2.56c1.66-1.47,2.36-3.37,3.55-5.94c0.83-1.78,2.64-2.8,3.46-6.24c1.18-4.98-0.98-4.38-1.08-8.02 c-4.15,0.81-8.24,2.44-12.78,2.46C40.93,33.3,36.8,31.57,32.68,30.83L32.68,30.83z M30.65,52.79c-1.78,0.76-4.07,1.52-5.69,2.39 c-1.75,0.94-0.61,4.51,1.7,3.65c1.74-0.65,3.83-1.62,5.58-2.42c1.19-0.54,1.39-0.98,0.82-2.38C32.54,52.76,32.17,52.14,30.65,52.79 L30.65,52.79z M39.07,61.61c-0.7-4.14-0.41-5.54-1.88-9.56c-1.27-3.48-3.73-1.56-7.43,0.15c-6.32,2.93-9.29,4.03-12,10.45 c-0.6,1.42-2.62,7.92-1.45,9.2c0.75,0.82,6.9,2.44,8.45,2.77c10.57,2.21,31.19,1.83,41.88-0.22c1.78-0.34,7.82-1.64,8.28-2.93 c0.64-1.79-1.14-7.6-1.83-9.13c-2.86-6.32-5.81-7.41-12.48-10.19c-3.48-1.45-5.11-3.96-6.79,0.15c-0.81,1.98-1.57,7.08-1.82,9.42 c-0.15-0.1-5.39-5.23-6.52-5.87c-0.64,0.36-1.18,0.93-1.8,1.43L39.07,61.61z"></path> </g> </svg>