<svg xmlns="http://www.w3.org/2000/svg" xmlns:xlink="http://www.w3.org/1999/xlink" xml:space="preserve" width="91px" height="91px" style="shape-rendering:geometricPrecision; text-rendering:geometricPrecision; image-rendering:optimizeQuality; fill-rule:evenodd; clip-rule:evenodd" viewBox="0 0 4.15 4.15"> <defs> <style type="text/css"> .fil1 {fill:#083264} .fil0 {fill:white} </style> </defs> <g id="Layer_x0020_1"> <metadata id="CorelCorpID_0Corel-Layer"></metadata> <g id="_1718113698400"> <circle class="fil0" cx="2.07" cy="2.07" r="2.07"></circle> <g> <path class="fil1" d="M2.17 2.29l0.01 -0.04c0.09,-0.02 0.05,0.05 0.05,0.05 -0.02,0.02 -0.06,0.01 -0.06,-0.01zm-0.3 -0.08l-0.01 0.03c-0.03,0.01 -0.01,0.01 -0.04,0 -0.04,-0.06 0.05,-0.07 0.05,-0.03zm-1.06 -0.8c0.01,0.01 0.08,0.02 0.1,0.02 0,0.02 0.03,0.07 0.04,0.09 0.12,0.24 0.03,0.17 0.47,0.23l0.25 0.02c0.02,0.01 0.02,0.04 0.04,0.08 0.03,0.1 0.01,0.1 0.1,0.12l0.48 0.09c0.03,0 0.05,-0.02 0.06,-0.04 0.01,-0.03 0,-0.04 -0.01,-0.06 -0.02,-0.04 -0.04,-0.08 -0.06,-0.12 0.04,0 0.1,0.01 0.14,0.01l0.29 0.03c0.14,0.02 0.29,0.03 0.42,0.06 0.07,0.02 0.17,0.07 0.2,0.12 -0.14,-0.01 -0.29,-0.08 -0.29,0.03 0,0.07 0.13,0.06 0.23,0.08 0.03,0 0.07,0.01 0.1,0.01 -0.01,0.17 -0.13,0.12 -0.29,0.09 -0.14,-0.02 -0.26,-0.04 -0.39,-0.07 -0.5,-0.08 -1.03,-0.16 -1.53,-0.25 -0.19,-0.04 -0.19,-0.02 -0.25,-0.2l-0.1 -0.34zm0.76 -0.35l0.16 0.03c0.06,0.01 0.04,0 0.09,0.09 0.04,0.08 0.08,0.16 0.12,0.25l0.25 0.49c-0.03,0 -0.06,-0.01 -0.09,-0.01 -0.02,-0.01 -0.05,-0.01 -0.08,-0.02 -0.01,-0.02 -0.02,-0.05 -0.03,-0.07l-0.05 -0.15c-0.03,-0.09 -0.11,-0.05 -0.11,0.01 0,0.03 0.05,0.15 0.06,0.19 -0.02,0 -0.05,-0.01 -0.06,-0.01 -0.01,-0.02 -0.24,-0.76 -0.26,-0.8zm-0.14 -0.07c0,0.05 0.2,0.61 0.21,0.66 -0.04,-0.01 -0.21,-0.02 -0.26,-0.02 -0.04,-0.01 -0.09,-0.02 -0.13,-0.02 -0.05,0 -0.08,-0.01 -0.14,-0.01 0,-0.03 -0.07,-0.17 -0.1,-0.21 -0.04,-0.08 -0.03,-0.06 -0.21,-0.1 -0.03,0 -0.14,-0.04 -0.14,0.05 0,0.03 0.02,0.06 0.03,0.09 0.04,0.14 0.1,0.3 0.14,0.44 0.01,0.03 0.04,0.08 0.06,0.11 0.07,0.06 0.12,0.06 0.21,0.08 0.05,0 0.57,0.1 0.6,0.1 -0.05,0.1 0.05,0.2 0.13,0.2l0.02 0c0.07,0 0.14,-0.06 0.14,-0.13l0 -0.02c0.03,0 0.05,0.01 0.08,0.01 -0.01,0.04 -0.02,0.08 0,0.13l0.04 0.04c0.02,0.02 0.06,0.04 0.11,0.04 0.08,-0.01 0.14,-0.07 0.14,-0.16 0.02,0 0.05,0 0.08,0.01l0.72 0.12c0.1,0.02 0.21,0.03 0.28,-0.07 0.03,-0.05 0.05,-0.11 0.05,-0.17 0,-0.23 -0.29,-0.33 -0.48,-0.36 -0.06,-0.01 -0.12,-0.01 -0.19,-0.02 -0.17,-0.02 -0.4,-0.05 -0.56,-0.06 -0.05,0 -0.05,-0.01 -0.06,-0.04l-0.25 -0.49c-0.02,-0.05 -0.04,-0.09 -0.07,-0.14 -0.03,-0.06 -0.02,-0.05 -0.13,-0.07 -0.06,-0.01 -0.11,-0.02 -0.18,-0.03 -0.03,-0.01 -0.14,-0.04 -0.14,0.04z"></path> <path class="fil1" d="M0.76 2.87c0,0.05 0.04,0.06 0.08,0.06l1.88 0c0.13,0 0.09,-0.11 0.04,-0.11l-1.95 0c-0.01,0 -0.03,0.01 -0.03,0.02 -0.01,0 -0.02,0.02 -0.02,0.03z"></path> <path class="fil1" d="M1.07 3.14c0,0.04 0.02,0.07 0.07,0.07l0.91 0c0.11,0 0.09,-0.11 0.02,-0.11l-0.94 0c-0.03,0 -0.06,0.03 -0.06,0.04z"></path> <path class="fil1" d="M1.31 1.2c0.02,0 0.05,-0.02 0.05,-0.06 0,-0.05 -0.05,-0.05 -0.09,-0.06 -0.06,-0.02 -0.32,-0.08 -0.37,-0.08 -0.05,0 -0.07,0.06 -0.03,0.1 0.02,0.02 0.23,0.06 0.29,0.07l0.15 0.03z"></path> <path class="fil1" d="M3.06 2.93c0.13,0 0.24,0.03 0.24,-0.06 0,-0.03 -0.02,-0.05 -0.05,-0.05l-0.22 0c-0.06,0 -0.08,0.11 0.03,0.11z"></path> </g> </g> </g> </svg>