<svg xmlns="http://www.w3.org/2000/svg" xmlns:xlink="http://www.w3.org/1999/xlink" xml:space="preserve" width="91px" height="91px" style="shape-rendering:geometricPrecision; text-rendering:geometricPrecision; image-rendering:optimizeQuality; fill-rule:evenodd; clip-rule:evenodd" viewBox="0 0 3.89 3.89"> <defs> <style type="text/css"> .fil1 {fill:#083264} .fil0 {fill:white} </style> </defs> <g id="Layer_x0020_1"> <metadata id="CorelCorpID_0Corel-Layer"></metadata> <g id="_1718005071760"> <circle class="fil0" cx="1.94" cy="1.94" r="1.94"></circle> <g> <path class="fil1" d="M1.62 2.03c0,-0.17 0.14,-0.33 0.28,-0.33 0.14,0 0.18,0 0.29,0.11 0.19,0.2 0.02,0.54 -0.21,0.54l-0.07 0c-0.15,0 -0.29,-0.16 -0.29,-0.32zm-0.11 -0.06c0,0.16 0,0.25 0.13,0.37 0.16,0.16 0.44,0.16 0.6,0.01 0.28,-0.27 0.13,-0.76 -0.32,-0.76 -0.11,0 -0.21,0.05 -0.27,0.11 -0.04,0.04 -0.06,0.06 -0.09,0.11 -0.02,0.04 -0.05,0.1 -0.05,0.16z"></path> <path class="fil1" d="M1.47 1.52c-0.09,0.02 -0.33,0.02 -0.42,0l0 -0.25 0.42 0c0.01,0.06 0.02,0.2 0,0.25zm-0.3 -0.47c0,-0.03 0.05,-0.06 0.09,-0.06 0.05,0 0.09,0.02 0.09,0.07l0 0.09 -0.18 0 0 -0.1zm-0.12 0.1c-0.14,0.07 -0.12,0.1 -0.12,0.36 0,0.06 0.07,0.13 0.13,0.13l0.4 0c0.17,0 0.13,-0.25 0.13,-0.36 0,-0.09 -0.08,-0.11 -0.12,-0.13 0,-0.08 0,-0.13 -0.03,-0.19 -0.09,-0.11 -0.26,-0.11 -0.35,0 -0.04,0.05 -0.04,0.1 -0.04,0.19z"></path> <path class="fil1" d="M2.83 1.52c-0.08,0.02 -0.33,0.02 -0.41,0 -0.02,-0.08 -0.02,-0.17 0,-0.25l0.41 0c0.02,0.06 0,0.16 0,0.25zm-0.3 -0.41c0,-0.07 0.03,-0.12 0.1,-0.12 0.04,0 0.09,0.03 0.09,0.06l0 0.1 -0.19 0 0 -0.04zm-0.11 0.04c-0.14,0.07 -0.12,0.08 -0.12,0.36 0,0.06 0.07,0.13 0.13,0.13l0.39 0c0.18,0 0.13,-0.25 0.13,-0.36 0,-0.08 -0.08,-0.11 -0.12,-0.13 0,-0.09 0.01,-0.14 -0.03,-0.19 -0.09,-0.11 -0.26,-0.11 -0.35,0 -0.04,0.06 -0.03,0.11 -0.03,0.19z"></path> <path class="fil1" d="M2.8 2.9l-0.35 0c-0.07,0 -0.04,-0.22 -0.03,-0.26l0.41 0c0.02,0.07 0.01,0.05 0,0.13 0,0.05 0.02,0.13 -0.03,0.13zm-0.27 -0.42c0,-0.17 0.19,-0.13 0.19,-0.06l0 0.1 -0.19 0 0 -0.04zm-0.11 0.05c-0.15,0.01 -0.12,0.19 -0.12,0.35 0,0.06 0.05,0.13 0.14,0.13 0.14,0 0.41,0.02 0.47,-0.04 0.07,-0.06 0.04,-0.17 0.04,-0.3 0,-0.08 -0.04,-0.13 -0.12,-0.14 0,-0.17 -0.02,-0.28 -0.22,-0.28 -0.08,0 -0.12,0.03 -0.15,0.08 -0.05,0.05 -0.04,0.11 -0.04,0.2z"></path> <path class="fil1" d="M1.04 2.86c0,-0.1 -0.01,-0.14 0.01,-0.22l0.42 0c0.01,0.04 0.04,0.26 -0.04,0.26l-0.34 0c-0.03,0 -0.05,-0.02 -0.05,-0.04zm0.13 -0.44c0,-0.05 0.19,-0.16 0.19,0.1l-0.19 0 0 -0.1zm-0.12 0.11c-0.15,0.01 -0.12,0.2 -0.12,0.35 0,0.06 0.07,0.13 0.13,0.13 0.15,0 0.42,0.02 0.48,-0.04 0.07,-0.06 0.05,-0.17 0.05,-0.3 0,-0.08 -0.05,-0.13 -0.12,-0.14 0,-0.09 0.01,-0.14 -0.03,-0.2 -0.09,-0.12 -0.28,-0.11 -0.35,0 -0.04,0.06 -0.04,0.11 -0.04,0.2z"></path> <path class="fil1" d="M1.67 1.32c0,0.03 0.03,0.06 0.06,0.06l0.43 0c0.07,0 0.08,-0.12 -0.02,-0.12l-0.39 0c-0.05,0 -0.08,0.02 -0.08,0.06z"></path> <path class="fil1" d="M1.68 2.66c-0.01,0.07 -0.01,0.02 0,0.09 0.09,0.02 0.44,0.02 0.52,0 0.02,-0.07 0.02,-0.02 0,-0.09 -0.07,-0.02 -0.46,-0.02 -0.52,0z"></path> <path class="fil1" d="M1.9 2.01c-0.06,-0.04 -0.09,-0.08 -0.14,0.01 0.03,0.06 0.08,0.11 0.14,0.14 0.04,-0.02 0.22,-0.18 0.22,-0.22 0,-0.18 -0.21,0.06 -0.22,0.07z"></path> <path class="fil1" d="M1.22 1.73c-0.02,0.08 -0.02,0.35 0,0.43 0.07,0.02 0.02,0.02 0.08,0 0.02,-0.08 0.02,-0.35 0,-0.43 -0.02,-0.01 -0.03,-0.02 -0.08,0z"></path> <path class="fil1" d="M2.59 1.73c-0.02,0.08 -0.02,0.35 0,0.43 0.06,0.02 0.02,0.02 0.08,0 0.02,-0.08 0.02,-0.35 0,-0.43 -0.03,-0.01 -0.03,-0.02 -0.08,0z"></path> </g> </g> </g> </svg>