<svg xmlns="http://www.w3.org/2000/svg" xmlns:xlink="http://www.w3.org/1999/xlink" xml:space="preserve" width="91px" height="91px" style="shape-rendering:geometricPrecision; text-rendering:geometricPrecision; image-rendering:optimizeQuality; fill-rule:evenodd; clip-rule:evenodd" viewBox="0 0 7.72 7.72"> <defs> <style type="text/css"> .fil0 {fill:white} .fil1 {fill:#083264;fill-rule:nonzero} </style> </defs> <g id="Layer_x0020_1"> <metadata id="CorelCorpID_0Corel-Layer"></metadata> <g id="_1718119392528"> <circle class="fil0" cx="3.86" cy="3.86" r="3.86"></circle> <path class="fil1" d="M3.93 2.12l0.73 0.73 -0.73 0 0 -0.73zm1.28 3.24l0.02 0 0 -0.06c0,-0.09 0.03,-0.17 0.09,-0.24 0.06,-0.06 0.14,-0.1 0.23,-0.1 0.09,0 0.18,0.04 0.24,0.1 0.06,0.07 0.09,0.15 0.09,0.24l0 0.06 0.02 0c0.03,0 0.05,0.02 0.05,0.05l0 0.53c0,0.03 -0.02,0.06 -0.05,0.06l-0.69 0c-0.03,0 -0.06,-0.03 -0.06,-0.06l0 -0.53c0,-0.03 0.03,-0.05 0.06,-0.05zm0.3 0.34l-0.05 0.15 0.19 0 -0.05 -0.15c0.03,-0.02 0.06,-0.05 0.06,-0.09 0,-0.06 -0.05,-0.1 -0.11,-0.1 -0.05,0 -0.1,0.04 -0.1,0.1 0,0.04 0.03,0.08 0.06,0.09l0 0zm-0.18 -0.34l0.45 0 0 -0.06c0,-0.06 -0.02,-0.12 -0.07,-0.17 -0.04,-0.04 -0.09,-0.07 -0.16,-0.07 -0.06,0 -0.11,0.03 -0.16,0.07 -0.04,0.05 -0.06,0.11 -0.06,0.17l0 0.06 0 0zm-0.53 -1.56c0.36,0.23 0.69,0.34 0.97,0.31 0.02,0.29 0,0.54 -0.05,0.76 -0.04,-0.02 -0.09,-0.03 -0.13,-0.04 0.03,-0.17 0.05,-0.37 0.04,-0.6 -0.24,0.02 -0.52,-0.07 -0.83,-0.26 -0.26,0.2 -0.54,0.26 -0.82,0.25 -0.01,0.47 0.07,0.83 0.23,1.09 0.12,-0.1 0.32,-0.09 0.42,-0.22 0.01,-0.01 0.01,-0.02 0.01,-0.02 0,0 -0.11,-0.13 -0.11,-0.14 -0.03,-0.04 -0.07,-0.1 -0.07,-0.14 0,-0.03 0.02,-0.06 0.04,-0.07 0,-0.04 0,-0.08 0,-0.11 0,-0.03 0,-0.05 0,-0.07 0,-0.02 0.01,-0.02 0.01,-0.04 0.02,-0.06 0.06,-0.11 0.11,-0.14 0.02,-0.01 0.04,-0.02 0.06,-0.02 0.04,-0.02 0.02,-0.08 0.06,-0.08 0.1,0 0.25,0.08 0.31,0.15 0.04,0.04 0.07,0.09 0.07,0.15l-0.01 0.17c0.02,0 0.04,0.02 0.04,0.03 0.02,0.06 -0.04,0.12 -0.06,0.16 -0.03,0.04 -0.12,0.15 -0.12,0.15 0,0.01 0,0.01 0.01,0.02 0.03,0.05 0.08,0.07 0.13,0.1 0,0.02 -0.01,0.05 -0.01,0.08 -0.01,0.01 -0.02,0.01 -0.02,0.02l0 0c-0.03,0.03 -0.05,0.07 -0.05,0.12l0 0.43c-0.07,0.04 -0.15,0.07 -0.22,0.1 -0.63,-0.23 -1.01,-0.79 -0.98,-1.84 0.33,0.02 0.66,-0.05 0.97,-0.3l0 0zm-2.36 -0.12c0.02,-0.02 0.04,-0.03 0.06,-0.03l1.44 0c0.02,0 0.04,0.01 0.06,0.03 0.01,0.01 0.02,0.03 0.02,0.06 0,0.02 -0.01,0.05 -0.02,0.06l0 0c-0.01,0.01 -0.02,0.01 -0.02,0.02 -0.03,0 -0.06,0.01 -0.09,0.01l-1.39 0c-0.02,0 -0.05,-0.01 -0.06,-0.02 -0.02,-0.02 -0.02,-0.04 -0.02,-0.07 0,-0.02 0.01,-0.05 0.02,-0.06zm0 0.57c0.02,-0.02 0.04,-0.03 0.06,-0.03l1 0c0,0.07 0.01,0.13 0.01,0.19l-1.01 0c-0.02,0 -0.05,-0.01 -0.06,-0.03 -0.02,-0.02 -0.02,-0.04 -0.02,-0.07 0,-0.02 0.01,-0.04 0.02,-0.06zm0 0.57c0.02,-0.01 0.04,-0.02 0.06,-0.02l1.07 0c0.01,0.06 0.03,0.12 0.04,0.18l-1.11 0c-0.02,0 -0.05,-0.01 -0.06,-0.03 -0.02,-0.01 -0.02,-0.04 -0.02,-0.06 0,-0.03 0.01,-0.05 0.02,-0.07zm0 -1.72c0.02,-0.02 0.04,-0.03 0.06,-0.03l0.83 0c0.02,0 0.04,0.01 0.06,0.03 0.01,0.02 0.02,0.04 0.02,0.07 0,0.02 -0.01,0.04 -0.03,0.06 -0.01,0.02 -0.03,0.03 -0.05,0.03l-0.83 0c-0.02,0 -0.05,-0.01 -0.06,-0.03 -0.02,-0.02 -0.02,-0.04 -0.02,-0.06 0,-0.03 0.01,-0.05 0.02,-0.07zm0 -0.53c0.02,-0.02 0.04,-0.03 0.06,-0.03l0.45 0c0.03,0 0.05,0.01 0.06,0.03l0 0c0.02,0.01 0.03,0.04 0.03,0.06 0,0.03 -0.01,0.05 -0.03,0.07 -0.01,0.01 -0.03,0.02 -0.06,0.02l-0.45 0c-0.02,0 -0.05,-0.01 -0.06,-0.02 -0.02,-0.02 -0.02,-0.04 -0.02,-0.07 0,-0.02 0.01,-0.05 0.02,-0.06zm2.59 0.33c0,-0.05 -0.03,-0.1 -0.08,-0.11l-1.05 -1.02c-0.02,-0.03 -0.06,-0.04 -0.09,-0.04l-1.83 0c-0.12,0 -0.21,0.09 -0.21,0.21l0 3.64c0,0.12 0.09,0.21 0.21,0.21l2.05 0c-0.06,-0.06 -0.11,-0.14 -0.16,-0.21l-1.88 0 0 -3.64 1.72 0 0 0.99c0,0.06 0.05,0.12 0.12,0.12l0.99 0 0 0.42c0.07,0.04 0.14,0.08 0.21,0.12l0 -0.69z"></path> </g> </g> </svg>