<svg xmlns="http://www.w3.org/2000/svg" xmlns:xlink="http://www.w3.org/1999/xlink" xml:space="preserve" width="91px" height="91px" style="shape-rendering:geometricPrecision; text-rendering:geometricPrecision; image-rendering:optimizeQuality; fill-rule:evenodd; clip-rule:evenodd" viewBox="0 0 3.89 3.89"> <defs> <style type="text/css"> .fil1 {fill:#083264} .fil0 {fill:white} </style> </defs> <g id="Layer_x0020_1"> <metadata id="CorelCorpID_0Corel-Layer"></metadata> <g id="_1718310586944"> <circle class="fil0" cx="1.94" cy="1.94" r="1.94"></circle> <g> <path class="fil1" d="M1.94 1.9c0,-0.02 0.17,-0.31 0.19,-0.32 0.05,-0.04 0.12,0 0.12,0.06 0,0.04 -0.14,0.25 -0.16,0.29l-0.08 0.13c-0.01,0.02 -0.02,0.03 -0.05,0.03 -0.06,0.02 -0.11,-0.05 -0.17,-0.11 -0.02,-0.02 -0.05,-0.05 -0.06,-0.08 -0.02,-0.04 -0.01,-0.08 0.03,-0.1 0.09,-0.04 0.13,0.08 0.18,0.1zm-0.76 -0.42c0,0.24 0.05,0.45 0.15,0.65 0.02,0.03 0.03,0.06 0.04,0.09 0.07,0.12 0.18,0.25 0.28,0.35 0.01,0.01 0.02,0.01 0.03,0.03 0.03,0.03 0.14,0.1 0.18,0.14 0.1,0.08 0.1,0.05 0.24,-0.06 0.11,-0.08 0.17,-0.12 0.26,-0.24l0.15 -0.22c0.05,-0.09 0.09,-0.16 0.12,-0.26 0.06,-0.17 0.08,-0.29 0.08,-0.48 0,-0.04 -0.04,-0.06 -0.07,-0.07 -0.03,-0.02 -0.06,-0.03 -0.1,-0.05 -0.09,-0.03 -0.19,-0.09 -0.29,-0.13 -0.03,-0.01 -0.06,-0.03 -0.1,-0.04 -0.29,-0.12 -0.13,-0.12 -0.51,0.04 -0.09,0.04 -0.2,0.09 -0.29,0.13 -0.06,0.03 -0.17,0.06 -0.17,0.12z"></path> <path class="fil1" d="M2.33 0.94c0,0.06 0.03,0.09 0.06,0.09l0.47 0 0 0.47c0,0.03 0.03,0.06 0.09,0.06 0.03,0 0.06,-0.03 0.06,-0.06l0 -0.56c0,-0.03 -0.03,-0.06 -0.06,-0.06l-0.56 0c-0.03,0 -0.06,0.03 -0.06,0.06z"></path> <path class="fil1" d="M0.88 0.94l0 0.56c0,0.03 0.03,0.06 0.08,0.06 0.03,0 0.07,-0.03 0.07,-0.06l0 -0.47 0.47 0c0.03,0 0.06,-0.03 0.06,-0.09 0,-0.03 -0.03,-0.06 -0.06,-0.06l-0.56 0c-0.03,0 -0.06,0.03 -0.06,0.06z"></path> <path class="fil1" d="M2.86 2.39l0 0.47 -0.47 0c-0.03,0 -0.06,0.03 -0.06,0.09 0,0.03 0.03,0.06 0.06,0.06l0.56 0c0.03,0 0.06,-0.03 0.06,-0.06l0 -0.56c0,-0.03 -0.03,-0.06 -0.08,-0.06 -0.03,0 -0.07,0.03 -0.07,0.06z"></path> <path class="fil1" d="M0.88 2.39l0 0.56c0,0.03 0.03,0.06 0.06,0.06l0.56 0c0.03,0 0.06,-0.03 0.06,-0.08 0,-0.03 -0.03,-0.07 -0.06,-0.07l-0.47 0 0 -0.47c0,-0.03 -0.03,-0.06 -0.09,-0.06 -0.03,0 -0.06,0.03 -0.06,0.06z"></path> </g> </g> </g> </svg>