<svg xmlns="http://www.w3.org/2000/svg" xmlns:xlink="http://www.w3.org/1999/xlink" id="Layer_1" x="0px" y="0px" viewBox="0 0 91 91" style="enable-background:new 0 0 91 91;" xml:space="preserve"> <style type="text/css"> .st0{fill-rule:evenodd;clip-rule:evenodd;fill:#FFFFFF;} .st1{fill-rule:evenodd;clip-rule:evenodd;fill:#0B2852;} </style> <g> <circle class="st0" cx="45.5" cy="45.5" r="45.5"></circle> <path class="st1" d="M49.3,62.55c-1.5-0.41-3.03-0.94-4.54-1.4l-6.83-2.09c-1.49-0.44-0.94-1.38-0.55-1.6 c0.49-0.27,1.77,0.26,2.32,0.44c0.75,0.25,1.52,0.47,2.29,0.7c1.34,0.4,10.6,3.38,11.44,3.43c1.85,0.09,2.99-1.78,2.35-3.32 c-0.34-0.81-0.78-1.06-1.6-1.39c-5.66-2.31-11.26-4.59-16.94-6.89c-3.02-1.23-5.95-2.05-9.68-2.22c-1.95-0.09-3.76,0.09-5.63,0.27 c-0.7,0.07-5.18,0.4-5.43,0.56c-0.06,0.08-0.02-0.03-0.04,0.12c-0.06,0.34-0.03,14.46,0,14.81c1.05,0.07,3.61-1.3,7.42-0.84 c2.44,0.3,4.37,1.25,6.47,2.1l12.22,4.95l3.16,1.3c1.67,0.67,3.4,0.83,3.57,0.91h2.04l0.3-0.08c1.5-0.22,2.56-0.57,3.92-1.23 l18.53-8.96c1.25-0.6,2.48-1.19,3.72-1.8c0.98-0.48,1.9-0.77,2.42-1.72c0.17-0.31,0.23-0.69,0.36-0.94v-0.97 c-0.17-0.28-0.17-0.77-0.66-1.31c-1.36-1.51-2.84-0.91-4.33-0.5c-1.97,0.53-3.99,1.11-5.99,1.67c-2.02,0.57-3.99,1.12-6,1.66 c-2,0.54-3.98,1.16-5.99,1.68c-0.25,1.87-1.36,3.22-2.96,3.63C52.8,63.99,50.93,62.95,49.3,62.55L49.3,62.55z M52.36,34.74 c-1.63,0.36-3.11,1.91-2.66,4.03c0.36,1.67,1.98,3.06,4.02,2.64c1.65-0.34,3.06-1.93,2.66-4.02 C56.07,35.77,54.41,34.29,52.36,34.74L52.36,34.74z M61.94,25.11c0.17,0.31,0.68,0.78,0.94,1.09c0.28,0.33,0.75,0.75,0.94,1.1 c0.55,0.99,0.03,2.42,0.01,3.63c0.84-0.16,2.1-1.14,3.01-1.16c0.87-0.02,2.29,0.99,3.09,1.16c-0.03-1.13-0.51-2.69-0.02-3.59 c0.31-0.57,1.65-1.76,1.91-2.23c-0.99-0.26-2.67-0.37-3.3-0.95c-0.36-0.33-0.57-0.8-0.83-1.27c-0.24-0.42-0.56-0.94-0.79-1.36 c-0.19,0.19-0.64,1.01-0.79,1.29C64.98,24.88,64.9,24.43,61.94,25.11L61.94,25.11z M34.34,25.11c0.15,0.38,1.48,1.55,1.86,2.19 c0.53,0.89,0.05,2.51,0.01,3.63c0.87-0.2,2.18-1.18,3.09-1.16c0.95,0.02,2.34,1.1,3.05,1.15c-0.08-1.1-0.52-2.66-0.04-3.58 c0.27-0.52,1.74-1.84,1.9-2.24c-0.92-0.17-2.74-0.44-3.29-0.95c-0.48-0.44-1.24-1.97-1.62-2.62c-0.43,0.41-1.01,1.98-1.65,2.6 C36.89,24.85,35.23,24.74,34.34,25.11L34.34,25.11z M46.7,46.2c0.21-0.37,0.81-0.93,1.18-1.24c2.51-2.07,6.12-2.42,9.03-0.87 c0.78,0.42,2.21,1.51,2.51,2.16c-0.32,0.53-1.88,1.44-2.68,1.82c-2.21,1.03-5.23,1-7.42-0.04c-0.95-0.45-1.6-0.86-2.36-1.53 L46.7,46.2L46.7,46.2z M11.14,67.05c0.56,0,3.04,0.09,3.35-0.08c0.41-0.22,0.32-0.87,0.32-1.43l0-17.25c0-1.89,0.18-1.57-3.67-1.56 V67.05L11.14,67.05z M53.08,13.67H53c-0.32,0.62-1.94,3.51-2.3,3.86c-0.58,0.54-1.34,0.59-2.26,0.78 c-0.44,0.09-2.32,0.41-2.54,0.57l2.09,2.33c1.17,1.28,1.12,1.27,0.92,3.3c-0.08,0.89-0.2,1.8-0.29,2.73 c0.93-0.17,3.39-1.75,4.46-1.74c0.93,0.01,3.37,1.45,4.37,1.75c0.09-1.6-0.84-4-0.07-5.21c0.18-0.28,1.1-1.24,1.4-1.59 c0.29-0.34,1.28-1.32,1.41-1.6c-0.86-0.17-1.67-0.35-2.53-0.53c-2.66-0.56-2.22-0.48-4.02-3.65 C53.46,14.37,53.21,13.98,53.08,13.67L53.08,13.67z M45.58,44.89l-0.21-0.23c-3.93-6.02,0.39-14.26,7.76-14.18 c5.56,0.06,9.54,4.86,9.1,9.89c-0.14,1.56-0.88,3.76-1.7,4.59c-1.63-1.78-2.27-2-4.28-2.96c0.4-0.54,1.14-0.96,1.59-2.41 c0.35-1.11,0.31-2.29-0.11-3.35c-1.7-4.34-7.81-4.24-9.42,0.04c-1.27,3.39,1.28,5.35,1.5,5.71c-0.3,0.19-0.88,0.37-1.23,0.56 C46.61,43.59,46.34,44.33,45.58,44.89z"></path> </g> </svg>