<svg xmlns="http://www.w3.org/2000/svg" xmlns:xlink="http://www.w3.org/1999/xlink" xml:space="preserve" width="91px" height="91px" style="shape-rendering:geometricPrecision; text-rendering:geometricPrecision; image-rendering:optimizeQuality; fill-rule:evenodd; clip-rule:evenodd" viewBox="0 0 4.13 4.13"> <defs> <style type="text/css"> .fil1 {fill:#083264} .fil0 {fill:white} </style> </defs> <g id="Layer_x0020_1"> <metadata id="CorelCorpID_0Corel-Layer"></metadata> <g id="_1718129246064"> <circle class="fil0" cx="2.07" cy="2.07" r="2.07"></circle> <g> <path class="fil1" d="M2.59 1.74c-0.02,0 -0.04,-0.03 -0.05,-0.04 -0.03,-0.02 -0.15,-0.14 -0.15,-0.16 0,-0.02 0.02,-0.04 0.04,-0.04 0.02,0 0.09,0.08 0.12,0.1 0.01,0.02 0.02,0.03 0.04,0.04 0.05,-0.09 0.15,-0.25 0.2,-0.35 0.05,-0.07 0.09,-0.01 0.09,0.01 0,0.01 -0.12,0.2 -0.13,0.23 -0.03,0.04 -0.05,0.07 -0.07,0.11 -0.02,0.02 -0.02,0.04 -0.04,0.06 -0.01,0.02 -0.02,0.04 -0.05,0.04zm-0.52 -0.49c0,0.18 0.03,0.34 0.11,0.49 0.08,0.18 0.18,0.29 0.33,0.41 0.02,0.02 0.04,0.03 0.05,0.05 0.09,0.07 0.13,0.01 0.24,-0.09 0.16,-0.13 0.28,-0.3 0.34,-0.49 0.05,-0.14 0.06,-0.22 0.06,-0.37 0,-0.06 -0.08,-0.08 -0.11,-0.1 -0.06,-0.03 -0.1,-0.05 -0.15,-0.08 -0.04,-0.01 -0.27,-0.14 -0.29,-0.14 -0.06,0 -0.11,0.04 -0.17,0.07 -0.05,0.03 -0.1,0.05 -0.15,0.07 -0.05,0.03 -0.09,0.05 -0.14,0.08 -0.04,0.02 -0.12,0.04 -0.12,0.1z"></path> <path class="fil1" d="M1.34 2.25c0,0.15 0.15,0.3 0.27,0.3l-0.27 0 0 0.33 0.65 0 0 -0.33 -0.28 0c0.12,0 0.28,-0.15 0.28,-0.3l0 -0.1 -0.65 0 0 0.1z"></path> <path class="fil1" d="M1.58 1.5l0 0.2c0,0.04 -0.05,0.06 -0.08,0.02 -0.01,-0.02 0,-0.16 0,-0.19 -0.11,0.03 -0.24,0.2 -0.24,0.35l0 0.03c-0.06,0 -0.09,0.03 -0.09,0.09 0,0.03 0.04,0.07 0.08,0.07l0.83 0c0.05,0 0.1,-0.09 0.04,-0.14 -0.01,-0.02 -0.02,-0.02 -0.05,-0.02 0,-0.1 -0.03,-0.18 -0.08,-0.24 -0.03,-0.05 -0.11,-0.12 -0.17,-0.14 0,0.03 0.01,0.17 0,0.18 -0.02,0.05 -0.08,0.04 -0.08,-0.01l0 -0.2 -0.1 0c-0.03,0 -0.03,0 -0.06,0z"></path> <polygon class="fil1" points="1.26,3.2 2.07,3.2 2.07,2.96 1.26,2.96 "></polygon> <path class="fil1" d="M2.07 2.88c0.05,0.01 0.08,0.03 0.08,0.1l0 0.22 0.24 0 0 -0.34c0,-0.15 -0.14,-0.31 -0.32,-0.31l0 0.33z"></path> <path class="fil1" d="M0.93 2.86l0 0.34 0.24 0 0 -0.22c0,-0.07 0.03,-0.09 0.09,-0.1l0 -0.33c-0.19,0 -0.33,0.16 -0.33,0.31z"></path> </g> </g> </g> </svg>