<svg xmlns="http://www.w3.org/2000/svg" xmlns:xlink="http://www.w3.org/1999/xlink" xml:space="preserve" width="91px" height="91px" style="shape-rendering:geometricPrecision; text-rendering:geometricPrecision; image-rendering:optimizeQuality; fill-rule:evenodd; clip-rule:evenodd" viewBox="0 0 7.81 7.81"> <defs> <style type="text/css"> .fil1 {fill:#083264} .fil0 {fill:white} </style> </defs> <g id="Layer_x0020_1"> <metadata id="CorelCorpID_0Corel-Layer"></metadata> <g id="_1718378834960"> <circle class="fil0" cx="3.91" cy="3.91" r="3.91"></circle> <g> <path class="fil1" d="M3.28 2.8c-0.05,0.01 -0.03,-0.01 -0.05,0.07 -0.05,0.22 -0.04,0.29 -0.15,0.55 -0.02,-0.09 -0.02,-0.19 -0.04,-0.27 -0.03,-0.26 0.04,-0.11 0.02,-0.27l-0.2 0c-0.01,0.03 0.04,0.33 -0.03,0.52 -0.06,-0.07 -0.08,-0.2 -0.1,-0.3 -0.05,-0.18 -0.03,-0.3 -0.1,-0.3 -0.53,0.06 -0.48,-0.02 -0.53,0.65 -0.01,0.2 0,0.35 0.03,0.54 0.06,0.37 0.22,0.25 0.27,0.32l0.08 1.11c0.02,0.3 -0.01,0.65 0.26,0.63 0.1,-0.01 0.17,-0.08 0.21,-0.08 0.08,0 0.3,0.21 0.42,-0.03 0.04,-0.07 0.06,-0.41 0.07,-0.52l0.07 -1.11c0.02,-0.01 0.01,0 0.04,-0.01 0,-0.01 0,-0.01 0.01,-0.01l0.07 -0.02c0.12,-0.05 0.13,-0.12 0.15,-0.29 0.03,-0.2 0.04,-0.34 0.03,-0.56 -0.04,-0.57 0.04,-0.56 -0.53,-0.62zm-0.47 -0.13c0.15,0.04 0.14,0.05 0.28,0 0.12,-0.14 0.21,-0.23 0.23,-0.51 0.02,-0.26 -0.12,-0.4 -0.37,-0.4 -0.42,0 -0.4,0.41 -0.28,0.7 0.06,0.15 0.13,0.16 0.14,0.21zm1.64 -0.02l0.1 -0.04c0.09,0.19 0.22,0.34 0.47,0.38 0.84,0.13 0.99,-1.22 0.03,-1.19 -0.22,0.03 -0.4,0.16 -0.45,0.31 -0.07,0.05 -0.08,0.24 -0.09,0.34 -0.39,0.24 -0.41,0.14 -0.41,0.49l0 1.79c0,0.12 -0.03,0.34 0.02,0.42 0.06,0.1 0.2,0.11 0.27,0.19 0.01,0 0.02,0 0.02,0 0.04,0.01 0.06,0.03 0.1,0.05 0,0.62 0.59,0.8 0.96,0.55 0.33,-0.24 0.33,-0.77 -0.03,-1 -0.02,-0.02 -0.1,-0.05 -0.11,-0.06 -0.44,-0.1 -0.6,0.05 -0.78,0.35 -0.09,-0.01 -0.14,-0.08 -0.22,-0.09 -0.09,-0.11 -0.09,0.01 -0.09,-0.22 0,-0.19 -0.01,-0.84 0.01,-0.93l0.26 0c0.06,0.13 0.01,0.19 0.21,0.38 0.31,0.32 0.99,0.13 1,-0.43 0.01,-0.54 -0.62,-0.81 -1.01,-0.46 -0.14,0.12 -0.13,0.19 -0.2,0.37l-0.27 0 0 -1.08c0.06,-0.05 0.15,-0.09 0.21,-0.12zm0.83 1.02c0.09,-0.11 0.18,-0.05 0.14,0.04 -0.02,0.05 -0.1,0.15 -0.13,0.2 -0.05,0.07 -0.21,0.36 -0.3,0.38 -0.08,0.01 -0.14,-0.1 -0.18,-0.15 -0.04,-0.07 -0.14,-0.15 -0.07,-0.22 0.07,-0.06 0.12,0.04 0.2,0.09 0.02,0.02 0,0.01 0.03,0.02l0.31 -0.36zm-0.87 1.67c0.06,0 0,0 0.03,-0.03 -0.08,-0.01 0.01,-0.01 -0.08,-0.02 0,0 0.01,0 0.01,0 0,0 0,-0.01 0,-0.01 0.01,0 0.01,0 0.01,0l0.02 -0.02c0,0 0.01,0 0.01,0 0,-0.01 0.01,-0.01 0.01,-0.01 -0.05,0 -0.07,-0.01 -0.11,-0.02 0,-0.05 -0.01,-0.06 0.02,-0.09l0.08 0.2z"></path> </g> </g> </g> </svg>