<svg xmlns="http://www.w3.org/2000/svg" xmlns:xlink="http://www.w3.org/1999/xlink" id="Layer_1" x="0px" y="0px" viewBox="0 0 91 91" style="enable-background:new 0 0 91 91;" xml:space="preserve"> <style type="text/css"> .st0{fill-rule:evenodd;clip-rule:evenodd;fill:#FFFFFF;} .st1{fill-rule:evenodd;clip-rule:evenodd;fill:#0B2852;} </style> <g> <circle class="st0" cx="45.5" cy="45.5" r="45.5"></circle> <path class="st1" d="M36.22,24.67l-13.58,3.48c-0.16,0.02-0.3,0-0.45,0.04c-0.61,0.16-0.33,0.13-0.47,0.21 c-0.86,0.16-2.43,0.46-3.08,0.87c1,0.68,3.79,1.24,6.84,4.09c1.49,1.4,3.82,4.07,4.66,6.4l9.38-2.46c0.45-0.06,0.46,0,0.9-0.27 l25.75-6.88l-0.43-1.67l-0.26-0.78c-0.89-2.23-1.26-3.16-2.61-5.03c-0.46-0.63-0.69-0.81-1.23-1.35c-2.37-2.42-4.18-2.19-7.81-1.22 c-2.76,0.73-5.55,1.43-8.33,2.14l-8.32,2.12L36.22,24.67L36.22,24.67z M61.44,49.2c0.02-0.04,0.06-0.13,0.07-0.1 c0.01,0.02,0.05-0.04,0.12-0.22c0.13-0.36,0.02-0.07,0.09-0.41c0.12-0.98,0.28-1.49,0.05-2.52c-0.19-0.1-0.02-0.07-0.32-0.08 l-5.55,1.51c-0.18,0.03-0.37,0.03-0.55,0.09c-0.69,0.25-0.11,0.01-0.38,0.25l-11.6,3.26c0.25,1.66,1.91,2.9,3.46,3.41 C51.24,55.82,59.49,53.57,61.44,49.2L61.44,49.2z M56.27,46.41l-12.69,3.54c-0.14,0.09,0.14,0.05-0.45,0.22 c-0.14,0.04-0.29,0.04-0.44,0.06l-3.1,0.8c-0.19,0.19,0.09,0.1-0.47,0.3c-0.15,0.05-0.34,0.07-0.49,0.11l-6.81,1.85 c0.56-2.66,0.85-3.79,0.46-6.75c-0.38-2.85-1.5-5.15-1.57-5.95l2.06-0.56c0.04-0.02,0.08-0.05,0.11-0.07 c0.03-0.01,0.08-0.04,0.11-0.06l0.7-0.13l22.76-6.06l0.47-0.21c0.22-0.06,0.22-0.03,0.44-0.06l8.69-2.24 c0.2-0.18-0.31-0.13,0.45-0.22l0.19,0.53c0.13,3.07,3.42,8.96,0.95,11.15c-1.05,0.93-3.47,1.43-5.12,1.91 c-1.63,0.47-3.74,1.19-5.33,1.49L56.27,46.41L56.27,46.41z M19.79,31.19c-2.63-0.07-4.08,1.78-4.85,3.7 c-0.43,1.07-0.67,2.31-0.75,3.58c-0.09,1.46,0.2,2.78,0.17,4.02l-4.02,0.29c-0.29-0.98-0.18-4.64-0.07-5.76 c0.52-5.49,4.47-9.1,9.62-6.17l0.39,0.12C20.05,31.2,20.66,31.17,19.79,31.19L19.79,31.19z M65.2,60.04 c0.52,0.56,0.48,2.14,0.56,3.12c0.12,1.43-0.4,2-1.78,1.93c-0.2,0.18,0.08,0.06-0.27,0.18c-0.07,0.02-0.45,0.1-0.54,0.11 c-0.35,0.05-0.69,0.06-1.09,0.09c-3.7,0.08-5.7,0.53-8.48-1.52c-0.88-0.65-1.68-1.62-2.26-2.91c-0.43-0.97-1.15-3.07-1.06-4.17 c-0.18-0.26,0,0.24-0.18-0.32c-0.16-0.5-0.06-0.59-0.02-0.83l0.59-0.03c2.33,0,3.56-0.67,5.49-1.04c-0.24,2.56-0.2,4.43,1.69,5.34 c1.97,0.95,4.41,0.17,6.37-0.15c0.08-0.05-0.2-0.24,0.49-0.12c0.12,0.02,0.14,0.04,0.22,0.08C65.41,60.04,64.9,59.77,65.2,60.04 L65.2,60.04z M23.39,43.05c-0.18,0.18-0.38,0.2-0.57,0.02c-0.35-0.34-0.05-0.52,0-0.61C23.48,42.14,23.67,42.76,23.39,43.05 L23.39,43.05z M23.24,40.55c-2.76,0.62-0.33,7.26,2.29,6.53C28,46.4,25.71,39.99,23.24,40.55L23.24,40.55z M62.12,59.31 c1.24-0.18,2.55-0.8,3.52-0.08c0.97,0.71,0.86,1.86,0.99,3.25c0.29,3.01-0.3,3.39-4.52,3.79c-0.02,5.97,0.15,5.28,6.63,5.3 c2.1,0,3.3-0.3,3.35-2.52V57.27c0-2.2-0.88-2.91-3.06-2.9C62.32,54.4,62.1,53.74,62.12,59.31L62.12,59.31z M28.42,52.81 c-0.92-1.25,1.41-1.47,0.7,0.02L28.42,52.81L28.42,52.81z M22.16,52.04c-0.5-0.83,0.22-1.24,0.72-0.87 C23.23,51.41,23.27,52.35,22.16,52.04L22.16,52.04z M18.81,47.02c-1.48-0.6,0.54-2,0.54-0.37C19.07,46.98,19.3,46.86,18.81,47.02 L18.81,47.02z M28.13,43.71c0.02,0.04,0.06,0.08,0.07,0.11c0.01,0.03,0.05,0.08,0.06,0.11c0.12,0.29,0.42,1.75,0.37,2.58 c-0.01,0.13-0.05,0.44-0.09,0.56c-0.14,0.49-0.03,0.11-0.16,0.31c-0.09,2.38-2.64,4.14-5.49,1.35c-4.42-4.33-3.71-13.46,1.39-10.58 C25.76,38.98,27.73,41.49,28.13,43.71L28.13,43.71z M17.33,40.01c-0.49,0.99,0.58,1.05,0.84,0.68 C18.55,40.12,18.16,39.59,17.33,40.01L17.33,40.01z M20.52,35.31c-0.49,0.41-1.22,0.34-1.02-0.42 C19.63,34.4,20.68,34.12,20.52,35.31L20.52,35.31z M18.84,32.13c6.12-1.78,13.22,9.48,12.71,17.68 c-0.64,10.3-10.36,7.95-14.84-2.65C14.81,42.66,13.59,33.67,18.84,32.13z"></path> </g> </svg>