<svg xmlns="http://www.w3.org/2000/svg" xmlns:xlink="http://www.w3.org/1999/xlink" id="Layer_1" x="0px" y="0px" viewBox="0 0 91 91" style="enable-background:new 0 0 91 91;" xml:space="preserve"> <style type="text/css"> .st0{fill-rule:evenodd;clip-rule:evenodd;fill:#FFFFFF;} .st1{fill-rule:evenodd;clip-rule:evenodd;fill:#0B2852;} </style> <g> <circle class="st0" cx="45.5" cy="45.5" r="45.5"></circle> <path class="st1" d="M45.85,69.65c1.49-0.78,10.03-12.55,10.88-13.73c3.21-4.42,6.73-9.6,8.62-15.84 c4.32-14.29-6.67-27.15-20.27-26.92c-13.2,0.23-23.81,13.01-19.23,27.3c2.7,8.42,11.06,18.76,17.22,25.73 C43.95,67.18,45.23,68.61,45.85,69.65L45.85,69.65z M43.68,18.56c4.68-0.66,9.1,1.27,11.75,3.44c10.51,8.59,5.64,25.95-7.83,27.61 c-9.18,1.13-16.68-5.53-17.62-13.57C28.88,26.65,35.59,19.7,43.68,18.56L43.68,18.56z M43.79,21.18 c7.59-1.03,13.73,4.52,14.64,10.91c1.13,7.85-4.39,13.9-10.9,14.91c-7.81,1.22-13.99-4.44-14.94-10.99 C31.46,28.16,37.1,22.09,43.79,21.18L43.79,21.18z M73.14,68.88c-1.34,3.45-14.03,4.93-17.29,5.23 c-9.12,0.82-28.51,0.77-36.06-3.39c-3.03-1.67-2.78-4.38,0.01-5.93c4.03-2.23,11.2-3.25,16.47-3.49c0.96,0.71,1.48,1.63,2.14,2.47 c-4.4,0.68-16.31,1.02-18.02,4.17c6.6,5.42,47.02,4.98,50.25-0.41c-2.39-2.26-12.91-3.5-17.39-3.62c0.69-1.06,1.2-1.89,2.08-2.59 c4.61,0.36,10.48,1.05,14.37,2.71C71.58,64.84,74.22,66.09,73.14,68.88L73.14,68.88z M53.59,29.52c2.38,5.11,0.33,9.93-3.16,12.14 c-4.72,3-10.12,0.99-12.34-2.34c-6.35-9.56,5.76-19.47,13.73-11.91l-1.33,0.79c-3.88-2.04-7.13-2.89-10.37,0.59 c-2.56,2.75-3,6.93-0.33,9.96c4.96,5.62,15.37,2.16,12.46-8.15L53.59,29.52L53.59,29.52z M45.24,33.28 c1.56-0.78,5.38-5.81,10.37-6.75c-0.65,1.52-1.55,1.12-3.13,2.96c-0.71,0.83-0.71,0.79-1.57,1.55c-1.63,1.43-4.78,6.54-5.89,8.66 c-0.98-1.94-0.22-3.57-2.5-5.65c-0.75-0.68-0.88-0.56-1.38-1.15C42.8,30.12,44.17,30.46,45.24,33.28z"></path> </g> </svg>