<svg xmlns="http://www.w3.org/2000/svg" xmlns:xlink="http://www.w3.org/1999/xlink" xml:space="preserve" width="91px" height="91px" style="shape-rendering:geometricPrecision; text-rendering:geometricPrecision; image-rendering:optimizeQuality; fill-rule:evenodd; clip-rule:evenodd" viewBox="0 0 16.64 16.64"> <defs> <style type="text/css"> .fil0 {fill:white} .fil1 {fill:#083264;fill-rule:nonzero} </style> </defs> <g id="Layer_x0020_1"> <metadata id="CorelCorpID_0Corel-Layer"></metadata> <g id="_1754029708032"> <circle class="fil0" cx="8.32" cy="8.32" r="8.32"></circle> <path class="fil1" d="M8.96 7.89c0.55,-0.27 0.93,-0.86 0.93,-1.54 0,-0.93 -0.72,-1.69 -1.61,-1.69 -0.88,0 -1.6,0.76 -1.6,1.69 0,0.68 0.38,1.27 0.93,1.54 -1.1,0.4 -1.91,1.77 -1.91,3.39 0,0.24 0.02,0.47 0.05,0.69l5.07 0c0.03,-0.22 0.05,-0.45 0.05,-0.69 0,-1.62 -0.81,-2.99 -1.91,-3.39zm-2.92 0.93c-0.19,-0.16 -0.4,-0.29 -0.62,-0.37 0.47,-0.24 0.8,-0.74 0.8,-1.33 0,-0.81 -0.62,-1.46 -1.39,-1.46 -0.76,0 -1.39,0.65 -1.39,1.46 0,0.59 0.33,1.09 0.81,1.33 -0.95,0.34 -1.66,1.52 -1.66,2.93 0,0.2 0.02,0.4 0.05,0.59l2.78 0c-0.03,-0.22 -0.05,-0.45 -0.05,-0.69 0,-0.92 0.25,-1.78 0.67,-2.46zm6.34 -0.37c0.48,-0.24 0.81,-0.74 0.81,-1.33 0,-0.81 -0.62,-1.46 -1.39,-1.46 -0.77,0 -1.39,0.65 -1.39,1.46 0,0.59 0.33,1.09 0.81,1.33 -0.24,0.08 -0.47,0.22 -0.67,0.41 0.41,0.67 0.65,1.52 0.65,2.42 0,0.24 -0.02,0.47 -0.05,0.69l2.85 0c0.03,-0.19 0.04,-0.39 0.04,-0.59 0,-1.41 -0.7,-2.59 -1.66,-2.93z"></path> </g> </g> </svg>