<svg xmlns="http://www.w3.org/2000/svg" xmlns:xlink="http://www.w3.org/1999/xlink" xml:space="preserve" width="91px" height="91px" style="shape-rendering:geometricPrecision; text-rendering:geometricPrecision; image-rendering:optimizeQuality; fill-rule:evenodd; clip-rule:evenodd" viewBox="0 0 8.23 8.23"> <defs> <style type="text/css"> .fil1 {fill:#083264} .fil0 {fill:white} </style> </defs> <g id="Layer_x0020_1"> <metadata id="CorelCorpID_0Corel-Layer"></metadata> <g id="_1718159120800"> <circle class="fil0" cx="4.12" cy="4.12" r="4.12"></circle> <g id="marijuana-icon.svg"> <g> <path class="fil1" d="M4.17 1.85l0.14 0.66 0.05 -0.14 0.05 0.31 0.09 -0.06 -0.02 0.33 0.15 -0.05 -0.09 0.3 0.14 -0.07 -0.08 0.31 0.1 -0.07 -0.1 0.34 0.15 -0.04 -0.15 0.27 0.13 -0.01 -0.12 0.19 0.1 0.01 -0.14 0.26 0.11 -0.02 -0.12 0.27 0.01 0.01 0.05 0 0.11 -0.18 0.03 0.08 0.11 -0.22 0.06 0.07 0.06 -0.18 0.06 0.09 0.1 -0.23 0.04 0.12 0.18 -0.23 0 0.1 0.16 -0.2 0.03 0.13 0.16 -0.21 0.04 0.12 0.2 -0.17 0.01 0.09 0.23 -0.12 -0.07 0.1 0.49 -0.23 -0.36 0.4 0.12 -0.03 -0.19 0.18 0.09 0.04 -0.23 0.14 0.11 0.07 -0.25 0.09 0.12 0.06 -0.24 0.1 0.09 0.03 -0.27 0.1 0.1 0.08 -0.25 0.03 0.07 0.08 -0.18 0.01 0.04 0.08 -0.24 0.04 0.07 0.05 -0.23 0.06 0 0.03 0.01 0.01 0.1 -0.06 -0.01 0.07 0.16 -0.08 -0.03 0.08 0.19 -0.05 -0.04 0.06 0.18 -0.05 -0.04 0.08 0.17 -0.05 -0.03 0.08 0.18 -0.01 -0.03 0.05 0.18 0.03 -0.08 0.02 0.36 0.08 -0.37 0.06 0.08 0.02 -0.17 0.03 0.03 0.05 -0.18 -0.02 0.02 0.08 -0.17 -0.05 0.04 0.08 -0.17 -0.05 0.03 0.05 -0.19 -0.05 0.03 0.08 -0.15 -0.08 0 0.06 -0.1 -0.06 -0.01 0.05 -0.15 -0.07 0.01 0.05 -0.15 -0.06 0 0.05 -0.19 -0.09 -0.01 0.04 -0.14 -0.1 -0.01 0.04 -0.1 -0.08 -0.03 0.04c-0.01,0.28 0.03,0.55 0.08,0.83l-0.23 0c0.05,-0.28 0.09,-0.56 0.08,-0.83l-0.04 -0.05 -0.1 0.08 0 -0.04 -0.15 0.1 0 -0.04 -0.19 0.09 0 -0.05 -0.16 0.06 0.01 -0.05 -0.15 0.07 0 -0.05 -0.11 0.07 0.01 -0.07 -0.16 0.08 0.03 -0.08 -0.19 0.06 0.04 -0.06 -0.18 0.05 0.04 -0.08 -0.17 0.05 0.03 -0.08 -0.18 0.02 0.03 -0.05 -0.18 -0.02 0.08 -0.03 -0.37 -0.06 0.37 -0.08 -0.08 -0.02 0.17 -0.03 -0.03 -0.05 0.18 0.01 -0.03 -0.07 0.18 0.04 -0.05 -0.07 0.18 0.04 -0.04 -0.06 0.19 0.05 -0.03 -0.07 -0.06 -0.02 0.07 -0.05 -0.24 -0.04 0.04 -0.07 -0.18 -0.01 0.06 -0.08 -0.25 -0.03 0.1 -0.08 -0.27 -0.1 0.1 -0.03 -0.25 -0.09 0.12 -0.07 -0.25 -0.08 0.11 -0.08 -0.23 -0.14 0.08 -0.03 -0.18 -0.19 0.12 0.04 -0.37 -0.4 0.49 0.22 -0.06 -0.1 0.23 0.12 0.01 -0.09 0.19 0.17 0.05 -0.12 0.16 0.2 0.02 -0.13 0.16 0.21 0.01 -0.11 0.17 0.24 0.04 -0.13 0.11 0.23 0.06 -0.09 0.06 0.18 0.06 -0.07 0.11 0.22 0.03 -0.08 0.13 0.21 0.05 -0.06 0.02 0.04 -0.01 -0.02 0.09 0 -0.12 -0.28 0.11 0.02 -0.14 -0.26 0.1 -0.01 -0.12 -0.19 0.13 0.01 -0.15 -0.27 0.15 0.04 -0.1 -0.34 0.1 0.07 -0.08 -0.3 0.14 0.07 -0.09 -0.31 0.16 0.05 -0.03 -0.33 0.09 0.06 0.05 -0.31 0.05 0.14 0.13 -0.66 0 0zm-0.93 3.34l-0.14 -0.03 0.15 0.07 -0.01 -0.04 0 0z"></path> </g> </g> </g> </g> </svg>