<svg xmlns="http://www.w3.org/2000/svg" xmlns:xlink="http://www.w3.org/1999/xlink" xml:space="preserve" width="91px" height="91px" style="shape-rendering:geometricPrecision; text-rendering:geometricPrecision; image-rendering:optimizeQuality; fill-rule:evenodd; clip-rule:evenodd" viewBox="0 0 4.15 4.15"> <defs> <style type="text/css"> .fil0 {fill:white} .fil1 {fill:#083264;fill-rule:nonzero} </style> </defs> <g id="Layer_x0020_1"> <metadata id="CorelCorpID_0Corel-Layer"></metadata> <g id="_1718129252368"> <circle class="fil0" cx="2.08" cy="2.08" r="2.08"></circle> <path id="professional-skills-icon.svg" class="fil1" d="M2.82 1.21c-0.02,-0.02 -0.05,-0.03 -0.08,-0.03 -0.03,0 -0.05,0.01 -0.08,0.03l-0.12 0.12c-0.03,-0.02 -0.06,-0.04 -0.1,-0.06 -0.03,-0.01 -0.07,-0.03 -0.11,-0.04l0 -0.18c0,-0.03 -0.01,-0.06 -0.03,-0.08 -0.02,-0.02 -0.05,-0.03 -0.08,-0.03l-0.23 0c-0.03,0 -0.06,0.01 -0.08,0.03 -0.02,0.02 -0.03,0.05 -0.03,0.08l0 0.17c-0.04,0.01 -0.08,0.02 -0.11,0.03 -0.04,0.01 -0.08,0.03 -0.11,0.05l-0.13 -0.13c-0.02,-0.03 -0.05,-0.04 -0.08,-0.04 -0.03,0 -0.06,0.01 -0.08,0.04l-0.16 0.16c-0.02,0.02 -0.03,0.05 -0.03,0.08 0,0.03 0.01,0.06 0.03,0.08l0.12 0.12c-0.02,0.03 -0.04,0.06 -0.06,0.1 -0.01,0.04 -0.03,0.07 -0.04,0.11l-0.18 0c-0.03,0 -0.06,0.01 -0.08,0.03 -0.02,0.02 -0.03,0.05 -0.03,0.08l0 0.23c0,0.03 0.01,0.06 0.03,0.08 0.02,0.02 0.05,0.03 0.08,0.03l0.17 0c0.01,0.04 0.02,0.08 0.03,0.12 0.01,0.03 0.03,0.07 0.05,0.1l-0.13 0.13c-0.03,0.02 -0.04,0.05 -0.04,0.08 0,0.03 0.01,0.06 0.04,0.08l0.16 0.16c0.02,0.03 0.05,0.04 0.08,0.04 0.03,0 0.06,-0.01 0.08,-0.04l0.12 -0.12c0.03,0.02 0.06,0.04 0.1,0.06 0.04,0.01 0.07,0.03 0.11,0.04l0 0.19c0,0.03 0.01,0.05 0.03,0.07 0.02,0.03 0.05,0.04 0.08,0.04l0.23 0c0.03,0 0.06,-0.01 0.08,-0.04 0.02,-0.02 0.03,-0.04 0.03,-0.07l0 -0.17c0.04,-0.01 0.08,-0.02 0.12,-0.04 0.03,-0.01 0.07,-0.03 0.1,-0.05l0.13 0.13c0.02,0.03 0.05,0.04 0.08,0.04 0.03,0 0.06,-0.01 0.08,-0.04l0.16 -0.16c0.03,-0.02 0.04,-0.05 0.04,-0.08 0,-0.03 -0.01,-0.05 -0.04,-0.08l-0.12 -0.12c0.02,-0.03 0.04,-0.06 0.06,-0.1 0.01,-0.03 0.03,-0.07 0.04,-0.11l0.19 0c0.03,0 0.05,-0.01 0.07,-0.03 0.03,-0.02 0.04,-0.05 0.04,-0.08l0 -0.23c0,-0.03 -0.01,-0.06 -0.04,-0.08 -0.02,-0.02 -0.04,-0.03 -0.07,-0.03l-0.17 0c-0.01,-0.04 -0.02,-0.08 -0.04,-0.11 -0.01,-0.04 -0.03,-0.08 -0.05,-0.11l0.13 -0.13c0.03,-0.02 0.04,-0.05 0.04,-0.08 0,-0.03 -0.01,-0.06 -0.04,-0.08l-0.16 -0.16 0 0zm-0.21 1.15c-0.1,0.19 -0.3,0.32 -0.53,0.32 -0.23,0 -0.43,-0.13 -0.53,-0.32 0.01,-0.05 0.03,-0.1 0.08,-0.13 0.08,-0.04 0.22,-0.04 0.28,-0.1l0.09 0.24 0.05 -0.13 -0.02 -0.03c-0.02,-0.02 -0.01,-0.05 0.02,-0.05 0.01,0 0.02,0 0.03,0 0.01,0 0.03,0 0.04,0 0.02,0 0.03,0.03 0.01,0.05l-0.02 0.03 0.05 0.13 0.08 -0.24c0.06,0.05 0.21,0.06 0.28,0.1 0.06,0.03 0.07,0.08 0.09,0.13l0 0zm-0.71 -0.39c-0.01,0 -0.02,0 -0.02,0 -0.01,-0.01 -0.02,-0.02 -0.03,-0.03 0,-0.02 -0.01,-0.07 0.01,-0.09l0 0 0 -0.01c0,-0.01 0,-0.03 0,-0.04 -0.01,-0.05 -0.01,-0.12 -0.05,-0.13l-0.02 -0.01 0.01 -0.01c0.04,-0.04 0.08,-0.08 0.11,-0.11 0.05,-0.03 0.09,-0.06 0.13,-0.06 0.04,-0.01 0.09,0 0.13,0.03 0.01,0.01 0.02,0.02 0.03,0.03 0.04,0.01 0.07,0.03 0.1,0.06 0.01,0.02 0.02,0.04 0.03,0.07 0.01,0.02 0.01,0.04 0.01,0.07 0,0.04 -0.02,0.08 -0.05,0.12 0,0 0.01,0 0.01,0 0.02,0.01 0.02,0.03 0.02,0.05 -0.01,0.01 -0.01,0.03 -0.02,0.04 0,0.02 -0.01,0.03 -0.03,0.02 -0.05,0.2 -0.32,0.2 -0.37,0zm0.18 -0.6c0.39,0 0.7,0.32 0.7,0.71 0,0.39 -0.31,0.7 -0.7,0.7 -0.39,0 -0.71,-0.31 -0.71,-0.7 0,-0.39 0.32,-0.71 0.71,-0.71z"></path> </g> </g> </svg>