<svg xmlns="http://www.w3.org/2000/svg" xmlns:xlink="http://www.w3.org/1999/xlink" xml:space="preserve" width="91px" height="91px" style="shape-rendering:geometricPrecision; text-rendering:geometricPrecision; image-rendering:optimizeQuality; fill-rule:evenodd; clip-rule:evenodd" viewBox="0 0 13.39 13.39"> <defs> <style type="text/css"> .fil1 {fill:#083264} .fil0 {fill:white} </style> </defs> <g id="Layer_x0020_1"> <metadata id="CorelCorpID_0Corel-Layer"></metadata> <g id="_1718015579376"> <circle class="fil0" cx="6.7" cy="6.7" r="6.7"></circle> <path class="fil1" d="M8.89 4.8c-0.07,0.18 0.04,4.73 -0.03,4.8 -0.1,0.05 -1.89,0.02 -2.17,0.02 -0.28,0 -2.07,0.03 -2.17,-0.02 -0.03,-0.03 -0.03,-4.79 0,-4.82 0.09,-0.04 0.36,-0.01 0.48,-0.01l0 -0.78c-0.48,0 -0.77,-0.06 -0.96,0.26 -0.07,0.13 -0.05,0.4 -0.05,0.56l0 4.9c0,0.27 -0.02,0.35 0.12,0.5 0.18,0.18 0.24,0.16 0.44,0.16l4.29 0c0.13,0 0.18,0.01 0.27,-0.03 0.27,-0.13 0.29,-0.35 0.29,-0.63l0 -4.9c0,-0.22 0.02,-0.41 -0.06,-0.56 -0.05,-0.08 -0.23,-0.28 -0.37,-0.23 -0.02,-0.03 -0.01,-0.03 -0.13,-0.03l-0.46 0c0,0.91 -0.06,0.78 0.2,0.78 0.15,-0.01 0.2,-0.02 0.31,0.03zm-3.21 3.11c0.06,-0.01 0.05,-0.01 0.06,-0.06 0.05,-0.03 0.32,-0.42 0.38,-0.49l0.28 -0.38c0.01,-0.02 0.03,-0.05 0.04,-0.06 0.02,-0.04 0.02,-0.06 0.03,-0.09 -0.01,-0.01 -0.28,-0.3 -0.35,-0.04 -0.04,0.03 -0.05,0.05 -0.09,0.09l-0.24 0.23c-0.04,0.04 -0.02,0.01 -0.03,0.06 -0.02,0.01 0,0 -0.03,0.02l-0.04 0.04c-0.02,0.04 -0.01,0 -0.01,0.03 -0.04,0.02 -0.02,0 -0.05,0.03 -0.02,0.01 -0.02,0.02 -0.02,0.03 -0.04,-0.02 -0.02,-0.02 -0.07,-0.03 -0.01,-0.06 -0.21,-0.24 -0.27,-0.3 -0.05,-0.04 -0.06,-0.06 -0.15,-0.06 0,0.01 -0.01,0.03 -0.01,0.04 -0.05,0.01 -0.03,0 -0.07,0.04 -0.15,0.12 -0.05,0.18 0.08,0.37l0.19 0.27c0.07,0.1 0.22,0.4 0.37,0.26zm0 1.22c0.06,-0.01 0.05,0 0.06,-0.06 0.05,-0.02 0.23,-0.29 0.28,-0.34l0.39 -0.54c0.06,-0.08 0.08,-0.13 -0.01,-0.2 -0.17,-0.13 -0.19,-0.1 -0.33,0.06l-0.02 0.05c-0.07,0.03 -0.26,0.21 -0.27,0.28 -0.06,0.03 -0.14,0.11 -0.17,0.17 -0.08,-0.05 -0.1,-0.08 -0.16,-0.13 -0.02,-0.06 -0.07,-0.09 -0.11,-0.13 -0.03,-0.03 -0.04,-0.04 -0.06,-0.07 -0.04,-0.04 -0.03,-0.03 -0.08,-0.05 0,0 -0.01,-0.02 -0.07,0 -0.01,0 -0.14,0.09 -0.16,0.15 -0.02,0.09 0.12,0.22 0.18,0.33 0.01,0.02 0,0.01 0.02,0.03 0.03,0.04 0,0 0.03,0.03 0.05,0.05 0.04,0.08 0.08,0.13l0.07 0.1c0.01,0 0.01,0.01 0.02,0.02 0.04,0.06 0.03,0.06 0.1,0.12l0 0.04c0.04,0.01 0.05,0.02 0.08,0.03 0.02,0.02 0.02,0.02 0.07,0.02 0.06,-0.01 0.01,0 0.03,-0.02 0.03,-0.01 0.02,0 0.03,-0.02zm-0.17 -3.09c-0.01,-0.06 -0.23,-0.28 -0.29,-0.3 -0.09,-0.06 -0.28,0.08 -0.24,0.2 0,0.02 0.07,0.11 0.09,0.14 0.02,0.03 0.03,0.04 0.05,0.07 0.02,0.03 0.02,0.05 0.04,0.08l0.3 0.43c0.04,0.04 0.11,0.07 0.18,0.05 0.1,-0.02 0.27,-0.29 0.34,-0.38l0.46 -0.64c0.02,-0.03 0.02,-0.05 0.03,-0.09 -0.03,-0.02 -0.04,-0.04 -0.07,-0.06 -0.04,-0.04 -0.06,-0.05 -0.1,-0.05 -0.01,-0.03 0.02,-0.03 -0.06,-0.03 -0.07,0 -0.11,0.09 -0.13,0.11 -0.1,0.11 -0.43,0.42 -0.5,0.53 -0.05,-0.03 -0.02,-0.02 -0.07,-0.03l-0.03 -0.03zm2.88 -0.07c-0.03,-0.05 -0.22,-0.03 -0.34,-0.03 -0.18,0 -1.08,-0.02 -1.11,0.02 -0.02,0.02 -0.02,0.38 -0.02,0.42l0.02 0.06c0.02,0.05 0.22,0.03 0.34,0.03 0.18,0 1.09,0.02 1.13,-0.02 0.03,-0.05 0.02,-0.16 0.02,-0.24l0 -0.19c-0.02,-0.06 0.02,-0.03 -0.04,-0.05zm-1.47 2.48l0 0.41c0,0.03 0.03,0.06 0.06,0.06l1.38 0c0.04,0 0.07,-0.03 0.07,-0.06l0 -0.41c0,-0.03 -0.03,-0.06 -0.07,-0.06l-1.38 0c-0.03,0 -0.06,0.03 -0.06,0.06zm0 -1.22l0 0.4c0,0.04 0.03,0.06 0.06,0.06l1.38 0c0.04,0 0.07,-0.02 0.07,-0.06l0 -0.4c0,-0.04 -0.03,-0.06 -0.07,-0.06l-1.38 0c-0.03,0 -0.06,0.02 -0.06,0.06zm-0.23 -3.21c-0.18,0 -0.34,-0.22 -0.18,-0.42 0.09,-0.11 0.24,-0.12 0.35,-0.02 0.2,0.18 0.02,0.44 -0.17,0.44zm-0.74 -0.28c-0.86,0 -0.75,-0.06 -0.75,0.98 0,0.19 0.11,0.29 0.31,0.29l2.37 0c0.2,0 0.3,-0.1 0.3,-0.29 0,-1.06 0.09,-0.98 -0.73,-0.98 -0.08,-1 -1.48,-0.93 -1.5,0z"></path> </g> </g> </svg>