<svg xmlns="http://www.w3.org/2000/svg" xmlns:xlink="http://www.w3.org/1999/xlink" xml:space="preserve" width="91px" height="91px" style="shape-rendering:geometricPrecision; text-rendering:geometricPrecision; image-rendering:optimizeQuality; fill-rule:evenodd; clip-rule:evenodd" viewBox="0 0 13.39 13.39"> <defs> <style type="text/css"> .fil1 {fill:#083264} .fil0 {fill:white} </style> </defs> <g id="Layer_x0020_1"> <metadata id="CorelCorpID_0Corel-Layer"></metadata> <g id="_1754035192080"> <circle class="fil0" cx="6.7" cy="6.7" r="6.7"></circle> <path class="fil1" d="M3.89 8.27c0.2,0.01 0.23,0.05 0.7,0.05 0.03,0.32 0.33,0.65 0.48,0.87l-0.31 0.57c0.3,0.2 0.56,0.49 1.1,0.62 0.1,-0.19 0.21,-0.35 0.31,-0.53 0.25,0 0.3,0.04 0.52,0.04 0.22,0 0.27,-0.04 0.53,-0.04 0.09,0.18 0.21,0.34 0.3,0.53 0.3,-0.07 0.61,-0.25 0.85,-0.42 0.12,-0.09 0.15,-0.13 0.25,-0.2l-0.29 -0.57c0.13,-0.22 0.44,-0.55 0.46,-0.87 0.46,0 0.51,-0.04 0.71,-0.05 0,-0.25 0.04,-0.33 0.04,-0.61l-5.69 0c0,0.28 0.04,0.36 0.04,0.61zm1.88 -4.07c0,0.17 -0.01,0.19 0.04,0.31l0.1 0.13c0.12,0.12 0.73,1.15 1.35,0.26 0.28,-0.4 0.35,-0.24 0.35,-0.7 0,-0.19 -0.11,-0.02 -0.13,-0.35 -0.01,-0.23 0.03,-0.28 -0.07,-0.45 -0.27,-0.5 -1.12,-0.51 -1.42,-0.03 -0.09,0.14 -0.08,0.21 -0.08,0.44 -0.01,0.38 -0.14,0.2 -0.14,0.39zm-0.7 3.07l3.24 0c0.21,0 0.11,-0.26 0.05,-0.58 -0.14,-0.84 -0.04,-0.87 -0.48,-1.09 -0.13,-0.06 -0.41,-0.23 -0.53,-0.26l-0.39 1.01c-0.04,0.08 -0.01,0.04 -0.05,0.08 -0.09,-0.38 -0.07,-0.45 -0.04,-0.83l-0.35 0c0.03,0.38 0.04,0.45 -0.05,0.83 0,0 -0.01,-0.03 -0.01,-0.02 0,0 -0.02,-0.03 -0.02,-0.03 -0.13,-0.28 -0.25,-0.71 -0.4,-1.04 -0.15,0.03 -0.38,0.19 -0.53,0.26 -0.23,0.11 -0.32,0.11 -0.38,0.41l-0.16 1.03c-0.02,0.09 -0.07,0.23 0.1,0.23zm3.33 -2.67c0,0.28 0.41,0.51 0.48,0.78 -0.04,0.06 -0.14,0.14 -0.21,0.19 -0.11,0.07 -0.16,0.07 -0.27,0.12l0.26 1.58c0.63,0 1.72,0.07 2.24,-0.05 0.03,-0.14 0.02,-0.1 -0.01,-0.29 -0.19,-0.97 -0.03,-0.94 -0.74,-1.23 -0.23,-0.09 -0.35,-0.13 -0.48,-0.32 0.08,-0.35 0.44,-0.5 0.44,-0.65 0,-0.68 -0.07,-0.11 -0.09,-0.62 -0.05,-0.94 -1.2,-0.82 -1.43,-0.34 -0.1,0.2 -0.04,0.21 -0.06,0.43 -0.02,0.25 -0.13,0.15 -0.13,0.4zm-5.12 -0.14c0,0.55 0.01,0.27 0.23,0.56 0.06,0.08 0.18,0.27 0.2,0.36 -0.1,0.16 -0.28,0.24 -0.47,0.32 -0.68,0.27 -0.56,0.27 -0.68,0.89 -0.05,0.25 -0.11,0.45 -0.07,0.63 0.52,0.12 1.6,0.05 2.23,0.05 0.04,-0.5 0.22,-1.08 0.26,-1.58 -0.13,-0.06 -0.34,-0.12 -0.48,-0.31 0.08,-0.28 0.48,-0.5 0.48,-0.78 0,-0.23 -0.09,-0.17 -0.12,-0.36 -0.06,-0.34 0.11,-0.83 -0.88,-0.83 -0.22,0 -0.45,0.18 -0.54,0.34 -0.08,0.15 -0.07,0.18 -0.07,0.36 -0.01,0.12 0,0.1 -0.03,0.2 -0.03,0.13 -0.06,0 -0.06,0.15z"></path> </g> </g> </svg>