<svg xmlns="http://www.w3.org/2000/svg" xmlns:xlink="http://www.w3.org/1999/xlink" xml:space="preserve" width="91px" height="91px" style="shape-rendering:geometricPrecision; text-rendering:geometricPrecision; image-rendering:optimizeQuality; fill-rule:evenodd; clip-rule:evenodd" viewBox="0 0 7.76 7.76"> <defs> <style type="text/css"> .fil1 {fill:#083264} .fil0 {fill:white} </style> </defs> <g id="Layer_x0020_1"> <metadata id="CorelCorpID_0Corel-Layer"></metadata> <g id="_1718371910960"> <circle class="fil0" cx="3.88" cy="3.88" r="3.88"></circle> <g> <path class="fil1" d="M2.46 4.24c0.05,-0.12 0.03,-0.36 0.03,-0.5 0,-0.19 0,-0.36 0.01,-0.54l0.03 0c0,0.78 -0.01,1.56 -0.01,2.34 0,0.1 -0.01,0.25 0.01,0.34 0,0.02 0,0.02 0,0.04 0.02,0.01 0.01,0.01 0.02,0.02l0.05 0.04c0,0 0,0 0,0 0,0 0,0.02 0,0.02l0.03 0 0 0.01 0.14 0 0 -0.01c0.01,-0.01 0.03,-0.02 0.04,-0.03 0.01,-0.01 0.01,-0.01 0.02,-0.02 0,0 0,0 0,0 0,-0.01 0.01,-0.01 0.01,-0.01 0,0 0,0 0,0 0.01,-0.01 0,-0.01 0.02,-0.01l0 -0.02c0.01,-0.03 0.01,-0.05 0.01,-0.09 0.01,-0.24 0,-0.5 0,-0.75 0,-0.05 0,-0.81 0.01,-0.85l0.03 0c0,0.03 0,1.37 0,1.4l0 0.27 0.01 0 0 0.03c0.02,0.01 0.02,0 0.02,0.02l0.01 0c0,0.01 0,0.01 0,0.01 0.03,0.04 0.03,0.02 0.06,0.05l0 0.01 0.14 0 0 -0.01 0.03 0c0.02,-0.04 0,-0.01 0.02,-0.03 0,0 0,0 0.01,0l0.01 -0.02c0.01,-0.01 0,0 0.01,-0.01l0.01 -0.02c0.01,-0.01 0.01,-0.02 0.01,-0.04 0.02,0 0.02,-0.01 0.02,-0.07l0 -2.43c0,-0.05 -0.01,-0.11 0,-0.16l0 -0.01 0 -0.01 0.03 0 0 0.02c0,0.04 0,0.07 0,0.11l0 0.87c0.02,0.01 0,0 0.02,0l0 0.04c0.01,0 0.01,-0.01 0.01,0.03 0.03,0 0.02,0 0.02,0.01 0.02,0.01 -0.01,0 0.02,0.01 0.01,0 0.01,0 0.01,0.01 0.01,0 0,0 0.02,0.01 0.01,0 0.08,0 0.1,0 0.01,-0.01 0,-0.01 0.01,-0.02 0.01,0 0.02,0 0.03,0 0,-0.03 0,-0.01 0.01,-0.02l0.01 -0.01c0.04,-0.03 -0.01,-0.02 0.03,-0.02l0 -0.04c0.02,0 0.02,0 0.02,-0.05l0 -0.56c0,-0.05 0,-0.1 0,-0.16 0,-0.04 0,-0.44 -0.01,-0.46 0,-0.01 0,0 0,-0.01l-0.01 0.05c0,-0.04 0,-0.06 0,-0.1 -0.03,0 -0.01,0 -0.02,-0.01l-0.03 -0.03c0,0 0,0 0,0 0,0 0,0 0,0 0,-0.01 0,-0.01 0,-0.01l-0.02 -0.02c-0.02,0 -0.03,0 -0.05,0 -0.08,-0.01 -0.2,-0.01 -0.28,-0.01 -0.13,0 -0.79,0 -0.86,0.01l-0.05 0c0,0.03 0,0 -0.02,0.03 0,0 0,0 -0.01,0 0,0 0,0 0,0l-0.01 0.01c-0.03,0.01 0,0.03 -0.03,0.03 0,0.04 -0.02,0.02 -0.02,0.06l0 1.25 0.02 0 0 0.02c0.02,0 0.02,0 0.02,0.03 0.01,0 0.01,0 0.03,0 0,0.02 0,0.01 0,0.02l0.03 0 0 0.02 0.11 0 0 -0.02 0.03 0c0,-0.03 -0.01,0 0.02,-0.03 0.01,0 -0.01,0 0.02,0l-0.01 -0.02z"></path> <path class="fil1" d="M4.29 2.84c-0.03,0 -0.04,0 -0.05,0.01l-0.04 0.04c-0.03,0.02 0.01,0.02 -0.03,0.02 0,0.03 0,0.04 0,0.06 -0.01,0.01 0,0.01 -0.01,0 0,0 0.01,0 0,0 -0.01,0.05 -0.01,0.24 -0.01,0.31 0,0.11 0,0.2 0,0.31 0,0.02 0,0.59 0,0.61 0.01,0.01 0,0 0.02,0l0 0.04c0.03,0 0.01,0 0.02,0.01l0.02 0.02c0.01,0.01 0.01,-0.01 0.01,0.02 0.01,0 0.02,0 0.03,0 0.01,0.01 0,0.01 0.01,0.02 0.02,0 0.09,0 0.1,0 0.02,-0.01 0,-0.01 0.02,-0.02 0,0 0.01,0 0.01,0 0.04,-0.01 0,-0.02 0.04,-0.02 0,-0.01 0,-0.02 0,-0.03 0.01,0 0,0 0.01,0 0,-0.04 0,-0.05 0.02,-0.05l0 -0.92c0,-0.02 0,-0.04 0,-0.05l0 -0.02 0.03 0 0 0.01 0 0.01c0.01,0.04 0,0.61 0,0.66l0 1.93c0,0.06 0,0.07 0.02,0.07 0,0.02 0,0.03 0.01,0.04l0.02 0.03c0.02,0.03 0.01,0.02 0.03,0.03 0.01,0.01 0.01,0 0.01,0.02l0.03 0 0 0.01 0.14 0 0 -0.01c0.02,-0.02 0.03,-0.02 0.05,-0.04 0,-0.01 0.01,-0.01 0.01,-0.01l0.01 -0.01c0,0 0,-0.01 0.02,-0.01 0,-0.02 0,-0.02 0,-0.02 0.01,-0.01 0.01,0.01 0.01,-0.01 0.01,-0.02 0,-0.04 0,-0.06 0.01,-0.13 0,-0.27 0,-0.4 0,-0.09 0,-1.19 0,-1.22l0.03 0c0.01,0.04 0,1.4 0.01,1.6 0,0.04 0,0.05 0.01,0.09l0 0.02c0.02,0.01 0.01,-0.01 0.02,0.01l0 0c0.05,0.05 0.05,0.04 0.07,0.06 0,0 0,0 0,0.01l0.14 0 0 -0.01 0.03 0c0.01,-0.02 0,-0.01 0.01,-0.02 0,0 0,-0.01 0,-0.01l0.03 -0.02c0.01,-0.01 0,0 0.01,-0.01l0 -0.01c0,0 0,0 0,0l0.01 -0.01c0,0 0,0 0.01,0 0,-0.01 0,-0.03 0,-0.04 0.02,-0.09 0.01,-0.24 0.01,-0.33l-0.01 -2.35 0.03 0c0.01,0.17 0.01,0.33 0.01,0.5 0,0.16 -0.01,0.33 0.01,0.49l0 0.05c0.04,0 0,-0.01 0.03,0.02 0.02,0.03 0.02,0 0.02,0.03l0.03 0 0 0.02 0.11 0 0 -0.02 0.03 0c0,-0.01 0,0 0,-0.02 0.02,0 0.02,0 0.03,0 0,-0.03 0.01,-0.03 0.02,-0.03l0 -0.02 0.02 0 0 -1.2c0,-0.01 0,-0.03 0,-0.04 0,-0.05 -0.01,-0.02 -0.02,-0.06 0,-0.02 0,0 0,-0.01 -0.02,-0.02 -0.01,-0.02 -0.02,-0.03 -0.01,-0.01 -0.02,-0.01 -0.03,-0.02 0,0 0,0 0,0l0 0c-0.01,0 -0.01,0 -0.01,0 -0.01,-0.01 -0.01,0.01 -0.01,-0.02l-0.05 0c-0.08,-0.01 -0.2,-0.01 -0.29,-0.01 -0.13,0 -0.78,0 -0.85,0.01z"></path> <path class="fil1" d="M3.57 2.84c0.01,0 0,0 0.01,0.01 0.01,0 0.01,0 0.01,0 0.01,0.01 0.01,0.01 0.01,0.02 0.01,0.05 0.01,0.04 0.02,0.04l0 0.05 0.02 0 0 1.26 -0.02 0 0 0.03c-0.02,0 0,0 -0.03,0.03l-0.02 0.02c0,0.01 0,0.01 0,0.01 -0.01,0 -0.01,0 -0.01,0 -0.01,0.01 0,-0.02 0,0.01l-0.04 0 0 0.02 -0.01 0 0 1.14 0.01 0 0 0.09 0.02 0c0,0.01 0,0.02 0,0.03 0,0 0,0 0,0l0.01 0.01c0.01,0 0.01,0 0.01,0.01l0.02 0.02c0,0 0,0 0,0 0,0 0,0 0,0 0.01,0.01 0.01,-0.01 0.01,0.01 0.05,0 0.03,0.01 0.03,0.02l0.08 0.01c0.01,0 0,-0.01 0.03,-0.01 0.02,0 0.03,0 0.04,0l0 -0.01c0,-0.01 0,0 0,0 0.02,-0.01 0.03,-0.01 0.04,-0.03l0.02 -0.02c0,0 0,0 0,0 0.01,-0.01 -0.01,-0.01 0.02,-0.01 0,-0.01 0,-0.01 0,-0.03l0.01 0 0 -0.03c0.02,-0.08 0.01,-0.73 0.01,-0.83 0,-0.27 0,-0.55 0,-0.83l0.03 0c0.01,0.41 0,0.85 0,1.26 0,0.09 0,0.34 0.01,0.41l0 0.04c0.03,0 0.01,-0.01 0.02,0l0.01 0.01c0,0.01 0.01,0 0.01,0.03 0.01,0.01 0.01,0.01 0.02,0.01 0.02,0.01 0,0 0.02,0.01 0.01,0.01 0.01,0 0.01,0.02 0.02,0 0.02,0 0.07,0 0,0.02 -0.01,0.01 0,0.02 0.02,0 0.01,-0.01 0.02,-0.01 0.01,0 0.02,-0.01 0.06,-0.01 0.01,-0.01 0,-0.01 0.01,-0.02l0.04 -0.03 0.02 0c0,-0.04 0.01,-0.03 0.02,-0.03 0,-0.02 0,-0.02 0.01,-0.03 0,0 0,-0.01 0,-0.01 0.02,-0.02 0.01,-0.22 0.01,-0.26 0,-0.3 0,-0.63 0,-0.93 0,-0.02 -0.01,-0.02 -0.01,-0.03 -0.01,0 -0.02,-0.01 -0.05,-0.01l0 -0.01 -0.01 0c-0.02,-0.01 -0.03,-0.02 -0.04,-0.04l0.01 -0.02 -0.02 0 0 -0.03 -0.02 0 0 -1.19c0,-0.02 0,-0.03 0,-0.04 0,-0.01 0,-0.02 0,-0.02 0.01,-0.01 0,-0.01 0.02,-0.01l0 -0.05c0.01,0 0.01,0.01 0.02,-0.04 0,-0.01 0.02,-0.02 0.03,-0.03l0.01 0 0 -0.02 0.03 0c0.01,-0.01 0,-0.02 0.06,-0.02 0,-0.01 0,-0.01 0.02,-0.01l0.27 0c0,-0.01 0,-0.14 0,-0.15 -0.01,-0.01 0.01,-0.01 -0.02,-0.01l0 -0.03c-0.02,0 -0.01,0 -0.01,0 -0.01,-0.01 0,-0.03 -0.01,-0.03 -0.01,0 0,0 0,0 -0.01,0.01 0,0.01 -0.01,0.01l0 -0.05c-0.01,0 -0.01,0.01 -0.01,0 -0.01,0 -0.01,0 -0.01,0l0 -0.01c-0.01,-0.01 -0.01,-0.01 -0.01,-0.01 -0.01,0 -0.01,0.02 -0.01,-0.01 -0.02,0 -0.03,-0.01 -0.06,0l-1.1 0c-0.02,0 -0.04,0 -0.06,0 0,0.02 -0.01,0.01 -0.02,0.02 -0.01,0.02 0.01,0 0,0.01 -0.01,0.01 0.01,0 -0.02,0 0,0.03 0,0.03 0,0.05l-0.01 0c-0.02,0.01 0.01,0.02 -0.02,0.02l0 0.03 -0.02 0 0 0.08c0,0.03 0,0.05 0,0.08l0.29 0c0,0.02 0,0 0,0.01 0.06,0 0.05,0.01 0.06,0.02l0.03 0 0 0.02 0.01 0z"></path> <path class="fil1" d="M4.54 2.35c0,0.04 0,0.07 0,0.12 0,0.02 0,0.04 0.01,0.05 0,0.02 0.01,0.01 0.01,0.05l0.02 0 0 0.03c0.04,0.02 0,0.01 0.03,0.02 0,0.05 0.02,0.01 0.02,0.05 0.01,0 0.01,0 0.02,0 0.03,0.01 0,0 0.02,0.02 0,0 0,0 0,0l0.01 0.01c0.02,0.01 -0.01,-0.01 0.01,0l0.01 0.01c0.02,0.02 0.01,0.01 0.04,0.01 0.01,0.02 0,0 -0.01,0.02 0.02,-0.01 0.03,0 0.07,0l0 0.02c0.02,0 0.05,0 0.08,0 0.01,0 0.02,0 0.03,0 0.03,-0.01 0.03,-0.01 0.03,-0.02 0.01,0 0.02,0 0.03,0 0.02,-0.01 0.01,0 0.02,-0.02l0.03 0c0,0 0,-0.01 0.01,-0.01 0,0 0,0 0,0l0 0c0.03,-0.02 0,-0.02 0.02,-0.02l0.06 -0.06 0.01 0c0,0 0.01,-0.02 0.01,-0.02 0,-0.01 0,0 0.01,-0.01l0 -0.01c0.01,0 0.01,0 0.01,0 0,0 0,0 0,0l0 -0.01c0.01,-0.01 0.01,0 0.01,-0.02 0.01,-0.02 0,0 0.01,-0.01 0.01,-0.02 0.01,-0.04 0.01,-0.05 0,-0.02 0,-0.01 0.01,-0.02 0,-0.03 0.01,-0.04 0.01,-0.07 0,-0.03 -0.01,-0.05 -0.01,-0.08l-0.01 0 0 -0.05 -0.02 0c0,-0.03 -0.01,-0.03 -0.01,-0.04l-0.01 -0.01c0,0 0,0 0,0l-0.01 -0.01c0,-0.01 0,0 0,-0.01 -0.02,-0.04 0,0 -0.02,-0.03 0,0 0,0 0,0l-0.02 -0.01c-0.03,-0.02 -0.01,-0.01 -0.02,-0.02 -0.02,0 -0.01,0 -0.01,-0.01 -0.02,0 -0.02,0 -0.02,-0.02l-0.03 0c-0.01,-0.01 0,0 0,-0.01l-0.04 0c0,-0.02 0.01,-0.01 -0.01,-0.02 -0.01,0 -0.02,0 -0.03,0 -0.01,0 -0.02,0 -0.03,0 -0.01,0 -0.02,-0.01 -0.04,-0.01 -0.02,0.01 -0.03,0.01 -0.06,0.01 -0.06,0 -0.04,0 -0.05,0.02l-0.03 0 0 0.01c-0.03,0 -0.03,0.01 -0.04,0.01l-0.01 0.01c0,0 0,0 0,0l-0.09 0.09 0 0.03 -0.02 0c0,0.04 -0.01,0.03 -0.02,0.04l0 0.05z"></path> <path class="fil1" d="M3.12 2.66l0 0c0,0 0,0 0,0zm-0.47 -0.03c0.01,0.01 0.01,0 0.01,0.01l0.05 0.05c0.01,0 0,0 0.02,0.01 0.01,0.01 0,-0.01 0.01,0.02l0.03 0c0.01,0.02 -0.01,0.02 0.05,0.02 0.01,0.02 0,0.01 0.01,0.01 0.01,0.01 0.12,0.01 0.13,0.01l0 -0.02c0.04,0 0.05,-0.01 0.07,0 -0.01,-0.02 -0.02,0 -0.01,-0.02 0.02,0 0.04,0 0.05,-0.02 0.01,0 0,0 0.01,0l0.02 -0.02c0,0 0,0 0,0 0.01,-0.01 0,0 0.01,-0.01 0.03,-0.02 0.01,0.01 0.02,-0.01 0,-0.01 0,-0.01 0.01,-0.01l-0.01 -0.01c0.01,0 0.01,0 0.01,0 0.01,-0.01 0,0 0.01,-0.01l0.01 -0.02c0.01,-0.01 0.01,0 0.02,-0.01l0 -0.03 0.02 0c0,-0.01 0,-0.03 0,-0.03 0,0 0,0 0,0 0.03,-0.03 0.01,-0.04 0.02,-0.07 0,-0.05 0,-0.08 0,-0.12 0,-0.09 -0.01,-0.04 -0.02,-0.06 0,-0.01 0,-0.02 0,-0.03l-0.02 0 0 -0.03c-0.02,-0.01 -0.01,0 -0.02,-0.02l-0.02 -0.02c0,0 0,0 0,0l-0.02 -0.02c0,0 0,0 0,0l-0.01 -0.01c0,0 0,0 0,0l-0.01 -0.01c0,0 0,0 -0.01,-0.01 0,0 0,0 0,0l-0.01 -0.01c-0.01,-0.01 -0.02,-0.01 -0.04,-0.01l0 -0.01 -0.03 0c0,-0.01 0,-0.01 0,-0.02l-0.07 0c-0.04,0 -0.01,-0.01 -0.06,-0.01l0.01 0c0,0 0,0 0,0 0,0 0,0 0,0 -0.02,0 -0.03,0.01 -0.06,0.01 -0.05,0 -0.04,0 -0.04,0.02l-0.03 0c-0.01,0.01 0,0 -0.01,0.01l-0.03 0c0,0.03 0,0.01 -0.02,0.03 -0.01,0.01 -0.01,0 -0.02,0.01l-0.03 0.03c-0.03,0.03 -0.01,0.02 -0.02,0.03 -0.01,0.01 0,0 -0.01,0.01l-0.01 0.01c-0.01,0.01 0,-0.01 -0.01,0.01 0,0.02 0,0.02 -0.01,0.03 0,0 -0.01,0 -0.01,0.02 0,0.02 0.01,0.03 -0.01,0.03 0,0.03 -0.01,0.05 -0.01,0.08 0,0.03 0.01,0.04 0.01,0.07 0.01,0.01 0.01,0 0.01,0.04 0.01,0.04 0.01,0.03 0.02,0.03 0,0.01 0,0.02 0,0.03 0.01,0 0.01,0 0.02,0.01l0.01 0.01c0,0 0,0 0,0 0,0 0,0.01 0,0.01 0,0 0,0 0,0 0.01,0 0.01,0.02 0.01,0.02l0.01 0z"></path> <path class="fil1" d="M3.78 1.76l-0.04 0 0 0.02c-0.01,0 -0.01,0 -0.03,0l0 0.02c-0.02,0 -0.02,0 -0.03,0 0,0.02 0,0.02 -0.02,0.02l0 0.01c-0.02,0 -0.02,0 -0.02,0.02l-0.02 0c0,0.02 0.01,0.02 -0.01,0.02 0,0.02 0,0.01 0,0.03l-0.02 0c0,0.02 0,0.02 0,0.04l-0.02 0 0 0.03 -0.01 0 0 0.21 0.01 0 0.01 0.05 0.01 0 0 0.01 0.02 0c0,0.04 -0.01,0.04 0.01,0.04l0 0.01 0.02 0 0 0.02 0.02 0 0 0.02 0.01 0 0 0.02 0.02 0 0 0.01c0.02,0 0.02,0 0.03,0.01 0.01,0.01 0,0.01 0.04,0.01l0 0.02c0.02,0 0.02,0 0.04,0 0.01,0.01 0.01,-0.01 0,0 0,0.01 0,0 0,0.01 0,0.01 0.15,0.01 0.16,0 0.01,-0.01 0,0 0,0 -0.01,-0.02 -0.01,0 0,-0.01 0.02,0 0.02,0 0.04,0l0 -0.02c0.04,0 0.04,0 0.04,-0.01 0.01,-0.01 0.01,-0.01 0.03,-0.01l0 -0.01 0.02 0 0 -0.02 0.02 0 0 -0.02 0.01 0 0 -0.02 0.02 0 0 -0.01c0.01,0 0,0 0.01,-0.01l0 -0.02c0.01,-0.01 0.01,0 0.02,-0.01l0 -0.01 0.02 0 0 -0.05 0.01 0 0 -0.21 -0.01 0 0 -0.03 -0.02 0c0,-0.02 0,-0.02 0,-0.04l-0.02 0c0,-0.02 0,-0.01 0,-0.03 -0.02,0 -0.01,0 -0.01,-0.02l-0.02 0c0,-0.02 0,-0.02 -0.02,-0.02l0 -0.01c-0.02,0 -0.02,0 -0.02,-0.02 -0.01,0 -0.01,0 -0.03,0l0 -0.02c-0.02,0 -0.02,0 -0.03,0l0 -0.02 -0.04 0 0 -0.01 -0.2 0 0 0.01z"></path> <path class="fil1" d="M4.85 5.84c0.01,-0.01 0.01,-0.02 0.01,-0.03l0 0c0,0.04 0.01,-0.01 0.01,0.03l0.01 -0.01c0,0.03 0.01,0.05 0.01,0.08l0.01 0c-0.01,-0.04 -0.01,-0.05 -0.01,-0.09 -0.01,-0.2 0,-1.56 -0.01,-1.6l-0.03 0c0,0.03 0,1.13 0,1.22 0,0.13 0.01,0.27 0,0.4z"></path> <path class="fil1" d="M5.23 5.88l0.02 0c0,-0.69 0,-1.38 0,-2.07 0,-0.03 0,-0.04 0,-0.07l0.01 0c0,0.04 0,0.07 0,0.11l0 0.28c0,0.03 0,0.04 0,0.06l0.02 0c-0.02,-0.16 -0.01,-0.33 -0.01,-0.49 0,-0.17 0,-0.33 -0.01,-0.5l-0.03 0 0.01 2.35c0,0.09 0.01,0.24 -0.01,0.33z"></path> <path class="fil1" d="M2.86 5.91c0.01,-0.01 0,0 0.01,0 0,-0.04 0.01,-0.05 0.01,-0.08l0 -0.21c0.02,-0.02 0.01,-0.11 0.01,-0.14l0.01 0.02 0 0.11c0.01,0.01 0,0 0.01,0.01 0,-0.03 0,-1.37 0,-1.4l-0.03 0c-0.01,0.04 -0.01,0.8 -0.01,0.85 0,0.25 0.01,0.51 0,0.75 0,0.04 0,0.06 -0.01,0.09z"></path> <path class="fil1" d="M3.86 5.54c0.01,-0.01 0.01,-0.01 0.02,-0.01l0 -0.87c0,-0.1 0,-0.18 0,-0.28l0.01 0.13c0.01,0.04 0.01,0.83 0.01,0.97l0 0.07 0.01 0c-0.01,-0.07 -0.01,-0.32 -0.01,-0.41 0,-0.41 0.01,-0.85 0,-1.26l-0.03 0c0,0.28 0,0.56 0,0.83 0,0.1 0.01,0.75 -0.01,0.83z"></path> <path class="fil1" d="M2.46 4.24l0.02 0c0,-0.02 0,-0.03 0,-0.05 0.01,-0.01 0.02,0.01 0.02,-0.05l0 -0.85c0,-0.03 0,-0.04 0,-0.06l0.01 0 0 2.65 0.02 0c-0.02,-0.09 -0.01,-0.24 -0.01,-0.34 0,-0.78 0.01,-1.56 0.01,-2.34l-0.03 0c-0.01,0.18 -0.01,0.35 -0.01,0.54 0,0.14 0.02,0.38 -0.03,0.5z"></path> <polygon class="fil1" points="3.33,2.5 4.43,2.5 4.43,2.48 3.33,2.48 "></polygon> <path class="fil1" d="M2.33 2.84c0.07,-0.01 0.73,-0.01 0.86,-0.01 0.08,0 0.2,0 0.28,0.01 0,-0.01 0,0 0,-0.02l-1.14 0 0 0.02z"></path> <path class="fil1" d="M4.29 2.84c0.07,-0.01 0.72,-0.01 0.85,-0.01 0.09,0 0.21,0 0.29,0.01 0,-0.02 0.01,-0.02 -0.05,-0.02l-1.09 0c0,0.02 0,0.01 0,0.02z"></path> <path class="fil1" d="M3.22 2.47l0.01 0 0 -0.1c0,-0.02 0,-0.02 -0.01,-0.02 0,0.04 0,0.07 0,0.12z"></path> <path class="fil1" d="M4.54 2.47c0,-0.05 0,-0.08 0,-0.12l-0.01 0c0,0.03 0,0.08 0,0.12 0.01,0 0,-0.01 0.01,0z"></path> <path class="fil1" d="M4.99 6c-0.02,-0.02 -0.02,-0.01 -0.07,-0.06l0 0c0,0 0,0.01 0,0.02 0.02,0.01 0.02,-0.01 0.02,0.02l0.02 0 0 0.01 0.03 0.01z"></path> <path class="fil1" d="M2.77 6l0.03 -0.01 0 -0.01 0.02 0c0,-0.03 0.01,-0.01 0.01,-0.02 0.01,0 0.01,-0.02 0.01,-0.02 0,0 0,0 0,0 0,0 -0.01,0 -0.01,0.01 0,0 0,0 0,0 -0.01,0.01 -0.01,0.01 -0.02,0.02 -0.01,0.01 -0.03,0.02 -0.04,0.03z"></path> <path class="fil1" d="M3.01 6c-0.03,-0.03 -0.03,-0.01 -0.06,-0.05 0,0 0,0 0,-0.01l-0.01 0 0 0.02c0.02,0 0.02,0 0.02,0.02l0.02 0 0 0.01c0.01,0 0.01,0.01 0.03,0.01z"></path> <path class="fil1" d="M2.71 2.69l-0.05 -0.05c0,-0.01 0,0 -0.01,-0.01l0 0.02c0.03,0 0.01,0 0.02,0.01 0.02,0.02 0.02,0 0.02,0.03l0.02 0z"></path> <path class="fil1" d="M4.75 6c0.02,0 0.02,-0.01 0.03,-0.01l0 -0.01 0.02 0c0,-0.02 0,-0.02 0.02,-0.02l0 -0.02 -0.01 0.01c0,0 -0.01,0 -0.01,0.01 -0.02,0.02 -0.03,0.02 -0.05,0.04z"></path> <path class="fil1" d="M5.05 2.69l0.02 0c0,-0.03 0,-0.01 0.02,-0.03 0.01,-0.01 -0.01,-0.01 0.02,-0.01l0 -0.02 -0.06 0.06z"></path> <polygon class="fil1" points="4.16,5.65 4.19,5.65 4.19,5.64 4.2,5.64 4.2,5.62 "></polygon> <path class="fil1" d="M4.19 4.31l0 -0.02c-0.01,0 0,0 -0.02,0l0 -0.02 -0.02 0c0.01,0.02 0.02,0.03 0.04,0.04z"></path> <path class="fil1" d="M3.27 3.22c0.02,0 0.01,0 0.03,0l0 -0.02 -0.03 0 0 0.01 0 0.01z"></path> <path class="fil1" d="M3.6 2.87c0,-0.01 0,-0.01 -0.01,-0.02 0,0 0,0 -0.01,0 -0.01,-0.01 0,-0.01 -0.01,-0.01l0 0.01c0.01,0.01 0.01,0.01 0.02,0.01l0 0.01 0.01 0z"></path> <polygon class="fil1" points="4.46,3.22 4.49,3.22 4.49,3.21 4.49,3.2 4.46,3.2 "></polygon> <path class="fil1" d="M4.16 2.87l0.01 0 0 -0.01 0.02 0c0,-0.01 0,-0.01 0,-0.02 -0.01,0.01 -0.03,0.02 -0.03,0.03z"></path> <polygon class="fil1" points="4.85,2.08 4.87,2.08 4.87,2.08 4.85,2.08 "></polygon> </g> </g> </g> </svg>