<svg xmlns="http://www.w3.org/2000/svg" xmlns:xlink="http://www.w3.org/1999/xlink" xml:space="preserve" width="91px" height="91px" style="shape-rendering:geometricPrecision; text-rendering:geometricPrecision; image-rendering:optimizeQuality; fill-rule:evenodd; clip-rule:evenodd" viewBox="0 0 4.13 4.13"> <defs> <style type="text/css"> .fil1 {fill:#083264} .fil0 {fill:white} </style> </defs> <g id="Layer_x0020_1"> <metadata id="CorelCorpID_0Corel-Layer"></metadata> <g id="_1718680392352"> <circle class="fil0" cx="2.07" cy="2.07" r="2.07"></circle> <path class="fil1" d="M1.6 2.33c0,-0.2 0.09,-0.36 0.27,-0.44 0.43,-0.21 0.91,0.33 0.54,0.75 -0.07,0.08 -0.21,0.15 -0.31,0.15 -0.12,0 -0.21,-0.02 -0.31,-0.09 -0.11,-0.08 -0.19,-0.21 -0.19,-0.37zm0.32 0c0,-0.17 0.17,-0.2 0.25,-0.12 0.1,0.09 0.03,0.26 -0.09,0.26l-0.03 0c-0.06,0 -0.13,-0.07 -0.13,-0.14zm-0.18 -0.02c0,0.05 0.01,0.09 0.03,0.14 0.02,0.04 0.04,0.07 0.07,0.1 0.13,0.12 0.33,0.12 0.46,0 0.2,-0.2 0.06,-0.56 -0.24,-0.56 -0.17,0 -0.32,0.15 -0.32,0.32zm1.2 -0.87c-0.04,0 -0.15,0.01 -0.15,-0.07 0,-0.09 0.1,-0.07 0.18,-0.07 0.08,0 0.11,0.14 -0.03,0.14zm0.42 -0.33l0 0.44 -2.59 0 0 -0.44c0,-0.04 0.04,-0.06 0.08,-0.06l2.44 0c0.04,0 0.07,0.02 0.07,0.06zm-0.72 0.33c-0.05,0 -0.15,0.01 -0.15,-0.07 0,-0.09 0.1,-0.07 0.18,-0.07 0.08,0 0.12,0.14 -0.03,0.14zm-1.65 0.59c0,0.14 0.04,0.31 0.1,0.43 0.03,0.06 0.06,0.11 0.09,0.17 0.05,0.07 0.12,0.15 0.19,0.2 0.02,0.02 0.02,0.02 0.04,0.03 0.08,0.07 0.1,0.08 0.2,0.13 0.27,0.13 0.64,0.13 0.91,0 0.13,-0.06 0.14,-0.08 0.24,-0.15 0.03,-0.03 0.04,-0.04 0.07,-0.07l0.06 -0.07c0.1,-0.11 0.19,-0.28 0.22,-0.43 0.04,-0.2 0.03,-0.38 0.03,-0.58l-2.15 0 0 0.34z"></path> </g> </g> </svg>