<svg xmlns="http://www.w3.org/2000/svg" xmlns:xlink="http://www.w3.org/1999/xlink" xml:space="preserve" width="91px" height="91px" style="shape-rendering:geometricPrecision; text-rendering:geometricPrecision; image-rendering:optimizeQuality; fill-rule:evenodd; clip-rule:evenodd" viewBox="0 0 4.36 4.36"> <defs> <style type="text/css"> .fil1 {fill:#083264} .fil0 {fill:white} </style> </defs> <g id="Layer_x0020_1"> <metadata id="CorelCorpID_0Corel-Layer"></metadata> <g id="_1754404514128"> <circle class="fil0" cx="2.18" cy="2.18" r="2.18"></circle> <path class="fil1" d="M2.78 2.74c0,-0.05 0.01,-0.08 0.05,-0.12 0.07,-0.07 0.19,-0.04 0.23,0.04 0.05,0.1 -0.03,0.22 -0.13,0.22 -0.04,0 -0.08,-0.02 -0.1,-0.04 -0.02,-0.02 -0.05,-0.06 -0.05,-0.1zm-1.3 -0.26c0.01,0 0,0 0.01,0l0.09 0 0 0.11c0,0.21 0,0.43 0,0.65 0,0.02 0,0.06 0,0.07 0.02,0.07 0.12,0.07 0.18,0.07 0.04,-0.01 0.09,0 0.11,-0.05 0.02,-0.03 0.01,-0.1 0.01,-0.15l1.1 0c0,0.12 -0.02,0.18 0.1,0.2 0.06,0.01 0.14,-0.01 0.18,-0.04 0.03,-0.04 0.02,-0.1 0.02,-0.16 0,-0.23 0,-0.46 0,-0.7l0.1 0 0 0c0,-0.06 -0.02,-0.11 -0.05,-0.15 -0.04,-0.07 -0.05,-0.05 -0.15,-0.05 -0.01,-0.01 -0.01,-0.02 -0.01,-0.03l-0.11 -0.23c-0.02,-0.04 -0.02,-0.08 -0.06,-0.14 -0.04,-0.05 -0.11,-0.1 -0.18,-0.1l-0.67 0c0,-0.01 0.01,-0.03 0.01,-0.05 0.03,-0.09 0.03,-0.19 0.01,-0.28 -0.01,-0.04 -0.03,-0.1 -0.05,-0.14 -0.03,-0.06 -0.08,-0.12 -0.13,-0.17 -0.14,-0.13 -0.34,-0.18 -0.53,-0.15 -0.07,0.02 -0.15,0.05 -0.22,0.1 -0.04,0.03 -0.06,0.05 -0.1,0.08 -0.02,0.03 -0.06,0.08 -0.08,0.11 -0.01,0.03 -0.02,0.05 -0.04,0.09 -0.02,0.05 -0.03,0.11 -0.04,0.17l0 0.08c0.01,0.1 0.04,0.21 0.1,0.29 0.04,0.06 0.1,0.12 0.16,0.16 0.02,0.02 0.05,0.03 0.08,0.05 0.13,0.07 0.27,0.08 0.42,0.04 -0.01,0.02 -0.05,0.1 -0.06,0.12 -0.02,0 -0.03,0 -0.04,0 -0.05,0 -0.09,-0.01 -0.12,0.03 -0.03,0.04 -0.04,0.1 -0.04,0.17zm0 -1.1l0 0.2c0.08,0 0.2,0 0.27,-0.04 0.07,-0.05 0.04,-0.15 -0.12,-0.16 -0.09,0 -0.07,0 -0.15,0zm0.45 1.5c-0.08,0 -0.15,-0.07 -0.15,-0.14 0,-0.05 0.01,-0.08 0.05,-0.12 0.04,-0.04 0.1,-0.05 0.16,-0.03 0.01,0.01 0.02,0.01 0.02,0.02 0.01,0 0.02,0.01 0.02,0.01 0.07,0.06 0.07,0.15 0.01,0.21 -0.03,0.03 -0.06,0.05 -0.11,0.05zm0.95 -0.5l-0.9 0c-0.07,0 -0.09,-0.05 -0.1,-0.1 0,-0.05 -0.01,-0.01 0.01,-0.09 0.01,-0.02 0.01,-0.04 0.02,-0.06 0.02,-0.09 0.01,-0.04 0.08,-0.11 0.04,-0.04 0.07,-0.07 0.1,-0.12 0.01,-0.01 0.01,-0.02 0.02,-0.02l0.69 0c0.01,0 0.06,0.05 0.06,0.06l0.06 0.07c0.01,0.01 0.06,0.19 0.06,0.23 0.01,0.02 0,0.02 0,0.04 -0.01,0.03 -0.01,0.05 -0.03,0.07 -0.02,0.02 -0.04,0.03 -0.07,0.03zm-1.3 -0.69l-0.06 -0.01c0,0 -0.01,0 -0.02,0 -0.01,0 -0.01,0 -0.02,0l0 0.2 -0.1 0 0 -0.59c0,-0.01 0.03,-0.01 0.04,-0.01 0.02,0 0.06,0 0.09,0 0.13,0 0.37,0.03 0.37,0.2 0,0.08 -0.04,0.13 -0.09,0.16 -0.05,0.03 -0.13,0.05 -0.21,0.05z"></path> </g> </g> </svg>