<svg xmlns="http://www.w3.org/2000/svg" xmlns:xlink="http://www.w3.org/1999/xlink" id="Layer_1" x="0px" y="0px" viewBox="0 0 91 91" style="enable-background:new 0 0 91 91;" xml:space="preserve"> <style type="text/css"> .st0{fill-rule:evenodd;clip-rule:evenodd;fill:#FFFFFF;} .st1{fill-rule:evenodd;clip-rule:evenodd;fill:#0B2852;} </style> <g> <circle class="st0" cx="45.5" cy="45.5" r="45.5"></circle> <path class="st1" d="M53.37,37.81c-1.74,2.33-4.05,4.11-4.31,8.69l-7.11,0c-0.27-4.61-2.53-6.34-4.3-8.69l-9.62,4.11 c-4.07,2.06-3.41,5.58-0.81,8.75c10.35,12.62,26.38,12.39,36.46,0.21c2.49-3,3.69-6.58-0.49-8.86L53.37,37.81L53.37,37.81z M38.13,74.43l5.31,0.36l1.99,4.92l2.13-4.93l5.31-0.38c-0.85-1.16-2.9-2.31-3.97-3.52l1.19-5.14c-1.03,0.39-4.06,2.5-4.5,2.54 c-0.52,0.04-3.58-2.12-4.64-2.55c0.26,1.33,1.41,4.44,0.94,5.29C41.43,71.84,38.81,73.47,38.13,74.43L38.13,74.43z M60.08,64.87 c0.43-1.44,1.66-3.27,2.5-4.66l1.5,5.1l5.03,0.88c-0.46,0.67-0.03,0.13-0.56,0.64l-3.62,2.44l0.63,5.3 c-1.13-0.61-3.83-2.99-4.34-2.99c-0.31,0-4.01,1.82-4.74,2.09l1.76-4.9l-3.55-4.03L60.08,64.87L60.08,64.87z M70.77,53.95 l-0.13-5.08c1.39,0.61,0.7,0.52,2.11,1.87c0.64,0.62,1.15,1.05,1.76,1.61l5.1-1.66l-2.25,4.87c0.68,0.63,2.73,3.3,3.06,4.13 l-5.17-0.67c-1.08,1.49-1.96,2.92-2.84,4.28l-1.28-4.99c-0.54-0.64-4.68-1.33-4.83-1.76c-0.03-0.1-0.14-0.08-0.15-0.03L70.77,53.95 L70.77,53.95z M16.55,52.34c2.18-1.83,2.07-2.69,3.82-3.44l-0.1,5.12l4.67,2.4l-2.5,0.97c-0.74,0.2-2.1,0.44-2.52,0.95l-1.18,4.75 c-0.02-0.05-0.07,0.16-0.1,0.22l-2.86-4.3l-5.17,0.67c0.34-0.81,2.38-3.48,3.15-4.16l-2.31-4.94L16.55,52.34L16.55,52.34z M26.97,65.34l1.51-5.05c0.79,1.11,2.09,3.34,2.47,4.61l5.51-0.08l-3.64,4.02l1.65,4.91l-4.62-2.2c-1.74,0.72-2.59,2.06-4.44,3.02 l0.64-5.11c-1.5-1.43-1.79-0.96-4.12-3.22L26.97,65.34L26.97,65.34z M42.8,11.62c3.38-0.92,7.19,0.17,9.16,1.89 c3.04,2.65,1.22,5.33,2.74,8.76c2.1,4.71-3.05,8.2-3.92,12.35c-0.36,1.74-0.97,2.34-2.62,2.91c-3.39,1.16-7.41,0.11-8.09-2.84 c-0.69-2.97-2.74-4.92-3.76-7.71c-0.53-1.46-0.65-3.16-0.01-4.7C37.75,18.81,35.05,13.72,42.8,11.62z"></path> </g> </svg>