<svg xmlns="http://www.w3.org/2000/svg" xmlns:xlink="http://www.w3.org/1999/xlink" xml:space="preserve" width="91px" height="91px" style="shape-rendering:geometricPrecision; text-rendering:geometricPrecision; image-rendering:optimizeQuality; fill-rule:evenodd; clip-rule:evenodd" viewBox="0 0 13.54 13.54"> <defs> <style type="text/css"> .fil0 {fill:white} .fil1 {fill:#083264;fill-rule:nonzero} </style> </defs> <g id="Layer_x0020_1"> <metadata id="CorelCorpID_0Corel-Layer"></metadata> <g id="_1754031052592"> <circle class="fil0" cx="6.77" cy="6.77" r="6.77"></circle> <path id="professional-skills-icon_x0020__x0028_1_x0029_.svg" class="fil1" d="M9.67 3.4c-0.09,-0.09 -0.19,-0.13 -0.31,-0.13 -0.12,0 -0.22,0.04 -0.31,0.13l-0.46 0.47c-0.13,-0.09 -0.26,-0.16 -0.4,-0.22 -0.14,-0.06 -0.28,-0.12 -0.43,-0.17l0 -0.71c0,-0.13 -0.04,-0.23 -0.12,-0.31 -0.09,-0.09 -0.19,-0.13 -0.31,-0.13l-0.9 0c-0.12,0 -0.22,0.04 -0.3,0.13 -0.09,0.08 -0.13,0.18 -0.13,0.31l0 0.65c-0.15,0.04 -0.3,0.08 -0.44,0.14 -0.14,0.05 -0.28,0.12 -0.4,0.18l-0.52 -0.51c-0.08,-0.08 -0.18,-0.13 -0.3,-0.13 -0.12,0 -0.22,0.05 -0.31,0.13l-0.63 0.64c-0.09,0.08 -0.13,0.19 -0.13,0.3 0,0.12 0.04,0.23 0.13,0.31l0.47 0.47c-0.09,0.13 -0.16,0.26 -0.22,0.4 -0.06,0.14 -0.12,0.28 -0.17,0.42l-0.71 0c-0.13,0 -0.23,0.04 -0.31,0.13 -0.09,0.08 -0.13,0.18 -0.13,0.3l0 0.91c0,0.11 0.04,0.21 0.13,0.3 0.08,0.09 0.18,0.13 0.31,0.13l0.65 0c0.04,0.15 0.08,0.3 0.14,0.44 0.05,0.14 0.12,0.27 0.18,0.41l-0.51 0.51c-0.08,0.08 -0.13,0.18 -0.13,0.3 0,0.12 0.05,0.22 0.13,0.31l0.64 0.64c0.08,0.08 0.19,0.12 0.3,0.12 0.12,0 0.23,-0.04 0.31,-0.12l0.47 -0.48c0.13,0.08 0.26,0.15 0.4,0.22 0.14,0.06 0.28,0.11 0.42,0.16l0 0.72c0,0.12 0.04,0.22 0.13,0.31 0.08,0.08 0.18,0.12 0.3,0.12l0.91 0c0.11,0 0.21,-0.04 0.3,-0.12 0.09,-0.09 0.13,-0.19 0.13,-0.31l0 -0.66c0.15,-0.03 0.3,-0.08 0.44,-0.13 0.14,-0.06 0.28,-0.12 0.41,-0.19l0.51 0.51c0.08,0.09 0.18,0.13 0.3,0.13 0.12,0 0.22,-0.04 0.31,-0.13l0.64 -0.63c0.08,-0.09 0.12,-0.19 0.12,-0.31 0,-0.12 -0.04,-0.22 -0.12,-0.31l-0.48 -0.46c0.08,-0.13 0.15,-0.26 0.22,-0.4 0.06,-0.14 0.11,-0.28 0.16,-0.43l0.72 0c0.12,0 0.22,-0.04 0.31,-0.12 0.08,-0.09 0.12,-0.19 0.12,-0.31l0 -0.9c0,-0.12 -0.04,-0.22 -0.12,-0.3 -0.09,-0.09 -0.19,-0.13 -0.31,-0.13l-0.66 0c-0.03,-0.15 -0.08,-0.29 -0.13,-0.44 -0.06,-0.14 -0.12,-0.28 -0.19,-0.4l0.51 -0.52c0.09,-0.08 0.13,-0.18 0.13,-0.3 0,-0.12 -0.04,-0.22 -0.13,-0.31l-0.63 -0.63 0 0zm-0.84 4.47c-0.39,0.73 -1.17,1.24 -2.06,1.24 -0.9,0 -1.67,-0.51 -2.07,-1.24 0.05,-0.2 0.13,-0.38 0.35,-0.5 0.31,-0.17 0.84,-0.16 1.09,-0.39l0.35 0.92 0.17 -0.5 -0.08 -0.09c-0.07,-0.1 -0.05,-0.21 0.07,-0.23 0.04,0 0.09,0 0.13,0 0.05,0 0.1,0 0.15,0.01 0.11,0.02 0.12,0.13 0.06,0.22l-0.08 0.09 0.17 0.5 0.32 -0.92c0.22,0.21 0.84,0.25 1.09,0.39 0.22,0.12 0.3,0.3 0.34,0.5l0 0zm-2.76 -1.5c-0.03,0 -0.05,0 -0.08,-0.02 -0.04,-0.02 -0.06,-0.05 -0.08,-0.09 -0.04,-0.09 -0.07,-0.31 0.03,-0.37l-0.02 -0.01 0 -0.03c-0.01,-0.04 -0.01,-0.1 -0.01,-0.15 0,-0.21 -0.01,-0.46 -0.18,-0.52l-0.07 -0.02 0.05 -0.06c0.13,-0.16 0.28,-0.31 0.43,-0.42 0.16,-0.13 0.33,-0.21 0.49,-0.24 0.17,-0.02 0.34,0.02 0.49,0.14 0.04,0.03 0.09,0.07 0.13,0.12 0.16,0.02 0.29,0.1 0.39,0.22 0.05,0.08 0.09,0.16 0.12,0.25 0.03,0.09 0.04,0.19 0.04,0.28 -0.01,0.17 -0.08,0.34 -0.21,0.46 0.03,0 0.05,0 0.07,0.01 0.07,0.04 0.07,0.12 0.05,0.19 -0.02,0.06 -0.04,0.12 -0.06,0.18 -0.03,0.07 -0.07,0.09 -0.15,0.08 -0.17,0.75 -1.21,0.78 -1.43,0zm0.7 -2.35c1.52,0 2.75,1.23 2.75,2.75 0,1.52 -1.23,2.75 -2.75,2.75 -1.52,0 -2.75,-1.23 -2.75,-2.75 0,-1.52 1.23,-2.75 2.75,-2.75z"></path> </g> </g> </svg>