<svg xmlns="http://www.w3.org/2000/svg" xmlns:xlink="http://www.w3.org/1999/xlink" xml:space="preserve" width="91px" height="91px" style="shape-rendering:geometricPrecision; text-rendering:geometricPrecision; image-rendering:optimizeQuality; fill-rule:evenodd; clip-rule:evenodd" viewBox="0 0 3.89 3.89"> <defs> <style type="text/css"> .fil1 {fill:#083264} .fil0 {fill:white} </style> </defs> <g id="Layer_x0020_1"> <metadata id="CorelCorpID_0Corel-Layer"></metadata> <g id="_1718646412160"> <circle class="fil0" cx="1.94" cy="1.94" r="1.94"></circle> <path class="fil1" d="M2.32 2.6c0.02,0.02 0.07,0.01 0.09,0.03 0.02,0.02 0.04,0.07 0.03,0.1 -0.02,0.06 -0.11,0.07 -0.19,0.07 -0.11,0 -0.37,-0.01 -0.46,-0.05 0.1,0.01 0.44,0.03 0.55,0.01 0.07,-0.01 0.1,-0.05 0.06,-0.1 -0.02,-0.02 -0.11,-0.04 -0.14,-0.05 -0.08,-0.03 -0.22,-0.02 -0.32,-0.06 -0.05,-0.03 -0.03,-0.06 -0.09,-0.09 -0.16,-0.1 -0.48,-0.03 -0.68,-0.02 -0.07,0 -0.1,0.01 -0.12,0.06 -0.02,0.04 -0.02,0.13 -0.02,0.18 0,0.06 -0.01,0.13 0.06,0.13 0.06,0 0.25,-0.08 0.49,0.03 0.04,0.01 0.08,0.04 0.13,0.06 0.04,0.02 0.08,0.04 0.12,0.06 0.23,0.11 0.26,0.02 0.43,-0.04 0.04,-0.02 0.09,-0.04 0.13,-0.05 0.11,-0.05 0.23,-0.16 0.34,-0.23 0.02,-0.01 0.04,-0.03 0.06,-0.04 0.02,-0.01 0.05,-0.02 0.06,-0.03 0.02,-0.02 0.01,-0.05 -0.01,-0.07 -0.05,-0.03 -0.18,0.01 -0.23,0.03 -0.05,0.02 -0.02,-0.03 -0.15,0.01 -0.03,0.01 -0.12,0.04 -0.14,0.06zm-1.1 -0.79l0.12 -0.32 0.11 0.32c-0.01,0.01 0,0.01 -0.01,0.01l-0.2 0c-0.02,0 -0.02,0.01 -0.02,-0.01zm0.27 0.01l-0.14 -0.4c0.04,-0.01 0.04,-0.02 0.04,-0.07l0.49 -0.1 0 0.02 -0.15 0.88c-0.14,0 -0.21,-0.03 -0.2,0.13l0.83 0c0.01,-0.11 -0.02,-0.11 -0.04,-0.13 -0.05,-0.01 -0.11,0 -0.16,0l-0.15 -0.93c0.01,-0.01 0.34,-0.07 0.4,-0.09 0.04,-0.01 0.1,-0.02 0.14,-0.03 0.01,0.02 0.01,0.02 0.02,0.04 0.02,0.01 0.03,0.01 0.05,0.01l-0.14 0.39 -0.05 0c0.02,0.22 0.38,0.22 0.4,0l-0.05 0 -0.14 -0.39c0.01,-0.02 0.03,-0.02 0.04,-0.04 0,-0.02 -0.01,-0.05 -0.01,-0.07 -0.03,-0.12 -0.04,-0.1 -0.2,-0.06 -0.04,0.01 -0.09,0.02 -0.13,0.02 -0.02,-0.02 -0.02,-0.06 -0.1,-0.09 -0.16,-0.07 -0.37,-0.02 -0.51,0.04 -0.05,0.02 -0.09,0.06 -0.12,0.08 -0.04,0.04 -0.07,0.09 -0.06,0.15 -0.09,0.01 -0.18,0.03 -0.26,0.05 -0.05,0.01 -0.04,0.05 -0.03,0.11 0.01,0.05 0.01,0.08 0.07,0.09l-0.14 0.39 -0.05 0c0.01,0.1 0.09,0.16 0.2,0.17 0.1,0 0.19,-0.07 0.19,-0.17l-0.04 0zm1.02 -0.29l0.12 -0.32c0.01,0.02 0.04,0.13 0.06,0.16 0.01,0.04 0.04,0.13 0.05,0.16 0,0.01 0,0.01 -0.02,0.01 -0.01,0 -0.02,0 -0.03,0 -0.02,0 -0.04,0 -0.06,0 -0.02,0 -0.11,0 -0.12,-0.01zm-0.65 -0.46c-0.02,-0.1 0.14,-0.12 0.15,-0.02 0.02,0.11 -0.14,0.12 -0.15,0.02z"></path> </g> </g> </svg>