<svg xmlns="http://www.w3.org/2000/svg" xmlns:xlink="http://www.w3.org/1999/xlink" xml:space="preserve" width="91px" height="91px" style="shape-rendering:geometricPrecision; text-rendering:geometricPrecision; image-rendering:optimizeQuality; fill-rule:evenodd; clip-rule:evenodd" viewBox="0 0 7.76 7.76"> <defs> <style type="text/css"> .fil1 {fill:#083264} .fil0 {fill:white} </style> </defs> <g id="Layer_x0020_1"> <metadata id="CorelCorpID_0Corel-Layer"></metadata> <g id="_1718119351568"> <circle class="fil0" cx="3.88" cy="3.88" r="3.88"></circle> <path class="fil1" d="M3.66 1.75c0.2,0.13 0.42,0.25 0.64,0.35 -0.06,0.08 -0.11,0.16 -0.15,0.25 -0.17,-0.08 -0.33,-0.17 -0.49,-0.27 -0.48,0.37 -1.03,0.56 -1.64,0.52 -0.04,1.74 0.61,2.7 1.64,3.08 0.75,-0.28 1.28,-0.85 1.52,-1.71l0.02 0c0,0 0,0 0,0 0.09,0 0.18,-0.01 0.27,-0.03 -0.27,1.05 -0.9,1.73 -1.8,2.07 -1.26,-0.46 -2,-1.58 -1.94,-3.67 0.66,0.04 1.3,-0.1 1.93,-0.59l0 0zm1.54 0.24c0.46,0 0.83,0.37 0.83,0.83 0,0.46 -0.37,0.83 -0.83,0.83 -0.45,0 -0.83,-0.37 -0.83,-0.83 0,-0.46 0.38,-0.83 0.83,-0.83l0 0zm-0.19 0.81c0.03,0.02 0.05,0.04 0.07,0.06 0.06,-0.1 0.13,-0.2 0.21,-0.29 0.21,-0.25 0.11,-0.2 0.4,-0.2l-0.04 0.05c-0.1,0.11 -0.19,0.23 -0.26,0.35 -0.1,0.14 -0.2,0.3 -0.28,0.45l-0.02 0.05 -0.02 -0.05c-0.05,-0.09 -0.1,-0.17 -0.16,-0.25 -0.05,-0.07 -0.12,-0.13 -0.19,-0.18 0.03,-0.12 0.21,-0.06 0.29,0.01l0 0zm-1.87 0.81l0.05 0 0 -0.12c0,0 0,0 0,0 0,-0.13 0.05,-0.25 0.14,-0.34 0.09,-0.1 0.21,-0.15 0.33,-0.15 0.13,0 0.25,0.05 0.34,0.15 0.09,0.09 0.14,0.21 0.14,0.34l0 0.12 0.05 0c0.05,0 0.08,0.03 0.08,0.08l0 0.81c0,0.05 -0.03,0.08 -0.08,0.08l-1.05 0c-0.04,0 -0.08,-0.03 -0.08,-0.08l0 -0.81c0,-0.05 0.04,-0.08 0.08,-0.08l0 0zm0.12 0.08l0.73 0 0 -0.2c0,0 0,0 0,0 0,-0.09 -0.03,-0.18 -0.09,-0.24 -0.06,-0.07 -0.15,-0.1 -0.24,-0.1 -0.08,0 -0.17,0.03 -0.23,0.1 -0.06,0.06 -0.09,0.15 -0.09,0.24 0,0 0,0 0,0l0 0.12 -0.08 0.08zm0.34 0.44l-0.08 0.22 0.29 0 -0.08 -0.22c0.06,-0.03 0.09,-0.08 0.09,-0.14 0,-0.08 -0.07,-0.15 -0.16,-0.15 -0.08,0 -0.15,0.07 -0.15,0.15 0,0.06 0.04,0.12 0.09,0.14l0 0z"></path> </g> </g> </svg>