<svg xmlns="http://www.w3.org/2000/svg" xmlns:xlink="http://www.w3.org/1999/xlink" xml:space="preserve" width="91px" height="91px" style="shape-rendering:geometricPrecision; text-rendering:geometricPrecision; image-rendering:optimizeQuality; fill-rule:evenodd; clip-rule:evenodd" viewBox="0 0 3.89 3.89"> <defs> <style type="text/css"> .fil1 {fill:#083264} .fil0 {fill:white} </style> </defs> <g id="Layer_x0020_1"> <metadata id="CorelCorpID_0Corel-Layer"></metadata> <g id="_1718375005264"> <circle class="fil0" cx="1.94" cy="1.94" r="1.94"></circle> <g> <path class="fil1" d="M1.48 2.42l-0.09 0 0 -0.07c0.06,0 0.11,0 0.17,-0.02 0.03,-0.01 0.04,-0.03 0.06,-0.04l0.05 0.05c-0.03,0.04 -0.12,0.08 -0.19,0.08zm0.17 -0.33c0,-0.11 0.14,-0.08 0.14,-0.01 0,0.05 -0.01,0.08 -0.07,0.08 -0.04,0 -0.07,-0.03 -0.07,-0.07zm-0.44 0.01c0,-0.12 0.14,-0.09 0.14,-0.02l0 0.02c0,0.05 -0.08,0.08 -0.12,0.04 -0.01,0 -0.02,-0.03 -0.02,-0.04zm-0.11 -0.14l0 0.23c0,0.05 0.02,0.11 0.04,0.15 0.09,0.19 0.31,0.28 0.52,0.2 0.14,-0.06 0.25,-0.21 0.25,-0.35l0 -0.24c0,-0.02 -0.02,-0.04 -0.03,-0.05 -0.07,-0.06 -0.05,0 -0.16,0l-0.44 0c-0.06,0 -0.09,-0.02 -0.12,-0.03 -0.03,0.02 -0.06,0.04 -0.06,0.09z"></path> <path class="fil1" d="M1.36 1.28c0.09,0.02 0.19,0.02 0.29,0 0,0.1 0.02,0.22 -0.07,0.29 -0.07,0.05 -0.1,0.05 -0.17,-0.02 -0.07,-0.06 -0.05,-0.17 -0.05,-0.27zm-0.41 0.25c0,0.05 -0.02,0.15 0.07,0.15l0.96 0c0.02,0 0.05,-0.01 0.06,-0.02 0.03,-0.03 0.02,-0.16 0,-0.19 -0.01,-0.02 -0.02,-0.02 -0.03,-0.03 -0.02,-0.02 -0.05,-0.04 -0.07,-0.06l-0.05 -0.05c-0.01,0 -0.01,-0.01 -0.02,-0.01l-0.26 -0.23c-0.05,-0.04 -0.09,-0.1 -0.16,-0.05l-0.42 0.37c-0.01,0 -0.01,0.01 -0.02,0.01 -0.02,0.02 -0.04,0.03 -0.05,0.05 -0.01,0.02 -0.01,0.03 -0.01,0.06z"></path> <path class="fil1" d="M2.42 2.14c0.03,0 0.41,-0.21 0.45,-0.22l0 -0.66c-0.03,0 -0.05,-0.02 -0.08,-0.03l-0.22 -0.09c-0.02,-0.01 -0.05,-0.02 -0.07,-0.03 -0.02,-0.01 -0.03,-0.01 -0.04,-0.02 -0.01,-0.01 -0.03,-0.02 -0.04,-0.01 -0.01,0.01 0,0.18 0,0.21 0,0.28 0,0.57 0,0.85z"></path> <path class="fil1" d="M1.79 1.15c0.01,0.01 0.02,0.02 0.03,0.03 0.02,0.01 0.03,0.02 0.04,0.03l0.01 -0.01c0.01,0 0.01,0 0.02,0l0.5 -0.22 0.41 0.18c0.02,0.01 0.05,0.02 0.07,0.03l0.07 0.03 0 0.74 -0.55 0.28c-0.02,0 -0.15,-0.08 -0.19,-0.09 -0.02,0.07 -0.03,0.06 -0.04,0.08 0.04,0.02 0.07,0.04 0.11,0.05 0.14,0.08 0.09,0.08 0.21,0.02l0.48 -0.24c0.02,-0.01 0.05,-0.02 0.05,-0.04l0 -0.86c0,-0.01 -0.04,-0.03 -0.06,-0.04 -0.03,-0.01 -0.06,-0.02 -0.08,-0.03 -0.12,-0.05 -0.35,-0.16 -0.47,-0.21 -0.02,-0.01 -0.03,0 -0.07,0.02l-0.5 0.23c-0.02,0 -0.03,0.01 -0.04,0.02z"></path> <path class="fil1" d="M1.92 1.26l0.15 0.14c0.07,0.05 0.06,0.12 0.06,0.2 0,0.04 -0.02,0.09 -0.04,0.11 0.04,0.06 0.05,0.13 0.02,0.21 0,0.02 -0.02,0.05 -0.02,0.07 0.02,0 0.05,0.02 0.07,0.03 0,0.01 0.01,0.02 0.02,0.03 0.01,0.01 0,0 0.01,0.01l0.16 0.08 0 -1.07 -0.37 0.17c-0.02,0.01 -0.05,0.02 -0.06,0.02z"></path> <path class="fil1" d="M1.24 3.01c0.01,0 0.01,-0.01 0.01,-0.04 0,-0.06 -0.02,-0.06 -0.03,-0.08 0.01,-0.02 0.04,-0.05 0.06,-0.05 0.01,0.04 0.04,0.01 0.04,0.17l0.36 0c0.02,0 0.01,-0.02 0.01,-0.04 0,-0.02 0,-0.04 0,-0.05 0.01,-0.03 0.03,-0.06 0.05,-0.08l0.05 0.05c-0.04,0.05 -0.03,0.03 -0.03,0.12l0.11 0c0,-0.1 -0.03,-0.19 -0.11,-0.25 -0.02,-0.01 -0.06,-0.03 -0.08,-0.03 0,0.01 -0.01,0.06 -0.02,0.08 -0.02,0.1 -0.13,0.16 -0.23,0.11 -0.08,-0.04 -0.1,-0.12 -0.1,-0.19 -0.05,0 -0.11,0.06 -0.14,0.1 -0.03,0.04 -0.05,0.11 -0.05,0.18l0.1 0z"></path> <path class="fil1" d="M2.02 2.58c0,0.08 -0.02,0.07 0.06,0.07 0.02,0 0.02,-0.03 0.02,-0.08l0.14 0 0 0.12c-0.02,0 -0.12,0.04 -0.14,0.05 -0.03,0.01 -0.06,0.01 -0.08,0.05 -0.01,0.03 0,0.1 0,0.14 0,0.04 0.03,0.08 0.08,0.08l0.14 0c0.09,0 0.08,-0.1 0.08,-0.15l-0.08 0 0 0.08 -0.14 0 0 -0.12 0.13 -0.05c0.1,-0.03 0.09,-0.06 0.09,-0.19 0,-0.02 -0.01,-0.04 -0.02,-0.06 -0.01,-0.01 -0.03,-0.02 -0.05,-0.02l-0.17 0c-0.03,0 -0.06,0.03 -0.06,0.08z"></path> <path class="fil1" d="M2.34 2.87l0.19 0 0 0.14 0.08 0 0 -0.14c0.09,0 0.07,0.01 0.07,-0.08l-0.07 0 0 -0.22 -0.08 0 0 0.22 -0.1 0c0.01,-0.02 0.07,-0.27 0.07,-0.29 -0.03,0 -0.05,-0.01 -0.07,-0.01 -0.01,0 -0.09,0.35 -0.09,0.38z"></path> <path class="fil1" d="M1.28 1.83l0.43 0c0.07,0 0.14,-0.04 0.16,-0.07l-0.74 0c0.02,0.03 0.09,0.07 0.15,0.07z"></path> <path class="fil1" d="M1.96 1.76c-0.02,0.03 -0.04,0.04 -0.06,0.07 0.02,0.02 0.08,0.04 0.08,0.15 0.03,0 0.03,-0.01 0.05,-0.05 0.04,-0.06 0.03,-0.12 0,-0.18 -0.02,0.01 -0.04,0.01 -0.07,0.01z"></path> <path class="fil1" d="M0.87 2.11c0,0.1 0.08,0.09 0.16,0.09l0 -0.15 -0.08 0c-0.04,0 -0.08,0.03 -0.08,0.06z"></path> <path class="fil1" d="M1.01 1.98c0.04,0 -0.01,-0.05 0.06,-0.12 0,-0.01 0.01,-0.01 0.01,-0.02 0.01,0 0.02,0 0.02,-0.02 -0.02,0 -0.05,-0.05 -0.06,-0.06 -0.03,0 -0.05,0 -0.06,-0.01 -0.01,0.02 -0.07,0.1 0,0.19 0.01,0.01 0.02,0.04 0.03,0.04z"></path> <path class="fil1" d="M1.98 2.12c0,0.04 0,0.05 0,0.08 0.08,0 0.15,0.01 0.15,-0.09 0,-0.02 -0.04,-0.06 -0.06,-0.06l-0.09 0 0 0.07z"></path> <path class="fil1" d="M1.5 2.71c0.02,-0.01 0.09,-0.06 0.1,-0.08 -0.03,0 -0.06,0.01 -0.1,0.01 -0.04,0 -0.06,-0.01 -0.09,-0.01l0.09 0.08z"></path> <polygon class="fil1" points="2.76,2.94 2.83,2.94 2.83,2.86 2.76,2.86 "></polygon> <polygon class="fil1" points="2.9,2.94 2.98,2.94 2.98,2.86 2.9,2.86 "></polygon> <path class="fil1" d="M1.44 2.85c0.05,0.02 0.07,0.02 0.12,0 -0.01,-0.02 -0.04,-0.04 -0.06,-0.05 -0.01,0.01 -0.05,0.03 -0.06,0.05z"></path> <path class="fil1" d="M1.56 2.76c0.02,0 0.02,0.01 0.04,0.02l0.01 -0.06c-0.01,0.01 -0.02,0.01 -0.03,0.02 -0.01,0 -0.01,0 -0.02,0.02z"></path> <path class="fil1" d="M1.41 2.78c0.01,-0.01 0.02,-0.02 0.03,-0.03 -0.01,-0.01 -0.03,-0.02 -0.04,-0.03 0,0.02 0.01,0.04 0.01,0.06z"></path> </g> </g> </g> </svg>