<svg xmlns="http://www.w3.org/2000/svg" xmlns:xlink="http://www.w3.org/1999/xlink" xml:space="preserve" width="91px" height="91px" style="shape-rendering:geometricPrecision; text-rendering:geometricPrecision; image-rendering:optimizeQuality; fill-rule:evenodd; clip-rule:evenodd" viewBox="0 0 7.75 7.75"> <defs> <style type="text/css"> .fil1 {fill:#083264} .fil0 {fill:white} </style> </defs> <g id="Layer_x0020_1"> <metadata id="CorelCorpID_0Corel-Layer"></metadata> <g id="_1718300500064"> <circle class="fil0" cx="3.88" cy="3.88" r="3.88"></circle> <path class="fil1" d="M4 4.59c-0.03,0.01 -0.21,0.02 -0.24,0 -0.04,-0.02 0,-0.18 0,-0.22 0.01,-0.06 0.02,-0.06 -0.01,-0.1 -0.09,-0.11 -0.06,-0.21 0.02,-0.27 0.13,-0.09 0.3,0.02 0.29,0.17 -0.02,0.12 -0.08,0.06 -0.07,0.18 0.01,0.07 0.03,0.18 0.01,0.24zm-1.6 0.07l-0.16 0.04c0,0.04 0.12,0.22 0.15,0.25 0.08,0.11 0.1,0.14 0.19,0.22 0.13,0.13 0.3,0.28 0.47,0.34 0.01,-0.01 0.05,-0.16 0.06,-0.19 -0.03,-0.02 -0.36,-0.21 -0.41,-0.33 -0.04,-0.01 -0.04,-0.03 -0.08,-0.07 -0.05,-0.06 -0.15,-0.2 -0.18,-0.27l-0.04 0.01zm2.53 -2.02c0.09,0.04 0.34,0.35 0.38,0.46l0.2 -0.05c-0.01,-0.11 -0.31,-0.47 -0.43,-0.56 -0.1,-0.08 -0.12,-0.11 -0.24,-0.18 -0.04,-0.02 -0.1,-0.04 -0.13,-0.08 -0.03,0.02 -0.01,0 -0.02,0.05l-0.04 0.15c0.03,0.04 0.17,0.1 0.25,0.18l0.02 0.02c0,0 0.01,0 0.01,0 0,0 0,0.01 0,0.01zm0.24 2.21c0,0.03 -0.03,0.05 -0.05,0.08 -0.1,0.11 -0.2,0.21 -0.33,0.29 -0.03,0.03 -0.11,0.07 -0.14,0.1l0.05 0.19c0.19,-0.07 0.34,-0.21 0.48,-0.34l0.1 -0.11c0.06,-0.06 0.22,-0.29 0.23,-0.36 -0.05,-0.01 -0.14,-0.03 -0.17,-0.04 -0.04,-0.01 -0.03,-0.01 -0.05,0.03l-0.09 0.14c-0.02,0.02 -0.01,0.01 -0.03,0.02zm-2.93 -1.8l0.2 0.05c0.09,-0.21 0.37,-0.48 0.56,-0.6 0.04,-0.03 0.08,-0.04 0.11,-0.07 -0.01,-0.03 -0.04,-0.17 -0.06,-0.19 -0.25,0.1 -0.51,0.35 -0.66,0.56 -0.03,0.04 -0.15,0.21 -0.15,0.25zm1.5 -1.28c-0.01,0.01 -0.06,0.03 -0.08,0.04 -0.22,0.15 -0.21,0.48 -0.01,0.62 0.24,0.18 0.61,0.04 0.61,-0.32 -0.01,-0.07 -0.02,-0.12 -0.05,-0.17 -0.03,-0.05 -0.07,-0.09 -0.11,-0.12 -0.11,-0.09 -0.21,-0.09 -0.36,-0.05zm1.79 1.73c-0.19,0.04 -0.35,0.2 -0.31,0.44 0.04,0.19 0.22,0.35 0.45,0.31 0.18,-0.03 0.34,-0.22 0.3,-0.45 -0.03,-0.18 -0.22,-0.34 -0.44,-0.3zm-3 0.28c-0.02,-0.02 -0.03,-0.06 -0.04,-0.08 -0.01,-0.03 -0.04,-0.06 -0.05,-0.08 -0.03,-0.04 -0.1,-0.09 -0.16,-0.1 -0.38,-0.14 -0.68,0.32 -0.4,0.62 0.1,0.11 0.29,0.16 0.46,0.07 0.23,-0.13 0.18,-0.32 0.19,-0.43zm0.97 1.89c0.02,0.19 0.2,0.36 0.42,0.33 0.19,-0.02 0.36,-0.2 0.33,-0.42 -0.02,-0.2 -0.2,-0.36 -0.42,-0.33 -0.2,0.02 -0.36,0.2 -0.33,0.42zm0.74 -2.07l-0.73 0c-0.01,-0.15 -0.01,-0.27 0.07,-0.38 0.13,-0.21 0.45,-0.22 0.59,-0.01 0.07,0.11 0.08,0.24 0.07,0.39zm-0.99 -0.29c-0.01,0.1 0,0.19 -0.01,0.29 -0.24,0.01 -0.18,-0.08 -0.18,0.67 0,0.11 0,0.22 0,0.33 0,0.05 0,0.11 0,0.17 0,0.08 0.02,0.08 0.04,0.13 0.02,0.01 0.04,0.03 0.06,0.05 0.03,0.01 0.06,0.01 0.1,0.01l1.08 0c0.11,0 0.2,0.02 0.28,-0.04 0.03,-0.02 0.03,-0.03 0.05,-0.04 0.04,-0.19 0.02,-0.43 0.02,-0.63 0,-0.73 0.06,-0.65 -0.18,-0.65 -0.01,-0.26 0.02,-0.35 -0.12,-0.55 -0.04,-0.06 -0.11,-0.12 -0.17,-0.16 -0.14,-0.09 -0.21,-0.08 -0.25,-0.1 -0.09,0.01 -0.17,-0.01 -0.28,0.02 -0.08,0.03 -0.15,0.07 -0.21,0.11 -0.1,0.09 -0.19,0.2 -0.23,0.39z"></path> </g> </g> </svg>