<svg xmlns="http://www.w3.org/2000/svg" xmlns:xlink="http://www.w3.org/1999/xlink" xml:space="preserve" width="91px" height="91px" style="shape-rendering:geometricPrecision; text-rendering:geometricPrecision; image-rendering:optimizeQuality; fill-rule:evenodd; clip-rule:evenodd" viewBox="0 0 14.73 14.73"> <defs> <style type="text/css"> .fil1 {fill:#083264} .fil0 {fill:white} </style> </defs> <g id="Layer_x0020_1"> <metadata id="CorelCorpID_0Corel-Layer"></metadata> <g id="_1718159125568"> <circle class="fil0" cx="7.36" cy="7.36" r="7.36"></circle> <g> <path class="fil1" d="M3.54 10.43c0.22,0 0.29,0.08 0.29,0.3 0,0.36 -0.64,0.27 -0.51,-0.13 0.03,-0.07 0.11,-0.17 0.22,-0.17zm8.56 -1.51l0 0.1c-0.02,0.13 -0.1,0.27 -0.27,0.38l-2.74 1.65c-0.39,0.19 -0.39,0.15 -0.74,0.2l-0.58 -0.02c-0.1,-0.01 -0.21,0.01 -0.31,0l-0.59 -0.04c-0.3,0 -0.7,-0.04 -0.91,-0.04 -0.13,0.01 -0.19,-0.01 -0.3,-0.01l-1.2 -0.06c-0.04,0.06 -0.06,0.12 -0.12,0.17 -0.21,0.16 -0.42,0.09 -0.72,0.14 -1.1,0.16 -0.81,-0.56 -0.92,-1.3l-0.07 -1.06 0 -0.01c0.01,-0.13 0.08,-0.23 0.16,-0.3 0.15,-0.16 0.46,-0.17 0.71,-0.17 0.26,0 0.48,-0.08 0.67,0.05 0.05,0.04 0.09,0.07 0.11,0.13 0.06,0 0.39,-0.16 0.57,-0.2 0.63,-0.16 1.07,-0.09 1.67,0.07 0.32,0.09 0.64,0.08 1.05,0.08 0.37,0 0.71,0.02 1.11,0.02 0.22,0 0.47,-0.03 0.6,0.24 0.16,0.31 -0.05,0.63 -0.33,0.68 -0.32,0.05 -1.15,0.11 -1.55,0.15 -0.12,0.01 -0.25,0.02 -0.38,0.04 -0.18,0.02 -0.21,-0.01 -0.28,0.12 0.04,0.18 0.12,0.12 0.27,0.12l0.61 -0.02c0.1,0 0.11,-0.02 0.19,-0.02l0.76 -0.07c0.31,-0.05 0.75,-0.09 1.01,-0.21 0.23,-0.1 0.88,-0.58 1.29,-0.78l0.26 -0.14c0.14,-0.07 0.4,-0.22 0.6,-0.22 0.2,0 0.34,0.14 0.37,0.33z"></path> <path class="fil1" d="M7.77 7.53l0 -1.79 1.55 0c0,0.32 0,0.51 -0.18,0.78 -0.18,0.27 -0.42,0.51 -0.7,0.68 -0.12,0.08 -0.55,0.3 -0.67,0.33zm-1.57 -3.05c0.26,0 0.67,-0.14 0.87,-0.22 0.1,-0.04 0.25,-0.12 0.36,-0.18 0.12,-0.07 0.22,-0.15 0.34,-0.21l0 1.85 -1.57 0 0 -1.24zm-0.5 -0.07l0 1.35c0,0.91 0.52,1.51 1.26,1.95 0.22,0.13 0.59,0.34 0.85,0.34 0.17,0 0.86,-0.38 1.06,-0.53 0.11,-0.08 0.19,-0.14 0.29,-0.24 0.43,-0.43 0.68,-0.81 0.68,-1.47l0 -1.48c0,-0.44 -0.53,-0.29 -1.04,-0.49 -0.22,-0.09 -0.31,-0.13 -0.51,-0.24l-0.24 -0.16c-0.34,-0.22 -0.32,-0.13 -0.79,0.15 -0.18,0.11 -0.32,0.17 -0.53,0.25 -0.61,0.24 -1.03,0.01 -1.03,0.57z"></path> <path class="fil1" d="M9.71 8.86c0.01,0.16 0.04,0.03 0.04,0.37 0.07,-0.03 0.11,-0.07 0.18,-0.12 0.26,-0.17 1.15,-0.7 1.35,-0.75 -0.17,-0.25 -0.72,0.08 -0.93,0.18 -0.11,0.06 -0.2,0.11 -0.32,0.16 -0.1,0.05 -0.22,0.14 -0.32,0.16z"></path> <path class="fil1" d="M9.34 8.4c0.03,0.04 0.14,0.11 0.2,0.2 0.33,-0.17 0.44,-0.21 0.76,-0.35 0.07,-0.04 0.19,-0.09 0.26,-0.11 -0.21,-0.29 -0.99,0.21 -1.22,0.26z"></path> </g> </g> </g> </svg>