<svg xmlns="http://www.w3.org/2000/svg" xmlns:xlink="http://www.w3.org/1999/xlink" xml:space="preserve" width="91px" height="91px" style="shape-rendering:geometricPrecision; text-rendering:geometricPrecision; image-rendering:optimizeQuality; fill-rule:evenodd; clip-rule:evenodd" viewBox="0 0 13.93 13.93"> <defs> <style type="text/css"> .fil1 {fill:#083264} .fil0 {fill:white} </style> </defs> <g id="Layer_x0020_1"> <metadata id="CorelCorpID_0Corel-Layer"></metadata> <g id="_1718018324880"> <circle class="fil0" cx="6.97" cy="6.97" r="6.97"></circle> <g> <path class="fil1" d="M3.64 10.4l0.14 -0.37 6.02 0c-0.07,0.11 -0.38,0.24 -0.52,0.28 -0.21,0.07 -0.44,0.09 -0.73,0.09l-4.91 0zm6.52 -0.77l-6.22 0c0.03,-0.12 0.28,-0.64 0.29,-0.75l6.18 0c-0.02,0.06 -0.04,0.44 -0.25,0.75zm-0.89 -1.89l0.75 0 0 0.75 -0.75 0 0 -0.75zm-1.15 0l0.75 0 0 0.75 -0.75 0 0 -0.75zm-2.17 -0.77l1.78 0 0 1.52 -2.54 0 0.76 -1.52zm0.65 -0.61c0,-0.21 0.38,-0.3 0.38,0.07l0 0.15 -0.38 0 0 -0.22zm-0.39 0.02l0 0.2c-0.57,0 -0.44,-0.07 -0.68,0.41l-0.75 1.5c-0.15,0 -0.3,0 -0.45,0 -0.42,0 -0.36,0 -0.52,0.41 -0.05,0.11 -0.08,0.21 -0.13,0.33 -0.09,0.23 -0.18,0.43 -0.27,0.66 -0.06,0.16 -0.26,0.59 -0.26,0.71 0,0.14 0.13,0.2 0.27,0.2l5.15 0c0.82,0 1.56,-0.3 1.94,-1.01 0.08,-0.15 0.12,-0.24 0.18,-0.41 0.05,-0.14 0.09,-0.32 0.1,-0.5 0,-0.07 0.07,-0.39 -0.18,-0.39l-0.2 0 0 -1c0,-0.07 -0.12,-0.14 -0.2,-0.14l-2.09 0 0 -0.59c0,-0.25 -0.46,-0.18 -0.75,-0.18 0,-0.26 0,-0.38 -0.13,-0.57 -0.28,-0.42 -1.03,-0.21 -1.03,0.37z"></path> <path class="fil1" d="M4.91 3.91c0,0.51 0.16,0.69 -0.2,0.95 -0.05,0.04 -0.34,0.19 -0.4,0.19 -0.06,0.01 -0.34,-0.14 -0.4,-0.18 -0.3,-0.19 -0.25,-0.39 -0.19,-0.79 0.02,-0.15 -0.02,-0.29 -0.05,-0.42 0.18,0.05 0.26,0.06 0.45,0 0.33,-0.09 0.06,-0.1 0.32,-0.02 0.16,0.05 0.34,0.03 0.5,-0.01 -0.01,0.1 -0.03,0.16 -0.03,0.28zm-1.77 -0.39c0,0.18 0.14,0.09 0.18,0.34 0.03,0.18 -0.06,0.24 -0.06,0.41 0,0.39 0.08,0.66 0.42,0.9 0.21,0.15 0.37,0.19 0.61,0.26 0.11,0.03 0.13,0.01 0.22,-0.03 0.59,-0.26 0.89,-0.49 0.82,-1.14 -0.01,-0.14 -0.03,-0.13 -0.03,-0.33 0,-0.27 0.34,-0.3 0.03,-0.64 -0.31,-0.33 -0.37,-0.01 -0.62,-0.01 -0.05,0 -0.17,-0.02 -0.22,-0.04 -0.11,-0.05 -0.17,-0.18 -0.37,-0.02 -0.21,0.18 -0.52,-0.07 -0.59,-0.07 -0.16,0 -0.39,0.27 -0.39,0.37z"></path> <path class="fil1" d="M5.25 5.95c0,0.12 0.12,0.19 0.22,0.21 0.17,0.03 0.56,0.17 0.56,-0.14 0,-0.08 -0.06,-0.16 -0.13,-0.19 -0.1,-0.04 -0.42,-0.1 -0.52,-0.07 -0.07,0.02 -0.13,0.12 -0.13,0.19z"></path> <path class="fil1" d="M6.59 4.92c0,0.17 -0.06,0.53 0.21,0.53 0.24,0 0.18,-0.32 0.18,-0.61 0,-0.17 -0.39,-0.28 -0.39,0.08z"></path> <path class="fil1" d="M7.93 5.15c0,-0.09 -0.1,-0.18 -0.22,-0.18 -0.11,0 -0.42,0.31 -0.45,0.41 -0.04,0.12 0.1,0.29 0.27,0.23 0.06,-0.03 0.1,-0.09 0.15,-0.14 0.11,-0.11 0.25,-0.2 0.25,-0.32z"></path> <path class="fil1" d="M5.62 5.2c0,0.13 0.41,0.56 0.57,0.43 0.01,0 0.04,-0.04 0.05,-0.05 0.11,-0.17 -0.01,-0.25 -0.15,-0.38 -0.1,-0.11 -0.14,-0.2 -0.29,-0.2 -0.1,0 -0.18,0.1 -0.18,0.2z"></path> <path class="fil1" d="M7.53 6.01c0,0.07 0.09,0.17 0.18,0.17l0.53 -0.14c0.13,-0.09 0.1,-0.34 -0.1,-0.34 -0.04,0 -0.48,0.12 -0.52,0.16 -0.03,0.02 -0.09,0.1 -0.09,0.15z"></path> </g> </g> </g> </svg>