<svg xmlns="http://www.w3.org/2000/svg" id="Layer_1" data-name="Layer 1" viewBox="0 0 90 90"><defs><style>.cls-1{fill:#fff;}.cls-2{fill:#083264;}</style></defs><circle class="cls-1" cx="45" cy="45" r="45"></circle><path class="cls-2" d="M59.55,64.91a15.46,15.46,0,0,0-9.78-12.74c-.69-.3-1.4-.57-2.1-.86a.84.84,0,0,1-.55-.94,2.93,2.93,0,0,0-2.66-3.07,1.16,1.16,0,0,1-.76,0,2.88,2.88,0,0,0-2.62,2.94,1.06,1.06,0,0,1-.73,1.16L38.84,52a15.46,15.46,0,0,0-7.58,5.89A14.77,14.77,0,0,0,28.59,66a4.17,4.17,0,0,1,0,1.41A6.23,6.23,0,0,0,28.73,69a15.53,15.53,0,0,0,28.59,5.76,14.39,14.39,0,0,0,2.24-6.94c0-.79,0-1.59,0-2.39C59.55,65.27,59.57,65.09,59.55,64.91ZM44.08,48.59a.69.69,0,0,1,.71.67.7.7,0,0,1-.69.7.69.69,0,0,1-.7-.68A.66.66,0,0,1,44.08,48.59ZM54.69,64.17c-1.94,1.4-3.86,2.82-5.81,4.2a.72.72,0,0,0-.31,1c.76,2.28,1.5,4.57,2.23,6.85a1.3,1.3,0,0,1,.15.67L46.07,73.3c-.46-.33-.93-.63-1.36-1a.84.84,0,0,0-1.23,0c-1.93,1.45-3.91,2.86-5.87,4.28l-.47.32C37.77,75,38.36,73.13,39,71.3c.21-.64.38-1.28.63-1.91a.75.75,0,0,0-.33-1c-2.1-1.5-4.19-3-6.31-4.58a.89.89,0,0,1,.57-.08h7.22c.19,0,.4.08.57-.07l.11-.09a26.55,26.55,0,0,0,1.07-3.11c.54-1.59,1-3.19,1.6-4.89l1.23,3.79c.41,1.25.81,2.5,1.22,3.75.07.19.06.45.31.54h0c.18.16.38.08.58.09h7.88Z"></path><path class="cls-2" d="M43,8.13c.54,2.21,1.09,4.42,1.62,6.63Q48,29.19,51.48,43.62c.17.69.17.69-.51.87-2.09.55-4.2,1.09-6.29,1.66-.38.11-.49,0-.58-.35Q39.57,27.1,35,8.38a1.62,1.62,0,0,1,0-.22c.1-.23.31-.21.51-.21h6.86A1.08,1.08,0,0,1,43,8.13Z"></path><path class="cls-2" d="M47.79,7.84c1.16,0,2.32,0,3.48,0,.38,0,.56.06.66.48q2.39,10,4.81,20.1c1.06,4.41,2.11,8.83,3.18,13.24.09.37,0,.49-.33.58-2.22.56-4.45,1.14-6.66,1.75-.45.13-.54,0-.63-.41q-2.49-10.47-5-20.94-1.71-7.15-3.43-14.3c-.1-.42,0-.52.39-.51C45.44,7.86,46.62,7.84,47.79,7.84Z"></path><path class="cls-2" d="M56.52,7.84c1.13,0,2.25,0,3.37,0,.41,0,.55.13.65.5q2.39,9.5,4.79,19c1,4,2,8.06,3.07,12.09.1.39,0,.52-.35.61-2.25.57-4.48,1.16-6.72,1.76-.4.11-.54.07-.64-.37Q58.35,31.57,56,21.74c-1.07-4.45-2.13-8.9-3.22-13.35-.12-.47,0-.57.45-.56C54.31,7.87,55.42,7.84,56.52,7.84Z"></path><path class="cls-2" d="M34.29,8.85,37.49,22a1,1,0,0,1-.08.68q-4.26,9.45-8.49,18.9c-.14.33-.28.41-.63.3q-3.21-.94-6.42-1.84c-.26-.08-.4-.12-.26-.46Q27.9,24.33,34.14,9.06S34.2,9,34.29,8.85Z"></path><path class="cls-2" d="M37.89,23.66c.68,2.8,1.24,5.55,2,8.22a7,7,0,0,1-.33,5.05c-1,2.26-1.75,4.6-2.59,6.91-.13.35-.24.47-.65.34-2.14-.64-4.3-1.25-6.46-1.85-.31-.09-.37-.16-.23-.46q4-9,8-17.91Z"></path><path class="cls-2" d="M40.87,35.93c.32,1.34.64,2.62,1,3.9l1.38,5.69c.15.63.13.65-.46.48L38,44.65c-.26-.07-.4-.13-.27-.46,1-2.69,2-5.38,3-8.07C40.76,36.07,40.8,36,40.87,35.93Z"></path><path class="cls-2" d="M43,8.13s-.08.18-.1.12c-.1-.26-.32-.19-.5-.19H35.58a1.06,1.06,0,0,0-.58.11c-.13-.21-.11-.32.18-.32h7.49C42.89,7.84,43,7.93,43,8.13Z"></path><path class="cls-2" d="M59.56,67.84a5.66,5.66,0,0,1,0-2.39A8.7,8.7,0,0,1,59.56,67.84Z"></path><path class="cls-2" d="M28.59,66a2.07,2.07,0,0,1,0,1.41A6.65,6.65,0,0,1,28.59,66Z"></path><path class="cls-2" d="M44.46,47.3a.63.63,0,0,1-.76,0A1.4,1.4,0,0,1,44.46,47.3Z"></path><path class="cls-2" d="M41.42,63.52l-.11.09A.14.14,0,0,1,41.42,63.52Z"></path><path class="cls-2" d="M41.42,63.52l-.11.09H32.84c.09-.18.22-.11.31-.11l8.23,0Z"></path><path class="cls-2" d="M46.85,63.6c.11-.14.26-.1.4-.1H55a.28.28,0,0,1,.24.1H46.85Z"></path><path class="cls-2" d="M51.38,8H44.49V8H51.4Z"></path><ellipse class="cls-2" cx="56.62" cy="8" rx="5.05" ry="0.03"></ellipse></svg>