<svg xmlns="http://www.w3.org/2000/svg" xmlns:xlink="http://www.w3.org/1999/xlink" id="Layer_1" x="0px" y="0px" viewBox="0 0 91 91" style="enable-background:new 0 0 91 91;" xml:space="preserve"> <style type="text/css"> .st0{fill-rule:evenodd;clip-rule:evenodd;fill:#FFFFFF;} .st1{fill-rule:evenodd;clip-rule:evenodd;fill:#0B2852;} </style> <g> <circle class="st0" cx="45.5" cy="45.5" r="45.5"></circle> <g> <path class="st1" d="M79.29,47.3l-1.04-0.01c0.17-0.85,0.69-2.13,0.96-3.02c0.37-1.16,0.68-2.07,1.04-3.18 c0.34-1.04,0.66-2.03,1-3.07c0.63-1.94,0.6-1.47-0.45-2.9l-44.52-0.03c-0.01,0.71,0.22,1.83,0.29,2.62 c0.38,4.23-0.43,8.37-0.4,8.95l-1.22,3.86c-0.95,2.36-2.15,4.51-3.84,6.36c-0.86,0.95-2.46,2.23-2.7,2.59c-0.3,0-1.95,1.16-2,1.27 l49.93,0.02c0.49-0.88,1.85-5.52,2.34-6.92c0.38-1.11,0.72-2.26,1.12-3.43c0.17-0.49,0.55-1.29,0.49-1.74 C80.26,48.33,79.59,47.48,79.29,47.3L79.29,47.3z M42.51,45.61h-3.15v-8.03h1.2v6.96h1.95V45.61L42.51,45.61z M44.93,45.61h-1.2 v-8.03h1.2V45.61L44.93,45.61z M50.35,44.97c0,0.42-0.21,0.63-0.64,0.64h-2.68c-0.42,0-0.63-0.21-0.64-0.64v-6.76 c0-0.42,0.21-0.63,0.64-0.64h2.68c0.42,0,0.63,0.21,0.64,0.64v1.99h-1.2v-1.6H47.6v5.97h1.55V42.9h1.2V44.97L50.35,44.97z M55.12,45.61h-3.33v-8.03h3.3v1.06h-2.1v2.34h1.82v1.04h-1.82v2.52h2.13V45.61L55.12,45.61z M60.49,45.61h-1.05l-1.93-5.05 c0.05,0.25,0.08,0.44,0.08,0.58v4.47h-1.17v-8.03h1.05l1.93,4.95c-0.05-0.25-0.08-0.44-0.08-0.58v-4.37h1.17V45.61L60.49,45.61z M65.79,44.97c0,0.42-0.21,0.63-0.64,0.64h-2.59c-0.42,0-0.64-0.21-0.64-0.64v-2h1.2v1.63h1.47v-1.58l-2.41-2.28 c-0.17-0.17-0.26-0.38-0.26-0.64v-1.89c0-0.42,0.21-0.63,0.64-0.64h2.59c0.42,0,0.64,0.21,0.64,0.63v1.9h-1.2v-1.51h-1.47v1.46 l2.41,2.27c0.17,0.17,0.26,0.38,0.26,0.65V44.97L65.79,44.97z M70.56,45.61h-3.33v-8.03h3.3v1.06h-2.1v2.34h1.82v1.04h-1.82v2.52 h2.13V45.61L70.56,45.61z M75.87,44.1c0,0.47-0.14,0.84-0.42,1.11c-0.28,0.27-0.66,0.41-1.13,0.41h-2.45v-8.03h2.45 c0.47,0,0.85,0.14,1.13,0.41c0.28,0.27,0.42,0.64,0.42,1.11V44.1L75.87,44.1z M74.66,43.9c0,0.46-0.25,0.68-0.73,0.68h-0.86v-5.97 h0.89c0.47,0,0.7,0.22,0.7,0.67V43.9L74.66,43.9z M40,57.18h-1.2v-8.03H40V57.18L40,57.18z M45.54,57.18h-1.05l-1.93-5.05 c0.05,0.24,0.08,0.44,0.08,0.58v4.47h-1.17v-8.03h1.05l1.93,4.95c-0.05-0.25-0.08-0.44-0.08-0.58v-4.37h1.17V57.18L45.54,57.18z M50.83,56.54c0,0.42-0.21,0.63-0.64,0.64h-2.6c-0.42,0-0.64-0.21-0.64-0.64v-2h1.2v1.63h1.47V54.6l-2.41-2.28 c-0.17-0.17-0.26-0.38-0.26-0.64v-1.89c0-0.42,0.21-0.63,0.64-0.64h2.6c0.42,0,0.64,0.21,0.64,0.63v1.9h-1.2v-1.51h-1.47v1.46 l2.41,2.27c0.17,0.17,0.26,0.38,0.26,0.65V56.54L50.83,56.54z M56.29,56.54c0,0.42-0.21,0.63-0.64,0.64h-2.74 c-0.42,0-0.63-0.21-0.64-0.64v-7.39h1.2v7h1.62v-7h1.2V56.54L56.29,56.54z M61.85,57.18H60.6l-1.32-3.73c0,0,0-0.24,0-0.72h1.18 v-2.54h-1.51v7h-1.2v-8.03h3.27c0.42,0,0.64,0.21,0.64,0.64v3.11c0,0.29-0.11,0.48-0.34,0.57c-0.12,0.04-0.38,0.07-0.78,0.07 L61.85,57.18L61.85,57.18z M66.41,57.18h-3.33v-8.03h3.3v1.06h-2.1v2.34h1.82v1.04h-1.82v2.52h2.13V57.18L66.41,57.18z M71.71,55.67c0,0.47-0.14,0.84-0.42,1.11c-0.28,0.27-0.66,0.4-1.13,0.4h-2.45v-8.03h2.45c0.48,0,0.85,0.14,1.13,0.41 c0.28,0.27,0.42,0.64,0.42,1.11V55.67L71.71,55.67z M70.51,55.47c0,0.46-0.25,0.68-0.73,0.68h-0.86v-5.97h0.89 c0.47,0,0.7,0.22,0.7,0.67V55.47z"></path> <path class="st1" d="M22.31,52.35c-0.92-0.22-1.52-1.98-2.68-3.45c-0.78-0.99-2.79-2.87-2.76-3.25c0.79-2.17,4.6,1.41,5.28,1.76 c0.33-0.14,0.1,0.24,0.29-0.26c0.67-1.63,2.63-4.1,3.76-5.27c0.79-0.82,4.04-3.45,5.65-3.28c-0.06,0.48-1.03,1.29-1.33,1.59 c-1.38,1.37-3,3.19-4.07,4.71c-0.87,1.23-1.56,2.29-2.24,3.64C23.55,49.86,22.93,51.95,22.31,52.35L22.31,52.35z M22.23,30.24 c-0.86,0.33-1.95,1.08-2.86,1.56c-2.16,1.14-3.85,1.76-6.14,2.52c-0.79,0.26-3.33,0.79-3.47,0.98c-0.25,0.66-0.39,3.57-0.42,4.45 c-0.04,1.6,0.03,3.15,0.22,4.59c0.97,7.32,4.96,14.28,12.58,16.38c2.18-0.39,5.2-2.29,6.36-3.42c3.66-3.56,5.84-7.56,6.39-12.99 c0.19-1.84,0.4-7.58-0.24-9.02c-0.18-0.23-1.42-0.42-1.71-0.49C27.8,33.67,22.6,30.32,22.23,30.24z"></path> </g> </g> </svg>