<svg id="Layer_1" data-name="Layer 1" xmlns="http://www.w3.org/2000/svg" viewBox="0 0 74.49 100"><defs><style>.cls-1{fill:#083264;}</style></defs><path class="cls-1" d="M50.07,22.47a9.88,9.88,0,0,0-9.76,9.78,9.72,9.72,0,0,0,19.44,0A9.89,9.89,0,0,0,50.07,22.47ZM50,34.68a2.63,2.63,0,0,1-2.48-2.54,2.51,2.51,0,0,1,5,.07A2.63,2.63,0,0,1,50,34.68Z" transform="translate(-12.76)"/><path class="cls-1" d="M50,11.42A20.76,20.76,0,1,0,70.75,32.16,20.64,20.64,0,0,0,50,11.42Zm0,34.31A13.59,13.59,0,0,1,36.39,32.24a13.64,13.64,0,1,1,27.28,0A13.57,13.57,0,0,1,50,45.73Z" transform="translate(-12.76)"/><path class="cls-1" d="M87.24,18.74A18.65,18.65,0,0,0,80.4,3.82,14.19,14.19,0,0,0,70.62.1h-.07a5.35,5.35,0,0,1-1,0h0L69.37,0H30.69L30.5.07h0a5.33,5.33,0,0,1-1,0h-.07a13.4,13.4,0,0,0-6.55,1.55c-6.35,3.57-9.85,9-10,16.21-.22,9.43-.09,18.87,0,28.3a18,18,0,0,0,2.71,9.65,18.45,18.45,0,0,0,13.2,8.8,35.39,35.39,0,0,0,5.54.35c1.36,0,1.72.4,1.77,1.76,0,.62,0,1.24,0,1.86,0,1.67-.35,2-2,2-2.18,0-4.36,0-6.53,0a4,4,0,0,0-3.95,3.93,22.66,22.66,0,0,0,.57,5.81,25.22,25.22,0,0,0,9.29,14.71c3.82,3,8.07,4.94,13,4.84a5.37,5.37,0,0,1,1.6.1H52a5.44,5.44,0,0,1,1.61-.1,17.69,17.69,0,0,0,9.33-2.4c8.62-5,13.29-12.4,13.56-22.43.08-2.81-1.65-4.46-4.48-4.46-2.12,0-4.24,0-6.35,0-1.21,0-1.58-.42-1.64-1.59,0-.82,0-1.63,0-2.44.06-1.19.43-1.57,1.63-1.6,1.37,0,2.73-.08,4.09-.2,7.49-.64,12.75-4.46,15.93-11.19a19.71,19.71,0,0,0,1.58-8.66Q87.23,31.83,87.24,18.74ZM67.11,78.3c1.33,0,1.41.13,1.07,1.43A18,18,0,0,1,51.44,92.8c-3.35.06-6.64-.11-9.72-1.59a17.92,17.92,0,0,1-9.86-11.6c-.33-1.16-.21-1.3,1-1.31H67.11ZM43.61,65.62c0-.89.41-1.2,1.26-1.2,3.44,0,6.89,0,10.33,0,.85,0,1.27.32,1.25,1.2q0,2.14,0,4.29c0,.9-.41,1.2-1.26,1.19-1.75,0-3.5,0-5.26,0s-3.38,0-5.07,0c-.85,0-1.27-.3-1.25-1.19Q43.64,67.77,43.61,65.62ZM79.52,45.87A11,11,0,0,1,68.24,57.21q-18.21,0-36.42,0A11,11,0,0,1,20.54,45.87q0-13.71,0-27.43A10.92,10.92,0,0,1,31.78,7.21c6.08,0,12.16,0,18.25,0H68.19A10.93,10.93,0,0,1,79.52,18.54Q79.55,32.21,79.52,45.87Z" transform="translate(-12.76)"/><path class="cls-1" d="M46.51,100c0-.06,0-.11,0-.17a3.54,3.54,0,0,1,1.58.17Z" transform="translate(-12.76)"/><path class="cls-1" d="M53.56,99.83s0,.11,0,.17H52A3.54,3.54,0,0,1,53.56,99.83Z" transform="translate(-12.76)"/><path class="cls-1" d="M29.5.17l0-.17H30.7A2.6,2.6,0,0,1,29.5.17Z" transform="translate(-12.76)"/><path class="cls-1" d="M70.54,0l0,.17A2.56,2.56,0,0,1,69.37,0Z" transform="translate(-12.76)"/><path class="cls-1" d="M50.07,22.47a9.88,9.88,0,0,0-9.76,9.78,9.72,9.72,0,0,0,19.44,0A9.89,9.89,0,0,0,50.07,22.47ZM50,34.68a2.63,2.63,0,0,1-2.48-2.54,2.51,2.51,0,0,1,5,.07A2.63,2.63,0,0,1,50,34.68Z" transform="translate(-12.76)"/><path class="cls-1" d="M50,11.42A20.76,20.76,0,1,0,70.75,32.16,20.64,20.64,0,0,0,50,11.42Zm0,34.31A13.59,13.59,0,0,1,36.39,32.24a13.64,13.64,0,1,1,27.28,0A13.57,13.57,0,0,1,50,45.73Z" transform="translate(-12.76)"/><path class="cls-1" d="M50.07,22.47a9.88,9.88,0,0,0-9.76,9.78,9.72,9.72,0,0,0,19.44,0A9.89,9.89,0,0,0,50.07,22.47ZM50,34.68a2.63,2.63,0,0,1-2.48-2.54,2.51,2.51,0,0,1,5,.07A2.63,2.63,0,0,1,50,34.68Z" transform="translate(-12.76)"/><path class="cls-1" d="M50,11.42A20.76,20.76,0,1,0,70.75,32.16,20.64,20.64,0,0,0,50,11.42Zm0,34.31A13.59,13.59,0,0,1,36.39,32.24a13.64,13.64,0,1,1,27.28,0A13.57,13.57,0,0,1,50,45.73Z" transform="translate(-12.76)"/><path class="cls-1" d="M50.07,22.47a9.88,9.88,0,0,0-9.76,9.78,9.72,9.72,0,0,0,19.44,0A9.89,9.89,0,0,0,50.07,22.47ZM50,34.68a2.63,2.63,0,0,1-2.48-2.54,2.51,2.51,0,0,1,5,.07A2.63,2.63,0,0,1,50,34.68Z" transform="translate(-12.76)"/><path class="cls-1" d="M50.07,22.47a9.88,9.88,0,0,0-9.76,9.78,9.72,9.72,0,0,0,19.44,0A9.89,9.89,0,0,0,50.07,22.47ZM50,34.68a2.63,2.63,0,0,1-2.48-2.54,2.51,2.51,0,0,1,5,.07A2.63,2.63,0,0,1,50,34.68Z" transform="translate(-12.76)"/></svg>