<svg xmlns="http://www.w3.org/2000/svg" xmlns:xlink="http://www.w3.org/1999/xlink" id="Layer_1" x="0px" y="0px" viewBox="0 0 91 91" style="enable-background:new 0 0 91 91;" xml:space="preserve"> <style type="text/css"> .st0{fill-rule:evenodd;clip-rule:evenodd;fill:#FFFFFF;} .st1{fill-rule:evenodd;clip-rule:evenodd;fill:#0B2852;} </style> <g> <circle class="st0" cx="45.5" cy="45.5" r="45.5"></circle> <g> <path class="st1" d="M54.33,41.81l8.54-8.62c1.89,0.48,5.05,2.11,7.96-1.62c1.92-2.46,1.32-5.93-0.47-7.79 c-4.04-4.18-12.49-0.64-9.53,7.2l-8.65,8.69L54.33,41.81L54.33,41.81z M47.02,37.55l-3.05,0l-0.02-12.18 c-1.54-1.12-1.93-0.68-3.22-2.29c-2.79-3.48-0.55-9.54,4.77-9.56c5.15-0.02,7.58,5.89,4.78,9.56c-1.24,1.63-2.56,1.78-3.26,2.29 L47.02,37.55L47.02,37.55z M38.84,39.66l-8.7-8.66c2.88-7.85-5.29-11.38-9.38-7.31c-3.31,3.29-1.76,8.84,2.45,10.04 c2.39,0.68,3.05-0.11,4.91-0.53l8.53,8.62L38.84,39.66L38.84,39.66z M35.19,52.67l-4.57,2.72c-1.66,0.96-3.16,1.79-4.72,2.72 c-5.52-4.77-12.69,1.35-9.49,7.17c1.13,2.05,4.09,3.92,7.43,2.65c2.94-1.12,3.84-3.44,3.62-7.2c1.74-0.67,7.02-4.29,9.32-5.3 L35.19,52.67L35.19,52.67z M43.92,59.54l0.05,6.15c-1.03,0.74-4.95,1.89-4.41,6.57c0.8,6.97,11.07,6.97,11.88,0 c0.19-1.67-0.37-3.24-1.17-4.27c-1.21-1.57-1.72-1.22-3.23-2.3l-0.02-6.14L43.92,59.54L43.92,59.54z M54.2,55.44l9.33,5.3 c-0.12,2.63-0.13,5.6,3.48,7.12c3.23,1.36,6.35-0.5,7.5-2.47c3.39-5.75-3.84-12.15-9.41-7.29c-1.34-0.74-8.09-4.5-9.3-5.41 L54.2,55.44L54.2,55.44z M65.05,25.32c3.47-1.45,5.72,4.04,2.01,5.41C63.63,32,61.34,26.87,65.05,25.32L65.05,25.32z M45.5,37.45 c0.52,0,1.02,0.04,1.52,0.1c1.92,0.26,3.68,1.01,5.16,2.13c0.81,0.61,1.54,1.33,2.15,2.14l0.07,0.09L54.46,42 c1.35,1.84,2.14,4.1,2.14,6.55c0,1.47-0.29,2.87-0.8,4.15c-0.4,0.99-0.94,1.92-1.6,2.75c-1.74,2.19-4.28,3.7-7.18,4.1 c-0.5,0.07-1.01,0.11-1.53,0.11c-0.54,0-1.06-0.04-1.58-0.11c-2.89-0.41-5.42-1.93-7.14-4.12c-0.65-0.83-1.19-1.75-1.59-2.75 c-0.51-1.27-0.79-2.66-0.79-4.12c0-2.52,0.84-4.85,2.26-6.71c0.63-0.82,1.36-1.55,2.19-2.17c1.47-1.1,3.22-1.85,5.12-2.11 C44.47,37.48,44.98,37.45,45.5,37.45L45.5,37.45z M23.9,25.32c3.45-1.49,5.72,4.03,2.02,5.42C22.58,31.99,20.15,26.94,23.9,25.32 L23.9,25.32z M45.5,16.08c-1.91,0-3.46,1.55-3.46,3.46S43.59,23,45.5,23c1.91,0,3.46-1.55,3.46-3.46S47.41,16.08,45.5,16.08 L45.5,16.08z M45.5,18.06c-0.82,0-1.48,0.66-1.48,1.48s0.66,1.48,1.48,1.48s1.48-0.66,1.48-1.48S46.32,18.06,45.5,18.06z"></path> </g> </g> </svg>