<svg xmlns="http://www.w3.org/2000/svg" xmlns:xlink="http://www.w3.org/1999/xlink" id="Layer_1" x="0px" y="0px" viewBox="0 0 91 91" style="enable-background:new 0 0 91 91;" xml:space="preserve"> <style type="text/css"> .st0{fill-rule:evenodd;clip-rule:evenodd;fill:#FFFFFF;} .st1{fill-rule:evenodd;clip-rule:evenodd;fill:#0B2852;} </style> <g> <circle class="st0" cx="45.5" cy="45.5" r="45.5"></circle> <path class="st1" d="M52.4,53.87c-0.83,0.01-1.65,0-2.48,0c-0.79,0-1.42,0.28-1.82,0.67c-0.95,0.93-0.69,2.64-0.69,4.24V71.2 c0,0.65-0.07,1.81,0.07,2.39c0.15,0.66,0.59,1.16,1.04,1.43c0.69,0.42,1.31,0.36,2.19,0.36h19.84c1.22,0,2.78,0.09,3.33-1.64 c0.22-0.7,0.11-3.95,0.11-4.92l0-12.42c0-1.51-0.94-2.52-2.44-2.53c-0.84-0.01-1.69,0-2.53,0C68.96,53.36,69,49.59,69,48.74 c0-1.6-0.4-2.88-1.13-3.99c-0.67-1.03-1.51-1.83-2.7-2.44c-1.47-0.76-2.62-0.76-4.46-0.76c-1.82,0-2.95,0-4.42,0.74 c-2.43,1.23-3.87,3.62-3.87,6.41C52.42,49.53,52.47,53.38,52.4,53.87L52.4,53.87z M58.02,66.79c0.06-0.42,0.43-1.32,0.57-1.77 c0.55-1.65,0.28-0.76,0.08-1.74c-0.27-1.33,0.79-2.47,2.04-2.47c1.26,0.01,2.32,1.15,2.02,2.5c-0.09,0.39-0.31,0.54-0.19,0.89 c0.2,0.59,0.79,2.17,0.85,2.58H58.02L58.02,66.79z M41.48,18.66c-0.21,0.29-4.05,2.5-4.75,2.89c-4.7,2.65-11.44,5.63-17,6.02 c-0.1,1.35-0.01,3.06-0.01,4.45c0,1.47,0,2.94,0,4.4c0,2.23-0.08,6.79,0.06,8.76c0.52,7.33,4.04,13.24,9.11,17.41 c1.81,1.49,3.39,2.26,5.37,3.43c1.86,1.1,3.71,2.15,5.62,3.24c1.79,1.03,1.51,1.06,2.13,0.71c0.58-0.33,3.24-1.92,3.52-2l0,3.14 l-2.26,1.29c-0.94,0.56-1.5,1.09-2.49,0.52c-1.48-0.86-2.96-1.71-4.46-2.57c-2.6-1.5-6.53-3.64-8.76-5.34 c-0.37-0.28-0.64-0.54-0.98-0.8c-0.34-0.26-0.63-0.57-0.94-0.84l-1.33-1.34c-0.72-0.82-1.28-1.43-1.97-2.38 c-2.58-3.55-4.41-7.65-5.08-12.48C16.94,44.89,17,42.65,17,40.33V29.74c0-1.13-0.06-2.4,0-3.52c0.03-0.55,0.32-0.93,0.66-1.14 c0.42-0.26,0.95-0.19,1.49-0.22c4.57-0.22,9.64-2.36,13.41-4.23c2.04-1.01,4.81-2.55,6.74-3.8c0.71-0.46,1.6-1.18,2.29-1.22 c0.57,0.05,0.75,0.25,1.12,0.49c0.32,0.21,0.62,0.4,0.93,0.6c0.97,0.65,2.84,1.75,3.9,2.34c0.64,0.35,1.3,0.74,1.99,1.07 c1.54,0.75,2.53,1.28,4.19,1.99c2.98,1.27,6.4,2.44,9.71,2.71c1.06,0.09,1.95-0.11,2.47,0.65c0.39,0.57,0.24,2.02,0.24,2.82 c0,2.06,0,4.12,0,6.19c0,1.45,0.07,4.98-0.01,6.17c-0.44-0.14-0.85-0.46-2.04-0.76c-0.31-0.08-0.65-0.08-0.69-0.22l0-12.1 c-0.48-0.11-1.19-0.13-1.71-0.21c-0.56-0.09-1.08-0.18-1.64-0.3c-1.02-0.22-2.09-0.49-3.05-0.81c-4.61-1.51-9.04-3.66-13.13-6.17 C43.6,19.93,41.74,18.69,41.48,18.66L41.48,18.66z M41.31,67.82c-0.24,0-7.55-4.27-8.63-4.91c-0.59-0.35-1.08-0.68-1.61-1.06 c-0.52-0.37-1.09-0.8-1.53-1.19c-0.51-0.46-0.95-0.84-1.39-1.28c-3.16-3.25-6.29-8.41-6.51-15.06c-0.06-1.78-0.01-3.64-0.01-5.43 v-8.11c0-1.02,0-1.51,0.99-1.69c1.47-0.27,2.9-0.66,4.29-1.11c4.1-1.33,7.51-3.02,11.17-5.01c0.63-0.34,3.01-1.86,3.48-1.91 c0.53,0.03,1.23,0.58,1.64,0.82c3.66,2.18,7.25,4,11.31,5.51c7.78,2.9,7.02,0.27,7.02,5.07l0,7.19c-2.08,0-3.41-0.1-5.25,0.58 c-1.4,0.51-2.77,1.56-3.46,2.38c-2.57,3.08-2.31,5.17-2.27,9.37c-1.83,0.04-2.46,0.14-3.6,1.09c-0.91,0.76-1.4,2.05-1.4,3.29 c0,3.13,0.04,6.29,0,9.42l-2.04,1.16c-0.54,0.31-1.56,1.04-2.02,0.95l-0.12-0.05C41.34,67.83,41.32,67.83,41.31,67.82L41.31,67.82z M50.15,72.64l0.01-16.03l21.11,0l0,16.03L50.15,72.64L50.15,72.64z M55.16,53.88c-0.09-1.15-0.01-2.62-0.01-3.81 c0-1.31-0.1-2.27,0.42-3.36c0.4-0.85,1.06-1.52,1.87-1.94c1.12-0.58,1.92-0.5,3.28-0.5c1.38,0,2.19-0.08,3.31,0.52 c0.8,0.43,1.41,1.06,1.83,1.93c0.53,1.07,0.42,2.13,0.42,3.41c0,1.19,0.06,2.58-0.01,3.76L55.16,53.88z"></path> </g> </svg>