<svg xmlns="http://www.w3.org/2000/svg" xmlns:xlink="http://www.w3.org/1999/xlink" id="Layer_1" x="0px" y="0px" viewBox="0 0 91 91" style="enable-background:new 0 0 91 91;" xml:space="preserve"> <style type="text/css"> .st0{fill-rule:evenodd;clip-rule:evenodd;fill:#FFFFFF;} .st1{fill-rule:evenodd;clip-rule:evenodd;fill:#0B2852;} </style> <g> <circle class="st0" cx="45.5" cy="45.5" r="45.5"></circle> <path class="st1" d="M38.9,36.34l-0.01,6.08c-1.34,0.14-2.07-0.17-3.37,0.93c-0.62,0.52-1.12,1.44-1.12,2.53v10.41 c0,2.08,1.65,3.36,3.65,3.36l21.16,0c2.15,0,3.54-1.62,3.54-3.76l0-9.67c0-2.11-1.43-3.77-3.61-3.76 c-1.02,0.01-0.89,0.13-0.89-0.74v-5.04c0-1.25-0.43-2.67-0.9-3.77c-0.86-2.02-2.7-3.82-4.68-4.74c-2.99-1.39-6.67-1.15-9.44,0.66 c-0.5,0.33-0.9,0.72-1.31,1.04C40.33,31.1,38.9,34.18,38.9,36.34L38.9,36.34z M14.33,25.02v-1.75c3.86,0,8.3,0.58,9.68,4.73 c0.03,0.1,0.71,2.12,0.82,2.21c0.34,0.13,2.85,0.25,3.47,0.26c0.63,0.02,1.05,0.14,1.68,0.14c0.62,0,1.13,0.08,1.73,0.14 c0.91,0.09,6.46,0.37,6.77,0.56l-0.56,1.21c-0.06,0.16-0.4,1.24-0.51,1.31c-0.19,0.14-1.93-0.08-2.39-0.1 c-0.41-0.01-0.87-0.01-1.28-0.04c-0.37-0.03-0.45-0.16-1.22-0.11l-0.01,3.79c0.34,0.03,4.27-0.08,4.43,0.07 c0.11,0.1,0.12,1.19-0.01,1.31c-0.21,0.19-3.31,0-4.08,0.05l-0.31,0.07c-0.11,0.36-0.1,4.33,0.01,4.63l0.23,0.05 c0.16,0.03,0.04-0.03,0.22,0.05c0.02,0.35-0.46,1.28-0.5,1.54c-0.01,0.09,0,0.3,0,0.41l0,8.87c0,1.98,0.25,0.92-1.6,3.29 c-0.88,1.13-1.96,2.69-2.38,4.13c-0.12,0.41-0.26,0.94-0.06,1.36c0.24,0.53,0.73,0.5,0.92,0.77c-0.21,0.47-0.56,0.37-1.39,2.26 c-0.98-0.19-2.07-1.55-2.25-2.53c-0.18-0.95-0.11-1.15,0.01-2.08c0.03-0.22,0.17-0.69,0.26-0.95c0.41-1.24,1.34-2.78,2.09-3.81 c0.37-0.5,0.66-0.91,1.02-1.33c0.18-0.22,0.32-0.4,0.54-0.67c0.21-0.25,0.36-0.37,0.56-0.64c-0.07-0.35-0.27-0.87-0.41-1.19 c-0.3-0.7-0.93-2.79-1.3-3.75c-0.15-0.41-0.27-0.75-0.42-1.19c-0.31-0.88-0.53-1.69-0.87-2.49c-0.16-0.37-0.3-0.85-0.44-1.25 l-1.49-4.28c-0.25-0.61-0.4-1.23-0.65-1.92c-0.15-0.41-0.34-0.82-0.46-1.19c-0.27-0.8-0.54-1.73-0.85-2.53 c-0.32-0.8-0.6-1.68-0.85-2.45l-1.72-4.91c-0.11-0.12-1.04-0.28-1.43-0.34c-0.49-0.07-0.99-0.22-1.37-0.3l-1.47-0.23 C13.92,25.74,14.9,25.28,14.33,25.02L14.33,25.02z M74.59,35.87c-0.19,0.15-0.16,0.34-0.22,0.66c-0.04,0.22-0.11,0.49-0.17,0.69 c-0.13,0.44-0.24,1.02-0.34,1.49c-0.2,0.99-0.44,1.89-0.71,2.91c-0.45,1.69-0.95,4.01-1.36,5.84c-0.22,0.96-0.47,1.9-0.7,2.85 c-0.93,3.94-0.48,4.13-3.02,4.2c-0.6,0.02-1.22,0-1.81,0.02c-0.49,0.02-1.21,0.12-1.7,0.12c-0.07-2.62-0.01-5.89,0-8.63 c0-0.51-0.01-0.86-0.14-1.26c-0.07-0.21-0.15-0.4-0.19-0.53c-0.08-0.25-0.17-0.4-0.21-0.57l0.11-0.05c0.3-0.12,0.33,0.11,0.32-0.83 c-0.01-0.91,0.06-3.45-0.03-4c-1.1-0.12-3.51,0.16-4.37-0.06c-0.14-2.02-0.4-1.17,4.35-1.36l0.02-1.1c-0.02-0.39,0-0.41-0.58-0.44 l-3.87-0.33c-0.09-0.48-0.15-0.9-0.26-1.35c-0.09-0.36-0.36-1.06-0.31-1.38c1.49,0,6.09,0.43,7.85,0.57 c1.32,0.1,2.54,0.2,3.98,0.26c3.93,0.18,2.54,0.61,3.36,0.88V35.87L74.59,35.87z M41.73,42.39c-0.08-1.52-0.01-3.24-0.01-4.78 c0-1.51,0.18-2.83,0.84-3.94c3.01-5.15,9.76-4.28,11.99,0.06c0.65,1.27,0.82,2.25,0.82,3.95c0,1.53,0.06,3.19-0.01,4.72 L41.73,42.39L41.73,42.39z M38.04,66.91l22.31,0.03c0.21-0.58,0.07-0.56,0.49-1.49c0.19-0.42,0.69-0.87,0.74-1.24l-24.82,0 c0.06,0.28,0.6,0.8,1.03,1.95C37.87,66.38,37.9,66.7,38.04,66.91L38.04,66.91z M29.69,71.57c-0.01-0.02-0.18-0.03,0.08-0.26 c0.01,0.02,0.05,0.14,0.05,0.16c0.05,0.1,0.03,0.08,0.08,0.14l6.05,0l0.09-0.18c0.01-0.01,0.02-0.03,0.04-0.04l0.08-0.09 c0.23-0.34-1.22-0.22-1.68-0.21l-0.52-0.03c-0.01,0-0.04,0-0.06-0.02c-0.01-0.02-0.04-0.02-0.05-0.03l0.3-0.14 c1.45-0.57,2.36-2.1,2.11-3.61c-0.12-0.7-0.59-1.61-1.07-2c-3.2-2.65-7.26,1.29-4.99,4.45c0.17,0.24,0.54,0.61,0.77,0.78 c0.41,0.31,0.9,0.42,1.05,0.52c-0.16,0.1-0.26,0.09-0.29,0.09c-0.32,0.03-1.55-0.07-2.13,0.02L29.69,71.57L29.69,71.57z M62.19,71.32c0.39,0.16,0.05,0.09,0.24,0.23c0.21,0.15,4.98,0.08,5.64,0.07c0.36-0.01,0.28-0.04,0.41-0.18l0.2-0.16l-0.03-0.18 l-1.87,0c-0.12,0-0.22,0.01-0.33-0.01c-0.2-0.04-0.09,0-0.21-0.08c0.02-0.01,0.04-0.02,0.05-0.02l0.1-0.04 c1.59-0.58,2.53-1.8,2.33-3.7c-0.32-3.03-4.76-4.01-6.28-1.05c-0.23,0.44-0.32,0.57-0.35,1.18c-0.02,0.46-0.03,1.06,0.13,1.41 c0.17,0.38,0.29,0.7,0.54,1c1,1.18,1.59,1.04,1.87,1.22c-0.32,0.2-1.94,0.06-2.46,0.09C62.13,71.28,62.18,71.3,62.19,71.32 L62.19,71.32z M46.2,49.64c0-0.98-0.02-1.57,0.51-2.21c1.46-1.79,4.16-0.71,4.16,1.41v0.54c0,2.46-0.98,1.79-0.98,2.75 c0,1.21,0.48,3.59-1.5,3.45c-1.8-0.13-1.07-2.59-1.23-3.64C47.08,51.44,46.2,51.32,46.2,49.64L46.2,49.64z M69.89,43.53 c0.11-0.37,0.15-0.79,0.26-1.18c0.09-0.31,0.21-0.75,0.3-1.14c0.13-0.5,0.55-1.95,0.5-2.44l-5.07-0.01 c-0.15,0.94-0.04,3.3-0.04,4.36c0,0.6,0.19,0.41,1.83,0.41C68.37,43.54,69.2,43.58,69.89,43.53L69.89,43.53z M27.89,37.4l3.2,0 c0.07-1,0.03-2.33,0.03-3.34c0-0.85,0.01-0.65-0.88-0.67c-0.47-0.01-1.05,0.03-1.48-0.07c-0.53-0.13-2.31-0.24-2.91-0.22 c0.03,0.31,1.01,3.14,1.18,3.58C27.28,37.34,27.07,37.4,27.89,37.4L27.89,37.4z M65.85,49.07l2.68,0.02 c0.22-0.36,0.43-1.53,0.56-2.05c0.11-0.46,0.48-1.72,0.44-2.16l-3.65-0.01L65.85,49.07L65.85,49.07z M29.51,43.54 c0.15,0,1.48,0.05,1.57-0.06c0.14-0.39,0.07-3.98,0.03-4.66l-3.25-0.02c0,0.58,0.93,2.88,1.18,3.58l0.31,0.9 c0.05,0.1,0.01,0.04,0.07,0.13C29.49,43.53,29.43,43.45,29.51,43.54L29.51,43.54z M69.27,64.21c0.06,0.37,0.62,0.71,1.07,2.04 c0.25,0.74-0.14,0.71,0.89,0.69c0.95-0.02,1.74-0.52,1.62-1.58C72.67,63.82,70.42,64.18,69.27,64.21L69.27,64.21z M65.85,37.34 l5.47,0.03c0.12-0.27,0.23-0.66,0.17-1.02c-0.48-0.03-0.96-0.04-1.41-0.07c-0.57-0.04-0.09-0.09-1.34-0.13 c-0.82-0.02-2.15-0.26-2.89-0.15L65.85,37.34L65.85,37.34z M65.88,51.83c0.94,0.01,1.01-0.05,1.59-0.07 c0.22-0.01,0.41,0.01,0.5-0.11c0.07-0.21,0.21-0.94,0.2-1.17l-2.27,0L65.88,51.83L65.88,51.83z M31.05,48.1 c0.2-0.33,0.07-1.66,0.07-2.16c0-1.33,0.2-1.07-1.14-1.07c-0.02,0.44,0.68,2.11,0.91,2.85c0.02,0.05,0.05,0.18,0.07,0.22 C31.01,48.08,30.93,47.99,31.05,48.1z"></path> </g> </svg>