<svg xmlns="http://www.w3.org/2000/svg" xmlns:xlink="http://www.w3.org/1999/xlink" xml:space="preserve" width="91px" height="91px" style="shape-rendering:geometricPrecision; text-rendering:geometricPrecision; image-rendering:optimizeQuality; fill-rule:evenodd; clip-rule:evenodd" viewBox="0 0 3.91 3.91"> <defs> <style type="text/css"> .fil1 {fill:#083264} .fil0 {fill:white} </style> </defs> <g id="Layer_x0020_1"> <metadata id="CorelCorpID_0Corel-Layer"></metadata> <g id="_1718355072032"> <circle class="fil0" cx="1.95" cy="1.95" r="1.95"></circle> <path class="fil1" d="M3.01 1.73l-0.22 0 0.01 0.27c0,0.41 -0.39,0.8 -0.8,0.8l-0.09 0c-0.42,0 -0.8,-0.39 -0.8,-0.8 0,-0.38 0.15,-0.65 0.46,-0.81 0.29,-0.14 0.61,-0.11 0.87,0.07 0.05,0.03 0.07,0.05 0.11,0.08l-0.18 0.19 0.55 0 0 -0.54 -0.22 0.21c-0.06,-0.09 -0.18,-0.16 -0.28,-0.21 -0.59,-0.3 -1.35,0.04 -1.51,0.7 -0.03,0.13 -0.04,0.27 -0.02,0.42 0.02,0.15 0.07,0.26 0.13,0.37 0.22,0.43 0.81,0.67 1.31,0.48 0.44,-0.17 0.68,-0.54 0.7,-1.01 0,-0.05 -0.02,-0.16 -0.02,-0.22zm-1.17 0.11c-0.38,0 -0.33,-0.05 -0.33,0.19 0,0.03 0.02,0.04 0.05,0.04l0.47 0c0.03,0 0.04,-0.01 0.04,-0.04l0 -0.72 -0.23 0 0 0.53z"></path> </g> </g> </svg>