<svg xmlns="http://www.w3.org/2000/svg" xmlns:xlink="http://www.w3.org/1999/xlink" xml:space="preserve" width="91px" height="91px" style="shape-rendering:geometricPrecision; text-rendering:geometricPrecision; image-rendering:optimizeQuality; fill-rule:evenodd; clip-rule:evenodd" viewBox="0 0 11.15 11.15"> <defs> <style type="text/css"> .fil1 {fill:#083264} .fil0 {fill:white} </style> </defs> <g id="Layer_x0020_1"> <metadata id="CorelCorpID_0Corel-Layer"></metadata> <g id="_1718129265232"> <circle class="fil0" cx="5.57" cy="5.57" r="5.57"></circle> <g> <path class="fil1" d="M5.58 7.47c-1.08,-0.03 -1.89,-0.85 -1.89,-1.9 0,-0.28 0.06,-0.54 0.16,-0.77 0.19,-0.41 0.53,-0.77 0.95,-0.95 0.25,-0.11 0.46,-0.16 0.78,-0.17 1.75,0.05 2.48,2.08 1.33,3.23 -0.3,0.3 -0.72,0.54 -1.33,0.56zm-0.57 -4.44c-0.08,0 -0.29,0.07 -0.36,0.1 -0.16,0.06 -0.26,0.1 -0.39,0.18 -0.08,0.05 -0.07,0.06 -0.11,0.05 -0.02,0 -0.02,0 -0.04,-0.01 -0.07,-0.04 -0.38,-0.18 -0.43,-0.18 -0.06,0 -0.2,0.16 -0.27,0.23 -0.3,0.3 -0.28,0.21 -0.14,0.52 0.03,0.08 0.06,0.17 0.1,0.24 -0.13,0.19 -0.24,0.45 -0.31,0.68 -0.01,0.03 -0.01,0.05 -0.02,0.09 -0.03,0.13 -0.04,0.09 -0.4,0.23 -0.05,0.02 -0.13,0.03 -0.13,0.12l0 0.59c0,0.09 0.11,0.11 0.23,0.16l0.29 0.11c0,0.19 0.23,0.67 0.34,0.85 -0.03,0.05 -0.2,0.43 -0.2,0.48 0,0.06 0.07,0.1 0.1,0.14 0.41,0.41 0.33,0.41 0.57,0.31 0.06,-0.02 0.3,-0.14 0.33,-0.14 0.01,0.01 0.14,0.08 0.15,0.09 0.13,0.08 0.54,0.25 0.69,0.25l0.16 0.42c0.02,0.05 0.03,0.1 0.11,0.1l0.59 0c0.1,0 0.13,-0.15 0.19,-0.31l0.06 -0.17c0.03,-0.05 0.09,-0.04 0.19,-0.07 0.25,-0.08 0.48,-0.18 0.68,-0.31 0.05,0.03 0.43,0.2 0.48,0.2 0.06,0 0.1,-0.07 0.14,-0.1l0.26 -0.26c0.17,-0.17 0.12,-0.13 0.02,-0.4 -0.08,-0.17 -0.13,-0.21 -0.09,-0.27 0.13,-0.2 0.21,-0.4 0.28,-0.63 0.02,-0.04 0.02,-0.08 0.04,-0.13 0.01,-0.06 0.02,-0.06 0.08,-0.08l0.36 -0.14c0.05,-0.02 0.08,-0.04 0.08,-0.1l0 -0.59c0,-0.1 -0.16,-0.13 -0.31,-0.19 -0.34,-0.14 -0.09,0.03 -0.37,-0.6 -0.2,-0.44 -0.22,-0.2 -0.08,-0.56 0.11,-0.27 0.16,-0.23 0,-0.39 -0.45,-0.44 -0.33,-0.42 -0.65,-0.27 -0.08,0.03 -0.17,0.06 -0.24,0.1 -0.2,-0.13 -0.42,-0.23 -0.67,-0.31 -0.22,-0.06 -0.16,0.02 -0.26,-0.23 -0.06,-0.16 -0.09,-0.32 -0.19,-0.32l-0.59 0c-0.09,0 -0.11,0.11 -0.16,0.23 -0.02,0.05 -0.03,0.09 -0.05,0.14 -0.02,0.05 -0.05,0.1 -0.06,0.15zm0.57 -0.33l-0.24 0c-0.02,0.07 -0.15,0.45 -0.2,0.48 -0.01,0.01 -0.35,0.09 -0.5,0.16 -0.09,0.04 -0.16,0.07 -0.24,0.12 -0.04,0.02 -0.18,0.11 -0.21,0.12 -0.07,0 -0.38,-0.17 -0.48,-0.2l-0.32 0.33c0.02,0.09 0.2,0.41 0.18,0.49 0,0.02 -0.1,0.17 -0.12,0.21 -0.04,0.07 -0.07,0.15 -0.11,0.23 -0.25,0.58 0.06,0.47 -0.64,0.7l0 0.47c0.08,0.02 0.45,0.15 0.48,0.2 0.02,0.02 0.1,0.44 0.28,0.74 0.02,0.03 0.11,0.18 0.12,0.21 0,0.07 -0.17,0.39 -0.2,0.48l0.33 0.32c0.1,-0.02 0.41,-0.2 0.49,-0.18 0.02,0 0.17,0.1 0.21,0.12 0.07,0.04 0.14,0.07 0.23,0.11 0.16,0.07 0.48,0.14 0.51,0.16 0.04,0.04 0.17,0.4 0.19,0.48l0.24 0 0.21 0c0.06,-0.04 0.14,-0.41 0.2,-0.47 0.02,-0.02 0.45,-0.14 0.52,-0.17 0.07,-0.03 0.15,-0.07 0.22,-0.11 0.06,-0.03 0.19,-0.12 0.22,-0.12 0.08,-0.02 0.4,0.15 0.49,0.18l0.33 -0.32c-0.03,-0.09 -0.2,-0.41 -0.2,-0.48l0.24 -0.44c0.03,-0.09 0.06,-0.17 0.09,-0.25 0.01,-0.05 0.05,-0.24 0.07,-0.26 0.03,-0.05 0.4,-0.18 0.48,-0.2l0 -0.47c-0.07,-0.02 -0.45,-0.16 -0.48,-0.19 0,0 -0.13,-0.45 -0.16,-0.52 -0.04,-0.07 -0.07,-0.15 -0.11,-0.22 -0.03,-0.05 -0.12,-0.18 -0.12,-0.22 -0.02,-0.07 0.16,-0.38 0.19,-0.48l-0.33 -0.33c-0.09,0.03 -0.41,0.2 -0.48,0.2 -0.04,-0.01 -0.16,-0.1 -0.21,-0.12 -0.07,-0.04 -0.16,-0.08 -0.23,-0.12 -0.07,-0.03 -0.51,-0.16 -0.52,-0.16 -0.07,-0.06 -0.14,-0.44 -0.21,-0.48l-0.21 0z"></path> <path class="fil0" d="M5.57 5.77c-0.11,0.06 -0.2,0.22 -0.29,0.26l-0.46 -0.47c-0.11,-0.1 -0.17,-0.2 -0.27,-0.16 -0.06,0.01 -0.1,0.07 -0.07,0.15 0.01,0.05 0.58,0.6 0.69,0.71 0.04,0.03 0.07,0.09 0.16,0.07 0.05,-0.02 0.22,-0.19 0.24,-0.23 0.06,-0.04 0.22,-0.21 0.28,-0.27 0.09,-0.09 0.18,-0.2 0.27,-0.28l0.14 -0.14c0.07,-0.07 0.39,-0.39 0.41,-0.43 0.03,-0.09 -0.02,-0.16 -0.1,-0.16 -0.09,-0.01 -0.14,0.06 -0.18,0.1 -0.1,0.11 -0.79,0.8 -0.82,0.85z"></path> </g> </g> </g> </svg>