<svg xmlns="http://www.w3.org/2000/svg" xmlns:xlink="http://www.w3.org/1999/xlink" id="Layer_1" x="0px" y="0px" viewBox="0 0 91 91" style="enable-background:new 0 0 91 91;" xml:space="preserve"> <style type="text/css"> .st0{fill-rule:evenodd;clip-rule:evenodd;fill:#FFFFFF;} .st1{fill-rule:evenodd;clip-rule:evenodd;fill:#0B2852;} </style> <g> <circle class="st0" cx="45.5" cy="45.5" r="45.5"></circle> <path class="st1" d="M23.65,57.92c6.93,0.34,4.2-0.58,6.73,3.93c0.69,1.22,1.71,2.28,2.29,3.34c-0.47,1.49-1.97,3.2-2.06,4.62 c1.09,1.38,5.8,4.4,8.19,4.57l2.69-4.19c6.33,0.62,2.23,0.39,7.92,0.05c1.07,1.05,1.63,2.83,2.77,4.05 c2.49,0.06,7.05-3.27,8.25-4.48c-0.12-1.22-1.68-3.18-2.13-4.62c0.55-1,1.54-2.04,2.21-3.19c0.83-1.41,1.1-2.54,1.75-3.74 c0.43-0.02,4.71-0.08,5.04-0.45c0.44-1.15,0.61-3.1,0.51-4.51l-44.65-0.08C23.07,54.52,23.3,56.95,23.65,57.92L23.65,57.92z M44.03,16.8c-2.19,0.42-3.84,1.59-4.47,3.47c-0.46,1.38-0.05,2.34-0.27,3.59c-0.1,0.57-2.4,3.37,0.39,5.57 c1.13,0.9,2.68,5.63,7.3,4.22c2.53-0.77,3.25-3.23,3.93-3.92c0.64-0.66,2.15-1.12,1.65-3.97c-0.18-1.06-0.43-0.79-0.69-1.35 c-0.92-1.92,0.86-3.64-1.76-6.08C48.61,16.91,46.55,16.32,44.03,16.8L44.03,16.8z M31.83,49.71c0.08-1.76,0.46-3.43,0.74-5.16 c0.23-1.41,0.51-3.32,0.8-4.81c0.36-1.88,1.5-2.12,2.98-2.85c1.03-0.51,2.72-1.56,3.84-1.86c0.6,0.86,1.37,3.25,1.78,4.37 c0.3,0.8,0.53,1.43,0.81,2.2c0.77,2.08,0.42,1.65,1.13,1.94c0.68-3.06,0.82-3.98,0.36-6.32l2.46,0.01 c-0.4,1.77-0.46,1.35-0.14,3.24l0.4,2.47c0.24,0.72,0.11,0.33,0.47,0.64l3.36-8.57c1.17,0.37,2.71,1.31,3.87,1.86 c1.42,0.68,2.62,1.13,2.93,2.74l1.54,10.13L31.83,49.71L31.83,49.71z M12.57,49.41c0.67,0.61,8.44,0.35,9.84,0.35l7.45,0 c0.37-3.27,1.07-6.03,1.44-9.03c0.13-1.08,0.47-2.03,0.63-3.06c-1.32-0.33-2.32-0.88-3.3-1.79c-1.32-1.23,0.19-1.8,0.98-3.2 c1.12-2,1.84-1.11,2.08-3.03c0.37-2.96-0.77-1.48-0.8-4.4c-0.07-7.82-10.22-6.76-11.36-1.96c-0.21,0.88-0.09,1.57-0.11,2.43 c-0.04,1.65-0.17,0.69-0.68,1.81c-1.15,2.47,0.97,3.83,3.1,6.63c0.8,1.06,0.37,1.59-1.76,2.81c-2.54,1.46-5.91,1.75-6.36,3.8 C13.41,42.13,11.79,48.61,12.57,49.41L12.57,49.41z M59.05,37.66l2.14,12.02c2.02,0.25,16.33,0.35,17.31-0.2 c0.61-1.12-0.9-7.06-1.19-8.52c-0.47-2.34-3.41-2.26-6.39-3.98c-3.78-2.17-1.75-2.39-0.71-4.1c1.23-2.02,3.08-2.56,2.13-5.17 c-0.4-1.1-0.67-0.27-0.77-1.75c-0.06-0.92,0.12-1.68-0.11-2.66c-1.2-5.07-11.25-5.36-11.36,1.48c-0.07,4.2-0.98,1.28-0.83,4.4 c0.12,2.42,1.09,1.69,2.03,3.35c1.22,2.16,2.31,2.01,1.2,3.23C61.72,36.6,60.09,37.44,59.05,37.66z"></path> </g> </svg>