<svg xmlns="http://www.w3.org/2000/svg" xmlns:xlink="http://www.w3.org/1999/xlink" id="Layer_1" x="0px" y="0px" viewBox="0 0 91 91" style="enable-background:new 0 0 91 91;" xml:space="preserve"> <style type="text/css"> .st0{fill-rule:evenodd;clip-rule:evenodd;fill:#FFFFFF;} .st1{fill-rule:evenodd;clip-rule:evenodd;fill:#0B2852;} </style> <g> <circle class="st0" cx="45.5" cy="45.5" r="45.5"></circle> <path class="st1" d="M20.8,25.08c-0.08,3.34,0.03,6.86,0.39,10.18c0.66,6.1,0.28,3.39-2.01,7.8c-5.36,10.33,0.23,23.8,12.36,26.48 c4.48,0.99,2.76-0.8,6.89,3.63c1.77,1.9,3.59,3.27,6.08,4.82c3.97,2.46,4.01,1.21,9.61-2.9c1.32-0.97,1.68-1.54,2.79-2.65 c4.1-4.12,6.19-6.43,9.22-12.21c5.3-10.1,8.1-22.02,7.68-35.15c-9.52-0.62-14.81-1.98-21.82-7.22c-3.96-2.96-2.69-3.42-4.68-5.13 c-2.26,1.94-2.12,4.56-10.46,8.77C32.23,23.84,26.57,24.77,20.8,25.08L20.8,25.08z M45.72,40.2c3.23-3.26,4.12-6.63,7.37-6.76 c1.2-0.05,3.06-0.27,3.89,0.51c1.82,1.71-1.51,4.87-2.39,6.05c-4.64,6.18-5.08,5.33-4.35,8.6c0.85,3.83-0.02,7.98-2.11,11.06 c-10.4,15.32-33.06,2.42-26.39-13.7c3.05-7.38,10.9-11,18.17-8.78C42.76,38.06,43.94,39.49,45.72,40.2L45.72,40.2z M34.65,55.86 c0.6-0.62,1.49-1.77,2.24-2.7c0.69-0.84,1.44-1.68,2.14-2.59l13.08-15.55l3.78,0.02c0.02,1.03-0.26,1.08-0.97,2 c-3.06,4-18.4,24.92-19.95,25.91L23.64,52.5c0.43-1.45,0.62-1.31,1.68-2.22c0.77-0.66,1.1-1.05,2.03-1.76 c1.32,0.76,2.86,2.65,3.7,3.73C31.65,53.04,33.99,55.51,34.65,55.86z"></path> </g> </svg>