<svg xmlns="http://www.w3.org/2000/svg" xmlns:xlink="http://www.w3.org/1999/xlink" id="Layer_1" x="0px" y="0px" viewBox="0 0 91 91" style="enable-background:new 0 0 91 91;" xml:space="preserve"> <style type="text/css"> .st0{fill-rule:evenodd;clip-rule:evenodd;fill:#FFFFFF;} .st1{fill-rule:evenodd;clip-rule:evenodd;fill:#0B2852;} </style> <g> <circle class="st0" cx="45.5" cy="45.5" r="45.5"></circle> <path class="st1" d="M37.67,68.82l28.22,0.03c0.2-2.66,0.42-5.4,0.61-8.13c0.79-11.83,2.99-10.51-14.88-10.51c-2.9,0-5.81,0-8.71,0 c-2.88-0.01-5.6-0.28-6.37,2.43C36.12,54.13,37.38,66.42,37.67,68.82L37.67,68.82z M15.64,28.32c0,2.47,0.01,4.95,0,7.42 c-0.01,6.63,3.43,7.66,7.96,10.89c0.64,0.46,1.72,1.27,2.36,1.51c2.08-1.77,6.92-4.15,8.48-6.44c1.3-1.92,1.62-3.22,1.61-5.96 c0-2.47,0.09-5.12-0.01-7.57c-0.81-0.56-1.31-0.3-2.2-1.2c-0.79-0.79-0.75-1.19-1.23-2.31L19.1,24.64 c-0.48,1.44-0.83,2.38-2.25,3.04C15.67,28.23,15.92,27.77,15.64,28.32L15.64,28.32z M38.24,38.71c2.82-1.09,2.5-1.24,5.99-2.21 c4.69-1.31,10.08-1.33,14.79-0.04c2.43,0.66,4.06,1.47,6.12,2.27c-0.06-6.54-6.06-16.6-13.39-16.65c-3.84-0.03-7.33,2.79-9.4,5.69 C40.68,30.1,38.06,34.86,38.24,38.71L38.24,38.71z M62.28,49.13c0.17-0.49,0.51-0.72,0.83-1.18c0.85-1.21,1.73-3.25,2.07-3.63 c0.98-0.01,3.42,1,4.09,1.46c3.45,2.37,3.56,6.77,4.6,11.68c0.44,2.06,2.03,7.35,1.33,9.13c-0.47,1.21-1.58,2.15-3.16,2.25 c-1,0.07-4.51,0.11-5.38-0.05l1.08-12.22c0.18-2.11,0.7-3.96-0.42-5.71C66.25,49.21,64.84,49.09,62.28,49.13L62.28,49.13z M36.62,68.87c-3.49-0.08-7.45,0.85-8.51-2.5c-0.53-1.67,1-7.09,1.42-9.03c0.47-2.19,1.3-7.17,2.11-8.88 c1.19-2.51,3.92-3.91,6.54-4.37c0.52,0.64,1.19,2.77,2.81,4.85c-1.07,0.22-2.02-0.07-3.11,0.34c-3.32,1.23-2.5,4.92-2.31,7.18 C35.91,60.56,36.42,64.81,36.62,68.87L36.62,68.87z M38.22,39.89c1.19-0.58,3.32-1.63,4.74-1.95c-0.27,5.35,3.43,9.49,8.65,9.5 c5.05,0.01,8.94-3.99,8.69-9.5c1.77,0.46,3.25,1.35,4.71,1.93c-0.11,1.79-0.82,3.83-1.59,5.25c-0.63,1.16-2.01,3.31-2.81,3.89 c-5.26,0.07-10.58,0-15.85,0c-2.1,0-2.32,0.61-4.58-3.27C39.26,44.16,38.36,41.99,38.22,39.89L38.22,39.89z M44.19,37.61 c7.31-1.51,7.93-1.16,14.86-0.02c0.28,2.93-0.27,4.53-1.75,6.26c-2.65,3.1-8.15,3.45-11.41-0.1 C44.32,42.05,43.95,40.42,44.19,37.61L44.19,37.61z M22.72,33.4c0.12-1.35-0.07-2.41,0.65-3.35c1.28-1.69,3.72-1.74,5.02,0.08 c0.77,1.07,0.44,1.88,0.59,3.27c3.03,0.34,2.35,1.64,2.36,5.92c0.01,3.28-1.87,2.57-5.57,2.57c-3.79,0-5.42,0.68-5.42-2.71 c0-1.07-0.12-3.16,0.03-4.12C20.58,33.79,21.37,33.51,22.72,33.4L22.72,33.4z M23.97,33.41c-0.25-1.77,0.12-3.47,1.94-3.43 c1.75,0.03,2.02,1.66,1.81,3.45L23.97,33.41L23.97,33.41z M25.51,39.41c-0.22-0.63-0.09-0.61-0.15-1.25 c-0.09-0.93-0.14-0.32-0.46-1c-0.36-0.77,0.17-1.5,1-1.46c0.83,0.04,1.25,0.85,0.83,1.56c-0.36,0.62-0.36,0.04-0.42,1.03 c-0.03,0.47,0.01,0.76-0.15,1.14L25.51,39.41z"></path> </g> </svg>