<svg xmlns="http://www.w3.org/2000/svg" xmlns:xlink="http://www.w3.org/1999/xlink" xml:space="preserve" width="91px" height="91px" style="shape-rendering:geometricPrecision; text-rendering:geometricPrecision; image-rendering:optimizeQuality; fill-rule:evenodd; clip-rule:evenodd" viewBox="0 0 3.91 3.91"> <defs> <style type="text/css"> .fil1 {fill:#083264} .fil0 {fill:white} </style> </defs> <g id="Layer_x0020_1"> <metadata id="CorelCorpID_0Corel-Layer"></metadata> <g id="_1754031048592"> <circle class="fil0" cx="1.95" cy="1.95" r="1.95"></circle> <g> <path class="fil1" d="M1.21 2.28c0,0.18 0.06,0.34 0.16,0.47 0.04,0.05 0.06,0.06 0.09,0.09 0.02,0.02 0.04,0.03 0.06,0.05 0.09,0.06 0.21,0.11 0.32,0.13 0.09,0.01 0.17,0.01 0.26,-0.01 0.22,-0.04 0.42,-0.19 0.52,-0.4 0.08,-0.15 0.1,-0.34 0.05,-0.51 -0.01,-0.05 -0.03,-0.11 -0.04,-0.13l-1.35 0 -0.05 0.14c-0.01,0.05 -0.02,0.11 -0.02,0.17z"></path> <path class="fil1" d="M1.72 1.14c0.07,0 0.1,0.04 0.17,-0.03 0.02,-0.02 0.05,-0.04 0.06,-0.07 0.03,0.03 0.07,0.11 0.13,0.11 0.04,0 0.07,-0.01 0.1,-0.01 0,0.15 0.02,0.31 -0.12,0.41 -0.03,0.02 -0.07,0.04 -0.11,0.04 -0.02,0 -0.09,-0.05 -0.11,-0.06 -0.01,-0.01 -0.01,-0.01 -0.02,-0.02 -0.02,-0.01 -0.05,-0.06 -0.06,-0.07 -0.04,-0.08 -0.04,-0.14 -0.04,-0.22 0,-0.03 0,-0.05 0,-0.08zm0.2 -0.26l0.07 0c0.11,0.01 0.21,0.04 0.35,0.1 0.06,0.03 0.11,0.05 0.16,0.07 0.18,0.08 0.44,0.21 0.54,0.38 0.06,0.08 0.04,0.09 0.06,0.17l-0.37 0 0 0.21 -1.56 0 0 -0.21 -0.36 0c0,-0.13 0.07,-0.22 0.16,-0.3 0.13,-0.12 0.44,-0.26 0.59,-0.32 0.14,-0.06 0.25,-0.09 0.36,-0.1z"></path> </g> </g> </g> </svg>