<svg xmlns="http://www.w3.org/2000/svg" xmlns:xlink="http://www.w3.org/1999/xlink" xml:space="preserve" width="91px" height="91px" style="shape-rendering:geometricPrecision; text-rendering:geometricPrecision; image-rendering:optimizeQuality; fill-rule:evenodd; clip-rule:evenodd" viewBox="0 0 3.91 3.91"> <defs> <style type="text/css"> .fil1 {fill:#083264} .fil0 {fill:white} </style> </defs> <g id="Layer_x0020_1"> <metadata id="CorelCorpID_0Corel-Layer"></metadata> <g id="_1718363049856"> <circle class="fil0" cx="1.95" cy="1.95" r="1.95"></circle> <g> <path class="fil1" d="M2.04 1.06l-0.34 0c-0.02,0 -0.02,0 -0.02,0.01l0 0.16c0,0.01 0,0.01 0.02,0.01l1.05 0 0 0.89 -1.05 0c-0.02,0 -0.02,0 -0.02,0.02 0,0.2 -0.03,0.16 0.16,0.16 -0.01,0.02 -0.02,0.06 -0.02,0.08l-0.1 0.38c-0.02,0.08 -0.06,0.18 -0.01,0.23 0.04,0.04 0.11,0.04 0.14,-0.01 0.02,-0.04 0.11,-0.42 0.13,-0.48 0,-0.04 0.04,-0.17 0.04,-0.2l0.22 0 0.05 0.19c0.01,0.06 0.11,0.46 0.12,0.48 0.06,0.09 0.17,0.03 0.17,-0.04 0,-0.02 -0.07,-0.28 -0.07,-0.31 -0.01,-0.03 -0.08,-0.29 -0.08,-0.32l0.39 0c0.07,0 0.12,-0.03 0.12,-0.09l0 -1.07c0,-0.05 -0.04,-0.09 -0.09,-0.09l-0.63 0c0,-0.12 -0.18,-0.12 -0.18,0z"></path> <path class="fil1" d="M0.97 1.77l0 1.16c0,0.09 0.12,0.13 0.17,0.06 0.02,-0.03 0.02,-0.05 0.02,-0.09 0,-0.03 0,-0.08 0.01,-0.1 0,-0.02 0,-0.03 0,-0.05 0,-0.1 0.02,-0.21 0.02,-0.31 0,-0.03 0,-0.03 0,-0.05 0.01,-0.05 0.01,-0.08 0.05,-0.08 0.06,0 0.04,0.11 0.05,0.18l0.02 0.31c0,0.02 0.01,0.07 0.01,0.1 0,0.04 0,0.06 0.02,0.09 0.03,0.05 0.13,0.05 0.16,-0.02 0.01,-0.03 0.01,-0.07 0.01,-0.11 0,-0.13 -0.01,-0.99 0,-1.02 0.01,-0.03 0.03,-0.05 0.06,-0.06 0.03,-0.01 0.34,0 0.39,0 0.09,0 0.17,0.01 0.17,-0.11 0,-0.05 -0.05,-0.08 -0.11,-0.08l-0.84 0c-0.12,0 -0.21,0.07 -0.21,0.18z"></path> <path class="fil1" d="M0.97 1.14c0,0.16 0.12,0.28 0.27,0.28 0.23,0 0.36,-0.29 0.19,-0.46 -0.18,-0.18 -0.46,-0.03 -0.46,0.18z"></path> </g> </g> </g> </svg>