<svg xmlns="http://www.w3.org/2000/svg" xmlns:xlink="http://www.w3.org/1999/xlink" xml:space="preserve" width="91px" height="91px" style="shape-rendering:geometricPrecision; text-rendering:geometricPrecision; image-rendering:optimizeQuality; fill-rule:evenodd; clip-rule:evenodd" viewBox="0 0 8.01 8.01"> <defs> <style type="text/css"> .fil1 {fill:#083264} .fil0 {fill:white} </style> </defs> <g id="Layer_x0020_1"> <metadata id="CorelCorpID_0Corel-Layer"></metadata> <g id="_1718266220112"> <circle class="fil0" cx="4.01" cy="4.01" r="4.01"></circle> <path class="fil1" d="M4.73 4.61c0,-0.06 0.03,-0.09 0.07,-0.09 0.02,0 0.09,0.03 0.11,0.04l0.2 0.09c0.12,0.06 0.29,0.13 0.41,0.19 0.12,0.06 0.06,0.16 -0.02,0.16 -0.03,0 -0.07,-0.03 -0.1,-0.04 -0.03,-0.02 -0.07,-0.03 -0.1,-0.04 -0.07,-0.04 -0.13,-0.07 -0.2,-0.1l-0.31 -0.13c-0.03,-0.02 -0.06,-0.04 -0.06,-0.08zm-1.77 -1.85c0.01,0.02 0.02,0.02 0.04,0.03 0.06,0.04 0.1,0.04 0.16,0.07 0.06,0.03 0.16,0.06 0.23,0.08 0.46,0.12 0.76,0.12 1.22,0 0.08,-0.01 0.16,-0.04 0.23,-0.07l0.21 -0.09c-0.01,-0.04 -0.19,-0.1 -0.23,-0.11 -0.04,-0.02 -0.07,-0.03 -0.12,-0.05 -0.26,-0.07 -0.47,-0.11 -0.74,-0.11 -0.15,0 -0.4,0.04 -0.54,0.08l-0.34 0.12c-0.03,0.01 -0.09,0.04 -0.12,0.05zm0.81 -0.66c0,-0.24 0.26,-0.31 0.39,-0.19 0.14,0.14 0.09,0.33 -0.06,0.4 -0.16,0.07 -0.33,-0.06 -0.33,-0.21zm-0.89 0.47c0,0.12 0.01,0.08 0.03,0.15l0.23 -0.1c0.24,-0.1 0.42,-0.13 0.67,-0.16 0.27,-0.04 0.54,0.01 0.8,0.07 0.15,0.04 0.23,0.08 0.37,0.13 0.04,0.02 0.08,0.04 0.13,0.05 0.08,-0.16 -0.02,-0.35 -0.12,-0.46l-0.12 -0.12c-0.06,-0.06 -0.21,-0.14 -0.29,-0.18 -0.44,-0.22 -0.89,-0.18 -1.31,0.09 -0.06,0.04 -0.13,0.09 -0.19,0.14 -0.08,0.08 -0.2,0.25 -0.2,0.39zm0.2 0.54c-0.11,0.06 -0.09,0.2 -0.09,0.31 0,0.27 0.25,0.5 0.27,0.56 0.04,0.12 0.01,0.06 0.08,0.19l0.08 0.13c0.11,0.14 0.28,0.27 0.46,0.31 0.29,0.06 0.54,-0.1 0.71,-0.3 0.14,-0.17 0.15,-0.33 0.19,-0.38 0.12,-0.13 0.25,-0.33 0.25,-0.53 0,-0.11 0.01,-0.23 -0.1,-0.29l0 -0.17c-0.03,0.01 -0.06,0.02 -0.1,0.04l-0.32 0.09c-0.19,0.05 -0.32,0.05 -0.5,0.06 -0.23,0.01 -0.72,-0.09 -0.93,-0.19l0 0.17zm-0.58 1.89c-0.06,0 -0.13,-0.1 -0.02,-0.16l0.31 -0.14c0.07,-0.04 0.14,-0.06 0.21,-0.09 0.12,-0.06 0.22,-0.13 0.27,-0.06 0.03,0.03 0.03,0.1 -0.05,0.13 -0.19,0.08 -0.41,0.19 -0.61,0.28 -0.03,0.01 -0.07,0.04 -0.11,0.04zm-0.62 0.86c0,0.07 0.11,0.09 0.19,0.12 0.33,0.11 0.69,0.16 1.04,0.19 0.14,0.01 0.3,0.03 0.43,0.03 0.05,0 0.11,0 0.16,0 0.05,0 0.08,0.01 0.14,0.01l0.43 0c0.05,0 0.08,-0.01 0.14,-0.01 0.09,0 0.2,0 0.28,-0.01 0.09,-0.01 0.18,-0.01 0.27,-0.02 0.24,-0.03 0.39,-0.04 0.64,-0.1 0.17,-0.04 0.28,-0.06 0.46,-0.13 0.08,-0.04 0.07,-0.04 0.07,-0.13 0,-0.22 -0.07,-0.43 -0.13,-0.59 -0.1,-0.23 -0.22,-0.37 -0.4,-0.51 -0.05,-0.03 -0.17,-0.09 -0.24,-0.12 -0.04,-0.02 -0.08,-0.04 -0.12,-0.06 -0.03,-0.01 -0.04,-0.01 -0.07,-0.02l-0.45 -0.19c-0.05,0.1 -0.06,0.04 -0.14,0.23l-0.12 0.28c-0.01,0.04 -0.03,0.07 -0.04,0.11 -0.01,0.03 -0.08,0.2 -0.1,0.21 0,-0.02 -0.06,-0.08 -0.07,-0.1 -0.05,-0.06 -0.21,-0.28 -0.25,-0.3 -0.02,0.01 -0.06,0.07 -0.07,0.09l-0.16 0.21c-0.04,0.04 -0.06,0.09 -0.09,0.1 0,-0.04 -0.03,-0.08 -0.04,-0.11 -0.04,-0.09 -0.24,-0.58 -0.28,-0.63 -0.02,-0.03 -0.04,-0.06 -0.06,-0.09 -0.1,0.02 -0.41,0.17 -0.53,0.22 -0.08,0.03 -0.16,0.07 -0.25,0.11 -0.05,0.02 -0.17,0.11 -0.22,0.15 -0.06,0.06 -0.12,0.13 -0.17,0.2 -0.15,0.23 -0.25,0.57 -0.25,0.86z"></path> </g> </g> </svg>