<svg xmlns="http://www.w3.org/2000/svg" xmlns:xlink="http://www.w3.org/1999/xlink" xml:space="preserve" width="91px" height="91px" style="shape-rendering:geometricPrecision; text-rendering:geometricPrecision; image-rendering:optimizeQuality; fill-rule:evenodd; clip-rule:evenodd" viewBox="0 0 9.3 9.3"> <defs> <style type="text/css"> .fil1 {fill:#083264} .fil0 {fill:white} </style> </defs> <g id="Layer_x0020_1"> <metadata id="CorelCorpID_0Corel-Layer"></metadata> <g id="_1718115919216"> <circle class="fil0" cx="4.65" cy="4.65" r="4.65"></circle> <path class="fil1" d="M3.81 5.88c-0.11,0 -0.19,-0.08 -0.19,-0.18 0,-0.17 0.19,-0.25 0.31,-0.14 0.12,0.1 0.05,0.32 -0.12,0.32zm1.42 -1.99l0 0.04c0,0.06 0.04,0.11 0.09,0.13l0 -0.32c-0.06,0.01 -0.09,0.07 -0.09,0.15zm1.22 0.17c0.13,-0.04 0.13,-0.29 0,-0.32l0 0.32zm-0.57 0.89c0.02,-0.02 0.19,-0.29 0.19,-0.34 -0.09,0.05 -0.28,0.05 -0.37,0 0,0.04 0.06,0.13 0.09,0.17 0.02,0.04 0.08,0.13 0.09,0.17zm0.66 2.26l0.2 0 0 -0.76 -0.2 0 0 0.76zm-1.51 0l0.2 0 0 -0.76 -0.2 0 0 0.76zm0.75 -0.73l0 0.73 0.21 0 0 -0.76 -0.17 0c-0.03,0 -0.04,0 -0.04,0.03zm-2.26 -3.16c0,0.27 0.28,0.38 0.48,0.22 0.11,-0.09 0.13,-0.3 0,-0.42 -0.2,-0.18 -0.48,-0.03 -0.48,0.2zm1.98 0.77c0,0.2 0.19,0.37 0.35,0.37 0.12,0 0.23,-0.01 0.31,-0.11 0.05,-0.06 0.11,-0.15 0.11,-0.25l0 -0.4 -0.77 0 0 0.39zm-1.04 1.8l2.84 0 0 -0.2 -2.84 0 0 0.2zm0.95 -2.37l0.95 0c0.07,0 0.15,0.03 0.19,0.06 0,-0.42 -0.28,-0.72 -0.63,-0.72 -0.25,0 -0.44,0.08 -0.58,0.28 -0.05,0.08 -0.1,0.18 -0.11,0.29 -0.03,0.25 -0.01,0.09 0.18,0.09zm-0.57 1.72l0 0.26 2.09 0c0,-0.35 0.05,-0.48 -0.27,-0.59 -0.08,-0.02 -0.15,-0.05 -0.22,-0.07 -0.07,-0.02 -0.16,-0.06 -0.23,-0.08 -0.05,0.09 -0.11,0.18 -0.16,0.27 -0.03,0.05 -0.14,0.25 -0.17,0.27 -0.03,-0.06 -0.3,-0.49 -0.31,-0.54 -0.07,0.02 -0.16,0.06 -0.23,0.08 -0.11,0.04 -0.35,0.1 -0.42,0.17 -0.05,0.06 -0.08,0.13 -0.08,0.23zm-1.04 -1.44c-0.12,0 -0.23,-0.05 -0.31,-0.13 -0.04,-0.03 -0.08,-0.07 -0.1,-0.12 -0.1,-0.19 -0.06,-0.44 0.1,-0.57 0.09,-0.07 0.22,-0.13 0.33,-0.12 0.06,0 0.13,0.02 0.18,0.04 0.11,0.05 0.17,0.12 0.23,0.23 0.09,0.16 0.04,0.43 -0.12,0.56 -0.09,0.07 -0.19,0.11 -0.31,0.11zm-0.51 -1.16l-0.18 0.17c0.11,0.2 0.11,0.19 0.07,0.29 -0.01,0.04 -0.01,0.03 -0.05,0.05 -0.04,0.01 -0.14,0.05 -0.18,0.05l0 0.26c0.06,0.01 0.12,0.03 0.17,0.05 0.04,0.01 0.04,0 0.06,0.04 0.05,0.11 0.03,0.11 -0.07,0.29l0.17 0.18c0.15,-0.04 0.15,-0.13 0.26,-0.08 0.13,0.05 0.06,0.07 0.14,0.25l0.25 0c0.01,-0.06 0.04,-0.12 0.05,-0.17 0.02,-0.06 0.05,-0.08 0.14,-0.1 0.28,0.19 0.21,0.04 0.38,-0.07l-0.1 -0.19c-0.01,-0.03 0,-0.02 0.01,-0.06 0.03,-0.08 0.02,-0.07 0.1,-0.1 0.04,-0.01 0.1,-0.04 0.15,-0.04l0 -0.26c-0.05,0 -0.12,-0.03 -0.17,-0.05 -0.04,-0.01 -0.04,-0.01 -0.06,-0.04 -0.05,-0.11 -0.03,-0.12 0.07,-0.3l-0.17 -0.17c-0.14,0.04 -0.16,0.12 -0.26,0.08 -0.08,-0.03 -0.07,-0.02 -0.09,-0.1 -0.02,-0.05 -0.04,-0.1 -0.05,-0.15l-0.25 0c-0.02,0.04 -0.03,0.09 -0.04,0.14 -0.03,0.08 -0.01,0.07 -0.09,0.11 -0.13,0.05 -0.11,-0.04 -0.26,-0.08zm1.37 4.57l0.19 0 0 -0.94 0.56 0 0 0.94 0.19 0 0 -0.94 0.57 0 0 0.94 0.19 0 0 -0.94 0.56 0 0 0.94 0.2 0 0 -1.14 -2.46 0 0 1.14zm-1.77 -4.44l0.36 -0.35 0.22 0.1c0.01,-0.03 0.07,-0.19 0.07,-0.23l0.52 0c0.01,0.03 0.07,0.2 0.07,0.23l0.23 -0.1 0.36 0.35 -0.11 0.22 0.23 0.08 0 0.52 -0.23 0.07 0.11 0.23 -0.36 0.35c-0.07,-0.02 -0.16,-0.09 -0.23,-0.1l-0.07 0.23 -0.52 0c0,-0.08 -0.06,-0.15 -0.06,-0.23 -0.07,0.01 -0.15,0.08 -0.23,0.1l-0.36 -0.36 0.11 -0.22 -0.23 -0.07 0 -0.52 0.23 -0.07 -0.11 -0.23zm-0.89 1.79l1.7 0 0 0.77c-0.11,0.01 -0.28,0.18 -0.28,0.35 0,0.23 0.19,0.39 0.35,0.39 0.12,0 0.22,-0.02 0.31,-0.11 0.21,-0.23 0.08,-0.57 -0.17,-0.63l0 -0.77 1.6 0c0,-0.08 -0.01,-0.05 -0.05,-0.11 -0.08,-0.09 -0.09,-0.17 -0.12,-0.18 -0.06,-0.04 -0.31,-0.06 -0.31,-0.45 0,-0.19 0,-0.35 0.04,-0.53 0.05,-0.21 0.22,-0.42 0.41,-0.52 0.04,-0.01 0.12,-0.03 0.12,-0.07l0 -0.6 -3.6 0 0 2.46z"></path> </g> </g> </svg>