<svg xmlns="http://www.w3.org/2000/svg" id="Layer_1" data-name="Layer 1" viewBox="0 0 91 91"><defs><style>.cls-1{fill:#fff;}.cls-2{fill:#083264;}</style></defs><circle class="cls-1" cx="45.5" cy="45.5" r="45.5"></circle><path class="cls-2" d="M18.7,35.45v6.24c0,2.47,0,5,0,7.42,0,.44-.08.65-.57.59s-1.32.25-1.65-.14S16.4,48.5,16.4,48c0-4.56,0-9.11,0-13.66,0-.44.07-.65.56-.59s1.32-.24,1.65.14S18.69,34.89,18.7,35.45Z" transform="translate(0.04 0)"></path><path class="cls-2" d="M23.25,41.68c0,1.19,0,1.19-1.18,1.18S21,42.86,21,41.71s0-1.16,1.15-1.16S23.25,40.55,23.25,41.68Z" transform="translate(0.04 0)"></path><path class="cls-2" d="M23.25,37.21c0,1.08,0,1.08-1.09,1.08S21,38.29,21,37.11,21,36,22.1,36,23.25,36,23.25,37.21Z" transform="translate(0.04 0)"></path><path class="cls-2" d="M22.1,45.12c1.15,0,1.15,0,1.15,1.15v.07c0,1.09,0,1.09-1.09,1.09S21,47.43,21,46.24,21,45.12,22.1,45.12Z" transform="translate(0.04 0)"></path><path class="cls-2" d="M29.92,76.57c0,1.5,0,3,0,4.5,0,.48-.14.61-.59.57a7.94,7.94,0,0,0-1.29,0c-.33,0-.42-.1-.41-.42,0-1,0-2.06,0-3.09s0-1.93,0-2.9c0-.32,0-.49.42-.46.59,0,1.36-.2,1.73.1S29.92,76,29.92,76.57Z" transform="translate(0.04 0)"></path><path class="cls-2" d="M62.21,76.57c0,1.52,0,3,0,4.56,0,.42-.12.54-.52.51a10.29,10.29,0,0,0-1.36,0c-.32,0-.43-.08-.42-.41,0-1,0-2,0-3s0-2,0-3c0-.33.1-.43.42-.41.59,0,1.37-.2,1.74.1S62.2,76,62.21,76.57Z" transform="translate(0.04 0)"></path><path class="cls-2" d="M66.61,41.75c0-1.2,0-1.2,1.18-1.2s1.1,0,1.1,1.09,0,1.22-1.2,1.22S66.61,42.86,66.61,41.75Z" transform="translate(0.04 0)"></path><path class="cls-2" d="M67.8,45.12c1.09,0,1.09,0,1.09,1.15s0,1.16-1.15,1.16-1.12,0-1.12-1.12S66.62,45.12,67.8,45.12Z" transform="translate(0.04 0)"></path><path class="cls-2" d="M66.62,37.21c0-1.22,0-1.22,1.21-1.22,1.06,0,1.06,0,1.06,1.06v.06c0,1.18,0,1.18-1.18,1.18S66.62,38.29,66.62,37.21Z" transform="translate(0.04 0)"></path><path class="cls-2" d="M69,80.83c-.3-2-.55-3.92-.86-5.87a10.11,10.11,0,0,0-.83-3.59A9.15,9.15,0,0,0,61,67.11c-.62-.29-1.31-.13-1.93-.33l-8.21-2.62c-.14,0-.28-.06-.35-.21a1.84,1.84,0,0,1,.36-1.58,9.64,9.64,0,0,0,2.66-3.79h0a6.74,6.74,0,0,0,.73-2.22,10.64,10.64,0,0,0,0-5.08,10,10,0,0,0-1.55-3.93c-3.48-5.56-10.65-6.1-14.78-1A11.54,11.54,0,0,0,36.05,58a9.55,9.55,0,0,0,3.11,4.52,1.16,1.16,0,0,1-.36,1.8c-1.42.4-2.84.82-4.22,1.36a7.7,7.7,0,0,0-1.25.34,17.85,17.85,0,0,1-3,.88,11.17,11.17,0,0,0-5.24,1.85,6.58,6.58,0,0,0-3.14,4.92c-.23,2.06-.6,4.11-.88,6.17-.08.54-.43,1.25-.12,1.59s1,.2,1.57.34.62-.14.68-.56c.21-1.52.42-3,.65-4.58a26.59,26.59,0,0,1,.61-3.64.69.69,0,0,0,.25-.62A1.39,1.39,0,0,1,25,71.8a7.7,7.7,0,0,1,4.74-2.56,37.51,37.51,0,0,0,6.09-1.74,5.66,5.66,0,0,0,1.5-.46.84.84,0,0,0,.48-.16,6.21,6.21,0,0,0,1.47-.43.47.47,0,0,1,.65.23,6.25,6.25,0,0,0,10,0,.45.45,0,0,1,.65-.21c2,.64,3.92,1.26,5.88,1.88a13.07,13.07,0,0,0,2.54.73,12.37,12.37,0,0,1,3.46.86l.63.38a4.7,4.7,0,0,1,2.57,3.49c.25,2.1.6,4.2.89,6.3.23,1.7.21,1.68,1.92,1.45C69,81.5,69.06,81.31,69,80.83ZM49.44,60.39l-.06,0a3.53,3.53,0,0,1-.32.21,6,6,0,0,1-6.25,1.21c-.24-.08-.48-.25-.76-.09h0a.25.25,0,0,0,0-.12,2.1,2.1,0,0,0-.62-.49,7.54,7.54,0,0,1-1.93-1.89,9.4,9.4,0,0,1,1.25-12.33,5.86,5.86,0,0,1,6.32-1.25c3,1.18,4.4,3.62,5,6.66a21.37,21.37,0,0,0,.24,2.26h0v0l0,0,0,0v0l0,0c-.38.31-.24.75-.3,1.13-.09,0,0,.11.09.17a.07.07,0,0,0,0,.06l-.1,0a.9.9,0,0,0-.2.82l.05.06a.39.39,0,0,0-.11.32h0a.38.38,0,0,0-.26.25,9,9,0,0,1-1.78,2.66A.65.65,0,0,1,49.44,60.39ZM47.7,65.87h0a4.63,4.63,0,0,1-3.55,1h0l-.75-.23h0L42.27,66a.13.13,0,0,0-.1,0,.06.06,0,0,0,0-.08,2.37,2.37,0,0,1-.49-1.4c0-.37.14-.39.44-.28a3.65,3.65,0,0,0,1.41.34,7.2,7.2,0,0,0,4-.26l.07,0c.55,0,.55.32.45.74-.07.26-.34.46-.28.76Z" transform="translate(0.04 0)"></path><path class="cls-2" d="M71.17,48c0-2.13,0-4.25,0-6.37,0-2.45,0-4.9,0-7.35,0-.47.11-.62.58-.58s1.27-.17,1.61.11.11,1,.11,1.59c0,4.55,0,9.11,0,13.66,0,.51-.12.7-.64.64s-1.25.17-1.55-.1S71.18,48.55,71.17,48Z" transform="translate(0.04 0)"></path><path class="cls-2" d="M41.52,18.8c0,1.2,0,1.2-1.17,1.2s-1.13,0-1.13-1.12,0-1.16,1.2-1.16S41.52,17.72,41.52,18.8Z" transform="translate(0.04 0)"></path><path class="cls-2" d="M46.09,18.91c0,1.08,0,1.08-1.16,1.08s-1.15,0-1.15-1.15,0-1.12,1.13-1.12S46.09,17.72,46.09,18.91Z" transform="translate(0.04 0)"></path><path class="cls-2" d="M50.65,18.89c0,1.11,0,1.11-1.14,1.11s-1.16,0-1.16-1.15,0-1.13,1.11-1.13S50.65,17.72,50.65,18.89Z" transform="translate(0.04 0)"></path><path class="cls-2" d="M79.9,52a2.94,2.94,0,0,0-1.44-.87.58.58,0,0,1-.44-.61q0-8.85,0-17.7a.48.48,0,0,1,.4-.55,4.5,4.5,0,0,0,3-4.19,4.55,4.55,0,0,0-7.75-3.35.59.59,0,0,1-.79.15q-4.69-2.2-9.41-4.37l-5.27-2.41c-.69-.21-.8-.69-.76-1.36.06-1.06,0-2.14,0-3.21a4.92,4.92,0,0,0-4.94-5q-7.59,0-15.2,0a4.91,4.91,0,0,0-5,5c0,1.23,0,2.47,0,3.7a.57.57,0,0,1-.35.63c-1.28.56-2.54,1.15-3.81,1.75l-5.75,2.71L17,24.86c-.18.08-.35.22-.58.17a4.5,4.5,0,0,0-5-1.32A4.61,4.61,0,0,0,8.4,28a4.5,4.5,0,0,0,2.9,4.27.68.68,0,0,1,.54.78q0,8.69,0,17.38a.69.69,0,0,1-.54.78,4.4,4.4,0,0,0-2.82,4.7,4.5,4.5,0,0,0,6.85,3.44.64.64,0,0,1,.89.06c2.28,1.8,4.58,3.56,6.86,5.36.3.24.45.23.67-.08a13,13,0,0,1,.9-1.17c.21-.25.14-.36-.08-.53-.65-.47-1.27-1-1.91-1.47l-4.89-3.75c-.15-.26-.48-.33-.6-.61a4.45,4.45,0,0,0-2.52-6,.71.71,0,0,1-.52-.8q0-8.69,0-17.38a.65.65,0,0,1,.5-.75,4,4,0,0,0,2.28-2,4,4,0,0,0,.61-2.64A.53.53,0,0,1,17.9,27c.77-.32,1.53-.69,2.29-1.06,1.54-.75,3.14-1.39,4.66-2.21.2-.08.42-.15.62-.24l4.4-2c.32.21.43,0,.51-.26s.16-.1.26-.1c.35.2.5,0,.6-.29a.73.73,0,0,1,.5-.21c.46.08.49.44.5.79s.12.73,0,.89-.07.39-.08.58c-.16.08-.32.18-.48.25C28.23,24.72,24.8,26.32,21.38,28c-.44.21-1.16.29-1.24.68s.37.91.53,1.39.49.68,1,.34c.08-.05.18-.08.28-.13q5.16-2.43,10.32-4.88c.37-.17.53-.15.73.24a4,4,0,0,0,3.09,2.31,25.35,25.35,0,0,0,4.69.08,1.89,1.89,0,0,1,2,1.07c.63,1.12,1.41,2.15,2.17,3.27.91-1.36,1.77-2.63,2.62-3.93A.75.75,0,0,1,48.3,28c1.55,0,3.1,0,4.64,0a4.16,4.16,0,0,0,3.79-2.14c.32-.57.57-.74,1.12-.43.29.15.57.32.87.46l9.33,4.39c.84.4.84.41,1.24-.47a3.11,3.11,0,0,1,.29-.61c.36-.5.15-.71-.34-.93-1.14-.49-2.24-1-3.36-1.56L59,23.51l-1.37-.71a6.8,6.8,0,0,1,.22-2.33,9.77,9.77,0,0,0,1.64.76c.05.36.24.38.51.22.09,0,.2.05.29.09l11.59,5.39a.66.66,0,0,1,.47.77,4.45,4.45,0,0,0,3,4.56.55.55,0,0,1,.41.63q0,8.79,0,17.56c0,.36-.07.59-.42.7A4.45,4.45,0,0,0,72.6,56.9a.73.73,0,0,1-.27,1c-1.64,1.4-3.26,2.84-4.88,4.27-.43.38-1.18.7-1.17,1.17s.68.86,1,1.31.45.31.76,0c1.92-1.72,3.87-3.4,5.8-5.1.28-.24.49-.38.89-.14a4.24,4.24,0,0,0,2.62.53,4.64,4.64,0,0,0,3.86-3.13A4.46,4.46,0,0,0,79.9,52ZM15,56a1.1,1.1,0,0,0-.09.51.46.46,0,0,0-.2.14,2.51,2.51,0,0,1-1.27.9.2.2,0,0,0-.16.2h-.57a5.88,5.88,0,0,0-1.47-.87l0,0h0l0,0a1.57,1.57,0,0,0-.36-.77c0-.28,0-.56,0-.85a2.13,2.13,0,0,1,2.49-1.87A2.17,2.17,0,0,1,15,56ZM13,30.27a2.28,2.28,0,1,1,0-4.55,2.28,2.28,0,1,1,0,4.55Zm42.2-7.35A3.46,3.46,0,0,1,55,24.31a2.08,2.08,0,0,1-2.06,1.38c-1.9,0-3.8,0-5.7,0a1,1,0,0,0-1,.55c-.33.55-.72,1.09-1.09,1.62-.17.23-.31.27-.49,0-.31-.56-.71-1.06-1-1.61a1,1,0,0,0-.95-.51c-1.85,0-3.71,0-5.56,0a2.21,2.21,0,0,1-2.42-2.37c0-1.43,0-2.85,0-4.27V13.73a2.67,2.67,0,0,1,2.85-2.87H45c2.39,0,4.79,0,7.18,0a2.85,2.85,0,0,1,3.08,3.05C55.13,16.89,55.19,19.91,55.19,22.92Zm23.6,31.59a2,2,0,0,1-.12,2,2.07,2.07,0,0,1-3.11.51A2,2,0,0,1,75.39,54c.13-.16.36-.29.32-.55v0h.06l0,0a5.35,5.35,0,0,1,2.07.09c.15,0,.32-.06.38.15s.14.22.27.14h0C78.48,54.07,78.7,54.27,78.79,54.51ZM76.86,25.72A2.26,2.26,0,0,1,79.16,28a2.29,2.29,0,0,1-2.27,2.29,2.28,2.28,0,0,1,0-4.55Z" transform="translate(0.04 0)"></path><path class="cls-2" d="M41.52,18.8c0,1.2,0,1.2-1.17,1.2s-1.13,0-1.13-1.12,0-1.16,1.2-1.16S41.52,17.72,41.52,18.8Z" transform="translate(0.04 0)"></path><path class="cls-2" d="M46.09,18.91c0,1.08,0,1.08-1.16,1.08s-1.15,0-1.15-1.15,0-1.12,1.13-1.12S46.09,17.72,46.09,18.91Z" transform="translate(0.04 0)"></path><path class="cls-2" d="M50.65,18.89c0,1.11,0,1.11-1.14,1.11s-1.16,0-1.16-1.15,0-1.13,1.11-1.13S50.65,17.72,50.65,18.89Z" transform="translate(0.04 0)"></path><path class="cls-2" d="M59,23.51l-1.37-.71a5.67,5.67,0,0,1,.11-2.39h.12c.66,0,.65,0,.39-.76a3,3,0,0,0-.5-1.13c.11-.25.58,0,.5-.42-.69-.21-.8-.69-.76-1.36.06-1.06,0-2.14,0-3.21a4.92,4.92,0,0,0-4.94-5q-7.59,0-15.2,0a4.91,4.91,0,0,0-5,5c0,1.23,0,2.47,0,3.7a.57.57,0,0,1-.35.63c-1.28.56-2.54,1.15-3.81,1.75l-5.75,2.71c-.12.15-.25.33,0,.44a2.17,2.17,0,0,1,.82.8.9.9,0,0,0,1,.26,5.69,5.69,0,0,1,.59-.16c.2-.08.42-.15.62-.24l4.4-2a.81.81,0,0,0,.51-.26c.05-.14.16-.1.26-.1s.47-.05.6-.29a.73.73,0,0,1,.5-.21c.21,0,.51-.19.53.16a4.16,4.16,0,0,1-.14,2.1c-.16.08-.32.18-.48.25C28.23,24.72,24.8,26.32,21.38,28c-.44.21-1.16.29-1.24.68s.37.91.53,1.39.49.68,1,.34c.08-.05.18-.08.28-.13q5.16-2.43,10.32-4.88c.37-.17.53-.15.73.24a4,4,0,0,0,3.09,2.31,25.35,25.35,0,0,0,4.69.08,1.89,1.89,0,0,1,2,1.07c.63,1.12,1.41,2.15,2.17,3.27.91-1.36,1.77-2.63,2.62-3.93A.75.75,0,0,1,48.3,28c1.55,0,3.1,0,4.64,0a4.16,4.16,0,0,0,3.79-2.14c.32-.57.57-.74,1.12-.43a4,4,0,0,0,.49,0c.35,0,.74.07.91-.41C59.52,24.26,59.46,23.85,59,23.51Zm-3.8-.59A3.46,3.46,0,0,1,55,24.31a2.08,2.08,0,0,1-2.06,1.38c-1.9,0-3.8,0-5.7,0a1,1,0,0,0-1,.55c-.33.55-.72,1.09-1.09,1.62-.17.23-.31.27-.49,0-.31-.56-.71-1.06-1-1.61a1,1,0,0,0-.95-.51c-1.85,0-3.71,0-5.56,0a2.21,2.21,0,0,1-2.42-2.37c0-1.43,0-2.85,0-4.27V13.73a2.67,2.67,0,0,1,2.85-2.87H45c2.39,0,4.79,0,7.18,0a2.85,2.85,0,0,1,3.08,3.05C55.13,16.89,55.19,19.91,55.19,22.92Z" transform="translate(0.04 0)"></path><path class="cls-2" d="M14.65,51.16a.71.71,0,0,1-.52-.8q0-8.69,0-17.38a.65.65,0,0,1,.5-.75,4,4,0,0,0,2.28-2c.07-.4.37-.78.29-1.17a16,16,0,0,1-.1-3c0-.53-.14-.91-.69-1a4.5,4.5,0,0,0-5-1.32A4.61,4.61,0,0,0,8.4,28a4.5,4.5,0,0,0,2.9,4.27.68.68,0,0,1,.54.78q0,8.69,0,17.38a.69.69,0,0,1-.54.78,4.4,4.4,0,0,0-2.82,4.7c.1.39.4.41.71.43a1.87,1.87,0,0,1,1,.15c.54.31.62.31.71-.25,0,0,0-.08,0-.13h0c0-.28,0-.56,0-.85a2.13,2.13,0,0,1,2.49-1.87A2.17,2.17,0,0,1,15,56a1.1,1.1,0,0,0-.09.51v0a.34.34,0,0,0,0,.1h0c.08.7.42,1.18.89,1.27.66.13,1-.08,1.36-.75A4.45,4.45,0,0,0,14.65,51.16ZM10.71,28A2.26,2.26,0,0,1,13,25.72a2.28,2.28,0,1,1,0,4.55A2.28,2.28,0,0,1,10.71,28Z" transform="translate(0.04 0)"></path><path class="cls-2" d="M78.43,32.28a4.5,4.5,0,0,0,3-4.19,4.55,4.55,0,0,0-7.75-3.35.59.59,0,0,1-.79.15q-4.69-2.2-9.41-4.37l-5.27-2.41c-.08.19-.17.19-.37.11s-.46.22-.34.32c.4.36.34.91.61,1.27s.1.52-.28.56a.05.05,0,0,0,0,0s0,0,0,0a.09.09,0,0,0,0,0,9.77,9.77,0,0,0,1.64.76c.13.16.33.17.51.22s.2.05.29.09l11.59,5.39a.66.66,0,0,1,.47.77,4.45,4.45,0,0,0,3,4.56.55.55,0,0,1,.41.63q0,8.79,0,17.56c0,.36-.07.59-.42.7,0,.19.11.22.24.23h.1c.44-.13.36-.5.36-.81V34.74c0-.24,0-.49,0-.74a.43.43,0,0,1,.48-.45h.68a.49.49,0,0,1,.53.54c0,.23,0,.45,0,.68V46c0,1.54,0,3.09,0,4.63,0,.65.21.79.76.48a.58.58,0,0,1-.44-.61q0-8.85,0-17.7A.48.48,0,0,1,78.43,32.28Zm-1.57-6.56A2.26,2.26,0,0,1,79.16,28a2.29,2.29,0,0,1-2.27,2.29,2.28,2.28,0,0,1,0-4.55Z" transform="translate(0.04 0)"></path><path class="cls-2" d="M54.27,51.28a3,3,0,0,0-.84.14.46.46,0,0,0-.35.45,3.53,3.53,0,0,1-.44,1.49c-.09.18.06.29.09.43.1.46,0,.68-.38.79l-.07,0h0A21.37,21.37,0,0,1,52,52.35c-.56-3-2-5.48-5-6.66a5.86,5.86,0,0,0-6.32,1.25,9.4,9.4,0,0,0-1.25,12.33,7.54,7.54,0,0,0,1.93,1.89,2.1,2.1,0,0,1,.62.49.25.25,0,0,1,0,.12h0a.09.09,0,0,1,0,0h0l0,0a.47.47,0,0,1-.36.12.53.53,0,0,0-.66.46c-.12.41-.5.49-1,.19a.88.88,0,0,0-.86-.16A9.55,9.55,0,0,1,36.05,58a11.54,11.54,0,0,1,1.89-11.64c4.13-5.06,11.3-4.52,14.78,1A10,10,0,0,1,54.27,51.28Z" transform="translate(0.04 0)"></path><path class="cls-2" d="M62.45,70A12.37,12.37,0,0,0,59,69.09a13.07,13.07,0,0,1-2.54-.73c-2-.62-3.93-1.24-5.88-1.88a.45.45,0,0,0-.65.21,6.25,6.25,0,0,1-10,0,.47.47,0,0,0-.65-.23,6.21,6.21,0,0,1-1.47.43c0-.17-.16-.29-.34-.24s0,.29-.14.4a5.66,5.66,0,0,1-1.5.46c-.14-.07.34-.37-.12-.33a.21.21,0,0,1-.15-.11,4.32,4.32,0,0,0-1-1.43c1.38-.54,2.8-1,4.22-1.36.23.13.18.27,0,.41s-.24,0-.21.22a.31.31,0,0,0,0,.08h0c0,.08.08.16.14.16a.86.86,0,0,1,.39.13,1.82,1.82,0,0,1,.35.27h0a1.23,1.23,0,0,0,.75.4.16.16,0,0,1,.11,0,.47.47,0,0,1,.16.32v.07a.77.77,0,0,0,.63.84,1.37,1.37,0,0,1,.68.51,2.3,2.3,0,0,0,1.75.87h.16c.19-.07.07-.15,0-.22s-.11-.12-.16-.19-.21-.27-.13-.45.29-.21.48-.2c.86,0,1.73,0,2.59,0a1,1,0,0,0,1-.47.58.58,0,0,1,.28-.23c.25-.11.5-.23.48-.57s-.37-.28-.56-.41c0,0,0,0,0,0v0c-.06-.3.21-.5.28-.76.1-.42.1-.74-.45-.74l-.07,0-.06,0h0c-.25-.24-.19-.59-.22-.9s-.11-.41-.43-.46a5.5,5.5,0,0,0-1.46-.1,9.58,9.58,0,0,1-2.07-.1h0l-.43,0h-.06l-.22,0h0a.88.88,0,0,1-.38-.18.46.46,0,0,0-.07-.07s0,0,0,0a.62.62,0,0,1,0-.53s0,0,0,0l0,0h0c.28-.16.52,0,.76.09a6,6,0,0,0,6.25-1.21,3.53,3.53,0,0,0,.32-.21l.06,0a.65.65,0,0,0,.15-.18,9,9,0,0,0,1.78-2.66.38.38,0,0,1,.26-.25h.06c.22,0,.45.21.65-.06-.12-.21-.4-.12-.55-.25h0l-.05-.06a.9.9,0,0,1,.2-.82l.1,0s0,0,0-.06-.18-.12-.09-.17c.06-.38-.08-.82.3-1.13l0,0h0c.13.06.14.21.2.33.24.48.44,1,1.15.94.24,0,.43.23.63.36a6.74,6.74,0,0,1-.73,2.22h0a9.64,9.64,0,0,1-2.66,3.79A1.84,1.84,0,0,0,50.51,64c.07.15.21.16.35.21l8.21,2.62c.62.2,1.31,0,1.93.33a5.57,5.57,0,0,1-1,.53c-.11,0-.24.07-.24.23a.27.27,0,0,0,.26.29,1.23,1.23,0,0,1,1.1.74c.13.24.43.19.67.22C62.3,69.18,62.48,69.4,62.45,70Z" transform="translate(0.04 0)"></path><path class="cls-2" d="M81.24,56.82A4.64,4.64,0,0,1,77.38,60a4.24,4.24,0,0,1-2.62-.53c-.4-.24-.61-.1-.89.14-1.93,1.7-3.88,3.38-5.8,5.1-.31.27-.49.32-.76,0s-1-.87-1-1.31.74-.79,1.17-1.17c1.62-1.43,3.24-2.87,4.88-4.27a.73.73,0,0,0,.27-1,4.45,4.45,0,0,1,2.71-5.75.26.26,0,0,0,.25.13l0,.1a2.42,2.42,0,0,1-.33,2h0a.53.53,0,0,1-.12.14l.08-.07a.42.42,0,0,1,.47-.11.06.06,0,0,1,0,0v0c0,.26-.19.39-.32.55A2,2,0,0,0,75.56,57a2.07,2.07,0,0,0,3.11-.51,2,2,0,0,0,.12-2c-.09-.24-.31-.44-.27-.73h0c.31-.26.58-.08.83.1a.56.56,0,0,1,.18.71,1.68,1.68,0,0,0,0,.74.27.27,0,0,0,.31.24.26.26,0,0,0,.29-.25c0-.46.18-1-.42-1.23-.14-.06-.2-.2-.28-.32-.32-.47-.42-.47-.83,0l0,0h0c-.13.08-.19-.06-.27-.14s-.23-.14-.38-.15a5.35,5.35,0,0,0-2.07-.09h0c-.11-.5.18-.67.58-.62.83.13,1.64-.16,2.46-.06.54.07.78-.38,1.08-.7A4.46,4.46,0,0,1,81.24,56.82Z" transform="translate(0.04 0)"></path><path class="cls-2" d="M36.13,67.13l-.29.37a37.51,37.51,0,0,1-6.09,1.74A7.7,7.7,0,0,0,25,71.8a1.39,1.39,0,0,0-.31.52c-.12.19-.14.42-.25.62a26.59,26.59,0,0,0-.61,3.64c-.23,1.53-.44,3.06-.65,4.58-.06.42-.16.68-.68.56s-1.28,0-1.57-.34,0-1,.12-1.59c.28-2.06.65-4.11.88-6.17a6.58,6.58,0,0,1,3.14-4.92,11.17,11.17,0,0,1,5.24-1.85,17.85,17.85,0,0,0,3-.88,7.7,7.7,0,0,1,1.25-.34c.46.3,1,.53,1,1.21C35.6,67.08,35.87,67.15,36.13,67.13Z" transform="translate(0.04 0)"></path><path class="cls-2" d="M79.9,52c-.12.61-.47,1-1.11.86s-1.15.16-1.74.1a2,2,0,0,1-.54,0c-.39-.14-.64,0-.7.42a0,0,0,0,1,0,0l0,0H75.7c-.32,0-.47.24-.75.39a1.91,1.91,0,0,0,.27-.32.16.16,0,0,0,0-.07h0a5.49,5.49,0,0,0,.28-2s0-.06,0-.1c.23,0,.29-.1.28-.35,0-5.67,0-11.33,0-17,0-.45.1-.62.58-.61,1.78.05,1.52-.22,1.52,1.49q0,7.66,0,15.32a2.08,2.08,0,0,1,0,.5c-.17.56.06.66.55.5A2.94,2.94,0,0,1,79.9,52Z" transform="translate(0.04 0)"></path><path class="cls-2" d="M68.46,81.57c-1.71.23-1.69.25-1.92-1.45-.29-2.1-.64-4.2-.89-6.3a4.7,4.7,0,0,0-2.57-3.49L62.45,70c-.13-.43-.26-.79-.88-.66a.58.58,0,0,1-.76-.51c0-.41-.42-.46-.76-.41s-.49-.22-.55-.51.22-.33.46-.37.6-.5,1-.38a9.15,9.15,0,0,1,6.29,4.26A10.11,10.11,0,0,1,68.12,75c.31,2,.56,3.92.86,5.87C69.06,81.31,69,81.5,68.46,81.57Z" transform="translate(0.04 0)"></path><path class="cls-2" d="M18.71,49.11c0,.44-.08.65-.57.59s-1.32.25-1.65-.14S16.4,48.5,16.4,48c0-4.56,0-9.11,0-13.66,0-.44.07-.65.56-.59s1.32-.24,1.65.14.09,1,.1,1.61v6.24C18.7,44.16,18.69,46.64,18.71,49.11Z" transform="translate(0.04 0)"></path><path class="cls-2" d="M73.46,35.4c0,4.55,0,9.11,0,13.66,0,.51-.12.7-.64.64s-1.25.17-1.55-.1-.11-1.05-.12-1.6c0-2.13,0-4.25,0-6.37,0-2.45,0-4.9,0-7.35,0-.47.11-.62.58-.58s1.27-.17,1.61.11S73.46,34.85,73.46,35.4Z" transform="translate(0.04 0)"></path><path class="cls-2" d="M24.65,63.47a13,13,0,0,0-.9,1.17c-.22.31-.37.32-.67.08-2.28-1.8-4.58-3.56-6.86-5.36a.64.64,0,0,0-.89-.06,4.5,4.5,0,0,1-6.85-3.44c.27.36.65.22,1,.25s.53-.08.76.11.16.42.39.29,0-.37.1-.56a.56.56,0,0,1,.15.1,1.57,1.57,0,0,1,.36.77l0,0h0c-.22.2-.14.38.09.54-.07-.17-.26-.34-.08-.54h0l0,0a5.88,5.88,0,0,1,1.47.87h0c-.12.23-.33.19-.54.2-.43,0-.49.15-.26.53.07.1.21.19.2.3-.05.72.46.54.86.55a.47.47,0,0,0,.54-.52,1.6,1.6,0,0,0-.25-1.05v0a.2.2,0,0,1,.16-.2,2.51,2.51,0,0,0,1.27-.9.46.46,0,0,1,.2-.14.14.14,0,0,1,.11,0c.14.25,0,.54.29.81.54.56.94.66,1.54.13a4.15,4.15,0,0,1,.32-.27c.12.28.45.35.6.61-.11.11-.27.1-.39.16s-.43.06-.39.3.26.23.45.25.36.06.55.1c0-.29-.4-.48-.22-.81l4.89,3.75c.64.49,1.26,1,1.91,1.47C24.79,63.11,24.86,63.22,24.65,63.47Z" transform="translate(0.04 0)"></path><path class="cls-2" d="M69.58,29.2a3.11,3.11,0,0,0-.29.61c-.4.88-.4.87-1.24.47l-9.33-4.39c-.3-.14-.58-.31-.87-.46l.47-.13c.26-.07.7.17.74-.21s.5-1.08-.07-1.58l6.89,3.2c1.12.52,2.22,1.07,3.36,1.56C69.73,28.49,69.94,28.7,69.58,29.2Z" transform="translate(0.04 0)"></path><path class="cls-2" d="M24.85,23.7c-1.52.82-3.12,1.46-4.66,2.21-.76.37-1.52.74-2.29,1.06a.53.53,0,0,0-.38.65,4,4,0,0,1-.61,2.64c.12-1.29-.08-2.59,0-3.88,0-.53,0-1-.5-1.35.23,0,.4-.09.58-.17l5.48-2.5c0,.08,0,.22,0,.23.81.22,1.06,1.64,2.25,1.05C24.71,23.62,24.79,23.68,24.85,23.7Z" transform="translate(0.04 0)"></path><path class="cls-2" d="M62.23,81.13c0,.42-.12.54-.52.51a10.29,10.29,0,0,0-1.36,0c-.32,0-.43-.08-.42-.41,0-1,0-2,0-3s0-2,0-3c0-.33.1-.43.42-.41.59,0,1.37-.2,1.74.1s.11,1.11.12,1.7C62.23,78.09,62.2,79.61,62.23,81.13Z" transform="translate(0.04 0)"></path><path class="cls-2" d="M29.94,81.07c0,.48-.14.61-.59.57a7.94,7.94,0,0,0-1.29,0c-.33,0-.42-.1-.41-.42,0-1,0-2.06,0-3.09s0-1.93,0-2.9c0-.32,0-.49.42-.46.59,0,1.36-.2,1.73.1s.12,1.11.12,1.7C29.94,78.07,29.91,79.57,29.94,81.07Z" transform="translate(0.04 0)"></path><path class="cls-2" d="M54.26,56.36A6.59,6.59,0,0,1,52.87,56a1.49,1.49,0,0,1-.59-1.3v-.1l.07-.05a.55.55,0,0,0,.2-.82c-.26-.35,0-.63.11-.84A5.55,5.55,0,0,0,53,51.53c0-.32,1-.48,1.32-.25A10.64,10.64,0,0,1,54.26,56.36Z" transform="translate(0.04 0)"></path><path class="cls-2" d="M42.16,63.74a.33.33,0,0,1-.21.33.28.28,0,0,1-.13,0h-.08c-.43-.1-.45.14-.38.45,0,.12.08.24.1.36.17.84-.25,1.26-1.09,1.12h0c-.35-.06-.72,0-.85-.45h0l0-.11c0-.13-.18-.17-.32-.16h0c-.38,0-.56-.17-.66-.5q-.21-.27.12-.18c.32.08.35-.07.24-.32a1.16,1.16,0,0,0,.36-1.8c.22-.48.52-.25.79-.07.61.42.68.4.88-.26a.49.49,0,0,1,.52-.34l.67,0h0a.38.38,0,0,1,0,.47,1.89,1.89,0,0,1,.09.21A3,3,0,0,1,42.16,63.74Z" transform="translate(0.04 0)"></path><path class="cls-2" d="M23.25,41.68c0,1.19,0,1.19-1.18,1.18S21,42.86,21,41.71s0-1.16,1.15-1.16S23.25,40.55,23.25,41.68Z" transform="translate(0.04 0)"></path><path class="cls-2" d="M23.25,46.27v.07c0,1.09,0,1.09-1.09,1.09S21,47.43,21,46.24s0-1.12,1.12-1.12S23.25,45.12,23.25,46.27Z" transform="translate(0.04 0)"></path><path class="cls-2" d="M68.89,37.05v.06c0,1.18,0,1.18-1.18,1.18s-1.09,0-1.09-1.08,0-1.22,1.21-1.22C68.89,36,68.89,36,68.89,37.05Z" transform="translate(0.04 0)"></path><path class="cls-2" d="M68.89,46.27c0,1.16,0,1.16-1.15,1.16s-1.12,0-1.12-1.12,0-1.19,1.18-1.19S68.89,45.12,68.89,46.27Z" transform="translate(0.04 0)"></path><path class="cls-2" d="M68.89,41.64c0,1.22,0,1.22-1.2,1.22s-1.08,0-1.08-1.11,0-1.2,1.18-1.2S68.89,40.55,68.89,41.64Z" transform="translate(0.04 0)"></path><path class="cls-2" d="M23.25,37.21c0,1.08,0,1.08-1.09,1.08S21,38.29,21,37.11,21,36,22.1,36,23.25,36,23.25,37.21Z" transform="translate(0.04 0)"></path><path class="cls-2" d="M32.38,22.38c0,.19.08.44-.25.47,0-.19-.15-.34.08-.58s0-.58,0-.89,0-.71-.5-.79c.15-.14.35-.3.53-.23s.1.36.1.55C32.39,21.4,32.38,21.89,32.38,22.38Z" transform="translate(0.04 0)"></path><path class="cls-2" d="M57.86,20.37a3731640636972.64,3731640636972.64,0,0,1,0,.1,6.8,6.8,0,0,0-.22,2.33,6.93,6.93,0,0,1-.11-2.36C57.51,20.23,57.74,20.4,57.86,20.37Z" transform="translate(0.04 0)"></path><path class="cls-2" d="M37.82,66.88a.84.84,0,0,1-.48.16c0-.19-.36-.31-.17-.52s.46,0,.67,0S37.85,66.77,37.82,66.88Z" transform="translate(0.04 0)"></path><path class="cls-2" d="M31.24,20.8c-.1.3-.25.49-.6.29A1.52,1.52,0,0,1,31.24,20.8Z" transform="translate(0.04 0)"></path><path class="cls-2" d="M60,21.45c-.27.16-.46.14-.51-.22A.76.76,0,0,1,60,21.45Z" transform="translate(0.04 0)"></path><path class="cls-2" d="M30.38,21.19c-.08.26-.19.47-.51.26Z" transform="translate(0.04 0)"></path><path class="cls-2" d="M24.7,72.32a.69.69,0,0,1-.25.62A.86.86,0,0,1,24.7,72.32Z" transform="translate(0.04 0)"></path><path class="cls-2" d="M41.52,18.8c0,1.2,0,1.2-1.17,1.2s-1.13,0-1.13-1.12,0-1.16,1.2-1.16S41.52,17.72,41.52,18.8Z" transform="translate(0.04 0)"></path><path class="cls-2" d="M46.09,18.91c0,1.08,0,1.08-1.16,1.08s-1.15,0-1.15-1.15,0-1.12,1.13-1.12S46.09,17.72,46.09,18.91Z" transform="translate(0.04 0)"></path><path class="cls-2" d="M50.65,18.89c0,1.11,0,1.11-1.14,1.11s-1.16,0-1.16-1.15,0-1.13,1.11-1.13S50.65,17.72,50.65,18.89Z" transform="translate(0.04 0)"></path><path class="cls-2" d="M34.46,13.83V23H34.4V13.8Z" transform="translate(0.04 0)"></path><path class="cls-2" d="M11.24,56.83a5.88,5.88,0,0,1,1.47.87,3,3,0,0,1-1.5-.84Z" transform="translate(0.04 0)"></path><path class="cls-2" d="M12.72,57.71h.56A.36.36,0,0,1,12.72,57.71Z" transform="translate(0.04 0)"></path><path class="cls-2" d="M15,56.44l-.1.15h0a2.6,2.6,0,0,1-1.64,1.11.2.2,0,0,1,.16-.2,2.51,2.51,0,0,0,1.27-.9.46.46,0,0,1,.2-.14A1.1,1.1,0,0,1,15,56a2.17,2.17,0,0,0-1.62-2.62,2.13,2.13,0,0,0-2.49,1.87c0,.29,0,.57,0,.85a1.57,1.57,0,0,1,.36.77l0,0-.34-.66c0-.08-.09-.16-.13-.24-.07-1.62.7-2.66,2-2.82A2.31,2.31,0,0,1,15,56.44Z" transform="translate(0.04 0)"></path><path class="cls-2" d="M79,31.9c-.55-.07-1-.1-1.35-.18s-.51-.47-.27-.64c.5-.35.8-.88,1.31-1.3C79.06,30.49,78.26,31.23,79,31.9Z" transform="translate(0.04 0)"></path><path class="cls-2" d="M79.89,30.51c0,.32-.12.46-.43.48s-.5-.33-.5-.56.3-.3.55-.31S79.93,30.24,79.89,30.51Z" transform="translate(0.04 0)"></path><path class="cls-2" d="M75.62,31c.31,0,.56,0,.57.35s-.13.4-.41.39a.54.54,0,0,1-.54-.5C75.17,30.89,75.51,31.05,75.62,31Z" transform="translate(0.04 0)"></path><path class="cls-2" d="M77.07,30.41a.24.24,0,0,1-.29.15s0-.08,0-.09S76.94,30.35,77.07,30.41Z" transform="translate(0.04 0)"></path><path class="cls-2" d="M52.27,54.73,52.06,56s0,0,0,.07,0,0,0,0a2.47,2.47,0,0,0-.25.88v0h0a.29.29,0,0,1-.1.31,0,0,0,0,1,0,0,9.21,9.21,0,0,1-2,3,3.32,3.32,0,0,1-.46.38,5.36,5.36,0,0,1-3,1.6,6.71,6.71,0,0,1-4.14-.52c.28-.16.52,0,.76.09a6,6,0,0,0,6.25-1.21,3.53,3.53,0,0,0,.32-.21l.06,0a.65.65,0,0,0,.15-.18,9,9,0,0,0,1.78-2.66.38.38,0,0,1,.26-.25h0a.39.39,0,0,1,.11-.32l-.05-.06a.9.9,0,0,1,.2-.82l.1,0A.07.07,0,0,1,52,56c0-.06-.18-.12-.09-.17.06-.38-.08-.82.3-1.13Z" transform="translate(0.04 0)"></path><path class="cls-2" d="M52.28,54.6h0A21.37,21.37,0,0,1,52,52.35c-.56-3-2-5.48-5-6.66a5.86,5.86,0,0,0-6.32,1.25,9.4,9.4,0,0,0-1.25,12.33,7.54,7.54,0,0,0,1.93,1.89,2.1,2.1,0,0,1,.62.49.25.25,0,0,1,0,.12c-4.81-2.72-5.69-9.24-2.83-13.39C40.84,46,43.06,44.76,46,45.23a7.1,7.1,0,0,1,5.18,4A10.37,10.37,0,0,1,52.28,54.6Z" transform="translate(0.04 0)"></path><path class="cls-2" d="M48.21,64.73a2.33,2.33,0,0,1-.49,1.11c-.06-.3.21-.5.28-.76.1-.42.1-.74-.45-.74l-.07,0a7.2,7.2,0,0,1-4,.26,3.65,3.65,0,0,1-1.41-.34c-.3-.11-.41-.09-.44.28a2.37,2.37,0,0,0,.49,1.4.06.06,0,0,1,0,.08.13.13,0,0,1,.1,0l1.11.62h0l.75.23h0a4.63,4.63,0,0,0,3.55-1v0s0,0,0,.08h0a4,4,0,0,1-.81.59,3,3,0,0,1-.58.26h0a4.15,4.15,0,0,1-1.45.21l-.48,0h0l-.18,0-.25-.08-.29-.08h0l-.17-.07h0l-.11-.06-.13-.06-.42-.23-.15-.08h0l-.29-.14-.06,0-.1-.06,0,0h0l0,0a1,1,0,0,0-.08-.11h0a2,2,0,0,1-.44-1.11c0-.4.07-.61.32-.66H42l.27,0,.72.19.2,0a2.44,2.44,0,0,0,.39.06,8.45,8.45,0,0,0,3.09-.05,4.38,4.38,0,0,1,.8-.1h.17C48.08,64,48.25,64.17,48.21,64.73Z" transform="translate(0.04 0)"></path><path class="cls-2" d="M47.59,64.25l-.11,0a7.2,7.2,0,0,1-4,.26.92.92,0,0,1-.56-.26c-.32-.3-.39-.81-.59-1.2a.27.27,0,0,1,.15-.4h0a.61.61,0,0,1,.24-.07c.17,0,.36.1.51-.08s.23-.14.35-.06a2.56,2.56,0,0,0,1.9.11c.59-.08,1.09.34,1.68.12.16-.06.15.24.15.4A1.88,1.88,0,0,0,47.59,64.25Z" transform="translate(0.04 0)"></path><path class="cls-2" d="M48,67c-.13,0-.27.06-.3.18-.14.61-.6.57-1.06.57l-2.71,0c-.13,0-.25-.06-.32.09s.06.22.14.31.24.23.34.36.19.21.1.32-.25,0-.38-.07l-.17-.12a1.42,1.42,0,0,1-.34-1.85l.13,0h0l.21,0h0a4.91,4.91,0,0,1,.53,0h0a2.15,2.15,0,0,0,.68.18,2.81,2.81,0,0,0,1.45-.21h0l.36-.16.22-.1c.32-.12.66-.23.81-.59l0-.09v0h0c.34-.07.71,0,.78.33A.63.63,0,0,1,48,67Z" transform="translate(0.04 0)"></path><path class="cls-2" d="M42.67,66.38a0,0,0,0,0,0,0h0a1.56,1.56,0,0,1-.86.78c-.23.12-.63.11-.66-.21s-.31-.53-.63-.58h-.11c0-.06,0-.17,0-.17-.64,0-.92-.74-1.52-.82-.39,0-.41-.33-.42-.62.06.06.12.14.18.21h0a.43.43,0,0,0,.4.17c.36-.05.63,0,.69.48,0,.24,1,.41,1.34.22a.8.8,0,0,0,.24-1c-.06-.21-.15-.43-.19-.64a.36.36,0,0,1,.54-.39c.33.23.39.11.39-.2V62.3c.35.34.81.23,1.23.24a.33.33,0,0,1,0,.15c0,.1-.16.11-.3.05a.31.31,0,0,0-.13,0h-.06a.29.29,0,0,0-.24.14c-.13.15,0,.36.08.44a1.1,1.1,0,0,1,.35.8.27.27,0,0,0,.22.25c.14,0,.3.08.36.21a3.65,3.65,0,0,1-1.41-.34c-.3-.11-.41-.09-.44.28a2.37,2.37,0,0,0,.49,1.4A.36.36,0,0,1,42,66c-.11,0-.24.09-.21.27.13,0,.17-.15.26-.22a.19.19,0,0,1,.1,0,.13.13,0,0,1,.1,0,1.58,1.58,0,0,0,.3.28h0Z" transform="translate(0.04 0)"></path><path class="cls-2" d="M43.76,68.73a2.35,2.35,0,0,1-2-.88A1.28,1.28,0,0,0,41,67.3a.68.68,0,0,1-.55-.92l.11,0c.58-.18.61-.11.71.52.08.46.6.23.63.17.17-.35.61-.34.77-.65h.09c.24,0,.43.2.65.25h0s0,.06,0,.08a0,0,0,0,0,0,0h0a.08.08,0,0,0,0,0c-.16.62-.35,1.23.3,1.72a.14.14,0,0,1,0,.11Z" transform="translate(0.04 0)"></path><path class="cls-2" d="M52.11,59.81c-.25,0-.44,0-.62,0s-.26-.07-.22-.23c.14-.48.15-1,.6-1.36.26-.2.75-.08.78.24s.14.6.18.89C53,60.07,52.35,59.73,52.11,59.81Z" transform="translate(0.04 0)"></path><path class="cls-2" d="M36.67,66.13c-.24,0-.49,0-.73,0s-.4-.36-.37-.59.28-.1.44-.09c.39,0,.64-.31,1-.39a.51.51,0,0,1,.56.17c.15.15.28.31.2.54a.5.5,0,0,1-.5.37Z" transform="translate(0.04 0)"></path><path class="cls-2" d="M52.45,57.4a.46.46,0,0,1-.66.06.81.81,0,0,1-.12-.14v0a.39.39,0,0,1,.11-.32h0c.08,0,.17-.07.23,0s.49,0,.59.25C52.66,57.29,52.52,57.33,52.45,57.4Z" transform="translate(0.04 0)"></path><path class="cls-2" d="M49.66,60.31c-.1.19-.21.37-.46.38a1.14,1.14,0,0,1,.18-.25l.06,0A.48.48,0,0,1,49.66,60.31Z" transform="translate(0.04 0)"></path><path class="cls-2" d="M52.24,56.43c-.23,0-.18-.21-.2-.34v0A.07.07,0,0,1,52,56l0,0A.47.47,0,0,1,52.24,56.43Z" transform="translate(0.04 0)"></path><path class="cls-2" d="M53.53,58.58h0l-.28.07s0-.1,0-.11S53.44,58.47,53.53,58.58Z" transform="translate(0.04 0)"></path><path class="cls-2" d="M75.78,53.42h0l0,0h0Z" transform="translate(0.04 0)"></path><path class="cls-2" d="M75.8,53.39a0,0,0,0,0,0,0,2.64,2.64,0,0,1,2.23,0,.2.2,0,0,1,.2.13l.28.24c-.13.08-.19-.06-.27-.14s-.23-.14-.38-.15A5.35,5.35,0,0,0,75.8,53.39Z" transform="translate(0.04 0)"></path><path class="cls-2" d="M78,57.37a2.26,2.26,0,0,1-2.63-3.64l.35-.31c0,.26-.19.39-.32.55A2,2,0,0,0,75.56,57a2.07,2.07,0,0,0,3.11-.51,2,2,0,0,0,.12-2c-.09-.24-.31-.44-.27-.73h0C79.52,55.17,79.3,56.63,78,57.37Z" transform="translate(0.04 0)"></path><polygon class="cls-2" points="78.56 53.77 78.57 53.77 78.57 53.77 78.56 53.77"></polygon><path class="cls-2" d="M80.25,55.51c0,.3-.3.22-.49.22s-.44,0-.44-.29a3.56,3.56,0,0,1,0-.73c.13-.79,0-.91-.79-.94h0c.1-.19-.07-.58.27-.56s.71,0,.72.48a.31.31,0,0,0,.21.29c.2.09.48.09.51.37A7.62,7.62,0,0,1,80.25,55.51Z" transform="translate(0.04 0)"></path><path class="cls-2" d="M78.24,53.53l-.2-.14a.14.14,0,0,1,.25,0C78.37,53.42,78.33,53.49,78.24,53.53Z" transform="translate(0.04 0)"></path><path class="cls-2" d="M13.67,59.15c-.15.46-.54.26-.84.3a1.94,1.94,0,0,0-.42,0c-.42.12-.55,0-.39-.41a.33.33,0,0,0-.17-.46.42.42,0,0,1-.21-.62c.12-.29.4-.26.62-.21a.66.66,0,0,0,.46-.06h.56A1.39,1.39,0,0,1,13.67,59.15Z" transform="translate(0.04 0)"></path><path class="cls-2" d="M17.77,57.72a1.34,1.34,0,0,0,.47.74.15.15,0,0,1,.05.25.28.28,0,0,1-.21.07c-.27-.23-.59-.17-.89-.21a.59.59,0,0,1-.48-.43c-.05-.3.25-.24.43-.32a.75.75,0,0,1,.63-.1Z" transform="translate(0.04 0)"></path><path class="cls-2" d="M17.6,59.18c0,.21-.17.27-.32.31a.25.25,0,0,1-.35-.21c0-.2.11-.3.29-.31A.31.31,0,0,1,17.6,59.18Z" transform="translate(0.04 0)"></path><path class="cls-2" d="M10.38,58.6c.06-.3.14-.54.47-.43.12,0,.35.1.26.26S10.63,58.51,10.38,58.6Z" transform="translate(0.04 0)"></path><path class="cls-2" d="M11.47,57.7a.94.94,0,0,1-.6-.67c0-.19.18-.17.32-.17h0C11.1,57.21,11.69,57.29,11.47,57.7Z" transform="translate(0.04 0)"></path><path class="cls-2" d="M14.25,58.15s-.1,0-.11-.1,0-.15.12-.16.11,0,.12.08S14.34,58.11,14.25,58.15Z" transform="translate(0.04 0)"></path><path class="cls-2" d="M46.09,18.91c0,1.08,0,1.08-1.16,1.08s-1.15,0-1.15-1.15,0-1.12,1.13-1.12S46.09,17.72,46.09,18.91Z" transform="translate(0.04 0)"></path><path class="cls-2" d="M41.52,18.8c0,1.2,0,1.2-1.17,1.2s-1.13,0-1.13-1.12,0-1.16,1.2-1.16S41.52,17.72,41.52,18.8Z" transform="translate(0.04 0)"></path><path class="cls-2" d="M50.65,18.89c0,1.11,0,1.11-1.14,1.11s-1.16,0-1.16-1.15,0-1.13,1.11-1.13S50.65,17.72,50.65,18.89Z" transform="translate(0.04 0)"></path><path class="cls-2" d="M47.7,65.87h0c-.06.39-.08.65-.65.79s-1,.39-1.57.52A1.44,1.44,0,0,1,44.35,67a1.46,1.46,0,0,1-.21-.16h0a4.63,4.63,0,0,0,3.55-1Z" transform="translate(0.04 0)"></path><path class="cls-2" d="M42.17,66l-.05.09a.75.75,0,0,1-.06.13c-.07.15,0,.4-.29.37-.07,0-.14-.18-.16-.29s.11-.35.3-.41h0c.06,0,.13,0,.2,0A.06.06,0,0,1,42.17,66Z" transform="translate(0.04 0)"></path><path class="cls-2" d="M43.38,66.63a.58.58,0,0,1-.23,0,2.81,2.81,0,0,1-.47-.21l0,0c-.22,0-.34,0-.36-.23a.61.61,0,0,1,0-.14Z" transform="translate(0.04 0)"></path><path class="cls-2" d="M44.15,66.86h0l-.24,0a.88.88,0,0,0-.2.09c-.31.22-.3,0-.31-.19v-.17l.75.23h0Z" transform="translate(0.04 0)"></path></svg>