<svg xmlns="http://www.w3.org/2000/svg" xmlns:xlink="http://www.w3.org/1999/xlink" xml:space="preserve" width="91px" height="91px" style="shape-rendering:geometricPrecision; text-rendering:geometricPrecision; image-rendering:optimizeQuality; fill-rule:evenodd; clip-rule:evenodd" viewBox="0 0 12.75 12.75"> <defs> <style type="text/css"> .fil1 {fill:#083264} .fil0 {fill:white} </style> </defs> <g id="Layer_x0020_1"> <metadata id="CorelCorpID_0Corel-Layer"></metadata> <g id="_1718351132112"> <circle class="fil0" cx="6.38" cy="6.38" r="6.38"></circle> <path class="fil1" d="M5.27 9.1l-0.36 0c-0.11,0 -0.17,-0.01 -0.28,-0.01 0.03,0.05 0.05,0.19 0.07,0.26l0.12 0.53 2.81 0c-0.03,-0.05 -0.07,-0.09 -0.1,-0.13l-0.52 -0.72c-0.02,-0.04 -0.05,-0.08 -0.07,-0.11 -0.05,0.02 -0.71,0.11 -0.81,0.12 -0.28,0.03 -0.56,0.06 -0.86,0.06zm2.65 0.58c0,-0.04 0.12,-0.56 0.14,-0.59l-0.61 -0.07c0.01,0.03 0.08,0.13 0.11,0.17l0.36 0.49zm-2.64 -1.88c0.24,0 0.51,-0.04 0.74,-0.06l0.71 -0.12c-0.13,-0.01 -0.75,-0.25 -0.88,-0.25 -0.18,0 -0.26,0.01 -0.41,0.14 -0.08,0.06 -0.14,0.18 -0.16,0.29zm-0.25 -4.62l0 0.45 2.62 0c0.02,-0.05 0.42,-0.71 0.46,-0.76 -0.12,0 -0.94,0.1 -1.15,0.11 -0.47,0.04 -1.09,0.13 -1.54,0.16 -0.12,0.01 -0.26,0.04 -0.39,0.04zm0 1.08c0,0.09 -0.03,0.18 -0.03,0.36 0,0.35 0.17,0.76 0.43,0.97 0.02,0.02 0.03,0.03 0.05,0.05 0.33,0.31 0.96,0.42 1.41,0.2 0.07,-0.04 0.15,-0.07 0.21,-0.12 0.04,-0.02 0.07,-0.05 0.1,-0.07 0.02,-0.02 0.02,-0.02 0.05,-0.04 0.02,-0.02 0.02,-0.02 0.04,-0.04l0.15 -0.18c0.03,-0.03 0.05,-0.07 0.07,-0.1 0.01,-0.02 0.02,-0.04 0.03,-0.06 0.11,-0.22 0.15,-0.38 0.15,-0.66 0,-0.1 -0.02,-0.16 -0.02,-0.25l0.58 0c-0.01,-0.06 -0.08,-0.09 -0.14,-0.15 -0.05,-0.04 -0.43,-0.43 -0.47,-0.43l-2.61 0 0 0.52zm3.3 3.53c0.02,0.03 0.04,0.07 0.06,0.11 -0.07,0 -0.07,0.01 -0.11,0.01l-0.34 -0.03c-0.13,-0.01 -0.3,-0.04 -0.42,-0.07 0.04,0.07 0.08,0.1 0.11,0.18 0.08,0.22 0.06,0.46 -0.08,0.64 -0.05,0.07 -0.19,0.21 -0.29,0.22l0 0.02c0.1,0 0.54,0.11 0.91,0.11 0.35,0 0.69,-0.01 0.99,-0.23 0.11,-0.08 0.19,-0.17 0.25,-0.28 0.29,-0.51 -0.05,-1.12 -0.33,-1.49l-0.34 -0.39c-0.12,-0.11 -0.28,-0.24 -0.43,-0.31 -0.15,-0.08 -0.48,-0.07 -0.67,-0.07 -0.74,0 -1.48,0 -2.22,0l0.35 0.49c0.04,0.05 0.07,0.11 0.12,0.16l0.35 0.49c0.05,0.05 0.93,0.27 1.09,0.31 0.16,0.04 0.32,0.06 0.47,0.09 0.18,0.03 0.32,0.04 0.53,0.04zm-5.1 0.04c0,0.4 0.17,0.64 0.45,0.85 0.49,0.37 1.6,0.35 2.25,0.27 0.12,-0.02 0.23,-0.03 0.35,-0.04 0.11,-0.01 0.23,-0.03 0.34,-0.05 0.39,-0.07 0.79,-0.05 0.92,-0.45 0.09,-0.27 -0.04,-0.52 -0.26,-0.64 -0.2,-0.11 -0.41,-0.05 -0.64,-0.01 -0.53,0.09 -1.63,0.23 -2.17,0.09 -0.06,-0.01 -0.09,-0.03 -0.14,-0.04 0.01,-0.05 0.02,-0.05 0.03,-0.1 0.06,0 0.25,0.09 0.61,0.09l0.2 0c0,-0.25 0.3,-0.53 0.56,-0.54 -0.01,-0.05 -0.56,-0.8 -0.66,-0.93 -0.1,-0.13 -0.05,-0.12 -0.23,-0.12 -0.5,0 -0.75,0.21 -1.08,0.54 -0.22,0.22 -0.53,0.64 -0.53,1.08z"></path> </g> </g> </svg>