<svg xmlns="http://www.w3.org/2000/svg" xmlns:xlink="http://www.w3.org/1999/xlink" xml:space="preserve" width="91px" height="91px" style="shape-rendering:geometricPrecision; text-rendering:geometricPrecision; image-rendering:optimizeQuality; fill-rule:evenodd; clip-rule:evenodd" viewBox="0 0 14.54 14.54"> <defs> <style type="text/css"> .fil1 {fill:#083264} .fil0 {fill:white} </style> </defs> <g id="Layer_x0020_1"> <metadata id="CorelCorpID_0Corel-Layer"></metadata> <g id="_1718063936304"> <circle class="fil0" cx="7.27" cy="7.27" r="7.27"></circle> <path class="fil1" d="M6.21 4.22c-0.12,0 -0.14,-0.09 -0.14,-0.22 0,-0.35 -0.27,-0.58 -0.5,-0.58 -0.2,0 -0.31,0 -0.48,0.17 -0.28,0.29 -0.16,0.77 0.19,0.91 0.29,0.12 0.45,-0.07 0.45,0.21 0,0.05 -0.39,0.42 -0.45,0.48 -0.12,0.12 -0.37,0.4 -0.48,0.47 0.13,0.2 0.93,0.86 0.93,1.01l-0.02 0.09c-0.04,0.07 -0.14,0.05 -0.21,0.05 -0.51,0 -0.74,0.61 -0.41,0.96 0.35,0.37 0.98,0.12 0.98,-0.37 0,-0.56 0.41,-0.03 0.49,0.03 0,-0.28 0.05,-0.43 0.18,-0.59 0.35,-0.44 1.22,-0.25 1.24,0.47 0.13,-0.09 0.07,-0.16 0.26,-0.16 0.13,0 0.09,0.21 0.09,0.21 0,0.32 0.24,0.58 0.6,0.58 0.5,0 0.78,-0.71 0.27,-1.05 -0.23,-0.16 -0.54,0.01 -0.54,-0.2 0,-0.11 0.37,-0.43 0.46,-0.52l0.48 -0.49 -0.63 -0.64c-0.46,0.85 -1.61,0.48 -1.61,-0.37 0,-0.16 0.07,-0.36 0.15,-0.46 0.13,-0.19 0.15,-0.18 0.32,-0.29l-0.63 -0.64c-0.11,0.07 -0.37,0.36 -0.48,0.47 -0.08,0.08 -0.43,0.47 -0.51,0.47zm4.17 1.53c0,0.09 0.05,0.14 0.14,0.14l0.85 0c0.19,0 0.19,-0.28 0,-0.28l-0.85 0c-0.09,0 -0.14,0.06 -0.14,0.14zm-7.35 0c0,0.09 0.06,0.14 0.14,0.14l0.85 0c0.19,0 0.19,-0.28 0,-0.28l-0.85 0c-0.08,0 -0.14,0.06 -0.14,0.14zm7.19 -1.62c0,0.1 0.06,0.14 0.16,0.14 0.06,0 0.18,-0.09 0.23,-0.12l0.45 -0.26c0.08,-0.04 0.18,-0.07 0.18,-0.19 0,-0.33 -0.48,0.04 -0.61,0.11l-0.34 0.19c-0.04,0.03 -0.07,0.06 -0.07,0.13zm-6.93 3.67c0,0.34 0.51,-0.04 0.62,-0.1 0.16,-0.09 0.41,-0.2 0.41,-0.32 0,-0.1 -0.07,-0.14 -0.16,-0.14 -0.06,0 -0.39,0.2 -0.46,0.24 -0.16,0.09 -0.41,0.19 -0.41,0.32zm6.93 -0.42c0,0.11 0.09,0.14 0.17,0.18 0.08,0.05 0.16,0.09 0.24,0.14 0.11,0.06 0.61,0.44 0.61,0.1 0,-0.13 -0.23,-0.22 -0.39,-0.31 -0.1,-0.06 -0.63,-0.46 -0.63,-0.11zm-6.93 -3.68c0,0.13 0.22,0.22 0.4,0.32 0.1,0.05 0.63,0.45 0.63,0.11 0,-0.13 -0.25,-0.24 -0.41,-0.32 -0.13,-0.07 -0.62,-0.44 -0.62,-0.11zm4.69 4.03l0 0.76c0,0.58 0.84,0.84 0.84,0.51l0 -0.79c-0.34,0 -0.7,-0.36 -0.72,-0.6 -0.05,0.01 -0.12,0.06 -0.12,0.12zm-1.28 1.7c-0.18,0 -0.14,-0.3 -0.14,-0.41l0 -1.11c0,-0.12 -0.03,-0.12 -0.1,-0.18 -0.05,-0.05 -0.09,-0.1 -0.14,-0.14 -0.08,0.33 -0.37,0.6 -0.76,0.62 -0.14,0.01 -0.11,0.02 -0.25,0.41 -0.04,0.14 -0.25,0.67 -0.24,0.79 0,0.14 0.41,1.03 0.49,1.23 0.1,0.26 0.15,0.27 0.15,0.62l1.98 0c0,-0.56 0.15,-0.46 0.26,-0.84 0.15,-0.51 -0.1,-0.71 -0.19,-1.02 -0.11,-0.35 -0.07,-1.47 -0.07,-1.92 0,-0.22 0.02,-0.27 -0.07,-0.42 -0.21,-0.31 -0.75,-0.19 -0.77,0.19 -0.02,0.26 0.04,1.99 -0.03,2.1 -0.02,0.03 -0.07,0.08 -0.12,0.08z"></path> </g> </g> </svg>