<svg xmlns="http://www.w3.org/2000/svg" id="Layer_1" data-name="Layer 1" viewBox="0 0 91 91"><defs><style>.cls-1{fill:#fff;}.cls-2{fill:#083264;}</style></defs><circle class="cls-1" cx="45.5" cy="45.5" r="45.5"></circle><path class="cls-2" d="M56.85,27.17c.81.42.33,1.57.2,2.34a25.36,25.36,0,0,1-5.93,12.78c-1.68,1.87-3.64,3.3-6.33,3.24a8.07,8.07,0,0,1-5.83-3,25,25,0,0,1-6.23-13.3c-.11-.71-.54-1.75.24-2.13a2.63,2.63,0,0,1,2.6.28c4.37,3.07,9.21,2.87,14.14,2a10,10,0,0,0,4.19-1.86A2.84,2.84,0,0,1,56.85,27.17Z"></path><path class="cls-2" d="M29.51,17.79c0-1.91,1.54-2.9,3.08-3.68,3.91-2,8.14-2.46,13.06-2.45a27.78,27.78,0,0,1,9.93,1.7,11.22,11.22,0,0,1,3,1.57c2.37,1.85,2.5,4.06,0,5.64C56.21,22,54.11,23.7,51.87,25.2c-4.66,3.14-12.48,2.14-16.29-1.91a11.06,11.06,0,0,0-3-1.82C31.08,20.62,29.49,19.74,29.51,17.79Z"></path><path class="cls-2" d="M75.66,71.81c-.48-3.41-.94-6.82-1.2-10.25a11,11,0,0,0-6.32-9.29c-3-1.56-6-2.91-9.07-4.36-2.42-1.15-2.42-1.15-3.65,1.31l-9.3,18.57a1.57,1.57,0,0,1-.29-.08l2-11.38c.24-1.46-2-4.58-3.09-4.3-1.23.33-2.85,3.17-2.61,4.55.63,3.71,1.27,7.43,1.9,11.13A5.84,5.84,0,0,1,42.77,66Q38.3,57,33.86,48.09c-.47-.93-.83-1.38-2-.78-3.43,1.75-7,3.28-10.39,5a10.45,10.45,0,0,0-5.93,7.72c-.63,3.88-.91,7.8-1.4,11.7-.14,1.13,0,1.57,1.35,1.57q29.37-.06,58.77,0C75.51,73.34,75.82,73,75.66,71.81Zm-6.15-5.49c.1,1.27-1,.91-1.65.93-1.46,0-2.94,0-4.41,0h-5c-.54,0-1.22.14-1.23-.73,0-1.61,0-3.22,0-4.82,0-.74.56-.66,1-.67H68.5c.21,0,.56,0,.61,0C70,62.76,69.38,64.57,69.51,66.32Z"></path><path class="cls-2" d="M75.66,71.81c-.48-3.41-.94-6.82-1.2-10.25a11,11,0,0,0-6.32-9.29c-3-1.56-6-2.91-9.07-4.36-2.42-1.15-2.42-1.15-3.65,1.31l-9.3,18.57a1.57,1.57,0,0,1-.29-.08l2-11.38c.24-1.46-2-4.58-3.09-4.3-1.23.33-2.85,3.17-2.61,4.55.63,3.71,1.27,7.43,1.9,11.13A5.84,5.84,0,0,1,42.77,66Q38.3,57,33.86,48.09c-.47-.93-.83-1.38-2-.78-3.43,1.75-7,3.28-10.39,5a10.45,10.45,0,0,0-5.93,7.72c-.63,3.88-.91,7.8-1.4,11.7-.14,1.13,0,1.57,1.35,1.57q29.37-.06,58.77,0C75.51,73.34,75.82,73,75.66,71.81Zm-6.15-5.49c.1,1.27-1,.91-1.65.93-1.46,0-2.94,0-4.41,0h-5c-.54,0-1.22.14-1.23-.73,0-1.61,0-3.22,0-4.82,0-.74.56-.66,1-.67H68.5c.21,0,.56,0,.61,0C70,62.76,69.38,64.57,69.51,66.32Z"></path><path class="cls-2" d="M69.51,66.32c.1,1.27-1,.91-1.65.93-1.46,0-2.94,0-4.41,0h-5c-.54,0-1.22.14-1.23-.73,0-1.61,0-3.22,0-4.82,0-.74.56-.66,1-.67H68.5c.21,0,.56,0,.61,0C70,62.76,69.38,64.57,69.51,66.32Z"></path><path class="cls-2" d="M58.52,20.57C56.21,22,54.11,23.7,51.87,25.2c-4.66,3.14-12.48,2.14-16.29-1.91a11.06,11.06,0,0,0-3-1.82c-1.48-.85-3.07-1.73-3.05-3.68s1.54-2.9,3.08-3.68c3.91-2,8.14-2.46,13.06-2.45a27.78,27.78,0,0,1,9.93,1.7,11.22,11.22,0,0,1,3,1.57C60.91,16.78,61,19,58.52,20.57Z"></path><path class="cls-2" d="M57.05,29.51a25.36,25.36,0,0,1-5.93,12.78c-1.68,1.87-3.64,3.3-6.33,3.24a8.07,8.07,0,0,1-5.83-3,25,25,0,0,1-6.23-13.3c-.11-.71-.54-1.75.24-2.13a2.63,2.63,0,0,1,2.6.28c4.37,3.07,9.21,2.87,14.14,2a10,10,0,0,0,4.19-1.86,2.84,2.84,0,0,1,3-.44C57.66,27.59,57.18,28.74,57.05,29.51Z"></path></svg>