<svg xmlns="http://www.w3.org/2000/svg" id="Layer_1" data-name="Layer 1" viewBox="0 0 91 91"><defs><style>.cls-1{fill:#fff;}.cls-2{fill:#083264;}</style></defs><circle class="cls-1" cx="45.5" cy="45.5" r="45.5"></circle><path class="cls-2" d="M71.27,24.33a7,7,0,1,0,7,7A7,7,0,0,0,71.27,24.33Zm-.1,12a5,5,0,1,1,5-4.94A5,5,0,0,1,71.17,36.32Z" transform="translate(0.04 0)"></path><path class="cls-2" d="M71.27,61.32a3,3,0,1,0,0,6,3,3,0,0,0,0-6Zm0,4a1,1,0,0,1-1-1,1,1,0,0,1,1-1,1,1,0,0,1,0,2Zm0-4a3,3,0,1,0,0,6,3,3,0,0,0,0-6Zm0,4a1,1,0,0,1-1-1,1,1,0,0,1,1-1,1,1,0,0,1,0,2Zm-16.49-12c-.66,0-1.33,0-2,0-1.6,0-1.58,0-1.54,1.61,0,.35.14.41.44.4.54,0,1.08,0,1.62,0h.44c1.54,0,1.53,0,1.53-1.54C55.26,53.37,55.12,53.3,54.76,53.31Zm16.51,8a3,3,0,1,0,0,6,3,3,0,0,0,0-6Zm0,4a1,1,0,0,1-1-1,1,1,0,0,1,1-1,1,1,0,0,1,0,2Zm0-4a3,3,0,1,0,0,6,3,3,0,0,0,0-6Zm0,4a1,1,0,0,1-1-1,1,1,0,0,1,1-1,1,1,0,0,1,0,2Zm-16.49-12c-.66,0-1.33,0-2,0-1.6,0-1.58,0-1.54,1.61,0,.35.14.41.44.4.54,0,1.08,0,1.62,0h.44c1.54,0,1.53,0,1.53-1.54C55.26,53.37,55.12,53.3,54.76,53.31Zm0,0c-.66,0-1.33,0-2,0-1.6,0-1.58,0-1.54,1.61,0,.35.14.41.44.4.54,0,1.08,0,1.62,0h.44c1.54,0,1.53,0,1.53-1.54C55.26,53.37,55.12,53.3,54.76,53.31Zm16.51,8a3,3,0,1,0,0,6,3,3,0,0,0,0-6Zm0,4a1,1,0,0,1-1-1,1,1,0,0,1,1-1,1,1,0,0,1,0,2Zm0-4a3,3,0,1,0,0,6,3,3,0,0,0,0-6Zm0,4a1,1,0,0,1-1-1,1,1,0,0,1,1-1,1,1,0,0,1,0,2Zm-16.49-12c-.66,0-1.33,0-2,0-1.6,0-1.58,0-1.54,1.61,0,.35.14.41.44.4.54,0,1.08,0,1.62,0h.44c1.54,0,1.53,0,1.53-1.54C55.26,53.37,55.12,53.3,54.76,53.31Zm-17.48,8a3,3,0,1,0,3,3A3,3,0,0,0,37.28,61.32Zm0,4a1,1,0,0,1-1-1,1,1,0,0,1,1-1,1,1,0,0,1,1,1A1,1,0,0,1,37.25,65.31Zm17.51-12c-.66,0-1.33,0-2,0-1.6,0-1.58,0-1.54,1.61,0,.35.14.41.44.4.54,0,1.08,0,1.62,0h.44c1.54,0,1.53,0,1.53-1.54C55.26,53.37,55.12,53.3,54.76,53.31Zm16.51,8a3,3,0,1,0,0,6,3,3,0,0,0,0-6Zm0,4a1,1,0,0,1-1-1,1,1,0,0,1,1-1,1,1,0,0,1,0,2Zm0-4a3,3,0,1,0,0,6,3,3,0,0,0,0-6Zm0,4a1,1,0,0,1-1-1,1,1,0,0,1,1-1,1,1,0,0,1,0,2Zm-16.49-12c-.66,0-1.33,0-2,0-1.6,0-1.58,0-1.54,1.61,0,.35.14.41.44.4.54,0,1.08,0,1.62,0h.44c1.54,0,1.53,0,1.53-1.54C55.26,53.37,55.12,53.3,54.76,53.31Zm-17.48,8a3,3,0,1,0,3,3A3,3,0,0,0,37.28,61.32Zm0,4a1,1,0,0,1-1-1,1,1,0,0,1,1-1,1,1,0,0,1,1,1A1,1,0,0,1,37.25,65.31Zm47-13a3,3,0,0,0-3-3q-1.52,0-3,0a.81.81,0,0,1-.77-.39c-.82-1.13-1.65-2.25-2.51-3.34-.31-.39-.31-.57.07-.92a27,27,0,0,0,9.22-19.9,1.5,1.5,0,0,0-1-1.56Q77.64,20.45,72,17.6a1.65,1.65,0,0,0-1.64,0c-3.43,1.74-6.87,3.44-10.3,5.17-2.05,1-2,.52-1.81,3.27a27.33,27.33,0,0,0,1.48,7.27H49.45c-.86,0-1.21.36-1.22,1.21s0,1.67,0,2.5c0,.3-.07.45-.38.51a10.08,10.08,0,0,0-5.21,2.74c-3.11,2.9-6.24,5.76-9.35,8.66a1.32,1.32,0,0,1-1,.38c-1.63,0-3.25,0-4.88,0a5,5,0,0,0-5.17,5.15c0,3.19,0,6.38,0,9.56,0,.94.35,1.29,1.28,1.29,2.08,0,4.16,0,6.24,0,.44,0,.59.1.69.54a7,7,0,0,0,13.58,0c.11-.48.27-.57.72-.57,6.33,0,12.66,0,19,0,.48,0,.6.18.7.6a7,7,0,0,0,13.59-.06c.11-.49.29-.53.69-.53,1.44,0,2.88,0,4.31,0,.83,0,1.18-.36,1.18-1.19C84.23,60.2,84.24,56.26,84.23,52.33Zm-9-3h-2c-3.83,0-7.65,0-11.48,0-.47,0-.58-.12-.57-.58,0-3,0-5.95,0-8.92,0-.39.08-.5.5-.53a1.58,1.58,0,0,1,1.61.81,26.79,26.79,0,0,0,7.18,6.94,1.27,1.27,0,0,0,1.64-.14c.84-.6.85-.59,1.45.21S74.65,48.52,75.24,49.32ZM70,51.51a11.05,11.05,0,0,1,3.07,6.05,6.6,6.6,0,0,0-2.75-.16c-.3.06-.31-.15-.34-.33a12.37,12.37,0,0,0-.88-3,13.85,13.85,0,0,0-1.64-2.78h2A.6.6,0,0,1,70,51.51ZM60.59,24.76q5.14-2.55,10.29-5.15a.68.68,0,0,1,.69,0q5.12,2.58,10.25,5.12a.63.63,0,0,1,.38.81,25.12,25.12,0,0,1-10.55,19.3.61.61,0,0,1-.86,0A24.92,24.92,0,0,1,60.47,27.69c-.11-.76-.15-1.53-.23-2.3A.54.54,0,0,1,60.59,24.76ZM57.72,39.31c1.51,0,1.51,0,1.51,1.51v3.56c0,1.5,0,3,0,4.5,0,.35-.08.45-.44.45-1.57,0-1.57,0-1.57-1.5,0-2.67,0-5.33,0-8C57.22,39.43,57.31,39.31,57.72,39.31ZM43,42.67a14.78,14.78,0,0,1,3-2.39,7.62,7.62,0,0,1,3.45-.94c1.79,0,3.58,0,5.37,0,.31,0,.43.06.43.4,0,3.06,0,6.12,0,9.18,0,.31-.06.43-.4.43h-19ZM41,51.32a16.22,16.22,0,0,0-1.49,2.49,13,13,0,0,0-1,3.13c0,.23,0,.52-.42.44a6.44,6.44,0,0,0-2.63.19,11,11,0,0,1,3.11-6.12.5.5,0,0,1,.4-.13Zm-13.26,0c.49,0,.62.14.56.59a5.14,5.14,0,0,0,0,.68h0c0,.27,0,.54,0,.81a2,2,0,0,1-1.91,1.92c-.56,0-1.12,0-1.68,0-.34,0-.4-.11-.41-.43C24.19,52.59,25.41,51.33,27.7,51.31Zm2.73,11.58c-.08.37-.21.44-.56.44-1.71,0-3.41,0-5.12,0-.43,0-.51-.13-.5-.53,0-1.66,0-3.33,0-5,0-.44.14-.5.53-.5a11.09,11.09,0,0,0,2.3-.08,4,4,0,0,0,3.17-3.81c0-.58,0-1.17,0-1.75,0-.28.09-.35.35-.35H36a12.84,12.84,0,0,0-2.65,6.88.73.73,0,0,1-.32.56A6.82,6.82,0,0,0,30.43,62.89Zm6.81,6.43a5,5,0,1,1,5-5A5,5,0,0,1,37.24,69.32Zm27.19-6.49c-.08.36-.18.5-.58.5q-9.59,0-19.16,0c-.37,0-.52-.06-.61-.48a6.78,6.78,0,0,0-3.35-4.58.61.61,0,0,1-.36-.74,11.25,11.25,0,0,1,3-5.92.93.93,0,0,1,.77-.29H54.24c3.35,0,6.7,0,10.05,0a1.12,1.12,0,0,1,.91.4,11.27,11.27,0,0,1,2.89,5.83.62.62,0,0,1-.35.75A6.78,6.78,0,0,0,64.43,62.83Zm6.84,6.49a5,5,0,1,1,0-10,5,5,0,0,1,0,10Zm11-6.42c0,.31-.06.43-.4.43-1.1,0-2.21,0-3.31,0-.28,0-.38-.08-.44-.37a6.81,6.81,0,0,0-2.56-4.14.77.77,0,0,1-.35-.55,13,13,0,0,0-2.69-6.94c1.9,0,3.66,0,5.43,0,.37,0,.31.22.32.45a22.7,22.7,0,0,0,.08,3.3,4.82,4.82,0,0,0,3.46,4,.55.55,0,0,1,.46.64Q82.21,61.31,82.24,62.9Zm0-10c-.06,1.39,0,2.78,0,4.26a3,3,0,0,1-2-2.74c0-.89,0-1.79,0-2.68,0-.29.07-.39.38-.4C81.72,51.27,82.3,51.47,82.25,52.87Zm-11,8.45a3,3,0,1,0,0,6,3,3,0,0,0,0-6Zm0,4a1,1,0,0,1-1-1,1,1,0,0,1,1-1,1,1,0,0,1,0,2Zm-16.49-12c-.66,0-1.33,0-2,0-1.6,0-1.58,0-1.54,1.61,0,.35.14.41.44.4.54,0,1.08,0,1.62,0h.44c1.54,0,1.53,0,1.53-1.54C55.26,53.37,55.12,53.3,54.76,53.31Zm-17.48,8a3,3,0,1,0,3,3A3,3,0,0,0,37.28,61.32Zm0,4a1,1,0,0,1-1-1,1,1,0,0,1,1-1,1,1,0,0,1,1,1A1,1,0,0,1,37.25,65.31Zm17.51-12c-.66,0-1.33,0-2,0-1.6,0-1.58,0-1.54,1.61,0,.35.14.41.44.4.54,0,1.08,0,1.62,0h.44c1.54,0,1.53,0,1.53-1.54C55.26,53.37,55.12,53.3,54.76,53.31Zm16.51,8a3,3,0,1,0,0,6,3,3,0,0,0,0-6Zm0,4a1,1,0,0,1-1-1,1,1,0,0,1,1-1,1,1,0,0,1,0,2Zm0-4a3,3,0,1,0,0,6,3,3,0,0,0,0-6Zm0,4a1,1,0,0,1-1-1,1,1,0,0,1,1-1,1,1,0,0,1,0,2Zm-16.49-12c-.66,0-1.33,0-2,0-1.6,0-1.58,0-1.54,1.61,0,.35.14.41.44.4.54,0,1.08,0,1.62,0h.44c1.54,0,1.53,0,1.53-1.54C55.26,53.37,55.12,53.3,54.76,53.31Zm0,0c-.66,0-1.33,0-2,0-1.6,0-1.58,0-1.54,1.61,0,.35.14.41.44.4.54,0,1.08,0,1.62,0h.44c1.54,0,1.53,0,1.53-1.54C55.26,53.37,55.12,53.3,54.76,53.31Zm16.51,8a3,3,0,1,0,0,6,3,3,0,0,0,0-6Zm0,4a1,1,0,0,1-1-1,1,1,0,0,1,1-1,1,1,0,0,1,0,2Zm0-4a3,3,0,1,0,0,6,3,3,0,0,0,0-6Zm0,4a1,1,0,0,1-1-1,1,1,0,0,1,1-1,1,1,0,0,1,0,2Zm-16.49-12c-.66,0-1.33,0-2,0-1.6,0-1.58,0-1.54,1.61,0,.35.14.41.44.4.54,0,1.08,0,1.62,0h.44c1.54,0,1.53,0,1.53-1.54C55.26,53.37,55.12,53.3,54.76,53.31Zm16.51,8a3,3,0,1,0,0,6,3,3,0,0,0,0-6Zm0,4a1,1,0,0,1-1-1,1,1,0,0,1,1-1,1,1,0,0,1,0,2Zm0-4a3,3,0,1,0,0,6,3,3,0,0,0,0-6Zm0,4a1,1,0,0,1-1-1,1,1,0,0,1,1-1,1,1,0,0,1,0,2Z" transform="translate(0.04 0)"></path><path class="cls-2" d="M71.27,24.33a7,7,0,1,0,7,7A7,7,0,0,0,71.27,24.33Zm-.1,12a5,5,0,1,1,5-4.94A5,5,0,0,1,71.17,36.32Z" transform="translate(0.04 0)"></path><path class="cls-2" d="M71.27,61.32a3,3,0,1,0,0,6,3,3,0,0,0,0-6Zm0,4a1,1,0,0,1-1-1,1,1,0,0,1,1-1,1,1,0,0,1,0,2Zm0-4a3,3,0,1,0,0,6,3,3,0,0,0,0-6Zm0,4a1,1,0,0,1-1-1,1,1,0,0,1,1-1,1,1,0,0,1,0,2Zm-16.49-12c-.66,0-1.33,0-2,0-1.6,0-1.58,0-1.54,1.61,0,.35.14.41.44.4.54,0,1.08,0,1.62,0h.44c1.54,0,1.53,0,1.53-1.54C55.26,53.37,55.12,53.3,54.76,53.31Zm16.51,8a3,3,0,1,0,0,6,3,3,0,0,0,0-6Zm0,4a1,1,0,0,1-1-1,1,1,0,0,1,1-1,1,1,0,0,1,0,2Zm0-4a3,3,0,1,0,0,6,3,3,0,0,0,0-6Zm0,4a1,1,0,0,1-1-1,1,1,0,0,1,1-1,1,1,0,0,1,0,2Zm-16.49-12c-.66,0-1.33,0-2,0-1.6,0-1.58,0-1.54,1.61,0,.35.14.41.44.4.54,0,1.08,0,1.62,0h.44c1.54,0,1.53,0,1.53-1.54C55.26,53.37,55.12,53.3,54.76,53.31Zm0,0c-.66,0-1.33,0-2,0-1.6,0-1.58,0-1.54,1.61,0,.35.14.41.44.4.54,0,1.08,0,1.62,0h.44c1.54,0,1.53,0,1.53-1.54C55.26,53.37,55.12,53.3,54.76,53.31Zm16.51,8a3,3,0,1,0,0,6,3,3,0,0,0,0-6Zm0,4a1,1,0,0,1-1-1,1,1,0,0,1,1-1,1,1,0,0,1,0,2Zm0-4a3,3,0,1,0,0,6,3,3,0,0,0,0-6Zm0,4a1,1,0,0,1-1-1,1,1,0,0,1,1-1,1,1,0,0,1,0,2Zm-16.49-12c-.66,0-1.33,0-2,0-1.6,0-1.58,0-1.54,1.61,0,.35.14.41.44.4.54,0,1.08,0,1.62,0h.44c1.54,0,1.53,0,1.53-1.54C55.26,53.37,55.12,53.3,54.76,53.31Zm-17.48,8a3,3,0,1,0,3,3A3,3,0,0,0,37.28,61.32Zm0,4a1,1,0,0,1-1-1,1,1,0,0,1,1-1,1,1,0,0,1,1,1A1,1,0,0,1,37.25,65.31Zm17.51-12c-.66,0-1.33,0-2,0-1.6,0-1.58,0-1.54,1.61,0,.35.14.41.44.4.54,0,1.08,0,1.62,0h.44c1.54,0,1.53,0,1.53-1.54C55.26,53.37,55.12,53.3,54.76,53.31Zm16.51,8a3,3,0,1,0,0,6,3,3,0,0,0,0-6Zm0,4a1,1,0,0,1-1-1,1,1,0,0,1,1-1,1,1,0,0,1,0,2Zm0-4a3,3,0,1,0,0,6,3,3,0,0,0,0-6Zm0,4a1,1,0,0,1-1-1,1,1,0,0,1,1-1,1,1,0,0,1,0,2Zm-16.49-12c-.66,0-1.33,0-2,0-1.6,0-1.58,0-1.54,1.61,0,.35.14.41.44.4.54,0,1.08,0,1.62,0h.44c1.54,0,1.53,0,1.53-1.54C55.26,53.37,55.12,53.3,54.76,53.31Zm-17.48,8a3,3,0,1,0,3,3A3,3,0,0,0,37.28,61.32Zm0,4a1,1,0,0,1-1-1,1,1,0,0,1,1-1,1,1,0,0,1,1,1A1,1,0,0,1,37.25,65.31Zm47-13a3,3,0,0,0-3-3q-1.52,0-3,0a.81.81,0,0,1-.77-.39c-.82-1.13-1.65-2.25-2.51-3.34-.31-.39-.31-.57.07-.92a27,27,0,0,0,9.22-19.9,1.5,1.5,0,0,0-1-1.56Q77.64,20.45,72,17.6a1.65,1.65,0,0,0-1.64,0c-3.43,1.74-6.87,3.44-10.3,5.17-2.05,1-2,.52-1.81,3.27a27.33,27.33,0,0,0,1.48,7.27H49.45c-.86,0-1.21.36-1.22,1.21s0,1.67,0,2.5c0,.3-.07.45-.38.51a10.08,10.08,0,0,0-5.21,2.74c-3.11,2.9-6.24,5.76-9.35,8.66a1.32,1.32,0,0,1-1,.38c-1.63,0-3.25,0-4.88,0a5,5,0,0,0-5.17,5.15c0,3.19,0,6.38,0,9.56,0,.94.35,1.29,1.28,1.29,2.08,0,4.16,0,6.24,0,.44,0,.59.1.69.54a7,7,0,0,0,13.58,0c.11-.48.27-.57.72-.57,6.33,0,12.66,0,19,0,.48,0,.6.18.7.6a7,7,0,0,0,13.59-.06c.11-.49.29-.53.69-.53,1.44,0,2.88,0,4.31,0,.83,0,1.18-.36,1.18-1.19C84.23,60.2,84.24,56.26,84.23,52.33Zm-9-3h-2c-3.83,0-7.65,0-11.48,0-.47,0-.58-.12-.57-.58,0-3,0-5.95,0-8.92,0-.39.08-.5.5-.53a1.58,1.58,0,0,1,1.61.81,26.79,26.79,0,0,0,7.18,6.94,1.27,1.27,0,0,0,1.64-.14c.84-.6.85-.59,1.45.21S74.65,48.52,75.24,49.32ZM70,51.51a11.05,11.05,0,0,1,3.07,6.05,6.6,6.6,0,0,0-2.75-.16c-.3.06-.31-.15-.34-.33a12.37,12.37,0,0,0-.88-3,13.85,13.85,0,0,0-1.64-2.78h2A.6.6,0,0,1,70,51.51ZM60.59,24.76q5.14-2.55,10.29-5.15a.68.68,0,0,1,.69,0q5.12,2.58,10.25,5.12a.63.63,0,0,1,.38.81,25.12,25.12,0,0,1-10.55,19.3.61.61,0,0,1-.86,0A24.92,24.92,0,0,1,60.47,27.69c-.11-.76-.15-1.53-.23-2.3A.54.54,0,0,1,60.59,24.76ZM57.72,39.31c1.51,0,1.51,0,1.51,1.51v3.56c0,1.5,0,3,0,4.5,0,.35-.08.45-.44.45-1.57,0-1.57,0-1.57-1.5,0-2.67,0-5.33,0-8C57.22,39.43,57.31,39.31,57.72,39.31ZM43,42.67a14.78,14.78,0,0,1,3-2.39,7.62,7.62,0,0,1,3.45-.94c1.79,0,3.58,0,5.37,0,.31,0,.43.06.43.4,0,3.06,0,6.12,0,9.18,0,.31-.06.43-.4.43h-19ZM41,51.32a16.22,16.22,0,0,0-1.49,2.49,13,13,0,0,0-1,3.13c0,.23,0,.52-.42.44a6.44,6.44,0,0,0-2.63.19,11,11,0,0,1,3.11-6.12.5.5,0,0,1,.4-.13Zm-13.26,0c.49,0,.62.14.56.59a5.14,5.14,0,0,0,0,.68h0c0,.27,0,.54,0,.81a2,2,0,0,1-1.91,1.92c-.56,0-1.12,0-1.68,0-.34,0-.4-.11-.41-.43C24.19,52.59,25.41,51.33,27.7,51.31Zm2.73,11.58c-.08.37-.21.44-.56.44-1.71,0-3.41,0-5.12,0-.43,0-.51-.13-.5-.53,0-1.66,0-3.33,0-5,0-.44.14-.5.53-.5a11.09,11.09,0,0,0,2.3-.08,4,4,0,0,0,3.17-3.81c0-.58,0-1.17,0-1.75,0-.28.09-.35.35-.35H36a12.84,12.84,0,0,0-2.65,6.88.73.73,0,0,1-.32.56A6.82,6.82,0,0,0,30.43,62.89Zm6.81,6.43a5,5,0,1,1,5-5A5,5,0,0,1,37.24,69.32Zm27.19-6.49c-.08.36-.18.5-.58.5q-9.59,0-19.16,0c-.37,0-.52-.06-.61-.48a6.78,6.78,0,0,0-3.35-4.58.61.61,0,0,1-.36-.74,11.25,11.25,0,0,1,3-5.92.93.93,0,0,1,.77-.29H54.24c3.35,0,6.7,0,10.05,0a1.12,1.12,0,0,1,.91.4,11.27,11.27,0,0,1,2.89,5.83.62.62,0,0,1-.35.75A6.78,6.78,0,0,0,64.43,62.83Zm6.84,6.49a5,5,0,1,1,0-10,5,5,0,0,1,0,10Zm11-6.42c0,.31-.06.43-.4.43-1.1,0-2.21,0-3.31,0-.28,0-.38-.08-.44-.37a6.81,6.81,0,0,0-2.56-4.14.77.77,0,0,1-.35-.55,13,13,0,0,0-2.69-6.94c1.9,0,3.66,0,5.43,0,.37,0,.31.22.32.45a22.7,22.7,0,0,0,.08,3.3,4.82,4.82,0,0,0,3.46,4,.55.55,0,0,1,.46.64Q82.21,61.31,82.24,62.9Zm0-10c-.06,1.39,0,2.78,0,4.26a3,3,0,0,1-2-2.74c0-.89,0-1.79,0-2.68,0-.29.07-.39.38-.4C81.72,51.27,82.3,51.47,82.25,52.87Zm-11,8.45a3,3,0,1,0,0,6,3,3,0,0,0,0-6Zm0,4a1,1,0,0,1-1-1,1,1,0,0,1,1-1,1,1,0,0,1,0,2Zm-16.49-12c-.66,0-1.33,0-2,0-1.6,0-1.58,0-1.54,1.61,0,.35.14.41.44.4.54,0,1.08,0,1.62,0h.44c1.54,0,1.53,0,1.53-1.54C55.26,53.37,55.12,53.3,54.76,53.31Zm-17.48,8a3,3,0,1,0,3,3A3,3,0,0,0,37.28,61.32Zm0,4a1,1,0,0,1-1-1,1,1,0,0,1,1-1,1,1,0,0,1,1,1A1,1,0,0,1,37.25,65.31Zm17.51-12c-.66,0-1.33,0-2,0-1.6,0-1.58,0-1.54,1.61,0,.35.14.41.44.4.54,0,1.08,0,1.62,0h.44c1.54,0,1.53,0,1.53-1.54C55.26,53.37,55.12,53.3,54.76,53.31Zm16.51,8a3,3,0,1,0,0,6,3,3,0,0,0,0-6Zm0,4a1,1,0,0,1-1-1,1,1,0,0,1,1-1,1,1,0,0,1,0,2Zm0-4a3,3,0,1,0,0,6,3,3,0,0,0,0-6Zm0,4a1,1,0,0,1-1-1,1,1,0,0,1,1-1,1,1,0,0,1,0,2Zm-16.49-12c-.66,0-1.33,0-2,0-1.6,0-1.58,0-1.54,1.61,0,.35.14.41.44.4.54,0,1.08,0,1.62,0h.44c1.54,0,1.53,0,1.53-1.54C55.26,53.37,55.12,53.3,54.76,53.31Zm0,0c-.66,0-1.33,0-2,0-1.6,0-1.58,0-1.54,1.61,0,.35.14.41.44.4.54,0,1.08,0,1.62,0h.44c1.54,0,1.53,0,1.53-1.54C55.26,53.37,55.12,53.3,54.76,53.31Zm16.51,8a3,3,0,1,0,0,6,3,3,0,0,0,0-6Zm0,4a1,1,0,0,1-1-1,1,1,0,0,1,1-1,1,1,0,0,1,0,2Zm0-4a3,3,0,1,0,0,6,3,3,0,0,0,0-6Zm0,4a1,1,0,0,1-1-1,1,1,0,0,1,1-1,1,1,0,0,1,0,2Zm-16.49-12c-.66,0-1.33,0-2,0-1.6,0-1.58,0-1.54,1.61,0,.35.14.41.44.4.54,0,1.08,0,1.62,0h.44c1.54,0,1.53,0,1.53-1.54C55.26,53.37,55.12,53.3,54.76,53.31Zm16.51,8a3,3,0,1,0,0,6,3,3,0,0,0,0-6Zm0,4a1,1,0,0,1-1-1,1,1,0,0,1,1-1,1,1,0,0,1,0,2Zm0-4a3,3,0,1,0,0,6,3,3,0,0,0,0-6Zm0,4a1,1,0,0,1-1-1,1,1,0,0,1,1-1,1,1,0,0,1,0,2Z" transform="translate(0.04 0)"></path><path class="cls-2" d="M55.26,53.78c0,1.54,0,1.54-1.53,1.54h-.44c-.54,0-1.08,0-1.62,0-.3,0-.42,0-.44-.4,0-1.61-.06-1.61,1.54-1.61.66,0,1.33,0,2,0C55.12,53.3,55.26,53.37,55.26,53.78Z" transform="translate(0.04 0)"></path><path class="cls-2" d="M71.27,24.33a7,7,0,1,0,7,7A7,7,0,0,0,71.27,24.33Zm-.1,12a5,5,0,1,1,5-4.94A5,5,0,0,1,71.17,36.32Z" transform="translate(0.04 0)"></path><path class="cls-2" d="M37.28,61.32a3,3,0,1,0,3,3A3,3,0,0,0,37.28,61.32Zm0,4a1,1,0,0,1-1-1,1,1,0,0,1,1-1,1,1,0,0,1,1,1A1,1,0,0,1,37.25,65.31Z" transform="translate(0.04 0)"></path><path class="cls-2" d="M71.27,61.32a3,3,0,1,0,0,6,3,3,0,0,0,0-6Zm0,4a1,1,0,0,1-1-1,1,1,0,0,1,1-1,1,1,0,0,1,0,2Z" transform="translate(0.04 0)"></path><path class="cls-2" d="M55.26,53.78c0,1.54,0,1.54-1.53,1.54h-.44c-.54,0-1.08,0-1.62,0-.3,0-.42,0-.44-.4,0-1.61-.06-1.61,1.54-1.61.66,0,1.33,0,2,0C55.12,53.3,55.26,53.37,55.26,53.78Z" transform="translate(0.04 0)"></path><path class="cls-2" d="M71.27,24.33a7,7,0,1,0,7,7A7,7,0,0,0,71.27,24.33Zm-.1,12a5,5,0,1,1,5-4.94A5,5,0,0,1,71.17,36.32Z" transform="translate(0.04 0)"></path><path class="cls-2" d="M37.28,61.32a3,3,0,1,0,3,3A3,3,0,0,0,37.28,61.32Zm0,4a1,1,0,0,1-1-1,1,1,0,0,1,1-1,1,1,0,0,1,1,1A1,1,0,0,1,37.25,65.31Z" transform="translate(0.04 0)"></path><path class="cls-2" d="M71.27,61.32a3,3,0,1,0,0,6,3,3,0,0,0,0-6Zm0,4a1,1,0,0,1-1-1,1,1,0,0,1,1-1,1,1,0,0,1,0,2Z" transform="translate(0.04 0)"></path><path class="cls-2" d="M2.13,52.54c.2,0,.15-.17.17-.28a3.71,3.71,0,0,1,1-1.94l9.45-9.45a2.33,2.33,0,0,1,.28-.26.63.63,0,0,1,.87,0l.12.09c.54.49.48.58,1.14-.09.33-.33.65-.66,1-1A.44.44,0,0,0,16.2,39a13.67,13.67,0,0,1-1.45-2.82,14.72,14.72,0,0,1-.83-3.6A13.71,13.71,0,0,1,18.4,21.18a13.67,13.67,0,0,1,5.22-2.94,14.16,14.16,0,0,1,2.82-.52,13.37,13.37,0,0,1,6.35,1,13,13,0,0,1,3.86,2.45,13.42,13.42,0,0,1,3.59,5.12,14.44,14.44,0,0,1,.92,4,13.59,13.59,0,0,1-3.38,10.12,13.65,13.65,0,0,1-9,4.57,13.44,13.44,0,0,1-6.93-1.19,12.62,12.62,0,0,1-1.9-1.06.47.47,0,0,0-.7.06c-.41.42-.83.83-1.25,1.24-.22.22-.23.41,0,.61a1.19,1.19,0,0,1,.15.18c.42.51.41.8-.05,1.26l-9.6,9.6a3.6,3.6,0,0,1-1.82.92c-.12,0-.3,0-.32.18A5.17,5.17,0,0,0,9.29,55c2.92-3,5.88-5.89,8.82-8.83.6-.6.61-1,0-1.53-.26-.25-.29-.38,0-.64a13.82,13.82,0,0,0,1.21-1.21c.19-.21.32-.2.54,0a12.67,12.67,0,0,0,5.37,2.16A13.52,13.52,0,0,0,37.71,40.6,12.87,12.87,0,0,0,41.05,34a13.48,13.48,0,0,0-3.2-11.73,13.19,13.19,0,0,0-7.67-4.41,13.34,13.34,0,0,0-9.6,1.64,13.33,13.33,0,0,0-6.35,8.36,13.42,13.42,0,0,0,1.73,11c.34.54.35.54-.11,1s-.74.74-1.1,1.12c-.14.14-.23.19-.39,0-.61-.75-1-.79-1.83,0q-4.3,4.35-8.66,8.65A5.14,5.14,0,0,0,2.13,52.54Z" transform="translate(0.04 0)"></path><path class="cls-2" d="M33.61,32.13a.79.79,0,0,0,.76.79.76.76,0,0,0,.75-.75.75.75,0,0,0-.73-.77A.78.78,0,0,0,33.61,32.13Z" transform="translate(0.04 0)"></path><path class="cls-2" d="M26.8,24.6a.75.75,0,0,0,.77.61,6.5,6.5,0,0,1,2.09.39A6,6,0,0,1,33.19,29c.06.14.11.29.18.42a.74.74,0,0,0,1,.38.75.75,0,0,0,.39-1,7.23,7.23,0,0,0-1.22-2.23,7.69,7.69,0,0,0-5.81-2.89.87.87,0,0,0-.54.1A.71.71,0,0,0,26.8,24.6Z" transform="translate(0.04 0)"></path><path class="cls-2" d="M16.83,31.34A10.71,10.71,0,1,0,27.52,20.62,10.73,10.73,0,0,0,16.83,31.34Zm1.53.05a9.18,9.18,0,1,1,9.25,9.13A9.19,9.19,0,0,1,18.36,31.39Zm-1.53-.05A10.71,10.71,0,1,0,27.52,20.62,10.73,10.73,0,0,0,16.83,31.34Zm1.53.05a9.18,9.18,0,1,1,9.25,9.13A9.19,9.19,0,0,1,18.36,31.39Zm-1.53-.05A10.71,10.71,0,1,0,27.52,20.62,10.73,10.73,0,0,0,16.83,31.34Zm1.53.05a9.18,9.18,0,1,1,9.25,9.13A9.19,9.19,0,0,1,18.36,31.39Zm-1.53-.05A10.71,10.71,0,1,0,27.52,20.62,10.73,10.73,0,0,0,16.83,31.34Zm1.53.05a9.18,9.18,0,1,1,9.25,9.13A9.19,9.19,0,0,1,18.36,31.39ZM2.13,52.54v.76a3.74,3.74,0,0,0,.34,1.39,3.46,3.46,0,0,0,2.9,2h.14s0,0,.06,0h.77A5.17,5.17,0,0,0,9.29,55c2.92-3,5.88-5.89,8.82-8.83.6-.6.61-1,0-1.53-.26-.25-.29-.38,0-.64a13.82,13.82,0,0,0,1.21-1.21c.19-.21.32-.2.54,0a12.67,12.67,0,0,0,5.37,2.16A13.52,13.52,0,0,0,37.71,40.6,12.87,12.87,0,0,0,41.05,34a13.48,13.48,0,0,0-3.2-11.73,13.19,13.19,0,0,0-7.67-4.41,13.34,13.34,0,0,0-9.6,1.64,13.33,13.33,0,0,0-6.35,8.36,13.42,13.42,0,0,0,1.73,11c.34.54.35.54-.11,1s-.74.74-1.1,1.12c-.14.14-.23.19-.39,0-.61-.75-1-.79-1.83,0q-4.3,4.35-8.66,8.65A5.14,5.14,0,0,0,2.13,52.54ZM18.19,41.78q-.66.63-1.29,1.29c-.14.14-.22.16-.36,0s-.5-.5-.75-.75l-.14-.15a.63.63,0,0,1,.1-.12l1.4-1.41c.12-.13.18,0,.26,0,.26.26.52.52.79.77S18.32,41.66,18.19,41.78Zm-2.9-10.45A12.25,12.25,0,1,1,27.54,43.59,12.29,12.29,0,0,1,15.29,31.33ZM14.37,47.4c-.95-1-1.92-1.93-2.88-2.89-.06,0-.11-.11-.18-.18l.15-.17c.61-.6,1.21-1.2,1.81-1.81.15-.15.23-.16.39,0,.94,1,1.9,1.91,2.86,2.86.14.14.18.23,0,.39-.61.59-1.21,1.19-1.81,1.81C14.58,47.55,14.51,47.54,14.37,47.4ZM5,55a2.24,2.24,0,0,1-1.35-2,2.5,2.5,0,0,1,.79-1.82Q7.23,48.41,10,45.62c.2-.2.29-.16.47,0,.92.94,1.84,1.87,2.78,2.79.19.18.2.27,0,.46L7.72,54.4l-.34.31A2.19,2.19,0,0,1,5,55ZM16.83,31.34A10.71,10.71,0,1,0,27.52,20.62,10.73,10.73,0,0,0,16.83,31.34Zm1.53.05a9.18,9.18,0,1,1,9.25,9.13A9.19,9.19,0,0,1,18.36,31.39Zm-1.53-.05A10.71,10.71,0,1,0,27.52,20.62,10.73,10.73,0,0,0,16.83,31.34Zm1.53.05a9.18,9.18,0,1,1,9.25,9.13A9.19,9.19,0,0,1,18.36,31.39Zm-1.53-.05A10.71,10.71,0,1,0,27.52,20.62,10.73,10.73,0,0,0,16.83,31.34Zm1.53.05a9.18,9.18,0,1,1,9.25,9.13A9.19,9.19,0,0,1,18.36,31.39Zm-1.53-.05A10.71,10.71,0,1,0,27.52,20.62,10.73,10.73,0,0,0,16.83,31.34Zm1.53.05a9.18,9.18,0,1,1,9.25,9.13A9.19,9.19,0,0,1,18.36,31.39Zm-1.53-.05A10.71,10.71,0,1,0,27.52,20.62,10.73,10.73,0,0,0,16.83,31.34Zm1.53.05a9.18,9.18,0,1,1,9.25,9.13A9.19,9.19,0,0,1,18.36,31.39Z" transform="translate(0.04 0)"></path><path class="cls-2" d="M2.13,53.3a3.74,3.74,0,0,0,.34,1.39,3.46,3.46,0,0,0,2.9,2,4.21,4.21,0,0,1-1.89-.88,3.73,3.73,0,0,1-1.3-2.39A.78.78,0,0,0,2.13,53.3Z" transform="translate(0.04 0)"></path><path class="cls-2" d="M33.61,32.13a.79.79,0,0,0,.76.79.76.76,0,0,0,.75-.75.75.75,0,0,0-.73-.77A.78.78,0,0,0,33.61,32.13Z" transform="translate(0.04 0)"></path><path class="cls-2" d="M26.8,24.6a.75.75,0,0,0,.77.61,6.5,6.5,0,0,1,2.09.39A6,6,0,0,1,33.19,29c.06.14.11.29.18.42a.74.74,0,0,0,1,.38.75.75,0,0,0,.39-1,7.23,7.23,0,0,0-1.22-2.23,7.69,7.69,0,0,0-5.81-2.89.87.87,0,0,0-.54.1A.71.71,0,0,0,26.8,24.6Z" transform="translate(0.04 0)"></path><path class="cls-2" d="M16.83,31.34A10.71,10.71,0,1,0,27.52,20.62,10.73,10.73,0,0,0,16.83,31.34Zm1.53.05a9.18,9.18,0,1,1,9.25,9.13A9.19,9.19,0,0,1,18.36,31.39Z" transform="translate(0.04 0)"></path><path class="cls-2" d="M33.61,32.13a.79.79,0,0,0,.76.79.76.76,0,0,0,.75-.75.75.75,0,0,0-.73-.77A.78.78,0,0,0,33.61,32.13Z" transform="translate(0.04 0)"></path><path class="cls-2" d="M26.8,24.6a.75.75,0,0,0,.77.61,6.5,6.5,0,0,1,2.09.39A6,6,0,0,1,33.19,29c.06.14.11.29.18.42a.74.74,0,0,0,1,.38.75.75,0,0,0,.39-1,7.23,7.23,0,0,0-1.22-2.23,7.69,7.69,0,0,0-5.81-2.89.87.87,0,0,0-.54.1A.71.71,0,0,0,26.8,24.6Z" transform="translate(0.04 0)"></path><path class="cls-2" d="M16.83,31.34A10.71,10.71,0,1,0,27.52,20.62,10.73,10.73,0,0,0,16.83,31.34Zm1.53.05a9.18,9.18,0,1,1,9.25,9.13A9.19,9.19,0,0,1,18.36,31.39Z" transform="translate(0.04 0)"></path><path class="cls-2" d="M33.61,32.13a.79.79,0,0,0,.76.79.76.76,0,0,0,.75-.75.75.75,0,0,0-.73-.77A.78.78,0,0,0,33.61,32.13Z" transform="translate(0.04 0)"></path><path class="cls-2" d="M26.8,24.6a.75.75,0,0,0,.77.61,6.5,6.5,0,0,1,2.09.39A6,6,0,0,1,33.19,29c.06.14.11.29.18.42a.74.74,0,0,0,1,.38.75.75,0,0,0,.39-1,7.23,7.23,0,0,0-1.22-2.23,7.69,7.69,0,0,0-5.81-2.89.87.87,0,0,0-.54.1A.71.71,0,0,0,26.8,24.6Z" transform="translate(0.04 0)"></path><path class="cls-2" d="M26.8,24.6a.75.75,0,0,0,.77.61,6.5,6.5,0,0,1,2.09.39A6,6,0,0,1,33.19,29c.06.14.11.29.18.42a.74.74,0,0,0,1,.38.75.75,0,0,0,.39-1,7.23,7.23,0,0,0-1.22-2.23,7.69,7.69,0,0,0-5.81-2.89.87.87,0,0,0-.54.1A.71.71,0,0,0,26.8,24.6Z" transform="translate(0.04 0)"></path><path class="cls-2" d="M33.61,32.13a.79.79,0,0,0,.76.79.76.76,0,0,0,.75-.75.75.75,0,0,0-.73-.77A.78.78,0,0,0,33.61,32.13Z" transform="translate(0.04 0)"></path></svg>