<svg xmlns="http://www.w3.org/2000/svg" id="Layer_1" data-name="Layer 1" viewBox="0 0 91 91"><defs><style>.cls-1{fill:#fff;}.cls-2{fill:#083264;}</style></defs><circle class="cls-1" cx="45.5" cy="45.5" r="45.5"></circle><path class="cls-2" d="M23.18,54.71c-.15,1.19-.7,1.4-1.79,1.39q-7.74-.09-15.47,0c-1.27,0-1.72-.26-1.65-1.62.49-9.39,0-8.21,8-11.34,1-.38,2-.72,3-1.09,1.5-.57,1.91-1.86.81-3a6.92,6.92,0,0,1-2-3.38c-.14-.67-.72-.71-1.23-.95a2.65,2.65,0,0,1-1-4.42c.53-.65.32-1.14.28-1.72a8,8,0,0,1,8.27-8.86,7.91,7.91,0,0,1,8.29,8.75,2.62,2.62,0,0,0,.59,2.07,2.6,2.6,0,0,1-1.13,4,2.18,2.18,0,0,0-1.57,1.65,6.35,6.35,0,0,1-1.55,2.47c-1.35,1.49-1,2.73.8,3.43,3.07,1.18,6.25,2.09,9.44,4-2.68,1.09-4.93,2-7.21,2.93A6.78,6.78,0,0,0,23.18,54.71Z" transform="translate(0.04 0)"></path><path class="cls-2" d="M43.51,50.69c-.59,4.51-1.3,9-1.9,13.52-.13,1-.54,1.29-1.5,1.26-2.4,0-4.79,0-7.19,0s-4.5-.06-6.75,0c-1.15,0-1.67-.21-1.56-1.49.26-2.78.36-5.59.6-8.38a4.87,4.87,0,0,1,3.33-4.44c3.54-1.35,7.05-2.76,10.6-4.09C41.16,46.32,43.79,48.47,43.51,50.69Z" transform="translate(0.04 0)"></path><path class="cls-2" d="M58.22,30.44c0-.76.37-1.67-.94-2-1.6-.39-3-3.72-2.06-5,.81-1.1,0-1.51-.57-2s-1-1.57-2.21-.65-4.64-.53-4.95-2c-.27-1.24-1.07-1.11-1.91-1.08s-1.78-.34-2.1,1.06-3.85,2.85-5,2-1.62.11-2.21.67-1.39.94-.57,2-.45,4.74-1.85,5c-1.24.2-1.26.91-1.16,1.79s-.52,1.93,1.1,2.22,2.82,3.85,1.91,5,0,1.51.55,2,.93,1.73,2.16.74c.9-.73,4.8.38,4.93,1.44.21,1.59,1.08,1.57,2.3,1.62s1.84-.39,1.87-1.6c0-.69.59-.79,1-.84,1.55-.19,3-2.42,5,.42a27.92,27.92,0,0,1,1.75-2.3c.55-.57.27-.91,0-1.43-.84-1.36.47-4.71,2.11-5.09C58.67,32.07,58.2,31.16,58.22,30.44ZM45.38,38a7.71,7.71,0,0,1,0-15.42,7.71,7.71,0,0,1,0,15.42Z" transform="translate(0.04 0)"></path><path class="cls-2" d="M66.3,64.08c.1,1.17-.37,1.43-1.44,1.4-2.33-.07-4.66,0-7,0s-4.51,0-6.77,0c-1.09,0-1.66-.21-1.81-1.42-.55-4.31-1.23-8.61-1.78-12.92-.37-2.92,2-4.85,4.66-3.86q5.23,2,10.42,4a4.69,4.69,0,0,1,3.1,4.17C66,58.33,66.05,61.22,66.3,64.08Z" transform="translate(0.04 0)"></path><path class="cls-2" d="M85.5,56.09c-5.43,0-10.87,0-16.3,0-1,0-1.26-.42-1.39-1.34a6.68,6.68,0,0,0-4.39-5.47l-7.57-3.09c2.86-1.88,5.85-2.7,8.71-3.79s3-1.79,1.13-4a6,6,0,0,1-1.1-1.78,2.66,2.66,0,0,0-1.79-2,2.6,2.6,0,0,1-1-4,2.34,2.34,0,0,0,.45-2.09c-.62-4.57,2.9-8.44,7.89-8.71s8.89,3.32,8.81,7.89a4.65,4.65,0,0,0,.66,3.26,2.45,2.45,0,0,1-1.31,3.67,2.2,2.2,0,0,0-1.56,1.67,5.55,5.55,0,0,1-1.41,2.32c-1.71,1.89-1.44,2.81,1,3.71S81,44.05,83.35,45a4,4,0,0,1,2.82,3.79c.08,2,.27,4.06.47,6.09C86.73,55.74,86.45,56.09,85.5,56.09Z" transform="translate(0.04 0)"></path><path class="cls-2" d="M85.5,56.09c-5.43,0-10.87,0-16.3,0-1,0-1.26-.42-1.39-1.34a6.68,6.68,0,0,0-4.39-5.47l-7.57-3.09c2.86-1.88,5.85-2.7,8.71-3.79s3-1.79,1.13-4a6,6,0,0,1-1.1-1.78,2.66,2.66,0,0,0-1.79-2,2.6,2.6,0,0,1-1-4,2.34,2.34,0,0,0,.45-2.09c-.62-4.57,2.9-8.44,7.89-8.71s8.89,3.32,8.81,7.89a4.65,4.65,0,0,0,.66,3.26,2.45,2.45,0,0,1-1.31,3.67,2.2,2.2,0,0,0-1.56,1.67,5.55,5.55,0,0,1-1.41,2.32c-1.71,1.89-1.44,2.81,1,3.71S81,44.05,83.35,45a4,4,0,0,1,2.82,3.79c.08,2,.27,4.06.47,6.09C86.73,55.74,86.45,56.09,85.5,56.09Z" transform="translate(0.04 0)"></path><path class="cls-2" d="M35.12,46.1c-2.68,1.09-4.93,2-7.21,2.93a6.78,6.78,0,0,0-4.73,5.68c-.15,1.19-.7,1.4-1.79,1.39q-7.74-.09-15.47,0c-1.27,0-1.72-.26-1.65-1.62.49-9.39,0-8.21,8-11.34,1-.38,2-.72,3-1.09,1.5-.57,1.91-1.86.81-3a6.92,6.92,0,0,1-2-3.38c-.14-.67-.72-.71-1.23-.95a2.65,2.65,0,0,1-1-4.42c.53-.65.32-1.14.28-1.72a8,8,0,0,1,8.27-8.86,7.91,7.91,0,0,1,8.29,8.75,2.62,2.62,0,0,0,.59,2.07,2.6,2.6,0,0,1-1.13,4,2.18,2.18,0,0,0-1.57,1.65,6.35,6.35,0,0,1-1.55,2.47c-1.35,1.49-1,2.73.8,3.43C28.75,43.28,31.93,44.19,35.12,46.1Z" transform="translate(0.04 0)"></path><path class="cls-2" d="M43.51,50.69c-.59,4.51-1.3,9-1.9,13.52-.13,1-.54,1.29-1.5,1.26-2.4,0-4.79,0-7.19,0s-4.5-.06-6.75,0c-1.15,0-1.67-.21-1.56-1.49.26-2.78.36-5.59.6-8.38a4.87,4.87,0,0,1,3.33-4.44c3.54-1.35,7.05-2.76,10.6-4.09C41.16,46.32,43.79,48.47,43.51,50.69Z" transform="translate(0.04 0)"></path><path class="cls-2" d="M64.86,65.48c-2.33-.07-4.66,0-7,0s-4.51,0-6.77,0c-1.09,0-1.66-.21-1.81-1.42-.55-4.31-1.23-8.61-1.78-12.92-.37-2.92,2-4.85,4.66-3.86q5.23,2,10.42,4a4.69,4.69,0,0,1,3.1,4.17c.27,2.86.36,5.75.61,8.61C66.4,65.25,65.93,65.51,64.86,65.48Z" transform="translate(0.04 0)"></path><path class="cls-2" d="M58.22,30.44c0-.76.37-1.67-.94-2-1.6-.39-3-3.72-2.06-5,.81-1.1,0-1.51-.57-2s-1-1.57-2.21-.65-4.64-.53-4.95-2c-.27-1.24-1.07-1.11-1.91-1.08s-1.78-.34-2.1,1.06-3.85,2.85-5,2-1.62.11-2.21.67-1.39.94-.57,2-.45,4.74-1.85,5c-1.24.2-1.26.91-1.16,1.79s-.52,1.93,1.1,2.22,2.82,3.85,1.91,5,0,1.51.55,2,.93,1.73,2.16.74c.9-.73,4.8.38,4.93,1.44.21,1.59,1.08,1.57,2.3,1.62s1.84-.39,1.87-1.6c0-.69.59-.79,1-.84,1.55-.19,3-2.42,5,.42a27.92,27.92,0,0,1,1.75-2.3c.55-.57.27-.91,0-1.43-.84-1.36.47-4.71,2.11-5.09C58.67,32.07,58.2,31.16,58.22,30.44ZM45.38,38a7.71,7.71,0,0,1,0-15.42,7.71,7.71,0,0,1,0,15.42Z" transform="translate(0.04 0)"></path></svg>