<svg xmlns="http://www.w3.org/2000/svg" id="Layer_1" data-name="Layer 1" viewBox="0 0 91 91"><defs><style>.cls-1{fill:#fff;}.cls-2{fill:#083264;}</style></defs><circle class="cls-1" cx="45.5" cy="45.5" r="45.5"></circle><path class="cls-2" d="M22,42.44a2.06,2.06,0,0,1,.34,1c0,.31-.41.56-.9.54s-.86-.24-.85-.63c0-.64.28-1,.71-1C21.49,42.38,21.76,42.18,22,42.44Z" transform="translate(0.04 0)"></path><path class="cls-2" d="M25.91,35.47A3.67,3.67,0,0,0,24.7,33.3a5.08,5.08,0,0,0-3.08-1.17c-2.29.06-4.13,1-4.68,3.21a.73.73,0,0,0,.62,1c.41,0,.49.22.4.56a3.43,3.43,0,0,0,1.29,3.84,2.7,2.7,0,0,0,1,.61,3.62,3.62,0,0,0,3.77-1,3.35,3.35,0,0,0,.82-3.37c-.11-.4-.07-.55.35-.59A.7.7,0,0,0,25.91,35.47Zm-4.53-2.63a.69.69,0,0,1,.74.68.75.75,0,0,1-.69.69.72.72,0,0,1-.71-.67A.67.67,0,0,1,21.38,32.84Zm3.51,2.94c-.1.14-.26.06-.38,0a7.09,7.09,0,0,0-4.11-.58,4,4,0,0,0-2.09.57c-.12.08-.29.14-.38,0s0-.29.16-.37a4,4,0,0,1,1.34-.56,7.74,7.74,0,0,1,1.95-.16,6.84,6.84,0,0,1,2.93.46,1.41,1.41,0,0,1,.43.27C24.85,35.5,25,35.6,24.89,35.78Z" transform="translate(0.04 0)"></path><path class="cls-2" d="M29.06,48.64a13.16,13.16,0,0,0-.89-3.28c-.81-1.74-2-3-4.11-3-.31,0-.53,0-.4.41.52,1.5-.25,2.67-1,3.85-.05.09-.13.21-.26.15s-.11-.18-.11-.29a8.94,8.94,0,0,0-.18-1.63c-.06-.35-.15-.63-.61-.38a.44.44,0,0,1-.32,0c-.37-.15-.48,0-.53.36a9,9,0,0,0-.19,1.63c0,.11,0,.23-.11.29s-.23-.07-.29-.17c-.23-.42-.48-.84-.69-1.27a3.43,3.43,0,0,1-.27-2.46c.07-.27,0-.51-.35-.5a4,4,0,0,0-3.43,1.86A9.55,9.55,0,0,0,14,47.47a18,18,0,0,0-.53,4c0,1.16,0,2.33,0,3.49a.62.62,0,0,1-.15.52c-.69.7-1.37,1.42-2.08,2.11-.23.22-.52.36-.31.75a.25.25,0,0,1-.08.3,15.35,15.35,0,0,0-1.39,1.63c-1,1-2,1.91-3,2.84-.15.14-.15.19,0,.32s.42.26.63,0l.45-.48c1.23-1.3,2.57-2.48,3.89-3.68.2-.18.34-.17.51,0,.36.39.75.76,1.11,1.16.18.2.35.25.54,0,.87-1,1.86-1.83,2.78-2.75.18-.19.28-.62.57-.51s.05.48.05.74Q17,64,17,70.06a1.8,1.8,0,0,0,.32,1.1,2.13,2.13,0,0,0,1.8,1.1,2.43,2.43,0,0,0,2-2.26c0-2.28,0-4.56,0-6.84h0c0-2.34,0-4.68,0-7,0-.24,0-.39.33-.38s.33.18.3.41a3,3,0,0,0,0,.43c0,4.39,0,8.79,0,13.19a2.29,2.29,0,0,0,.92,2,1.84,1.84,0,0,0,1.2.57,2.54,2.54,0,0,0,2-2.25c-.05-7.73.14-15.46-.1-23.19,0-.08,0-.2.09-.23s.17.08.21.15a.86.86,0,0,1,.09.27,21.68,21.68,0,0,1,.69,4.68c0,1.51,0,3-.05,4.53a1.3,1.3,0,1,0,2.6.1A35.18,35.18,0,0,0,29.06,48.64ZM14.29,58.81c-.77.64-.77.64-1.49-.07l-.45-.47c-.42-.39-.46-.6,0-1,.75-.62.49-.85,1.32,0l.72.67a.63.63,0,0,1,.24.37A.8.8,0,0,1,14.29,58.81Zm2.73-5c-.1.06-.18,0-.25-.07-.41-.46-.85-.83-.76-1.6a31.85,31.85,0,0,1,.73-5.05c0-.07,0-.16.06-.22s.08-.2.2-.18.08.15.08.24c0,.64,0,1.28,0,1.92v1.35c.06,1.05-.06,2.23.05,3.4C17.1,53.64,17.1,53.73,17,53.77Z" transform="translate(0.04 0)"></path><path class="cls-2" d="M31.32,26.33c-.71,0-1.41,0-2.12,0s-1.44,0-2.17,0c-.35,0-.44.16-.37.47a3.06,3.06,0,0,0,.41,1,2.74,2.74,0,0,0,2.68,1.1,3,3,0,0,0,2-2C31.79,26.56,31.75,26.32,31.32,26.33Zm-2.73,1.84c-.2,0-.43-.12-.41-.46a.48.48,0,1,1,.95.05C29.12,28,29,28.19,28.59,28.17Z" transform="translate(0.04 0)"></path><path class="cls-2" d="M26.58,25.29a9.93,9.93,0,0,0,0-1.22c0-.38.11-.55.51-.53.71,0,1.42,0,2.12,0h0c.71,0,1.42,0,2.12,0,.28,0,.42.1.42.38,0,.51,0,1,0,1.55,0,.3-.12.43-.42.42-1.42,0-2.83,0-4.24,0C26.69,25.89,26.53,25.72,26.58,25.29Z" transform="translate(0.04 0)"></path><path class="cls-2" d="M42.43,44.51c-.17-.17,0-.24.11-.33l4.09-4.09c.11-.1.19-.27.39-.19a.21.21,0,0,1,.11.21.55.55,0,0,1-.2.34c-1.43,1.28-2.73,2.68-4.08,4A.28.28,0,0,1,42.43,44.51Z" transform="translate(0.04 0)"></path><path class="cls-2" d="M48.33,41.23c.19.19,0,.34-.13.47l-4,4a.46.46,0,0,1-.3.2.29.29,0,0,1-.23-.16c-.08-.14,0-.23.1-.32.87-.86,1.72-1.73,2.61-2.56.5-.47,1-1,1.44-1.47C48,41.21,48.12,41,48.33,41.23Z" transform="translate(0.04 0)"></path><path class="cls-2" d="M50.14,38.13c.19.18,0,.33-.14.46l-6.36,6.33c-.84.84-1.67,1.69-2.5,2.54a.44.44,0,0,1-.27.17.22.22,0,0,1-.23-.11c-.09-.15,0-.22.12-.31l1.86-1.86,7.05-7.06C49.79,38.16,49.94,37.94,50.14,38.13Z" transform="translate(0.04 0)"></path><path class="cls-2" d="M65,39.88a.3.3,0,0,0-.33.13,11.93,11.93,0,0,1-1.25,1.31c-.94,1-1.88,2-2.9,2.86-.11.1-.18.22-.08.33a.3.3,0,0,0,.42,0c.12-.12.2-.27.32-.4,1.27-1.23,2.53-2.48,3.78-3.73a.39.39,0,0,0,.16-.28A.2.2,0,0,0,65,39.88Zm1.38,1.38a.23.23,0,0,0-.22-.15.42.42,0,0,0-.29.14c-.57.68-1.23,1.27-1.86,1.9s-1.43,1.5-2.22,2.18c-.16.14-.25.29-.06.47s.3,0,.43-.1c.75-.75,1.49-1.51,2.25-2.26.61-.6,1.17-1.25,1.83-1.81A.31.31,0,0,0,66.39,41.26Zm1.71-3.17a.31.31,0,0,0-.37.13c-1.16,1.27-2.45,2.42-3.67,3.63-1.75,1.75-3.48,3.52-5.21,5.28-.13.12-.37.24-.17.45s.34,0,.47-.13L63.54,43Q65.76,40.8,68,38.6a.6.6,0,0,0,.19-.31A.18.18,0,0,0,68.1,38.09Zm0,0a.31.31,0,0,0-.37.13c-1.16,1.27-2.45,2.42-3.67,3.63-1.75,1.75-3.48,3.52-5.21,5.28-.13.12-.37.24-.17.45s.34,0,.47-.13L63.54,43Q65.76,40.8,68,38.6a.6.6,0,0,0,.19-.31A.18.18,0,0,0,68.1,38.09Zm-1.71,3.17a.23.23,0,0,0-.22-.15.42.42,0,0,0-.29.14c-.57.68-1.23,1.27-1.86,1.9s-1.43,1.5-2.22,2.18c-.16.14-.25.29-.06.47s.3,0,.43-.1c.75-.75,1.49-1.51,2.25-2.26.61-.6,1.17-1.25,1.83-1.81A.31.31,0,0,0,66.39,41.26ZM65,39.88a.3.3,0,0,0-.33.13,11.93,11.93,0,0,1-1.25,1.31c-.94,1-1.88,2-2.9,2.86-.11.1-.18.22-.08.33a.3.3,0,0,0,.42,0c.12-.12.2-.27.32-.4,1.27-1.23,2.53-2.48,3.78-3.73a.39.39,0,0,0,.16-.28A.2.2,0,0,0,65,39.88Zm0,0a.3.3,0,0,0-.33.13,11.93,11.93,0,0,1-1.25,1.31c-.94,1-1.88,2-2.9,2.86-.11.1-.18.22-.08.33a.3.3,0,0,0,.42,0c.12-.12.2-.27.32-.4,1.27-1.23,2.53-2.48,3.78-3.73a.39.39,0,0,0,.16-.28A.2.2,0,0,0,65,39.88Zm1.38,1.38a.23.23,0,0,0-.22-.15.42.42,0,0,0-.29.14c-.57.68-1.23,1.27-1.86,1.9s-1.43,1.5-2.22,2.18c-.16.14-.25.29-.06.47s.3,0,.43-.1c.75-.75,1.49-1.51,2.25-2.26.61-.6,1.17-1.25,1.83-1.81A.31.31,0,0,0,66.39,41.26Zm1.71-3.17a.31.31,0,0,0-.37.13c-1.16,1.27-2.45,2.42-3.67,3.63-1.75,1.75-3.48,3.52-5.21,5.28-.13.12-.37.24-.17.45s.34,0,.47-.13L63.54,43Q65.76,40.8,68,38.6a.6.6,0,0,0,.19-.31A.18.18,0,0,0,68.1,38.09Zm0,0a.31.31,0,0,0-.37.13c-1.16,1.27-2.45,2.42-3.67,3.63-1.75,1.75-3.48,3.52-5.21,5.28-.13.12-.37.24-.17.45s.34,0,.47-.13L63.54,43Q65.76,40.8,68,38.6a.6.6,0,0,0,.19-.31A.18.18,0,0,0,68.1,38.09Zm-1.71,3.17a.23.23,0,0,0-.22-.15.42.42,0,0,0-.29.14c-.57.68-1.23,1.27-1.86,1.9s-1.43,1.5-2.22,2.18c-.16.14-.25.29-.06.47s.3,0,.43-.1c.75-.75,1.49-1.51,2.25-2.26.61-.6,1.17-1.25,1.83-1.81A.31.31,0,0,0,66.39,41.26ZM65,39.88a.3.3,0,0,0-.33.13,11.93,11.93,0,0,1-1.25,1.31c-.94,1-1.88,2-2.9,2.86-.11.1-.18.22-.08.33a.3.3,0,0,0,.42,0c.12-.12.2-.27.32-.4,1.27-1.23,2.53-2.48,3.78-3.73a.39.39,0,0,0,.16-.28A.2.2,0,0,0,65,39.88Zm0,0a.3.3,0,0,0-.33.13,11.93,11.93,0,0,1-1.25,1.31c-.94,1-1.88,2-2.9,2.86-.11.1-.18.22-.08.33a.3.3,0,0,0,.42,0c.12-.12.2-.27.32-.4,1.27-1.23,2.53-2.48,3.78-3.73a.39.39,0,0,0,.16-.28A.2.2,0,0,0,65,39.88Zm1.38,1.38a.23.23,0,0,0-.22-.15.42.42,0,0,0-.29.14c-.57.68-1.23,1.27-1.86,1.9s-1.43,1.5-2.22,2.18c-.16.14-.25.29-.06.47s.3,0,.43-.1c.75-.75,1.49-1.51,2.25-2.26.61-.6,1.17-1.25,1.83-1.81A.31.31,0,0,0,66.39,41.26Zm1.71-3.17a.31.31,0,0,0-.37.13c-1.16,1.27-2.45,2.42-3.67,3.63-1.75,1.75-3.48,3.52-5.21,5.28-.13.12-.37.24-.17.45s.34,0,.47-.13L63.54,43Q65.76,40.8,68,38.6a.6.6,0,0,0,.19-.31A.18.18,0,0,0,68.1,38.09Zm0,0a.31.31,0,0,0-.37.13c-1.16,1.27-2.45,2.42-3.67,3.63-1.75,1.75-3.48,3.52-5.21,5.28-.13.12-.37.24-.17.45s.34,0,.47-.13L63.54,43Q65.76,40.8,68,38.6a.6.6,0,0,0,.19-.31A.18.18,0,0,0,68.1,38.09Zm-1.93,3a.42.42,0,0,0-.29.14c-.57.68-1.23,1.27-1.86,1.9s-1.43,1.5-2.22,2.18c-.16.14-.25.29-.06.47s.3,0,.43-.1c.75-.75,1.49-1.51,2.25-2.26.61-.6,1.17-1.25,1.83-1.81a.31.31,0,0,0,.14-.37A.23.23,0,0,0,66.17,41.11Zm-5.3,3.41c.12-.12.2-.27.32-.4,1.27-1.23,2.53-2.48,3.78-3.73a.39.39,0,0,0,.16-.28.2.2,0,0,0-.12-.23.3.3,0,0,0-.33.13,11.93,11.93,0,0,1-1.25,1.31c-.94,1-1.88,2-2.9,2.86-.11.1-.18.22-.08.33A.3.3,0,0,0,60.87,44.52ZM78.29,63.8c0-.28-.08-.39-.37-.39-.76,0-1.51,0-2.27,0-.28,0-.39-.09-.37-.38s0-.69,0-1q0-8.42,0-16.83V24.5c0-1,0-1-1-1H41.58c-2.51,0-5,0-7.54,0-.4,0-.52.13-.5.52s0,.91,0,1.36V48.74c0,4.71,0,9.43,0,14.14,0,.45-.14.57-.56.55-.69,0-1.38,0-2.07,0-.34,0-.44.13-.42.45a9,9,0,0,1,0,1c0,.56,0,.6.53.6H54.44v0H70.23l7.63,0c.34,0,.45-.1.43-.43S78.28,64.22,78.29,63.8Zm-26-21h0c0,2.13,0,4.27,0,6.41,0,.36-.2.36-.45.36H39c-.29,0-.42-.09-.41-.43.08-2,0-4,0-5.93s0-3.74,0-5.61a6.55,6.55,0,0,0-.05-1.17c0-.4.12-.49.48-.49,3.83,0,7.66,0,11.5,0,.41,0,.81,0,1.22,0s.48.08.48.44c0,1.46,0,2.92,0,4.38Zm18-.66c0,2.13,0,4.27,0,6.4,0,1,0,1-1,1H57.05c-.39,0-.51-.13-.49-.53,0-.88,0-1.76,0-2.64q0-4.71,0-9.42v-.14c0-.88,0-.87.88-.87h5.94v0c2.12,0,4.24,0,6.36,0,.28,0,.5,0,.49.39C70.17,38.3,70.23,40.23,70.22,42.17ZM68.1,38.09a.31.31,0,0,0-.37.13c-1.16,1.27-2.45,2.42-3.67,3.63-1.75,1.75-3.48,3.52-5.21,5.28-.13.12-.37.24-.17.45s.34,0,.47-.13L63.54,43Q65.76,40.8,68,38.6a.6.6,0,0,0,.19-.31A.18.18,0,0,0,68.1,38.09Zm-1.93,3a.42.42,0,0,0-.29.14c-.57.68-1.23,1.27-1.86,1.9s-1.43,1.5-2.22,2.18c-.16.14-.25.29-.06.47s.3,0,.43-.1c.75-.75,1.49-1.51,2.25-2.26.61-.6,1.17-1.25,1.83-1.81a.31.31,0,0,0,.14-.37A.23.23,0,0,0,66.17,41.11Zm-5.3,3.41c.12-.12.2-.27.32-.4,1.27-1.23,2.53-2.48,3.78-3.73a.39.39,0,0,0,.16-.28.2.2,0,0,0-.12-.23.3.3,0,0,0-.33.13,11.93,11.93,0,0,1-1.25,1.31c-.94,1-1.88,2-2.9,2.86-.11.1-.18.22-.08.33A.3.3,0,0,0,60.87,44.52ZM65,39.88a.3.3,0,0,0-.33.13,11.93,11.93,0,0,1-1.25,1.31c-.94,1-1.88,2-2.9,2.86-.11.1-.18.22-.08.33a.3.3,0,0,0,.42,0c.12-.12.2-.27.32-.4,1.27-1.23,2.53-2.48,3.78-3.73a.39.39,0,0,0,.16-.28A.2.2,0,0,0,65,39.88Zm1.38,1.38a.23.23,0,0,0-.22-.15.42.42,0,0,0-.29.14c-.57.68-1.23,1.27-1.86,1.9s-1.43,1.5-2.22,2.18c-.16.14-.25.29-.06.47s.3,0,.43-.1c.75-.75,1.49-1.51,2.25-2.26.61-.6,1.17-1.25,1.83-1.81A.31.31,0,0,0,66.39,41.26Zm1.71-3.17a.31.31,0,0,0-.37.13c-1.16,1.27-2.45,2.42-3.67,3.63-1.75,1.75-3.48,3.52-5.21,5.28-.13.12-.37.24-.17.45s.34,0,.47-.13L63.54,43Q65.76,40.8,68,38.6a.6.6,0,0,0,.19-.31A.18.18,0,0,0,68.1,38.09Zm0,0a.31.31,0,0,0-.37.13c-1.16,1.27-2.45,2.42-3.67,3.63-1.75,1.75-3.48,3.52-5.21,5.28-.13.12-.37.24-.17.45s.34,0,.47-.13L63.54,43Q65.76,40.8,68,38.6a.6.6,0,0,0,.19-.31A.18.18,0,0,0,68.1,38.09Zm-1.71,3.17a.23.23,0,0,0-.22-.15.42.42,0,0,0-.29.14c-.57.68-1.23,1.27-1.86,1.9s-1.43,1.5-2.22,2.18c-.16.14-.25.29-.06.47s.3,0,.43-.1c.75-.75,1.49-1.51,2.25-2.26.61-.6,1.17-1.25,1.83-1.81A.31.31,0,0,0,66.39,41.26ZM65,39.88a.3.3,0,0,0-.33.13,11.93,11.93,0,0,1-1.25,1.31c-.94,1-1.88,2-2.9,2.86-.11.1-.18.22-.08.33a.3.3,0,0,0,.42,0c.12-.12.2-.27.32-.4,1.27-1.23,2.53-2.48,3.78-3.73a.39.39,0,0,0,.16-.28A.2.2,0,0,0,65,39.88Zm0,0a.3.3,0,0,0-.33.13,11.93,11.93,0,0,1-1.25,1.31c-.94,1-1.88,2-2.9,2.86-.11.1-.18.22-.08.33a.3.3,0,0,0,.42,0c.12-.12.2-.27.32-.4,1.27-1.23,2.53-2.48,3.78-3.73a.39.39,0,0,0,.16-.28A.2.2,0,0,0,65,39.88Zm1.38,1.38a.23.23,0,0,0-.22-.15.42.42,0,0,0-.29.14c-.57.68-1.23,1.27-1.86,1.9s-1.43,1.5-2.22,2.18c-.16.14-.25.29-.06.47s.3,0,.43-.1c.75-.75,1.49-1.51,2.25-2.26.61-.6,1.17-1.25,1.83-1.81A.31.31,0,0,0,66.39,41.26Zm1.71-3.17a.31.31,0,0,0-.37.13c-1.16,1.27-2.45,2.42-3.67,3.63-1.75,1.75-3.48,3.52-5.21,5.28-.13.12-.37.24-.17.45s.34,0,.47-.13L63.54,43Q65.76,40.8,68,38.6a.6.6,0,0,0,.19-.31A.18.18,0,0,0,68.1,38.09Zm0,0a.31.31,0,0,0-.37.13c-1.16,1.27-2.45,2.42-3.67,3.63-1.75,1.75-3.48,3.52-5.21,5.28-.13.12-.37.24-.17.45s.34,0,.47-.13L63.54,43Q65.76,40.8,68,38.6a.6.6,0,0,0,.19-.31A.18.18,0,0,0,68.1,38.09Zm-1.71,3.17a.23.23,0,0,0-.22-.15.42.42,0,0,0-.29.14c-.57.68-1.23,1.27-1.86,1.9s-1.43,1.5-2.22,2.18c-.16.14-.25.29-.06.47s.3,0,.43-.1c.75-.75,1.49-1.51,2.25-2.26.61-.6,1.17-1.25,1.83-1.81A.31.31,0,0,0,66.39,41.26ZM65,39.88a.3.3,0,0,0-.33.13,11.93,11.93,0,0,1-1.25,1.31c-.94,1-1.88,2-2.9,2.86-.11.1-.18.22-.08.33a.3.3,0,0,0,.42,0c.12-.12.2-.27.32-.4,1.27-1.23,2.53-2.48,3.78-3.73a.39.39,0,0,0,.16-.28A.2.2,0,0,0,65,39.88Z" transform="translate(0.04 0)"></path><path class="cls-2" d="M81.83,22.79H23.35c-.38,0-.55-.1-.53-.51a7.1,7.1,0,0,0,0-1.22c0-.31.11-.39.38-.38s.41,0,.61,0H81.17c.22,0,.44,0,.66,0a.72.72,0,0,1-.53.15H24c-1,0-1,0-1,1,0,.66.08.72.74.74H80.82A1.54,1.54,0,0,1,81.83,22.79Z" transform="translate(0.04 0)"></path><path class="cls-2" d="M81.83,20.72v2.07H23.35c-.38,0-.55-.1-.53-.51a7.1,7.1,0,0,0,0-1.22c0-.31.11-.39.38-.38s.41,0,.61,0H81.17C81.39,20.68,81.61,20.71,81.83,20.72Z" transform="translate(0.04 0)"></path><path class="cls-2" d="M42.43,44.51c-.17-.17,0-.24.11-.33l4.09-4.09c.11-.1.19-.27.39-.19a.21.21,0,0,1,.11.21.55.55,0,0,1-.2.34c-1.43,1.28-2.73,2.68-4.08,4A.28.28,0,0,1,42.43,44.51Z" transform="translate(0.04 0)"></path><path class="cls-2" d="M48.33,41.23c.19.19,0,.34-.13.47l-4,4a.46.46,0,0,1-.3.2.29.29,0,0,1-.23-.16c-.08-.14,0-.23.1-.32.87-.86,1.72-1.73,2.61-2.56.5-.47,1-1,1.44-1.47C48,41.21,48.12,41,48.33,41.23Z" transform="translate(0.04 0)"></path><path class="cls-2" d="M50.14,38.13c.19.18,0,.33-.14.46l-6.36,6.33c-.84.84-1.67,1.69-2.5,2.54a.44.44,0,0,1-.27.17.22.22,0,0,1-.23-.11c-.09-.15,0-.22.12-.31l1.86-1.86,7.05-7.06C49.79,38.16,49.94,37.94,50.14,38.13Z" transform="translate(0.04 0)"></path><path class="cls-2" d="M65,39.88a.3.3,0,0,0-.33.13,11.93,11.93,0,0,1-1.25,1.31c-.94,1-1.88,2-2.9,2.86-.11.1-.18.22-.08.33a.3.3,0,0,0,.42,0c.12-.12.2-.27.32-.4,1.27-1.23,2.53-2.48,3.78-3.73a.39.39,0,0,0,.16-.28A.2.2,0,0,0,65,39.88Zm1.38,1.38a.23.23,0,0,0-.22-.15.42.42,0,0,0-.29.14c-.57.68-1.23,1.27-1.86,1.9s-1.43,1.5-2.22,2.18c-.16.14-.25.29-.06.47s.3,0,.43-.1c.75-.75,1.49-1.51,2.25-2.26.61-.6,1.17-1.25,1.83-1.81A.31.31,0,0,0,66.39,41.26Zm1.71-3.17a.31.31,0,0,0-.37.13c-1.16,1.27-2.45,2.42-3.67,3.63-1.75,1.75-3.48,3.52-5.21,5.28-.13.12-.37.24-.17.45s.34,0,.47-.13L63.54,43Q65.76,40.8,68,38.6a.6.6,0,0,0,.19-.31A.18.18,0,0,0,68.1,38.09Zm0,0a.31.31,0,0,0-.37.13c-1.16,1.27-2.45,2.42-3.67,3.63-1.75,1.75-3.48,3.52-5.21,5.28-.13.12-.37.24-.17.45s.34,0,.47-.13L63.54,43Q65.76,40.8,68,38.6a.6.6,0,0,0,.19-.31A.18.18,0,0,0,68.1,38.09Zm-1.71,3.17a.23.23,0,0,0-.22-.15.42.42,0,0,0-.29.14c-.57.68-1.23,1.27-1.86,1.9s-1.43,1.5-2.22,2.18c-.16.14-.25.29-.06.47s.3,0,.43-.1c.75-.75,1.49-1.51,2.25-2.26.61-.6,1.17-1.25,1.83-1.81A.31.31,0,0,0,66.39,41.26ZM65,39.88a.3.3,0,0,0-.33.13,11.93,11.93,0,0,1-1.25,1.31c-.94,1-1.88,2-2.9,2.86-.11.1-.18.22-.08.33a.3.3,0,0,0,.42,0c.12-.12.2-.27.32-.4,1.27-1.23,2.53-2.48,3.78-3.73a.39.39,0,0,0,.16-.28A.2.2,0,0,0,65,39.88Zm0,0a.3.3,0,0,0-.33.13,11.93,11.93,0,0,1-1.25,1.31c-.94,1-1.88,2-2.9,2.86-.11.1-.18.22-.08.33a.3.3,0,0,0,.42,0c.12-.12.2-.27.32-.4,1.27-1.23,2.53-2.48,3.78-3.73a.39.39,0,0,0,.16-.28A.2.2,0,0,0,65,39.88Zm1.38,1.38a.23.23,0,0,0-.22-.15.42.42,0,0,0-.29.14c-.57.68-1.23,1.27-1.86,1.9s-1.43,1.5-2.22,2.18c-.16.14-.25.29-.06.47s.3,0,.43-.1c.75-.75,1.49-1.51,2.25-2.26.61-.6,1.17-1.25,1.83-1.81A.31.31,0,0,0,66.39,41.26Zm1.71-3.17a.31.31,0,0,0-.37.13c-1.16,1.27-2.45,2.42-3.67,3.63-1.75,1.75-3.48,3.52-5.21,5.28-.13.12-.37.24-.17.45s.34,0,.47-.13L63.54,43Q65.76,40.8,68,38.6a.6.6,0,0,0,.19-.31A.18.18,0,0,0,68.1,38.09Zm0,0a.31.31,0,0,0-.37.13c-1.16,1.27-2.45,2.42-3.67,3.63-1.75,1.75-3.48,3.52-5.21,5.28-.13.12-.37.24-.17.45s.34,0,.47-.13L63.54,43Q65.76,40.8,68,38.6a.6.6,0,0,0,.19-.31A.18.18,0,0,0,68.1,38.09Zm-1.71,3.17a.23.23,0,0,0-.22-.15.42.42,0,0,0-.29.14c-.57.68-1.23,1.27-1.86,1.9s-1.43,1.5-2.22,2.18c-.16.14-.25.29-.06.47s.3,0,.43-.1c.75-.75,1.49-1.51,2.25-2.26.61-.6,1.17-1.25,1.83-1.81A.31.31,0,0,0,66.39,41.26ZM65,39.88a.3.3,0,0,0-.33.13,11.93,11.93,0,0,1-1.25,1.31c-.94,1-1.88,2-2.9,2.86-.11.1-.18.22-.08.33a.3.3,0,0,0,.42,0c.12-.12.2-.27.32-.4,1.27-1.23,2.53-2.48,3.78-3.73a.39.39,0,0,0,.16-.28A.2.2,0,0,0,65,39.88Zm0,0a.3.3,0,0,0-.33.13,11.93,11.93,0,0,1-1.25,1.31c-.94,1-1.88,2-2.9,2.86-.11.1-.18.22-.08.33a.3.3,0,0,0,.42,0c.12-.12.2-.27.32-.4,1.27-1.23,2.53-2.48,3.78-3.73a.39.39,0,0,0,.16-.28A.2.2,0,0,0,65,39.88Zm1.38,1.38a.23.23,0,0,0-.22-.15.42.42,0,0,0-.29.14c-.57.68-1.23,1.27-1.86,1.9s-1.43,1.5-2.22,2.18c-.16.14-.25.29-.06.47s.3,0,.43-.1c.75-.75,1.49-1.51,2.25-2.26.61-.6,1.17-1.25,1.83-1.81A.31.31,0,0,0,66.39,41.26Zm1.71-3.17a.31.31,0,0,0-.37.13c-1.16,1.27-2.45,2.42-3.67,3.63-1.75,1.75-3.48,3.52-5.21,5.28-.13.12-.37.24-.17.45s.34,0,.47-.13L63.54,43Q65.76,40.8,68,38.6a.6.6,0,0,0,.19-.31A.18.18,0,0,0,68.1,38.09Zm0,0a.31.31,0,0,0-.37.13c-1.16,1.27-2.45,2.42-3.67,3.63-1.75,1.75-3.48,3.52-5.21,5.28-.13.12-.37.24-.17.45s.34,0,.47-.13L63.54,43Q65.76,40.8,68,38.6a.6.6,0,0,0,.19-.31A.18.18,0,0,0,68.1,38.09Zm-1.93,3a.42.42,0,0,0-.29.14c-.57.68-1.23,1.27-1.86,1.9s-1.43,1.5-2.22,2.18c-.16.14-.25.29-.06.47s.3,0,.43-.1c.75-.75,1.49-1.51,2.25-2.26.61-.6,1.17-1.25,1.83-1.81a.31.31,0,0,0,.14-.37A.23.23,0,0,0,66.17,41.11Zm-5.3,3.41c.12-.12.2-.27.32-.4,1.27-1.23,2.53-2.48,3.78-3.73a.39.39,0,0,0,.16-.28.2.2,0,0,0-.12-.23.3.3,0,0,0-.33.13,11.93,11.93,0,0,1-1.25,1.31c-.94,1-1.88,2-2.9,2.86-.11.1-.18.22-.08.33A.3.3,0,0,0,60.87,44.52ZM78.29,63.8c0-.28-.08-.39-.37-.39-.76,0-1.51,0-2.27,0-.28,0-.39-.09-.37-.38s0-.69,0-1q0-8.42,0-16.83V24.5c0-1,0-1-1-1H41.58c-2.51,0-5,0-7.54,0-.4,0-.52.13-.5.52s0,.91,0,1.36V48.74c0,4.71,0,9.43,0,14.14,0,.45-.14.57-.56.55-.69,0-1.38,0-2.07,0-.34,0-.44.13-.42.45a9,9,0,0,1,0,1c0,.56,0,.6.53.6H54.44v0H70.23l7.63,0c.34,0,.45-.1.43-.43S78.28,64.22,78.29,63.8Zm-26-21h0c0,2.13,0,4.27,0,6.41,0,.36-.2.36-.45.36H39c-.29,0-.42-.09-.41-.43.08-2,0-4,0-5.93s0-3.74,0-5.61a6.55,6.55,0,0,0-.05-1.17c0-.4.12-.49.48-.49,3.83,0,7.66,0,11.5,0,.41,0,.81,0,1.22,0s.48.08.48.44c0,1.46,0,2.92,0,4.38Zm18-.66c0,2.13,0,4.27,0,6.4,0,1,0,1-1,1H57.05c-.39,0-.51-.13-.49-.53,0-.88,0-1.76,0-2.64q0-4.71,0-9.42v-.14c0-.88,0-.87.88-.87h5.94v0c2.12,0,4.24,0,6.36,0,.28,0,.5,0,.49.39C70.17,38.3,70.23,40.23,70.22,42.17ZM68.1,38.09a.31.31,0,0,0-.37.13c-1.16,1.27-2.45,2.42-3.67,3.63-1.75,1.75-3.48,3.52-5.21,5.28-.13.12-.37.24-.17.45s.34,0,.47-.13L63.54,43Q65.76,40.8,68,38.6a.6.6,0,0,0,.19-.31A.18.18,0,0,0,68.1,38.09Zm-1.93,3a.42.42,0,0,0-.29.14c-.57.68-1.23,1.27-1.86,1.9s-1.43,1.5-2.22,2.18c-.16.14-.25.29-.06.47s.3,0,.43-.1c.75-.75,1.49-1.51,2.25-2.26.61-.6,1.17-1.25,1.83-1.81a.31.31,0,0,0,.14-.37A.23.23,0,0,0,66.17,41.11Zm-5.3,3.41c.12-.12.2-.27.32-.4,1.27-1.23,2.53-2.48,3.78-3.73a.39.39,0,0,0,.16-.28.2.2,0,0,0-.12-.23.3.3,0,0,0-.33.13,11.93,11.93,0,0,1-1.25,1.31c-.94,1-1.88,2-2.9,2.86-.11.1-.18.22-.08.33A.3.3,0,0,0,60.87,44.52ZM65,39.88a.3.3,0,0,0-.33.13,11.93,11.93,0,0,1-1.25,1.31c-.94,1-1.88,2-2.9,2.86-.11.1-.18.22-.08.33a.3.3,0,0,0,.42,0c.12-.12.2-.27.32-.4,1.27-1.23,2.53-2.48,3.78-3.73a.39.39,0,0,0,.16-.28A.2.2,0,0,0,65,39.88Zm1.38,1.38a.23.23,0,0,0-.22-.15.42.42,0,0,0-.29.14c-.57.68-1.23,1.27-1.86,1.9s-1.43,1.5-2.22,2.18c-.16.14-.25.29-.06.47s.3,0,.43-.1c.75-.75,1.49-1.51,2.25-2.26.61-.6,1.17-1.25,1.83-1.81A.31.31,0,0,0,66.39,41.26Zm1.71-3.17a.31.31,0,0,0-.37.13c-1.16,1.27-2.45,2.42-3.67,3.63-1.75,1.75-3.48,3.52-5.21,5.28-.13.12-.37.24-.17.45s.34,0,.47-.13L63.54,43Q65.76,40.8,68,38.6a.6.6,0,0,0,.19-.31A.18.18,0,0,0,68.1,38.09Zm0,0a.31.31,0,0,0-.37.13c-1.16,1.27-2.45,2.42-3.67,3.63-1.75,1.75-3.48,3.52-5.21,5.28-.13.12-.37.24-.17.45s.34,0,.47-.13L63.54,43Q65.76,40.8,68,38.6a.6.6,0,0,0,.19-.31A.18.18,0,0,0,68.1,38.09Zm-1.71,3.17a.23.23,0,0,0-.22-.15.42.42,0,0,0-.29.14c-.57.68-1.23,1.27-1.86,1.9s-1.43,1.5-2.22,2.18c-.16.14-.25.29-.06.47s.3,0,.43-.1c.75-.75,1.49-1.51,2.25-2.26.61-.6,1.17-1.25,1.83-1.81A.31.31,0,0,0,66.39,41.26ZM65,39.88a.3.3,0,0,0-.33.13,11.93,11.93,0,0,1-1.25,1.31c-.94,1-1.88,2-2.9,2.86-.11.1-.18.22-.08.33a.3.3,0,0,0,.42,0c.12-.12.2-.27.32-.4,1.27-1.23,2.53-2.48,3.78-3.73a.39.39,0,0,0,.16-.28A.2.2,0,0,0,65,39.88Zm0,0a.3.3,0,0,0-.33.13,11.93,11.93,0,0,1-1.25,1.31c-.94,1-1.88,2-2.9,2.86-.11.1-.18.22-.08.33a.3.3,0,0,0,.42,0c.12-.12.2-.27.32-.4,1.27-1.23,2.53-2.48,3.78-3.73a.39.39,0,0,0,.16-.28A.2.2,0,0,0,65,39.88Zm1.38,1.38a.23.23,0,0,0-.22-.15.42.42,0,0,0-.29.14c-.57.68-1.23,1.27-1.86,1.9s-1.43,1.5-2.22,2.18c-.16.14-.25.29-.06.47s.3,0,.43-.1c.75-.75,1.49-1.51,2.25-2.26.61-.6,1.17-1.25,1.83-1.81A.31.31,0,0,0,66.39,41.26Zm1.71-3.17a.31.31,0,0,0-.37.13c-1.16,1.27-2.45,2.42-3.67,3.63-1.75,1.75-3.48,3.52-5.21,5.28-.13.12-.37.24-.17.45s.34,0,.47-.13L63.54,43Q65.76,40.8,68,38.6a.6.6,0,0,0,.19-.31A.18.18,0,0,0,68.1,38.09Zm0,0a.31.31,0,0,0-.37.13c-1.16,1.27-2.45,2.42-3.67,3.63-1.75,1.75-3.48,3.52-5.21,5.28-.13.12-.37.24-.17.45s.34,0,.47-.13L63.54,43Q65.76,40.8,68,38.6a.6.6,0,0,0,.19-.31A.18.18,0,0,0,68.1,38.09Zm-1.71,3.17a.23.23,0,0,0-.22-.15.42.42,0,0,0-.29.14c-.57.68-1.23,1.27-1.86,1.9s-1.43,1.5-2.22,2.18c-.16.14-.25.29-.06.47s.3,0,.43-.1c.75-.75,1.49-1.51,2.25-2.26.61-.6,1.17-1.25,1.83-1.81A.31.31,0,0,0,66.39,41.26ZM65,39.88a.3.3,0,0,0-.33.13,11.93,11.93,0,0,1-1.25,1.31c-.94,1-1.88,2-2.9,2.86-.11.1-.18.22-.08.33a.3.3,0,0,0,.42,0c.12-.12.2-.27.32-.4,1.27-1.23,2.53-2.48,3.78-3.73a.39.39,0,0,0,.16-.28A.2.2,0,0,0,65,39.88Z" transform="translate(0.04 0)"></path><path class="cls-2" d="M29.06,48.64a13.16,13.16,0,0,0-.89-3.28c-.81-1.74-2-3-4.11-3-.31,0-.53,0-.4.41.52,1.5-.25,2.67-1,3.85-.05.09-.13.21-.26.15s-.11-.18-.11-.29a8.94,8.94,0,0,0-.18-1.63c-.06-.35-.15-.63-.61-.38a.44.44,0,0,1-.32,0c-.37-.15-.48,0-.53.36a9,9,0,0,0-.19,1.63c0,.11,0,.23-.11.29s-.23-.07-.29-.17c-.23-.42-.48-.84-.69-1.27a3.43,3.43,0,0,1-.27-2.46c.07-.27,0-.51-.35-.5a4,4,0,0,0-3.43,1.86A9.55,9.55,0,0,0,14,47.47a18,18,0,0,0-.53,4c0,1.16,0,2.33,0,3.49a.62.62,0,0,1-.15.52c-.69.7-1.37,1.42-2.08,2.11-.23.22-.52.36-.31.75a.25.25,0,0,1-.08.3,15.35,15.35,0,0,0-1.39,1.63c-1,1-2,1.91-3,2.84-.15.14-.15.19,0,.32s.42.26.63,0l.45-.48c1.23-1.3,2.57-2.48,3.89-3.68.2-.18.34-.17.51,0,.36.39.75.76,1.11,1.16.18.2.35.25.54,0,.87-1,1.86-1.83,2.78-2.75.18-.19.28-.62.57-.51s.05.48.05.74Q17,64,17,70.06a1.8,1.8,0,0,0,.32,1.1,2.13,2.13,0,0,0,1.8,1.1,2.43,2.43,0,0,0,2-2.26c0-2.28,0-4.56,0-6.84h0c0-2.34,0-4.68,0-7,0-.24,0-.39.33-.38s.33.18.3.41a3,3,0,0,0,0,.43c0,4.39,0,8.79,0,13.19a2.29,2.29,0,0,0,.92,2,1.84,1.84,0,0,0,1.2.57,2.54,2.54,0,0,0,2-2.25c-.05-7.73.14-15.46-.1-23.19,0-.08,0-.2.09-.23s.17.08.21.15a.86.86,0,0,1,.09.27,21.68,21.68,0,0,1,.69,4.68c0,1.51,0,3-.05,4.53a1.3,1.3,0,1,0,2.6.1A35.18,35.18,0,0,0,29.06,48.64ZM14.29,58.81c-.77.64-.77.64-1.49-.07l-.45-.47c-.42-.39-.46-.6,0-1,.75-.62.49-.85,1.32,0l.72.67a.63.63,0,0,1,.24.37A.8.8,0,0,1,14.29,58.81Zm2.73-5c-.1.06-.18,0-.25-.07-.41-.46-.85-.83-.76-1.6a31.85,31.85,0,0,1,.73-5.05c0-.07,0-.16.06-.22s.08-.2.2-.18.08.15.08.24c0,.64,0,1.28,0,1.92v1.35c.06,1.05-.06,2.23.05,3.4C17.1,53.64,17.1,53.73,17,53.77Z" transform="translate(0.04 0)"></path><path class="cls-2" d="M25.91,35.47A3.67,3.67,0,0,0,24.7,33.3a5.08,5.08,0,0,0-3.08-1.17c-2.29.06-4.13,1-4.68,3.21a.73.73,0,0,0,.62,1c.41,0,.49.22.4.56a3.43,3.43,0,0,0,1.29,3.84,2.7,2.7,0,0,0,1,.61,3.62,3.62,0,0,0,3.77-1,3.35,3.35,0,0,0,.82-3.37c-.11-.4-.07-.55.35-.59A.7.7,0,0,0,25.91,35.47Zm-4.53-2.63a.69.69,0,0,1,.74.68.75.75,0,0,1-.69.69.72.72,0,0,1-.71-.67A.67.67,0,0,1,21.38,32.84Zm3.51,2.94c-.1.14-.26.06-.38,0a7.09,7.09,0,0,0-4.11-.58,4,4,0,0,0-2.09.57c-.12.08-.29.14-.38,0s0-.29.16-.37a4,4,0,0,1,1.34-.56,7.74,7.74,0,0,1,1.95-.16,6.84,6.84,0,0,1,2.93.46,1.41,1.41,0,0,1,.43.27C24.85,35.5,25,35.6,24.89,35.78Z" transform="translate(0.04 0)"></path><path class="cls-2" d="M31.78,25.47c0,.3-.12.43-.42.42-1.42,0-2.83,0-4.24,0-.43,0-.59-.17-.54-.6a9.93,9.93,0,0,0,0-1.22c0-.38.11-.55.51-.53.71,0,1.42,0,2.12,0h0c.71,0,1.42,0,2.12,0,.28,0,.42.1.42.38C31.77,24.43,31.77,25,31.78,25.47Z" transform="translate(0.04 0)"></path><path class="cls-2" d="M31.32,26.33c-.71,0-1.41,0-2.12,0s-1.44,0-2.17,0c-.35,0-.44.16-.37.47a3.06,3.06,0,0,0,.41,1,2.74,2.74,0,0,0,2.68,1.1,3,3,0,0,0,2-2C31.79,26.56,31.75,26.32,31.32,26.33Zm-2.73,1.84c-.2,0-.43-.12-.41-.46a.48.48,0,1,1,.95.05C29.12,28,29,28.19,28.59,28.17Z" transform="translate(0.04 0)"></path><path class="cls-2" d="M22.3,43.45c0,.31-.41.56-.9.54s-.86-.24-.85-.63c0-.64.28-1,.71-1,.23,0,.5-.18.7.08A2.06,2.06,0,0,1,22.3,43.45Z" transform="translate(0.04 0)"></path><path class="cls-2" d="M60.45,44.51c-.1-.11,0-.23.08-.33,1-.89,2-1.88,2.9-2.86A11.93,11.93,0,0,0,64.68,40a.3.3,0,0,1,.33-.13.2.2,0,0,1,.12.23.39.39,0,0,1-.16.28c-1.25,1.25-2.51,2.5-3.78,3.73-.12.13-.2.28-.32.4A.3.3,0,0,1,60.45,44.51Z" transform="translate(0.04 0)"></path><path class="cls-2" d="M66.39,41.26a.31.31,0,0,1-.14.37c-.66.56-1.22,1.21-1.83,1.81-.76.75-1.5,1.51-2.25,2.26-.13.13-.26.27-.43.1s-.1-.33.06-.47c.79-.68,1.49-1.45,2.22-2.18s1.29-1.22,1.86-1.9a.42.42,0,0,1,.29-.14A.23.23,0,0,1,66.39,41.26Z" transform="translate(0.04 0)"></path><path class="cls-2" d="M68.19,38.29a.6.6,0,0,1-.19.31q-2.23,2.2-4.46,4.42l-4.39,4.43c-.13.13-.28.31-.47.13s0-.33.17-.45c1.73-1.76,3.46-3.53,5.21-5.28,1.22-1.21,2.51-2.36,3.67-3.63a.31.31,0,0,1,.37-.13A.18.18,0,0,1,68.19,38.29Z" transform="translate(0.04 0)"></path><path class="cls-2" d="M42.43,44.51c-.17-.17,0-.24.11-.33l4.09-4.09c.11-.1.19-.27.39-.19a.21.21,0,0,1,.11.21.55.55,0,0,1-.2.34c-1.43,1.28-2.73,2.68-4.08,4A.28.28,0,0,1,42.43,44.51Z" transform="translate(0.04 0)"></path><path class="cls-2" d="M48.33,41.23c.19.19,0,.34-.13.47l-4,4a.46.46,0,0,1-.3.2.29.29,0,0,1-.23-.16c-.08-.14,0-.23.1-.32.87-.86,1.72-1.73,2.61-2.56.5-.47,1-1,1.44-1.47C48,41.21,48.12,41,48.33,41.23Z" transform="translate(0.04 0)"></path><path class="cls-2" d="M50,38.59l-6.36,6.33c-.84.84-1.67,1.69-2.5,2.54a.44.44,0,0,1-.27.17.22.22,0,0,1-.23-.11c-.09-.15,0-.22.12-.31l1.86-1.86,7.05-7.06c.12-.13.27-.35.47-.16S50.13,38.46,50,38.59Z" transform="translate(0.04 0)"></path><path class="cls-2" d="M68.19,38.29a.6.6,0,0,1-.19.31q-2.23,2.2-4.46,4.42l-4.39,4.43c-.13.13-.28.31-.47.13s0-.33.17-.45c1.73-1.76,3.46-3.53,5.21-5.28,1.22-1.21,2.51-2.36,3.67-3.63a.31.31,0,0,1,.37-.13A.18.18,0,0,1,68.19,38.29Z" transform="translate(0.04 0)"></path><path class="cls-2" d="M66.25,41.63c-.66.56-1.22,1.21-1.83,1.81-.76.75-1.5,1.51-2.25,2.26-.13.13-.26.27-.43.1s-.1-.33.06-.47c.79-.68,1.49-1.45,2.22-2.18s1.29-1.22,1.86-1.9a.42.42,0,0,1,.29-.14.23.23,0,0,1,.22.15A.31.31,0,0,1,66.25,41.63Z" transform="translate(0.04 0)"></path><path class="cls-2" d="M65.13,40.11a.39.39,0,0,1-.16.28c-1.25,1.25-2.51,2.5-3.78,3.73-.12.13-.2.28-.32.4a.3.3,0,0,1-.42,0c-.1-.11,0-.23.08-.33,1-.89,2-1.88,2.9-2.86A11.93,11.93,0,0,0,64.68,40a.3.3,0,0,1,.33-.13A.2.2,0,0,1,65.13,40.11Z" transform="translate(0.04 0)"></path><path class="cls-2" d="M50,38.59l-6.36,6.33c-.84.84-1.67,1.69-2.5,2.54a.44.44,0,0,1-.27.17.22.22,0,0,1-.23-.11c-.09-.15,0-.22.12-.31l1.86-1.86,7.05-7.06c.12-.13.27-.35.47-.16S50.13,38.46,50,38.59Z" transform="translate(0.04 0)"></path><path class="cls-2" d="M48.2,41.7l-4,4a.46.46,0,0,1-.3.2.29.29,0,0,1-.23-.16c-.08-.14,0-.23.1-.32.87-.86,1.72-1.73,2.61-2.56.5-.47,1-1,1.44-1.47.14-.15.29-.35.5-.13S48.33,41.57,48.2,41.7Z" transform="translate(0.04 0)"></path><path class="cls-2" d="M47.13,40.11a.55.55,0,0,1-.2.34c-1.43,1.28-2.73,2.68-4.08,4a.28.28,0,0,1-.42,0c-.17-.17,0-.24.11-.33l4.09-4.09c.11-.1.19-.27.39-.19A.21.21,0,0,1,47.13,40.11Z" transform="translate(0.04 0)"></path></svg>