<svg xmlns="http://www.w3.org/2000/svg" id="Layer_1" data-name="Layer 1" viewBox="0 0 91 91"><defs><style>.cls-1{fill:#fff;}.cls-2{fill:#083264;}</style></defs><circle class="cls-1" cx="45.5" cy="45.5" r="45.5"></circle><path class="cls-2" d="M79.17,38.75a10.76,10.76,0,0,0-19.42-9,8.8,8.8,0,0,0-1.16,6.45c.12.57.26,1.14.38,1.71a4.08,4.08,0,0,1-.22,2.51,1.76,1.76,0,0,0,.94,2.52l4.36,2.17c1.51.75,3,1.51,4.52,2.25A1.74,1.74,0,0,0,71,46.57a3.83,3.83,0,0,1,1.69-1.64c.44-.22.89-.43,1.36-.62A8.93,8.93,0,0,0,79.17,38.75Zm-5.63,4.41c-.51.21-1,.45-1.51.71a4.69,4.69,0,0,0-2,1.91c-.34.61-.45.63-1.09.31L64.64,44,60.31,41.8c-.56-.28-.63-.45-.37-1a4.93,4.93,0,0,0,.27-3.17c-.11-.54-.24-1.06-.36-1.59A7.62,7.62,0,0,1,61,30.14a9.5,9.5,0,0,1,17.1,7.91A7.73,7.73,0,0,1,73.54,43.16Z" transform="translate(0 0)"></path><path class="cls-2" d="M66.58,49.87a.67.67,0,0,1-.92.15c-.63-.3-1.26-.62-1.88-.93L59.49,47c-.83-.42-.91-.67-.51-1.48l.63-1.27,7.85,3.91C67.17,48.71,66.91,49.31,66.58,49.87Z" transform="translate(0 0)"></path><path class="cls-2" d="M62.2,51.71a2.2,2.2,0,0,1-2.18-1A1.84,1.84,0,0,1,60,48.63l3.81,1.89A1.86,1.86,0,0,1,62.2,51.71Z" transform="translate(0 0)"></path><path class="cls-2" d="M75.34,23.87a.63.63,0,1,1-1.13-.54c.54-1.1,1.09-2.2,1.64-3.29a.63.63,0,1,1,1.11.58l-.82,1.65Z" transform="translate(0 0)"></path><path class="cls-2" d="M82,24.65a3.23,3.23,0,0,1-.56.35c-1.15.4-2.32.79-3.48,1.18a.63.63,0,1,1-.38-1.2c1.15-.4,2.31-.8,3.48-1.16a.94.94,0,0,1,.72.17C82,24.1,82,24.4,82,24.65Z" transform="translate(0 0)"></path><path class="cls-2" d="M72,22.83c-.23.09-.45.28-.62.24a1,1,0,0,1-.59-.45,16.81,16.81,0,0,1-.6-1.73c-.2-.59-.41-1.19-.6-1.78a.65.65,0,0,1,.37-.88.62.62,0,0,1,.82.47q.6,1.74,1.17,3.48A3.82,3.82,0,0,1,72,22.83Z" transform="translate(0 0)"></path><path class="cls-2" d="M75.64,37.32c.25-.51.21-.7-.23-1.07l-1-.86,1.15-.7c.49-.31.56-.49.39-1s-.36-1.08-.55-1.62-.36-.67-1-.61l-1.33.12c.13-.52.24-1,.34-1.4a.68.68,0,0,0-.41-.87l-1.57-.78c-.56-.28-.74-.24-1.14.23l-.84,1c-.28-.45-.52-.82-.74-1.2a.7.7,0,0,0-.94-.34L66,28.78c-.48.17-.6.36-.55.87s.08.87.13,1.38c-.51-.11-1-.2-1.39-.32a.69.69,0,0,0-.9.42l-.71,1.42c-.36.73-.33.86.3,1.37.28.23.56.48.88.76l-1.17.71c-.44.28-.52.48-.36,1s.35,1,.52,1.54c.24.71.37.79,1.12.72l1.19-.11c-.13.53-.23,1-.34,1.41a.66.66,0,0,0,.4.84l1.64.82c.5.25.71.2,1.07-.24l.86-1c.28.45.52.83.75,1.22a.71.71,0,0,0,.91.34l1.66-.56c.61-.21.7-.36.64-1,0-.41-.08-.81-.13-1.28l1.38.33a.69.69,0,0,0,.9-.42C75.1,38.39,75.38,37.86,75.64,37.32Zm-8,.6A3.21,3.21,0,1,1,72,36.44,3.22,3.22,0,0,1,67.69,37.92Z" transform="translate(0 0)"></path><path class="cls-2" d="M55.66,30.65C56.91,36.38,53.55,42.8,48,45.4a13.87,13.87,0,0,1-19.7-13.48c.12-1.83.1-1.79,1.65-.93,8.31,4.64,16.64,4.63,25,.06C55.13,30.91,55.34,30.68,55.66,30.65Z" transform="translate(0 0)"></path><path class="cls-2" d="M60,15.91c-1.35-.35-2.71-.66-4.07-1A59.17,59.17,0,0,1,44,9.9a2.91,2.91,0,0,0-2.95,0,56.65,56.65,0,0,1-16.17,6,2,2,0,0,0-1.72,1.46,2.14,2.14,0,0,0,.65,2.25c.91.88,1.77,1.81,2.69,2.67a1.78,1.78,0,0,1,.63,1.5,3.69,3.69,0,0,0,1.47,3.23,22.51,22.51,0,0,0,13.81,4.81c.84-.05,1.69-.08,2.54-.17a23.86,23.86,0,0,0,10.82-4.26,4.16,4.16,0,0,0,2.11-3.9,1.2,1.2,0,0,1,.44-1c.92-.9,1.83-1.82,2.74-2.74C62.57,18.27,62.07,16.45,60,15.91ZM45.44,18.45c.8,2.56-1,4.09-2.71,4.71a.77.77,0,0,1-.4,0,4,4,0,0,1-3-3.77c0-.19.1-.57.21-.93s.23-.78,0-1c-.53-.74,0-1.06.44-1.47.21-.22.41-.34.68-.09a.34.34,0,0,0,.23.08c1.14-.14,2.33.23,3.42-.12.58-.19.67.19.92.4s.62.39.29.85A1.49,1.49,0,0,0,45.44,18.45Z" transform="translate(0 0)"></path><path class="cls-2" d="M69.76,63.66a7.41,7.41,0,0,0-2.94-6.14A32,32,0,0,0,58.94,53a37.66,37.66,0,0,0-6.47-2.12c-.58-.12-.85,0-1,.63-.64,2.07-1.35,4.11-2,6.16-.35,1-.49,1.06-1.28.27-1.86-1.83-3.72-3.66-5.56-5.51-.37-.38-.57-.4-1,0C39.74,54.29,37.86,56.13,36,58c-.71.7-.9.65-1.18-.29-.49-1.68-1-3.37-1.48-5.05-.62-2.12-.68-2.16-2.83-1.51a44.92,44.92,0,0,0-12.82,6.17,7.19,7.19,0,0,0-3.29,6.19c0,4.26,0,8.52,0,12.77,0,.67.19.8.82.8,7,0,14.07,0,21.1,0,.76,0,1.78.34,2.21-.14s.23-1.46.28-2.22c.25-3.56.51-7.12.73-10.69,0-.59.19-.85.86-.8a24.57,24.57,0,0,0,3.21,0c.85-.06,1.09.22,1.14,1.06.22,4,.54,8.06.77,12.09,0,.63.25.74.82.73,3.77,0,7.53,0,11.29,0s7.64,0,11.46,0c.57,0,.73-.14.72-.72Q69.74,70,69.76,63.66ZM45.42,58.48c-.24.78-.41,1.59-.59,2.39-.09.43-.25.65-.75.61-.68-.06-1.37,0-2,0s-1.32,0-2,0-.68-.18-.75-.61A3.65,3.65,0,0,0,39.1,60a2.5,2.5,0,0,1,1-3.47,12.47,12.47,0,0,0,1.63-1.62c.27-.29.45-.28.72,0q1.38,1.43,2.79,2.79A.68.68,0,0,1,45.42,58.48ZM60.77,63c.81,2.47-.76,4.45-3.15,5.3a.61.61,0,0,1-.4,0c-2-.74-4-2.45-3.19-5.2A2.22,2.22,0,0,0,54,61.38c-.2-.36.63-1.55,1-1.53.34.24.75.52,1.12.39a3.64,3.64,0,0,1,2.54,0,.58.58,0,0,0,.47-.1c.9-.62,1.26.17,1.76.63.23.21.11.38,0,.58A1.9,1.9,0,0,0,60.77,63Z" transform="translate(0 0)"></path><path class="cls-2" d="M69.76,63.66a7.41,7.41,0,0,0-2.94-6.14A32,32,0,0,0,58.94,53a37.66,37.66,0,0,0-6.47-2.12c-.58-.12-.85,0-1,.63-.64,2.07-1.35,4.11-2,6.16-.35,1-.49,1.06-1.28.27-1.86-1.83-3.72-3.66-5.56-5.51-.37-.38-.57-.4-1,0C39.74,54.29,37.86,56.13,36,58c-.71.7-.9.65-1.18-.29-.49-1.68-1-3.37-1.48-5.05-.62-2.12-.68-2.16-2.83-1.51a44.92,44.92,0,0,0-12.82,6.17,7.19,7.19,0,0,0-3.29,6.19c0,4.26,0,8.52,0,12.77,0,.67.19.8.82.8,7,0,14.07,0,21.1,0,.76,0,1.78.34,2.21-.14s.23-1.46.28-2.22c.25-3.56.51-7.12.73-10.69,0-.59.19-.85.86-.8a24.57,24.57,0,0,0,3.21,0c.85-.06,1.09.22,1.14,1.06.22,4,.54,8.06.77,12.09,0,.63.25.74.82.73,3.77,0,7.53,0,11.29,0s7.64,0,11.46,0c.57,0,.73-.14.72-.72Q69.74,70,69.76,63.66ZM45.42,58.48c-.24.78-.41,1.59-.59,2.39-.09.43-.25.65-.75.61-.68-.06-1.37,0-2,0s-1.32,0-2,0-.68-.18-.75-.61A3.65,3.65,0,0,0,39.1,60a2.5,2.5,0,0,1,1-3.47,12.47,12.47,0,0,0,1.63-1.62c.27-.29.45-.28.72,0q1.38,1.43,2.79,2.79A.68.68,0,0,1,45.42,58.48ZM60.77,63c.81,2.47-.76,4.45-3.15,5.3a.61.61,0,0,1-.4,0c-2-.74-4-2.45-3.19-5.2A2.22,2.22,0,0,0,54,61.38c-.2-.36.63-1.55,1-1.53.34.24.75.52,1.12.39a3.64,3.64,0,0,1,2.54,0,.58.58,0,0,0,.47-.1c.9-.62,1.26.17,1.76.63.23.21.11.38,0,.58A1.9,1.9,0,0,0,60.77,63Z" transform="translate(0 0)"></path><path class="cls-2" d="M60,15.91c-1.35-.35-2.71-.66-4.07-1A59.17,59.17,0,0,1,44,9.9a2.91,2.91,0,0,0-2.95,0,56.65,56.65,0,0,1-16.17,6,2,2,0,0,0-1.72,1.46,2.14,2.14,0,0,0,.65,2.25c.91.88,1.77,1.81,2.69,2.67a1.78,1.78,0,0,1,.63,1.5,3.69,3.69,0,0,0,1.47,3.23,22.51,22.51,0,0,0,13.81,4.81c.84-.05,1.69-.08,2.54-.17a23.86,23.86,0,0,0,10.82-4.26,4.16,4.16,0,0,0,2.11-3.9,1.2,1.2,0,0,1,.44-1c.92-.9,1.83-1.82,2.74-2.74C62.57,18.27,62.07,16.45,60,15.91ZM45.44,18.45c.8,2.56-1,4.09-2.71,4.71a.77.77,0,0,1-.4,0,4,4,0,0,1-3-3.77c0-.19.1-.57.21-.93s.23-.78,0-1c-.53-.74,0-1.06.44-1.47.21-.22.41-.34.68-.09a.34.34,0,0,0,.23.08c1.14-.14,2.33.23,3.42-.12.58-.19.67.19.92.4s.62.39.29.85A1.49,1.49,0,0,0,45.44,18.45Z" transform="translate(0 0)"></path><path class="cls-2" d="M48,45.4a13.87,13.87,0,0,1-19.7-13.48c.12-1.83.1-1.79,1.65-.93,8.31,4.64,16.64,4.63,25,.06.26-.14.47-.37.79-.4C56.91,36.38,53.55,42.8,48,45.4Z" transform="translate(0 0)"></path></svg>