<svg xmlns="http://www.w3.org/2000/svg" xmlns:xlink="http://www.w3.org/1999/xlink" id="Layer_1" x="0px" y="0px" viewBox="0 0 45 45" style="enable-background:new 0 0 45 45;" xml:space="preserve"> <style type="text/css"> .st0{fill-rule:evenodd;clip-rule:evenodd;fill:#FFFFFF;} .st1{fill-rule:evenodd;clip-rule:evenodd;fill:#0A2852;} </style> <g> <circle class="st0" cx="22.5" cy="22.5" r="22.5"></circle> <path class="st1" d="M15.44,17.04c-0.04,1.37-1.22,3.64,0.62,6.73c0.45,0.76,0.9,1.01,1.2,1.7c-0.52,0.37-8.71,1.09-8.71,10.28 c0,2.22-0.24,2.86,1.6,2.86h24.59c1.81,0,1.88-1.03,1.54-4.2c-0.49-4.62-3.77-8.3-8.67-8.73c-0.05-0.67,1.14-1.22,1.89-3.41 c0.74-2.17,0.23-3.05-0.07-5.05c0.57-1,0.82-0.63,1.09-2.19c0.14-0.86,0.77-1.35,1.27-1.94c3.03-3.58,2.59-2.92-4.21-5.19 c-7.21-2.41-3.67-1.91-14.86,1.48c-3.67,1.11,1.07,3.43,1.61,5.35c0.17,0.59,0,0.78,0.32,1.34C14.86,16.4,15.21,16.69,15.44,17.04 L15.44,17.04z M10.43,35.91c-0.44-2.9,1.92-7.14,4.9-7.87c1.64,4.32,1.08,5.02,5.09,1.45c0.59-0.52,0.47-0.62,1.24-0.76 c0.02,1.64,0.19,6.51-0.11,7.95l-11.02-0.01L10.43,35.91L10.43,35.91z M23.55,28.74c0.77,0.17,2.74,2.32,3.47,2.78 c1.83,1.13,2.11-2.15,2.64-3.36c2.56,0.29,5.68,5.06,4.68,8.53l-6.33,0.01c-5.29,0.02-4.5,0.44-4.5-1.97L23.55,28.74L23.55,28.74z M27.68,18.05c1.19,4.03-1.46,7.45-5.23,7.47c-3.52,0.02-6.78-3.73-5.22-7.43c1.25-0.04,1.87,0.67,5.22,0.65 C26.06,18.73,25.74,18.23,27.68,18.05L27.68,18.05z M14.06,10.98c0.37-0.23,8.03-2.68,8.4-2.69c0.5-0.01,7.91,2.38,8.43,2.69 c-0.14,0.83-1.31,1.75-1.65,2.37c-1.32,0.05-4.63-1.26-10.32-0.5c-0.93,0.12-2.26,0.49-3.03,0.49 C15.53,13.03,14.17,11.55,14.06,10.98L14.06,10.98z M16.59,15.36c1.21-1.06,10.97-1.13,11.74,0 C27.24,17.32,17.62,17.33,16.59,15.36L16.59,15.36z M27.03,35.25c-0.1-1.02,0.12-1.37,1.13-1.44c0.85-0.06,4.6-0.37,3.45,1.46 c-0.33,0.53-1.32,0.43-2.09,0.43C28.16,35.71,27.84,35.86,27.03,35.25L27.03,35.25z M17.71,29.12l-0.47-1.64l2.41-0.02 C19.37,28.08,18.4,28.93,17.71,29.12L17.71,29.12z M27.34,29c-0.71-0.06-1.64-0.97-1.91-1.53l2.31,0.02 C27.74,28.09,27.62,28.48,27.34,29z"></path> </g> </svg>