<svg xmlns="http://www.w3.org/2000/svg" xmlns:xlink="http://www.w3.org/1999/xlink" id="Layer_1" x="0px" y="0px" viewBox="0 0 91 91" style="enable-background:new 0 0 91 91;" xml:space="preserve"> <style type="text/css"> .st0{fill-rule:evenodd;clip-rule:evenodd;fill:#FFFFFF;} .st1{fill-rule:evenodd;clip-rule:evenodd;fill:#0B2852;} .st2{fill-rule:evenodd;clip-rule:evenodd;fill:#4D82B6;} </style> <g> <circle class="st0" cx="45.5" cy="45.5" r="45.5"></circle> <g> <path class="st1" d="M39.42,13.62c-0.99,6.32,0.45,4.89-2.47,6.02c-2.34,0.9-4.06,1.99-6.28,2.29c-1.53-1.72-1.7-2.15-3.75-3.18 c-2.75,1.6-6.65,5.48-8.25,8.22c1.02,2.19,1.42,2.2,3.2,3.78c-0.32,2.19-1.42,3.92-2.33,6.26c-0.98,2.53,1,1.58-5.97,2.45 c-0.84,4.02-0.79,8.05-0.03,12.05c6.52,0.8,4.95-0.26,6,2.45c0.9,2.35,2,4.05,2.32,6.24c-1.74,1.61-2.14,1.6-3.18,3.78 c1.52,2.64,5.59,6.77,8.26,8.23c2.09-1.04,2.19-1.48,3.78-3.16c2.18,0.26,3.97,1.4,6.24,2.28c2.68,1.04,1.46-0.8,2.47,6.01 c3.89,0.83,8.12,0.84,11.99-0.01c0.77-5.57,0.86-5.23-2.07-8.84c-11.87,0.64-19.83-3.83-23.99-11.32 c-5.47-9.86-3.47-20,2.82-27.25c13.34-15.39,40.2-6.53,40.45,16.06c1.17,0.76,2.89,1.55,4.15,2.42c1.59,1.1,2.19,2.62,4.04,3.18 c1.96-2.68,1.2-8.69,0.45-12.07l-5.1-0.6c-1.05-2.21-2.94-6.2-3.19-8.16c1.7-1.55,2.12-1.63,3.16-3.71 c-1.54-2.71-5.56-6.72-8.24-8.29c-2.01,0.97-2.26,1.53-3.8,3.13c-2.16-0.2-3.95-1.37-6.22-2.24c-2.56-0.98-1.41,0.19-2.01-1.78 c-0.16-0.53-0.35-3.38-0.47-4.24C47.47,12.81,43.36,12.85,39.42,13.62z"></path> <path class="st1" d="M59.92,46.88c-19.2,4.61-11.36,33.05,7.17,28.14c4.19-1.11,6.09-2.96,8.18-5.86 c1.97-2.73,3.16-7.22,2.23-11.43C75.95,50.72,69.02,44.69,59.92,46.88L59.92,46.88z M51.55,56.7c2.43-1.36,6.1-0.55,7.82-2.28 c1.9-1.91,1.7-4.77,3.98-6.16c2.21,1.52,2.31,4.44,3.96,6.16c1.68,1.75,5.31,0.9,7.82,2.28c-0.46,3.17-3.37,2.83-4.63,6.03 c-1.13,2.86,2.3,8.5-0.8,8.19c-1.14-0.11,0.23,0.13-0.72-0.19c-1.05-0.35-4.41-2.63-5.63-2.63c-2.51,0.66-5.34,3.32-7.35,2.71 c-0.67-1.49-0.24-2.47,0.12-4.54C57.37,59.05,52.1,61.27,51.55,56.7z"></path> <path class="st1" d="M33.72,63.99l3.17,1.82c0.31-3.46,0.14-8.58,1.41-11.07c1.33,1.68,0.01,9.01-0.2,11.65 c3.44,0.82,6.72,1.37,10.65,0.88c-1.14-5.34-2.37-10.47,2.31-16.16c1.5-1.81,2.42-1.58,3.58-4.02 c-3.88-0.66-14.09-1.67-17.72-0.04C32.25,49.14,33.24,58.34,33.72,63.99z"></path> <path class="st2" d="M52.85,57.4c5.06,5.76,5.28,1.93,3.89,12.24c2.25-0.67,4.65-2.58,6.61-2.57c2.43,0.01,3.95,2.16,6.58,2.51 c-1.23-7.52-0.77-8.32,3.86-12.13c-2.27-0.7-5.22-0.41-7.04-1.89c-1.62-1.32-2.05-3.82-3.39-5.55c-1.35,1.53-1.97,4.38-3.36,5.58 C58.48,56.87,55.2,56.75,52.85,57.4z"></path> <path class="st1" d="M44.23,30.09c-7.15,2.04-4.76,14.29,2.58,12.35C53.55,40.67,51.16,28.11,44.23,30.09z"></path> </g> </g> </svg>