<svg xmlns="http://www.w3.org/2000/svg" id="Layer_1" data-name="Layer 1" viewBox="0 0 90 90"><defs><style>.cls-1{fill:#fff;}.cls-2{fill:#083264;}</style></defs><circle class="cls-1" cx="45" cy="45" r="45"></circle><path class="cls-2" d="M61.16,50.69a14.48,14.48,0,0,0-6.8,9.6c0,.07,0,.13,0,.2-.09.62,0,1.56-.33,1.78s-1.33.14-2,.15c-1.84,0-3.69,0-5.54,0-.72,0-.85-.22-.85-.89q0-7.68,0-15.36c0-.71.14-1,.91-.94,1.14.06,2.29,0,3.44,0,.81,0,1.42-.3,1.41-1.17S50.69,43,49.88,43c-3.62,0-7.25,0-10.87,0-.8,0-1.43.25-1.44,1.13s.61,1.17,1.41,1.16c1.22,0,2.44,0,3.66,0,.44,0,.7.05.7.6,0,5.4,0,10.81,0,16.21,0,.06-.06.12-.1.18a3.88,3.88,0,0,1-1.44.08c-4.42,0-8.83,0-13.25,0-1,0-1.11-.4-1.11-1.16,0-2.64,0-5.29,0-7.93,0-3.54-.11-7.09.08-10.63,0-.25,0-.5-.21-.66a16.13,16.13,0,0,1,6.36-12.3C39,25.45,45,24.57,51.22,27.25S61,34.94,61.62,41.79a56.62,56.62,0,0,1,0,8.54c-.31.07-.35-.14-.35-.36,0-2,0-4.06,0-6.09,0,1.4,0,2.81,0,4.22A11.22,11.22,0,0,1,61.16,50.69Z"></path><path class="cls-2" d="M80,60.51c-1.65-8.44-12.17-12.34-18.8-7-.35.34-.13,1.34-1.1,1a10.9,10.9,0,0,0-3.67,8A11.38,11.38,0,0,0,62.82,73.6a11.23,11.23,0,0,0,12.67-1.07A11.4,11.4,0,0,0,80,60.51ZM73.7,64.17c-1.12,0-2.23,0-3.34,0-.76,0-.94.23-.91.94,0,1.11,0,2.23,0,3.34,0,.8-.3,1.4-1.19,1.37s-1.07-.6-1.09-1.35a23.85,23.85,0,0,0-.12-4.14c-1.6-.34-3.23,0-4.85-.16a1.21,1.21,0,0,1-.64-1.46c.22-.75.88-.75,1.48-.85h.41a17.54,17.54,0,0,0,3.55,0c.35-.18.17-.49.17-.74,0-1.34,0-2.69,0-4,.34-.54.77-.92,1.46-.7s.81.79.81,1.42c0,1,.05,2.09,0,3.13,0,.79.14,1.11,1,1,1.08-.08,2.16,0,3.24,0,.79,0,1.43.28,1.44,1.15S74.51,64.18,73.7,64.17Z"></path><path class="cls-2" d="M59.49,75q-19.33,0-38.67,0c-.64,0-.85-.16-.83-.81C20,72.79,20,71.4,20,70a5.12,5.12,0,0,1,5.27-5.29H53.39c.39,0,.79-.14.9.53a14.31,14.31,0,0,0,5.63,9.31C60,75,59.62,74.81,59.49,75Z"></path><path class="cls-2" d="M74.91,44.23H72c-.78,0-1.29-.37-1.27-1.18s.5-1.1,1.24-1.1H77.9c.78,0,1.29.36,1.28,1.18s-.53,1.09-1.25,1.1C76.92,44.24,75.91,44.23,74.91,44.23Z"></path><path class="cls-2" d="M14,41.94h2.91a1.14,1.14,0,1,1,0,2.28c-2,0-3.95,0-5.93,0-.77,0-1.29-.38-1.27-1.18A1.09,1.09,0,0,1,11,41.94Z"></path><path class="cls-2" d="M27.68,12.84a1.16,1.16,0,0,1,1,.65l3,5.15a1.09,1.09,0,0,1-.32,1.64,1.1,1.1,0,0,1-1.66-.52c-1-1.71-2-3.42-3-5.15A1.13,1.13,0,0,1,27.68,12.84Z"></path><path class="cls-2" d="M58.25,20.47c-1-.1-1.48-.9-1.08-1.63,1-1.83,2.06-3.64,3.11-5.43A1,1,0,0,1,61.81,13a1,1,0,0,1,.42,1.52c-1,1.82-2.07,3.62-3.12,5.43A1,1,0,0,1,58.25,20.47Z"></path><path class="cls-2" d="M73.54,25.15a1.11,1.11,0,0,1,1.08.75.93.93,0,0,1-.32,1.21c-1.88,1.13-3.76,2.24-5.68,3.29a1,1,0,0,1-1.42-.51,1,1,0,0,1,.3-1.39c1.84-1.12,3.72-2.18,5.59-3.25A1.6,1.6,0,0,1,73.54,25.15Z"></path><path class="cls-2" d="M15.5,25.17a1.62,1.62,0,0,1,.71.29l4.7,2.71c.65.37,1.19.82.81,1.66-.3.67-1.13.79-1.94.33l-4.87-2.82a1.13,1.13,0,0,1-.59-1.41C14.46,25.45,14.83,25.2,15.5,25.17Z"></path><path class="cls-2" d="M45.51,16a1.08,1.08,0,0,1-1.42.69c-.63-.2-.77-.72-.77-1.32,0-1.9,0-3.8,0-5.71a1.16,1.16,0,0,1,.79-1.3,1.06,1.06,0,0,1,1.4.71Z"></path><path class="cls-2" d="M27.28,62.24a1.83,1.83,0,0,1-.09-.39V43a7.8,7.8,0,0,1,.09-.83c.46,0,.32.38.32.62q0,9.43,0,18.86C27.6,61.86,27.76,62.23,27.28,62.24Z"></path><path class="cls-2" d="M27.28,62.24c.33-.26.22-.64.22-1V43.12c0-.33.11-.7-.22-1V42c.38-.17.57-.12.55.38-.29,6.35-.05,12.71-.13,19.07,0,.49,0,.75.71.77,4.93.16,9.87,0,14.8.08-.11.25-.35.17-.54.17H27.81C27.62,62.42,27.38,62.52,27.28,62.24Z"></path><path class="cls-2" d="M61.16,50.69c-.45-.46.06-.91,0-1.38a43.72,43.72,0,0,1,.17-6.05c0,1.76,0,3.52,0,5.28,0,.6-.26,1.25.24,1.79C61.58,50.59,61.37,50.64,61.16,50.69Z"></path><path class="cls-2" d="M61.18,53.5c.29.37-.24.64-.1,1s-.32.41-.57.46c-.42.09-.16-.46-.44-.53A3.15,3.15,0,0,1,61.18,53.5Z"></path><path class="cls-2" d="M59.49,75l.43-.41c.2,0,.51.19.41.33S59.78,75,59.49,75Z"></path><path class="cls-2" d="M31.85,33.26a2,2,0,0,1-.43.21.19.19,0,0,1-.23-.24.25.25,0,0,1,.21-.16A2.33,2.33,0,0,1,31.85,33.26Z"></path><path class="cls-2" d="M67.06,64.3a8,8,0,0,0-2.12.07l-.15,0a6.17,6.17,0,0,1-1,0,7,7,0,0,1-1.62-.29C63.83,64.27,65.46,64,67.06,64.3Z"></path><path class="cls-2" d="M67,61.79a17.54,17.54,0,0,1-3.55,0h-.41a.78.78,0,0,1,.5-.23h.92c.47,0,1,0,1.42,0,.32,0,.64,0,1-.08.43-.2.25-.59.26-.91.06-1.2-.07-2.4.07-3.6,0,1.35,0,2.7,0,4C67.18,61.3,67.36,61.61,67,61.79Z"></path><path class="cls-2" d="M67,61.79a12.8,12.8,0,0,0-3.55,0h-.41c-.11-.13-.22-.26-.38-.43.85,0,1.65,0,2.45,0,.47,0,1,.25,1.36-.43.18-.36.27.31.5.2.19-1.38-.2-2.78.21-4.14,0,1.35,0,2.7,0,4C67.18,61.3,67.36,61.61,67,61.79Z"></path><path class="cls-2" d="M67.06,64.3c-.1.1-.23.29-.3.27-1.14-.35-2.2.43-3.33.21-.49-.08-.79-.47-1.22-.64C63.83,64.27,65.46,64,67.06,64.3Z"></path><path class="cls-2" d="M73.7,64.69H70.63V64.6H73.7Z"></path><path class="cls-2" d="M61.15,71.92l-.82-.64a1.33,1.33,0,0,1,.19,0C60.88,71.24,61.12,71.39,61.15,71.92Z"></path><path class="cls-2" d="M61.5,63.94c0,.15,0,.27-.12.21a.33.33,0,0,1-.17-.24c0-.07,0-.17.07-.26Z"></path><path class="cls-2" d="M45.45,10v.22a34.77,34.77,0,0,0,0,5v.64a.5.5,0,0,1-.46-.58c.19-1.55,0-3.1.08-4.65C45.07,10.29,45.08,10,45.45,10Z"></path><path class="cls-2" d="M45.45,15.17a14.48,14.48,0,0,1,0-5Z"></path><path class="cls-2" d="M67,61.79a17.54,17.54,0,0,1-3.55,0,5.25,5.25,0,0,1,1-.23,6.13,6.13,0,0,1,1.42,0A10.47,10.47,0,0,1,67,61.79Z"></path><path class="cls-2" d="M65.05,64.48H63.68A1.76,1.76,0,0,1,65.05,64.48Z"></path></svg>