<svg xmlns="http://www.w3.org/2000/svg" xmlns:xlink="http://www.w3.org/1999/xlink" xml:space="preserve" width="91px" height="91px" style="shape-rendering:geometricPrecision; text-rendering:geometricPrecision; image-rendering:optimizeQuality; fill-rule:evenodd; clip-rule:evenodd" viewBox="0 0 6.7 6.7"> <defs> <style type="text/css"> .fil1 {fill:#083264} .fil0 {fill:white} </style> </defs> <g id="Layer_x0020_1"> <metadata id="CorelCorpID_0Corel-Layer"></metadata> <g id="_1718159096384"> <circle class="fil0" cx="3.35" cy="3.35" r="3.35"></circle> <g> <path class="fil1" d="M1.17 3.48l0 0.29c0.02,0.03 0.02,0.06 0.05,0.08 0.08,0.06 0.23,0.04 0.24,-0.12 0,-0.13 -0.01,-0.42 0.04,-0.51 0.06,0.06 0.04,0.3 0.04,0.4 -0.01,0.24 0,0.21 -0.13,0.32 -0.01,0.24 0,0.5 0,0.74 0,0.12 -0.02,0.24 0.06,0.29 0.09,0.05 0.19,0.02 0.22,-0.1 0.01,-0.28 0,-0.57 0,-0.85 0,-0.06 0.03,-0.12 0.1,-0.1 0.07,0.02 0.06,0.09 0.06,0.16 0,0.15 0,0.29 0,0.43 0.04,0 0.08,-0.05 0.21,-0.07 -0.03,-0.07 -0.1,-0.13 -0.08,-0.28 0.02,-0.1 0.08,-0.19 0.14,-0.23 0.01,-0.03 0.02,0.01 0.02,-0.08l0 -0.34c0.01,-0.14 0.02,-0.28 0.03,-0.42l0.23 0.09c0.1,0 0.2,0 0.29,0.01 0.11,0 0.19,0.02 0.25,-0.06 0.06,-0.07 0.03,-0.16 -0.03,-0.2 -0.04,-0.03 -0.2,-0.04 -0.26,-0.03 -0.06,-0.01 -0.16,0.01 -0.21,-0.01 -0.15,-0.05 -0.29,-0.15 -0.49,-0.16 -0.02,0.09 -0.03,0.2 -0.05,0.29 -0.01,0.05 -0.09,0.17 -0.13,0.21 -0.02,-0.03 -0.05,-0.07 -0.07,-0.1 -0.03,-0.04 -0.05,-0.05 -0.06,-0.11 -0.01,-0.07 -0.03,-0.24 -0.05,-0.29 -0.06,0 -0.19,0.02 -0.24,0.06 -0.05,0.04 -0.06,0.13 -0.08,0.2 -0.02,0.08 -0.04,0.15 -0.07,0.23 -0.05,0.17 -0.01,0.2 -0.03,0.26z"></path> <path class="fil1" d="M2.83 2.83l0.06 0c-0.02,-0.08 -0.06,-0.15 -0.09,-0.31 -0.02,-0.1 -0.04,-0.24 -0.03,-0.36 0.18,-0.04 0.33,-0.11 0.47,-0.19 0.17,-0.1 0.24,-0.16 0.38,-0.27l0.02 -0.01c0.02,0.01 0.07,0.05 0.09,0.08 0.02,0 0.14,0.1 0.17,0.12 0.16,0.1 0.43,0.25 0.61,0.27 0,0.45 -0.16,0.89 -0.45,1.18 -0.09,0.1 -0.18,0.15 -0.31,0.24 -0.11,0.06 -0.1,0.07 -0.21,0 -0.25,-0.14 -0.32,-0.23 -0.48,-0.43l-0.02 -0.03c-0.04,0.05 -0.04,0.06 -0.08,0.1l0 0.02 0.11 0.13c0.04,0.05 0.08,0.08 0.12,0.12 0.07,0.06 0.39,0.29 0.46,0.27 0.03,0 0.14,-0.06 0.16,-0.08 0.32,-0.19 0.54,-0.43 0.69,-0.78 0.1,-0.25 0.14,-0.54 0.14,-0.84 -0.13,-0.01 -0.21,-0.06 -0.29,-0.08 -0.08,-0.03 -0.15,-0.06 -0.21,-0.1 -0.07,-0.03 -0.12,-0.07 -0.18,-0.11 -0.13,-0.09 -0.22,-0.16 -0.32,-0.26l-0.01 0c-0.06,0.09 -0.32,0.27 -0.43,0.34 -0.11,0.06 -0.27,0.14 -0.4,0.18 -0.05,0.01 -0.13,0.03 -0.16,0.04 -0.01,0.13 0.01,0.29 0.03,0.41 0.01,0.07 0.05,0.3 0.09,0.34l0.07 0.01z"></path> <path class="fil1" d="M1.78 4.8c-0.03,0.1 -0.02,0.27 -0.02,0.39l1.14 0c0,-0.39 0.02,-0.62 -0.37,-0.66 -0.14,-0.01 -0.36,-0.01 -0.5,0.01 -0.13,0.03 -0.23,0.11 -0.25,0.26z"></path> <path class="fil1" d="M4.62 4.55c-0.25,0.06 -0.24,0.36 -0.24,0.64l1.15 0 0 -0.26c-0.04,-0.09 0.02,-0.33 -0.29,-0.39 -0.14,-0.03 -0.48,-0.03 -0.62,0.01z"></path> <path class="fil1" d="M3.07 5.19l1.14 0c0,-0.53 -0.01,-0.67 -0.57,-0.67 -0.56,0 -0.57,0.14 -0.57,0.67z"></path> <path class="fil1" d="M4.88 1.8l0 1.9c-0.19,0 -0.4,0 -0.59,0 -0.06,0 -0.24,-0.02 -0.28,0.01 -0.03,0.01 -0.06,0.04 -0.09,0.06 -0.03,0.01 -0.07,0.03 -0.1,0.05 0.16,0.01 0.63,0 0.82,0 0.06,0 0.13,0 0.2,0 0.06,0 0.14,0.02 0.16,-0.04 0.01,-0.03 0.01,-1.91 0.01,-2.04 0,-0.13 -0.06,-0.1 -0.18,-0.1l-0.84 0c0.03,0.03 0.1,0.07 0.15,0.1 0.04,0.03 0.04,0.02 0.1,0.02 0.19,0 0.46,0 0.64,0.01l0 0.03z"></path> <path class="fil1" d="M3.64 3.52c-0.02,-0.08 0.01,-0.23 0,-0.32 -0.05,0 -0.16,-0.01 -0.18,-0.03 -0.25,-0.06 -0.45,-0.36 -0.39,-0.66 0.02,-0.15 0.11,-0.26 0.19,-0.33 0.14,-0.12 0.21,-0.12 0.38,-0.14 -0.01,-0.06 0,-0.14 0,-0.2 -0.01,-0.03 0,-0.02 -0.08,0.04 -0.18,0.14 -0.48,0.32 -0.69,0.36 0.01,0.3 0.1,0.57 0.23,0.79 0.07,0.12 0.15,0.2 0.23,0.28 0.05,0.04 0.09,0.08 0.15,0.11 0.03,0.02 0.12,0.09 0.16,0.1z"></path> <path class="fil1" d="M3.53 3.13c0.04,-0.01 0.1,0 0.15,0 0.22,-0.02 0.4,-0.18 0.45,-0.39 0.02,-0.07 0.03,-0.15 0.01,-0.23 0,0 -0.01,-0.03 -0.01,-0.03 -0.02,-0.04 0,-0.02 -0.02,-0.02 -0.08,0.08 -0.07,0.05 -0.06,0.12 0.05,0.41 -0.51,0.62 -0.75,0.28 -0.2,-0.29 0.03,-0.68 0.37,-0.65 0.13,0.01 0.2,0.07 0.27,0.13 0.03,-0.02 0.07,-0.06 0.06,-0.08 -0.07,-0.08 -0.17,-0.13 -0.32,-0.15 -0.28,-0.01 -0.51,0.16 -0.55,0.43 -0.02,0.15 0.02,0.3 0.1,0.39 0.06,0.07 0.12,0.13 0.21,0.16 0.01,0.01 0.03,0.01 0.04,0.02l0.05 0.02z"></path> <path class="fil1" d="M2.28 2.73l0.12 0.06 0 -1.02c0.05,-0.01 0.53,-0.01 0.64,-0.01 0.06,0 0.05,0.01 0.1,-0.02 0.04,-0.03 0.12,-0.07 0.15,-0.1 -0.28,-0.01 -0.62,0 -0.9,0 -0.13,0 -0.11,0.03 -0.11,0.19 0,0.13 -0.01,0.84 0,0.9z"></path> <path class="fil1" d="M2.62 4.39c-0.01,0.02 -0.02,0.03 -0.02,0.05 0.04,0.02 0.11,0.03 0.17,0.05 0.05,0.03 0.1,0.06 0.12,0.11 0.33,0 0.1,0 0.31,-0.1 0.06,-0.04 0.13,-0.04 0.18,-0.06l-0.02 -0.02c-0.06,-0.09 -0.06,-0.12 -0.07,-0.25l-0.61 0c-0.01,0.11 -0.01,0.14 -0.06,0.22z"></path> <path class="fil1" d="M3.92 4.42l-0.01 0.02c0.16,0.03 0.2,0.06 0.3,0.16l0.18 0c0.05,-0.06 0.09,-0.11 0.2,-0.13l0.1 -0.03c-0.01,-0.05 -0.09,-0.06 -0.08,-0.27l-0.62 0c0,0.11 -0.01,0.18 -0.07,0.25z"></path> <path class="fil1" d="M1.73 2.16c-0.34,0.07 -0.24,0.56 0.09,0.5 0.12,-0.03 0.23,-0.15 0.2,-0.3 -0.02,-0.12 -0.15,-0.23 -0.29,-0.2z"></path> <path class="fil1" d="M4.92 3.96c-0.34,0.06 -0.25,0.56 0.08,0.5 0.12,-0.02 0.23,-0.14 0.2,-0.29 -0.02,-0.13 -0.14,-0.23 -0.28,-0.21z"></path> <path class="fil1" d="M3.42 4.34c0.03,0.03 0.04,0.06 0.09,0.09 0.11,0.06 0.24,0.04 0.33,-0.06 0.01,-0.01 0.03,-0.04 0.03,-0.05 0.03,-0.1 0.04,-0.17 -0.02,-0.25 -0.11,-0.16 -0.33,-0.14 -0.42,0.01 -0.07,0.1 -0.04,0.16 -0.01,0.26z"></path> <path class="fil1" d="M2.21 3.99c-0.14,0.06 -0.2,0.29 -0.04,0.42 0.11,0.09 0.27,0.06 0.35,-0.03 0.03,-0.04 0.04,-0.09 0.06,-0.12 -0.01,-0.06 0.01,-0.08 -0.02,-0.15 -0.02,-0.04 -0.05,-0.07 -0.08,-0.1 -0.06,-0.06 -0.19,-0.07 -0.27,-0.02z"></path> <path class="fil1" d="M3.45 3.82c0,0 0,0 0,0l-0.18 -0.11c-0.04,-0.03 -0.21,-0.01 -0.28,-0.01 -0.19,0 -0.39,0 -0.59,0l0 -0.44 -0.12 -0.04c0,0.15 0,0.3 0,0.45 0,0.18 -0.02,0.15 0.29,0.15 0.29,0 0.59,0 0.88,0z"></path> <path class="fil1" d="M4.09 2.27c-0.04,0.02 -0.07,0.07 -0.12,0.11l-0.34 0.33c-0.03,-0.02 -0.09,-0.08 -0.12,-0.11 -0.07,-0.07 -0.07,-0.09 -0.13,-0.05 -0.01,0.06 0.02,0.07 0.04,0.1l0.21 0.21c0.04,-0.03 0.08,-0.07 0.11,-0.11l0.27 -0.26c0.01,-0.02 0.03,-0.04 0.05,-0.05 0.01,-0.02 0.01,-0.01 0.03,-0.03l0.09 -0.09c0.05,-0.06 -0.02,-0.14 -0.09,-0.05z"></path> <path class="fil1" d="M1.78 3.16c0.04,-0.11 0.07,0 0.04,-0.23 0,-0.03 -0.01,-0.11 -0.01,-0.13 0,-0.06 0.06,-0.08 -0.05,-0.08 -0.08,0 -0.03,0.03 -0.03,0.08 0.01,0.06 -0.04,0.23 -0.02,0.27 0,0.01 0.02,0.04 0.03,0.05 0.01,0.02 0.02,0.03 0.04,0.04z"></path> <polygon class="fil1" points="4.24,4.65 4.26,4.7 4.34,4.7 4.35,4.65 "></polygon> <polygon class="fil1" points="2.95,4.7 3.02,4.7 3.04,4.65 2.93,4.65 "></polygon> </g> </g> </g> </svg>