<svg xmlns="http://www.w3.org/2000/svg" xmlns:xlink="http://www.w3.org/1999/xlink" xml:space="preserve" width="91px" height="91px" style="shape-rendering:geometricPrecision; text-rendering:geometricPrecision; image-rendering:optimizeQuality; fill-rule:evenodd; clip-rule:evenodd" viewBox="0 0 24.97 24.97"> <defs> <style type="text/css"> .fil1 {fill:#083264} .fil0 {fill:white} </style> </defs> <g id="Layer_x0020_1"> <metadata id="CorelCorpID_0Corel-Layer"></metadata> <g id="_1718378859472"> <circle class="fil0" cx="12.48" cy="12.48" r="12.48"></circle> <path class="fil1" d="M12.29 7.78c0.86,-0.13 1.54,0.52 1.65,1.24 0.12,0.87 -0.51,1.55 -1.24,1.66 -0.87,0.13 -1.55,-0.52 -1.66,-1.24 -0.13,-0.89 0.51,-1.54 1.25,-1.66zm0 5.3c-0.03,0.02 -0.01,-0.01 -0.02,0.03l0 1.3c0,0.21 -0.01,0.14 0.03,0.18 0.07,-0.01 0.13,-0.02 0.19,-0.02 0.08,0 0.11,0.02 0.19,0.01 0.04,-0.1 0.02,-0.62 0.02,-0.77l0 -0.67c-0.01,-0.06 0.01,-0.04 -0.03,-0.06l-0.38 0zm-4.38 -3.64l0.73 0 0.01 -0.42 -1.16 0 0 2.85 0.35 0 0.06 0 0.01 -2.43zm8.43 -0.01l0.72 0 0 2.44 0.41 0 0 -2.84 -1.13 -0.01 0 0.41zm0.21 2.85c-0.05,0.06 -0.17,0.1 -0.31,0.24l-0.25 0.29c-0.01,0.06 -0.02,0.06 -0.05,0.11l-0.11 0.31c-0.09,0.34 -0.05,0.69 0.09,1l0.17 0.28c0.01,0.01 0.03,0.02 0.03,0.03 0.02,0.03 0.02,0.02 0.02,0.05 0.08,0.04 0.12,0.1 0.2,0.17 0.06,0.05 0.15,0.1 0.23,0.15 0.16,0.09 0.36,0.15 0.56,0.17 0.6,0.05 0.81,-0.18 1.13,-0.36 0.01,-0.04 0.03,-0.03 0.07,-0.07l0.2 -0.25c0.6,-0.91 0.02,-2.35 -1.38,-2.29 -0.12,0.02 -0.21,0.03 -0.32,0.06 -0.08,0.03 -0.22,0.1 -0.28,0.11zm-9.3 -0.1c-0.44,0.11 -0.84,0.54 -0.97,0.97 -0.18,0.62 0.04,1.12 0.34,1.46 0.45,0.48 1.2,0.64 1.85,0.27 0.26,-0.15 0.39,-0.37 0.46,-0.41 0.01,-0.05 0.13,-0.22 0.19,-0.39 0.16,-0.47 0.06,-1.01 -0.22,-1.38 -0.15,-0.2 -0.37,-0.39 -0.67,-0.5 -0.22,-0.08 -0.78,-0.15 -0.98,-0.02zm4.34 2.92c-0.53,0.39 -0.76,1.17 -0.46,1.81 0.03,0.06 0.12,0.2 0.12,0.23l0.2 0.22c0.19,0.21 0.56,0.38 0.87,0.41 0.38,0.04 0.73,-0.06 1.02,-0.25 0.1,-0.07 0.16,-0.15 0.24,-0.2 0.04,-0.09 0.8,-0.81 0.13,-1.88 -0.13,-0.17 -0.22,-0.27 -0.4,-0.39 -0.14,-0.1 -0.32,-0.18 -0.53,-0.22 -0.49,-0.1 -0.88,0.06 -1.19,0.27zm-0.56 2.5c-0.32,0.08 -0.71,0.41 -0.86,0.61 -0.19,0.25 -0.36,0.71 -0.33,1.13l5.29 0c0.03,-0.36 -0.11,-0.79 -0.3,-1.08 -0.03,-0.04 -0.07,-0.1 -0.11,-0.13 -0.03,-0.04 -0.08,-0.08 -0.09,-0.12 -0.06,-0.03 -0.39,-0.33 -0.69,-0.41 -0.25,-0.1 -0.23,-0.08 -0.33,0.01 -0.5,0.43 -1.17,0.54 -1.79,0.29 -0.34,-0.14 -0.39,-0.25 -0.57,-0.37l-0.22 0.07zm-4.7 -2.73c-0.12,0.08 -0.53,0.14 -0.92,0.61 -0.18,0.22 -0.41,0.76 -0.35,1.16l5.28 0c0.06,-0.46 -0.24,-0.98 -0.25,-1.02 -0.05,-0.04 -0.08,-0.11 -0.12,-0.16 -0.2,-0.23 -0.39,-0.33 -0.43,-0.38l-0.01 0c-0.03,-0.01 -0.42,-0.2 -0.42,-0.2 -0.28,-0.06 -0.12,-0.08 -0.33,0.07 -0.54,0.41 -1.2,0.51 -1.83,0.21 -0.29,-0.14 -0.28,-0.18 -0.43,-0.29 -0.07,-0.06 -0.09,-0.02 -0.19,0zm9.1 0.22c-0.23,0.14 -0.46,0.36 -0.58,0.6 -0.12,0.21 -0.27,0.65 -0.23,0.95l5.29 0c0.05,-0.35 -0.13,-0.83 -0.29,-1.06 -0.29,-0.43 -0.66,-0.55 -0.72,-0.61 -0.13,-0.03 -0.27,-0.12 -0.41,-0.13 -0.08,0.04 -0.15,0.15 -0.24,0.17l-0.22 0.15c-0.6,0.29 -1.28,0.21 -1.81,-0.18l-0.09 -0.09c-0.03,-0.01 -0.01,0 -0.04,-0.02 -0.03,-0.02 -0.01,-0.02 -0.04,-0.03 -0.09,-0.03 -0.55,0.21 -0.62,0.25zm-5.22 -8.7c-0.06,0.13 -0.56,0.51 -0.64,0.69 -0.09,0.23 0.09,0.36 0.18,0.45 0.1,0.1 0.25,0.27 0.34,0.33 -0.01,0.05 -0.18,0.39 -0.25,0.63 -0.2,0.01 -0.64,-0.04 -0.79,0.04 -0.22,0.12 -0.17,0.42 -0.17,0.7 0,0.27 -0.05,0.56 0.15,0.69 0.14,0.09 0.62,0.04 0.81,0.05 0.04,0.11 0.07,0.21 0.12,0.32 0.03,0.09 0.11,0.22 0.13,0.3 -0.1,0.08 -0.23,0.22 -0.33,0.32 -0.09,0.1 -0.26,0.21 -0.19,0.44 0.04,0.13 0.23,0.3 0.32,0.39 0.1,0.09 0.28,0.29 0.38,0.36 0.23,0.16 0.39,0.01 0.51,-0.11 0.06,-0.06 0.31,-0.33 0.37,-0.36 0.32,0.13 0.23,0.11 0.6,0.25 0.01,0.19 -0.04,0.66 0.04,0.79 0.13,0.22 0.42,0.16 0.7,0.16 0.29,0 0.57,0.05 0.69,-0.15 0.09,-0.16 0.04,-0.59 0.05,-0.81 0.26,-0.07 0.56,-0.23 0.62,-0.24 0.12,0.14 0.28,0.28 0.41,0.41 0.22,0.22 0.4,0.12 0.56,-0.04 0.11,-0.11 0.55,-0.51 0.59,-0.64 0.06,-0.18 -0.03,-0.23 -0.06,-0.33 -0.08,-0.06 -0.19,-0.18 -0.26,-0.26 -0.05,-0.05 -0.08,-0.08 -0.13,-0.13 -0.06,-0.05 -0.11,-0.07 -0.02,-0.14 0,-0.01 0.17,-0.47 0.2,-0.53 0.38,-0.01 0.93,0.12 0.95,-0.31 0.02,-0.2 0.01,-0.44 0.01,-0.64 0,-0.49 -0.05,-0.33 -0.14,-0.48 -0.23,-0.09 -0.55,-0.05 -0.82,-0.05 -0.08,-0.25 -0.16,-0.39 -0.25,-0.6 0.19,-0.28 0.8,-0.55 0.42,-0.95 -0.09,-0.09 -0.18,-0.17 -0.27,-0.26 -0.21,-0.21 -0.39,-0.48 -0.65,-0.37 -0.08,0.04 -0.48,0.44 -0.53,0.52 -0.09,-0.02 -0.22,-0.1 -0.31,-0.14 -0.11,-0.04 -0.21,-0.07 -0.32,-0.11 0,-0.16 0,-0.32 0,-0.48 0,-0.37 -0.03,-0.24 -0.07,-0.38 -0.08,-0.04 -0.11,-0.09 -0.22,-0.1l-0.92 0.01c-0.37,0.05 -0.26,0.52 -0.27,0.95 -0.11,0.04 -0.22,0.07 -0.32,0.11 -0.09,0.04 -0.21,0.12 -0.3,0.13 -0.13,-0.13 -0.25,-0.25 -0.38,-0.39 -0.24,-0.24 -0.36,-0.13 -0.54,-0.04z"></path> </g> </g> </svg>