<svg xmlns="http://www.w3.org/2000/svg" xmlns:xlink="http://www.w3.org/1999/xlink" id="Layer_1" x="0px" y="0px" viewBox="0 0 91 91" style="enable-background:new 0 0 91 91;" xml:space="preserve"> <style type="text/css"> .st0{fill-rule:evenodd;clip-rule:evenodd;fill:#FFFFFF;} .st1{fill-rule:evenodd;clip-rule:evenodd;fill:#0B2852;} </style> <g> <circle class="st0" cx="45.5" cy="45.5" r="45.5"></circle> <path class="st1" d="M22.04,56.91c0.03,1.59-0.1,11.57,0.09,12.18c0.63,2.11,2.7,1.76,4.35,1.76c2.47,0.01,2.82-1.37,2.82-3.27 c0-0.7-0.07-23.75,0.03-24.52c2.74-0.02,5.49,0,8.23,0c0.97,0,3.22,0.14,3.95-0.15c1.98-0.79,2.12-4.28-1.26-4.27 c-2.22,0.01-19.76-0.09-20.64,0.03c-0.99,0.14-1.85,1.03-1.98,2.09c-0.09,0.75-0.02,11.02-0.02,12.31c0,1.41,0,2.25,0.98,3.11 C19.6,57.06,20.57,56.78,22.04,56.91L22.04,56.91z M32.02,47.56c0.22-0.3,0.33-0.19,1.08-0.19l27.7,0c3.17,0,6.51,0.11,9.65-0.01 c0.52-0.41,0.35-1.07,0.35-1.86V25.43c0-3.05,0.32-2.83-1.61-2.83h-35.6c-8.23,0-6.7-0.5-6.98,1.92c-0.5,0.34-0.46,0.25-1.16,0.25 c-0.41,0-0.95,0.07-1.19-0.15c-0.34-0.31-0.18-2.01-0.18-2.53c0-2.46-0.4-2.09,3.38-2.09h43.57c0.6,0,2.15-0.23,2.31,0.44 c0.09,0.36,0.02,23.78,0.02,27.09c0,0.99,0.19,2.21-0.31,2.32c-0.02,0.02-0.04,0.03-0.06,0.04c-0.4,0.18-2.01,0.09-2.46,0.09 l-38.46-0.13c-0.43-0.12-0.38-1.43-0.31-1.9C31.83,47.53,31.94,47.6,32.02,47.56L32.02,47.56z M24.97,27.28 c-1.37,0.36-2.22,0.59-3.25,1.8c-0.84,0.99-1.28,2.34-1.11,3.99c0.25,2.51,2.94,4.82,5.8,4.31c2.67-0.48,4.67-2.64,4.31-5.82 c-0.16-1.42-1.05-2.54-1.88-3.22C28.06,27.71,26.29,26.94,24.97,27.28L24.97,27.28z M36.57,61.87c-0.09-0.12-0.02-0.04-0.13-0.14 c0,0-0.14-0.11-0.15-0.11c-3.71-2.71-1.58-7.69,2.18-7.8c3.32-0.1,5.29,3.33,3.99,6.07c-0.61,1.28-1.42,1.54-1.63,1.9 c0.66,0.49,2.57,1.44,3.05,2.69c-0.99,1.97-1.91,3.49-2.03,6.04c-0.1,2.18,0.23,1.45,0.43,2.3c-1.37,0.28-0.84,0.37-2.84,0.59 c-1.85,0.2-3.99-0.42-5.52-1.27c-2.23-1.25-2.57-1.8-1.82-4.37c0.53-1.81,1.23-3.09,2.51-4.38C35.76,62.22,36.21,62.23,36.57,61.87 L36.57,61.87z M61.91,61.87c-0.2,0.19-2.42,1.47-2.85,2.6c1.19,2.07,1.81,3.52,2.05,6.1c0.16,1.78-0.27,1.52-0.44,2.21 c1.61,0.75,4.18,0.78,5.93,0.32c1.33-0.35,3.93-1.57,4.47-2.56c0.55-1.01-0.61-4.15-1.32-5.36c-0.65-1.11-1.55-2.07-2.53-2.76 c-0.28-0.19-0.78-0.42-1.08-0.64c0.46-0.57,2.75-1.85,1.9-4.89c-1.11-3.97-6.91-4.24-8.19,0.05c-0.43,1.45,0.09,3.07,1.05,4.08 C61.16,61.31,61.69,61.56,61.91,61.87L61.91,61.87z M48.94,60.95c-0.91-0.63-1.59-1.16-2.16-2.36c-1.62-3.47,0.84-7.57,4.87-7.51 c4.15,0.06,6.35,4.44,4.62,7.69c-0.24,0.45-0.64,0.99-0.97,1.3c-0.77,0.74-0.62,0.49-1.23,0.94l1.15,0.72 c2.6,1.79,4.36,4.72,4.86,7.99c0.24,1.53,0.35,2.01-0.62,2.81c-0.75,0.62-1.36,1.05-2.19,1.5c-1.64,0.89-3.67,1.44-5.88,1.44 c-3.01,0-5.94-1.17-8.06-3.03c-0.42-0.36-0.62-0.59-0.63-1.26c-0.02-3.25,1.77-6.74,4.12-8.77c0.32-0.28,0.73-0.58,1.06-0.8 C48.05,61.52,48.86,61.15,48.94,60.95z"></path> </g> </svg>