<svg xmlns="http://www.w3.org/2000/svg" xmlns:xlink="http://www.w3.org/1999/xlink" xml:space="preserve" width="91px" height="91px" style="shape-rendering:geometricPrecision; text-rendering:geometricPrecision; image-rendering:optimizeQuality; fill-rule:evenodd; clip-rule:evenodd" viewBox="0 0 4.36 4.36"> <defs> <style type="text/css"> .fil1 {fill:#083264} .fil0 {fill:white} </style> </defs> <g id="Layer_x0020_1"> <metadata id="CorelCorpID_0Corel-Layer"></metadata> <g id="_1718351131984"> <circle class="fil0" cx="2.18" cy="2.18" r="2.18"></circle> <path class="fil1" d="M3 3.27l0 0zm-1.74 -2.07l0.01 0c0,0 -0.01,0 -0.01,0zm1.44 1.66l0.01 0c0,0 -0.01,0 -0.01,0zm0.47 -0.07l0 0c0,0 0,0 0,0zm-0.01 -0.05l0 -0.01c0,0 0,0.01 0,0.01zm-1.12 -1.71l0.01 0c0,0 -0.01,0 -0.01,0zm1.02 1.73l0 0c0,0 0,0 0,0zm-1.02 -0.44c0,0 0.01,0 0.01,0l0 0c0,0 -0.01,0 -0.01,0zm1.07 0.3c0,0 0,0 0,0l0 0c0,0 0,0 0,0zm-0.43 0.66c0,0 0,0 0,0l0 0c0,0 0,0 0,0zm-1.39 -0.2c0,0 0,0 0,0l0 0c0,0 0,0 0,0zm1.86 -0.02c0,0 0,0 0,0l0 0c0,0 0,0 0,0zm-0.98 -0.67c0,0 0,0 0,0l0 0c0,0 0,0 0,0zm-0.93 0.66c0,0 0,0 0,0l0 0c0,0 0,0 0,0zm1.2 -0.11c0,0 0,0 0,0l0 0c0,0 0,0 0,0zm0.08 0.41c0,0 0,0 0,0l0 0c0,0 0,0 0,0zm-1.22 -2.17l0 0 0 0 0 0 -0.05 0.03 -0.04 0.03c0,0.01 0,0.01 -0.01,0.02l-0.01 0.02c0,0 0,0 0,0 0,0 0,0.01 0,0.01l0 0.01c0,0 -0.01,0.01 -0.01,0.02 0,0.01 0,1.39 0,1.59 0,0.01 0,0.01 0,0.02 0,0.03 0.01,0.05 0.02,0.07 0,0.01 0,0.01 0.01,0.01 0,0.01 0,0.01 0.01,0.01l-0.01 0 0.01 0.01 0 -0.01c0,0.01 0,0 0,0.01l0.01 0.01c0.01,0.01 0.03,0.02 0.03,0.02 0,0 0,0 0,0 0.01,0 0,0 0.01,0 0,0 0,0 0,0 0,0 0,0.01 0,0.01 0,0 0,0 0,0 0,0 0,0 0,0 0.01,0 0.02,0 0.03,0.01 0.02,0 0.01,0 0.05,0l0.87 0c0,0 0,0 0.01,0.01l0.01 0.02c0,0 0,0 0,0l0.01 0.02c0,0 0,0 0,0l0.01 0.01c0,0 0,0 0,0l0.01 0.02c0,0 0,0 0,0 0,0 0,0 0,0 0,0 0,0 0,0 0,0 0,0 0,0l0.01 0.01c0,0.01 0,0 0,0.01l0 0c0.01,0 0,0 0.01,0.01 0,0 0.01,0.01 0.01,0.01l0.06 0.07c0,0 0,0 0,0l0.06 0.04c0,0 0,0 0,0 0,0 0,0 0,0l0.02 0.01c0,0 0,0 0,0l0.03 0.01c0,0.01 0,0 0.01,0.01 0.01,0 0,0 0.01,0l0.01 0c0.01,0.01 0.02,0.01 0.03,0.02 0.03,0.01 0.06,0.01 0.09,0.02l0.01 0 0 0 0 0 0 0 0 0c0.01,0 0.01,0 0.02,0l0.07 0c0,0 0,0 0,0 0.01,0 0,0 0.01,0l0 0 0 0 0 0c0,0 0.01,0 0.01,0 0.01,0 0.04,-0.01 0.05,-0.01 0.02,-0.01 0.05,-0.02 0.05,-0.02l0 0 0.01 0 -0.01 0c0.01,0 0.02,0 0.03,-0.01 0,0 0,0 0,0 0.01,0 0,0 0.01,0 0,0 0,0 0,0l0.02 -0.01c0.01,-0.01 0.02,-0.01 0.03,-0.02l0.06 -0.04c0,0 0,0 0.01,0l0.01 -0.01c0.01,-0.02 0.02,-0.02 0.03,-0.03l0.01 -0.01c0,0 0,0 0,0l0 0c0,0 0,-0.01 0,-0.01l0.03 -0.03c0,0 0,0 0,0 0,0 0,0 0,0 0,0 0,0 0,0l0 0 0.01 0 -0.01 0c0.01,-0.01 0,0 0.01,-0.01l0.02 -0.03c0,0 0,0 0,0 0,0 0,0 0,0l0 0 0 0 0 0 0 0 0 -0.01c0,0 0,0 0,0 0.01,-0.01 0.03,-0.05 0.03,-0.05 0,-0.01 0,0 0,-0.01l0.01 -0.02c0,0 0,-0.01 0.01,-0.02 0,0 0,0 0,0l0 0c0,-0.01 0,0 0,-0.01l0 0.01 0 -0.01 0 0 0.01 -0.05 0 0.01 0 -0.01 0 0 0 -0.02c0.01,-0.01 0.01,-0.05 0.01,-0.05 0,-0.02 0,-0.04 0,-0.04 0,-0.02 0,-0.03 0,-0.04 0,0 0,-0.01 0,-0.01 -0.01,-0.05 -0.02,-0.06 -0.03,-0.1l-0.01 -0.02c0,0 0,0 0,0l0 -0.02c0,0 0,0 0,0l-0.02 -0.03c0,0 0,0 0,0 0,0 0,0 0,0l-0.06 -0.08 -0.05 -0.05c0,0 0,0 0,-0.01 -0.01,0 -0.01,0 -0.02,-0.01 0,0 0,0 0,0l-0.04 -0.03c0,0 -0.01,-0.01 -0.01,-0.01l-0.02 -0.01 -0.07 -0.03c0,0 0,0 0,0 0,0 -0.01,0 -0.01,0l-0.01 -0.01c-0.01,0 -0.01,0 -0.01,0 -0.01,0 -0.02,-0.01 -0.03,-0.01 0,0 0,0 0,0 0,0 0,0 0,0 -0.01,0 -0.01,0 -0.01,0l0 0c-0.01,0 0,0 -0.01,0l-0.01 0c0,0 0,0 0,0 0,0 0,0 -0.01,0l-0.01 -0.01c0,0 -0.01,0 -0.01,0 0,0 0,0 0,0l-0.01 0c0,0 0,0 0,0l0 0 0 0 0 0 -0.04 0c0,0 0,-0.29 0,-0.29l0 -0.59c0,-0.05 0,-0.12 0,-0.18 0,0 0,0 0,-0.01l-0.01 -0.02c0,0 0,0 0,0 0,0 0,0 0,0 0,-0.02 0,-0.01 0,-0.02 -0.01,-0.01 -0.01,-0.01 -0.01,-0.01 -0.01,-0.02 -0.01,-0.01 -0.02,-0.03 0,0 0,0 0,0 0,-0.01 -0.01,-0.01 -0.01,-0.01 -0.02,-0.02 -0.01,-0.01 -0.02,-0.02 0,0 0,0 -0.01,0l0 0c0,0 0,0 0,0l-0.05 -0.02c-0.03,0 -0.08,0 -0.11,0 -0.09,0 -0.17,0 -0.26,0 0,0 0,0 0,0l0 0.01c0,0.01 0,0.19 0,0.2 0,0 0,0 0,0 0,0.01 0,0.01 0,0.01 0,0 0,0.01 -0.01,0.01l0 0.01c-0.01,0 -0.01,0 -0.02,0.01 -0.01,0 -0.03,0 -0.04,0l-0.38 0 -0.02 -0.01 0 0 0 0 0 0c-0.01,0 -0.01,0 -0.02,-0.01 0,0 0,0 0,0l0 0c0,0 0,0 0,0l-0.01 -0.02c0,-0.01 0,-0.2 0,-0.21l-0.29 0c-0.02,0 -0.04,0 -0.05,0 -0.01,0 -0.01,0 -0.01,0l-0.02 0c0,0 0,0 -0.01,0zm0.51 -0.13l0 -0.01 0 0.01 0 0c0,0 0,-0.01 0,0 -0.01,0 -0.01,0.01 -0.01,0.01 0,0 -0.01,0.02 -0.01,0.02l-0.01 0.03c0,0.01 0,0.2 0,0.22 0.01,0 0.3,0 0.3,0 0,-0.06 0,-0.12 0,-0.19 0,-0.03 0,-0.05 -0.02,-0.08l-0.03 -0.04 0 0 0 0 0 0c0,0 0,0 0,0 -0.01,-0.01 -0.01,-0.01 -0.01,-0.01l-0.02 -0.01c0,0 -0.01,0 -0.01,0 0,0 0,-0.01 0,-0.01 -0.01,0 -0.01,0 -0.01,0l-0.01 0c-0.03,-0.01 -0.05,-0.01 -0.08,0l-0.04 0.02c0,0 -0.01,0 -0.01,0 -0.01,0.01 -0.01,0.02 -0.02,0.02 0,0.01 0,0 -0.01,0.01l0 0c0,0 0,0.01 0,0.01zm0.88 2.23l0 0 0 0 0 0c0,0 -0.01,0 -0.02,0 0,0 0,0 0,0l0 0 0 0 0 0 -0.09 -0.01 0 0 0 -0.01 0 0.01c-0.01,0 -0.01,-0.01 -0.02,-0.01l-0.02 -0.01 0 0 0 0 0 0c-0.01,0 0,0 -0.01,0 0,0 0,0 0,0l-0.02 -0.01c0,0 0,0 -0.01,0l-0.06 -0.04c0,0 0,0 0,0l0 0c0,0 -0.01,0 -0.01,0 0,-0.01 0,-0.01 -0.01,-0.02l-0.01 0 0.01 0 -0.01 0 0 0c0,-0.01 0,-0.01 -0.01,-0.01 0,-0.01 0,-0.01 -0.01,-0.01 0,0 0,-0.01 0,-0.01l0 0 0 0 0 0c-0.01,0 -0.01,-0.01 -0.02,-0.01 0,-0.01 0,0 0,-0.01l0 0 -0.02 -0.02c0,0 0,-0.01 0,-0.01 0,0 0,0 0,0 -0.01,-0.01 0,0.01 0,0l-0.01 -0.01c0,0 0,0 0,0l-0.01 -0.02c0,0 0,0 0,0 0,-0.01 0,0 -0.01,-0.01l-0.01 -0.04c0,0 0,0 0,0l-0.01 -0.02c0,0 0,0 0,0 0,-0.01 -0.01,-0.02 -0.01,-0.03l0 -0.01c0,0 0,-0.01 0,-0.01 -0.01,-0.04 -0.01,-0.05 -0.01,-0.1l0.01 -0.06c0,0 0,0 0,0l0 0c0,-0.01 0.01,-0.02 0.01,-0.03 0.01,0 0,0 0,-0.01l0 0c0,0 0,0 0,0l0.01 -0.01c0,0 0,0 0,0 0,0 0,0 0,0l0 -0.01c0.01,-0.02 0.01,-0.03 0.03,-0.05l0 -0.01c0,0 0,0 0,0l0.01 0c0,-0.01 0,-0.01 0,-0.01l0.02 -0.03 0.01 -0.02c0.01,0 0.01,0 0.01,0 0,-0.01 0.01,-0.01 0.01,-0.02l0.02 -0.01c0,0 0,0 0,0 0,0 0,0 0,-0.01l0.08 -0.04c0,0 0,-0.01 0,-0.01l0.08 -0.03c0.01,0 0.01,0 0.03,0 0,0 0,0 0.01,0l0.06 -0.01c0,0 0,0 0,0 0.02,0 0.04,0 0.05,0l0.09 0.03c0,0 0,0 0,0 0.01,0 0.02,0 0.03,0.01l0.02 0.01c0,0 0,0 0,0 0,0 0,0 0,0l0 0c0,0 0,0 0,0l0.03 0.01 -0.01 0 0.01 0.01 0 -0.01 0.01 0.01c0.02,0.01 0.02,0.02 0.03,0.03l0.01 0 -0.01 0 0.01 0 0 0 0.02 0.02c0,0 0,0 0,0.01l0 0 0 0 0 0c0.01,0 0.01,0.01 0.02,0.01 0.01,0.02 0,0.01 0.01,0.02l0.03 0.04c0,0.01 0,0 0,0.01l0.03 0.06c0,0 0,0.01 0,0.01 0,0.01 0.01,0.01 0.01,0.02 0,0.01 0.01,0.02 0,0.03l0 0 0 0 0 0c0.01,0 0,0 0.01,0.01 0,0 0,0.01 0,0.01l0 0.03c0,0.01 0,0.01 0,0.01l0 0.06 -0.01 0.04c0,0.01 0,0.01 0,0.01l-0.01 0.02c0,0.01 0,0 0,0.01l-0.06 0.12 -0.02 0.02c-0.01,0 0,0 -0.01,0l0 0 0 0 0 0c0,0.01 -0.01,0.01 -0.01,0.02 0,0 0,0 -0.01,0 0,0.01 0,0.01 0,0.01l0 0 -0.01 0 0.01 0c-0.01,0.01 -0.01,0 -0.02,0.01 0,0 0,0 0,0.01 -0.01,0 -0.01,0 -0.01,0 -0.01,0 -0.01,0.01 -0.01,0.01l-0.02 0.01c-0.01,0.01 0,0 -0.01,0.01l-0.05 0.02c-0.01,0 -0.04,0.01 -0.05,0.02l0 -0.01 0 0.01 0 0c0,0 0,0 -0.01,0l-0.05 0.01c0,0 0,0 -0.01,0l-0.01 0c0,0 0,0 0,0 0,0 0,0 0,0l-0.01 0zm0.04 -0.27l0 0 0 0 0 0c0,0 0,-0.01 0.01,-0.01 0,0 0,0 0,-0.01 0,0 0,0 0,0 0.01,-0.01 0.01,-0.01 0.02,-0.02l0 0.01 0 -0.01 0 0c0,-0.01 0.01,-0.02 0.01,-0.03l0.01 -0.01c0,0 0,0 0,0l0.02 -0.02c0,0 0,0 0,0l0.03 -0.06c0.01,0 0.01,0 0.01,-0.01 0,0 0,0 0.01,-0.01l0.01 -0.01c0,-0.01 0,-0.02 0.01,-0.02l0 0 0 0 0 0 0.01 -0.02c0,0 0,0 0,0l0 -0.01c0,0 0,0 0,0 0.01,0 0,0 0.01,-0.01l0.02 -0.02c0,0 0,0 0,0 0,0 0,-0.01 0,-0.01 0,0 0,0 0,0l0 0c0.01,-0.01 0.02,-0.03 0.02,-0.04l-0.01 0c0,-0.01 0,-0.01 -0.01,-0.01l-0.01 -0.01c-0.01,0 -0.01,0 -0.01,0l-0.02 -0.02c-0.01,-0.01 -0.01,0 -0.01,-0.01l-0.01 0c0,0 0,0 0,0l0 0.01 0 0 -0.01 0 0.01 0c-0.01,0 -0.01,0 -0.01,0.01 0,0 0,0 -0.01,0 0,0.01 0,0.01 0,0.01l-0.03 0.05c0,0 0,0 0,0 0,0 0,0 0,0l-0.01 0.01c0,0 0,0.01 0,0.01l-0.01 0.01c0,0 0,0 -0.01,0.01l0 0c0,0 0,0 0,0.01l-0.02 0.03c0,0 -0.01,0.01 -0.01,0.01 0,0 0,0 0,0.01l-0.01 0 0 0 0 0 0 0c0,0.01 0,0 0,0.01l-0.01 0.01c0,0.01 0,0 0,0.01 0,0 0,0 0,0l-0.02 0.02c0,0 0,0 0,0l-0.01 0.02c0,0 0,0 0,0l-0.05 0.07c0,0 0,0 0,0l-0.01 0.01c-0.01,-0.01 0,-0.01 -0.01,-0.01 0,0 -0.02,-0.01 -0.03,-0.02l-0.01 -0.02c-0.01,0 -0.01,0 -0.01,-0.01l0 0 0 0 0 0c-0.01,0 -0.01,0 -0.02,-0.01 0,0 0,0 0,0l-0.01 -0.01c0,0 0,0 0,0 0,0 0,0 0,0l-0.02 -0.02c0,0 0,0 0,0l-0.02 -0.01c0,0 0,0 -0.01,0.01 -0.01,0 -0.01,0.01 -0.02,0.02 0,0 0,0 -0.01,0.01 0,0 -0.01,0.01 -0.01,0.02l-0.01 0.01c0,0 0,0 0,0 0,0.01 0,0.01 0.01,0.01 0,0 0,0 0,0 0,0 0,0 0,0l0.07 0.06c0,0.01 0.01,0.01 0.01,0.01 0,0.01 0,0 0,0.01 0,0 0,0 0.01,0 0,0 0,0 0,0l0.02 0.02c0.01,0.01 0,0 0.01,0.01l0 0 0 0 0 0c0,0 0,0 0,0 0,0 0,0 0,0 0.01,0.01 0.01,0.01 0.01,0.01l0 0c0,0 0.01,0.01 0.01,0.01l0 0c0.01,0 0.01,0 0.01,0.01l0.05 0.05 0.02 -0.03c0.01,0 0.01,-0.01 0.01,-0.01l0.02 -0.03c0,-0.01 0,-0.01 0.01,-0.01 0,0 0,-0.01 0,-0.01l0.01 -0.01c0,0 0,0 0,0 0,0 0,-0.01 0,-0.01l0.01 -0.01c0,0 0,0 0,0zm-1.11 -0.59l0 0.01 0.01 -0.01 -0.01 0c0.01,0 0.01,0 0.01,0l0.01 0c0,-0.01 0.01,-0.01 0.02,-0.02l0.01 0c0,0 0.01,0 0.01,-0.01 0.01,0 0.01,0 0.01,0l0.02 -0.01c0.01,0 0.01,0 0.01,0l0 0 0 0 0 0 0.03 -0.01c0.01,-0.01 0.01,-0.01 0.02,-0.02l0.02 -0.01c0,0 0,0 0,0 0.01,-0.01 0.01,-0.01 0.02,-0.02 0.01,-0.01 0,0.01 0.01,-0.01 0,0 0,0 0,-0.01 0.01,0 0,0 0,-0.01 0,0 0,0 0,-0.01 0.01,-0.02 0.01,-0.05 0.01,-0.07 -0.01,0 -0.02,-0.01 -0.02,-0.02l-0.01 -0.01c0,0 0,0 0,0l0 -0.01c0,0 0,0 0,0 0,0 0,0 0,0l-0.01 -0.02c-0.01,0 0,0 -0.01,-0.01 0,0 0,0 0,-0.01l0 -0.02c0,0 0,0 -0.01,-0.01 0,0 -0.01,0 -0.01,-0.01l0 0 0 0 0 0c-0.01,0 -0.01,-0.01 -0.02,-0.02 0,0 0,0 0,0l0 -0.03c0,-0.01 -0.01,-0.02 0,-0.03 0,0 0,0 0,0 0,0 0,0 0,0l0.01 -0.01c0,-0.01 0,0 0,-0.01 0,0 0,-0.01 0,-0.02 0,0 0,0 0,0 -0.01,-0.01 0,-0.01 -0.01,-0.01 0,-0.04 0,-0.04 0,-0.07 0,0 0,-0.01 0,-0.01 -0.01,-0.06 0.01,-0.08 0.01,-0.09 0,0 0,0 0,-0.01l0.01 -0.02 0 0c0,-0.01 0,-0.01 0.01,-0.01l0 -0.01c0,0 0.01,0 0.01,0l0.01 -0.01c0.01,-0.01 0.01,-0.01 0.01,-0.01l0.03 -0.02c0.02,-0.01 0,0 0.02,-0.01 0.01,0 0.01,0 0.01,0l0.03 -0.01c0.02,0 0.07,0 0.09,0.01 0.02,0 0.03,0.01 0.05,0.02 0.01,0.02 0.01,0.01 0.02,0.01 0.01,0.01 0.01,0.01 0.01,0.01l0.03 0.01c0,0.01 0,0.01 0.01,0.01l0 0.01c0.01,0.01 0.02,0.03 0.03,0.04 0,0.01 0,0.01 0,0.01 0,0.01 0,0 0,0.01 0,0.03 0,0.05 0,0.08l0 0.04c-0.01,0 -0.01,0 -0.01,0.01 0,0.01 0,0.02 -0.01,0.03 0,0.02 0.01,0.01 0.02,0.04 0,0.01 0,0.02 0,0.03l-0.01 0.03c-0.01,0.01 -0.01,0 -0.01,0.01 0,0 0,0 0,0 -0.02,0.02 -0.02,0.01 -0.02,0.02 0,0.01 0,0.01 0,0.01 0,0 0,0 0,0l-0.01 0.02c0,0 0,0 0,0l-0.01 0.02c0,0 0,0.01 0,0.01 0,0 0,0.01 -0.01,0.01 0,0 0,0 0,0l0 0.01c0,0.01 -0.01,0 -0.01,0.01 0,0 0,0 0,0l0 0 -0.01 0 0.01 0 -0.01 0.01c0,0 0,0 0,0 0,0 0,0 0,0 0,0 0,0 0,0.01l0 0.07c0,0 0,0.01 0,0.01 0,0 0,0 0,0l0.03 0.04c0,0 0,0 0,0l0.02 0.01c0,0 0,0.01 0.01,0.01 0,0 0,0 0,0l0.02 0.01c0,0 0,0 0,0 0.01,0 0.01,0 0.01,0l0.09 0.04c0.01,0.01 0.01,0.01 0.03,0.02l0 0c0.02,0.01 0.03,0.03 0.04,0.04 0.01,0 0.01,0 0.01,0.01 0.01,0.01 0,0 0.01,0.01 0,0 0,0 0,0 0,0 0,0 0,0l0.01 0.03c0,0 0,0 0,0.01 0,0 0,0 0,0 0,0 0,0.01 0,0.01l0 0c-0.01,0.01 -0.01,0.01 -0.02,0.02 0,0 0,0 0,0 -0.01,0.01 -0.01,0.01 -0.02,0.02l-0.75 0c0,-0.01 0,0 0,-0.01 0,-0.01 0,-0.01 0,-0.01l0.02 -0.06c0,0 0,0 0,-0.01l0.01 -0.01c0.01,-0.01 0.01,-0.01 0.02,-0.02l0.01 -0.02c0.01,0 0,0.01 0.01,0 0,0 0.02,-0.01 0.02,-0.02zm0.91 0.59l0 0zm-0.01 -0.01l0 0c0,0 0,0 0,0zm0.22 -0.01l0 0zm-0.12 -0.03l0 0zm-0.16 -0.06l0 0zm0.26 -0.05l0 0zm0.11 -0.18l0 0zm-0.85 -1.5l0 0zm0 0l0 0zm0.38 2.1l0 0zm0.14 -0.03l0 0zm0.38 -0.01l0 0zm0.04 -0.03l0 0zm-0.48 0c0,0 0,0 0,0l0 0zm-0.07 -0.07l0 0zm-0.14 -0.03l0 0c0,0 0,0 0,0zm0.07 -0.1l0 0zm-1.1 0l0 0c0,0 0,0 0,0zm1.09 -0.05l0 0zm-0.01 -0.14l0.01 0c0,0 -0.01,0 -0.01,0zm0.02 -0.05l0 0zm0.07 -0.13l0 0zm0.73 -0.02c0,0 0,0 0,0l0 0zm-0.04 -0.05l0 0c0,0 0,0 0,0zm-0.76 0l0 0zm0.56 -0.04l0 0c0,0 0,0 0,0zm0.06 -0.08l0 0zm-0.03 -0.01l0 0c0,0 0,0 0,0zm-0.06 -0.02l0 0c0,0 0,0 0,0zm-1.15 -0.02l0 0zm0.44 -0.02l0 0zm-0.02 -0.01l0 0zm-0.35 -0.57l0 0zm0.01 -0.03l0 0zm0.34 -0.01l0 0zm-0.24 -0.06l0 0zm0.77 -0.47l0 0z"></path> </g> </g> </svg>