<svg xmlns="http://www.w3.org/2000/svg" xmlns:xlink="http://www.w3.org/1999/xlink" id="Layer_1" x="0px" y="0px" viewBox="0 0 91 91" style="enable-background:new 0 0 91 91;" xml:space="preserve"> <style type="text/css"> .st0{fill-rule:evenodd;clip-rule:evenodd;fill:#FFFFFF;} .st1{fill-rule:evenodd;clip-rule:evenodd;fill:#0B2852;} </style> <g> <circle class="st0" cx="45.5" cy="45.5" r="45.5"></circle> <path class="st1" d="M65.82,34.74L45.53,55.02C45,54.71,41.2,50.77,40.43,50L30.27,39.85c-1.7-1.7-3.45-3.34-5.08-5.1 c-1.24,0-3.15,0.35-4.51,0.45c-2.34,0.18-2.31,0.34-2.32,2.68c-0.06,14.68,3.34,26.39,14.35,35.76c1.67,1.42,3.8,2.92,5.91,4.14 c1.05,0.61,5.69,3.19,6.88,3.19c1.23,0,5.75-2.55,6.8-3.15c1.04-0.59,2.06-1.24,3.03-1.94c3.15-2.28,4.09-3.09,6.72-5.87 c2.06-2.19,3.73-4.37,5.29-7.29c4.24-7.99,5.29-15.56,5.29-24.72c0-2.3,0.15-2.61-2.19-2.79C68.95,35.1,67.22,34.79,65.82,34.74 L65.82,34.74z M44.31,10.11c-4.22,0.57-8.17,4.7-7.38,9.67c0.66,4.15,4.76,8.21,9.75,7.4c4.06-0.66,8.06-4.7,7.38-9.63 C53.48,13.21,49.4,9.43,44.31,10.11L44.31,10.11z M30.63,33.73c0.3-0.24,4.03-1.29,4.78-1.56l4.44-1.86 c0.59,0.39,3.62,3.52,4.35,4.26c1.22,1.24,1.29,1.32,2.55,0.05c0.48-0.48,4.11-4.2,4.35-4.27l6.04,2.34 c0.63,0.22,2.88,0.76,3.22,1.02l-14.9,14.84L30.63,33.73z"></path> </g> </svg>