<svg xmlns="http://www.w3.org/2000/svg" xmlns:xlink="http://www.w3.org/1999/xlink" xml:space="preserve" width="91px" height="91px" style="shape-rendering:geometricPrecision; text-rendering:geometricPrecision; image-rendering:optimizeQuality; fill-rule:evenodd; clip-rule:evenodd" viewBox="0 0 4.69 4.69"> <defs> <style type="text/css"> .fil1 {fill:#083264} .fil0 {fill:white} </style> </defs> <g id="Layer_x0020_1"> <metadata id="CorelCorpID_0Corel-Layer"></metadata> <g id="_1718310555552"> <circle class="fil0" cx="2.35" cy="2.35" r="2.35"></circle> <path class="fil1" d="M2.02 1.71c0.01,0 0,0 0.01,0 0,-0.01 -0.01,0 0,-0.01l0.15 0c0.16,0 0.32,0.01 0.48,0 0.01,0 0,0.01 0.01,0.01l0.02 0c0,0.01 0,0 0,0 0,0.01 0,0.01 0,0.01 0,0 0,0 0,0l0.02 0.01c0,0 0,0 0,0 0,0 0,0 0,0 0,0.01 0,0.01 0,0.01 0.01,0 0.01,0 0.01,0.01l0 0.55c0,0.01 0,0.01 0,0.01 -0.01,0 -0.01,0 -0.01,0 0,0 0,0 0,0 0,0.01 0,0 0,0.01 -0.01,0 0,0 -0.01,0.01l-0.01 0c-0.01,0.01 0,0.01 0,0.01 -0.01,0 -0.01,0 -0.02,0 0,0 0,0 0,0l-0.64 0c0,0 0,0 -0.01,0 0,0 -0.01,0 -0.01,0 -0.01,0 0,0 0,0 -0.01,-0.01 -0.01,-0.01 -0.02,-0.01 0,0 0,-0.01 0,-0.01 0,-0.01 0,0 -0.01,-0.01 0,0 0,0 0,0l0 -0.01 0 -0.55c0,-0.01 0,-0.01 0,-0.01 0,0 0,0 0,0 0,-0.01 0,-0.01 0.01,-0.01 0,0 0,0 0,0l0 -0.01c0,0 0,0 0,0l0.01 0c0,0 0,0 0,0 0,-0.01 0,0 0,-0.01 0.01,0 0.01,0 0.01,0l0.01 0zm0.31 0.22c0,0 0,0 0.01,0 0,0 0,0 0,-0.01 0,0 0,0 0,0l0.01 0c0,0.01 0.01,0.01 0.02,0.01 0,0 0,0 0,0l0.01 0.01c0.01,0.01 0,0.01 0.01,0.01 0,0.02 0.01,-0.01 0.01,0.03 -0.01,0.01 -0.01,0 -0.01,0.01 -0.01,0.01 0,0 -0.01,0.01l0 0.01c-0.01,0 -0.01,0 -0.01,0 -0.01,0 -0.01,0.01 -0.01,0.01 0,0 0,0 0,0l-0.03 0c-0.01,-0.01 0,0 -0.01,-0.01l-0.01 -0.01c0,-0.01 0,0 -0.01,-0.01l0 -0.01c0,0 0,0 0,0 0,-0.04 0,-0.01 0,-0.03 0.01,0 0.01,0 0.01,-0.01l0.01 -0.01c0,0 0,0 0,0 0,0 0,0 0,0 0.01,0 0,0 0.01,0zm-0.04 -0.11l-0.01 0c0,0 0,0 0,0 -0.02,0 0,0 -0.02,0.01 0,0 0,0 -0.01,0 0,0 0,0 0,0l-0.02 0.02c0,0 0,0 0,0l-0.02 0.02c0,0 0,0 0,0 -0.01,0.01 0,0.01 -0.01,0.01l0 0.01 0 0 0 0.01c-0.01,0 -0.01,0 -0.01,0.01l0 0c0,0.01 0,0.01 0,0.02 0,0 -0.01,0 -0.01,0.01l0 0.07c0,0 0,0 0.01,0 0,0.01 0,0.01 0,0.01 0,0.01 0,0.01 0,0.01l0 0c0,0.01 0,0.01 0.01,0.01 0,0.01 0,0.01 0,0.01 0,0.01 0,0.01 0,0.01 0.01,0 0.01,0.01 0.01,0.01l0.01 0 0 0.01c0,0 0,0 0.01,0.01l0.03 0.02c0,0 0,0 0.01,0.01 0,0 0,0 0,0l0.01 0 0 0c0.01,0.01 0,0.01 0.01,0.01 0,0.01 0,0.11 0,0.11 0.02,0.01 0.09,0 0.11,0 0.01,0 0.01,-0.1 0.01,-0.11 0,0 0,0 0,-0.01l0.01 0c0,0 0,0 0,0 0,0 0,0 0,0l0.01 0c0,-0.01 0,-0.01 0.01,-0.01 0,0 0.01,-0.01 0.01,-0.01 0.01,0 0.02,-0.01 0.02,-0.01 0,-0.01 0,-0.01 0.01,-0.01l0 -0.01 0.01 -0.01c0,0 0,0 0,0 0,0 0,0 0,-0.01 0.01,0 0.01,0 0.01,-0.01 0,0 0,0 0,-0.01 0,0 0,0 0,0 0,0 0,0 0,0 0.01,0 0,0 0.01,-0.01 0,0 0,0 0,-0.01 0,0 0,0 0,0l0 -0.07c0,-0.01 0,-0.01 0,-0.01 -0.01,-0.01 0,-0.01 0,-0.02l-0.01 0c0,-0.01 0,-0.01 0,-0.01l0 -0.01 -0.01 0 0 -0.01c0,0 0,0 0,0 0,0 0,0 -0.01,-0.01l-0.01 -0.01c0,0 0,0 0,0 0,0 0,0 0,0l0 -0.01c0,0 0,0 0,0 0,0 0,0 0,0l-0.01 0c0,0 0,0 0,0l0 0c0,0 0,0 0,0 -0.01,-0.01 -0.01,-0.01 -0.02,-0.02l-0.01 0c-0.01,-0.01 0,-0.01 -0.01,-0.01 -0.01,0 0,0 -0.01,0l-0.01 0c0,0 0,-0.01 0,-0.01 0,0.01 0,0 0,0 0,0 0,0 0,0 0,0 -0.01,0 -0.01,0 -0.01,0 0,0 -0.02,0l-0.05 0c-0.01,0 -0.01,0 -0.01,0 -0.01,0 -0.01,0 -0.02,0l0 0.01zm0.01 1.18l0 -0.02c0,0 0,0 0,-0.01 0.01,0 0,0 0.02,-0.01 0,0 0,0 0,0 0.01,-0.01 0,0 0.01,-0.01 0.01,0 0,0 0.01,-0.01l0.02 0c0,0.01 0,0.01 0.01,0.01 0,0.01 0,0 0.01,0.01 0,0 0,0 0,0 0,0 0,0 0,0l0 0c0.01,0.01 0,0.01 0.01,0.01 0,0.01 0,0.01 0,0.01 0,0 0,0 0,0 0,0 0,0 0.01,0l0 0.02c-0.01,0.01 -0.01,0.01 -0.01,0.01 -0.01,0.01 0,0.01 -0.01,0.02 -0.01,0.01 -0.01,-0.01 -0.01,0 -0.01,0.01 -0.01,0 -0.01,0.01l-0.02 0c-0.01,-0.01 0,0 -0.01,-0.01 -0.01,0 0,0 -0.01,0 -0.01,0 -0.01,-0.01 -0.01,-0.01 0,-0.01 0,0 -0.01,-0.01 0,0 0,0 0,-0.01 0,0 0,0 0,0zm0.21 -0.05l0 0c0,-0.03 -0.01,-0.01 -0.01,-0.02 0,0 0,-0.01 0,-0.01 0,0 0,0 0,0 -0.01,0 0,0 0,-0.01 -0.01,0 -0.01,0 -0.01,0 0,-0.01 0,0 0,-0.01 0,0 0,0.01 0,0 -0.01,-0.01 -0.01,-0.01 -0.01,-0.01l0 0c-0.01,0 0,0 -0.01,0 0,0 0,0 0,-0.01 0,0 0,0 0,0 0,0 0,0 0,0l0 0c0,0 0,0 0,0 0,-0.01 -0.01,-0.01 -0.01,-0.01 0,0 0,0 -0.01,0l0 -0.01c0,0 0,0 0,0 0,0 0,0 0,0 -0.01,-0.01 0,0 -0.01,-0.01l0 0c-0.01,-0.01 0,0 -0.01,0l-0.01 -0.01c0,0 0,0 0,0 -0.01,0 -0.01,0 -0.01,0 -0.01,-0.02 0,-0.05 0,-0.07 0,-0.04 0,-0.21 -0.01,-0.21 0,0 -0.1,0 -0.11,0 0,0.01 0,0.12 0,0.14 0,0.02 0,0.12 0,0.14 -0.01,0 -0.01,0 -0.02,0l-0.01 0.01c0,0 0,-0.01 0,0l-0.01 0c0,0.01 0,0.01 0,0.01l-0.01 0c0,0.01 0,0.01 -0.01,0.01 0,0 0,0.01 -0.01,0.01 0,0.01 0,0.01 0,0.01l-0.01 0c0,0 0,0 0,0.01 0,0.01 0,0 0,0l-0.01 0.02c0,0 0,0 -0.01,0 0,0.01 0,0.01 0,0.01 0,0.01 0,0 0,0.02l-0.01 0 0 0.08 0.01 0.01c0,0.02 0,0.01 0,0.01 0,0.01 0,0.01 0,0.01 0.01,0.01 0.01,0.01 0.01,0.01l0 0.01c0.01,0 0.01,0 0.01,0.01l0 0c0,0 0.01,0 0.01,0l0 0.01c0.01,0.01 0.01,0.01 0.02,0.02l0.01 0c0,0.01 0,0 0,0.01l0.01 0c0,0.01 0,0 0,0.01 0.01,0 0.01,0 0.01,0 0.01,0 0,0 0.02,0.01 0,0 0,0 0.01,0 0,0 0,0 0.01,0 0,0.01 0.01,0.01 0.01,0.01 0.01,0 0.06,0 0.07,-0.01l0 0c0,0 0,0 0,0 0.02,0 0.01,0 0.02,0 0,0 0.01,0 0.01,-0.01 0,0 0,0 0,0l0.01 0c0.01,-0.01 0,0 0.01,-0.01l0 0c0.01,-0.01 0,0 0.01,-0.01l0 0c0,0 0,0 0,0l0 0c0.01,-0.01 0.01,0 0.02,-0.01 0,0 0,-0.01 0,-0.01l0.01 -0.01c0,0 0,0 0,0l0 0c0,0 0,0 0.01,0 0,-0.01 0,-0.01 0,-0.01l0 0c0,0 0,0 0,0 0,-0.01 0,0 0,-0.01l0.01 0c0,-0.01 0,0 0,-0.01 0,0 0,0 0,-0.01 0,0 0.01,0.01 0.01,-0.01l0 -0.01 0 -0.08zm-0.67 0c0,0.01 0,0 0.01,0.02 0,0 0,0 0,0 0,0 0,0 0.01,0l0 0.04c-0.01,0 -0.01,0 -0.01,0l0 0.01c-0.01,0.01 -0.01,0 -0.01,0.01 -0.01,0 0,0 -0.01,0l-0.01 0.01c0,0 -0.01,0 -0.02,0l-0.01 0 0 -0.01c0,0 0,0 -0.01,0 0,0 0,0 0,0 0,0 0,0 0,0l-0.01 -0.01c0,0 0,0 0,0 0,-0.01 0,0 0,-0.01 0,0 0,-0.01 -0.01,-0.01 0,-0.01 0,0 0,0 0,-0.01 0,0 0,-0.01 0,-0.01 0,0 0,-0.01 0.01,0 0.01,-0.01 0.01,-0.01 0,0 0,0 0,0 0,0 0,0 0,0 0,0 0,0 0,0l0.01 -0.02c0,0 0,0 0,0 0.01,0 0.01,0 0.01,0l0 0 0.01 -0.01c0.02,0 0.01,0 0.03,0.01 0.01,0 0,0 0.01,0zm-0.2 0.01c0,0.02 0,0.03 0,0.05 0,0.02 0,0.01 0.01,0.02 0,0 0,0.01 0,0.01 0,0.01 0,0 0,0.01 0,0 0,0.01 0,0.01 0.01,0 0,0 0.01,0 0,0 0,0 0,0 0,0 0,0 0,0 0,0 0,0 0,0 0,0.01 0,0.01 0,0.01 0,0 0,0.01 0.01,0.01 0,0 0,0 0,0l0 0.01c0,0 0,0 0,0l0.01 0c0,0.01 0,0 0,0.01l0.03 0.02c0,0.01 0,0.01 0.01,0.01 0,0 0,0.01 0.01,0.01l0 0 0.01 0c0,0.01 0,0.01 0.01,0.01 0,0 0,0 0.01,0 0,0 0,0 0.01,0l0 0c0,0.01 0.02,0.01 0.02,0.01 0.02,0 0.04,0 0.06,0 0,-0.01 0,0 0,-0.01l0 0 0.01 0c0.01,0 0.01,0 0.01,0l0.01 0 0 -0.01c0.01,0 0.01,0 0.01,0l0.01 0 0.01 -0.02c0.01,0 0.01,0 0.01,-0.01 0,0 0,0 0.01,0l0 -0.01c0.01,0 0.01,0 0.01,-0.01 0.01,0 0,0 0.01,-0.01l0 0c0,-0.01 0,0 0.01,-0.01l0 -0.01c0.01,0 0,0 0,-0.01 0.01,0 0,0.01 0.01,0l0 -0.01c0,0 0,0 0,-0.01 0,0 0,-0.01 0,-0.01 0,-0.01 0.01,-0.01 0.01,-0.01 0,-0.01 0,-0.03 0,-0.03 0,-0.01 0,0 -0.01,-0.01l0 0c0,-0.02 0.01,-0.02 0,-0.03l0 -0.01c-0.01,0 -0.01,0 -0.01,-0.01 0.01,0 0,0 0.01,0l0.02 -0.02c0,0 0,0 0,-0.01l0.02 -0.01c0,0 0,0 0,-0.01l0.01 0c0,0 0,0 0,0l0 0c0,0 0,0 0,0l0 0c0,0 0,0 0,0 0,0 0,0 0,0l0.01 -0.01c0,0 0,0 0,0l0.01 -0.02c0,0 0,0 0,0l0.01 0c0,0 0,0 0,0l0.01 -0.01c0,0 0,0 0,0 0,0 0,0 0,0 0,0 0,0 0,0l0.01 -0.01c0,0 0,0 0,0l0 -0.01c0.01,0 0,0 0.01,0 0,-0.02 0,-0.01 0,-0.02 0,0 0,-0.01 0,-0.01 0,-0.04 0,-0.22 0,-0.22 -0.01,-0.01 -0.11,0 -0.11,0 0,0 0,0.17 0,0.19 0,0 0,0 0,0l-0.03 0.03c0,0 0,0 0,0l-0.01 0c0,0 0,0 0,0l-0.02 0.03c0,0 0,0 0,0 0,0 0,0 0,0l-0.02 0.02c0,0 0,0 0,0l-0.01 0.01 -0.01 0c0,0 0,0 -0.01,-0.01l-0.01 0c0,0 0,0 0,0 0,0 0,0 0,0 -0.02,0 -0.04,0 -0.06,0 -0.03,0 -0.02,0 -0.03,0 0,0 0,0 0,0 -0.01,0 -0.01,0 -0.01,0.01 -0.01,0 -0.01,0 -0.01,0l-0.01 0 0 0.01c-0.01,0 -0.01,0 -0.01,0 0,0 0,0 0,0 -0.01,0.01 -0.01,0 -0.01,0.01l-0.02 0.01c0,0.01 0,0 0,0.01l-0.01 0.01c-0.01,0 -0.01,0.01 -0.01,0.01 0,0.01 0,0 0,0.01 -0.01,0 -0.01,0 -0.01,0 0,0 0,0.01 0,0.01 0,0 0,0 0,0 0,0 0,0 0,0 0,0 0,0 0,0 -0.01,0.01 0,0.01 -0.01,0.02 0,0 0,0 0,0.01 0,0.01 0,0 -0.01,0.01zm1.21 -0.01c0.01,0 0.01,0 0.02,0 0,0 0,0 0,0 0.01,-0.01 0.02,-0.01 0.03,-0.01l0 0.01 0.01 0c0,0.01 0,0 0,0l0.02 0.02c0,0 0,0 0,0 0,0.01 0,0.01 0,0.01 0,0.01 0,0.01 0,0.01 0,0.01 0,0 0,0.01 0,0 0,0.01 0,0.01 0,0.01 0,0 -0.01,0.01l-0.01 0.01c0,0 0,0 0,0l-0.01 0.01 0 0c-0.03,0 -0.02,0 -0.03,0 -0.01,-0.01 0,-0.01 -0.02,-0.01 0,-0.01 0,0 0,-0.01l0 0c-0.01,-0.01 0,-0.01 -0.01,-0.01l0 -0.04c0.01,0 0,0 0.01,-0.01 0,0 0,0 0,0 0,0 0,0 0,-0.01zm-0.13 0c0,0 0,0.01 0,0.01 0,0.01 0,0.01 0,0.01 0,0.01 0,0.02 0,0.03 0,0.01 0,0 0,0.01 0,0 0,0 0,0.01 0,0.02 0,0.02 0.01,0.02l0 0.01c0,0 0,0 0,0 0,0.01 0,0.01 0.01,0.01l0 0.01c0,0.01 0,0 0,0.01l0 0c0.01,0.01 0,0.01 0.01,0.01 0,0.01 0,0.01 0.01,0.01l0.01 0.01c0,0 0,0 0,0 0.01,0.01 0,0.01 0.01,0.01 0,0 0,0 0,0 0.01,0.01 0,0 0.01,0.01l0 0c0,0 0,0 0,0 0,0 0,0 0,0.01l0.01 0c0.01,0 0.01,0 0.01,0l0 0.01 0.02 0c0,0 0,0 0,0l0.01 0c0,0 0,0 0,0 0.01,0.01 0,0 0.01,0.01 0.01,0 0.03,0 0.05,0 0.04,0 0.01,-0.01 0.04,-0.01 0,0 0,0 0,0 0.02,0 0.01,0 0.01,-0.01l0.01 0 0.01 0c0.01,0 0,-0.01 0,-0.01 0.01,0 0,0 0.01,0 0,0 0,0 0,0l0.03 -0.03c0.01,-0.01 0.01,0 0.01,-0.01l0.01 -0.01c0,0 0,0 0,0 0,0 0,-0.01 0,-0.01 0.01,0 0,0 0,-0.01l0.01 0c0,0 0,-0.01 0,-0.01 0,-0.01 0,0 0,-0.01 0.01,0 0,0 0,-0.01 0.01,-0.01 0.01,0 0.01,-0.01 0,-0.01 0,-0.03 0,-0.05 0,-0.02 0,-0.01 0,-0.02 -0.01,0 0,0 -0.01,-0.01 0,0 0,0 0,0 0,-0.01 0,-0.01 0,-0.02 0,0 0,0 0,0 0,0 0,0 -0.01,0 0,0 0.01,-0.01 0,-0.01 0,0 0,0 0,0 0,-0.01 0,0 0,-0.01l-0.01 -0.01c0,0 -0.01,0 -0.01,-0.01l-0.02 -0.01c0,0 0,0 0,0 0,0 0,0 0,0l0 -0.01c-0.01,-0.01 -0.01,0 -0.01,-0.01 -0.01,0 -0.01,0 -0.02,0l0 -0.01 -0.01 0c0,0 0,0 -0.01,0 0,-0.01 0,-0.01 0,-0.01l-0.01 0c0,0 0,0 0,0 -0.01,0 -0.01,0 -0.03,0 -0.02,0 -0.04,0 -0.05,0 -0.01,0 0,0 -0.01,0l0 0 -0.01 0c0,0.01 0,0.01 0,0.01l-0.02 0c0,-0.01 0,-0.01 -0.01,-0.01l0 -0.01c0,0 0,0 0,0l-0.01 -0.01c0,0 0,0 0,0 0,0 0,0 0,0l-0.01 -0.01c0,0 0,0 0,0l-0.01 0c0,0 0,0 0,0l-0.02 -0.02c0,0 0,0 0,0l-0.02 -0.02c0,-0.01 0,-0.01 0,-0.01 0,-0.02 0,-0.19 0,-0.19 -0.01,0 -0.11,0 -0.12,0 0,0 0,0.11 0,0.12 0,0.01 0,0.11 0,0.12 0.01,0 0.01,-0.01 0.01,0.01 0,0 0,-0.01 0,0 0,0 0,0 0,0 0,0 0,0 0,0l0.01 0.01c0,0 0,0 0,0 0,0 0,0 0,0l0.01 0.01c0,0.01 0,0 0,0l0.02 0.02c0,0 0,0 0,0l0 0.01c0,0 0.01,0 0.01,0l0.01 0.02c0,0 0,0 0,0l0.02 0.02c0,0 0,0 0,0 0,0 0,0 0,0 0,0 0,0 0,0l0.03 0.02c0,0 -0.01,0 0,0 0,0.01 0,0.01 0,0.01l0 0.01c-0.01,0.01 -0.01,0 -0.01,0.01zm-1.09 0.48c0.01,0 0,0 0.01,0l1.42 0c0,0 0,0 0,0 0.01,0 0.01,0 0.01,0.01l0.01 0c0,0 0,0 0,0 0,0 0,0.01 0,0.01l0 0c0,0 0,0 0,0 0,0 0,0 0,0l0.01 0c0,0.03 0.01,0.01 0.01,0.03 -0.01,0 -0.01,0.01 -0.01,0.02 -0.01,0 0,0 -0.01,0l-0.01 0.02c0,0 0,0 0,0l-0.01 0c0,0 0,0 0,0l-1.42 0c-0.01,0 0,0 -0.01,0l0 0c-0.01,-0.01 0,0 -0.01,-0.01l-0.01 0c0,-0.01 0,-0.01 0,-0.01l-0.01 0c0,-0.01 0.01,-0.02 0,-0.02 0,-0.02 0,0 0,-0.03 0,0 0,0 0.01,0l0 -0.01c0.01,0 0.01,0 0.01,0l0 0c0.01,-0.01 0,-0.01 0.01,-0.01zm-0.02 0.21l1.48 0 0 -0.01c0.02,0 0.01,0.01 0.02,0 0.01,0 0,-0.01 0.02,-0.01l0 0 0 0c0.01,0 0,0 0.01,-0.01 0,0 0,0 0,0l0.01 0c0,0 0,0 0,0l0.01 -0.01c0,0 0,0 0,0l0 -0.01c0,0 0,0 0,0l0.03 -0.03c0,0 0,0 0,0 0,0 0,0 0,-0.01l0.01 0 0 -0.01c0,0 0,0 0,-0.01 0.01,0 0.01,0 0.01,-0.01 0,-0.01 0,0 0,-0.01l0 -0.07c0,-0.01 0,0.01 0,-0.01 0,-0.01 0,-0.01 -0.01,-0.01l0 -0.01 0 0 0 -0.01 -0.01 0 0 -0.01c-0.01,0 0,0 0,-0.01l-0.01 -0.01c0,0 0,0 0,0 0,0 0,0 0,0 0,0 0,0 0,0 0,0 0,0 0,0 0,0 0,0 0,0 -0.01,0 -0.01,0 -0.01,0l0 -0.01c0,0 0,0 0,0 0,0 0,0 -0.01,0l0 0c0,0 0,0 0,0l0 0c0,-0.01 0,0 0,-0.01 0,0 0,0 0,0l-0.01 0c0,0 0,0 0,0 0,0 0,0 0,0 0,0 0,0 0,0 0,-0.01 -0.01,-0.01 -0.01,-0.01 -0.01,-0.01 0,-0.01 -0.01,-0.01 0,0 0,0 0,0l-0.01 0 0 0c-0.01,-0.01 -0.01,-0.01 -0.01,-0.01 -0.01,0 0,0 -0.01,0 0,0 -0.01,0 -0.01,0 0,0 0,-0.01 -0.01,-0.01 0,0 -0.12,0 -0.14,0 0,-0.01 0.01,-0.1 0,-0.11l-0.11 0 0 0.11 -0.96 0 0 -0.11c-0.01,0 -0.1,0 -0.11,0 -0.01,0 -0.01,0.01 -0.01,0.03l0 0.08 -0.13 0c-0.01,0 -0.01,0.01 -0.02,0.01 0,0 -0.01,0 -0.01,0 0,0 0,0 0,0 -0.01,0 -0.01,0 -0.01,0.01l-0.01 0 0 0c0,0 0,0 0,0 -0.01,0 -0.01,0 -0.01,0.01 0,0 -0.01,0 -0.01,0 0,0 0,0 0,0l-0.02 0.02c0,0 0,0 0,0 0,0 0,0 0,0 0,0 0,0 0,0l-0.01 0.01c0,0 0,0 0,0 0,0 0,0 0,0 -0.01,0.01 0,0 -0.01,0.01l-0.01 0.01 0 0.01 0 0 0 0.01c0,0 0,0 0,0 -0.01,0 -0.01,0 -0.01,0l0 0.01c0,0.01 0,0 0,0.01 0,0.01 -0.01,0 -0.01,0.01 0,0.01 0,0.06 0,0.07 0.01,0.01 0.01,0 0.01,0.01 0,0.01 0,0.01 0,0.01 0,0.01 0,0.01 0.01,0.01l0 0.01 0 0c0,0.01 0.01,0.01 0.01,0.02l0.01 0.01c0,0 0,0 0,0l0.01 0.02c0,0 0,0 0,0l0.01 0.01c0.01,0.01 0.01,0 0.02,0.01l0.01 0 0 0c0.02,0 0,0.01 0.02,0.01 0,0 0,0 0,0l0.02 0 0 0.01zm1.91 -1.03l-0.69 0 0 0.12 0.69 0 0 0.22c0,0 0,0 0,0 0,0.01 0,0.01 0,0.01 0,0 0,0 -0.01,0 0,0.01 0,0.01 0,0.01 0,0 0,0 -0.01,0.01l0 0c-0.01,0 0,0 -0.02,0l-0.01 0.01c0,0 0,0 0,0l-0.32 0 0 0.12 0.33 0c0.01,0 0.01,0 0.01,-0.01 0.01,0 0.02,0 0.03,0 0,0 0,0 0,0 0,0 0,0 0,0 0.01,-0.01 0.01,0 0.02,0l0 -0.01c0.01,0 0.01,0 0.01,0l0.01 0c0,-0.01 0,-0.01 0,-0.01 0.01,0 0.01,0 0.01,0 0,-0.01 0,-0.01 0,-0.01l0 0c0.01,0 0.01,0 0.02,-0.01 0,0 0,0 0,0l0 0c0,0 0.01,0 0.01,0l0 -0.01c0,0 0,0 0,-0.01 0.01,0 0.01,0 0.01,0l0 -0.01c0.01,0 0.01,0 0.01,0 0,-0.01 0,-0.01 0,-0.01l0 -0.01c0.01,0 0.01,0 0.01,0l0 -0.01c0,-0.01 0,-0.01 0,-0.01l0 -0.01 0.01 0 0 -1.8 -0.01 -0.02 0 0c0,-0.02 0,-0.01 0,-0.01 -0.01,-0.01 0,0 -0.01,-0.01 0,0 0,0 0,0 0,-0.01 0,-0.01 -0.01,-0.01l0 -0.01c0,0 0,0 0,0l-0.01 -0.01c0,0 0,0 0,0 0,-0.01 0,-0.01 -0.01,-0.01 0,0 0.01,0 0,0 0,-0.01 0,0 -0.01,-0.01 0,0 0,0 0,0 0,0 0,0 -0.01,-0.01 -0.01,0 0,0 -0.01,-0.01l-0.01 0c0,0 0,0 0,0 -0.01,-0.01 -0.01,0 -0.02,-0.01 0,0 0,0 0,0l-0.01 0 -0.75 0 0 0.11c0.01,0 0.04,0 0.05,0 0.1,0 0.67,0 0.67,0 0,0.01 0,0.01 0.01,0.01 0,0 -0.01,0 0.01,0 0,0 0,0 0,0l0 0.01c0,0 0,0 0.01,0.01 0,0 0,-0.01 0,0 0,0.01 0,0 0,0.01l0 1.4zm-2.46 -1.43l0 1.8c0,0 0,0 0,0.01 0,0 0,0 0,0.01l0.01 0.01c0,0 0,0 0,0l0 0.01c0.01,0.01 0,0 0.01,0.01l0.01 0.01c0,0 0,0 0,0 0,0 0,0 0,0 0,0.01 0,0.01 0.01,0.01l0.01 0.01c0,0 0,0 0,0l0 0.01c0.01,0 0.01,0 0.01,0l0.01 0.01c0,0 -0.01,0 0,0 0.01,0 0,0 0.01,0.01l0.01 0c0,0 -0.01,0 0,0l0.01 0.01c0,0 0.01,0 0.01,0 0,0 0,0 0,0l0 0c0.01,0 0.02,0 0.02,0 0.02,0 0,0.01 0.02,0.01l0.33 0 0 -0.12 -0.32 0c0,-0.01 0,-0.01 -0.01,-0.01 -0.02,0 0,0 -0.01,0l-0.01 0c0,0 0,0 0,0 0,-0.01 0,0 0,-0.01l-0.01 0c0,-0.01 0,-0.01 0,-0.01l0 0c-0.01,0 0,-0.01 -0.01,-0.01 0,0 0,0 0,0l0 -0.22 0.7 0 0 -0.12 -0.7 0 0 -1.4c0,-0.01 0.01,0 0.01,-0.01 0,0 0,0 0,0l0 -0.01c0,0 0,0 0.01,0l0 -0.01c0,0 0,0 0,0 0.01,0 0,0 0.01,0 0.01,0 0,0 0.01,-0.01 0.12,0 0.24,0 0.36,0 0,0 0.34,0 0.35,0l0 -0.11 -0.74 0 -0.02 0c0,0 0,0 0,0 0,0.01 -0.01,0 -0.01,0.01 -0.01,0 0,0 0,0 -0.01,0 -0.01,0 -0.01,0 0,0 0,0 0,0 -0.02,0.01 0,0.01 -0.02,0.01l-0.01 0.01c-0.01,0.01 0,0 -0.01,0.01 0,0 0,0 0,0.01l-0.01 0c0,0.01 0,0.01 0,0.01 -0.01,0 0,0 -0.01,0l0 0.01c-0.01,0 0,0 -0.01,0.01 0,0 0,-0.01 0,0 0,0.01 0,0 0,0.01 -0.01,0 0,0.01 0,0.01l-0.01 0c0,0.01 0,0.02 0,0.02zm1.26 0.22c0.01,-0.01 0.01,-0.01 0.01,-0.01 0,0 0,0 0,0l0.03 0 0.01 0c0,0 0,0 0,0 0,0 0,0 0,0.01l0.01 0c0,0 0,0 0,0 0.01,0.02 0.01,0.01 0.01,0.02 0,0 0,0 0,0l0 0c0,0 0.01,0 0.01,0.01 0,0.04 0,0.11 -0.01,0.16l-0.09 0 0 -0.16c0,-0.01 0,-0.01 0,-0.01 0.01,-0.01 0.01,0 0.01,-0.02l0.01 0zm-0.04 -0.22c0.01,-0.01 0,0 0.02,0 0.01,0 0.01,-0.01 0.01,-0.01l0.07 0c0.01,0 0,0.01 0.02,0.01 0.01,0 0.01,-0.01 0.01,0l0.01 0c0,0 0,0 0,0l0.01 0c0,0.01 0,0 0,0.01 0,0 0.01,0 0.01,0 0,0 0,0 0,0 0.02,0 0.01,0 0.01,0 0.01,0.01 0.01,0.01 0.01,0.01 0,0 0,0 0,0l0.01 0c0,0 0,0 0,0 0.01,0.01 0.01,0.01 0.01,0.01 0,0 0.01,0 0.01,0l0.01 0.02 0.01 0c0,0 0,0 0,0l0.01 0.01c0,0 0,0 0,0l0.01 0.01c0,0 0,0 0,0l0.01 0.01c0,0 0,0 0,0 0,0 0,0 0,0l0.01 0.01c0,0 0.01,0.01 0.01,0.01 0,0 0,0 0,0l0 0c0,0 0,0 0,0.01 0,0 0,0 0,0 0.01,0 0.01,0 0.01,0.01 0,0 0,0 0.01,0 0,0.01 0,0.01 0,0.01 0,0.01 0,0.01 0.01,0.01l0 0.01 0 0c0,0.01 0,0.01 0,0.02 0.01,0 0.01,0 0.01,0.01l0 0 0 0.02c0.01,0 0.01,-0.01 0.01,0.03 0,0 0,0 0,0.02 0,0 0,0.01 0,0.02 0,0.04 0,0.1 0,0.14l-0.1 0c0,-0.03 0,-0.07 0,-0.1 0,-0.03 0,-0.07 0,-0.09 0,-0.01 0,-0.01 0,-0.01 0,0 0,-0.01 0,-0.01 -0.01,0 0,0 -0.01,0l0 0c0,-0.01 0,-0.02 0,-0.02 0,-0.01 0,-0.01 -0.01,-0.01 0,0 0,-0.01 -0.01,-0.01 0,0 0,0 0,0l0 -0.01 0 -0.01c-0.01,0 -0.01,0 -0.01,0 0,0 0,0 0,0l0 0c-0.02,-0.02 -0.02,-0.02 -0.03,-0.02l0 -0.01c-0.01,0 -0.01,0 -0.01,0 0,0 -0.01,0 -0.01,-0.01 0,0 0,0 0,0 -0.02,0 0,0 -0.02,0 0,0 0,0 0,0 -0.01,-0.01 0,-0.01 -0.02,-0.01 0,0 -0.01,0 -0.01,0 0,0 0,0 0,0 -0.01,0 0,0 -0.01,0 -0.04,-0.01 -0.02,0 -0.05,0 -0.02,0 -0.01,0 -0.01,0.01 -0.01,0 -0.01,0 -0.01,0 -0.01,0 0,0 -0.01,0 -0.01,0.01 -0.01,0.01 -0.01,0.01 -0.01,0 -0.01,0 -0.01,0l-0.01 0.01c-0.01,0 0,0 -0.01,0.01l-0.01 0.01c-0.01,0 -0.01,0 -0.01,0l0 0.01 -0.01 0c0,0 0,0 0,0.01l0 0c0,0 0,0 0,0l-0.01 0c0,0.01 0,0.01 0,0.01 0,0 0,0 0,0.01 -0.01,0 -0.01,0.01 -0.01,0.02l0 0c0,0 0,0.01 0,0.01 -0.01,0 -0.01,0 -0.01,0.01l0 0.04c0,0.04 0.01,0.1 0,0.15l-0.1 0c0,-0.03 0,-0.07 0,-0.1l0 -0.07c0,-0.02 0,-0.01 0.01,-0.01 0,-0.04 0,-0.03 0,-0.03l0 -0.02 0.01 0c0,-0.02 0,-0.01 0,-0.03l0.01 0 0 -0.01c0,0 0,0 0,-0.01 0.01,0 0.01,0 0.01,-0.01 0,0 0,0 0,0l0.01 -0.01c0,0 0,0 0,0 0,-0.01 0,-0.01 0,-0.01l0.02 -0.01c0,0 0,0 0,0l0.01 -0.02c0,0 0,0 0,0l0.02 -0.02c0,0 0,0 0,0l0.01 0 0.01 -0.01c0.01,-0.01 0,-0.01 0.01,-0.01 0.01,-0.01 0,0 0.01,-0.01 0,0 0,0 0.01,0 0,0 0,0 0,0 0.01,0 0.01,0 0.01,-0.01 0.01,0 0,0 0.01,0 0.01,0 0,0 0.01,0 0,0 0,0 0.01,0 0,-0.01 -0.01,-0.01 0.01,-0.01zm0.54 0.49c-0.01,0 0,0.01 -0.01,-0.01l0 0c0,0 0,0 0,0 0,0 -0.01,0 -0.01,0 0,-0.01 0.01,0 0,-0.01 0,0 0,0 0,0l-0.01 -0.01c0,0 0,0 0,0 0,0 0,0 0,0l0 0c0,0 0,0 0,-0.01 0,0 0,0 0,0 0,0 -0.01,0 -0.01,0l0 0c-0.01,-0.01 -0.01,0 -0.01,-0.01l0 0c0,0 0,0 -0.01,0 0,-0.01 0.01,-0.01 -0.01,-0.01l0 0 -0.01 0c0,-0.01 0,-0.01 -0.01,-0.01l0 0c0,0 0,0 0,0l0 -0.2c0,-0.03 -0.01,-0.01 -0.01,-0.02l0 -0.02c0,-0.01 0,-0.01 0,-0.01 0,0 0,-0.01 0,-0.02l-0.01 0c0,-0.01 0,-0.01 0,-0.02 0,-0.01 0,-0.01 -0.01,-0.01l0 -0.01c0,-0.01 0,0 0,-0.01 0,0 0,0 -0.01,0 0,-0.01 0,0 0,-0.01 0,0 0,0 0,0 0,-0.01 0,-0.01 0,-0.02l-0.01 0c0,0 0.01,0 0,0l0 -0.01c-0.01,-0.01 0,-0.01 -0.01,-0.02 0,0 0,0 -0.01,0 0,0 0,0 0,-0.01l0 0c0,0 0,0 0,0l-0.01 -0.01c0,0 0,0 0,0 0,-0.01 0,-0.01 -0.01,-0.01l0 0c0,0 0,0 0,0l0 0c0,0 0,0 0,0l-0.01 -0.01c0,-0.01 0,-0.01 0,-0.01l0 0c0,0 0,0 0,0 -0.01,0 -0.01,0 -0.01,0l0 0c0,0 0,0 0,0 0,0 0,0 0,0 0,0 0,0 0,0l0 -0.01c-0.01,0 0,0 -0.01,0 0,0 0,0 0,0l0 -0.01c0,0 0,0 0,0l-0.01 -0.01c0,0 0,0 0,0l0 0c-0.01,0 -0.01,0 -0.01,0l0 0 -0.01 0 0 -0.01c0,0 0,0 0,0l-0.01 0c0,0 0,0 0,0l0 -0.01 -0.01 0c0,-0.01 0,0 0,-0.01l-0.01 0c0,-0.01 0,0 -0.01,0l0 -0.01c-0.01,0 -0.01,0 -0.01,0l-0.01 -0.01c0,0 0,0 0,0 0,0 0,0 -0.01,0 0,0 0,0 -0.01,0 0,-0.01 0,-0.01 -0.01,-0.01 -0.01,0 0,0 -0.02,0 0,-0.01 0,-0.01 0,-0.01 0,0 0,0 -0.01,0 0,0 0,0 0,0 -0.01,-0.01 -0.02,0 -0.02,-0.01 -0.01,0 0,0 -0.01,0 0,0 -0.01,0 -0.02,0l0 0 -0.13 0 0 0c0,0 -0.01,0 -0.02,0 0,0 0,0 0,0 -0.01,0.01 -0.01,0 -0.02,0.01l0 0c-0.02,0 -0.01,0 -0.02,0 0,0 0,0 0,0.01 -0.02,0 -0.01,0 -0.01,0 -0.01,0 -0.02,0 -0.02,0.01 0,0 0,0 0,0 -0.01,0 0,0 -0.01,0 0,0 0,0 0,0 -0.01,0 0,0 -0.01,0l-0.01 0.01c0,0 0,0 -0.01,0.01 0,0 0,-0.01 0,0l-0.01 0c0,0.01 0,0 -0.01,0.01l-0.01 0c0,0 0,0 0,0l-0.01 0.02 -0.01 0 -0.02 0.02c0,0 0,0 0,0l0 0c0,0 0,0 0,0 0,0 0,0 0,0 0,0 0,0 0,0 0,0.01 0,0.01 0,0.01 0,0 0,0 0,0l-0.02 0.01c0,0 0,0 0,0l-0.01 0.01c0,0 0,0 0,0l0 0c0,0 0,0 0,0.01 -0.01,0 -0.01,0 -0.01,0.01 0,0 -0.01,0 -0.01,0.01 -0.01,0 0,0 0,0 0,0 0,0 0,0.01 0,0 0,0 0,0 -0.01,0.01 0,0 -0.01,0.01l0 0.01c-0.01,0 -0.01,0 -0.01,0 0,0 0,0 0,0 0,0.01 0,0 0,0.01 0,0 0,0 0,0 0,0 0,0 -0.01,0.01 0,0 0,0 0,0 0,0.01 0,0.01 0,0.01 0,0 0,0 0,0 -0.01,0.01 0,0 -0.01,0.01l0 0.01c-0.01,0 0,0 0,0.01 -0.01,0.01 -0.01,0.01 -0.01,0.02 0,0 0,0 0,0 0,0 0,0 0,0 0,0 0,0 0,0.01 0,0 0,0.01 0,0.01 -0.01,0 -0.01,0 -0.01,0.01l0 0.02c0,0.01 0,0 0,0.01 0,0 0,0.01 0,0.01 0,0.03 0,0.19 0,0.2 0,0 -0.01,0 -0.01,0 0,0 0,0 0,0 -0.01,0 -0.01,0 -0.01,0.01l-0.01 0 0 0c-0.01,0 -0.01,0.01 -0.01,0.01l-0.02 0.01c0,0 0,0 0,0l0 0.01c0,0 0,0 0,0l-0.01 0.01 0 0c-0.01,0.01 -0.01,0.01 -0.01,0.01l-0.01 0c0,0.01 0,0.01 0,0.01 0,0 0,0 0,0 0,0 0,0.01 0,0.01l0 0c-0.01,0.01 -0.01,0 -0.01,0.01 0,0.01 0,0.01 0,0.01 0,0.03 -0.01,0 -0.01,0.03 0,0.11 0,0.59 0,0.6 0,0.01 0,0 0.01,0.01l0 0.01c0,0 0,0.01 0,0.01 0,0.01 0,0 0.01,0.01l0 0 0 0.01 0 0 0.01 0.01c0,0 0,0 0,0l0 0c0,0.01 0,0 0.01,0.01 0,0 0,0 0,0.01l0 0c0,0 0,0 0,0l0.01 0c0,0 0,0 0,0l0 0.01c0,0 0,0 0,0l0.01 0c0,0 0,0 0,0 0.01,0.01 0,0.01 0.01,0.01l0 0c0,0 0,0 0,0l0 0.01 0.01 0c0,0 0,0 0.01,0l0 0.01 0.01 0c0,0 0,0 0.02,0 0,0.01 -0.01,0.01 0.01,0.01 0.02,0 0.01,0 0.02,0 0.02,0 0.12,0 0.15,0l0.47 0c0.02,0 0.04,0 0.05,0 0.01,0 0.01,0 0.01,0 0,-0.01 0.01,0 0.02,0 0.01,-0.01 0.01,-0.01 0.01,-0.01 0.02,0 0.01,0 0.01,0l0.01 0 0 -0.01c0.01,0 0.01,0 0.01,0l0.01 0c0,-0.01 0,-0.01 0.01,-0.01l0.02 -0.02c0.01,-0.01 0.01,-0.01 0.01,-0.01 0.01,-0.01 0,0 0,-0.01l0.01 -0.01 0 0 0.01 -0.01 0 0c0,-0.01 0,0 0,-0.01 0,-0.01 0,-0.01 0.01,-0.01l0 -0.01c0,-0.01 0,0 0,-0.01 0.01,-0.01 0,-0.49 0,-0.6 0,-0.03 0,0 0,-0.03 -0.01,0 -0.01,0 -0.01,-0.01 0,-0.01 0,0 0,-0.01 0,0 0,0 0,-0.01z"></path> </g> </g> </svg>