<svg xmlns="http://www.w3.org/2000/svg" xmlns:xlink="http://www.w3.org/1999/xlink" xml:space="preserve" width="91px" height="91px" style="shape-rendering:geometricPrecision; text-rendering:geometricPrecision; image-rendering:optimizeQuality; fill-rule:evenodd; clip-rule:evenodd" viewBox="0 0 6.38 6.38"> <defs> <style type="text/css"> .fil1 {fill:#083264} .fil0 {fill:white} </style> </defs> <g id="Layer_x0020_1"> <metadata id="CorelCorpID_0Corel-Layer"></metadata> <g id="_1754026143168"> <circle class="fil0" cx="3.19" cy="3.19" r="3.19"></circle> <path class="fil1" d="M4.86 3.63c0.71,0 0.79,0.81 0.48,1.02 -0.03,-0.31 -0.49,-0.49 -0.76,-0.23 -0.12,0.11 -0.08,0.09 -0.14,0.23 -0.33,-0.22 -0.15,-1.02 0.42,-1.02zm-3.61 0.3c0,0.14 0.01,0.32 0.24,0.32 0.35,0 0.33,-0.52 0,-0.52 -0.06,0 -0.12,0.03 -0.16,0.06 -0.03,0.02 -0.08,0.09 -0.08,0.14zm3.39 0.05c0,0.36 0.47,0.35 0.51,0.04 0.05,-0.36 -0.51,-0.39 -0.51,-0.04zm-1.5 -1.15c0.49,0 0.34,-0.55 0.08,-0.55 -0.42,0 -0.39,0.55 -0.08,0.55zm-2.09 1.82c-0.33,-0.22 -0.21,-1.02 0.44,-1.02 0.66,0 0.77,0.8 0.45,1.02 -0.11,-0.47 -0.78,-0.47 -0.89,0zm2.09 -2.45c0.32,0 0.47,0.13 0.6,0.38 -0.02,0.02 -0.04,0.05 -0.07,0.08 -0.08,0.11 -0.16,0.18 -0.3,0.23 -0.25,0.08 -0.55,-0.02 -0.69,-0.23 -0.07,-0.09 -0.07,-0.12 0.01,-0.21 0.09,-0.12 0.25,-0.25 0.45,-0.25zm-1.07 0.38c0,0.12 0.04,0.28 0.07,0.37 0.06,0.15 0.13,0.21 0.15,0.3l-0.4 0.42c-0.51,-0.32 -1.09,0.05 -1.09,0.58 0,0.52 0.63,0.96 1.17,0.5 0.32,-0.27 0.24,-0.64 0.07,-0.95l0.4 -0.4c0.38,0.26 0.73,0.38 1.21,0.18 0.14,-0.05 0.18,-0.11 0.29,-0.18l0.4 0.39c-0.02,0.09 -0.07,0.14 -0.1,0.21 -0.06,0.18 -0.07,0.36 0.02,0.53 0.14,0.3 0.52,0.52 0.91,0.35 0.07,-0.03 0.16,-0.09 0.21,-0.14 0.51,-0.51 0,-1.54 -0.89,-1.06l-0.41 -0.42c0.13,-0.24 0.23,-0.36 0.23,-0.71 0,-0.46 -0.27,-0.83 -0.65,-1.01 -0.43,-0.2 -0.94,-0.09 -1.26,0.22 -0.21,0.21 -0.33,0.51 -0.33,0.82z"></path> </g> </g> </svg>