<svg xmlns="http://www.w3.org/2000/svg" xmlns:xlink="http://www.w3.org/1999/xlink" xml:space="preserve" width="91px" height="91px" style="shape-rendering:geometricPrecision; text-rendering:geometricPrecision; image-rendering:optimizeQuality; fill-rule:evenodd; clip-rule:evenodd" viewBox="0 0 4.69 4.69"> <defs> <style type="text/css"> .fil1 {fill:#083264} .fil0 {fill:white} </style> </defs> <g id="Layer_x0020_1"> <metadata id="CorelCorpID_0Corel-Layer"></metadata> <g id="_1718115645584"> <circle class="fil0" cx="2.35" cy="2.35" r="2.35"></circle> <g> <path class="fil1" d="M3.5 2.01l-0.59 0c-0.02,0 -0.04,-0.01 -0.04,-0.03l0 -0.34c0,-0.03 0.02,-0.04 0.05,-0.04l0.33 0c0.06,0 0.08,0.04 0.1,0.08 0.03,0.04 0.19,0.26 0.2,0.29 0,0.02 -0.02,0.04 -0.05,0.04zm0.52 0.82l0 0.15c-0.01,0.06 -0.04,0.05 -0.2,0.05 -0.08,0 -0.15,0 -0.23,0 -0.03,-0.11 -0.06,-0.17 -0.13,-0.23 -0.23,-0.23 -0.61,-0.05 -0.64,0.23l-0.78 0c0,-0.06 -0.04,-0.15 -0.08,-0.19 -0.01,-0.02 -0.03,-0.03 -0.04,-0.06l0.73 0 0 -1.34c0,-0.07 0.04,-0.11 0.11,-0.11 0.13,0 0.45,-0.01 0.55,0.03 0.04,0.01 0.09,0.04 0.12,0.06 0.08,0.07 0.18,0.24 0.24,0.33 0.07,0.11 0.18,0.24 0.18,0.37l0 0.66c0.06,0 0.17,-0.01 0.17,0.04 0,0.01 0,0.01 0,0.01z"></path> <path class="fil1" d="M0.67 2.16l0 0.45c0,0.05 0.05,0.08 0.1,0.08l1.65 0c0.06,0 0.1,-0.05 0.1,-0.11l0 -0.39c0,-0.08 -0.04,-0.12 -0.12,-0.12l-1.62 0c-0.05,0 -0.11,0.04 -0.11,0.09z"></path> <path class="fil1" d="M1.67 1.41l0 0.44c0,0.05 0.04,0.09 0.09,0.09l0.67 0c0.03,0 0.05,-0.02 0.07,-0.04 0.01,-0.02 0.02,-0.05 0.02,-0.08l0 -0.38c0,-0.08 -0.04,-0.13 -0.12,-0.13l-0.6 0c-0.08,0 -0.13,0.03 -0.13,0.1z"></path> <path class="fil1" d="M0.67 1.41l0 0.44c0,0.04 0.05,0.09 0.09,0.09l0.68 0c0.04,0 0.09,-0.05 0.09,-0.12l0 -0.38c0,-0.08 -0.04,-0.13 -0.13,-0.13l-0.6 0c-0.07,0 -0.13,0.03 -0.13,0.1z"></path> <path class="fil1" d="M1.66 2.93c0.2,0 0.19,0.29 0.02,0.29 -0.05,0 -0.08,0 -0.13,-0.05 -0.02,-0.02 -0.03,-0.06 -0.03,-0.1 0,-0.08 0.07,-0.14 0.14,-0.14zm0.3 0.15c0,-0.31 -0.43,-0.42 -0.57,-0.12 -0.05,0.12 -0.01,0.26 0.06,0.33 0.2,0.19 0.51,0.04 0.51,-0.21z"></path> <path class="fil1" d="M3.23 3.22l-0.04 0c-0.17,0 -0.18,-0.29 0.02,-0.29 0.03,0 0.07,0.03 0.09,0.05 0.1,0.09 0.01,0.24 -0.07,0.24zm-0.32 -0.14c0,0.25 0.3,0.4 0.5,0.21 0.12,-0.11 0.12,-0.33 -0.03,-0.45 -0.18,-0.14 -0.47,-0.01 -0.47,0.24z"></path> <path class="fil1" d="M0.7 2.86c0,0.19 -0.03,0.17 0.25,0.17 0.11,0 0.22,0 0.33,0 0.01,-0.06 0.02,-0.1 0.05,-0.14 0.01,-0.02 0.02,-0.04 0.03,-0.05 0.02,-0.02 0.04,-0.03 0.05,-0.06l-0.59 0c-0.08,0 -0.12,-0.01 -0.12,0.08z"></path> </g> </g> </g> </svg>