<svg xmlns="http://www.w3.org/2000/svg" xmlns:xlink="http://www.w3.org/1999/xlink" xml:space="preserve" width="91px" height="91px" style="shape-rendering:geometricPrecision; text-rendering:geometricPrecision; image-rendering:optimizeQuality; fill-rule:evenodd; clip-rule:evenodd" viewBox="0 0 6.38 6.38"> <defs> <style type="text/css"> .fil1 {fill:#083264} .fil0 {fill:white} </style> </defs> <g id="Layer_x0020_1"> <metadata id="CorelCorpID_0Corel-Layer"></metadata> <g id="_1718300500160"> <circle class="fil0" cx="3.19" cy="3.19" r="3.19"></circle> <path class="fil1" d="M4.55 3.89c-0.01,0.02 -0.03,0.03 -0.07,0.03 -0.07,0 -0.59,0.01 -0.61,0 -0.04,-0.01 -0.06,-0.1 0.04,-0.1 0.08,0 0.59,0 0.61,0 0.02,0.01 0.04,0.04 0.03,0.07zm-1.18 -0.08l0 0.14 0.19 0c0.01,0 0,0 0.01,0 0,-0.02 0,-0.24 -0.01,-0.27 0,-0.03 -0.02,-0.06 -0.04,-0.09 -0.03,-0.05 -0.06,-0.06 -0.06,-0.07 -0.02,0 -0.03,-0.01 -0.05,-0.02 -0.02,-0.01 -0.04,-0.01 -0.06,-0.02 -0.02,-0.01 -0.09,-0.03 -0.11,-0.03l-0.09 0.09c-0.08,0.08 -0.12,0.17 -0.21,0.1l-0.1 -0.07c0,0 0.01,0 0,0l0 0.38c0.03,0 0.07,0 0.1,0 0.05,0 0.31,0 0.33,0 0.01,-0.02 0.01,-0.12 0,-0.14 0,-0.05 0.1,-0.05 0.1,0zm-0.9 -0.41l-0.03 0.01 0.14 0.14c0.01,0 0.1,-0.07 0.12,-0.08 -0.01,-0.01 -0.06,-0.04 -0.07,-0.05 -0.01,-0.01 -0.02,-0.02 -0.03,-0.03 -0.01,0 -0.03,-0.02 -0.04,-0.02l-0.09 0.03zm0.4 0.07l0.12 0.09c0.02,-0.01 0.14,-0.14 0.14,-0.15l-0.11 -0.04c-0.01,0 -0.02,0.01 -0.03,0.01 -0.02,0.02 -0.11,0.08 -0.12,0.09zm-0.2 -0.15l0.11 0.08c0.02,0 0.07,-0.04 0.09,-0.05 0.03,-0.02 0.05,-0.04 0.08,-0.06l0 -0.05 -0.02 0.01c-0.06,0.01 -0.09,0.03 -0.16,0.02 -0.09,0 -0.13,-0.03 -0.15,-0.03 0,0.05 -0.01,0.04 0.05,0.08zm2.33 1.09c0,-0.03 0,-0.15 0,-0.19l0 -1.32c0,-0.01 0,0 0,0 -0.01,0 -0.06,0.04 -0.08,0.06 -0.01,0.01 -0.07,0.04 -0.08,0.05 -0.01,0.03 0,1.11 0,1.13 0,0.13 -0.01,0.11 -0.18,0.11l-2.98 0c-0.04,0 -0.11,0.01 -0.13,-0.02 -0.02,-0.02 -0.01,-0.08 -0.01,-0.12l0 -1.99c0,-0.04 -0.01,-0.1 0,-0.14 0.01,-0.08 0.07,-0.13 0.13,-0.16 0.06,-0.03 0.19,-0.02 0.26,-0.02 0.48,0 0.95,0 1.42,0 0.09,0 0.2,0.01 0.29,0 0.01,-0.02 0.03,-0.05 0.04,-0.07 0.01,-0.01 0.04,-0.06 0.05,-0.07l0.01 -0.01c0.01,-0.01 0,0 0.01,-0.01 -0.62,0 -1.25,0 -1.87,0 -0.15,0 -0.27,-0.01 -0.4,0.11 -0.05,0.05 -0.11,0.16 -0.11,0.23 -0.01,0.01 0,0.26 0,0.3l0 0.91c0,0.04 0,1.18 0,1.22 0.07,0.01 0.16,0 0.23,0 0.07,0 0.15,0 0.23,0 0.23,0 3.14,0.01 3.17,0zm-2.24 0.26l0.86 0c0,-0.02 0,-0.13 0,-0.16l-0.86 0c0,0.03 -0.01,0.14 0,0.16zm-0.45 -1.21c-0.02,0 -0.06,0.01 -0.08,0.02 -0.02,0.01 -0.05,0.01 -0.07,0.02 -0.11,0.05 -0.15,0.14 -0.15,0.25 0,0.23 -0.02,0.2 0.04,0.2l0.15 0c0.01,-0.06 -0.03,-0.18 0.05,-0.18 0.08,0 0.05,0.11 0.05,0.18 0.09,0.01 0.39,-0.01 0.43,0l0.01 -0.38c-0.02,0.01 -0.04,0.02 -0.06,0.04 -0.04,0.03 -0.07,0.06 -0.12,0.05 -0.03,0 -0.04,-0.02 -0.05,-0.03 -0.02,-0.02 -0.03,-0.03 -0.05,-0.05l-0.09 -0.09c-0.01,-0.01 -0.03,-0.03 -0.04,-0.04l-0.02 0.01zm0.35 -0.32c0.01,0 0.04,0.02 0.1,0.03 0.11,0.01 0.21,-0.04 0.27,-0.12 0.09,-0.1 0.09,-0.17 0.09,-0.3 0,-0.04 0,-0.09 0,-0.13 -0.02,0 -0.07,-0.01 -0.08,-0.03 -0.03,-0.01 -0.06,-0.04 -0.08,-0.06 -0.01,0 -0.07,0.04 -0.1,0.05 -0.15,0.06 -0.25,0.06 -0.41,0.05 0,0.06 0.01,0.13 0.01,0.18 0,0.12 0.05,0.23 0.14,0.3 0.01,0.01 0.05,0.02 0.06,0.03zm-0.14 0.03c-0.03,-0.01 -0.08,-0.08 -0.1,-0.12 -0.08,-0.13 -0.07,-0.24 -0.07,-0.38 0,-0.08 -0.02,-0.17 0.08,-0.14 0.13,0.03 0.28,0.01 0.39,-0.04 0.03,-0.02 0.05,-0.03 0.07,-0.04 0.02,-0.01 0.06,-0.04 0.07,-0.04 0.05,-0.01 0.05,0.03 0.1,0.07l0.03 0.03c0.01,0 0.03,0.01 0.04,0.01 0.06,0.01 0.09,-0.02 0.09,0.1 0,0.15 0.02,0.29 -0.06,0.43 -0.02,0.03 -0.04,0.07 -0.08,0.1 -0.01,0.01 -0.02,0.02 -0.03,0.03 0.04,0 0.08,0 0.11,0 0.04,0 0.07,0 0.08,-0.03 0.03,-0.02 0.02,-0.16 0.02,-0.2 0,-0.15 0,-0.29 0,-0.44 0,-0.09 0,-0.19 -0.1,-0.23 -0.04,-0.02 -0.02,0.01 -0.07,-0.04 -0.07,-0.06 -0.16,-0.13 -0.3,-0.14 -0.21,0 -0.47,0.15 -0.48,0.4 0,0.15 0,0.3 0,0.44 0,0.16 -0.02,0.24 0.09,0.24 0.04,0 0.08,0 0.11,0 0.01,0 0.01,0 0.01,-0.01zm1.78 -0.84c0.03,-0.02 0.05,-0.05 0.08,-0.08l0.21 -0.21c0.01,-0.01 0.04,-0.06 0.09,-0.04 0.02,0.01 0.05,0.05 0.01,0.09l-0.32 0.32c-0.06,0.05 -0.07,0.06 -0.13,0 -0.02,-0.02 -0.04,-0.04 -0.07,-0.07 -0.01,-0.02 -0.06,-0.05 -0.03,-0.09 0.01,-0.01 0.03,-0.02 0.05,-0.02 0.03,0 0.08,0.08 0.11,0.1zm0.63 -0.06c0.03,-0.3 -0.2,-0.53 -0.46,-0.56 -0.28,-0.02 -0.53,0.18 -0.56,0.46 -0.03,0.28 0.18,0.53 0.46,0.56 0.3,0.03 0.53,-0.2 0.56,-0.46zm-1.12 -0.01c-0.02,-0.35 0.25,-0.63 0.57,-0.65 0.35,-0.02 0.63,0.25 0.65,0.58 0.03,0.54 -0.61,0.85 -1.02,0.48l-0.04 -0.03c-0.04,-0.05 -0.07,-0.09 -0.1,-0.14 -0.03,-0.07 -0.05,-0.15 -0.06,-0.24zm0.1 -0.63c-0.08,0.06 -0.19,0.19 -0.23,0.32 -0.06,0.17 -0.06,0.37 0,0.54 0.06,0.17 0.16,0.28 0.27,0.36 0.29,0.22 0.69,0.2 0.96,-0.01 0.26,-0.21 0.37,-0.59 0.24,-0.91 -0.07,-0.16 -0.17,-0.28 -0.29,-0.36 -0.12,-0.08 -0.3,-0.15 -0.5,-0.13 -0.18,0.01 -0.35,0.1 -0.45,0.19zm-2.83 3.12c0.01,0.03 0.01,0.06 0.05,0.1 0.09,0.11 0.21,0.09 0.36,0.09l3.33 0c0.06,0 0.25,0 0.3,-0.01 0.08,-0.02 0.13,-0.07 0.16,-0.14 0.03,-0.06 0.02,-0.19 0.02,-0.28 -0.12,0 -0.27,0 -0.39,0 -0.14,0 -0.27,0 -0.4,0 -0.05,0 -0.77,0 -0.79,0.01 0,0.06 0,0.13 0,0.19 0,0.07 -0.08,0.06 -0.14,0.06l-0.79 0c-0.06,0 -0.14,0.01 -0.14,-0.06 0,-0.07 0,-0.13 0,-0.2l-1.58 0c0,0.08 0,0.17 0.01,0.24zm2.76 -1.13c0,-0.03 0.02,-0.05 0.04,-0.06 0.02,0 0.46,0 0.51,0 0.06,0 0.15,-0.02 0.16,0.04 0.01,0.08 -0.09,0.06 -0.14,0.06l-0.51 0c-0.03,0 -0.05,-0.01 -0.06,-0.04zm0 -0.26c-0.01,-0.08 0.1,-0.06 0.14,-0.06l0.51 0c0.08,0 0.07,0.09 0.02,0.1 -0.02,0 -0.45,0 -0.51,0 -0.05,0 -0.15,0.02 -0.16,-0.04zm-0.53 -0.13c-0.06,0.07 -0.18,0.04 -0.24,0.05 0.02,0.01 0.05,0.02 0.07,0.03 0.03,0.01 0.05,0.01 0.08,0.02 0.07,0.02 0.23,0.07 0.28,0.1 0.03,0.02 0.09,0.07 0.1,0.1 0.01,0.01 0.04,0.06 0.04,0.07 0.04,0.1 0.03,0.22 0.03,0.32 0,0.08 -0.03,0.13 -0.1,0.13 -0.08,0.01 -0.16,0 -0.24,0l-1.16 0c-0.06,0 -0.18,0.01 -0.22,-0.02 -0.06,-0.04 -0.05,-0.1 -0.05,-0.18 0,-0.07 0,-0.15 0.02,-0.22 0.06,-0.21 0.23,-0.23 0.41,-0.29 0.02,-0.01 0.05,-0.02 0.08,-0.03 0.03,-0.01 0.07,-0.02 0.09,-0.03 -0.09,-0.01 -0.14,0.02 -0.21,-0.03 -0.03,-0.01 -0.05,-0.04 -0.06,-0.07 -0.02,-0.03 -0.02,-0.06 -0.02,-0.11 0,-0.16 0,-0.33 0,-0.5 0,-0.16 0.02,-0.25 0.13,-0.37 0.06,-0.08 0.18,-0.15 0.32,-0.18 0.15,-0.04 0.29,0 0.39,0.07 0.07,0.04 0.06,0.04 0.11,0.08 0.01,0.01 0.02,0.01 0.04,0.02 0.06,0.03 0.1,0.06 0.13,0.12 0.03,0.07 0.03,0.14 0.03,0.22l0 0.5c0,0.09 0,0.15 -0.05,0.2zm1.42 -0.18c-0.11,0.03 -0.12,0.05 -0.26,0.06 -0.1,0 -0.19,-0.01 -0.28,-0.03 -0.3,-0.08 -0.55,-0.32 -0.63,-0.63 -0.02,-0.09 -0.03,-0.19 -0.02,-0.28 0,-0.05 0.03,-0.23 0.05,-0.26 0,-0.01 -0.02,0 -0.06,0l-1.77 0c-0.09,0 -0.12,0.05 -0.12,0.14l0 1.83c0,0.08 -0.01,0.18 0,0.27l3.1 0c0,-0.11 0,-1.08 -0.01,-1.1z"></path> </g> </g> </svg>