<svg xmlns="http://www.w3.org/2000/svg" xmlns:xlink="http://www.w3.org/1999/xlink" xml:space="preserve" width="91px" height="91px" style="shape-rendering:geometricPrecision; text-rendering:geometricPrecision; image-rendering:optimizeQuality; fill-rule:evenodd; clip-rule:evenodd" viewBox="0 0 6.36 6.36"> <defs> <style type="text/css"> .fil1 {fill:#083264} .fil0 {fill:white} </style> </defs> <g id="Layer_x0020_1"> <metadata id="CorelCorpID_0Corel-Layer"></metadata> <g id="_1718451261872"> <circle class="fil0" cx="3.18" cy="3.18" r="3.18"></circle> <path class="fil1" d="M1.48 2.07l0 2.22c0,0.05 0.02,0.11 0.04,0.15 0.06,0.13 0.2,0.24 0.35,0.24l0.72 0c0.09,0 0.15,-0.15 0.04,-0.21 -0.04,-0.02 -0.08,-0.01 -0.14,-0.01 -0.09,0 -0.59,0 -0.64,0 -0.07,-0.02 -0.15,-0.09 -0.15,-0.17l0 -2.21c0,-0.11 0.1,-0.18 0.21,-0.18l1.92 0c0.08,0 0.13,0.02 0.18,0.08 0.08,0.1 0,0.55 0.05,0.62 0.07,0.1 0.2,0.03 0.2,-0.05l0 -0.5c0,-0.09 -0.06,-0.18 -0.11,-0.24l-0.02 -0.02c-0.09,-0.08 -0.2,-0.11 -0.33,-0.11l-1.87 0c-0.11,0 -0.23,0.03 -0.31,0.1 -0.06,0.07 -0.14,0.17 -0.14,0.29zm2.31 2.09c0,0.13 -0.01,0.11 0.15,0.11 0.04,0 0.03,-0.07 0.03,-0.12 0,-0.05 -0.09,-0.03 -0.15,-0.03 -0.02,0 -0.03,0.02 -0.03,0.04zm0 -0.7c-0.01,0.07 0,0.42 0,0.52 0,0.05 0.08,0.03 0.14,0.03 0.02,0 0.04,0 0.04,-0.02l0 -0.51c0,-0.05 -0.16,-0.02 -0.18,-0.02zm-1.78 0.4c0,0.08 0.05,0.13 0.11,0.13l0.63 0c0.15,0 0.15,-0.24 0,-0.24l-0.63 0c-0.07,0 -0.11,0.08 -0.11,0.11zm0 -0.66c0,0.06 0.04,0.12 0.11,0.12l0.85 0c0.13,0 0.17,-0.24 -0.04,-0.24l-0.77 0c-0.09,0 -0.15,0.04 -0.15,0.12zm0 -0.67c0,0.06 0.05,0.12 0.1,0.12l1.28 0c0.16,0 0.14,-0.23 0.02,-0.23l-1.29 0c-0.07,0 -0.11,0.05 -0.11,0.11zm1.11 1.81c0,-0.03 0.07,-0.14 0.09,-0.17l0.28 -0.49c0.08,-0.13 0.3,-0.5 0.36,-0.62 0.04,-0.08 0.08,0 0.09,0.03l0.43 0.74c0.03,0.06 0.06,0.11 0.1,0.17l0.18 0.33c0,0.03 -0.02,0.04 -0.05,0.04l-1.43 0c-0.02,0 -0.05,-0.02 -0.05,-0.03zm-0.22 -0.01c0,0.05 0.01,0.07 0.03,0.11 0.05,0.1 0.14,0.15 0.26,0.15l1.39 0c0.12,0 0.2,-0.04 0.26,-0.13 0.08,-0.14 0,-0.26 -0.06,-0.35l-0.4 -0.7c-0.05,-0.09 -0.24,-0.43 -0.29,-0.49 -0.08,-0.12 -0.32,-0.17 -0.44,0.05 -0.01,0.01 -0.02,0.03 -0.03,0.05l-0.17 0.3c-0.02,0.03 -0.04,0.06 -0.06,0.09 -0.01,0.02 -0.01,0.04 -0.02,0.05l-0.38 0.65c-0.03,0.06 -0.09,0.13 -0.09,0.22z"></path> </g> </g> </svg>