<svg xmlns="http://www.w3.org/2000/svg" xmlns:xlink="http://www.w3.org/1999/xlink" id="Layer_1" x="0px" y="0px" viewBox="0 0 91 91" style="enable-background:new 0 0 91 91;" xml:space="preserve"> <style type="text/css"> .st0{fill-rule:evenodd;clip-rule:evenodd;fill:#FFFFFF;} .st1{fill-rule:evenodd;clip-rule:evenodd;fill:#0B2852;} </style> <g> <circle class="st0" cx="45.5" cy="45.5" r="45.5"></circle> <path class="st1" d="M47.43,65.17c0.15,3.55-0.48,6.44,1.97,8.39c2.38,1.9,5.34,1.31,8.95,1.34c3.43,0.04,6.93,0.03,10.36,0.01 c3.9-0.03,6.33,0.36,8.51-2.04c1.83-2.01,1.42-5.99,1.37-8.97c-0.11-6.07,1.72-15.24-5.24-15.67c-3.36-0.21-7.18-0.01-10.59-0.01 c0.18-5.55,1.01-8.76-2.44-15.01c-1.21-2.2-2.22-3.48-3.86-5.1c-5.45-5.39-12.34-7.38-20.44-5.86c-5.13,0.96-8.73,3.79-11.49,6.65 c-6.05,6.23-8.17,18.41-2.25,27.04c2.51,3.66,5.47,6.18,9.87,8.27C39.6,67.73,44.48,65.33,47.43,65.17L47.43,65.17z M52.5,50.66 c1.15-0.34,9.77-0.09,11.75-0.09c13.69-0.04,11.73-1.31,11.86,12.16c0.03,3.26,1.05,8.98-2.46,9.64 c-2.49,0.47-9.02,0.03-11.99,0.09c-2.05,0.04-4.08-0.05-6.12-0.03c-6.11,0.07-5.94-0.4-5.69-12.3 C49.95,55.09,48.79,51.76,52.5,50.66L52.5,50.66z M37.95,72.61l-2.41-0.52c-9.59-1.58-18.68-8.91-21.75-18.71 c-3.74-11.93-0.47-23.56,8.44-31.51c3.48-3.1,9.14-5.78,15.16-6.52c7.19-0.88,12.35,0.6,17.63,3.38c1.26,0.67,2.25,1.33,3.26,2.16 c2.52,2.06,2.38,1.65,4.25,4c4.82,6.1,6.09,9.02,7.17,17.15c0.27,2,0.07,3.34-2.02,2.84c-0.6-1.31-0.27-2.63-0.6-4.36 c-0.73-3.86-1.47-7.39-3.84-10.71c-3.29-4.61-1.37-1.9-4.41-5.24c-1.49-1.64-3.71-3-5.6-4.06c-9.98-5.59-22.17-2.79-29.55,3.26 c-13.31,10.91-12.19,35.9,6.14,43.94c1.86,0.81,5.3,2.13,7.61,2.1c-0.38-0.58-1.51-1.32-0.73-2.39c1.48-2.04,5.46,3.99,5.46,4.01 c0.01,0.71-2.92,3.56-3.52,4.06c-0.78,0.64-2.2,0.61-2.17-0.76C36.47,73.63,37.41,73.76,37.95,72.61L37.95,72.61z M47.46,60.13 c-8.21,3.73-17.14-0.9-20.89-6.12C19.46,44.09,24.62,29.85,37,26.77C48.98,23.78,61.2,35,57.96,48.19l-1.99-0.02 c0.07-1.09,0.45-2.02,0.33-3.12c-1.23-0.64-2.36,0.33-1.85-1.8c1.25-0.62,2.26,0.1,1.86-1.82c-1.48-7.07-7.24-13.19-14.19-12.94 c-0.49,0.88,0.07,1.96-1.18,1.97c-1.17,0.01-0.87-1.1-1.17-1.91c-4.32-0.46-8.78,3.13-10.51,5.04c-1.16,1.29-2.16,2.86-2.9,4.89 c-1.91,5.28-0.35,4.26,1,4.61c0.13,0.69,0.12,0.91-0.05,1.57l-1.71,0.39c-0.17,3.06,1.28,5.72,2.72,7.92 c2.05,3.13,7.84,6.79,11.45,6.24c0.29-0.83-0.02-1.92,1.19-1.93c1.2-0.02,0.77,0.99,1.07,1.99c1.98,0.24,3.89-0.99,5.44-1.18 L47.46,60.13L47.46,60.13z M61.18,60.36c2.72-2.83,7.34-8.66,10.26-4.83c2.14,2.8-0.44,4.63-1.44,5.65 c-9.15,9.38-8.32,9.71-14.54,3.49c-1.78-1.78-2.62-3.95-0.32-5.87C57.84,56.54,59.89,59.82,61.18,60.36L61.18,60.36z M40.41,44.76 c-0.36-0.4-3.7-7.69-3.75-8.46c-0.07-1.18,0.93-1.4,1.61-0.84c0.39,0.32,0.8,1.55,1,2.08c0.59,1.5,1.35,2.89,1.81,4.37 c1.94-0.68,2.09-2.81,3.68-2.09c1.09,1.26-0.57,2.36-1.33,3.03C42.51,43.68,42.09,44.79,40.41,44.76z"></path> </g> </svg>