<svg xmlns="http://www.w3.org/2000/svg" xmlns:xlink="http://www.w3.org/1999/xlink" xml:space="preserve" width="91px" height="91px" style="shape-rendering:geometricPrecision; text-rendering:geometricPrecision; image-rendering:optimizeQuality; fill-rule:evenodd; clip-rule:evenodd" viewBox="0 0 6.38 6.38"> <defs> <style type="text/css"> .fil1 {fill:#083264} .fil0 {fill:white} </style> </defs> <g id="Layer_x0020_1"> <metadata id="CorelCorpID_0Corel-Layer"></metadata> <g id="_1718252735120"> <circle class="fil0" cx="3.19" cy="3.19" r="3.19"></circle> <path class="fil1" d="M2.75 4.67l0.86 0 0.06 0.19 -0.96 0 0.04 -0.19zm1.84 -2.51c-0.08,-0.04 -0.25,-0.02 -0.35,-0.02 0.01,-0.09 0.03,-0.21 -0.02,-0.29 -0.05,-0.03 -1.03,-0.41 -1.05,-0.41 -0.04,-0.01 -0.97,0.36 -1.06,0.41l0.02 0.3c-0.61,-0.01 -0.47,-0.08 -0.47,1.39 0,0.28 -0.05,0.46 0.1,0.53 -0.17,0.06 -0.12,0.09 -0.27,0.38 -0.04,0.08 -0.07,0.14 -0.1,0.22 -0.17,0.35 -0.1,0.27 0.84,0.27l2.61 0c0.36,0 0.25,-0.06 -0.06,-0.7 -0.08,-0.16 -0.03,-0.11 -0.16,-0.17 0.13,-0.05 0.09,-0.22 0.09,-0.44l0 -1.06c0,-0.17 0.04,-0.37 -0.12,-0.41zm-1.37 0.56c0.03,-0.06 0.08,-0.06 0.06,-0.15 -0.05,-0.2 -0.38,0 -0.15,0.13l-0.07 0.23 0.22 0.01 -0.06 -0.22zm0.24 -0.39c0.01,-0.44 -0.59,-0.45 -0.6,0l0.6 0zm-1.55 1.83l2.55 0 0.18 0.44 -0.19 0 -2.51 0 -0.19 0 0.16 -0.44zm0.07 -0.16c-0.12,0 -0.15,-0.01 -0.15,-0.12 -0.01,-0.37 0,-0.96 0,-1.36 0,-0.11 -0.01,-0.17 0.08,-0.19 0.05,-0.01 0.19,0 0.25,0 0.09,0.48 0.22,0.76 0.48,1.11 0.08,0.1 0.41,0.38 0.54,0.37 0.12,-0.02 0.35,-0.18 0.41,-0.23 0.41,-0.34 0.52,-0.69 0.63,-1.24 0.09,-0.01 0.22,-0.01 0.3,0.01 0.06,0.13 0.03,0.62 0.03,0.82 0,0.18 0.02,0.7 -0.03,0.82 -0.26,0.03 -2.13,0.01 -2.54,0.01zm1.57 -0.95c-0.11,0.03 -0.35,0.01 -0.48,0.01 -0.22,0 -0.34,0.07 -0.33,-0.17 0,-0.08 -0.01,-0.44 0,-0.49 0.02,-0.06 0.03,-0.03 0.05,-0.08 0.02,-0.05 0,-0.14 0.1,-0.26 0.18,-0.22 0.53,-0.14 0.62,0.12 0.01,0.05 0.01,0.07 0.02,0.12 0.02,0.09 0.01,0.01 0.03,0.08 0.03,0.05 0.03,0.58 -0.01,0.67z"></path> </g> </g> </svg>