<svg xmlns="http://www.w3.org/2000/svg" xmlns:xlink="http://www.w3.org/1999/xlink" xml:space="preserve" width="91px" height="91px" style="shape-rendering:geometricPrecision; text-rendering:geometricPrecision; image-rendering:optimizeQuality; fill-rule:evenodd; clip-rule:evenodd" viewBox="0 0 4.59 4.59"> <defs> <style type="text/css"> .fil1 {fill:#083264} .fil0 {fill:white} </style> </defs> <g id="Layer_x0020_1"> <metadata id="CorelCorpID_0Corel-Layer"></metadata> <g id="_1718181843056"> <circle class="fil0" cx="2.3" cy="2.3" r="2.3"></circle> <path class="fil1" d="M2.81 2.18l-0.05 0c-0.01,-0.04 -0.03,-0.08 -0.05,-0.12l0.04 -0.04c0.01,-0.01 0.02,-0.03 0.02,-0.05 0,-0.02 -0.01,-0.03 -0.02,-0.05l-0.07 -0.07c-0.03,-0.03 -0.07,-0.03 -0.1,0l-0.04 0.04c-0.03,-0.03 -0.08,-0.04 -0.12,-0.06l0 -0.05c0,-0.02 -0.01,-0.03 -0.02,-0.05 -0.01,-0.01 -0.03,-0.02 -0.05,-0.02l-0.1 0 0 0c-0.04,0 -0.07,0.03 -0.07,0.07l0 0.05c-0.04,0.01 -0.08,0.03 -0.12,0.05l-0.04 -0.03c-0.01,-0.02 -0.03,-0.02 -0.05,-0.03l0 0c-0.02,0 -0.03,0.01 -0.05,0.02l-0.07 0.08c-0.03,0.02 -0.03,0.07 0,0.09l0.04 0.04c-0.03,0.04 -0.04,0.08 -0.06,0.12l-0.05 0c0,0 0,0 0,0 -0.04,0 -0.07,0.03 -0.07,0.07l0 0.1c0,0.02 0.01,0.04 0.02,0.05 0.01,0.02 0.03,0.02 0.05,0.02l0.05 0.01c0.01,0.04 0.03,0.08 0.05,0.12l-0.04 0.03c-0.01,0.02 -0.02,0.04 -0.02,0.05 0,0.02 0.01,0.04 0.02,0.05l0.07 0.08c0,0 0,0 0,0 0.03,0.02 0.08,0.02 0.1,0l0.04 -0.04c0.04,0.02 0.08,0.04 0.12,0.05l0 0.05c0,0.04 0.03,0.07 0.07,0.07l0.1 0 0 0c0.02,0 0.04,0 0.05,-0.02 0.02,-0.01 0.02,-0.03 0.02,-0.04l0 -0.06c0.05,-0.01 0.09,-0.02 0.13,-0.05l0.03 0.04c0.03,0.03 0.07,0.03 0.1,0l0.07 -0.07c0.02,-0.01 0.02,-0.03 0.02,-0.05 0,-0.02 0,-0.04 -0.02,-0.05l-0.03 -0.04c0.02,-0.03 0.04,-0.08 0.05,-0.12l0.05 0c0,0 0,0 0,0 0.04,0 0.07,-0.03 0.07,-0.07l0 -0.1c0,-0.04 -0.03,-0.07 -0.07,-0.07l0 0zm0 0.17l-0.05 0c-0.03,0 -0.06,0.02 -0.07,0.05 -0.01,0.04 -0.02,0.08 -0.04,0.11 -0.02,0.03 -0.01,0.06 0.01,0.08l0.04 0.04 -0.08 0.07 -0.03 -0.04c-0.03,-0.02 -0.06,-0.02 -0.09,-0.01 -0.03,0.02 -0.07,0.04 -0.1,0.05 -0.03,0 -0.05,0.03 -0.06,0.06l0 0.06 -0.1 -0.01 0 -0.05c0,-0.03 -0.02,-0.06 -0.05,-0.07 -0.04,-0.01 -0.07,-0.02 -0.1,-0.04 -0.01,-0.01 -0.03,-0.01 -0.04,-0.01 -0.02,0 -0.03,0.01 -0.05,0.02l-0.04 0.04c0,0 0,0 0,0l-0.07 -0.08 0.04 -0.03c0.02,-0.02 0.03,-0.06 0.01,-0.09 -0.02,-0.03 -0.03,-0.07 -0.04,-0.1 -0.01,-0.03 -0.04,-0.05 -0.07,-0.05l-0.05 -0.01 0 -0.1 0.05 0c0,0 0,0 0,0 0.04,0 0.06,-0.02 0.07,-0.05 0.01,-0.04 0.03,-0.07 0.05,-0.1 0.01,-0.03 0.01,-0.07 -0.01,-0.09l-0.04 -0.03 0.07 -0.08 0.04 0.04c0.02,0.02 0.06,0.03 0.08,0.01 0.04,-0.02 0.07,-0.03 0.11,-0.04 0.03,-0.01 0.05,-0.04 0.05,-0.07l0 -0.05 0.1 0 0 0.05c0,0.04 0.02,0.06 0.05,0.07 0.04,0.01 0.08,0.03 0.11,0.05 0.03,0.01 0.06,0.01 0.08,-0.01l0.04 -0.04 0.07 0.07 -0.04 0.04c-0.02,0.02 -0.02,0.05 -0.01,0.08 0.02,0.03 0.04,0.07 0.04,0.11 0.01,0.03 0.04,0.05 0.07,0.05l0.05 0 0 0.1 0 0zm-0.32 -0.34c-0.08,-0.05 -0.17,-0.07 -0.26,-0.05 -0.09,0.02 -0.17,0.07 -0.22,0.15 -0.1,0.15 -0.06,0.37 0.1,0.47 0.05,0.04 0.12,0.06 0.19,0.06 0.11,0 0.21,-0.05 0.28,-0.15 0.11,-0.16 0.06,-0.37 -0.09,-0.48zm0.03 0.44c-0.08,0.12 -0.25,0.16 -0.37,0.07 -0.13,-0.08 -0.16,-0.25 -0.08,-0.37 0.04,-0.06 0.1,-0.11 0.18,-0.12 0.01,0 0.03,0 0.05,0 0.05,0 0.1,0.01 0.15,0.04 0.12,0.09 0.16,0.26 0.07,0.38l0 0zm0.87 -0.56l0.1 0c0.04,0 0.07,-0.03 0.07,-0.07l0 -0.09c0,-0.04 -0.03,-0.07 -0.07,-0.07l-0.1 0c-0.04,0 -0.07,0.03 -0.07,0.07l0 0.01 -0.29 0 0 -0.08c0,-0.05 -0.04,-0.1 -0.1,-0.1l-0.08 0 0 -0.29 0.02 0c0.04,0 0.07,-0.03 0.07,-0.07l0 -0.09c0,-0.04 -0.03,-0.07 -0.07,-0.07l-0.1 0c-0.04,0 -0.07,0.03 -0.07,0.07l0 0.09c0,0.04 0.03,0.07 0.07,0.07l0.01 0 0 0.29 -0.45 0 0 -0.29 0.02 0c0.03,0 0.07,-0.03 0.07,-0.07l0 -0.09c0,-0.04 -0.04,-0.07 -0.07,-0.07l-0.1 0c-0.04,0 -0.07,0.03 -0.07,0.07l0 0.09c0,0.04 0.03,0.07 0.07,0.07l0.01 0 0 0.29 -0.45 0 0 -0.29 0.01 0c0.04,0 0.08,-0.03 0.08,-0.07l0 -0.09c0,-0.04 -0.04,-0.07 -0.08,-0.07l-0.09 0c-0.04,0 -0.07,0.03 -0.07,0.07l0 0.09c0,0.04 0.03,0.07 0.07,0.07l0.01 0 0 0.29 -0.08 0c-0.05,0 -0.1,0.05 -0.1,0.1l0 0.08 -0.29 0 0 -0.02c0,-0.04 -0.02,-0.06 -0.06,-0.06l-0.11 0c-0.04,0 -0.07,0.02 -0.07,0.06l0 0.11c0,0.04 0.03,0.06 0.07,0.06l0.11 0c0.04,0 0.06,-0.02 0.06,-0.06l0 -0.02 0.29 0 0 0.45 -0.29 0 0 -0.02c0,-0.04 -0.02,-0.06 -0.06,-0.06l-0.11 0c-0.04,0 -0.07,0.02 -0.07,0.06l0 0.11c0,0.04 0.03,0.07 0.07,0.07l0.11 0c0.04,0 0.06,-0.03 0.06,-0.07l0 -0.02 0.29 0 0 0.45 -0.29 0 0 -0.02c0,-0.04 -0.02,-0.06 -0.06,-0.06l-0.11 0c-0.04,0 -0.07,0.02 -0.07,0.06l0 0.11c0,0.04 0.03,0.07 0.07,0.07l0.11 0c0.04,0 0.06,-0.03 0.06,-0.07l0 -0.02 0.29 0 0 0.08c0,0.06 0.05,0.1 0.1,0.1l0.08 0 0 0.29 -0.01 0c-0.04,0 -0.07,0.03 -0.07,0.07l0 0.1c0,0.04 0.03,0.07 0.07,0.07l0.09 0c0.04,0 0.08,-0.03 0.08,-0.07l0 -0.1c0,-0.04 -0.04,-0.07 -0.08,-0.07l-0.01 0 0 -0.29 0.45 0 0 0.29 -0.01 0c-0.04,0 -0.07,0.03 -0.07,0.07l0 0.1c0,0.04 0.03,0.07 0.07,0.07l0.1 0c0.03,0 0.07,-0.03 0.07,-0.07l0 -0.1c0,-0.04 -0.04,-0.07 -0.07,-0.07l-0.02 0 0 -0.29 0.45 0 0 0.29 -0.01 0c-0.04,0 -0.07,0.03 -0.07,0.07l0 0.1c0,0.04 0.03,0.07 0.07,0.07l0.1 0c0.04,0 0.07,-0.03 0.07,-0.07l0 -0.1c0,-0.04 -0.03,-0.07 -0.07,-0.07l-0.02 0 0 -0.29 0.08 0c0.06,0 0.1,-0.04 0.1,-0.1l0 -0.08 0.29 0 0 0.01c0,0.04 0.03,0.08 0.07,0.08l0.1 0c0.04,0 0.07,-0.04 0.07,-0.08l0 -0.09c0,-0.04 -0.03,-0.07 -0.07,-0.07l-0.1 0c-0.04,0 -0.07,0.03 -0.07,0.07l0 0.01 -0.29 0 0 -0.45 0.29 0 0 0.01c0,0.04 0.03,0.07 0.07,0.07l0.1 0c0.04,0 0.07,-0.03 0.07,-0.07l0 -0.09c0,-0.04 -0.03,-0.07 -0.07,-0.07l-0.1 0c-0.04,0 -0.07,0.03 -0.07,0.07l0 0.01 -0.29 0 0 -0.45 0.29 0 0 0.01c0,0.04 0.03,0.07 0.07,0.07l0 0zm-0.62 -0.69l0 -0.09c0,0 0,-0.01 0,-0.01l0.1 0c0,0 0,0.01 0,0.01l0 0.09c0,0 0,0 0,0l-0.1 0c0,0 0,0 0,0zm-0.52 0l0 -0.09c0,0 0,-0.01 0,-0.01l0.1 0c0,0 0,0.01 0,0.01l0 0.09c0,0 0,0 0,0l-0.1 0c0,0 0,0 0,0l0 0zm-0.52 0l0 -0.09c0,0 0,-0.01 0,-0.01l0.09 0c0,0 0.01,0.01 0.01,0.01l0 0.09c0,0 0,0 -0.01,0l-0.09 0c0,0 0,0 0,0zm-0.53 0.63l-0.1 0 0 -0.11 0.1 0 0 0.11zm0 0.52l-0.1 0 0 -0.1 0.1 0 0 0.1 0 0zm0 0.52l-0.1 0 0 -0.1 0.1 0 0 0.1zm0.63 0.52l0 0.1c0,0 0,0 -0.01,0l-0.09 0c0,0 0,0 0,0l0 -0.1c0,0 0,0 0,0l0.09 0c0,0 0.01,0 0.01,0zm0.52 0l0 0.1c0,0 0,0 0,0l-0.1 0c0,0 0,0 0,0l0 -0.1c0,0 0,0 0,0l0.1 0c0,0 0,0 0,0zm0.52 0l0 0.1c0,0 0,0 0,0l-0.1 0c0,0 0,0 0,0l0 -0.1c0,0 0,0 0,0l0.1 0c0,0 0,0 0,0zm0.52 -0.62c0,0 0,0 0,0l0.1 0c0,0 0,0 0,0l0 0.09c0,0 0,0.01 0,0.01l-0.1 0c0,0 0,0 0,-0.01l0 -0.09zm0 -0.52c0,0 0,0 0,0l0.1 0c0,0 0,0 0,0l0 0.09c0,0 0,0.01 0,0.01l-0.1 0c0,0 0,-0.01 0,-0.01l0 -0.09 0 0zm-0.43 0.68c0,0.02 -0.01,0.03 -0.03,0.03l-1.27 0c-0.02,0 -0.03,-0.01 -0.03,-0.03l0 -1.27c0,-0.01 0.01,-0.03 0.03,-0.03l1.27 0c0.02,0 0.03,0.02 0.03,0.03l0 1.27 0 0zm0.43 -1.2c0,0 0,-0.01 0,-0.01l0.1 0c0,0 0,0.01 0,0.01l0 0.09c0,0 0,0.01 0,0.01l-0.1 0c0,0 0,-0.01 0,-0.01l0 -0.09zm-1.06 0.37c-0.02,-0.02 -0.05,-0.02 -0.06,0l-0.17 0.17c-0.02,0.01 -0.02,0.03 -0.01,0.05 0,0.01 0.02,0.02 0.04,0.02l0.05 0 0 0.14c0,0.02 0.02,0.04 0.05,0.04l0.14 0c0.02,0 0.04,-0.02 0.04,-0.04l0 -0.14 0.06 0c0.02,0 0.03,-0.01 0.04,-0.02 0,-0.02 0,-0.04 -0.01,-0.05l-0.17 -0.17c0,0 0,0 0,0l0 0zm0.05 0.18c-0.02,0 -0.04,0.01 -0.04,0.04l0 0.13 -0.09 0 0 -0.13c0,-0.03 -0.02,-0.04 -0.04,-0.04l-0.02 0 0.11 -0.11 0.11 0.11 -0.03 0 0 0z"></path> </g> </g> </svg>