<svg xmlns="http://www.w3.org/2000/svg" xmlns:xlink="http://www.w3.org/1999/xlink" id="Layer_1" x="0px" y="0px" viewBox="0 0 91 91" style="enable-background:new 0 0 91 91;" xml:space="preserve"> <style type="text/css"> .st0{fill-rule:evenodd;clip-rule:evenodd;fill:#FFFFFF;} .st1{fill-rule:evenodd;clip-rule:evenodd;fill:#0B2852;} </style> <g> <circle class="st0" cx="45.5" cy="45.5" r="45.5"></circle> <path class="st1" d="M43.74,43.13c-9.22,0.9-16.88,9.08-15.89,19.48c0.87,9.11,9.22,16.91,19.51,15.8 c9.17-0.99,16.8-9.09,15.77-19.47C62.23,49.77,53.96,42.14,43.74,43.13L43.74,43.13z M35.78,39.37c3.21,0.28,7.5,0.03,10.76,0.03 c9.38,0,8.64,0.89,8.62-2.17c-0.05-7.1,0.3-14.7-0.02-21.73l-19.28-0.09L35.78,39.37L35.78,39.37z M42.02,56.21 c0.39-1.18,2.8-7.56,3.48-8.12c0.73,0.45,3.09,6.82,3.55,8.08c1.42,0.2,2.98,0.26,4.46,0.37c0.93,0.07,3.16,0.13,3.98,0.38 c0.04,0.01,0.12,0.11,0.15,0.07c0.03-0.04,0.1,0.04,0.14,0.07c0.25,0.56-0.91,1.11-1.35,1.51l-5.16,4.29l2.03,8.81 c-1.73-0.31-5.78-3.65-7.79-4.47c-1.07,0.46-2.66,1.6-3.78,2.3c-0.9,0.56-2.93,2.08-4.02,2.1l2.04-8.83 c-1.31-0.83-2.17-1.82-3.44-2.78c-0.58-0.43-1.17-0.96-1.71-1.42c-1.24-1.05-1.24-0.84-1.37-1.55 C34.18,56.54,40.45,56.32,42.02,56.21L42.02,56.21z M57.69,36.58l3.2-3.33c1.81-2.21,1.61-1.05,1.61-4.78 c0-1.53,0.27-12.29-0.23-12.81c-0.31-0.3,0.31-0.15-0.73-0.26l-3.77-0.01L57.69,36.58L57.69,36.58z M28.8,15.42 c-0.6,0.99-0.26,13.28-0.26,15.34c0,1.3,1.41,2.05,2.16,2.91c0.82,0.94,1.3,1.82,2.58,2.63l0-20.91L28.8,15.42L28.8,15.42z M38.94,43.13l0.01-2.74l13.08-0.02l0.02,2.78c-2.54-0.57-3.83-1.15-6.77-1.12C42.48,42.06,41.14,42.77,38.94,43.13z"></path> </g> </svg>