<svg xmlns="http://www.w3.org/2000/svg" xmlns:xlink="http://www.w3.org/1999/xlink" xml:space="preserve" width="91px" height="91px" style="shape-rendering:geometricPrecision; text-rendering:geometricPrecision; image-rendering:optimizeQuality; fill-rule:evenodd; clip-rule:evenodd" viewBox="0 0 4.36 4.36"> <defs> <style type="text/css"> .fil1 {fill:#083264} .fil0 {fill:white} </style> </defs> <g id="Layer_x0020_1"> <metadata id="CorelCorpID_0Corel-Layer"></metadata> <g id="_1718310571488"> <circle class="fil0" cx="2.18" cy="2.18" r="2.18"></circle> <g> <path class="fil1" d="M1.28 1.46c-0.25,0.08 -0.2,0.62 -0.24,0.89 -0.03,0.24 -0.03,0.25 0.02,0.51 0.04,0.28 0.03,0.24 0.03,0.52l0.42 -0.03c0.01,-0.1 0,-0.18 0.03,-0.28 0.02,-0.09 0.06,-0.14 0.09,-0.21 0.06,-0.16 0.04,-0.65 0.04,-0.88 0,-0.09 -0.02,-0.2 -0.13,-0.16 -0.15,0.04 -0.01,0.43 -0.11,0.5 -0.06,-0.02 -0.15,-0.23 -0.15,-0.35 0,-0.17 0,-0.34 0,-0.51zm0.75 1.13c0,-0.03 0.01,-0.07 0,-0.1 0,0.03 -0.01,0.08 0,0.1zm0 -0.1c0,0 0,0 0,0l-0.04 0c0,0 -0.01,0 -0.02,0 -0.03,0 0,0 -0.02,0.01 0,0.4 -0.04,0.35 0.42,0.35 0.24,0 0.18,-0.09 0.18,-0.59 0,-0.18 0,-0.35 0,-0.53 -0.12,-0.01 -0.35,0.05 -0.35,-0.13 0,-0.07 0.05,-0.12 0.11,-0.13 0.06,-0.01 0.17,0 0.24,-0.01 0.01,-0.08 0,-0.22 0,-0.31 0,-0.13 -0.04,-0.16 -0.16,-0.16 -0.1,0 -0.23,-0.01 -0.33,0 -0.12,0.01 -0.11,0.1 -0.11,0.21l0.14 0.01c0.07,0.02 0.07,0.07 0.07,0.15l-0.01 0.64c0.37,0 0.32,-0.05 0.32,0.43 0,0.15 0.03,0.23 -0.14,0.23 -0.16,0 -0.28,0.03 -0.3,-0.07l0 -0.1zm-0.08 0.01l0.08 -0.01 -0.08 0.01zm0.04 -0.03c0.02,0 0.08,0.01 0.09,-0.01 0.05,-0.01 0.05,-0.03 0.05,-0.09l0 -0.89c0,-0.3 0.03,-0.25 -0.27,-0.25 -0.16,0 -0.35,-0.01 -0.51,0 -0.05,0.02 -0.05,0.04 -0.05,0.1 0.01,0.15 -0.01,0.66 0.02,0.75l0.07 0.16c0.01,0.01 0.01,0.02 0.02,0.02l0.02 0.03c0.04,-0.09 0,-0.3 0.02,-0.4 0.03,-0.14 0.23,-0.12 0.23,0 0.01,0.09 -0.01,0.53 0.01,0.58l0.3 0zm0.21 -0.11c-0.08,0.05 -0.05,0.18 0.05,0.18 0.1,-0.01 0.13,-0.13 0.05,-0.18 0,-0.06 0.02,-0.19 -0.05,-0.18 -0.06,0 -0.05,0.1 -0.05,0.18zm0.1 -0.87c-0.09,0.03 -0.1,0.15 -0.02,0.2 0.04,0.03 0.25,0.02 0.31,0.02 0.09,0 0.63,0 0.67,-0.01 0.1,-0.02 0.11,-0.15 0.03,-0.2 -0.05,-0.03 -0.25,-0.01 -0.32,-0.01 -0.1,0 -0.6,-0.02 -0.67,0zm-0.27 1l-0.08 0.01 0.08 -0.01zm-0.35 -0.83c0.04,-0.03 0.04,-0.02 0.08,0l0 0.05c-0.04,0.03 -0.04,0.03 -0.08,0l0 -0.05zm-0.07 -0.08c0.02,-0.02 0.06,-0.05 0.11,-0.05 0.05,0 0.1,0.03 0.11,0.05l-0.02 0.03c-0.04,-0.01 -0.04,-0.04 -0.09,-0.04 -0.05,0.01 -0.06,0.03 -0.09,0.04l-0.02 -0.03zm-0.06 -0.06c0.09,-0.09 0.25,-0.1 0.34,0l-0.03 0.03c-0.04,-0.02 -0.07,-0.06 -0.14,-0.06 -0.05,0 -0.09,0.02 -0.12,0.04l-0.03 0.02 -0.02 -0.03zm-0.06 -0.06c0.06,-0.04 0.12,-0.09 0.23,-0.09 0.05,0 0.1,0.01 0.14,0.03 0.03,0.01 0.07,0.04 0.09,0.07l-0.02 0.02c-0.04,-0.01 -0.08,-0.08 -0.21,-0.08 -0.13,0 -0.17,0.07 -0.21,0.08 -0.01,-0.01 -0.01,-0.02 -0.02,-0.03z"></path> </g> </g> </g> </svg>