<svg xmlns="http://www.w3.org/2000/svg" xmlns:xlink="http://www.w3.org/1999/xlink" id="Layer_1" x="0px" y="0px" viewBox="0 0 91 91" style="enable-background:new 0 0 91 91;" xml:space="preserve"> <style type="text/css"> .st0{fill-rule:evenodd;clip-rule:evenodd;fill:#FFFFFF;} .st1{fill-rule:evenodd;clip-rule:evenodd;fill:#0B2852;} </style> <g> <circle class="st0" cx="45.5" cy="45.5" r="45.5"></circle> <path class="st1" d="M29.65,19.6c-0.23,3.44,2.26,5.69,4.07,6.97l0.01,4.92c-1.16,0.66-2.04,1.34-2.41,2.89 c-0.6,2.51,1.51,1.93,3.44,1.94L56.5,36.3c1.93,0,3.91,0.58,3.25-2.01c-0.5-1.94-1.82-2.33-2.48-2.89l-0.01-4.8 c0.73-0.72,1.84-1.17,3.04-3.09c0.49-0.79,2-4.11,0.33-4.46c-0.65-0.14-2.02-0.14-2.8-0.25c-0.85-0.12-1.74-0.33-2.54-0.53 c-6.03-1.55-9.12-3.02-15.67-1.08c-2.27,0.67-5.05,1.47-7.45,1.74C30.67,19.1,30.68,18.84,29.65,19.6L29.65,19.6z M29.95,53.35 c-0.41,3.16-0.81,2.86-1.44,4.81l3.4,1.89c0.17,0.12,0.15,0.11,0.25,0.2c-0.61,1.1-2.33,3.55-2.68,4.32 c0.26,0.41,0.64,0.81,0.99,1.23l5.26,6.31c0.63,0.72,1.71,1.84,2.07,2.53l6.17,0.04l-2.82-5.62c-0.87-1.72-1.8-4.15-2.47-6.04 c-0.74-2.11-1.3-4.28-1.74-6.63c-0.74-3.98-0.39-5.02-0.75-7.74c-0.26,0.38-2.21,2.2-2.75,2.65C32.43,52.14,31.38,52.7,29.95,53.35 L29.95,53.35z M68.23,58.39c-0.34,0.42-0.83,0.53-1.4,0.77c-0.52,0.22-1.06,0.44-1.57,0.66c-1,0.42-2.06,0.96-3.06,1.27 c0.29,0.56,1.49,1.98,1.96,2.52c0.62,0.72,1.59,1.73,1.99,2.54c-0.74,0.42-5.24,4.31-6.46,5.23l-2.62,2.13 c-0.54,0.45-0.87,0.63-1.23,1.12c1.2,0.14,15.51,0.09,17.54,0.03c1.81-0.05,1.38-1.39,1.38-2.98c0-1.89,0.12-12.97-0.1-13.24 c-0.82-0.44-2.9-0.45-4.03-0.59c-1.56-0.19-3.24,0-2.48-1.84c1.22-0.37,4.54,0.32,6.08,0.48c-0.41-0.81-1.12-0.91-2.16-1.06 c-3.64-0.53-5.32-1.25-8.22-1.85C64.41,54.71,67,57.63,68.23,58.39L68.23,58.39z M17.61,56.5c0.92-1.16,3.57-1.11,5.3-1.41 c2.39-0.41,3.63-0.87,5.41-1.22c-0.26,0.48-0.54,0.77-0.93,1.24c-0.99,1.18-1.99,2.42-3.28,3.28l0.73,0.49 c0.98,0.41,4.96,2.02,5.29,2.34l-3.97,4.79c0.41,0.32,0.84,0.76,1.31,1.12c1.37,1.05,8.93,7.22,9.08,7.56 c-6.1-0.01-12.28-0.04-18.38,0.06c-2.33,0.04-1.93-0.53-1.93-2.65c0-2.12-0.2-13.03,0.23-13.52c1.31-0.7,7.15-0.39,7.72-1.38 c0.36-0.61,0-1.24-0.63-1.33c-0.34-0.05-1.5,0.13-1.93,0.18C20.34,56.2,18.92,56.44,17.61,56.5L17.61,56.5z M55.29,38.89 c0.49,3.14-1.12,7.92-2.34,10.15c-3.62,6.63-10.86,7.14-14.86-0.07c-1.18-2.13-2.85-7.17-2.28-10.12L55.29,38.89L55.29,38.89z M49.54,48.17c-0.24,0.57-0.28,0.53-0.76,0.88c-2.56,1.91-6.26,1.01-7.32-0.88C44.63,48.42,46.27,48.56,49.54,48.17L49.54,48.17z M49.4,73.5c0.78-0.96,3.82-9.46,4.24-11.1c1.15-4.53,1.06-9.37,1.21-14.19l3.6,2.58c1.37,1,2.17,1.49,3.78,2.18l0.35,1.49 c0.32,1.63,0.68,2.26,1.27,3.69c-0.68,0.73-2.85,1.31-3.64,2.09l2.64,4.32l-8.43,10.09l-9.78,0.01l2.01-12.53 c-0.63-0.37-1.49-1.35-2.15-1.96l-2.88,1.04c0.32-0.44,0.9-1.01,1.33-1.44c2.97-2.97,1.95-2.99,5.12-2.93 c0.73,1,2.79,2.72,3.51,3.8l-1.9-0.97c-0.24,0.26-1.83,2.41-1.89,2.59C47.56,62.9,49.18,73.13,49.4,73.5L49.4,73.5z M44.52,26.31 c0.68-0.4,0.43-1.54,1.13-2.48l0.82,2.47l2.62,0c-0.17,0.31-1.77,1.4-2.11,1.58l0.78,2.59c-0.78-0.49-1.35-0.92-2.12-1.45 c-0.86,0.35-1.4,1.03-2.25,1.46l0.81-2.51c-0.61-0.58-1.49-1.06-2.12-1.65L44.52,26.31z"></path> </g> </svg>