<svg xmlns="http://www.w3.org/2000/svg" xmlns:xlink="http://www.w3.org/1999/xlink" xml:space="preserve" width="91px" height="91px" style="shape-rendering:geometricPrecision; text-rendering:geometricPrecision; image-rendering:optimizeQuality; fill-rule:evenodd; clip-rule:evenodd" viewBox="0 0 4.67 4.67"> <defs> <style type="text/css"> .fil1 {fill:#083264} .fil0 {fill:white} </style> </defs> <g id="Layer_x0020_1"> <metadata id="CorelCorpID_0Corel-Layer"></metadata> <g id="_1718320293616"> <circle class="fil0" cx="2.34" cy="2.34" r="2.34"></circle> <path class="fil1" d="M2.53 3.36c0,-0.19 0.26,-0.08 0.14,0.04 -0.05,0.06 -0.14,0.02 -0.14,-0.04zm-0.19 -1.17c-0.16,-0.1 -0.19,0.03 -0.19,0.06 0,0.03 0.12,0.24 0.25,0.16 0.23,-0.15 0.27,-0.35 0.13,-0.35 -0.09,0 -0.13,0.09 -0.19,0.13zm-1.1 0.15c0,-0.1 0.17,-0.14 0.17,0.01 0,0.1 -0.17,0.1 -0.17,-0.01zm2.17 0.07c-0.22,0.05 -0.16,-0.16 -0.08,-0.16 0.04,0 0.04,0.01 0.08,0.01 0.02,0.06 0.03,0.09 0,0.15zm-1.53 -0.38c0.06,-0.03 0.43,-0.22 0.46,-0.22 0.03,0 0.4,0.19 0.45,0.22 0,0.23 -0.14,0.51 -0.28,0.67 -0.03,0.03 -0.06,0.06 -0.08,0.08 -0.03,0.02 -0.07,0.05 -0.09,0.07 -0.22,-0.14 -0.45,-0.47 -0.46,-0.82zm0.27 -0.72c0,0.2 -0.27,0.08 -0.15,-0.04 0.06,-0.05 0.15,-0.02 0.15,0.04zm-0.37 0.03c0,0.23 0.3,0.35 0.47,0.2 0.04,-0.03 0.05,-0.11 0.1,-0.11l0.89 0 0 0.61c0,0.05 -0.01,0.03 -0.03,0.05 -0.02,0.02 -0.04,0.03 -0.05,0.04l-0.08 0.1 -0.13 0c0.03,-0.11 0.03,-0.15 0.03,-0.27 0,-0.06 -0.09,-0.09 -0.14,-0.12 -0.63,-0.31 -0.38,-0.31 -1.01,0 -0.14,0.07 -0.14,0.07 -0.14,0.17 0,0.09 0.02,0.15 0.03,0.22l-0.13 0c-0.25,-0.46 -0.85,0.11 -0.35,0.37l0 0.79 0.05 0.04 1.06 0c0.08,0.29 0.54,0.23 0.54,-0.08 0,-0.26 -0.3,-0.36 -0.46,-0.22 -0.04,0.04 -0.06,0.11 -0.11,0.11l-0.89 0 0 -0.65c0.11,-0.01 0.12,-0.15 0.19,-0.15 0.31,0 0.09,0.04 0.38,0.35 0.07,0.08 0.26,0.28 0.35,0.28 0.05,0 0.29,-0.23 0.33,-0.28 0.28,-0.31 0.07,-0.35 0.37,-0.35 0.08,0 0.07,0.17 0.3,0.17 0.23,0 0.44,-0.35 0.08,-0.54l0 -0.79 -0.04 -0.04 -1.07 0c-0.07,-0.28 -0.54,-0.24 -0.54,0.1z"></path> </g> </g> </svg>