<svg xmlns="http://www.w3.org/2000/svg" xmlns:xlink="http://www.w3.org/1999/xlink" xml:space="preserve" width="91px" height="91px" style="shape-rendering:geometricPrecision; text-rendering:geometricPrecision; image-rendering:optimizeQuality; fill-rule:evenodd; clip-rule:evenodd" viewBox="0 0 21.72 21.72"> <defs> <style type="text/css"> .fil1 {fill:#083264} .fil0 {fill:white} </style> </defs> <g id="Layer_x0020_1"> <metadata id="CorelCorpID_0Corel-Layer"></metadata> <g id="_1718164739792"> <circle class="fil0" cx="10.86" cy="10.86" r="10.86"></circle> <path class="fil1" d="M4.04 13.9c0,0.73 0.9,0.57 1.21,-0.76 0.22,0.16 0.28,0.44 0.43,0.71 0.38,0.69 1.03,1.37 1.65,1.84 0.43,0.33 1.03,0.63 1.55,0.8 1.7,0.56 3.61,0.45 5.09,-0.54 0.14,-0.1 0.25,-0.16 0.41,-0.27 1.61,-1.11 3.07,-4.13 1.86,-4.13 -0.6,0 -0.22,1.34 -1.64,2.83 -1.71,1.78 -4.42,2.12 -6.48,0.83 -0.82,-0.52 -1.82,-1.58 -2.04,-2.52 0.37,0.19 1.75,1.12 1.75,0.15 0,-0.33 -0.61,-0.49 -1.14,-0.76 -1.55,-0.78 -1.35,-0.93 -2.07,0.51 -0.14,0.27 -0.58,1.03 -0.58,1.31zm6.82 -6.37c-1.53,0 -1.59,2.41 0,2.41 1.55,0 1.57,-2.41 0,-2.41zm-2.27 3.87l0 1.36c0,0.56 0.71,-0.11 0.83,0.46 0.24,1.17 -0.68,0.98 2.58,0.98 0.36,0 0.3,-0.85 0.3,-1.21 1.04,0 0.84,0.24 0.84,-1.44 0,-0.59 -0.32,-0.88 -0.72,-1.11 -0.73,-0.43 -0.44,0.12 -1.71,0.12 -0.81,0 -0.76,-0.72 -1.73,0.1 -0.18,0.15 -0.39,0.43 -0.39,0.74zm-3.57 -1.59c0,0.29 0.41,0.47 0.65,0.28 0.3,-0.23 0.51,-3.38 4,-4.21 2.01,-0.48 3.78,0.24 5.04,1.59 0.25,0.27 0.82,1.08 0.85,1.5 -0.2,-0.1 -1.05,-0.53 -1.29,-0.53 -0.28,0 -0.69,0.49 0,0.84 2.44,1.22 2.13,1.28 2.81,-0.08 0.19,-0.38 0.61,-1.04 0.61,-1.44 0,-0.58 -0.89,-0.57 -1.22,0.83l-0.15 0c-0.21,-0.91 -1.28,-2.09 -1.98,-2.56 -0.54,-0.36 -0.83,-0.54 -1.5,-0.78 -2.7,-0.98 -5.67,0.15 -7.1,2.54 -0.27,0.43 -0.72,1.38 -0.72,2.02z"></path> </g> </g> </svg>