<svg xmlns="http://www.w3.org/2000/svg" xmlns:xlink="http://www.w3.org/1999/xlink" id="Layer_1" x="0px" y="0px" viewBox="0 0 91 91" style="enable-background:new 0 0 91 91;" xml:space="preserve"> <style type="text/css"> .st0{fill-rule:evenodd;clip-rule:evenodd;fill:#FFFFFF;} .st1{fill-rule:evenodd;clip-rule:evenodd;fill:#0B2852;} </style> <g> <circle class="st0" cx="45.5" cy="45.5" r="45.5"></circle> <path class="st1" d="M45.5,59.19c-0.29-0.15-0.68-0.87-0.94-1.22l-1.77-2.49c-0.47-0.65-0.48-0.61-0.6-1.61l-0.6-3.65 c-0.16-0.64-0.47-3.37-0.65-3.67c-0.08-0.05-0.03-0.04-0.18-0.07l-0.77,0.05c-0.36,0.07-0.49,0.11-0.9,0.13l-1.62,0.34 c-1.74,0.27-3.07,0.63-3.78,2.23c-0.54,1.23-1.13,4.35-1.59,5.39c-0.06,0.15-0.07,0.18-0.1,0.35l-0.34,1.21 c-0.26,1.11-1.42,4.97-1.45,5.57l-0.07,4.93c0,0.38-0.07,0.72-0.06,1.01c1.01,0.08,6.88,0.05,7.43-0.02l0.07-4.85 c0-0.72,0.66-2.47,0.84-3.31l0.1-0.3c0.04-0.08,0.05-0.08,0.09-0.13c0.22,0.1,0.15,0.06,0.4,0.55c0.33,0.63,0.61,1.9,0.54,2.47 c-0.11,0.93-0.07,3.49-0.07,4.59c0,0.85-0.35,1.06,0.52,1.06c3.68,0,7.79,0.06,11.41-0.01c0.09-1.7-0.02-3.97-0.01-5.71 c0-0.81,0.03-1.1,0.24-1.74c0.1-0.3,0.46-1.15,0.61-1.29c0.26,0.12,0.41,1.07,0.48,1.34c0.04,0.18,0.1,0.32,0.15,0.51 c0.31,1.31,0.51,1.08,0.52,2.44l0.04,4.4l7.34,0.03l-0.07-5.96c-0.03-0.46-0.52-2.21-0.7-2.78l-1.86-6.66 c-0.12-0.44-0.73-2.67-0.92-3.07c-0.49-1.03-1.14-1.47-2.09-1.91c-0.5-0.23-2.59-0.49-3.33-0.65l-1.77-0.3 c-0.15,0.3-0.61,3.19-0.69,3.61l-0.59,3.75c-0.17,1.41-0.45,1.49-1.45,2.89C47.09,57.01,45.76,59.04,45.5,59.19L45.5,59.19z M25.01,61.66l1.13-1.7c0.41-0.53,0.11-1.8,0.01-2.5c-0.1-0.76-0.54-3.22-0.37-3.86c0.06-0.24,0.46-0.86,0.46-0.96 c-0.23-0.53-0.54-0.43-1.23-0.44c-0.34,0-1.13-0.14-1.3,0.34c-0.09,0.24,0.34,0.89,0.42,1.19c0.04,0.13-0.11,1.17-0.12,1.5 l-0.23,2.26c-0.25,2.23-0.57,1.71,0.48,3.22C24.42,60.94,24.77,61.57,25.01,61.66L25.01,61.66z M66.06,61.66 c0.15-0.06,1-1.38,1.18-1.65c0.36-0.55,0.3-0.51,0.19-1.2l-0.45-3.89c-0.05-0.39-0.19-0.9-0.06-1.27c0.13-0.36,0.4-0.69,0.41-1.07 c-0.33-0.35-0.29-0.38-0.87-0.35c-0.45,0.02-0.87-0.03-1.31-0.01c-0.33,0.4-0.45,0.34-0.21,0.81c0.54,1.02,0.2,1.7,0.11,2.88 c-0.09,1.11-0.25,1.86-0.33,2.73c-0.1,1.15-0.3,0.63,0.68,2.11C65.53,60.91,65.94,61.61,66.06,61.66L66.06,61.66z M45.5,57.56 c-0.21-0.17-1.3-1.86-1.52-2.21c-0.32-0.5-0.18-0.82-0.04-1.59c0.08-0.44,0.11-1.14,0.17-1.65c0.06-0.55,0.07-1.2,0.17-1.72 c0.09-0.45,0.14-1.08,0.21-1.57c0.11-0.75,0-1-0.28-1.55c-0.47-0.93-0.18-0.55,0.18-1.12c0.42,0,0.77,0.12,1.11,0.1 c1.29-0.09,0.94-0.22,1.51,0.33c-0.01,0.34-0.11,0.43-0.23,0.68c-0.09,0.19-0.22,0.42-0.28,0.57c-0.14,0.36,0.15,2.6,0.23,3.12 l0.17,1.56c0.14,0.55,0.09,1.02,0.2,1.61c0.12,0.67,0.23,0.8-0.18,1.39C46.69,55.85,45.72,57.43,45.5,57.56L45.5,57.56z M55.59,70.43c-1.07-0.02-2.16,0-3.24,0c-2.06,0-1.03-0.17-2.56,0.68c-0.57,0.32-1.42,0.91-2.05,1.2 c-0.28,0.13-2.08,1.07-2.24,1.07c-0.41-0.01-3.74-1.96-4.25-2.26c-1.37-0.81-0.65-0.7-2.54-0.7c-1.06,0-2.26-0.05-3.3,0.01 c0.07,0.54,5.17,3.65,5.93,4.04c0.45,0.23,0.91,0.44,1.33,0.68c0.44,0.26,2.47,1.26,2.82,1.27c0.54,0.01,2.76-1.24,3.48-1.56 c0.31-0.14,0.36-0.24,0.62-0.36C50.38,74.13,55.52,70.98,55.59,70.43L55.59,70.43z M24.61,40.24c2.62-0.37,5.66,2.02,5.69,5.01 c0.02,1.38-0.1,2.27-0.79,3.31c-0.14,0.21-0.4,0.57-0.58,0.75c-1.46,1.52-4,2.24-6.03,1.32c-0.34-0.15-0.63-0.25-0.91-0.43 c-1.2-0.76-2.43-2.43-2.44-4.28c0-1.01,0.07-1.56,0.38-2.35c0.46-1.16,1.42-2.24,2.57-2.77c0.31-0.14,0.59-0.28,0.96-0.37 C24.57,40.16,23.84,40.35,24.61,40.24L24.61,40.24z M65.73,40.24c1.07-0.15,2.3,0.24,3.19,0.75c0.7,0.4,1.59,1.38,1.95,2.11 c0.72,1.49,0.82,2.95,0.25,4.48c-0.31,0.85-0.5,1.03-1.01,1.66c-0.71,0.89-2.11,1.7-3.66,1.76c-1.9,0.07-2.89-0.39-4.03-1.38 c-0.54-0.47-0.84-0.89-1.18-1.55c-1.02-1.99-0.63-4.54,0.82-6.07C63.32,40.69,64.12,40.48,65.73,40.24L65.73,40.24z M45.3,44.76 c2.08,0,3.45-0.61,4.75-1.88c1.44-1.41,1.95-2.95,1.95-4.94c0-2.51-1.73-4.73-3.93-5.7c-1.27-0.56-3.16-0.78-4.63-0.21 c-0.19,0.07-0.25,0.09-0.43,0.17c-1.61,0.61-2.97,2.06-3.6,3.63c-0.13,0.32-0.17,0.58-0.28,0.93c-0.32,1.07-0.22,2.54,0.21,3.68 c0.48,1.28,1.25,2.28,2.35,3.1C42.69,44.27,44.05,44.76,45.3,44.76L45.3,44.76z M12.23,67.73v-2.73c0.22-0.1,0.11-0.43,0.31-1.02 c0.35-1.03,0.56-2.16,0.88-3.19l1.19-4.17c0.47-1.7,0.6-2.63,2.05-3.35c0.79-0.39,1.32-0.32,2.23-0.5 c0.37-0.08,1.98-0.41,2.29-0.37c0.14,0.27,0.33,1.9,0.37,2.29c0.04,0.32,0.11,0.48,0.14,0.8l0.22,1.58 c0.82,2.36-0.5,1.05,1.51,3.86c0.25,0.35,0.53,0.74,0.75,1.05c0.19,0.27,0.57,0.93,0.84,1.02l2.53-3.67l0.6-3.88 c0.05-0.26,0.11-0.36,0.16-0.68l0.41-2.31c0.15-0.07,1.4,0.06,1.41,0.26c0.04,0.8-0.57,2.18-0.73,2.86 c-0.05,0.23-0.05,0.29-0.12,0.5l-0.95,3.45c-0.55,1.63-0.5,2.17-0.54,3.75c-0.04,1.45,0.05,2.97-0.03,4.41l-7.73,0.02 c-0.04-0.83,0.12-1.99,0.02-2.76l-0.63-1.92c-0.09-0.11,0-0.03-0.12-0.12c-0.01,0.01-0.03,0.02-0.04,0.04 c-0.01,0.03-0.03,0.03-0.03,0.04l-0.14,0.42c-0.06,0.23-0.13,0.35-0.18,0.51c-0.07,0.23-0.07,0.37-0.15,0.59 c-0.07,0.2-0.1,0.36-0.16,0.57c-0.38,1.23,0.03,1.92-0.3,2.64L12.23,67.73L12.23,67.73z M78.77,64.8v2.93l-6.09,0 c-0.13-0.99,0.08-1.74-0.27-2.61c-0.17-0.42-0.36-1.77-0.63-2.23c-0.15,0.05-0.08,0.01-0.18,0.15c-0.9,1.26-0.46,3.67-0.59,4.67 c-0.48,0.08-7.43,0.08-7.77,0c-0.09-1.37-0.05-2.94-0.1-4.28c-0.03-0.74,0.02-1.44-0.04-2.2l-0.65-2.6 c-0.11-0.29-0.19-0.64-0.26-0.88l-0.96-3.43c-0.11-0.41-0.48-1.28-0.41-1.73l1.53-0.21c0.02,0.78,0.22,1.55,0.35,2.3l0.75,4.64 l2.18,3.12c0.32,0.44,0.24,0.4,0.5,0.48c0.22-0.14,0.22-0.2,0.42-0.49c0.12-0.18,0.22-0.3,0.35-0.51c0.22-0.36,0.52-0.75,0.75-1.05 l1.06-1.6c0.12-0.27,0.66-4.38,0.89-5.36c0.07-0.28,0.07-0.43,0.12-0.74c0.07-0.44,0.07-0.58,0.2-0.78c0.26,0,2.01,0.32,2.23,0.39 c0.31,0.11,1.58,0.15,2.21,0.46c1.39,0.68,1.62,1.71,2.05,3.26c0.19,0.68,0.4,1.41,0.56,2.12c0.37,1.63,1.27,4.14,1.61,5.71 C78.66,64.7,78.61,64.73,78.77,64.8L78.77,64.8z M45.6,14.58h-0.17c-0.08,0.25-1.03,1.12-1.26,1.34l-2.1,1.89 c-2.23,1.82-3.01,2.36-5.34,3.98l-2.42,1.57c-0.32,0.18-0.51,0.34-0.82,0.5c-0.8,0.42-1.78,1.05-2.59,1.42 c-0.32,0.15-0.58,0.27-0.89,0.44c-2.03,1.09-4.41,1.99-6.58,2.73l-2.03,0.61c-0.42,0.08-0.72,0.23-1.06,0.29 c-0.64,0.1-1.59,0.3-2.18,0.48c-0.24,1.23,0.32,9.77,0.59,10.36c0.28-0.01,0.83-0.64,1.21-0.98c0.46-0.41,0.89-0.57,1.35-0.84 c0.04-0.51-0.46-4.96-0.32-6.31c0.37-0.05,0.58-0.14,0.89-0.23c0.27-0.08,0.68-0.18,0.95-0.26l1.82-0.57 c0.81-0.22,2.58-0.94,3.47-1.27l3.24-1.49c0.54-0.26,1.03-0.55,1.57-0.81c0.54-0.26,1.04-0.55,1.54-0.85l2.92-1.8 c0.97-0.64,1.95-1.28,2.85-1.95c1.61-1.19,2.49-1.93,3.98-3.14c0.43-0.35,0.87-0.84,1.27-1.11c0.28,0.12,0.97,0.83,1.25,1.06 c1.08,0.93,2.93,2.4,4.03,3.17c1.74,1.21,3.87,2.68,5.75,3.75l8.09,3.83c0.67,0.22,1.1,0.42,1.76,0.62l2.76,0.83 c0.27,0.07,0.7,0.13,0.93,0.29c0.07,0.93,0,2.18-0.04,3.12c-0.04,1-0.21,2-0.22,3c0.06,0.16,0.02,0.08,0.13,0.18l1.1,0.75 c0.21,0.17,0.41,0.31,0.59,0.48l0.47,0.47c0.12,0.09-0.03,0,0.14,0.09c0.29-0.41,0.55-4.66,0.57-5.03c0.01-0.15,0.2-5.21-0.03-5.41 c-0.06-0.03-0.87-0.22-1.01-0.24c-0.45-0.08-0.71-0.12-1.1-0.24c-0.34-0.1-0.7-0.19-1.06-0.28l-4-1.31 c-1.23-0.46-3.5-1.41-4.57-2.02c-0.5-0.28-1-0.46-1.77-0.9l-2.5-1.43c-1.1-0.73-2.06-1.29-3.21-2.11c-0.28-0.2-0.54-0.33-0.8-0.54 c-0.47-0.38-1.03-0.77-1.52-1.14C50.69,19.17,45.9,15.32,45.6,14.58L45.6,14.58z M24.53,34.66c-0.06,0.94,0.08,1.96,0.21,2.81 c0.51,0.02,1.42,0.05,1.87,0.19c1.16,0.35,1.82,0.49,2.88,1.24c0.45,0.32,0.83,0.59,1.19,0.95c1.72,1.7,2.23,3.44,2.43,5.89 c0.25,0.01,0.09,0.02,0.22-0.08c0.12-0.09,0.12-0.12,0.25-0.21c0.18-0.13,0.36-0.24,0.54-0.32c1.04-0.52,2.26-0.73,3.42-0.92 c0.13-0.02,0.23-0.02,0.35-0.05c0.26-0.06,0.28-0.12,0.33-0.16c-0.07-0.16-0.77-1.18-1.2-2.1l-0.43-1.16 c-0.69-2.33-0.32-4.91,0.71-6.74c0.24-0.43,0.35-0.65,0.6-1c1.79-2.55,4.47-3.99,7.67-3.99c1.56,0,2.66,0.31,3.96,0.92 c1.31,0.61,1.42,0.9,2.39,1.67l1.13,1.33c1.33,2.02,1.84,3.68,1.64,6.42c-0.06,0.83-0.41,1.89-0.7,2.56 c-0.38,0.87-1.14,1.91-1.2,2.1c0.08,0.06,0.03,0.04,0.15,0.1l2.63,0.54c0.54,0.16,0.79,0.24,1.27,0.47 c0.16,0.08,0.36,0.19,0.54,0.32c0.2,0.13,0.3,0.29,0.55,0.3c0.09-2.42,0.85-4.26,2.48-5.9c1.37-1.38,3.48-2.26,5.45-2.36 c0.08-0.01,0.18,0,0.26-0.01l0.18-0.04c0.22-0.06,0.33-2.32,0.3-2.65c-0.23-0.18-0.45-0.2-0.74-0.29 c-0.29-0.09-0.42-0.17-0.71-0.26c-0.57-0.19-0.98-0.34-1.54-0.53c-0.24-0.08-0.48-0.2-0.7-0.29l-1.44-0.57 c-1.65-0.69-3.29-1.48-4.86-2.33c-2.98-1.6-3.51-1.98-6.35-3.84c-0.73-0.48-1.62-1.18-2.34-1.71c-3.03-2.21-1.94-2.18-3.49-1.02 c-0.33,0.25-0.78,0.59-1.16,0.9c-0.35,0.28-0.76,0.56-1.15,0.84l-8.85,5.44l-2.07,1c-0.67,0.38-4.28,1.78-5.1,2.07 C25.56,34.34,24.98,34.44,24.53,34.66z"></path> </g> </svg>