<svg xmlns="http://www.w3.org/2000/svg" xmlns:xlink="http://www.w3.org/1999/xlink" xml:space="preserve" width="91px" height="91px" style="shape-rendering:geometricPrecision; text-rendering:geometricPrecision; image-rendering:optimizeQuality; fill-rule:evenodd; clip-rule:evenodd" viewBox="0 0 4.67 4.67"> <defs> <style type="text/css"> .fil1 {fill:#083264} .fil0 {fill:white} </style> </defs> <g id="Layer_x0020_1"> <metadata id="CorelCorpID_0Corel-Layer"></metadata> <g id="_1718680372448"> <circle class="fil0" cx="2.34" cy="2.34" r="2.34"></circle> <g> <path class="fil1" d="M2 1.35c-0.04,0 -0.05,-0.02 -0.05,-0.06 0,-0.12 -0.08,-0.19 -0.16,-0.19 -0.07,0 -0.1,0 -0.15,0.05 -0.09,0.1 -0.05,0.25 0.06,0.3 0.09,0.04 0.14,-0.03 0.14,0.06 0,0.02 -0.12,0.14 -0.14,0.16 -0.04,0.04 -0.12,0.13 -0.16,0.15 0.04,0.06 0.3,0.28 0.3,0.32l0 0.03c-0.02,0.02 -0.05,0.02 -0.07,0.02 -0.17,0 -0.24,0.2 -0.13,0.31 0.11,0.12 0.31,0.03 0.31,-0.12 0,-0.18 0.13,-0.01 0.16,0.01 0,-0.09 0.01,-0.14 0.05,-0.19 0.12,-0.14 0.4,-0.08 0.4,0.15 0.05,-0.03 0.03,-0.05 0.09,-0.05 0.04,0 0.03,0.07 0.03,0.07 0,0.1 0.07,0.18 0.19,0.18 0.16,0 0.25,-0.23 0.09,-0.34 -0.08,-0.05 -0.18,0.01 -0.18,-0.06 0,-0.03 0.12,-0.14 0.15,-0.17l0.16 -0.15 -0.21 -0.21c-0.14,0.27 -0.52,0.15 -0.52,-0.12 0,-0.05 0.03,-0.12 0.05,-0.15 0.05,-0.06 0.05,-0.05 0.11,-0.09l-0.21 -0.21c-0.03,0.03 -0.11,0.12 -0.15,0.16 -0.03,0.02 -0.14,0.14 -0.16,0.14z"></path> <path class="fil1" d="M2.15 3.03c-0.05,0 -0.04,-0.1 -0.04,-0.13l0 -0.36c0,-0.04 -0.01,-0.04 -0.03,-0.06 -0.02,-0.01 -0.03,-0.03 -0.05,-0.04 -0.03,0.11 -0.12,0.19 -0.24,0.2 -0.05,0 -0.04,0 -0.08,0.13 -0.02,0.05 -0.08,0.21 -0.08,0.25 0,0.05 0.13,0.34 0.16,0.4 0.03,0.08 0.05,0.09 0.05,0.2l0.63 0c0,-0.18 0.05,-0.15 0.08,-0.27 0.05,-0.16 -0.03,-0.23 -0.06,-0.33 -0.03,-0.11 -0.02,-0.47 -0.02,-0.61 0,-0.08 0.01,-0.09 -0.02,-0.14 -0.07,-0.1 -0.24,-0.06 -0.25,0.06 -0.01,0.08 0.01,0.64 -0.01,0.68 0,0.01 -0.02,0.02 -0.04,0.02z"></path> <path class="fil1" d="M2.56 2.48l0 0.25c0,0.18 0.28,0.27 0.28,0.16l0 -0.25c-0.12,0 -0.23,-0.12 -0.24,-0.2 -0.01,0.01 -0.04,0.03 -0.04,0.04z"></path> <path class="fil1" d="M1.06 1.19c0,0.04 0.07,0.07 0.13,0.1 0.03,0.02 0.2,0.15 0.2,0.04 0,-0.04 -0.08,-0.08 -0.13,-0.11 -0.05,-0.02 -0.2,-0.14 -0.2,-0.03z"></path> <path class="fil1" d="M3.28 2.37c0,0.04 0.03,0.05 0.06,0.06 0.03,0.01 0.05,0.03 0.07,0.04 0.04,0.02 0.2,0.14 0.2,0.04 0,-0.04 -0.07,-0.07 -0.12,-0.1 -0.04,-0.02 -0.21,-0.15 -0.21,-0.04z"></path> <path class="fil1" d="M1.06 2.51c0,0.1 0.16,-0.02 0.2,-0.04 0.05,-0.02 0.13,-0.06 0.13,-0.1 0,-0.03 -0.02,-0.04 -0.05,-0.04 -0.02,0 -0.13,0.06 -0.15,0.07 -0.05,0.03 -0.13,0.07 -0.13,0.11z"></path> <path class="fil1" d="M3.28 1.33c0,0.03 0.03,0.04 0.06,0.04 0.01,0 0.05,-0.03 0.07,-0.04l0.15 -0.08c0.02,-0.01 0.05,-0.02 0.05,-0.06 0,-0.11 -0.15,0.01 -0.2,0.03l-0.1 0.07c-0.02,0.01 -0.03,0.01 -0.03,0.04z"></path> <path class="fil1" d="M0.97 1.85c0,0.03 0.02,0.04 0.05,0.04l0.27 0c0.06,0 0.06,-0.09 0,-0.09l-0.27 0c-0.03,0 -0.05,0.02 -0.05,0.05z"></path> <path class="fil1" d="M3.34 1.85c0,0.03 0.01,0.04 0.04,0.04l0.27 0c0.06,0 0.06,-0.09 0,-0.09l-0.27 0c-0.03,0 -0.04,0.02 -0.04,0.05z"></path> </g> </g> </g> </svg>