<svg xmlns="http://www.w3.org/2000/svg" xmlns:xlink="http://www.w3.org/1999/xlink" xml:space="preserve" width="91px" height="91px" style="shape-rendering:geometricPrecision; text-rendering:geometricPrecision; image-rendering:optimizeQuality; fill-rule:evenodd; clip-rule:evenodd" viewBox="0 0 22.77 22.77"> <defs> <style type="text/css"> .fil1 {fill:#083264} .fil0 {fill:white} </style> </defs> <g id="Layer_x0020_1"> <metadata id="CorelCorpID_0Corel-Layer"></metadata> <g id="_1718282647824"> <circle class="fil0" cx="11.38" cy="11.38" r="11.38"></circle> <path class="fil1" d="M9.41 11.45l0.02 0.51c-0.02,0.07 -0.08,0.05 -0.06,0.17 0.06,0.46 0.05,0.18 0.29,0.65 0.02,0.06 0.05,0.1 0.09,0.15 0.06,0.07 0.08,0.05 0.08,0.18 0,0.07 -0.06,0.22 -0.1,0.27 -0.12,0.18 -0.38,0.13 -0.63,0.13 -0.17,0 -0.2,0.01 -0.28,0.11 -0.29,0.32 -0.49,0.95 -0.5,1.42 0,0.12 -0.04,0.27 0.02,0.34 0.06,0.06 0.44,0.18 0.57,0.21 0.46,0.1 1.06,0.14 1.59,0.13l0.58 -0.03c0.29,-0.03 0.42,-0.02 0.73,-0.07 0.25,-0.04 0.45,-0.09 0.66,-0.16 0.1,-0.04 0.19,-0.06 0.21,-0.19 0.01,-0.07 -0.01,-0.31 -0.02,-0.38 -0.07,-0.48 -0.19,-0.87 -0.42,-1.2 -0.17,-0.25 -0.21,-0.21 -0.6,-0.21 -0.15,0 -0.26,0.02 -0.34,-0.07 -0.09,-0.11 -0.11,-0.24 -0.11,-0.38 0,-0.08 0.08,-0.15 0.12,-0.21 0.04,-0.08 0.07,-0.15 0.11,-0.23 0.05,-0.09 0.17,-0.15 0.17,-0.51 0,-0.11 -0.07,-0.03 -0.06,-0.22 0.01,-0.32 0.06,-0.7 -0.28,-0.96 -0.16,-0.12 -0.5,-0.24 -0.78,-0.24 -0.27,0 -0.54,0.1 -0.71,0.2 -0.19,0.11 -0.35,0.3 -0.35,0.59zm2.08 -3.59c0,0.18 0.31,0.16 0.31,0.01 0,-0.19 -0.31,-0.17 -0.31,-0.01zm2.69 2.61l0 0.08c0,0.17 0.25,0.16 0.25,-0.03 0,-0.22 -0.25,-0.19 -0.25,-0.05zm-0.61 -1.65c0.29,0 0.11,-0.29 0,-0.29 -0.08,0 -0.14,0.06 -0.13,0.13 0.01,0.05 0.08,0.16 0.13,0.16zm-4.17 -0.12c0,0.2 0.28,0.13 0.28,-0.05 0,-0.19 -0.28,-0.14 -0.28,0.05zm1.95 -0.08c0.06,0.03 0.05,0.03 0.14,0.03l0 1.7c-0.38,0.09 -0.41,-0.15 -0.41,0.25 0,0.08 0.09,0.06 0.17,0.06 0.1,0 0.14,0 0.22,0.02 0.08,0.36 -0.14,0.38 0.25,0.38 0.15,0 -0.03,-0.4 0.12,-0.4l0.95 0 0.02 0.14c0.08,0 0.09,-0.02 0.14,-0.05 0.09,-0.05 0.33,-0.18 0.37,-0.23 -0.03,-0.07 -0.16,-0.13 -0.24,-0.17 -0.05,-0.02 -0.07,-0.04 -0.12,-0.07 -0.06,-0.03 -0.07,-0.05 -0.15,-0.06l-0.02 0.14 -0.95 0c-0.03,0 -0.06,-0.02 -0.06,-0.06l0 -1.65c0.1,0 0.08,0.01 0.16,-0.03 -0.02,-0.06 -0.1,-0.19 -0.14,-0.26 -0.04,-0.07 -0.1,-0.2 -0.16,-0.24 -0.05,0.04 -0.12,0.17 -0.15,0.23 -0.05,0.08 -0.13,0.18 -0.14,0.27zm4.2 1.79c0,0.65 -0.06,0.89 -0.25,1.46 -0.03,0.09 -0.12,0.31 -0.12,0.39 0.05,0 0.79,-0.31 0.87,-0.37 0.07,-0.04 0.05,-0.05 0.05,-0.05 0,0 -0.04,-0.21 -0.11,-0.21 -0.11,0 -0.21,0.08 -0.31,0.1 0,-0.11 0.17,-0.59 0.17,-1.23 0,-0.93 -0.34,-1.88 -0.84,-2.54 -0.04,-0.07 -0.08,-0.12 -0.13,-0.18 -0.03,-0.03 -0.04,-0.04 -0.07,-0.08l-0.38 -0.39c-0.06,-0.05 -0.1,-0.1 -0.17,-0.14 -0.06,0.03 -0.11,0.09 -0.15,0.15 -0.06,0.09 0.04,0.13 0.09,0.17 0.32,0.31 0.6,0.62 0.82,1.01 0.3,0.56 0.53,1.22 0.53,1.91zm-7.38 0.09l0.29 0.02 0.03 -0.36c0.04,-0.33 0.11,-0.64 0.24,-0.93 0.25,-0.52 0.6,-0.97 1.06,-1.3 0.91,-0.65 2.15,-0.79 3.18,-0.3 1.08,0.52 1.83,1.59 1.83,2.8 0,0.81 -0.2,1.41 -0.64,2l-0.29 0.34c-0.04,0.04 -0.08,0.06 -0.11,0.1 0.01,0.05 0.13,0.2 0.17,0.22 0.14,-0.09 0.43,-0.43 0.53,-0.59 0.46,-0.66 0.64,-1.25 0.64,-2.09 0,-0.89 -0.44,-1.77 -1.02,-2.35 -0.28,-0.28 -0.6,-0.51 -0.98,-0.69 -0.69,-0.33 -1.53,-0.42 -2.29,-0.23 -0.55,0.14 -0.97,0.38 -1.41,0.73 -0.2,0.16 -0.47,0.48 -0.62,0.68 -0.26,0.38 -0.41,0.74 -0.52,1.19 -0.05,0.2 -0.09,0.56 -0.09,0.76zm3.69 1.53c0,0.43 -0.01,0.34 0.28,0.34 0.03,0.07 0.07,0.15 0.12,0.2 0.08,0.09 0.18,0.08 0.1,0.31 -0.02,0.06 -0.01,0.06 -0.08,0.07 -0.25,0.04 -0.66,-0.01 -0.67,0.3 0.3,0 0.45,-0.05 0.58,0.12 0.17,0.23 0.11,0.07 0.34,0.47 0.03,0.05 0.13,0.21 0.14,0.26 0.27,0 0.51,-0.01 0.73,-0.06 0.12,-0.02 0.22,-0.05 0.33,-0.08 0.21,-0.05 0.2,-0.02 0.2,-0.34 0,-0.15 -0.04,-0.27 -0.08,-0.37 -0.11,-0.29 -0.24,-0.25 -0.61,-0.3 -0.09,-0.01 -0.12,0.01 -0.16,-0.06 -0.11,-0.19 -0.02,-0.21 0.07,-0.3 0.09,-0.09 0.11,-0.23 0.27,-0.23 0.18,-0.01 0.15,0.03 0.15,-0.42 0,-0.24 -0.09,-0.62 -0.18,-0.77 -0.07,-0.1 -0.16,-0.15 -0.29,-0.19 -0.3,-0.09 -0.9,-0.08 -1.08,0.24 -0.1,0.17 -0.16,0.54 -0.16,0.81zm-4.43 -0.42c0,0.15 -0.09,0.2 0.07,0.45 0.05,0.06 0.07,0.11 0.11,0.18 0.02,0.03 0.12,0.18 0.12,0.18 0,0.13 -0.1,0.31 -0.23,0.31 -0.37,0 -0.44,-0.09 -0.66,0.37 -0.12,0.23 -0.17,0.58 -0.17,0.89 0,0.13 0.58,0.23 0.67,0.24 0.27,0.03 0.56,0.04 0.86,0.04 0.07,0 0.08,-0.05 0.1,-0.11 0.04,-0.11 0.08,-0.2 0.14,-0.3 0.03,-0.05 0.05,-0.1 0.09,-0.15l0.19 -0.25c0.04,-0.04 0.19,-0.18 0.27,-0.18l0.55 0c0,-0.08 -0.1,-0.21 -0.15,-0.28 -0.02,-0.05 -0.13,-0.23 -0.16,-0.26 -0.13,-0.1 -0.41,0.09 -0.51,-0.13 -0.11,-0.23 -0.03,-0.23 0.02,-0.35 0.03,-0.04 0.05,-0.11 0.08,-0.15 0.04,-0.07 0.14,-0.12 0.14,-0.33 0,-0.09 -0.05,-0.13 -0.05,-0.17 0,-0.19 0.05,-0.43 -0.14,-0.64 -0.32,-0.34 -1.22,-0.3 -1.33,0.26 -0.03,0.17 -0.01,0.21 -0.01,0.38zm-2 -0.05c0,-0.72 0.03,-1.24 0.24,-1.9 0.14,-0.43 0.15,-0.41 0.3,-0.79 0.04,-0.08 0.08,-0.16 0.12,-0.24l0.13 -0.23c0.17,-0.29 0.44,-0.69 0.67,-0.95l0.28 -0.28c0.19,-0.2 0.35,-0.34 0.57,-0.51 0.26,-0.2 0.58,-0.4 0.87,-0.56 0.08,-0.04 0.16,-0.09 0.25,-0.12 0.45,-0.19 0.54,-0.25 1.07,-0.38 0.9,-0.24 1.99,-0.23 2.9,-0.01 0.39,0.1 1.06,0.34 1.41,0.55l0.45 0.27c0.16,0.11 0.47,0.34 0.61,0.47 0.04,0.04 0.05,0.05 0.1,0.08 0.12,0.1 0.33,0.34 0.44,0.46l0.25 0.3c0.73,0.88 1.25,2.3 1.25,3.44 0,0.72 0,1.01 -0.18,1.72 -0.07,0.3 -0.15,0.53 -0.27,0.8 -0.24,0.6 -0.55,1.05 -0.94,1.55 -0.12,0.16 -0.56,0.59 -0.71,0.71 -0.51,0.39 -0.93,0.7 -1.54,0.95 -0.44,0.18 -0.92,0.33 -1.4,0.39 -1.16,0.16 -2.42,0.03 -3.45,-0.49 -0.34,-0.17 -0.4,-0.21 -0.69,-0.39 -0.19,-0.1 -0.46,-0.32 -0.62,-0.45 -0.17,-0.14 -0.43,-0.38 -0.56,-0.53 -0.25,-0.29 -0.41,-0.5 -0.62,-0.82 -0.12,-0.18 -0.3,-0.51 -0.39,-0.7 -0.15,-0.33 -0.28,-0.68 -0.37,-1.06 -0.09,-0.36 -0.17,-0.83 -0.17,-1.28zm5.8 -6.43l0.4 0c0.45,0.01 0.89,0.07 1.29,0.18 0.79,0.23 1.4,0.48 2.07,0.96 0.15,0.1 0.28,0.21 0.42,0.32l0.3 0.27c0.11,0.08 0.21,0.22 0.28,0.29 0.07,0.07 0.12,0.12 0.18,0.2 0.37,0.43 0.62,0.85 0.88,1.36 0.1,0.2 0.25,0.59 0.32,0.82 0.09,0.33 0.16,0.56 0.21,0.91 0.04,0.34 0.06,0.51 0.06,0.72l0 0.49c0,0.58 -0.17,1.35 -0.37,1.88 -0.34,0.9 -0.87,1.72 -1.56,2.38 -0.23,0.23 -0.68,0.58 -0.94,0.74 -0.71,0.46 -1.61,0.81 -2.44,0.93 -0.25,0.03 -0.48,0.05 -0.71,0.06l-0.48 0c-0.23,-0.01 -0.47,-0.03 -0.71,-0.07 -0.38,-0.05 -0.59,-0.12 -0.92,-0.21 -0.11,-0.03 -0.18,-0.06 -0.28,-0.1 -0.3,-0.1 -0.76,-0.32 -1.03,-0.48 -0.22,-0.14 -0.68,-0.45 -0.87,-0.62 -0.04,-0.04 -0.06,-0.06 -0.1,-0.09 -0.04,-0.03 -0.06,-0.06 -0.09,-0.09 -0.05,-0.04 -0.07,-0.05 -0.11,-0.09l-0.45 -0.49c-0.27,-0.35 -0.39,-0.49 -0.62,-0.88 -0.03,-0.05 -0.04,-0.08 -0.06,-0.12 -0.1,-0.16 -0.24,-0.47 -0.31,-0.65 -0.04,-0.09 -0.07,-0.18 -0.1,-0.27 -0.29,-0.87 -0.36,-1.32 -0.36,-2.23l0 -0.06c0,-0.85 0.25,-1.72 0.58,-2.45 0.23,-0.51 0.55,-0.95 0.89,-1.39l0.56 -0.58c0.29,-0.3 0.85,-0.67 1.21,-0.87 0.48,-0.27 0.94,-0.45 1.5,-0.59 0.42,-0.1 0.89,-0.17 1.36,-0.18z"></path> </g> </g> </svg>