<svg xmlns="http://www.w3.org/2000/svg" xmlns:xlink="http://www.w3.org/1999/xlink" xml:space="preserve" width="91px" height="91px" style="shape-rendering:geometricPrecision; text-rendering:geometricPrecision; image-rendering:optimizeQuality; fill-rule:evenodd; clip-rule:evenodd" viewBox="0 0 21.36 21.36"> <defs> <style type="text/css"> .fil1 {fill:#083264} .fil0 {fill:white} </style> </defs> <g id="Layer_x0020_1"> <metadata id="CorelCorpID_0Corel-Layer"></metadata> <g id="_1718310615680"> <circle class="fil0" cx="10.68" cy="10.68" r="10.68"></circle> <path class="fil1" d="M8.72 12.55c0,-0.89 0.16,-0.79 1.31,-0.79 0,-1.14 -0.11,-1.3 0.78,-1.3 0.65,0 0.52,0.62 0.52,1.3 1.12,0 1.3,-0.1 1.3,0.79 0,0.65 -0.62,0.52 -1.3,0.52 0,1.12 0.11,1.3 -0.79,1.3 -0.65,0 -0.51,-0.62 -0.51,-1.3 -0.69,0 -1.31,0.13 -1.31,-0.52zm1.74 -5.13l0.44 0 0 -2.61 -0.44 0 0 2.61zm-6.3 1.28l2.28 1.3c0.07,-0.13 0.14,-0.27 0.22,-0.38l-2.28 -1.31c-0.07,0.13 -0.14,0.27 -0.22,0.39zm10.54 0.92c0.07,0.11 0.15,0.25 0.21,0.38l2.29 -1.3c-0.07,-0.14 -0.15,-0.25 -0.22,-0.39 -0.1,0.03 -0.19,0.1 -0.28,0.16l-0.57 0.32c-0.11,0.07 -0.19,0.11 -0.3,0.17l-1.13 0.66zm-1.82 -1.66c0.13,0.07 0.25,0.15 0.38,0.22l0.49 -0.84c0.05,-0.1 0.11,-0.2 0.17,-0.3l0.32 -0.56c0.06,-0.11 0.1,-0.19 0.16,-0.28 0.05,-0.09 0.14,-0.2 0.16,-0.3 -0.12,-0.07 -0.26,-0.14 -0.38,-0.22 -0.1,0.19 -0.22,0.39 -0.33,0.57l-0.97 1.71zm-6.09 -2.06c0.02,0.07 0.11,0.2 0.15,0.28l1.16 2c0.11,-0.08 0.25,-0.15 0.38,-0.22 -0.03,-0.09 -0.4,-0.71 -0.48,-0.85 -0.26,-0.47 -0.59,-0.98 -0.83,-1.43 -0.11,0.08 -0.25,0.15 -0.38,0.22zm3.67 5.78c0,0.65 -0.62,0.52 -1.3,0.52l0 0.43c1.4,0 1.3,-0.09 1.3,1.31l0.44 0c0,-1.41 -0.11,-1.31 1.3,-1.31l0 -0.43c-1.4,0 -1.3,0.09 -1.3,-1.3l-0.44 0 0 0.78zm-5.87 4.38c0,0.3 0.19,0.48 0.38,0.48l11.41 0c0.2,0 0.38,-0.18 0.38,-0.48 0,-0.17 -0.21,-0.38 -0.38,-0.38l-11.41 0c-0.17,0 -0.38,0.21 -0.38,0.38zm2.83 -2.94l0 1.25 -0.44 0c0,-1.11 -0.04,-2.09 0.55,-3.01 0.17,-0.26 0.49,-0.68 0.73,-0.85 0.04,0.16 0.12,0.1 0.24,0.33l-0.19 0.21c-0.23,0.25 -0.37,0.41 -0.54,0.74 -0.16,0.31 -0.35,0.86 -0.35,1.33zm1.25 -2.9c0.06,-0.09 0.31,-0.22 0.43,-0.25 0.04,0.15 0.13,0.23 0.17,0.38 -0.17,0.04 -0.25,0.15 -0.39,0.19l-0.17 -0.23c-0.03,-0.06 -0.03,-0.06 -0.04,-0.09zm-2.12 2.85l0 2.17 8.26 0 0 -2.12c0,-0.91 -0.41,-1.81 -0.95,-2.47 -0.04,-0.06 -0.07,-0.08 -0.12,-0.13 -0.19,-0.24 -0.39,-0.4 -0.65,-0.6 -0.2,-0.14 -0.39,-0.24 -0.62,-0.36 -1.08,-0.54 -2.48,-0.55 -3.57,0 -0.7,0.35 -1.13,0.69 -1.59,1.33 -0.15,0.2 -0.24,0.39 -0.36,0.62 -0.19,0.37 -0.4,1.02 -0.4,1.56z"></path> </g> </g> </svg>