<svg xmlns="http://www.w3.org/2000/svg" xmlns:xlink="http://www.w3.org/1999/xlink" xml:space="preserve" width="91px" height="91px" style="shape-rendering:geometricPrecision; text-rendering:geometricPrecision; image-rendering:optimizeQuality; fill-rule:evenodd; clip-rule:evenodd" viewBox="0 0 4.95 4.95"> <defs> <style type="text/css"> .fil1 {fill:#083264} .fil0 {fill:white} </style> </defs> <g id="Layer_x0020_1"> <metadata id="CorelCorpID_0Corel-Layer"></metadata> <g id="_1718023652864"> <circle class="fil0" cx="2.48" cy="2.48" r="2.48"></circle> <path class="fil1" d="M1.55 3.41l1.85 -0.01 0.01 0.29 -1.86 0 0 -0.28zm-0.28 -1.05c0.01,0.05 0.11,0.04 0.16,0.04 0.07,0 0.14,-0.01 0.11,-0.09 -0.02,-0.08 -0.31,-0.09 -0.27,0.05zm1.14 -1.19c-0.01,0.04 -0.01,0.15 0,0.18 0.02,0.05 0.1,0.06 0.13,0.02 0.02,-0.04 0.05,-0.3 -0.1,-0.25l-0.03 0.05zm1 1.19c0.02,0.05 0.1,0.04 0.17,0.04 0.06,0 0.13,-0.01 0.11,-0.09 -0.02,-0.08 -0.32,-0.09 -0.28,0.05zm-0.19 -0.67c0.03,-0.04 0.08,-0.08 0.12,-0.12 0.04,-0.06 0.01,-0.13 -0.08,-0.12 -0.03,0.02 -0.1,0.09 -0.12,0.12 -0.06,0.06 -0.02,0.13 0.08,0.12zm-1.62 -0.14c0.03,0.04 0.09,0.11 0.15,0.14 0.21,0.01 0,-0.24 -0.08,-0.24 -0.06,0 -0.07,0.04 -0.07,0.1zm0.73 1.57l0.29 0 0 0.14 -0.29 0 0 -0.14zm0.11 -0.92c0.18,-0.06 0.25,0.21 0.08,0.26 -0.17,0.06 -0.27,-0.2 -0.08,-0.26zm-0.6 1.06c-0.02,-0.1 -0.01,-0.99 0.01,-1.08 0.16,-0.65 1.09,-0.65 1.25,0 0.02,0.09 0.04,0.98 0.02,1.08l-0.35 0c-0.02,-0.07 0.01,-0.18 -0.01,-0.24 -0.03,-0.07 -0.14,-0.04 -0.21,-0.05l0 -0.36c0.09,-0.05 0.24,-0.11 0.21,-0.33 -0.02,-0.13 -0.14,-0.24 -0.29,-0.24 -0.15,0.01 -0.27,0.12 -0.28,0.26 -0.02,0.24 0.21,0.29 0.21,0.32l0 0.35c-0.07,0 -0.18,-0.02 -0.2,0.05 -0.02,0.05 0,0.17 -0.02,0.24l-0.34 0zm0.01 -1.4c-0.21,0.27 -0.16,0.62 -0.16,1.03 0,0.09 0.01,0.29 0,0.37 -0.34,0.01 -0.28,-0.07 -0.29,0.41 0,0.21 0.05,0.16 0.25,0.16l1.65 0c0.21,0 0.25,0.05 0.25,-0.16 0,-0.49 0.06,-0.4 -0.28,-0.41 -0.03,-0.18 0.03,-0.91 -0.04,-1.14 -0.04,-0.16 -0.06,-0.15 -0.1,-0.23 -0.01,-0.02 -0.01,-0.01 -0.01,-0.03 -0.03,-0.02 -0.02,-0.01 -0.04,-0.03 -0.04,-0.05 -0.02,-0.04 -0.09,-0.09 -0.37,-0.32 -0.88,-0.23 -1.14,0.12z"></path> </g> </g> </svg>