<svg xmlns="http://www.w3.org/2000/svg" xmlns:xlink="http://www.w3.org/1999/xlink" id="Layer_1" x="0px" y="0px" viewBox="0 0 91 91" style="enable-background:new 0 0 91 91;" xml:space="preserve"> <style type="text/css"> .st0{fill-rule:evenodd;clip-rule:evenodd;fill:#FFFFFF;} .st1{fill-rule:evenodd;clip-rule:evenodd;fill:#0B2852;} </style> <g> <circle class="st0" cx="45.5" cy="45.5" r="45.5"></circle> <path class="st1" d="M13.51,60.76c3.68,7.48,9.23,13.12,16.72,16.73c7.55,3.65,17.24,4.51,25.32,2.04 c6.88-2.1,10.23-4.64,15.32-9.28c3.76-3.43,7.5-10,8.87-15.42c2.14-8.45,1.41-16.89-2.33-24.84c-3.18-6.75-9.36-12.97-15.97-16.2 c-7.84-3.83-17.07-4.8-25.5-2.45c-6.35,1.77-11.1,4.74-15.48,9.12C10.08,30.84,7.01,47.51,13.51,60.76L13.51,60.76z M41.29,14.34 c18.42-2.51,33.15,10.71,35.43,26.77c2.65,18.64-11.22,33.4-26.88,35.58c-18.56,2.59-33.31-11.14-35.49-26.74 C11.72,31.1,25.34,16.51,41.29,14.34L41.29,14.34z M41.8,16.48c17.17-2.27,30.79,10.38,32.75,25.2 c2.28,17.24-10.5,30.97-25.25,32.83C32.12,76.67,18.34,64.12,16.49,49.3C14.32,31.95,26.77,18.46,41.8,16.48L41.8,16.48z M45.58,60.98L31.47,43.12c-0.53-0.72-1.39-1.45-1.85-2.44c1.06-0.05,6.02-0.11,6.79,0.1c0.83,0.22,2.52,2.52,3.16,3.39l5.21,6.45 c0.42,0.45,0.13,0.15,0.55,0.51c0.05,0.04,0.19,0.23,0.23,0.16c0.04-0.06,0.15,0.11,0.24,0.16c0.64-1.42,1.76-2.48,2.78-3.84 c5.73-7.67,4.23-7.45,12.82-6.9l-7.95,10.19c-1.39,1.84-2.71,3.44-4.03,5.11C48.08,57.72,46.95,59.3,45.58,60.98L45.58,60.98z M46.29,64.85c-1.23,0-3.67,0.13-4.75,0c-1.81-0.22-1.95-1.88,0.02-2.09c1.96-0.21,7.76-0.32,9.02,0.35 C51.18,65.34,49.74,64.85,46.29,64.85L46.29,64.85z M44.4,66.13c1.12,0,5.18-0.27,5.88,0.18c0.37,0.23,1.18,1.35-0.49,1.81 l-8.85-0.04c-0.89-0.39-1.07-1.15-0.17-1.73C41.42,65.93,43.26,66.13,44.4,66.13L44.4,66.13z M48.44,69.4 c-1.01,2.93-4.84,2.6-5.84-0.04L48.44,69.4L48.44,69.4z M49.66,27.06c0.48-0.91,0.26-0.44,0.99-1.32c0.41-0.5,0.36-0.47,0.87-1.03 c0.62-0.68,1.08-1.33,1.8-2.01L51.5,28.2C50.24,27.85,50.4,27.87,49.66,27.06L49.66,27.06z M39.52,28.15l-1.67-5.39 c1.08,1.04,3.17,3.42,3.55,4.69C40.55,27.76,40.46,27.89,39.52,28.15L39.52,28.15z M29.67,36.36l5.94-1.02l-0.02,2.2L29.67,36.36 L29.67,36.36z M53.58,30.36l5.52-1.91c-0.31,0.2-2,1.68-2.24,1.91c-0.98,0.97-1.41,1.24-2.35,1.95L53.58,30.36L53.58,30.36z M44.45,26.31l1.07-6.06l1.01,6.15L44.45,26.31L44.45,26.31z M55.34,37.49l-0.01-2.17l5.82,1.16L55.34,37.49L55.34,37.49z M36.44,32.24l-2.29-1.87c-0.63-0.52-1.71-1.45-2.29-1.94l5.64,2.07L36.44,32.24z"></path> </g> </svg>