<svg xmlns="http://www.w3.org/2000/svg" xmlns:xlink="http://www.w3.org/1999/xlink" xml:space="preserve" width="91px" height="91px" style="shape-rendering:geometricPrecision; text-rendering:geometricPrecision; image-rendering:optimizeQuality; fill-rule:evenodd; clip-rule:evenodd" viewBox="0 0 6.5 6.5"> <defs> <style type="text/css"> .fil1 {fill:#083264} .fil0 {fill:white} </style> </defs> <g id="Layer_x0020_1"> <metadata id="CorelCorpID_0Corel-Layer"></metadata> <g id="_1718378867568"> <circle class="fil0" cx="3.25" cy="3.25" r="3.25"></circle> <path class="fil1" d="M4.44 3.5c0.11,0.05 0.2,0.13 0.26,0.21 0.04,0.04 0.07,0.09 0.1,0.15 0.02,0.04 0.05,0.13 0.06,0.18 0,0.02 0.01,0.12 0.01,0.14 0,0.14 -0.04,0.27 -0.1,0.38 -0.08,0.13 -0.19,0.24 -0.33,0.31 -0.15,0.07 -0.36,0.1 -0.54,0.04 -0.16,-0.05 -0.28,-0.13 -0.38,-0.25 -0.23,-0.28 -0.22,-0.67 0,-0.95 0.09,-0.12 0.23,-0.21 0.38,-0.26 0.18,-0.05 0.38,-0.03 0.54,0.05zm-0.11 0.3l0 0.22 -0.38 0 0 -0.22c0,-0.05 0.04,-0.1 0.06,-0.12 0.07,-0.07 0.18,-0.07 0.26,0 0.02,0.01 0.06,0.07 0.06,0.12zm-1.33 -2.15l0 0.02c-0.01,0.04 0,0.08 -0.01,0.12 -0.01,0.17 -0.02,0.38 -0.04,0.55 0,0.04 0,0.07 -0.01,0.11 0,0.03 -0.01,0.07 -0.01,0.1 -0.01,0.06 0,0.16 -0.03,0.2 -0.01,0.02 -0.03,0.02 -0.04,0.01 -0.03,-0.03 -0.04,-0.09 -0.05,-0.13 -0.02,-0.09 -0.02,-0.22 -0.04,-0.32 0,-0.03 0,-0.08 -0.01,-0.1 -0.01,-0.09 -0.04,-0.27 -0.06,-0.36 -0.02,-0.07 -0.12,-0.09 -0.16,-0.07 -0.08,0.01 -0.1,0.1 -0.1,0.19 0,0.03 0.02,0.26 0.02,0.27 0,0.03 0.03,0.2 0.04,0.25 0,0.07 0.01,0.2 0.02,0.25 0,0.04 0.01,0.08 0.01,0.12 0.01,0.12 0.02,0.25 0.02,0.37 0.01,0.08 -0.01,0.16 -0.05,0.2 -0.02,0.02 -0.05,0.04 -0.09,0.03 -0.05,-0.01 -0.08,-0.05 -0.11,-0.08 -0.06,-0.05 -0.13,-0.11 -0.18,-0.18 -0.05,-0.05 -0.1,-0.1 -0.13,-0.16 -0.01,-0.01 -0.02,-0.02 -0.03,-0.04 -0.03,-0.05 -0.07,-0.11 -0.11,-0.14 -0.08,-0.05 -0.18,-0.06 -0.27,0.01 -0.04,0.03 -0.03,0.04 -0.04,0.06l0 0.03c0,0.01 0,0.01 0.01,0.02 0.09,0.13 0.18,0.26 0.25,0.39 0.05,0.07 0.09,0.14 0.13,0.22 0.01,0.02 0.02,0.03 0.03,0.05 0.01,0.02 0.02,0.04 0.03,0.06 0.02,0.04 0.03,0.07 0.05,0.12 0.01,0.01 0.02,0.04 0.03,0.05 0.02,0.06 0.05,0.12 0.08,0.18 0.07,0.13 0.11,0.19 0.21,0.3 0.05,0.06 0.11,0.13 0.16,0.18 0.06,0.04 0.04,0.04 0.1,0.07 0.01,0.05 -0.01,0.18 0.01,0.22 0.02,0.03 0.05,0.03 0.09,0.03 0.04,0 0.08,0 0.12,0 0.23,0 0.47,0 0.7,0 0.05,0 0.03,-0.01 0.09,0.03 0.1,0.07 0.21,0.12 0.33,0.14l0.11 0.01 0.08 0c0.01,0 0.08,0 0.09,-0.01 0.13,-0.02 0.26,-0.07 0.36,-0.14 0.04,-0.03 0.05,-0.04 0.08,-0.07 0.07,-0.06 0.15,-0.17 0.2,-0.26 0.02,-0.05 0.04,-0.09 0.05,-0.15 0.01,-0.02 0.01,-0.05 0.02,-0.08 0,-0.02 0.01,-0.08 0.01,-0.09l0 -0.09c0,-0.01 -0.01,-0.08 -0.01,-0.1 -0.04,-0.23 -0.18,-0.44 -0.37,-0.57 -0.05,-0.02 -0.09,-0.05 -0.14,-0.07 -0.11,-0.05 -0.22,-0.06 -0.35,-0.07 0,-0.05 0.02,-0.26 0.02,-0.32 0.01,-0.05 0.03,-0.09 0.04,-0.14 0.03,-0.14 0.06,-0.3 0.08,-0.44 0.01,-0.02 0.01,-0.05 0.01,-0.08 0.01,-0.08 0.03,-0.14 0.03,-0.22 0,-0.06 0,-0.11 -0.03,-0.14 -0.03,-0.03 -0.09,-0.04 -0.14,-0.02 -0.07,0.03 -0.1,0.13 -0.12,0.22 -0.02,0.09 -0.05,0.18 -0.08,0.27 -0.01,0.04 -0.02,0.09 -0.03,0.13 -0.02,0.04 -0.02,0.09 -0.04,0.14 -0.04,0.13 -0.12,0.15 -0.1,-0.04 0,-0.05 0.01,-0.1 0.01,-0.15 0.01,-0.06 0.01,-0.11 0.01,-0.17 0,-0.05 0.01,-0.1 0.01,-0.16 0.01,-0.05 0.01,-0.11 0.01,-0.16 0.01,-0.08 0.02,-0.16 0.03,-0.23 0,-0.03 -0.01,-0.07 -0.01,-0.08l0 -0.01c0,-0.01 0,-0.01 0,-0.01 -0.01,-0.05 -0.03,-0.08 -0.06,-0.11 -0.04,-0.04 -0.08,-0.05 -0.14,-0.01 -0.03,0.02 -0.04,0.08 -0.05,0.14 -0.03,0.16 -0.05,0.35 -0.05,0.52 -0.01,0.12 -0.02,0.22 -0.04,0.34 -0.01,0.04 -0.02,0.14 -0.03,0.16 -0.01,0.03 -0.04,0.05 -0.06,0.02 -0.03,-0.05 -0.03,-0.11 -0.03,-0.17 0,-0.02 -0.01,-0.05 -0.01,-0.08 0,-0.06 -0.01,-0.12 -0.01,-0.18 0,-0.12 -0.01,-0.24 -0.02,-0.36 -0.01,-0.06 -0.02,-0.12 -0.03,-0.17l0 -0.18c-0.01,-0.05 -0.01,-0.08 -0.03,-0.12 -0.01,-0.02 -0.03,-0.04 -0.05,-0.05 -0.01,0 -0.03,0 -0.03,-0.01l-0.05 0c-0.01,0.01 -0.03,0.01 -0.05,0.03 -0.01,0.01 -0.02,0.02 -0.03,0.04 -0.02,0.03 -0.02,0.08 -0.02,0.12zm1.17 2.77c0,0.02 0.01,0.13 -0.03,0.13 -0.04,-0.01 -0.03,-0.11 -0.03,-0.13 -0.06,-0.03 -0.04,-0.1 0.03,-0.1 0.07,-0.01 0.09,0.08 0.03,0.1zm0.34 -0.4c-0.03,0 -0.06,0 -0.09,0 0,-0.02 0,-0.16 0,-0.19 0,-0.06 -0.01,-0.1 -0.04,-0.15 -0.04,-0.08 -0.11,-0.13 -0.23,-0.14 -0.17,-0.01 -0.29,0.12 -0.29,0.29 0,0.03 0,0.17 0,0.19 -0.05,0 -0.1,-0.01 -0.13,0.02 -0.03,0.04 -0.02,0.09 -0.02,0.14 0,0.1 0,0.21 0,0.31 0,0.06 0,0.11 0,0.16 0,0.11 0.15,0.08 0.23,0.08l0.47 0c0.05,0 0.1,0.01 0.13,-0.02 0.04,-0.03 0.03,-0.07 0.03,-0.13l0 -0.47c0,-0.03 0,-0.04 -0.01,-0.06 -0.02,-0.02 -0.04,-0.02 -0.05,-0.03z"></path> </g> </g> </svg>