<svg xmlns="http://www.w3.org/2000/svg" xmlns:xlink="http://www.w3.org/1999/xlink" xml:space="preserve" width="91px" height="91px" style="shape-rendering:geometricPrecision; text-rendering:geometricPrecision; image-rendering:optimizeQuality; fill-rule:evenodd; clip-rule:evenodd" viewBox="0 0 4.69 4.69"> <defs> <style type="text/css"> .fil1 {fill:#083264} .fil0 {fill:white} </style> </defs> <g id="Layer_x0020_1"> <metadata id="CorelCorpID_0Corel-Layer"></metadata> <g id="_1718025933264"> <circle class="fil0" cx="2.35" cy="2.35" r="2.35"></circle> <path class="fil1" d="M1.52 2.33c0,-0.71 0.89,-1.08 1.4,-0.57 0.54,0.53 0.14,1.41 -0.57,1.41 -0.46,0 -0.83,-0.36 -0.83,-0.84zm1.41 0.02c0,0.05 0.04,0.04 0.14,0.04 0.05,0 0.05,-0.08 0,-0.08 -0.1,0 -0.14,-0.02 -0.14,0.04zm-0.62 -0.73c0,0.11 -0.02,0.15 0.04,0.15 0.05,0 0.03,-0.04 0.03,-0.15 0,-0.05 -0.07,-0.05 -0.07,0zm0 1.35c0,0.1 -0.02,0.14 0.04,0.14 0.05,0 0.03,-0.04 0.03,-0.14 0,-0.06 -0.07,-0.06 -0.07,0zm-0.73 -0.62c0,0.05 0.04,0.04 0.15,0.04 0.05,0 0.05,-0.08 0,-0.08 -0.11,0 -0.15,-0.02 -0.15,0.04zm0.11 0.37c0,0.1 0.16,-0.01 0.16,-0.05 0,-0.09 -0.16,0 -0.16,0.05zm0.94 0.16c0,0.07 -0.01,0.01 0.01,0.04 0.09,0.17 0.17,0.06 0.07,-0.06 -0.05,-0.05 -0.08,-0.02 -0.08,0.02zm-0.01 -1.06c0,0.01 0.02,0.04 0.03,0.04 0.05,0 0.11,-0.11 0.11,-0.15 0,0 -0.03,-0.09 -0.12,0.05 -0.01,0.01 -0.02,0.03 -0.02,0.06zm-0.69 1.16c0,0 0.03,0.1 0.12,-0.04 0.01,-0.02 0.02,-0.04 0.02,-0.06 0,-0.02 -0.02,-0.04 -0.03,-0.04 -0.05,0 -0.11,0.1 -0.11,0.14zm-0.11 -0.9c0.01,0 0.03,-0.03 0.03,-0.04 0,-0.04 -0.1,-0.11 -0.14,-0.11 0,0 -0.09,0.04 0.04,0.12 0.02,0.01 0.04,0.03 0.07,0.03zm1.02 0.58c0,0.04 0.1,0.1 0.14,0.1 0,0 0.09,-0.03 -0.04,-0.11 -0.02,-0.02 -0.04,-0.03 -0.07,-0.03 -0.01,0 -0.03,0.02 -0.03,0.04zm-0.82 -0.8c0.08,0 0.02,-0.1 0.01,-0.11 -0.02,-0.04 -0.02,-0.06 -0.06,-0.06 -0.1,0 0,0.17 0.05,0.17zm0.82 0.16c0,0.09 0.16,0 0.16,-0.05 0,-0.1 -0.16,0 -0.16,0.05zm-0.56 0.34c0,-0.11 0.13,-0.11 0.13,0 0,0.07 -0.13,0.07 -0.13,0zm0.03 -0.17c-0.16,0.09 -0.11,0.16 -0.11,0.25 -0.05,0.03 -0.07,0.05 -0.12,0.1 -0.04,0.04 -0.1,0.07 -0.1,0.13 0,0.11 0.13,-0.03 0.14,-0.04 0.05,-0.05 0.1,-0.09 0.13,-0.14 0.05,0 0.25,0.07 0.25,-0.16 0,-0.07 -0.07,-0.11 -0.12,-0.14 0,-0.06 0,-0.13 0,-0.19 0,-0.07 0.02,-0.17 -0.03,-0.17 -0.06,0 -0.04,0.09 -0.04,0.16 0,0.06 0,0.13 0,0.2zm-1.13 0.04c0,0 -0.12,-0.15 -0.12,-0.04 0,0.03 0.13,0.2 0.16,0.2 0.06,0 0.08,-0.06 0.13,-0.1 0.06,-0.06 0.08,-0.05 0.04,-0.12 -0.07,0 -0.07,0.03 -0.12,0.06 0.04,-0.42 0.35,-0.78 0.75,-0.91 0.07,-0.03 0.15,-0.02 0.18,-0.07 -0.01,-0.04 -0.01,-0.05 -0.07,-0.05 -0.19,0.02 -0.46,0.18 -0.6,0.32 -0.32,0.32 -0.32,0.66 -0.35,0.71zm2.11 0.26c0,0.1 0.12,-0.03 0.13,-0.03 0,0.25 -0.16,0.5 -0.33,0.67 -0.12,0.12 -0.29,0.22 -0.47,0.27 -0.14,0.03 -0.16,0 -0.16,0.09 0.21,0.05 0.54,-0.16 0.7,-0.31 0.19,-0.19 0.32,-0.44 0.35,-0.72 0,0 0.12,0.16 0.12,0.04 0,-0.03 -0.13,-0.19 -0.16,-0.19 -0.04,0 -0.18,0.15 -0.18,0.18zm-2.09 0c0,0.44 0.48,0.97 1.02,1.02 -0.02,0.01 -0.01,0 -0.03,0.01 0,0.01 -0.02,0.02 -0.03,0.03 -0.03,0.02 -0.02,0.01 -0.03,0.06 0.06,0.05 0.07,0.02 0.13,-0.03 0.15,-0.11 0.17,-0.08 0.04,-0.21 0,0 -0.14,-0.16 -0.14,-0.04 0,0.03 0.05,0.06 0.07,0.09 -0.22,0 -0.5,-0.16 -0.65,-0.31 -0.03,-0.03 -0.03,-0.04 -0.05,-0.06 -0.03,-0.03 -0.03,-0.03 -0.05,-0.07 -0.09,-0.13 -0.12,-0.18 -0.17,-0.33 -0.02,-0.06 -0.01,-0.14 -0.06,-0.17l-0.05 0.01zm1.11 -1.27c0,0.04 0.22,0.28 0.22,0.15 0,-0.04 -0.05,-0.06 -0.07,-0.09 0.12,0 0.29,0.06 0.37,0.1 0.2,0.1 0.38,0.3 0.48,0.49 0.09,0.18 0.08,0.32 0.13,0.36 0.05,-0.01 0.06,-0.02 0.05,-0.07 -0.02,-0.16 -0.1,-0.34 -0.19,-0.47 -0.17,-0.26 -0.49,-0.48 -0.84,-0.5 0.03,-0.04 0.08,-0.05 0.08,-0.09 0,-0.03 -0.01,-0.04 -0.02,-0.04l-0.03 0c-0.04,0.01 -0.09,0.06 -0.09,0.06 -0.03,0.03 -0.09,0.06 -0.09,0.1zm-0.02 0.22c-0.04,0.01 -0.15,-0.01 -0.36,0.09 -0.19,0.1 -0.35,0.28 -0.43,0.48 -0.1,0.25 -0.08,0.53 0.03,0.75 0.06,0.11 0.12,0.18 0.21,0.26 0.07,0.07 0.17,0.13 0.27,0.17 0.47,0.19 1,-0.05 1.18,-0.51 0.1,-0.24 0.08,-0.53 -0.03,-0.75 -0.13,-0.24 -0.38,-0.44 -0.67,-0.48 -0.11,-0.02 -0.12,-0.03 -0.2,-0.01z"></path> </g> </g> </svg>