<svg xmlns="http://www.w3.org/2000/svg" xmlns:xlink="http://www.w3.org/1999/xlink" id="Layer_1" x="0px" y="0px" viewBox="0 0 91 91" style="enable-background:new 0 0 91 91;" xml:space="preserve"> <style type="text/css"> .st0{fill-rule:evenodd;clip-rule:evenodd;fill:#FFFFFF;} .st1{fill-rule:evenodd;clip-rule:evenodd;fill:#0B2852;} </style> <g> <circle class="st0" cx="45.5" cy="45.5" r="45.5"></circle> <path class="st1" d="M63.34,43.25c0.09-0.81-0.35-2.84-0.56-3.62c-0.73-2.68-2.31-5.44-4.27-7.32c-0.61-0.58-0.96-0.93-1.68-1.48 c-2.13-1.64-4.65-2.72-7.36-3.18c-1.91-0.32-6.01-0.3-7.92,0.01c-1.16,0.2-2.29,0.52-3.3,0.92c-2.13,0.85-3.53,1.82-5.17,3.25 l-1.05,1.06c-1.13,1.3-1.71,2.09-2.57,3.75c-0.46,0.9-0.88,1.98-1.16,3.05c-0.2,0.74-0.65,2.87-0.55,3.65 c0,0.01-0.01,0.01-0.01,0.03c-0.07,0.69-0.05,0.84-0.05,1.57c0,1.33-0.05,11.11,0.03,11.33l35.65,0.01 c0.07-0.24,0.02-8.75,0.02-9.79C63.4,46.07,63.46,43.42,63.34,43.25L63.34,43.25z M17.08,38.51c0.1,0.18,0.15,0.48,0.57,0.61 l2.91,0.57c0.64,0.12,1.29,0.25,1.94,0.37c0.35,0.07,0.66,0.14,0.95-0.05c0.22-0.14,0.4-0.4,0.39-0.79 c-0.01-0.77-0.72-0.8-1.4-0.93l-3.88-0.75c-0.32-0.06-0.69-0.17-0.99-0.03c-0.41,0.2-0.39,0.46-0.49,0.65V38.51L17.08,38.51z M66.93,24.96c0.76-0.23,1.43,0.72,0.92,1.36c-0.14,0.18-0.51,0.46-0.71,0.62c-0.25,0.21-0.48,0.41-0.73,0.61l-2.17,1.83 c-0.19,0.16-0.52,0.49-0.77,0.56c-0.8,0.24-1.46-0.74-0.94-1.36c0.17-0.21,1.14-0.97,1.44-1.23l1.45-1.22 c0.24-0.19,0.5-0.41,0.72-0.61C66.35,25.34,66.67,25.04,66.93,24.96L66.93,24.96z M57.3,17.57c-0.39,0.1-0.51,0.3-0.68,0.64 l-2.23,4.26c-0.5,0.93,0.38,1.48,0.95,1.33c0.5-0.13,0.76-0.88,1.09-1.51l1.79-3.41c0.18-0.33,0.23-0.64-0.01-0.97 C58.05,17.71,57.69,17.47,57.3,17.57L57.3,17.57z M73.92,38.06c-0.08-0.16-0.05-0.25-0.17-0.41c-0.35-0.48-0.85-0.32-1.29-0.23 l-3.89,0.81c-0.66,0.14-1.38,0.18-1.4,0.93c-0.01,0.4,0.18,0.66,0.4,0.8c0.3,0.19,0.63,0.11,0.98,0.04l3.9-0.81 c0.49-0.1,1.03-0.13,1.29-0.46c0.12-0.15,0.1-0.21,0.19-0.36V38.06L73.92,38.06z M23.4,25.07c0.52-0.12,0.86,0.31,1.29,0.69 c0.13,0.12,0.24,0.2,0.35,0.31c0.79,0.74,2.05,1.75,2.86,2.51c0.2,0.19,0.48,0.42,0.37,0.9c-0.07,0.31-0.35,0.6-0.65,0.67 c-0.47,0.11-0.75-0.18-0.97-0.37l-3.57-3.14C22.31,26.02,22.8,25.21,23.4,25.07L23.4,25.07z M33.39,17.51 c-0.96,0.35-0.62,1.05-0.37,1.61l1.59,3.54c0.25,0.56,0.49,1.45,1.34,1.18c0.3-0.1,0.56-0.32,0.62-0.65 c0.07-0.37-0.15-0.71-0.27-0.99c-0.27-0.6-0.52-1.18-0.8-1.77c-0.27-0.58-0.53-1.17-0.79-1.77C34.48,18.13,34.2,17.21,33.39,17.51 L33.39,17.51z M45.62,15.11h-0.51c-0.25,0.19-0.39,0.15-0.54,0.49c-0.13,0.3-0.07,2.63-0.07,3.06c0,0.69,0,1.38,0,2.07 c0,0.47-0.01,1.21,0.84,1.22c0.34,0,0.54-0.12,0.7-0.31c0.21-0.25,0.18-0.49,0.18-0.88v-4.14c0-0.29,0.04-0.76-0.06-1 C46.02,15.26,45.88,15.3,45.62,15.11L45.62,15.11z M23.9,57.04l0,5.28l42.92,0.01c0.04-0.38,0.01-4.55,0.01-5.29 c0-0.31-0.08-0.27-0.38-0.27c-3.35,0.03-6.83,0-10.18,0H24.98C24.08,56.77,23.9,56.66,23.9,57.04L23.9,57.04z M20.22,69.33h49.92 c0.14-0.17,0.11-0.17,0.11-0.42c-0.01-0.83,0.05-2.82-0.07-3.38c-0.23-1.1-0.91-1.85-1.69-2.28c-1.01-0.56-2.29-0.4-3.55-0.4H25.33 c-1.3,0-2.51-0.15-3.52,0.44c-0.77,0.45-1.44,1.2-1.64,2.33c-0.09,0.52-0.05,2.16-0.05,2.88C20.11,68.81,20.05,69.12,20.22,69.33 L20.22,69.33z M45.23,32.44c0.67-0.13,2.46,0.09,3.13,0.21c2.69,0.48,4.93,1.67,6.81,3.35c0.5,0.45,1.22,1.27,1.61,1.79 c1.01,1.35,1.74,2.94,2.12,4.66c0.1,0.48,0.17,0.97,0.22,1.47c0.05,0.54,0.11,1.13-0.44,1.22c-0.76,0.13-0.7-0.75-0.72-1.02 c-0.04-0.48-0.11-0.99-0.22-1.46c-0.2-0.92-0.5-1.71-0.88-2.49c-1.47-2.99-4.28-5.15-7.47-6.08c-0.93-0.27-1.9-0.43-2.93-0.49 c-0.43-0.02-1.26,0.07-1.53-0.15C44.55,33.13,44.74,32.54,45.23,32.44L45.23,32.44z M58.12,47.31c0-0.88,1.23-0.87,1.23,0v6.07 c0,0.86-1.23,0.87-1.23,0V47.31z"></path> </g> </svg>