<svg xmlns="http://www.w3.org/2000/svg" xmlns:xlink="http://www.w3.org/1999/xlink" xml:space="preserve" width="91px" height="91px" style="shape-rendering:geometricPrecision; text-rendering:geometricPrecision; image-rendering:optimizeQuality; fill-rule:evenodd; clip-rule:evenodd" viewBox="0 0 6.36 6.36"> <defs> <style type="text/css"> .fil1 {fill:#083264} .fil0 {fill:white} </style> </defs> <g id="Layer_x0020_1"> <metadata id="CorelCorpID_0Corel-Layer"></metadata> <g id="_1718533211936"> <circle class="fil0" cx="3.18" cy="3.18" r="3.18"></circle> <path class="fil1" d="M2.22 4.63l0 -0.54c0,-0.04 0.03,-0.07 0.06,-0.07l0.22 0c0.03,0 0.06,0.03 0.06,0.07l0 0.54c0,0.05 -0.02,0.1 -0.05,0.13 -0.06,0.07 -0.18,0.07 -0.24,0 -0.03,-0.03 -0.05,-0.08 -0.05,-0.13zm1.24 -1.68l0.11 0 0 -0.11 -0.11 0 0 0.11zm0.23 0l0.33 0 0 -0.11 -0.33 0 0 0.11zm-0.23 0.45l0.56 0 0 -0.11 -0.56 0 0 0.11zm0 -0.22l0.56 0 0 -0.11 -0.56 0 0 0.11zm0 -0.45l0.56 0 0 -0.11 -0.56 0 0 0.11zm0 -0.23l0.56 0 0 -0.11 -0.56 0 0 0.11zm-1.29 0.48l-0.13 -0.12 -0.09 0.08 0.21 0.21 0.67 -0.67 -0.09 -0.08 -0.57 0.58zm-0.4 -0.25c0,-0.43 0.45,-0.75 0.87,-0.56 0.08,0.03 0.15,0.08 0.2,0.14l0.06 0.07c0.16,0.22 0.14,0.55 -0.04,0.74 0,0.01 -0.01,0.01 -0.01,0.02 -0.01,0.01 -0.01,0.01 -0.01,0.01 -0.01,0 -0.01,0.01 -0.01,0.01 0,0 0,0 0,0 -0.06,0.05 -0.11,0.1 -0.19,0.13 -0.16,0.07 -0.34,0.07 -0.5,0 -0.08,-0.03 -0.13,-0.07 -0.18,-0.13 -0.06,-0.05 -0.1,-0.1 -0.13,-0.18 -0.03,-0.06 -0.06,-0.17 -0.06,-0.25zm-0.11 -0.04c0,0.14 0,0.23 0.07,0.36 0.04,0.07 0.08,0.14 0.14,0.2 0.02,0.02 0.03,0.02 0.05,0.04 0.01,0.01 0.02,0.02 0.04,0.03 0.1,0.07 0.26,0.14 0.39,0.14 0.14,0 0.23,-0.01 0.36,-0.07 0.15,-0.08 0.26,-0.19 0.34,-0.34 0.17,-0.36 0.03,-0.79 -0.34,-0.98 -0.19,-0.1 -0.45,-0.1 -0.64,0 -0.23,0.11 -0.41,0.36 -0.41,0.62zm0.62 0.99c0.05,0.01 0.17,0.01 0.22,0 0,0.05 0,0.1 0,0.15 0,0.1 -0.06,0.08 -0.16,0.08 -0.09,0 -0.06,-0.12 -0.06,-0.23zm-0.73 -0.95c0,-0.16 0.06,-0.36 0.15,-0.48 0.01,-0.02 0.03,-0.04 0.04,-0.06 0.02,-0.02 0.03,-0.04 0.05,-0.06 0.12,-0.11 0.26,-0.18 0.41,-0.22 0.19,-0.05 0.36,-0.02 0.54,0.05 0.12,0.05 0.21,0.13 0.3,0.23 0.04,0.05 0.09,0.13 0.12,0.19 0.02,0.06 0.03,0.09 0.05,0.16 0.05,0.18 0.02,0.37 -0.05,0.53 -0.06,0.14 -0.16,0.27 -0.29,0.35 -0.05,0.03 -0.08,0.05 -0.14,0.08 -0.24,0.1 -0.44,0.09 -0.69,0 -0.04,-0.02 -0.1,-0.05 -0.13,-0.08l-0.12 -0.1c-0.02,-0.02 -0.03,-0.03 -0.05,-0.05 -0.12,-0.14 -0.19,-0.36 -0.19,-0.54zm1.69 -0.45l0.9 0 0 1.24 -1.02 0c0,-0.25 -0.01,-0.12 0.08,-0.29 0.11,-0.18 0.15,-0.3 0.15,-0.54 0,-0.23 -0.1,-0.37 -0.11,-0.41zm-0.15 -0.22c0.06,0 0.24,-0.08 0.29,-0.1 0.13,-0.06 0.14,-0.08 0.24,-0.15 0.03,0.01 0.06,0.04 0.09,0.06 0.03,0.01 0.06,0.03 0.09,0.05 0.16,0.09 0.46,0.19 0.65,0.19l0.03 0.23c0.02,0.11 0.08,0.59 0.08,0.71 0.01,0.04 0.01,0.08 0.01,0.12 0.01,0.03 0.01,0.09 0.01,0.13 0.01,0.03 0.01,0.03 -0.03,0.08 -0.03,0.03 -0.05,0.05 -0.07,0.07 -0.09,0.09 -0.19,0.16 -0.29,0.24 -0.03,0.02 -0.05,0.03 -0.08,0.05 -0.13,0.09 -0.26,0.18 -0.4,0.26 -0.11,0.06 -0.21,-0.03 -0.36,-0.12 -0.03,-0.02 -0.05,-0.04 -0.08,-0.06 -0.03,-0.01 -0.05,-0.03 -0.08,-0.05l-0.15 -0.11c-0.04,-0.02 -0.13,-0.09 -0.15,-0.12l0.12 -0.08 0 0.17 1.24 0 0 -1.46 -1.07 0c-0.02,0 -0.05,-0.05 -0.07,-0.08l-0.02 -0.03zm-0.25 -0.18c0.2,0 0.51,-0.13 0.67,-0.27 0.11,-0.08 0.12,-0.09 0.23,0 0.08,0.07 0.18,0.12 0.28,0.17 0.23,0.1 0.38,0.1 0.63,0.1 0,0.05 0.01,0.1 0.02,0.15l0.09 0.73c0.01,0.05 0.01,0.1 0.02,0.14 0,0.09 0.04,0.4 0.03,0.46 -0.01,0.05 -0.03,0.08 -0.05,0.12 -0.11,0.13 -0.3,0.29 -0.44,0.39l-0.19 0.13c-0.03,0.02 -0.07,0.04 -0.1,0.07l-0.21 0.12c-0.13,0.07 -0.26,0.08 -0.38,0l-0.41 -0.25c-0.01,-0.02 -0.03,-0.02 -0.04,-0.03 -0.05,-0.04 -0.31,-0.22 -0.33,-0.27 0.05,0 0.08,-0.02 0.12,-0.03 0.01,0.01 0.03,0.02 0.04,0.04 0.02,0.01 0.03,0.02 0.05,0.03 0.1,0.09 0.62,0.46 0.73,0.46 0.11,0 0.11,-0.01 0.21,-0.07l0.43 -0.27c0.04,-0.04 0.08,-0.07 0.13,-0.1 0.08,-0.07 0.33,-0.26 0.33,-0.37l-0.01 -0.19c0,-0.04 -0.01,-0.1 -0.01,-0.15l-0.11 -0.9c-0.02,-0.1 0.01,-0.09 -0.08,-0.1 -0.2,-0.02 -0.18,0 -0.42,-0.08 -0.26,-0.08 -0.36,-0.2 -0.44,-0.24l-0.18 0.12c-0.12,0.07 -0.27,0.13 -0.42,0.17 -0.07,0.01 -0.05,0.01 -0.1,-0.02 -0.03,-0.02 -0.08,-0.04 -0.09,-0.06zm-1.41 0.8c0,0.15 0.01,0.29 0.08,0.42 0.08,0.18 0.19,0.33 0.37,0.44 0.06,0.03 0.2,0.11 0.28,0.12 0,0.05 0,0.1 0,0.15 0,0.07 0,0.08 0.03,0.13 -0.03,0.01 -0.04,0.02 -0.06,0.05 -0.01,0.02 -0.02,0.04 -0.02,0.08l0 0.59c0,0.13 0.13,0.26 0.26,0.26l0.04 0c0.13,0 0.26,-0.13 0.26,-0.26l0 -0.59c0,-0.03 -0.01,-0.06 -0.02,-0.08 -0.02,-0.03 -0.03,-0.04 -0.06,-0.05 0.03,-0.06 0.03,-0.09 0.03,-0.17l0.22 0.17c0.18,0.13 0.28,0.2 0.47,0.31 0.14,0.09 0.18,0.11 0.35,0.11 0.07,0 0.17,-0.03 0.21,-0.06 0.06,-0.04 0.12,-0.07 0.18,-0.11 0.03,-0.02 0.06,-0.04 0.09,-0.05 0.02,-0.02 0.05,-0.04 0.08,-0.06 0.19,-0.13 0.24,-0.17 0.4,-0.3 0.05,-0.04 0.18,-0.17 0.21,-0.21 0.08,-0.11 0.09,-0.15 0.09,-0.26 0,-0.26 -0.1,-1.05 -0.14,-1.35 -0.01,-0.06 -0.02,-0.13 -0.03,-0.19 -0.42,0 -0.68,-0.03 -0.98,-0.29 -0.1,-0.08 -0.2,-0.06 -0.3,0.02 -0.72,0.57 -1.16,-0.04 -1.78,0.58 -0.14,0.13 -0.26,0.39 -0.26,0.6z"></path> </g> </g> </svg>