<svg xmlns="http://www.w3.org/2000/svg" xmlns:xlink="http://www.w3.org/1999/xlink" id="Layer_1" x="0px" y="0px" viewBox="0 0 91 91" style="enable-background:new 0 0 91 91;" xml:space="preserve"> <style type="text/css"> .st0{fill-rule:evenodd;clip-rule:evenodd;fill:#FFFFFF;} .st1{fill-rule:evenodd;clip-rule:evenodd;fill:#0B2852;} </style> <g> <circle class="st0" cx="45.5" cy="45.5" r="45.5"></circle> <path class="st1" d="M48.78,25.57c-1.3,0.56-4.19,0.55-8.65,3.28c-2.56,1.57-4.87,3.54-6.42,5.52c-3.99,5.09-6.07,10.27-5.66,18.2 c0.35,6.66,4.37,12.95,7.84,16.1c4.19,3.81,9.77,6.78,17.27,6.78c6.84,0,12.29-2.54,17.02-6.73c3.49-3.09,7.46-9.37,7.87-16.15 c0.48-7.74-1.79-13.42-5.6-18.13c-2.75-3.41-6.3-5.89-10.45-7.52c-0.71-0.28-1.46-0.53-2.25-0.75c-0.41-0.11-2.18-0.47-2.41-0.61 l-0.02-2.99l-8.52-0.02L48.78,25.57L48.78,25.57z M51.65,30.05c5.09-0.7,11.61,1.85,15.11,5.22c3.71,3.58,6.3,7.98,6.63,13.69 c0.38,6.53-1.96,11.31-5.24,15.09c-5.36,6.17-14.55,8.32-22.48,5.31c-4.54-1.73-8.54-5.28-10.73-9.65 c-5.9-11.77,0.27-25.29,12.37-28.91C49.45,30.16,49.75,30.31,51.65,30.05L51.65,30.05z M51.99,35.66c0.3,0.15,0.94,0.08,1.36,0.08 c0.74,0.01,0.88,0.15,0.9-0.56c0.02-0.79-0.11-2.05,0.03-2.77c1.84-0.12,5.21,1.04,6.61,1.73c1.93,0.96,3.66,2.21,4.9,3.46 c2.61,2.62,5.31,7.54,5.21,11.59l-3.31,0.04l0,2.23c0.58,0.21,2.51,0.05,3.29,0.09c0.28,1.55-1.14,5.48-1.7,6.64 c-1.78,3.66-4.77,6.67-8.4,8.39c-1.29,0.61-4.96,1.93-6.63,1.69l-0.04-3.28l-2.31,0.03l-0.02,3.26c-1.77,0.2-5.28-1.04-6.69-1.72 c-3.69-1.8-6.61-4.77-8.38-8.42c-0.55-1.13-1.98-5.11-1.67-6.58c0.9-0.05,2.49,0.1,3.29-0.07l-0.02-2.28l-3.28-0.02 c-0.05-2.14,0.91-5.11,1.72-6.7c1.91-3.73,4.5-6.46,8.37-8.34c1.42-0.69,4.9-1.92,6.65-1.7C51.9,33.08,51.78,35.33,51.99,35.66 L51.99,35.66z M13.72,42.48c-0.19-0.22-4.77-10.07-4.8-10.48l23.62,0.01c-0.04,0.23-1.36,1.8-1.72,2.29 c-0.61,0.83-1.07,1.58-1.6,2.48c-1.58,2.69-2.22,5.25-2.48,5.72L13.72,42.48L13.72,42.48z M11.7,58.94l15.24,0.04 c-0.19-1.63-1.11-2.94-1.31-7.48c-0.05-1.01,0.06-2.01,0.02-2.99L6.94,48.48C7.02,48.89,11.24,58.07,11.7,58.94L11.7,58.94z M23.62,75.44l-2.43-5.2c-0.36-0.79-2.23-4.72-2.37-5.29l11.04,0.04c0.41,0.9,1.69,2.41,2.38,3.24c1.6,1.94,3.85,3.84,6.03,5.24 c1.33,0.85,3.1,1.63,3.54,1.93C41.65,75.47,25.05,75.54,23.62,75.44L23.62,75.44z M44.49,20.18l17.09,0.02l0.04-4.64L44.5,15.51 L44.49,20.18L44.49,20.18z M63.79,41.2c-0.13,0.27,0.03,0.01-0.17,0.26l-5.88,5.88c-0.55,0.54-1.01,1.01-1.56,1.55 c-1.53,1.53-0.62,0.64-0.98,2.02c-0.41,1.58-2.45,2.33-3.74,1.01c-1.2-1.22-0.54-3.44,1.11-3.74c0.73-0.13,0.81,0.18,1.27-0.27 l6.79-6.81c0.39-0.39,1.14-1.23,1.58-1.52L63.79,41.2L63.79,41.2z M20.66,52.4c1.85-0.43,2.34,2.26,0.71,2.65 C19.47,55.51,18.89,52.81,20.66,52.4L20.66,52.4z M23.66,35.94c-1.79,0.6-0.96,3.1,0.82,2.61C26.13,38.1,25.46,35.34,23.66,35.94 L23.66,35.94z M28.54,69.02c1.71-0.93,2.72,1.66,1.24,2.43c-1.05,0.54-2.4-0.46-1.94-1.73C28.02,69.19,28.2,69.2,28.54,69.02z"></path> </g> </svg>