<svg xmlns="http://www.w3.org/2000/svg" xmlns:xlink="http://www.w3.org/1999/xlink" id="Layer_1" x="0px" y="0px" viewBox="0 0 91 91" style="enable-background:new 0 0 91 91;" xml:space="preserve"> <style type="text/css"> .st0{fill-rule:evenodd;clip-rule:evenodd;fill:#FFFFFF;} .st1{fill-rule:evenodd;clip-rule:evenodd;fill:#0B2852;} </style> <g> <circle class="st0" cx="45.5" cy="45.5" r="45.5"></circle> <path class="st1" d="M31.06,38.23l-9,0.02c-0.1,4.03,2.1,8.75,4.16,11.34c1.78,2.23,3.83,3.68,6.06,5.55l2.18,1.76l0.02,3.94 l7.88,0.02l0.01-9.02c-5.16-0.55-5.38-5.62-3.21-7.76c0.84-0.83,1.75-1.18,3.19-1.33l0.01-4.47l-6.77-0.02 c-0.08-1.06,0.17-2.27-0.21-3.18c-0.71-1.71-3.33-1.85-4.12,0C30.88,35.98,31.13,37.19,31.06,38.23L31.06,38.23z M35.87,69.92H48.6 c0.9,0,1.67-0.17,1.68-1.13c0.01-1.37-1.61-1.12-3.09-1.13l-9.9,0c-1.07,0-2.23-0.19-2.66,0.54 C34.08,69.15,34.84,69.92,35.87,69.92L35.87,69.92z M47.89,72.24l-11.02-0.04c0.23,3.08,5.2,6.47,9.15,3.16 C46.63,74.84,47.79,73.45,47.89,72.24L47.89,72.24z M34.37,65.39h15.56c1.05,0,2.11,0.18,2.5-0.61c0.56-1.11-0.39-1.65-1.66-1.65 l-17.16,0c-0.88,0-1.62,0.49-1.36,1.45C32.49,65.45,33.42,65.39,34.37,65.39L34.37,65.39z M22.11,35.94 c0.01-4.53,3.09-10.16,6.28-12.92c1.79-1.55,3.53-2.75,5.9-3.71c2.1-0.85,5.41-1.63,8.09-1.4l-0.02,5.6 c-1.45,0.17-2.34,0.51-3.18,1.35c-2.31,2.32-1.84,7.17,3.2,7.76l-0.02,3.36l-4.47-0.02c-0.21-1.47-0.48-2.3-1.34-3.18 c-1.67-1.73-4.74-1.75-6.43,0c-0.87,0.9-1.13,1.7-1.34,3.2L22.11,35.94L22.11,35.94z M50.84,17.12l-0.01,2.82 c-2.1,0.15-3.6-0.37-4.34,1.44c-0.52,1.26,0.18,3.1,2.37,3.1l1.97,0.01c0.09,1.52-0.04,3.96,0.02,5.63l4.48,0.01 c0.17-1.48,0.56-2.41,1.35-3.19c1.81-1.78,4.64-1.75,6.42,0c0.82,0.81,1.18,1.78,1.34,3.19l2.8,0.02c1.98,0,1.68-0.79,1.69-3.29 l0-9.71c0-2.97,0.29-2.84-3.86-2.82H53.2C50.58,14.29,50.84,14.59,50.84,17.12L50.84,17.12z M51.42,38.23 c0.08-1.08-0.58-4.49,2.27-4.51c0.96-0.01,1.78,0.66,2.06,1.34c0.37,0.88,0.14,2.14,0.22,3.18l6.71,0.01 c0.14,1.86-0.75,5.06-1.35,6.49c-2.13,5.13-4.78,7.1-8.89,10.43c-0.64,0.52-1.5,1.31-2.14,1.72l-0.03,3.96l-5.62-0.01l-0.02-11.28 c-0.97-0.05-2.36,0.13-3.17-0.21c-1.6-0.69-1.97-3.19-0.01-4.11c0.85-0.4,2.14-0.13,3.19-0.22l0.02-6.77L51.42,38.23z"></path> </g> </svg>