<svg xmlns="http://www.w3.org/2000/svg" xmlns:xlink="http://www.w3.org/1999/xlink" xml:space="preserve" width="91px" height="91px" style="shape-rendering:geometricPrecision; text-rendering:geometricPrecision; image-rendering:optimizeQuality; fill-rule:evenodd; clip-rule:evenodd" viewBox="0 0 30.92 30.92"> <defs> <style type="text/css"> .fil1 {fill:#083264} .fil0 {fill:white} </style> </defs> <g id="Layer_x0020_1"> <metadata id="CorelCorpID_0Corel-Layer"></metadata> <g id="_1718034743504"> <circle class="fil0" cx="15.46" cy="15.46" r="15.46"></circle> <path class="fil1" d="M10.4 22.41c-0.05,-0.12 0.02,-0.23 0.1,-0.25 0.1,-0.02 0.21,0.03 0.24,0.11 0.09,0.26 -0.26,0.33 -0.34,0.14zm3.53 -7.01c0.03,-0.03 0.02,0.01 0.04,-0.06 0.02,-0.04 0.02,-0.05 0.02,-0.1 0.03,-0.06 0.14,-0.55 0.17,-0.67 0.04,-0.15 0.11,-0.59 0.18,-0.67 0,-0.12 0.51,-2.27 0.57,-2.37l0.47 1.3 0.33 -0.56c0.17,-0.27 0.17,-0.08 -0.16,-1.01 -0.11,-0.29 -0.2,-0.58 -0.31,-0.87 -0.05,-0.14 -0.08,-0.29 -0.19,-0.38 -0.12,-0.1 -0.32,-0.09 -0.44,0.02 -0.11,0.1 -0.12,0.25 -0.16,0.43 -0.11,0.41 -0.75,3.15 -0.8,3.25 -0.28,-1.12 -0.55,-2.46 -0.8,-3.62 -0.07,-0.34 -0.12,-1.03 -0.56,-0.89 -0.24,0.07 -0.25,0.25 -0.29,0.51l-0.33 2c-0.07,0.47 -0.36,2.37 -0.43,2.66 -0.08,-0.16 -0.8,-3.04 -0.79,-3.1 -0.02,-0.03 -0.01,0 -0.03,-0.05l-0.09 -0.31c-0.04,-0.16 -0.05,-0.21 -0.12,-0.34 -0.1,-0.02 -0.39,-0.3 -0.61,0.21l-0.63 1.44c-0.07,0.15 -0.23,0.58 -0.31,0.69 -0.35,0.02 -0.71,-0.01 -1.06,0 -0.34,0.01 -0.48,0.35 -0.26,0.59 0.13,0.12 0.24,0.1 0.45,0.1 0.18,0 0.36,0 0.55,0 0.36,0 0.73,0.08 0.87,-0.21 0.12,-0.26 0.57,-1.36 0.66,-1.49 0.05,0.09 0.84,3.2 0.94,3.59 0.12,0.44 0.15,1.01 0.59,0.91 0.22,-0.04 0.25,-0.22 0.29,-0.47 0.11,-0.7 0.69,-4.45 0.74,-4.52 0.07,0.17 0.78,3.48 0.77,3.56 0.13,0.17 0.03,0.42 0.24,0.57 0.19,0.14 0.48,0.05 0.49,-0.14zm-3.97 -3.9c-0.26,0.1 -0.36,-0.26 -0.16,-0.34 0.23,-0.09 0.39,0.21 0.16,0.34zm13.02 10.18c-0.01,-0.03 -0.07,-0.2 0.04,-0.27 0.07,-0.04 -0.08,0.01 0.05,-0.01 0,0 0.02,0.01 0.02,0 0,0 0.01,0.01 0.02,0.01 0.04,0.1 -0.08,0.1 -0.05,0.18 0.04,0.1 0.14,0.01 0.2,0l0.04 0c0,0.03 0.02,-0.04 0,0.06 0,0 0.01,0.04 -0.08,0.08 -0.08,0.04 -0.13,0.01 -0.2,-0.01 0.12,0.23 -0.15,0.39 -0.27,0.24 -0.08,-0.09 -0.11,-0.38 0.23,-0.28zm-1.19 -2.97c0.23,-0.11 0.35,0.25 0.14,0.34 -0.22,0.09 -0.35,-0.25 -0.14,-0.34zm-5.28 -2.48c0.02,-0.37 0.53,-0.19 0.35,0.1 -0.06,0.08 -0.27,0.12 -0.35,-0.1zm6.12 -2.46c0.13,0.12 0.25,0.66 0.28,0.82 0.23,1.77 -0.85,3.06 -2.15,3.46 -0.99,0.3 -2.02,0.08 -2.78,-0.48 -0.33,-0.25 -0.91,-0.87 -0.94,-1.19 -0.12,-0.1 -0.23,-0.61 -0.26,-0.79 -0.2,-0.74 0.15,-1.74 0.49,-2.24 1.14,-1.69 3.53,-1.79 4.8,-0.42 0.15,0.17 0.56,0.64 0.56,0.84zm-5.21 -2.4c0.26,-0.05 0.35,0.32 0.11,0.37 -0.27,0.05 -0.3,-0.33 -0.11,-0.37zm4.32 0.06c-0.29,0.14 -0.38,-0.24 -0.19,-0.32 0.23,-0.11 0.38,0.21 0.19,0.32zm-6.24 2.31c-0.02,0.1 -0.05,0.19 -0.07,0.29 -0.02,0.07 -0.03,0.19 -0.07,0.25 0.02,0.14 -0.1,0.69 -0.03,1.35 0.05,0.39 0.15,0.78 0.29,1.12 0.23,0.57 0.68,1.3 1.14,1.67 0.13,0.11 0.23,0.21 0.39,0.32 0.77,0.56 1.66,0.88 2.65,0.88 0.23,0.01 0.46,-0.01 0.68,-0.04 0.17,-0.03 0.43,-0.1 0.58,-0.11l0.64 1.17c0.05,0.05 0.25,0.45 0.31,0.54 0.05,0.1 0.28,0.48 0.28,0.55 0.08,0.08 0.57,0.98 0.6,1.09 0.1,0.05 0.39,0.84 0.65,1.02 0.03,0.01 0.11,0.05 0.13,0.07l0.28 0.05c0.3,0 0.56,-0.1 0.77,-0.23 0.23,-0.16 0.33,-0.27 0.48,-0.52 0.15,-0.52 -0.08,-0.68 -0.41,-1.3 -0.15,-0.27 -1.87,-3.37 -1.9,-3.47 0.24,-0.22 0.3,-0.29 0.5,-0.52 0.12,-0.14 0.39,-0.58 0.41,-0.6 0.05,-0.12 0.12,-0.25 0.18,-0.37 0.3,-0.68 0.23,-0.79 0.35,-1.14 0.07,-0.63 0.08,-1.1 -0.06,-1.72 -0.09,-0.43 -0.31,-1 -0.52,-1.32 -0.22,-0.38 -0.4,-0.59 -0.69,-0.88 -0.14,-0.14 -0.24,-0.25 -0.41,-0.37l-0.34 -0.25c-0.03,-0.02 -0.03,-0.01 -0.06,-0.03l-0.03 -0.03c0,-0.01 -0.01,-0.01 -0.01,-0.01 -0.14,-0.05 -0.3,-0.16 -0.45,-0.23 -2.19,-1.02 -4.71,-0.15 -5.87,1.87 -0.07,0.13 -0.15,0.3 -0.22,0.45 -0.03,0.08 -0.14,0.41 -0.17,0.45zm-0.41 7.89c-0.03,-0.27 0.34,-0.27 0.36,-0.05 0.03,0.27 -0.34,0.27 -0.36,0.05zm-5.16 -2.79c0.07,-0.04 0.11,-0.16 0.27,-0.07 0.1,0.06 0.09,0.16 0.08,0.29 -0.07,0.03 -0.11,0.07 -0.2,0.06 -0.11,-0.02 -0.09,-0.06 -0.16,-0.1l0.01 -0.18zm4.26 -0.37c0.24,-0.08 0.36,0.3 0.13,0.36 -0.27,0.07 -0.34,-0.29 -0.13,-0.36zm-7.64 -0.19c0.22,-0.16 0.4,0.19 0.21,0.3 -0.21,0.13 -0.42,-0.15 -0.21,-0.3zm-0.19 -3.13c-0.09,0.04 -0.21,0.12 -0.31,-0.01 -0.11,-0.14 -0.02,-0.21 0.04,-0.3 0.25,-0.03 0.31,0.1 0.27,0.31zm0 -4.5c0.25,-0.11 0.35,0.3 0.13,0.35 -0.24,0.06 -0.35,-0.26 -0.13,-0.35zm14.72 -2.61c-0.04,-0.07 -0.12,-0.1 -0.07,-0.24 0.02,-0.09 0.1,-0.14 0.23,-0.11 0.16,0.05 0.22,0.41 -0.16,0.35zm-7.37 -0.24c-0.34,0.1 -0.4,-0.2 -0.26,-0.31 0.08,-0.07 0.2,-0.03 0.25,0.03 0.09,0.09 0.05,0.18 0.01,0.28zm3.92 -0.59c0.25,-0.15 0.36,0.21 0.21,0.31 -0.07,0.04 -0.17,0.05 -0.24,-0.03 -0.06,-0.05 -0.08,-0.11 -0.06,-0.19 0.03,-0.09 0.04,-0.07 0.09,-0.09zm-10.98 -0.02c-0.2,0.14 -0.24,0.14 -0.42,0.32 -0.07,0.07 -0.11,0.11 -0.17,0.19 -0.05,0.06 -0.1,0.17 -0.16,0.21 -0.01,0.11 -0.1,0.25 -0.13,0.38 -0.13,0.38 -0.07,2 -0.07,2.51l0 7.07c-0.01,0.21 0.05,0.48 0.04,0.63 0.06,0.07 0.09,0.22 0.13,0.31 0.05,0.11 0.1,0.18 0.16,0.27 0.17,0.24 0.24,0.26 0.43,0.43 0.57,0.3 0.61,0.32 1.33,0.32l4.97 0 0 1.03c-0.64,-0.01 -1.3,-0.08 -1.8,0.23 -0.85,0.55 -1.06,1.81 -0.29,1.85 0.32,0.01 0.7,0 1.03,0 2.04,0 4.12,-0.02 6.16,0 0.23,0 0.58,0.01 0.67,-0.36 0.06,-0.25 -0.06,-0.66 -0.16,-0.85 -0.26,-0.51 -0.65,-0.73 -1.18,-0.86 -0.38,-0.03 -0.82,-0.01 -1.21,-0.01l0 -1.03 2.27 0c-0.14,-0.03 -0.71,-0.3 -0.85,-0.38 -0.41,-0.24 -0.58,-0.39 -0.91,-0.65l-0.32 -0.32c-0.12,-0.11 -0.58,-0.72 -0.64,-0.89l-7.77 0c-0.26,0 -0.46,0.02 -0.65,-0.12 -0.14,-0.11 -0.25,-0.26 -0.27,-0.51 -0.02,-0.49 0,-1.06 0,-1.56 0,-0.5 0,-1.01 0,-1.51l0 -4.74c0,-0.35 -0.05,-0.93 0.57,-1.01 0.13,-0.03 12.86,-0.02 13.72,-0.01 0.37,0 0.57,0.1 0.7,0.35 0.13,0.24 0.07,1.64 0.07,2.02 0.03,0.09 0.47,0.22 0.61,0.38 0.11,0.01 0.42,0.29 0.54,0.36 -0.01,-0.62 0.03,-2.12 -0.01,-2.6 -0.06,-0.76 -0.55,-1.28 -1.09,-1.52 -0.51,-0.22 -1.83,-0.14 -2.47,-0.14l-11.74 0c-0.52,0 -0.67,0.02 -1.09,0.21z"></path> </g> </g> </svg>