<svg xmlns="http://www.w3.org/2000/svg" xmlns:xlink="http://www.w3.org/1999/xlink" xml:space="preserve" width="91px" height="91px" style="shape-rendering:geometricPrecision; text-rendering:geometricPrecision; image-rendering:optimizeQuality; fill-rule:evenodd; clip-rule:evenodd" viewBox="0 0 21.36 21.36"> <defs> <style type="text/css"> .fil1 {fill:#083264} .fil0 {fill:white} </style> </defs> <g id="Layer_x0020_1"> <metadata id="CorelCorpID_0Corel-Layer"></metadata> <g id="_1754028688800"> <circle class="fil0" cx="10.68" cy="10.68" r="10.68"></circle> <path class="fil1" d="M5.88 13.41l0 -5.46c0,-0.08 0.06,-0.08 0.12,-0.11l1.06 -0.62c0.41,-0.24 0.81,-0.45 1.21,-0.69l2.11 -1.22c0.09,-0.05 0.22,-0.14 0.32,-0.16 0.27,0.18 1.13,0.64 1.48,0.85 0.11,0.07 0.2,0.12 0.31,0.18l2.4 1.39c0.07,0.04 0.59,0.29 0.59,0.38l0 5.46c0,0.07 -0.07,0.09 -0.12,0.11 -0.06,0.03 -0.08,0.05 -0.14,0.09l-0.6 0.34c-0.83,0.45 -1.88,1.09 -2.72,1.57 -0.2,0.12 -0.4,0.23 -0.6,0.35 -0.08,0.04 -0.57,0.34 -0.62,0.34 -0.06,0 -1.06,-0.6 -1.2,-0.68 -0.11,-0.06 -0.2,-0.11 -0.3,-0.17 -0.1,-0.06 -0.19,-0.12 -0.3,-0.18l-0.61 -0.35c-0.2,-0.11 -0.4,-0.23 -0.6,-0.34 -0.21,-0.11 -0.4,-0.24 -0.61,-0.35l-0.9 -0.53c-0.06,-0.03 -0.28,-0.12 -0.28,-0.2zm3.72 -4.87l0.27 0 0 -0.27 -0.27 0 0 0.27zm-0.53 0l0.28 0 0 -0.27 -0.28 0 0 0.27zm-0.53 0l0.28 0 0 -0.27 -0.28 0 0 0.27zm1.2 1.98l0.19 0.2 0.57 -0.57 -0.18 -0.19 -0.58 0.56zm-1.2 -0.15l0.75 0.75 0.2 -0.18 -0.56 -0.58 0.56 -0.55 -0.18 -0.19 -0.77 0.75zm2.27 -0.57l0.55 0.56 -0.56 0.58 0.17 0.18c0.11,-0.03 0.74,-0.7 0.79,-0.76l-0.76 -0.74 -0.19 0.18zm1.22 2.51c0,-0.42 0.51,-0.31 0.51,-0.05 0,0.38 -0.51,0.34 -0.51,0.05zm-0.3 -0.03c0,0.14 0.09,0.3 0.16,0.38 0.02,0.02 0.12,0.09 0.14,0.11 0.27,0.14 0.78,0.03 0.78,-0.53 0,-0.29 -0.27,-0.5 -0.55,-0.5 -0.26,0 -0.53,0.27 -0.53,0.54zm-0.5 -0.41c0.03,-0.11 0.06,-0.13 0.11,-0.21 0.26,0 0.54,0.15 0.71,-0.3 0.06,-0.16 0,-0.13 0.35,-0.13 0.19,0 -0.04,0.46 0.64,0.46 0.08,0 0.09,-0.02 0.16,-0.03 0.05,0.07 0.09,0.14 0.14,0.21 -0.04,0.07 -0.09,0.12 -0.14,0.18 -0.25,0.28 0.09,0.57 0.14,0.65 -0.04,0.07 -0.1,0.13 -0.11,0.2 -0.22,-0.05 -0.46,-0.09 -0.62,0.1 -0.05,0.08 -0.12,0.24 -0.14,0.34l-0.35 0c-0.08,-0.17 -0.06,-0.29 -0.23,-0.4 -0.15,-0.11 -0.36,-0.08 -0.55,-0.04 -0.03,-0.07 -0.07,-0.13 -0.11,-0.2 0.18,-0.28 0.23,-0.17 0.23,-0.48 0,-0.16 -0.16,-0.25 -0.23,-0.35zm0.02 -0.5c-0.1,0.14 -0.16,0.16 -0.27,0.44 -0.09,0.22 0.23,0.24 0.23,0.47 0,0.15 -0.26,0.32 -0.26,0.37 0,0.09 0.08,0.24 0.12,0.3 0.22,0.38 0.2,0.18 0.59,0.18 0.23,0 0.13,0.41 0.33,0.46 0.13,0.03 0.46,0.03 0.6,0.01 0.11,-0.03 0.08,-0.02 0.11,-0.14 0.11,-0.36 0.1,-0.36 0.47,-0.29 0.17,0.03 0.23,-0.05 0.35,-0.27 0.02,-0.05 0.02,-0.07 0.04,-0.12l0.06 -0.11c-0.14,-0.2 -0.35,-0.3 -0.22,-0.49 0.05,-0.08 0.13,-0.15 0.18,-0.23 0.09,-0.14 -0.19,-0.49 -0.23,-0.52 -0.09,-0.07 -0.21,-0.03 -0.35,-0.01 -0.12,0.02 -0.19,0 -0.25,-0.13 -0.03,-0.09 -0.08,-0.23 -0.1,-0.31 -0.09,-0.01 -0.12,-0.02 -0.23,-0.03 -0.12,0 -0.36,-0.01 -0.44,0.02 -0.07,0.02 -0.08,0.04 -0.11,0.14 -0.04,0.12 -0.08,0.29 -0.19,0.32 -0.06,0.01 -0.36,-0.05 -0.43,-0.06zm-3.24 -3.36l4.27 0 0 0.79 -4.27 0 0 -0.79zm-0.27 4.83c0.13,0.03 0.61,0.61 0.76,0.71l0.57 -0.56 0.57 0.59 0.55 -0.57 0.18 0.17 0.2 -0.18 -0.37 -0.38 -0.57 0.56 -0.58 -0.58 -0.55 0.56c-0.05,-0.03 -0.49,-0.44 -0.49,-0.51l0 -3.56 4.27 0 0 1.33 0.28 0 0 -2.68 -4.82 0 0 5.1zm-2.14 -5.1l0 5.9c0.08,0.02 1.18,0.67 1.28,0.72 0.43,0.26 0.83,0.48 1.26,0.73l1.89 1.1c0.76,0.43 0.56,0.44 0.96,0.19l0.64 -0.37c0.66,-0.39 1.4,-0.79 2.05,-1.18l0.8 -0.46c0.11,-0.06 0.2,-0.12 0.31,-0.18l0.64 -0.37c0.07,-0.05 0.24,-0.16 0.32,-0.18l0 -5.92c-0.1,-0.03 -1.74,-0.99 -1.9,-1.09l-1.9 -1.1c-0.16,-0.09 -1.23,-0.72 -1.27,-0.72 -0.06,0 -1.94,1.12 -2.21,1.27l-0.63 0.36c-0.6,0.37 -1.3,0.74 -1.92,1.11 -0.11,0.07 -0.21,0.12 -0.32,0.19z"></path> </g> </g> </svg>