<svg xmlns="http://www.w3.org/2000/svg" xmlns:xlink="http://www.w3.org/1999/xlink" xml:space="preserve" width="91px" height="91px" style="shape-rendering:geometricPrecision; text-rendering:geometricPrecision; image-rendering:optimizeQuality; fill-rule:evenodd; clip-rule:evenodd" viewBox="0 0 4.36 4.36"> <defs> <style type="text/css"> .fil1 {fill:#083264} .fil0 {fill:white} </style> </defs> <g id="Layer_x0020_1"> <metadata id="CorelCorpID_0Corel-Layer"></metadata> <g id="_1718310604864"> <circle class="fil0" cx="2.18" cy="2.18" r="2.18"></circle> <g> <path class="fil1" d="M1.67 1.7l0 0.11 -0.17 0c0,-0.14 0,-0.24 0.1,-0.35 0.04,-0.05 0.14,-0.11 0.24,-0.11l0.05 0c0.1,0 0.2,0.06 0.24,0.12 0.09,0.11 0.09,0.19 0.09,0.34l-0.16 0 0 -0.1c0,-0.16 -0.16,-0.24 -0.27,-0.19 -0.08,0.04 -0.12,0.1 -0.12,0.18zm-0.69 -0.3l0 0.68c0,0.17 0.04,0.34 0.1,0.45 0.07,0.13 0.15,0.25 0.27,0.35 0.08,0.07 0.2,0.13 0.3,0.17 0.04,0.02 0.18,0.06 0.22,0.06 0.08,-0.01 0.2,-0.06 0.22,-0.06 -0.01,-0.03 -0.06,-0.08 -0.08,-0.23 0,-0.03 -0.01,-0.07 -0.01,-0.09l-0.58 0c-0.03,0 -0.06,-0.03 -0.06,-0.06l0 -0.71c0,-0.04 0.03,-0.06 0.07,-0.06l0.86 0c0.09,0 0.07,0.09 0.07,0.17 0.1,-0.06 0.22,-0.1 0.38,-0.1l0 -0.57c0,-0.02 -0.08,-0.05 -0.1,-0.06l-0.78 -0.33c-0.01,0 -0.71,0.31 -0.83,0.36 -0.01,0 -0.05,0.01 -0.05,0.03z"></path> <path class="fil1" d="M2.72 2.7c0.2,0 0.36,0.15 0.37,0.33l-0.73 0c0,-0.01 0.01,-0.05 0.01,-0.07 0.03,-0.09 0.12,-0.19 0.21,-0.23 0.04,-0.01 0.09,-0.03 0.14,-0.03zm-0.18 -0.24c0,-0.09 0.08,-0.18 0.17,-0.18 0.09,0 0.15,0.02 0.19,0.11 0.05,0.12 -0.04,0.26 -0.16,0.26l-0.03 0c-0.09,0 -0.17,-0.1 -0.17,-0.19zm-0.46 0.2c0,0.19 0.02,0.27 0.12,0.42 0.02,0.03 0.05,0.06 0.07,0.08 0.24,0.24 0.62,0.25 0.88,0.03 0.01,0 0.03,-0.03 0.04,-0.04 0.18,-0.19 0.25,-0.46 0.13,-0.71 -0.02,-0.04 -0.03,-0.07 -0.06,-0.11 -0.01,-0.02 -0.02,-0.03 -0.03,-0.04 -0.01,-0.01 -0.01,-0.01 -0.02,-0.02 -0.01,-0.01 -0.01,-0.02 -0.02,-0.03l-0.08 -0.07c-0.25,-0.19 -0.62,-0.16 -0.84,0.06 -0.02,0.03 -0.05,0.05 -0.07,0.08 -0.07,0.1 -0.12,0.22 -0.12,0.35z"></path> <path class="fil1" d="M1.73 2.18c0,0.04 0,0.05 0.02,0.08 0.01,0.02 0.02,0.03 0.04,0.04 0,0.04 -0.01,0.2 0.01,0.23 0.04,0.05 0.13,0.05 0.13,-0.06 0,-0.06 0,-0.11 0,-0.17 0.11,-0.06 0.06,-0.24 -0.07,-0.24 -0.06,0 -0.13,0.06 -0.13,0.12z"></path> </g> </g> </g> </svg>