<svg xmlns="http://www.w3.org/2000/svg" xmlns:xlink="http://www.w3.org/1999/xlink" xml:space="preserve" width="91px" height="91px" style="shape-rendering:geometricPrecision; text-rendering:geometricPrecision; image-rendering:optimizeQuality; fill-rule:evenodd; clip-rule:evenodd" viewBox="0 0 6.42 6.42"> <defs> <style type="text/css"> .fil1 {fill:#083264} .fil0 {fill:white} </style> </defs> <g id="Layer_x0020_1"> <metadata id="CorelCorpID_0Corel-Layer"></metadata> <g id="_1718129265520"> <circle class="fil0" cx="3.21" cy="3.21" r="3.21"></circle> <path class="fil1" d="M3.21 2.52l-0.84 0.28c-0.06,0.02 -0.05,-0.01 -0.1,0.12 -0.13,0.36 -0.12,0.76 0.03,1.12 0,0.02 0.01,0.04 0.02,0.05 0.01,0.02 0.01,0.03 0.02,0.05 0.05,0.1 0.1,0.17 0.16,0.26l0.13 0.16 0.15 0.13c0.07,0.07 0.2,0.16 0.29,0.21 0.03,0.01 0.12,0.06 0.14,0.07 0,0 0,0 0,0 0.03,-0.01 0.07,-0.04 0.1,-0.05 0.04,-0.02 0.13,-0.08 0.17,-0.1 0.06,-0.04 0.19,-0.14 0.24,-0.19 0.04,-0.04 0.08,-0.08 0.12,-0.13l0.05 -0.06c0.07,-0.08 0.14,-0.19 0.19,-0.3 0.14,-0.28 0.2,-0.63 0.14,-0.94 -0.01,-0.11 -0.06,-0.28 -0.11,-0.38 -0.01,-0.01 -0.02,-0.01 -0.05,-0.02l-0.79 -0.26c-0.01,-0.01 -0.04,-0.02 -0.06,-0.02l0 0zm-1.23 -0.71c0,0.12 0.09,0.26 0.18,0.28 0.04,0.01 0.02,0.01 0.03,-0.05 0.01,-0.01 0.01,-0.03 0.01,-0.05 0.03,-0.09 0.09,-0.15 0.19,-0.18 0,-0.13 -0.02,-0.28 -0.19,-0.28 -0.08,0 -0.14,0.01 -0.18,0.08 -0.03,0.05 -0.04,0.12 -0.04,0.2zm2.05 0c0.12,0.03 0.18,0.11 0.2,0.22 0.01,0.06 -0.01,0.08 0.04,0.06 0.04,-0.02 0.06,-0.04 0.09,-0.07 0.08,-0.09 0.08,-0.14 0.08,-0.26 0,-0.06 -0.02,-0.12 -0.05,-0.16 -0.04,-0.06 -0.1,-0.07 -0.17,-0.07 -0.08,0 -0.13,0.03 -0.16,0.08 -0.02,0.05 -0.03,0.12 -0.03,0.2zm-0.32 0.35c0.05,0.03 0.1,0.06 0.15,0.09 0.01,0.01 0.03,0.03 0.04,0.04 0.02,0.01 0.06,0.07 0.07,0.09 0.02,0.03 0.03,0.07 0.04,0.12 0.02,0 0.07,-0.04 0.08,-0.06 0.05,-0.06 0.06,-0.06 0.09,-0.14 0.02,-0.06 0.02,-0.1 0.02,-0.17 0,-0.15 -0.06,-0.29 -0.23,-0.29 -0.1,0 -0.17,0.02 -0.21,0.09 -0.04,0.06 -0.05,0.15 -0.05,0.23zm-1.49 0.02c0,0.12 0.08,0.25 0.16,0.31 0.05,0.03 0.03,0.02 0.04,-0.04 0.03,-0.1 0.11,-0.18 0.2,-0.23l0.07 -0.04c0.02,-0.01 0.02,-0.01 0.02,-0.05 0,-0.16 -0.06,-0.29 -0.22,-0.29 -0.07,0 -0.15,0.01 -0.19,0.06 -0.07,0.06 -0.08,0.18 -0.08,0.28zm2.02 -0.05c0,0.1 -0.01,0.16 -0.05,0.24l0.1 0.03c0.1,0.04 0.21,0.09 0.26,0.19 0.03,0.05 0.04,0.1 0.04,0.16 0,0.09 0,0.18 0,0.26 0.01,0 0.04,-0.02 0.05,-0.03 0.04,-0.04 0.1,-0.12 0.1,-0.18l0 -0.55c0,-0.03 -0.03,-0.07 -0.04,-0.1 -0.05,-0.06 -0.15,-0.11 -0.22,-0.13 -0.02,-0.01 -0.05,-0.01 -0.06,-0.02 -0.02,0.03 -0.04,0.06 -0.07,0.09 -0.03,0.02 -0.07,0.04 -0.11,0.04zm-2.56 0.15l0 0.5c0,0.1 0.1,0.22 0.15,0.23 0,-0.08 0,-0.17 0,-0.26 0,-0.12 0.03,-0.19 0.12,-0.26 0.03,-0.02 0.06,-0.04 0.08,-0.05 0.04,-0.02 0.16,-0.07 0.2,-0.07 0,-0.02 -0.04,-0.08 -0.04,-0.17l0 -0.07c-0.08,0 -0.16,-0.07 -0.19,-0.13 -0.01,0.01 -0.02,0.01 -0.03,0.01 -0.01,0 -0.02,0 -0.03,0.01 -0.08,0.03 -0.18,0.07 -0.23,0.14 -0.02,0.03 -0.03,0.07 -0.03,0.12zm2.33 0.27l0 0.18c0,0.02 0.06,0.03 0.08,0.04 0.05,0.02 0.04,0.01 0.07,0.06 0.08,0.19 0.12,0.38 0.12,0.61 0,0.05 0,0.12 -0.01,0.16 0,0.01 0,0.04 0,0.05 0.06,-0.01 0.14,-0.06 0.18,-0.11 0.03,-0.02 0.05,-0.05 0.07,-0.08 0.01,-0.02 0.03,-0.08 0.03,-0.11l0 -0.64c0,-0.18 -0.23,-0.27 -0.38,-0.31 -0.03,0.05 -0.05,0.07 -0.09,0.1 -0.01,0.01 -0.02,0.02 -0.02,0.02 -0.02,0.01 -0.05,0.02 -0.05,0.03zm-2.14 0.14l0 0.67c0,0.03 0.02,0.08 0.04,0.1 0.03,0.06 0.09,0.11 0.14,0.15 0.02,0.01 0.08,0.04 0.1,0.04 0,-0.03 -0.01,-0.1 -0.01,-0.15 0,-0.2 0.01,-0.32 0.07,-0.5 0.01,-0.04 0.06,-0.18 0.07,-0.21 0.01,-0.01 0.01,-0.01 0.02,-0.01l0.11 -0.04 0 -0.2c-0.04,0 -0.15,-0.1 -0.16,-0.14 -0.01,0 -0.05,0.01 -0.06,0.02 -0.07,0.02 -0.12,0.04 -0.18,0.08l-0.07 0.05c-0.03,0.04 -0.07,0.09 -0.07,0.14zm1.03 -0.84c0,0.13 0.03,0.21 0.09,0.3 0.01,0.01 0.01,0.02 0.02,0.03 0.03,0.03 0.03,0.04 0.07,0.07 0.04,0.03 0.08,0.06 0.14,0.06 0.11,0 0.23,-0.16 0.27,-0.26 0.04,-0.1 0.03,-0.14 0.03,-0.23 0,-0.16 -0.04,-0.29 -0.17,-0.35 -0.03,-0.01 -0.12,-0.03 -0.16,-0.02 -0.02,0 -0.05,0 -0.07,0.01 -0.19,0.04 -0.22,0.21 -0.22,0.39zm-0.45 0.67l0 0.21c0.02,0 0.25,-0.08 0.29,-0.1l0.28 -0.09c0.02,-0.01 0.18,-0.06 0.19,-0.06 0.01,0 0.08,0.02 0.1,0.03l0.19 0.06c0.04,0.02 0.45,0.16 0.47,0.16 0,-0.21 0.03,-0.34 -0.16,-0.47 -0.02,-0.01 -0.05,-0.03 -0.07,-0.04l-0.08 -0.04c-0.02,-0.01 -0.14,-0.05 -0.17,-0.05 -0.04,0.08 -0.16,0.21 -0.28,0.21 -0.11,0 -0.26,-0.16 -0.27,-0.21 -0.06,0 -0.19,0.06 -0.25,0.09 -0.11,0.06 -0.24,0.15 -0.24,0.3z"></path> </g> </g> </svg>