<svg xmlns="http://www.w3.org/2000/svg" xmlns:xlink="http://www.w3.org/1999/xlink" xml:space="preserve" width="91px" height="91px" style="shape-rendering:geometricPrecision; text-rendering:geometricPrecision; image-rendering:optimizeQuality; fill-rule:evenodd; clip-rule:evenodd" viewBox="0 0 4.36 4.36"> <defs> <style type="text/css"> .fil1 {fill:#083264} .fil0 {fill:white} </style> </defs> <g id="Layer_x0020_1"> <metadata id="CorelCorpID_0Corel-Layer"></metadata> <g id="_1718680393632"> <circle class="fil0" cx="2.18" cy="2.18" r="2.18"></circle> <g> <path class="fil1" d="M3.18 2.26c-0.01,-0.02 -0.06,-0.07 -0.07,-0.09 0,0 0,-0.03 0,-0.04l0.02 -0.19c0,-0.03 0.03,-0.23 0.02,-0.24l-0.07 -0.08c-0.03,0.01 -0.04,0.03 -0.06,0.05 -0.01,0.01 -0.14,0.03 -0.17,0.04 -0.03,0 -0.06,0.01 -0.09,0.02 0,0.02 -0.01,0.05 -0.01,0.07 -0.01,0.04 -0.03,0.16 -0.04,0.19 -0.01,0.01 -0.01,0.01 -0.02,0.01l-0.02 0c-0.01,0 -0.02,0 -0.02,-0.01l-0.21 -0.04c-0.02,-0.01 -0.02,0 -0.04,-0.02 -0.02,-0.02 -0.05,-0.05 -0.06,-0.06 -0.02,0.02 -0.08,0.08 -0.11,0.11 0,0.02 0,0.01 0,0.03 0,0.05 0.01,0.12 0.01,0.17 0.01,0.06 0.02,0.19 0.03,0.27 0,0.01 0.02,0.18 0.01,0.2 0,0.01 -0.03,0.04 -0.05,0.05 -0.01,0.02 -0.04,0.05 -0.05,0.06 -0.01,-0.01 -0.03,-0.02 -0.04,-0.04 -0.01,-0.02 -0.03,-0.04 -0.05,-0.06 -0.01,-0.01 -0.01,-0.02 -0.01,-0.03 0,-0.06 0.01,-0.11 0.01,-0.16l0.02 -0.16c0,-0.02 0,-0.03 0,-0.04 0.01,-0.08 0.03,-0.21 0.03,-0.28 0,-0.01 -0.02,-0.03 -0.03,-0.03 -0.01,-0.01 -0.02,-0.02 -0.03,-0.03 -0.01,-0.02 -0.04,-0.05 -0.06,-0.06 0,0.01 -0.04,0.04 -0.06,0.06 -0.02,0.02 -0.01,0.01 -0.04,0.02 -0.02,0 -0.03,0.01 -0.05,0.01 -0.02,0 -0.19,0.05 -0.2,0.04 -0.02,-0.01 -0.01,-0.01 -0.02,-0.03l-0.04 -0.19c0,-0.01 0,-0.03 -0.01,-0.04 0,-0.01 -0.01,-0.01 -0.03,-0.02l-0.19 -0.04c-0.04,-0.01 -0.04,-0.02 -0.06,-0.04 -0.02,-0.01 -0.03,-0.03 -0.05,-0.01 -0.05,0.07 -0.06,0.04 -0.06,0.12l0.02 0.19c0,0.03 0.03,0.21 0.02,0.23 0,0.01 0,0.01 -0.01,0.01 -0.01,0.02 -0.04,0.06 -0.06,0.07 -0.03,-0.02 -0.05,-0.06 -0.08,-0.08 0.01,-0.03 0.01,-0.07 0.02,-0.11 0,-0.08 0.01,-0.15 0.02,-0.23 0,-0.02 0.01,-0.1 0.01,-0.12 0,-0.02 -0.01,-0.02 -0.02,-0.03 -0.01,0 -0.01,-0.01 -0.02,-0.02 -0.01,-0.01 -0.03,-0.03 -0.04,-0.04 -0.02,0.01 -0.02,0.01 -0.03,0.03 -0.02,0.01 -0.02,0.02 -0.04,0.02 -0.08,0.02 -0.16,0.04 -0.23,0.06 -0.02,0 -0.01,0.02 -0.03,0.07 -0.01,0.06 -0.02,0.13 -0.04,0.2l-0.03 0.15c-0.02,0.08 -0.01,0.06 0.02,0.13 0.01,0.01 0.01,0.02 0.01,0.03l0.04 0.07c0,0.01 0,0.02 0.01,0.03 0.02,0.03 0.03,0.07 0.05,0.1l0.03 0.07c0,0.01 0.01,0.02 0.01,0.03 0.06,0 0.1,0 0.15,0l0.44 0.01c0.01,0 0.02,0 0.03,0 0,0.03 -0.02,0.06 -0.01,0.09l0.08 0.16c0,0.01 0.01,0.02 0.01,0.03l0.1 0.2c0.01,0.03 0.06,0.14 0.07,0.16l0.95 0c0,-0.02 0.02,-0.06 0.03,-0.08l0.04 -0.08c0.02,-0.05 0.04,-0.11 0.07,-0.16l0.11 -0.23c0.01,-0.02 0.01,-0.02 0,-0.04 0,-0.02 -0.01,-0.04 -0.01,-0.05 0.04,0 0.08,0 0.11,0 0.02,0 0.02,-0.01 0.04,-0.01l0.32 0c0.05,0 0.1,0 0.15,0 0.01,-0.03 0.12,-0.24 0.14,-0.3 0.03,-0.07 0.04,-0.09 0.04,-0.11l0 -0.02c0,-0.01 -0.01,-0.04 -0.02,-0.1l-0.05 -0.23c0,-0.02 -0.01,-0.04 -0.01,-0.06 0,-0.02 -0.01,-0.05 -0.01,-0.06 -0.02,0 -0.04,-0.01 -0.05,-0.01l-0.13 -0.03c-0.02,-0.01 -0.07,-0.01 -0.08,-0.02 -0.02,-0.02 -0.04,-0.04 -0.06,-0.05 -0.01,0.02 -0.03,0.03 -0.05,0.05 -0.03,0.05 -0.02,0.02 -0.02,0.12 0.01,0.02 0.01,0.03 0.01,0.05l0.02 0.28c0.01,0.07 -0.01,0.07 -0.04,0.11 -0.01,0.01 -0.02,0.02 -0.03,0.03z"></path> <path class="fil1" d="M1.84 1.48c0,0.12 0.02,0.19 0.09,0.26 0.08,0.08 0.14,0.11 0.26,0.11 0.14,0 0.25,-0.09 0.31,-0.21 0.05,-0.11 0.03,-0.24 -0.03,-0.34 -0.01,-0.02 -0.03,-0.04 -0.04,-0.05 -0.14,-0.14 -0.36,-0.14 -0.49,-0.01 0,0.01 -0.01,0.02 -0.02,0.02 -0.05,0.05 -0.08,0.15 -0.08,0.22z"></path> <path class="fil1" d="M0.93 1.35l0 0.01c0,0.11 0.11,0.24 0.22,0.24 0.08,0 0.14,0.01 0.21,-0.08 0.09,-0.09 0.09,-0.26 -0.01,-0.35 -0.04,-0.04 -0.1,-0.06 -0.16,-0.07l-0.03 0c-0.04,0 -0.07,0.01 -0.09,0.03 -0.08,0.04 -0.14,0.12 -0.14,0.22z"></path> <path class="fil1" d="M2.94 1.34c0,0.08 0.02,0.13 0.06,0.18 0.03,0.04 0.09,0.08 0.14,0.08 0.08,0 0.11,0.01 0.17,-0.03 0.17,-0.1 0.16,-0.35 -0.02,-0.44 -0.03,-0.02 -0.05,-0.02 -0.08,-0.03l-0.05 0c-0.08,0.01 -0.17,0.06 -0.2,0.15 -0.01,0.02 -0.02,0.06 -0.02,0.09z"></path> </g> </g> </g> </svg>