<svg xmlns="http://www.w3.org/2000/svg" xmlns:xlink="http://www.w3.org/1999/xlink" xml:space="preserve" width="91px" height="91px" style="shape-rendering:geometricPrecision; text-rendering:geometricPrecision; image-rendering:optimizeQuality; fill-rule:evenodd; clip-rule:evenodd" viewBox="0 0 4.38 4.38"> <defs> <style type="text/css"> .fil1 {fill:#083264} .fil0 {fill:white} </style> </defs> <g id="Layer_x0020_1"> <metadata id="CorelCorpID_0Corel-Layer"></metadata> <g id="_1718571658544"> <circle class="fil0" cx="2.19" cy="2.19" r="2.19"></circle> <path class="fil1" d="M1.89 2.38c0.1,0 0.19,0.01 0.24,-0.08 0.01,-0.02 0.01,-0.04 0.01,-0.06l0.07 -0.01c0.07,0 0.01,0.04 0.08,0.1 0.06,0.06 0.12,0.05 0.21,0.05 0.04,0 0.09,-0.01 0.11,-0.03 0.03,-0.01 0.05,-0.04 0.06,-0.08 0.01,-0.02 0,-0.05 0.01,-0.06 0.01,-0.02 0.08,-0.1 0.11,-0.1l0 0.35c-0.06,0.04 -0.08,0.02 -0.1,0.04 0,0.01 -0.06,0.13 -0.09,0.17 -0.01,0.02 -0.02,0.03 -0.03,0.04 -0.05,0.07 -0.07,0.11 -0.16,0.17 -0.08,0.06 -0.14,0.08 -0.24,0.08 -0.18,0 -0.35,-0.22 -0.43,-0.37 -0.06,-0.11 -0.02,-0.08 -0.1,-0.11 -0.02,0 -0.03,-0.01 -0.05,-0.02l0 -0.36c0.03,0.01 0.1,0.08 0.12,0.11 0.02,0.02 0,-0.01 0.01,0.05 0.01,0.09 0.08,0.12 0.17,0.12zm0.51 -0.22c0.09,0 0.21,-0.02 0.21,0.07 0,0.04 -0.03,0.08 -0.07,0.08l-0.16 0c-0.03,0 -0.04,-0.02 -0.05,-0.03 0.01,-0.02 0,0.01 0.01,-0.02 0.02,-0.02 0,-0.03 -0.02,-0.05 0.01,-0.02 0.01,-0.03 0.03,-0.04 0.01,-0.01 0.03,-0.01 0.05,-0.01zm-0.35 0.09c0,0.02 0,0.01 0.01,0.03 -0.01,0.01 -0.03,0.03 -0.05,0.03l-0.17 0c-0.07,0 -0.09,-0.15 0.03,-0.15 0.1,0 0.17,-0.02 0.2,0.05 -0.01,0.01 -0.02,0.01 -0.02,0.04zm-0.14 -0.65c0.08,0 0.24,0.15 0.49,0.02 0.04,-0.02 0.09,-0.04 0.14,0 0.03,0.03 0.16,0.3 0.2,0.36 0.01,0.02 0.02,0.04 0.03,0.06 -0.08,0.05 -0.08,0.08 -0.13,0.1 -0.02,-0.01 -0.02,-0.02 -0.04,-0.03 -0.05,-0.02 -0.15,-0.02 -0.21,-0.02 -0.06,0 -0.12,0.04 -0.13,0.09 -0.05,-0.02 -0.07,-0.02 -0.13,0 -0.05,-0.11 -0.14,-0.09 -0.26,-0.09 -0.08,0 -0.1,0.04 -0.12,0.05 -0.03,-0.01 -0.03,-0.05 -0.13,-0.1 0.02,-0.04 0.04,-0.08 0.06,-0.12l0.1 -0.18c0.03,-0.06 0.07,-0.14 0.13,-0.14zm-0.4 0.19c0,0.1 0.01,0.16 0.01,0.19 -0.02,0 -0.04,0 -0.06,0.01 0,-0.17 -0.01,-0.23 0.03,-0.38 0.03,-0.11 0.1,-0.23 0.16,-0.3 0.01,-0.01 0.02,-0.02 0.03,-0.02 0.03,-0.03 0.08,-0.08 0.11,-0.1 0.04,-0.02 0.1,-0.05 0.14,-0.07 0.03,-0.01 0.05,-0.01 0.08,-0.02 0.04,-0.01 0.09,-0.02 0.14,-0.02 0.02,0 0.02,-0.01 0.04,-0.01l0.09 0.01c0.04,0 0.06,0.01 0.09,0.02 0.05,0.01 0.1,0.03 0.15,0.05 0.04,0.02 0.09,0.06 0.13,0.08 0.05,0.05 0.06,0.06 0.1,0.11 0.04,0.04 0.08,0.1 0.1,0.15 0.02,0.05 0.03,0.06 0.04,0.11 0.04,0.16 0.03,0.23 0.03,0.39 -0.01,-0.01 -0.03,-0.01 -0.06,-0.01 0.01,-0.1 0.07,-0.16 -0.03,-0.4 -0.04,-0.09 -0.1,-0.15 -0.17,-0.21l-0.08 -0.07c-0.06,-0.05 -0.19,-0.11 -0.28,-0.11 -0.17,0 -0.28,-0.02 -0.43,0.07 -0.09,0.06 -0.17,0.13 -0.24,0.21 -0.02,0.02 -0.04,0.06 -0.06,0.09 -0.01,0.03 -0.03,0.06 -0.04,0.1 -0.01,0.04 -0.02,0.09 -0.02,0.13zm-0.13 0.24c-0.05,0.03 -0.08,0.07 -0.11,0.12 -0.02,0.06 -0.03,0.13 -0.01,0.2 0.02,0.06 0.05,0.1 0.09,0.14 0.06,0.05 0.12,0.07 0.2,0.07 0.03,0 0,-0.02 0.05,0 0.03,0.01 0.03,0 0.05,0.03 0.01,0.03 0.02,0.06 0.04,0.09 0.04,0.06 0.11,0.15 0.16,0.2 0.16,0.17 0.37,0.22 0.57,0.1 0.06,-0.04 0.11,-0.08 0.16,-0.13l0.09 -0.12c0.04,-0.07 0.04,-0.06 0.07,-0.14 0.02,-0.03 0.01,-0.01 0.05,-0.03 0.01,0 0.01,0 0.02,0 0.03,-0.01 0.03,0.01 0.11,-0.01l0 0.21c0,0.05 -0.01,0.13 -0.02,0.18 -0.02,0.06 -0.05,0.1 -0.09,0.15l-0.02 0.02c-0.02,0.01 -0.02,0.02 -0.04,0.03 -0.07,0.05 -0.16,0.08 -0.27,0.08 0,-0.04 -0.06,-0.09 -0.1,-0.09l-0.3 0c-0.09,0 -0.16,0.13 -0.08,0.22 0,0.01 0.02,0.03 0.03,0.03 0.02,0.01 0.03,0.02 0.05,0.02l0.29 0c0.05,0 0.11,-0.05 0.11,-0.09 0.18,0 0.26,-0.05 0.37,-0.15 0.04,-0.03 0.09,-0.1 0.11,-0.15 0.03,-0.06 0.05,-0.14 0.05,-0.21 0,-0.09 0,-0.17 0,-0.26 0,-0.03 0,-0.03 0.01,-0.04 0.02,-0.01 0.03,-0.02 0.04,-0.03 0.11,-0.12 0.1,-0.34 -0.05,-0.44 0,-0.29 0.02,-0.48 -0.18,-0.73 -0.03,-0.04 -0.08,-0.09 -0.11,-0.12 -0.18,-0.14 -0.32,-0.19 -0.56,-0.19 -0.18,0 -0.35,0.08 -0.49,0.19 -0.18,0.14 -0.29,0.38 -0.29,0.62 0,0.07 0,0.15 0,0.23z"></path> </g> </g> </svg>