<svg xmlns="http://www.w3.org/2000/svg" xmlns:xlink="http://www.w3.org/1999/xlink" xml:space="preserve" width="91px" height="91px" style="shape-rendering:geometricPrecision; text-rendering:geometricPrecision; image-rendering:optimizeQuality; fill-rule:evenodd; clip-rule:evenodd" viewBox="0 0 7.39 7.39"> <defs> <style type="text/css"> .fil1 {fill:#083264} .fil0 {fill:white} </style> </defs> <g id="Layer_x0020_1"> <metadata id="CorelCorpID_0Corel-Layer"></metadata> <g id="_1718159092416"> <circle class="fil0" cx="3.7" cy="3.7" r="3.7"></circle> <path class="fil1" d="M2.03 4.58c0.12,-0.03 0.11,-0.09 0.23,-0.09 0.02,0.09 0.48,0.87 0.54,0.98 -0.07,0.05 -0.13,0.09 -0.22,0.11 -0.07,-0.06 -0.39,-0.67 -0.5,-0.85 -0.04,-0.06 -0.05,-0.05 -0.05,-0.15zm0.08 0.1c0.01,0.01 0.01,0.01 0.01,0.01l0.1 0.06c0.02,-0.03 0.1,-0.15 -0.02,-0.15 -0.07,0 -0.06,0.03 -0.09,0.08zm1.9 -1.96c-0.06,-0.09 -0.15,-0.21 -0.23,-0.09 0.02,0.07 0.17,0.21 0.23,0.26 0.1,-0.03 0.2,-0.15 0.27,-0.21 0.08,-0.08 0.21,-0.13 0.23,-0.26 -0.15,-0.12 -0.22,0.11 -0.5,0.3zm0.13 -0.56c0.49,0 0.66,0.68 0.19,0.89 -0.39,0.17 -0.78,-0.23 -0.61,-0.61 0.06,-0.14 0.23,-0.28 0.42,-0.28zm-0.6 0.41l0 0.13c0,0.25 0.29,0.53 0.54,0.53l0.13 0c0.25,0 0.53,-0.27 0.53,-0.53l0 -0.13c0,-0.26 -0.27,-0.54 -0.53,-0.54l-0.13 0c-0.26,0 -0.54,0.28 -0.54,0.54zm0.24 1.3c-0.08,-0.02 -0.04,0 -0.15,-0.17 -0.09,0 -0.1,0.02 -0.21,0.02 0.06,-0.12 0.1,-0.25 0.17,-0.36 0.06,0.04 0.05,0.08 0.11,0.14 0.05,0.06 0.08,0.09 0.19,0.09 -0.03,0.11 -0.08,0.16 -0.11,0.28zm0.66 -0.28c0.2,-0.04 0.17,-0.19 0.3,-0.28 0.02,0.11 0.1,0.22 0.13,0.33 -0.09,-0.01 -0.12,-0.03 -0.24,-0.03 -0.02,0.09 -0.06,0.09 -0.08,0.17 -0.06,-0.03 -0.08,-0.13 -0.11,-0.19zm-1.13 -1.07c0,-0.1 0.11,-0.12 0.17,-0.21 0.06,-0.1 0.06,-0.22 0.1,-0.28 0.07,-0.09 0.21,-0.04 0.31,-0.08 0.09,-0.03 0.16,-0.13 0.24,-0.14 0.07,-0.01 0.16,0.09 0.24,0.12 0.12,0.07 0.23,0.01 0.31,0.08 0.08,0.06 0.05,0.18 0.11,0.27 0.06,0.09 0.19,0.13 0.19,0.24 0,0.09 -0.07,0.15 -0.09,0.24 -0.03,0.08 0,0.16 0,0.28 0,0.1 -0.17,0.11 -0.25,0.17 -0.05,0.04 -0.07,0.07 -0.1,0.12 -0.15,0.22 -0.16,0.07 -0.4,0.07 -0.13,0 -0.08,0.04 -0.28,0.04 -0.11,0 -0.07,-0.17 -0.28,-0.27 -0.28,-0.13 -0.16,-0.07 -0.16,-0.35 0,-0.12 -0.11,-0.23 -0.11,-0.3zm-0.15 0c0,0.12 0.11,0.16 0.11,0.35 0,0.06 -0.08,0.34 0.19,0.4 -0.1,0.42 -0.55,0.73 0.11,0.58 0.04,0.08 0.12,0.23 0.19,0.28 0.09,-0.05 0.1,-0.11 0.17,-0.26 0.03,-0.1 0.12,-0.22 0.13,-0.32 0.24,0 0.21,-0.01 0.28,0.16 0.05,0.12 0.09,0.26 0.17,0.31 0.1,-0.03 0.15,-0.17 0.21,-0.26 0.15,0.02 0.34,0.11 0.34,-0.02 0,-0.09 -0.16,-0.37 -0.19,-0.49 0.13,-0.03 0.18,-0.16 0.16,-0.33 -0.04,-0.21 0.09,-0.22 0.09,-0.4 0,-0.14 -0.1,-0.18 -0.17,-0.27 -0.09,-0.1 -0.05,-0.21 -0.13,-0.32 -0.07,-0.1 -0.2,-0.09 -0.34,-0.11 -0.16,-0.03 -0.27,-0.27 -0.51,-0.09 -0.27,0.2 -0.36,0.04 -0.49,0.19 -0.08,0.09 -0.05,0.22 -0.13,0.32 -0.05,0.05 -0.19,0.15 -0.19,0.28zm0.79 2.82c-0.09,0 -0.71,-0.18 -0.89,-0.22 -0.21,-0.06 -0.11,0.02 -0.29,0.03 -0.01,-0.06 -0.1,-0.2 -0.14,-0.26 -0.03,-0.06 -0.04,-0.09 -0.07,-0.14 -0.04,-0.06 -0.06,-0.07 -0.06,-0.15 0.2,-0.06 0.48,-0.35 0.72,-0.35 0.11,0 0.29,0.09 0.4,0.12 0.14,0.05 0.27,0.09 0.42,0.12 0.02,0.12 0.03,0.04 0,0.19 -0.17,0.02 -0.08,0.03 -0.29,-0.03 -0.35,-0.1 -0.33,-0.11 -0.33,0.05 0.8,0.19 0.59,0.29 1.5,-0.26 0.1,-0.06 0.44,-0.25 0.44,0.01 0,0.12 -0.11,0.15 -0.31,0.27l-0.71 0.44c-0.08,0.05 -0.29,0.18 -0.39,0.18zm-1.54 -0.85c-0.13,-0.25 -0.26,-0.13 -0.38,-0.06 -0.34,0.18 -0.03,0.38 0.32,1.06 0.02,0.05 0.06,0.11 0.08,0.15 0.13,0.21 0.43,-0.03 0.45,-0.06 0.1,-0.1 0.03,-0.2 -0.02,-0.3 0.23,-0.05 0.07,-0.04 0.51,0.07 0.31,0.08 0.58,0.21 0.85,0.05 0.07,-0.05 0.13,-0.08 0.2,-0.12 0.13,-0.09 0.25,-0.17 0.39,-0.25l0.38 -0.24c0.21,-0.13 0.32,-0.13 0.32,-0.39 0,-0.12 -0.15,-0.23 -0.26,-0.23 -0.2,0 -0.41,0.16 -0.55,0.23 -0.09,0.05 -0.16,0.1 -0.24,0.15 -0.08,0.04 -0.19,0.13 -0.28,0.13 0.05,-0.1 0.01,-0.22 -0.05,-0.28 -0.07,-0.07 -0.38,-0.12 -0.58,-0.2 -0.52,-0.2 -0.5,-0.05 -1.14,0.29z"></path> </g> </g> </svg>