<svg xmlns="http://www.w3.org/2000/svg" xmlns:xlink="http://www.w3.org/1999/xlink" xml:space="preserve" width="91px" height="91px" style="shape-rendering:geometricPrecision; text-rendering:geometricPrecision; image-rendering:optimizeQuality; fill-rule:evenodd; clip-rule:evenodd" viewBox="0 0 16.17 16.17"> <defs> <style type="text/css"> .fil0 {fill:white} .fil1 {fill:#083264;fill-rule:nonzero} </style> </defs> <g id="Layer_x0020_1"> <metadata id="CorelCorpID_0Corel-Layer"></metadata> <g id="_1718316345376"> <circle class="fil0" cx="8.08" cy="8.08" r="8.08"></circle> <path id="professional-skills-icon_x0020__x0028_2_x0029_.svg" class="fil1" d="M10.99 4.71c-0.09,-0.09 -0.19,-0.13 -0.31,-0.13 -0.12,0 -0.22,0.04 -0.31,0.13l-0.46 0.47c-0.13,-0.08 -0.26,-0.15 -0.4,-0.22 -0.14,-0.06 -0.28,-0.12 -0.43,-0.16l0 -0.72c0,-0.13 -0.04,-0.23 -0.12,-0.31 -0.09,-0.09 -0.19,-0.13 -0.31,-0.13l-0.9 0c-0.12,0 -0.22,0.04 -0.31,0.13 -0.08,0.08 -0.13,0.18 -0.13,0.31l0 0.66c-0.15,0.03 -0.29,0.07 -0.44,0.13 -0.14,0.05 -0.27,0.12 -0.4,0.19l-0.52 -0.52c-0.08,-0.08 -0.18,-0.13 -0.3,-0.13 -0.12,0 -0.22,0.05 -0.31,0.13l-0.63 0.64c-0.09,0.09 -0.13,0.19 -0.13,0.31 0,0.11 0.04,0.22 0.13,0.3l0.47 0.47c-0.08,0.13 -0.15,0.26 -0.22,0.4 -0.06,0.14 -0.12,0.28 -0.16,0.43l-0.72 0c-0.13,0 -0.23,0.04 -0.31,0.12 -0.09,0.09 -0.13,0.19 -0.13,0.31l0 0.9c0,0.12 0.04,0.22 0.13,0.31 0.08,0.08 0.18,0.13 0.31,0.13l0.66 0c0.03,0.15 0.07,0.29 0.13,0.43 0.05,0.15 0.12,0.28 0.19,0.42l-0.52 0.51c-0.08,0.08 -0.13,0.18 -0.13,0.3 0,0.12 0.05,0.22 0.13,0.31l0.64 0.64c0.09,0.08 0.19,0.12 0.31,0.12 0.11,0 0.22,-0.04 0.3,-0.12l0.47 -0.48c0.13,0.08 0.26,0.15 0.4,0.22 0.14,0.06 0.28,0.12 0.43,0.16l0 0.72c0,0.12 0.04,0.23 0.12,0.31 0.09,0.08 0.19,0.13 0.31,0.13l0.9 0c0.12,0 0.22,-0.05 0.31,-0.13 0.08,-0.08 0.13,-0.19 0.13,-0.31l0 -0.66c0.15,-0.03 0.29,-0.08 0.43,-0.13 0.15,-0.06 0.28,-0.12 0.42,-0.19l0.51 0.51c0.08,0.09 0.18,0.13 0.3,0.13 0.12,0 0.22,-0.04 0.31,-0.13l0.64 -0.63c0.08,-0.09 0.12,-0.19 0.12,-0.31 0,-0.12 -0.04,-0.22 -0.12,-0.31l-0.48 -0.46c0.08,-0.13 0.15,-0.26 0.22,-0.4 0.06,-0.14 0.12,-0.28 0.16,-0.43l0.72 0c0.12,0 0.23,-0.04 0.31,-0.12 0.08,-0.09 0.13,-0.19 0.13,-0.31l0 -0.9c0,-0.12 -0.05,-0.22 -0.13,-0.31 -0.08,-0.08 -0.19,-0.13 -0.31,-0.13l-0.66 0c-0.03,-0.14 -0.08,-0.29 -0.13,-0.43 -0.06,-0.15 -0.12,-0.28 -0.19,-0.41l0.51 -0.52c0.09,-0.08 0.13,-0.18 0.13,-0.3 0,-0.12 -0.04,-0.22 -0.13,-0.31l-0.63 -0.63 0 0zm-0.84 4.48c-0.39,0.73 -1.17,1.24 -2.07,1.24 -0.89,0 -1.67,-0.51 -2.06,-1.24 0.04,-0.2 0.12,-0.38 0.34,-0.5 0.31,-0.18 0.84,-0.16 1.09,-0.39l0.35 0.92 0.18 -0.5 -0.09 -0.1c-0.06,-0.09 -0.04,-0.2 0.08,-0.22 0.04,0 0.09,0 0.13,0 0.05,0 0.1,0 0.14,0 0.11,0.03 0.12,0.14 0.07,0.22l-0.09 0.1 0.18 0.5 0.31 -0.92c0.23,0.21 0.84,0.25 1.1,0.39 0.22,0.12 0.29,0.3 0.34,0.5l0 0zm-2.76 -1.5c-0.03,0 -0.06,-0.01 -0.09,-0.02 -0.03,-0.02 -0.06,-0.06 -0.08,-0.1 -0.03,-0.08 -0.06,-0.31 0.03,-0.37l-0.02 -0.01 0 -0.02c0,-0.05 0,-0.1 0,-0.16 -0.01,-0.21 -0.01,-0.46 -0.18,-0.51l-0.08 -0.02 0.05 -0.06c0.14,-0.17 0.28,-0.32 0.43,-0.43 0.17,-0.12 0.34,-0.21 0.5,-0.23 0.17,-0.03 0.33,0.01 0.48,0.13 0.05,0.03 0.09,0.08 0.14,0.13 0.16,0.01 0.29,0.1 0.38,0.22 0.06,0.07 0.1,0.15 0.13,0.25 0.03,0.09 0.04,0.18 0.03,0.28 -0.01,0.17 -0.07,0.33 -0.2,0.45 0.02,0 0.05,0.01 0.06,0.02 0.08,0.04 0.08,0.12 0.06,0.19 -0.02,0.05 -0.04,0.12 -0.06,0.17 -0.03,0.08 -0.07,0.09 -0.15,0.09 -0.17,0.75 -1.21,0.78 -1.43,0zm0.69 -2.36c1.52,0 2.76,1.23 2.76,2.75 0,1.52 -1.24,2.76 -2.76,2.76 -1.52,0 -2.75,-1.24 -2.75,-2.76 0,-1.52 1.23,-2.75 2.75,-2.75z"></path> </g> </g> </svg>