<svg xmlns="http://www.w3.org/2000/svg" xmlns:xlink="http://www.w3.org/1999/xlink" id="Layer_1" x="0px" y="0px" viewBox="0 0 91 91" style="enable-background:new 0 0 91 91;" xml:space="preserve"> <style type="text/css"> .st0{fill-rule:evenodd;clip-rule:evenodd;fill:#FFFFFF;} .st1{fill-rule:evenodd;clip-rule:evenodd;fill:#0B2852;} </style> <g> <ellipse transform="matrix(0.926 -0.3775 0.3775 0.926 -13.8088 20.5406)" class="st0" cx="45.5" cy="45.5" rx="45.5" ry="45.5"></ellipse> <path class="st1" d="M57.76,57.9c0.13,2.62-0.32,3.11-2.14,4.06c-6.39,3.32-9.05,1.24-16.12,1.08c5.18-0.74,8.56,2.13,15.91-1.41 c1.03-0.5,2.08-1.04,2.22-2.37c0.15-1.47-0.4-2.72-1.38-3.17c-1.46-0.66-6.83-0.11-8.74,0.02c-3.83,0.24-4.43-0.1-7.35-1.64 c-5.89-3.1-9.03-1.04-14.53,1.05c-3.01,1.14-4.7,1.14-8.19,1.11c-0.24,0.71-0.11,10.96-0.09,12.57c7.44-1.17,12.51-4.87,21.28-0.8 c1.52,0.71,2.87,1.34,4.44,2.01c4.59,1.94,4.85,0.4,8.89-2.19c3.62-2.33,8.43-4.86,12.26-7.07c2.74-1.59,5.66-3.1,8.01-4.88 c2.83-2.14,1.95-4.98-5.5-2.28c-2.31,0.84-4.65,1.78-6.82,2.85C59.25,57.14,58.36,57.69,57.76,57.9L57.76,57.9z M46.85,26.63 c-6.29,1.29-4.23,10.52,1.81,9.29C54.85,34.65,52.87,25.39,46.85,26.63L46.85,26.63z M58.15,49.41c1.13-0.7,2.65-2.66,3.46-4.01 c3.22-5.37,2.89-12.14-0.4-17.06c-6.69-10-17.56-6.6-17.92-6.65c-0.48-0.06-0.79-0.58-0.49-1.04c0.21-0.33,0.77-0.4,1.25-0.5 c15.01-3.27,26.88,13.06,18.32,26.63c-0.7,1.11-2.55,3.25-3.5,3.84l0.67,1.32l-4.42,0.34c0.2-0.58,1.32-2.2,1.77-2.92l0.44-0.69 c0.15-0.17,0.05-0.07,0.2-0.19L58.15,49.41L58.15,49.41z M38.14,22.6l-0.54-1.28l4.43,0.08c-0.08,0.39-1.01,1.46-1.32,1.86 c-0.38,0.49-0.98,1.36-1.45,1.69l-0.44-1.02c-0.75,0.28-1.83,1.4-2.42,1.96c-0.79,0.75-1.32,1.41-1.92,2.3 c-1.11,1.64-2.05,3.77-2.48,6.07c-0.97,5.25,0.84,10.06,3.36,13.1c2.22,2.68,5.95,5.42,11.12,5.83c4.07,0.33,6.97-1.31,7.44-0.59 c1.05,1.6-5.04,2.02-6.2,2.02c-8.3,0-14.51-5.69-16.55-12.13c-1.22-3.84-1.01-8.59,0.55-12.09c1.29-2.89,3.06-5.25,5.46-7.07 C37.46,23.13,37.91,22.87,38.14,22.6L38.14,22.6z M37.39,45.47c0-1.1,0.42-3.19,0.73-4.24c0.88-3.06,1.84-4.06,5.19-4.73 c3.2-0.63,2.95-0.02,4.43-0.02c0.96,0,1.34-0.31,2.36-0.23c1.94,0.14,4.3,0.58,5.68,1.74c1.32,1.11,2.45,5.19,2.44,7.59 c-1.09,0.35-2.69,1.78-3.84,2.17l-0.49-2.87c-0.42,0.73-0.17,2.03-0.4,2.94l-11.02-0.03l-0.29-3.14l-0.82,3.07L37.39,45.47z"></path> </g> </svg>