<svg xmlns="http://www.w3.org/2000/svg" xmlns:xlink="http://www.w3.org/1999/xlink" id="Layer_1" x="0px" y="0px" viewBox="0 0 91 91" style="enable-background:new 0 0 91 91;" xml:space="preserve"> <style type="text/css"> .st0{fill-rule:evenodd;clip-rule:evenodd;fill:#FFFFFF;} .st1{fill-rule:evenodd;clip-rule:evenodd;fill:#0B2852;} </style> <g> <circle class="st0" cx="45.5" cy="45.5" r="45.5"></circle> <path class="st1" d="M32.76,25.8L28,22.55c-8.56,5.48-4.22,7.11-2.31,10.24l-2.31,5.21c-4.99,0.11-5.75-0.37-5.71,4.61 c0.03,4.99,0.93,4.31,5.83,4.53c0.79,1.77,1.9,4.04,2.25,6.03c-2,1.55-1.95,0.93-3.09,3.63c0.77,2.03,3.71,5.02,5.73,5.5 c1.19-0.6,3.06-2.36,3.97-3.07l5.33,2.2c0.31,2.04,0.28,4,1.13,5.6c9.59,0.95,7.55,0.45,8.33-5.66l4.26-1.63 c-3.03-5.63-5.04-3.25-8.31-3.07C31.16,57.32,24.7,43.93,30.72,34.55c6.78-10.57,29.33-8.27,24.9,13.76 c1.65,1.41,1.98,2.46,3.88,3.12l1.87-4.21l5.5-0.51c1.4-7.4,1.13-8.25-5.43-8.78c-3.81-8.23-1.71-4.23,0.77-9.51 c0.01-0.1-3.53-10.25-9.05-2.59l-5.87-2.07l-0.83-5.54c-3.98-0.93-7.86-1.38-8.42,2.01C37.2,25.39,38.14,23.4,32.76,25.8 L32.76,25.8z M40.9,35.52c5-2.34,8.13,2.6,8.67,6.6c0.58,4.35,2.13,4.4,7.06,9.37c1.49,1.5,2.61,2.57,4.1,4.09 c1.59,1.63,1.87,2.72,4.85,3.18c4.92,0.76,8.84,2.87,7.48,8.83c-2.13-1.01-2.38-3.11-4.76-2.96c-1.9,0.12-3.49,2.19-3.88,4.19 c1.28,2.25,2.35,1.96,3.11,4.26c-2.24,0.77-4.22,0.35-6.12-1.24c-1.8-1.51-2.32-2.54-2.73-5.62c-0.63-4.63-4.25-6.83-6.81-9.4 c-2.29-2.29-5.29-6.5-9.3-7.05c-4.91-0.68-8.26-3.16-7.47-8.69c3.07,0.15,2.71,2.87,4.77,2.94c2.27-0.72,3.41-1.8,4.03-4.13 C42.95,36.89,42.18,37.89,40.9,35.52z"></path> </g> </svg>