<svg xmlns="http://www.w3.org/2000/svg" xmlns:xlink="http://www.w3.org/1999/xlink" id="Layer_1" x="0px" y="0px" viewBox="0 0 91 91" style="enable-background:new 0 0 91 91;" xml:space="preserve"> <style type="text/css"> .st0{fill-rule:evenodd;clip-rule:evenodd;fill:#FFFFFF;} .st1{fill-rule:evenodd;clip-rule:evenodd;fill:#0B2852;} </style> <g> <circle class="st0" cx="45.5" cy="45.5" r="45.5"></circle> <path class="st1" d="M42.66,20.18l0,4.29c-3.03,0.77-4.81,0.95-7.45,2.05c-16.56,6.87-21.36,29.73-7.41,42.73 c16.26,15.15,43.64,4.17,43.55-19.2c-0.03-7.2-2.98-13.23-6.91-17.43c-1.79-1.91-4.07-3.77-6.78-5.2c-3.95-2.09-5.54-2-9.31-2.93 l-0.02-4.3c1.28-0.32,2.13,0,3.11-0.62c0.75-0.47,1.42-1.48,1.06-2.89c-0.63-2.49-4.85-1.79-8.5-1.79c-2.56,0-5.18-0.32-5.56,2.01 C37.9,20.19,40.72,19.68,42.66,20.18L42.66,20.18z M43.11,28.91c6.01-1.17,12.84,1.85,16.36,4.92 c14.82,12.95,6.15,36.47-11.46,37.93C23.58,73.78,15.16,42.5,34.9,31.48C38.54,29.44,39.66,29.58,43.11,28.91L43.11,28.91z M28.99,48.34c-0.31-6.41,6.94-14.71,16.26-14.8C55,33.45,62.3,41.86,62.01,48.34c-1.92,0.06-4.61-0.49-4.61,1.96 c0,2.42,2.66,1.92,4.63,1.98c0.08,6.87-7.74,14.56-14.62,14.59c0-2.07,0.51-4.67-1.91-4.68c-2.4-0.01-1.92,2.66-1.92,4.67 c-6.98,0.06-14.72-7.92-14.62-14.59c2-0.06,4.63,0.44,4.63-1.98C33.59,47.89,30.93,48.4,28.99,48.34L28.99,48.34z M17.69,27.92 c2.27-1.19,3.66,1.66,2.13,3.7c-7.91,10.54-7.96,25.08-0.92,36.06c0.48,0.75,1.42,1.85,1.56,2.4c0.66,2.46-2.24,4.05-3.93,1.69 c-0.52-0.72-1.03-1.43-1.62-2.38c-3.32-5.37-5.27-11.43-5.42-18.1c-0.11-5.1,0.7-9.47,2.23-13.56 C12.72,35.08,15.43,29.11,17.69,27.92L17.69,27.92z M71.82,27.92c1.99-0.97,3.4,1.89,4.17,3.13c0.87,1.39,1.98,3.55,2.64,5.06 c3.62,8.23,3.79,18.15,0.7,26.57c-0.77,2.09-4.11,9.17-5.78,9.97c-2.31,1.11-4.12-1.23-2.29-3.8c1.14-1.61,2.08-3.22,2.88-4.86 c1.77-3.66,2.9-8.04,3.1-12.68C77.95,34.97,66.7,30.42,71.82,27.92L71.82,27.92z M39.06,40.35c2.06-2.14,4.92,5.53,7.25,6.87 c0.81,0.47,1.13,0.34,1.78,1.24c2.16,3-1.79,6.63-4.6,4.34c-1.74-1.42-0.65-2.39-1.43-4.29C40.83,45.49,37.81,41.64,39.06,40.35 L39.06,40.35z M63.89,20.26c1.32-0.46,2.96,0.75,3.64,1.53c1.57,1.81-0.49,4.85-3.06,3.05C61.45,22.73,62.09,20.89,63.89,20.26z"></path> </g> </svg>