<svg xmlns="http://www.w3.org/2000/svg" xmlns:xlink="http://www.w3.org/1999/xlink" id="Layer_1" x="0px" y="0px" viewBox="0 0 91 91" style="enable-background:new 0 0 91 91;" xml:space="preserve"> <style type="text/css"> .st0{fill-rule:evenodd;clip-rule:evenodd;fill:#FFFFFF;} .st1{fill-rule:evenodd;clip-rule:evenodd;fill:#0B2852;} </style> <g> <circle class="st0" cx="45.5" cy="45.5" r="45.5"></circle> <path class="st1" d="M35.22,51.89v6.69c0,2.35,1.51,3.36,3.76,3.36l13.37,0c2.23,0,3.54-1.27,3.54-3.51c0-3.56,0.4-8.1-0.87-11.02 c-0.59-1.35-1.36-2.3-2.21-3.12c-0.42-0.41-2.29-2.19-3.13-2.04c-0.47,0.08-1.73,1.21-4.16,1.21c-4.16,0-3.41-3.03-7.27,0.86 C36.65,45.92,35.22,48.59,35.22,51.89L35.22,51.89z M45.1,66.9c-1.51,0.49-1.14,1.75-1.14,3.52l0,9.27 c-0.01,1.4,0.3,3.16,2.09,2.52c1.27-0.45,1.03-2.15,1.03-3.59l0-9.27C47.09,68.13,46.86,66.32,45.1,66.9L45.1,66.9z M44.93,8.85 c-1.34,0.65-0.97,2-0.97,3.68l0,9.27c-0.01,1.51,0.46,2.87,2.16,2.28c1.28-0.45,0.96-2.1,0.96-3.65l0-9.27 C47.09,9.75,46.53,8.08,44.93,8.85L44.93,8.85z M67.82,44.06c-1.3,0.46-1.27,2.28-0.26,2.79c0.86,0.44,13.45,0.2,13.75,0.1 c1.31-0.45,1.28-2.2,0.2-2.8C80.66,43.7,68.1,43.96,67.82,44.06L67.82,44.06z M9.69,44.11c-1.3,0.64-1.32,2.25-0.07,2.8 c0.67,0.29,13.1,0.25,13.74-0.01c1.14-0.46,1.09-2.35,0.01-2.8C22.66,43.81,10.23,43.84,9.69,44.11L9.69,44.11z M31.28,34.84 c6.09-1.83,8.97,7.66,2.59,9.51c-4.56,1.33-7.85-3.98-5.48-7.45C29.09,35.89,29.83,35.27,31.28,34.84L31.28,34.84z M57.32,34.78 c6.26-1.6,8.63,7.94,2.41,9.59C53.47,46.02,50.82,36.44,57.32,34.78L57.32,34.78z M42.03,75.92c-5.83-0.66-12.18-3.29-16.42-7.17 c-0.64-0.58-1.17-0.94-1.79-1.56c-2.07-2.04-4.34-5.29-5.63-7.89c-1.48-2.98-2.77-6.52-3.07-10.3l3.1,0 c0.54,3.53,1.37,6.22,2.85,9.1c0.71,1.37,1.41,2.53,2.27,3.66c2.24,2.95,3.06,3.74,6.01,5.99c1.11,0.84,2.29,1.54,3.68,2.25 c2.68,1.36,5.73,2.44,9.01,2.79L42.03,75.92L42.03,75.92z M72.8,49.14c0.49-0.24,2.46-0.14,3.12-0.14 c-0.38,3.89-1.59,7.29-3.13,10.41c-1.28,2.58-3.56,5.77-5.58,7.79c-4.6,4.6-11.64,8.11-18.2,8.72l0.15-3.12 c3.77-0.77,5.77-1.22,8.96-2.85c5.16-2.64,9.21-6.7,11.85-11.85C71.62,54.84,71.97,52.93,72.8,49.14L72.8,49.14z M15.11,42.01 c0.57-6.52,4.18-13.73,8.71-18.19c4.74-4.67,11.47-8.04,18.21-8.72l0.02,3.13c-4.3,0.42-9.47,2.57-12.79,5.1 c-2.94,2.24-3.68,2.99-5.92,5.93c-3.07,4.03-4.04,7.72-5.11,12.62C17.74,42.12,15.71,42.02,15.11,42.01L15.11,42.01z M49.02,18.22 l-0.01-3.12c6.49,0.54,13.64,4.15,18.2,8.72c2.14,2.14,4.28,5.19,5.63,7.89c1.49,2.98,2.75,6.5,3.08,10.3 c-0.62,0.01-2.62,0.11-3.11-0.14c-0.86-3.79-1.16-5.66-2.85-8.95C65.69,24.66,58.33,19.74,49.02,18.22L49.02,18.22z M54.61,44.89 c1.06-1.18,1.96,1.41,5.6,0.26c0.92-0.29,1.74-1.58,4.28,1.59c1.87,2.34,1.62,4.86,1.62,7.73c0,4.66-0.26,4.59-4.79,4.59 c-1.42,0-3.15,0.09-4.54-0.04c0.03-2.53,0.15-5.73-0.03-8.21C56.51,47.67,55.64,46.94,54.61,44.89L54.61,44.89z M24.93,51.89 c0-2.91,1.21-5.44,3.61-6.95c1.01-0.64,0.97-0.27,1.95,0.1c0.68,0.26,1.47,0.41,2.27,0.38c2.78-0.09,2.43-1.47,3.76-0.54 c-0.27,0.71-0.98,1.62-1.41,2.68c-1.26,3.13-0.74,7.82-0.77,11.51c-1.98-0.05-4-0.02-5.99-0.01 C24.21,59.08,24.92,57.46,24.93,51.89L24.93,51.89z M44.33,29.2c3.94-0.76,7.25,2.15,7.82,5.42c0.71,4.07-2.15,7.26-5.44,7.83 C37.93,43.98,35.55,30.88,44.33,29.2z"></path> </g> </svg>