<svg xmlns="http://www.w3.org/2000/svg" xmlns:xlink="http://www.w3.org/1999/xlink" id="Layer_1" x="0px" y="0px" viewBox="0 0 91 91" style="enable-background:new 0 0 91 91;" xml:space="preserve"> <style type="text/css"> .st0{fill-rule:evenodd;clip-rule:evenodd;fill:#FFFFFF;} .st1{fill-rule:evenodd;clip-rule:evenodd;fill:#0B2852;} </style> <g> <circle class="st0" cx="45.5" cy="45.5" r="45.5"></circle> <path class="st1" d="M25.14,48.7c3.16,6.44,7.16,13.84,10.27,20.67c2.06,0.5,19.5,0.41,22.23,0.11c6.59-0.71,8.86-6.02,12.05-10.52 c1.84-2.59,2.83-3.93,4.57-6.54c1.36-2.04,4.27-4.86,1.38-7.53c-5.73-5.3-11.73,13.07-18.05,13.69c-1.76,0.17-9.29,0.61-9.97-1.07 c-1.55-3.8,5.67-2.56,8.07-2.61c3.98-0.1,5.94-3.39,3.59-6.06c-1.78-2.02-6.99-1.32-9.82-1.28c-5.09,0.07-4.17-1.65-8.12-3.31 C34.78,41.5,28.88,44.95,25.14,48.7L25.14,48.7z M45.38,14.65c-10.05,3.58-4.76,16.79,4.21,14.12 C58.64,26.08,54.37,11.45,45.38,14.65L45.38,14.65z M40.63,40.19c-4.2,0-4.79-0.05-4.32-4.74c0.25-2.45,1.18-4.67,2.69-5.96 c1.64,0.5,3.47,3.4,8.47,3.31c5.47-0.1,5.9-2.61,8.38-3.38c1,1.65,2.21,3.33,2.44,6.02c0.34,4.17,0.33,4.74-3.61,4.75L40.63,40.19 L40.63,40.19z M17.65,50.33c3.76-1.7,5,1.78,6.21,4.16l7.53,15.01c1.85,3.87,0.53,5.26-2.75,6.9c-3.37,1.68-4.03-2.12-5.43-4.87 c-1.49-2.94-2.23-4.52-3.7-7.4c-1.24-2.43-2.34-4.73-3.81-7.63C13.46,52.08,13.23,52.32,17.65,50.33z"></path> </g> </svg>