<svg id="Layer_1" data-name="Layer 1" xmlns="http://www.w3.org/2000/svg" viewBox="0 0 90.08 100"><defs><style>.cls-1{fill:#083264;}</style></defs><path class="cls-1" d="M94.54,68c-2.08-10.62-8.47-17.88-18.77-21.11s-19.72-.66-27.45,7C42.87,59.22,40.54,66,40.68,73.62a1.11,1.11,0,0,1-.86,1.29C37.2,75.92,34.6,77,32,78c-1.44.59-1.62,1.84-.42,2.81A53.35,53.35,0,0,0,46,89.44a2.18,2.18,0,0,1,1,.67A26.49,26.49,0,0,0,67.77,100a25.83,25.83,0,0,0,4.81-.42A27,27,0,0,0,94.54,68Zm-22,22c-.37.41-.82.74-1.4.46a1.27,1.27,0,0,1-.84-1.5,2.3,2.3,0,0,1,.21-1.2,17.59,17.59,0,0,0-5-19.06c-.6-.52-.9-.54-1.29.18s-1,1.53-1.46,2.28a1.53,1.53,0,0,1-2.86-.5Q58.59,64.84,57.29,59a1.49,1.49,0,0,1,1.2-1.89Q64.27,55.73,70,54.43a1.48,1.48,0,0,1,1.7.54,1.58,1.58,0,0,1,0,1.88c-.48.76-.93,1.55-1.45,2.29-.31.43-.22.66.15,1a21,21,0,0,1,7.38,15A19.8,19.8,0,0,1,72.5,90Z" transform="translate(-4.96)"/><path class="cls-1" d="M25.09,26.62A5.79,5.79,0,1,1,19.3,20.8,5.77,5.77,0,0,1,25.09,26.62Z" transform="translate(-4.96)"/><path class="cls-1" d="M38.5,26.57a5.71,5.71,0,0,1-5.73,5.76,5.57,5.57,0,0,1-5.63-5.8,5.82,5.82,0,0,1,5.79-5.73A5.61,5.61,0,0,1,38.5,26.57Z" transform="translate(-4.96)"/><path class="cls-1" d="M51.33,26.56a5.77,5.77,0,0,1-11.54,0,5.77,5.77,0,1,1,11.54,0Z" transform="translate(-4.96)"/><path class="cls-1" d="M58.72,22.42A27,27,0,0,0,16.89,4.72C7.44,11,3.78,20.29,5.29,31.48a25,25,0,0,0,7.13,14.33,3.15,3.15,0,0,1,.87,1.52A52.36,52.36,0,0,0,20.2,62.41c.81,1.29,2.11,1.18,2.82-.15,1.33-2.52,2.68-5,4-7.56A1,1,0,0,1,28.31,54a21.31,21.31,0,0,0,6.81.16,27.17,27.17,0,0,0,24-27.2A28.18,28.18,0,0,0,58.72,22.42ZM36.46,50.83a23.85,23.85,0,0,1-9,0A1.94,1.94,0,0,0,25,52.12c-1.13,2.16-2.25,4.32-3.46,6.62a41.54,41.54,0,0,1-5.38-13,3,3,0,0,0-1-1.48,24.16,24.16,0,0,1-6.84-13C6,18.74,15,5.72,27.47,3.47A23.89,23.89,0,0,1,55.68,23.3,23.92,23.92,0,0,1,36.46,50.83Z" transform="translate(-4.96)"/><path class="cls-1" d="M25.09,26.62A5.79,5.79,0,1,1,19.3,20.8,5.77,5.77,0,0,1,25.09,26.62Z" transform="translate(-4.96)"/><path class="cls-1" d="M38.5,26.57a5.71,5.71,0,0,1-5.73,5.76,5.57,5.57,0,0,1-5.63-5.8,5.82,5.82,0,0,1,5.79-5.73A5.61,5.61,0,0,1,38.5,26.57Z" transform="translate(-4.96)"/><path class="cls-1" d="M51.33,26.56a5.77,5.77,0,0,1-11.54,0,5.77,5.77,0,1,1,11.54,0Z" transform="translate(-4.96)"/><path class="cls-1" d="M25.09,26.62A5.79,5.79,0,1,1,19.3,20.8,5.77,5.77,0,0,1,25.09,26.62Z" transform="translate(-4.96)"/><path class="cls-1" d="M51.33,26.56a5.77,5.77,0,0,1-11.54,0,5.77,5.77,0,1,1,11.54,0Z" transform="translate(-4.96)"/><path class="cls-1" d="M38.5,26.57a5.71,5.71,0,0,1-5.73,5.76,5.57,5.57,0,0,1-5.63-5.8,5.82,5.82,0,0,1,5.79-5.73A5.61,5.61,0,0,1,38.5,26.57Z" transform="translate(-4.96)"/></svg>