<svg xmlns="http://www.w3.org/2000/svg" xmlns:xlink="http://www.w3.org/1999/xlink" id="Layer_1" x="0px" y="0px" viewBox="0 0 91 91" style="enable-background:new 0 0 91 91;" xml:space="preserve"> <style type="text/css"> .st0{fill-rule:evenodd;clip-rule:evenodd;fill:#FFFFFF;} .st1{fill-rule:evenodd;clip-rule:evenodd;fill:#0B2852;} </style> <g> <circle class="st0" cx="45.5" cy="45.5" r="45.5"></circle> <path class="st1" d="M34.1,45.37c-1.04,1.23-2.02,2.5-3.05,3.77c-2.08,2.59-1.8,2.31-3.82,0.69l-5.73-4.63 c-1.74-1.4-2.12-1.51-3.8,1.24c-0.24,0.38-0.47,0.62-0.71,1.02c-0.24,0.39-0.47,0.61-0.71,1.02l-2.87,4.07 c-0.56,1.15,0.67,1.78,1.16,2.17c0.68,0.55,1.26,1.01,1.93,1.56l13.46,10.85c1.97,1.6,2.21,0.21,5.43-3.77 c1.05-1.29,2.02-2.5,3.07-3.8c0.38-0.48,0.97-1.68,1.99-1.35c0.38,0.12,1.6,1.18,1.99,1.5l11.53,9.3c0.6,0.48,1.41,1.05,1.93,1.56 c1.66,1.63-2.53,3.78-2.33,5.28c0.07,0.49,0.43,0.83,0.83,0.92c0.52,0.12,12.23-1.23,13.79-1.39c3.26-0.35,2.87-0.16,2.41-4.4 l-1.12-10.47c-0.1-0.97,0.03-2.44-1-2.66c-1.18-0.26-2.22,1.88-3.51,3.33c-0.9,1.02-1.58,0.28-2.26-0.26 c-0.64-0.5-1.32-1.07-1.93-1.56l-10.56-8.52c-1.32-1.09-2.68,0.88-7.53-0.28c-1.96-0.47-3.32-1.05-4.8-1.96 C35.7,47.28,34.6,45.65,34.1,45.37L34.1,45.37z M50.62,18.15c0.65-1.35,1.72-2.77,3.41-3.5c1.18-0.51,5.69-1.02,3.92,1.21 c-1.35,0.32-2.15-0.41-3.77,0.62c-0.96,0.61-1.49,1.31-1.92,2.19c0.66,0.38,1.13,0.26,1.68,0.8c1.08,1.07-0.34,3.15-0.85,5.38 c5.47,3.83,7.67,10.7,4.63,17c-2.88,5.95-10.2,8.92-16.17,6.69c-10.21-3.81-11.83-16.14-4.36-22.61c1.1-0.96,2.32-1.74,3.94-2.35 c2.69-1.02,3.35-0.62,5.33-0.89c0.32-1.16,0.74-2.34,1.11-3.47C48.28,17.05,49.77,18.02,50.62,18.15L50.62,18.15z M42.52,27.75 c-0.08-0.75,0.07-1.4,0.97-1.27c0.76,0.11,0.63,0.87,0.78,1.62l1.43-0.08c-0.08-0.64-0.33-1.48,0.32-1.79 c1.21-0.58,1.27,0.96,1.34,1.58c0.18,1.69,1.39,0.96,2.12,3.25c0.25,0.78,0.33,1.8-0.67,1.79c-0.88,0-0.73-0.91-1.06-1.61 c-1.45-3.03-6.12-1.22-5.04,2.03c0.24,0.72,0.78,1.24,1.22,1.5c1.53,0.89,3.6-0.59,5.71,1.75c1.37,1.52,1.52,4.12,0.08,5.76 c-0.75,0.87-0.78,0.26-0.61,1.8c0.06,0.6,0.26,1.45-0.28,1.78c-1.22,0.24-1.25-0.26-1.37-1.37l-0.07-0.72l-1.42,0.08 c0,0.97,0.53,2.34-0.67,2.42c-1.06,0.06-0.92-1.29-1.02-2.26c-0.16-1.53-2.33-1.47-2.3-4.5c0.41-0.37,0.94-0.8,1.42-0.26 c0.24,0.26,0.33,1.12,0.61,1.61c0.46,0.8,1.49,1.53,2.84,1.28c2.64-0.49,2.94-4.05,0.76-5.08c-1.32-0.62-2.19-0.02-3.58-0.43 c-4.12-1.23-3.68-6.54-1.37-7.68L42.52,27.75z"></path> </g> </svg>