<svg xmlns="http://www.w3.org/2000/svg" xmlns:xlink="http://www.w3.org/1999/xlink" xml:space="preserve" width="91px" height="91px" style="shape-rendering:geometricPrecision; text-rendering:geometricPrecision; image-rendering:optimizeQuality; fill-rule:evenodd; clip-rule:evenodd" viewBox="0 0 6.86 6.86"> <defs> <style type="text/css"> .fil1 {fill:#083264} .fil0 {fill:white} </style> </defs> <g id="Layer_x0020_1"> <metadata id="CorelCorpID_0Corel-Layer"></metadata> <g id="_1718343300368"> <circle class="fil0" cx="3.43" cy="3.43" r="3.43"></circle> <path class="fil1" d="M3.3 5.05c0,-0.04 0.04,-0.13 0.12,-0.13 0.07,-0.01 0.13,0.05 0.13,0.11 0.01,0.15 -0.22,0.19 -0.25,0.02zm0.05 -1.02c0,0.08 0.09,0.1 0.14,0.06 0.05,-0.05 0,-0.13 -0.05,-0.13 -0.05,0 -0.09,0.03 -0.09,0.07zm1.2 -0.89c0.11,0 0.1,-0.15 0,-0.15 -0.04,0 -0.07,0.03 -0.08,0.07 0,0.04 0.04,0.08 0.08,0.08zm-3.01 0.27c0,0.11 0.07,0.09 0.23,0.09 0.02,0 0.06,-0.04 0.05,-0.08 -0.01,-0.09 -0.1,-0.07 -0.2,-0.07 -0.04,0 -0.08,0.04 -0.08,0.06l0 0zm3.55 0.09c0.15,0 0.22,0.02 0.22,-0.09l0 0c0,-0.01 -0.01,-0.03 -0.02,-0.04 -0.04,-0.03 -0.12,-0.02 -0.18,-0.02 -0.1,0 -0.09,0.15 -0.02,0.15zm-1.59 -0.72c0.15,0 0.32,0.11 0.39,0.18 0.08,0.08 0.19,0.25 0.19,0.39l-0.58 0 0 -0.57zm-0.39 0.22c0.06,-0.04 0.16,-0.09 0.24,-0.09l0 0.33 -0.24 -0.24zm0.24 -0.31l0 0.06c-0.1,0 -0.23,0.06 -0.31,0.12 -0.03,0.02 -0.05,0.03 -0.08,0.06 -0.03,0.02 -0.11,0.12 -0.13,0.16 -0.03,0.07 -0.06,0.13 -0.07,0.22 -0.05,0.27 0.07,0.54 0.3,0.69 0.04,0.03 0.07,0.05 0.11,0.05 0.07,0 0.1,-0.1 0.03,-0.14 -0.08,-0.05 -0.08,-0.04 -0.15,-0.11 -0.19,-0.19 -0.2,-0.47 -0.05,-0.69l0.31 0.31c0.03,0.02 0.07,0.08 0.12,0.08l0.52 0c0,0.1 -0.07,0.22 -0.12,0.28l-0.02 0.02c-0.02,0.01 -0.02,0.01 -0.03,0.02 -0.1,0.11 -0.16,0.06 -0.16,0.17 0,0.04 0.04,0.06 0.07,0.06 0.08,0 0.25,-0.16 0.3,-0.24 0.05,-0.08 0.11,-0.21 0.11,-0.31 0.14,0 0.14,-0.02 0.13,-0.15 0,-0.08 -0.02,-0.14 -0.05,-0.2 -0.01,-0.06 -0.04,-0.11 -0.07,-0.16 -0.05,-0.07 -0.08,-0.1 -0.14,-0.16 -0.05,-0.04 -0.04,-0.04 -0.1,-0.08 -0.05,-0.03 -0.11,-0.06 -0.16,-0.08 -0.06,-0.02 -0.36,-0.11 -0.36,0.02zm0.11 -1.15l0 0c0.18,0 0.34,0.28 0.17,0.46 -0.06,0.06 -0.13,0.07 -0.13,0.1l0 0.33c0.23,0 0.44,0.11 0.62,0.2l0.21 -0.2c-0.02,-0.08 -0.03,-0.07 -0.03,-0.17 0,-0.19 0.28,-0.35 0.46,-0.17 0.11,0.11 0.1,0.28 0,0.39 -0.03,0.03 -0.1,0.08 -0.16,0.08 -0.11,0 -0.1,-0.01 -0.17,-0.03l-0.18 0.18c0.03,0.04 0.11,0.07 0.14,0.11 0.05,0.05 0.01,0.13 -0.06,0.13 -0.03,0 -0.12,-0.08 -0.15,-0.1 -0.07,-0.05 -0.16,-0.11 -0.24,-0.14 -0.42,-0.19 -0.75,-0.17 -1.14,0.06l-0.25 0.17c-0.08,0.07 -0.12,0.12 -0.18,0.16l-0.16 0.17c-0.02,0.03 -0.1,0.13 -0.13,0.15l0.12 0.16c0.09,0.09 0.18,0.18 0.28,0.27 0.01,0.02 0.02,0.02 0.04,0.03 0.01,0.02 0.02,0.02 0.03,0.03 0.5,0.38 0.97,0.5 1.52,0.17l0.24 -0.17c0.06,-0.05 0.12,-0.12 0.18,-0.16 0.04,-0.04 0.12,-0.12 0.16,-0.17 0.04,-0.05 0.09,-0.1 0.12,-0.15 -0.02,-0.03 -0.04,-0.05 -0.06,-0.08 -0.02,-0.02 -0.05,-0.05 -0.05,-0.08 0,-0.06 0.07,-0.14 0.16,-0.02 0.12,0.15 0.16,0.15 0.05,0.3 -0.02,0.03 -0.05,0.06 -0.07,0.09l-0.17 0.18c-0.08,0.1 -0.23,0.21 -0.33,0.28 -0.02,0.02 -0.03,0.03 -0.05,0.03 0.02,0.06 0.14,0.14 0.18,0.2 0.08,-0.02 0.07,-0.03 0.17,-0.03 0.09,0 0.18,0.07 0.22,0.15 0.03,0.07 0.03,0.17 -0.01,0.24 -0.01,0.02 -0.03,0.05 -0.05,0.07 -0.1,0.11 -0.28,0.1 -0.38,0.01 -0.03,-0.04 -0.08,-0.11 -0.08,-0.17 0,-0.11 0.01,-0.1 0.02,-0.17l-0.2 -0.21c-0.18,0.1 -0.39,0.2 -0.62,0.2l0 0.34c0,0.02 0.01,0.02 0.03,0.03 0.12,0.05 0.17,0.14 0.17,0.28 0,0.12 -0.12,0.23 -0.25,0.24l-0.06 0c-0.05,0 -0.11,-0.03 -0.16,-0.08 -0.09,-0.1 -0.1,-0.27 -0.01,-0.37 0.06,-0.07 0.13,-0.07 0.13,-0.1l0 -0.34c-0.22,0 -0.43,-0.1 -0.61,-0.2l-0.21 0.21c0.02,0.08 0.03,0.07 0.03,0.17 0,0.17 -0.23,0.3 -0.39,0.21 -0.02,-0.01 -0.06,-0.04 -0.08,-0.05 -0.05,-0.06 -0.07,-0.13 -0.07,-0.21 0,-0.12 0.11,-0.25 0.24,-0.25 0.1,0 0.09,0.01 0.17,0.02l0.17 -0.18c-0.01,-0.02 -0.16,-0.12 -0.19,-0.15 -0.02,-0.02 -0.03,-0.03 -0.05,-0.05 -0.02,-0.01 -0.03,-0.02 -0.05,-0.04 -0.08,-0.08 -0.17,-0.17 -0.25,-0.26 -0.14,-0.18 -0.19,-0.18 -0.08,-0.33l0.24 -0.28c0.05,-0.05 0.33,-0.29 0.38,-0.31 -0.01,-0.05 -0.14,-0.13 -0.17,-0.19 -0.04,0.01 -0.06,0.03 -0.12,0.03 -0.09,0 -0.16,-0.02 -0.22,-0.08 -0.1,-0.11 -0.1,-0.28 0,-0.39 0.11,-0.1 0.28,-0.1 0.39,0 0.03,0.03 0.08,0.11 0.08,0.17 0,0.1 -0.01,0.09 -0.03,0.17l0.21 0.2c0.18,-0.09 0.39,-0.2 0.61,-0.2 0,-0.43 0.03,-0.32 -0.07,-0.38 -0.02,-0.02 -0.04,-0.03 -0.06,-0.05 -0.05,-0.06 -0.06,-0.13 -0.06,-0.21 0,-0.06 0.04,-0.13 0.07,-0.17 0.07,-0.06 0.13,-0.08 0.23,-0.08zm0.98 3.04c0,-0.15 0.19,-0.18 0.24,-0.06 0.02,0.04 0.01,0.1 -0.02,0.13 -0.05,0.05 -0.14,0.05 -0.19,-0.01 -0.01,-0.01 -0.03,-0.05 -0.03,-0.06zm-2.16 -0.14c0.15,0 0.17,0.19 0.06,0.24 -0.14,0.06 -0.24,-0.13 -0.13,-0.21 0.01,-0.01 0.05,-0.03 0.07,-0.03zm2.3 -2.03c-0.15,0 -0.18,-0.19 -0.06,-0.23 0.1,-0.04 0.2,0.04 0.16,0.15 -0.01,0.05 -0.07,0.08 -0.1,0.08zm-2.17 -0.13c0,0.15 -0.19,0.17 -0.23,0.06 -0.02,-0.05 -0.01,-0.1 0.02,-0.13 0.03,-0.04 0.08,-0.05 0.13,-0.04 0.05,0.02 0.08,0.08 0.08,0.11zm0.89 -0.46c0,-0.04 0.04,-0.12 0.12,-0.13 0.07,0 0.13,0.06 0.13,0.12 0.01,0.15 -0.22,0.19 -0.25,0.01z"></path> </g> </g> </svg>