<svg xmlns="http://www.w3.org/2000/svg" xmlns:xlink="http://www.w3.org/1999/xlink" xml:space="preserve" width="91px" height="91px" style="shape-rendering:geometricPrecision; text-rendering:geometricPrecision; image-rendering:optimizeQuality; fill-rule:evenodd; clip-rule:evenodd" viewBox="0 0 6.55 6.55"> <defs> <style type="text/css"> .fil1 {fill:#083264} .fil0 {fill:white} </style> </defs> <g id="Layer_x0020_1"> <metadata id="CorelCorpID_0Corel-Layer"></metadata> <g id="_1718266235728"> <circle class="fil0" cx="3.28" cy="3.28" r="3.28"></circle> <path class="fil1" d="M3 4.65l0.56 0c-0.01,0.12 -0.17,0.21 -0.28,0.21 -0.13,0 -0.27,-0.09 -0.28,-0.21zm1.65 -1.82c0,0.16 0.11,0.12 0.34,0.12 0.11,0 0.11,-0.21 0,-0.21 -0.12,0 -0.34,-0.03 -0.34,0.09zm-3.17 0c0,0.16 0.1,0.12 0.33,0.12 0.12,0 0.12,-0.21 0,-0.21 -0.12,0 -0.33,-0.03 -0.33,0.09zm0.02 -0.71c0,0.1 0.2,0.29 0.28,0.28 0.04,-0.01 0.09,-0.05 0.09,-0.11 0,-0.07 -0.11,-0.16 -0.16,-0.21 -0.12,-0.11 -0.21,0 -0.21,0.04zm3.18 1.27c0,0.09 0.1,0.16 0.16,0.22 0.11,0.11 0.21,0.02 0.21,-0.05 0,-0.08 -0.19,-0.27 -0.28,-0.26 -0.04,0.01 -0.09,0.05 -0.09,0.09zm0 -1.1c0,0.08 0.1,0.16 0.21,0.06 0.07,-0.07 0.16,-0.13 0.16,-0.23 0,-0.04 -0.05,-0.08 -0.09,-0.09 -0.09,-0.01 -0.28,0.19 -0.28,0.26zm-3.18 1.27c0,0.05 0.05,0.09 0.1,0.1 0.11,0.02 0.42,-0.32 0.18,-0.36 -0.05,-0.01 -0.09,0.02 -0.12,0.05 -0.04,0.04 -0.16,0.13 -0.16,0.21zm2.62 -0.82c0,-0.13 -0.02,-0.25 -0.07,-0.36 -0.03,-0.05 -0.05,-0.08 -0.08,-0.12l-0.09 -0.12c-0.26,-0.25 -0.79,-0.34 -0.71,-0.1 0.06,0.15 0.42,-0.02 0.66,0.41 0.11,0.19 0.03,0.35 0.15,0.39 0.07,0.03 0.14,-0.01 0.14,-0.1zm-0.86 -1.26l0.01 0c0.18,0 0.37,0.04 0.56,0.12 0.23,0.1 0.49,0.36 0.59,0.59 0.16,0.38 0.17,0.74 0,1.11 -0.08,0.16 -0.18,0.25 -0.27,0.39 -0.21,0.32 -0.07,0.61 -0.17,0.8 -0.03,0.05 -0.1,0.13 -0.18,0.14 -0.02,0.22 -0.25,0.45 -0.5,0.45 -0.3,0 -0.52,-0.21 -0.54,-0.45 -0.08,-0.01 -0.16,-0.09 -0.19,-0.14 -0.04,-0.08 -0.04,-0.17 -0.04,-0.29 0,-0.52 -0.2,-0.53 -0.38,-0.88 -0.11,-0.2 -0.14,-0.4 -0.14,-0.62 0,-0.64 0.55,-1.22 1.25,-1.22zm-0.5 2.85l0 -0.1 1.04 0c0,0.1 0.02,0.2 -0.1,0.2l-0.85 0c-0.06,0 -0.09,-0.03 -0.09,-0.1zm1.05 -0.32l-1.07 0c-0.01,-0.4 -0.33,-0.54 -0.47,-0.98 -0.05,-0.14 -0.05,-0.26 -0.03,-0.43 0.04,-0.54 0.62,-1.02 1.25,-0.89 0.3,0.07 0.55,0.25 0.7,0.51 0.21,0.36 0.16,0.82 -0.06,1.13 -0.08,0.12 -0.1,0.12 -0.2,0.28 -0.05,0.08 -0.12,0.27 -0.12,0.38z"></path> </g> </g> </svg>