<svg xmlns="http://www.w3.org/2000/svg" id="Layer_1" data-name="Layer 1" viewBox="0 0 91 91"><defs><style>.cls-1{fill:#fff;}.cls-2{fill:#083264;}</style></defs><circle class="cls-1" cx="45.5" cy="45.5" r="45.5"></circle><path class="cls-2" d="M33,76.52c0,.47-.15.56-.58.57-2,0-2,0-2-2a64.88,64.88,0,0,0-.13-7.38,11,11,0,0,0-3.72-7,26.7,26.7,0,0,1-2.34-2.42c-1.66-1.89-3.3-3.8-5-5.68a1.87,1.87,0,0,0-3.28,1.67,2.72,2.72,0,0,0,.59.94q2.8,3.26,5.59,6.52a1.44,1.44,0,0,1,.49,1.36,1.24,1.24,0,0,1-1,1,1.32,1.32,0,0,1-1.4-.57c-2-2.29-3.84-4.68-5.93-6.85a6.67,6.67,0,0,1-2-5.37c.16-4,.05-8,0-12a1.92,1.92,0,0,0-2.67-2,1.81,1.81,0,0,0-1.17,1.76c0,5.16,0,10.33,0,15.49a8.37,8.37,0,0,0,1,3.67c2.92,5.82,5.82,11.65,8.75,17.47.26.52.27.77-.32,1-1.65.78-1.63.81-2.44-.81q-4.11-8.22-8.24-16.45A12.7,12.7,0,0,1,6,53.73C6,48.85,6,44,6,39.12a4.49,4.49,0,0,1,8.59-1.77,4.87,4.87,0,0,1,.4,2c0,3.34,0,6.69,0,10v.88a5.45,5.45,0,0,1,1.95-.84A4.48,4.48,0,0,1,21.15,51l5.6,6.4a12.15,12.15,0,0,0,1.19,1.19,13.9,13.9,0,0,1,5,10.46C33,71.54,32.93,74,33,76.52Z" transform="translate(0.04 0)"></path><path class="cls-2" d="M58.63,43.13c0-1.05,0-2.09,0-3.13a1.28,1.28,0,0,0-1.41-1.46q-3.09,0-6.17,0a1.27,1.27,0,0,0-1.41,1.39q0,3.07,0,6.17a1.29,1.29,0,0,0,1.45,1.42h6.09a1.29,1.29,0,0,0,1.45-1.43C58.64,45.1,58.63,44.11,58.63,43.13Zm-2.69,1.71c-.37.31-1.17.12-1.78.11s-1.5.28-1.83-.12-.07-1.22-.07-1.85-.32-1.43.07-1.76,1.17-.12,1.78-.11,1.49-.28,1.83.12.13,1.22.12,1.85S56.33,44.52,55.94,44.84Z" transform="translate(0.04 0)"></path><path class="cls-2" d="M71.47,39.92a1.27,1.27,0,0,0-1.41-1.38q-3.07,0-6.17,0a1.26,1.26,0,0,0-1.4,1.38c0,2.06,0,4.12,0,6.18a1.29,1.29,0,0,0,1.45,1.42c1,0,2,0,3,0s2.14,0,3.21,0a1.26,1.26,0,0,0,1.36-1.35C71.49,44.09,71.49,42,71.47,39.92Zm-2.7,4.93c-.37.32-1.22.06-1.86.06C65.05,45,65,45,65.06,43.12c0-.66-.3-1.53.14-1.91s1.21-.1,1.85-.11c1.86,0,1.87,0,1.85,1.84C68.89,43.6,69.2,44.47,68.77,44.85Z" transform="translate(0.04 0)"></path><path class="cls-2" d="M77.29,31q-8.15-8.1-16.23-16.23a2,2,0,0,0-1.51-.61c-1.41,0-2.83,0-4.25,0-.42,0-.54-.11-.53-.53,0-1.07,0-2.14,0-3.21A1.27,1.27,0,0,0,53.38,9Q50.29,9,47.2,9c-.94,0-1.4.5-1.41,1.47s0,1.92,0,2.89c0,.6-.11.79-.76.79-5.6,0-11.19,0-16.78,0a2.09,2.09,0,0,0-1.69.73q-6.93,7.53-13.88,15.05c-.39.43-1.08.85-1.1,1.31s.81.81,1.19,1.28.69.37,1.09-.06c4.5-4.91,9-9.8,13.54-14.7.32-.34.47-.44.85,0Q35.53,25,42.84,32.26a1.14,1.14,0,0,1,.38.91q0,10.71,0,21.43c0,.54-.16.65-.66.65-2.55,0-5.09,0-7.63,0-.62,0-.73-.16-.73-.75q0-7.19,0-14.37c0-1.14-.45-1.59-1.6-1.6H24.27c-1.15,0-1.6.45-1.61,1.6V47c0,1.87,0,1.85,1.92,1.86.51,0,.68-.11.67-.64,0-2.17,0-4.34,0-6.51,0-.44.1-.59.57-.58,1.79,0,3.58,0,5.38,0,.37,0,.5.09.49.49q0,6.59,0,13.16c0,.37-.08.58-.48.49-.78-.17-.89.25-.82.88a2.89,2.89,0,0,1,0,.88c-.1.66.13.83.81.83,8.53,0,17.07,0,25.6,0,1.87,0,1.84,0,1.88-1.83,0-.58-.11-.76-.73-.75-3.8,0-7.6,0-11.4,0-.58,0-.76-.11-.75-.73q0-10.19,0-20.39c0-.68.23-.75.8-.75,5.09,0,10.17,0,15.26,0h5.78c3.21,0,6.42,0,9.63,0,.23,0,.64.24.66-.29A2.59,2.59,0,0,0,77.29,31ZM48.36,15.33c0-1.1,0-2.2,0-3.29,0-.39.1-.51.49-.49,1,0,1.92,0,2.89,0,.38,0,.49.1.49.49q0,3.36,0,6.74c0,.38-.11.5-.5.49q-1.44,0-2.88,0c-.39,0-.5-.11-.49-.49C48.37,17.63,48.36,16.48,48.36,15.33ZM46.68,30.85a3.56,3.56,0,0,1-2.84-1.18C39.61,25.35,35.31,21.1,31,16.83c.13-.24.34-.13.51-.13,4.51,0,9,0,13.56,0,.57,0,.71.14.69.7,0,1,0,2,0,3.05a1.28,1.28,0,0,0,1.4,1.4q3.09,0,6.18,0a1.28,1.28,0,0,0,1.4-1.39q0-1.61,0-3.21c0-.41.08-.62.52-.54h.16c1.31,0,2.76-.33,3.89.13s1.87,1.7,2.77,2.61L72.78,30.09c.21.21.42.39.8.74C64.44,30.83,55.56,30.8,46.68,30.85Z" transform="translate(0.04 0)"></path><path class="cls-2" d="M83,54.53a11,11,0,0,1-1.26,4.84q-4.42,8.85-8.83,17.7c-.23.47-.43.6-.88.3s-1.44-.42-1.58-.94.43-1.09.71-1.64q4-8.08,8.1-16.17a11,11,0,0,0,1.2-5.09c0-4.74,0-9.47,0-14.21a1.91,1.91,0,0,0-1.26-1.94,1.85,1.85,0,0,0-2.11.55,2.24,2.24,0,0,0-.48,1.56c0,4.53,0,9,0,13.57a3.29,3.29,0,0,1-.86,2.39c-2.34,2.65-4.62,5.34-6.91,8a1.45,1.45,0,0,1-1.44.68,1.29,1.29,0,0,1-.6-2.24q2.82-3.33,5.68-6.65a2.27,2.27,0,0,0,.59-1,1.84,1.84,0,0,0-1-2.09,1.87,1.87,0,0,0-2.31.51c-1.67,1.89-3.31,3.79-5,5.68a29.65,29.65,0,0,1-2.34,2.42,11.32,11.32,0,0,0-3.88,8.65c0,2.36,0,4.71,0,7.07,0,.51-.15.61-.63.61-2,0-2,0-2-1.91a71.72,71.72,0,0,1,.13-7.62,13.18,13.18,0,0,1,4.09-8.23c1.91-1.78,3.53-3.8,5.27-5.72.74-.8,1.45-1.64,2.18-2.47a4.44,4.44,0,0,1,6-1l.28.11V44.12c0-1.65,0-3.32,0-5a4.49,4.49,0,0,1,9,0Q83.06,46.82,83,54.53Z" transform="translate(0.04 0)"></path><path class="cls-2" d="M77.29,31q-8.15-8.1-16.23-16.23a2,2,0,0,0-1.51-.61c-1.41,0-2.83,0-4.25,0-.42,0-.54-.11-.53-.53,0-1.07,0-2.14,0-3.21A1.27,1.27,0,0,0,53.38,9Q50.29,9,47.2,9c-.94,0-1.4.5-1.41,1.47s0,1.92,0,2.89c0,.6-.11.79-.76.79-5.6,0-11.19,0-16.78,0a2.09,2.09,0,0,0-1.69.73q-6.93,7.53-13.88,15.05c-.39.43-1.08.85-1.1,1.31s.81.81,1.19,1.28.69.37,1.09-.06c4.5-4.91,9-9.8,13.54-14.7.32-.34.47-.44.85,0Q35.53,25,42.84,32.26a1.14,1.14,0,0,1,.38.91q0,10.71,0,21.43c0,.54-.16.65-.66.65-2.55,0-5.09,0-7.63,0-.62,0-.73-.16-.73-.75q0-7.19,0-14.37c0-1.14-.45-1.59-1.6-1.6H24.27c-1.15,0-1.6.45-1.61,1.6V47c0,1.87,0,1.85,1.92,1.86.51,0,.68-.11.67-.64,0-2.17,0-4.34,0-6.51,0-.44.1-.59.57-.58,1.79,0,3.58,0,5.38,0,.37,0,.5.09.49.49q0,6.59,0,13.16c0,.37-.08.58-.48.49-.78-.17-.89.25-.82.88a2.89,2.89,0,0,1,0,.88c-.1.66.13.83.81.83,8.53,0,17.07,0,25.6,0,1.87,0,1.84,0,1.88-1.83,0-.58-.11-.76-.73-.75-3.8,0-7.6,0-11.4,0-.58,0-.76-.11-.75-.73q0-10.19,0-20.39c0-.68.23-.75.8-.75,5.09,0,10.17,0,15.26,0h5.78c3.21,0,6.42,0,9.63,0,.23,0,.64.24.66-.29A2.59,2.59,0,0,0,77.29,31ZM48.36,15.33c0-1.1,0-2.2,0-3.29,0-.39.1-.51.49-.49,1,0,1.92,0,2.89,0,.38,0,.49.1.49.49q0,3.36,0,6.74c0,.38-.11.5-.5.49q-1.44,0-2.88,0c-.39,0-.5-.11-.49-.49C48.37,17.63,48.36,16.48,48.36,15.33ZM46.68,30.85a3.56,3.56,0,0,1-2.84-1.18C39.61,25.35,35.31,21.1,31,16.83c.13-.24.34-.13.51-.13,4.51,0,9,0,13.56,0,.57,0,.71.14.69.7,0,1,0,2,0,3.05a1.28,1.28,0,0,0,1.4,1.4q3.09,0,6.18,0a1.28,1.28,0,0,0,1.4-1.39q0-1.61,0-3.21c0-.41.08-.62.52-.54h.16c1.31,0,2.76-.33,3.89.13s1.87,1.7,2.77,2.61L72.78,30.09c.21.21.42.39.8.74C64.44,30.83,55.56,30.8,46.68,30.85Z" transform="translate(0.04 0)"></path><path class="cls-2" d="M83,54.53a11,11,0,0,1-1.26,4.84q-4.42,8.85-8.83,17.7c-.23.47-.43.6-.88.3s-1.44-.42-1.58-.94.43-1.09.71-1.64q4-8.08,8.1-16.17a11,11,0,0,0,1.2-5.09c0-4.74,0-9.47,0-14.21a1.91,1.91,0,0,0-1.26-1.94,1.85,1.85,0,0,0-2.11.55,2.24,2.24,0,0,0-.48,1.56c0,4.53,0,9,0,13.57a3.29,3.29,0,0,1-.86,2.39c-2.34,2.65-4.62,5.34-6.91,8a1.45,1.45,0,0,1-1.44.68,1.29,1.29,0,0,1-.6-2.24q2.82-3.33,5.68-6.65a2.27,2.27,0,0,0,.59-1,1.84,1.84,0,0,0-1-2.09,1.87,1.87,0,0,0-2.31.51c-1.67,1.89-3.31,3.79-5,5.68a29.65,29.65,0,0,1-2.34,2.42,11.32,11.32,0,0,0-3.88,8.65c0,2.36,0,4.71,0,7.07,0,.51-.15.61-.63.61-2,0-2,0-2-1.91a71.72,71.72,0,0,1,.13-7.62,13.18,13.18,0,0,1,4.09-8.23c1.91-1.78,3.53-3.8,5.27-5.72.74-.8,1.45-1.64,2.18-2.47a4.44,4.44,0,0,1,6-1l.28.11V44.12c0-1.65,0-3.32,0-5a4.49,4.49,0,0,1,9,0Q83.06,46.82,83,54.53Z" transform="translate(0.04 0)"></path><path class="cls-2" d="M33,76.52c0,.47-.15.56-.58.57-2,0-2,0-2-2a64.88,64.88,0,0,0-.13-7.38,11,11,0,0,0-3.72-7,26.7,26.7,0,0,1-2.34-2.42c-1.66-1.89-3.3-3.8-5-5.68a1.87,1.87,0,0,0-3.28,1.67,2.72,2.72,0,0,0,.59.94q2.8,3.26,5.59,6.52a1.44,1.44,0,0,1,.49,1.36,1.24,1.24,0,0,1-1,1,1.32,1.32,0,0,1-1.4-.57c-2-2.29-3.84-4.68-5.93-6.85a6.67,6.67,0,0,1-2-5.37c.16-4,.05-8,0-12a1.92,1.92,0,0,0-2.67-2,1.81,1.81,0,0,0-1.17,1.76c0,5.16,0,10.33,0,15.49a8.37,8.37,0,0,0,1,3.67c2.92,5.82,5.82,11.65,8.75,17.47.26.52.27.77-.32,1-1.65.78-1.63.81-2.44-.81q-4.11-8.22-8.24-16.45A12.7,12.7,0,0,1,6,53.73C6,48.85,6,44,6,39.12a4.49,4.49,0,0,1,8.59-1.77,4.87,4.87,0,0,1,.4,2c0,3.34,0,6.69,0,10v.88a5.45,5.45,0,0,1,1.95-.84A4.48,4.48,0,0,1,21.15,51l5.6,6.4a12.15,12.15,0,0,0,1.19,1.19,13.9,13.9,0,0,1,5,10.46C33,71.54,32.93,74,33,76.52Z" transform="translate(0.04 0)"></path><path class="cls-2" d="M58.63,43.13c0-1.05,0-2.09,0-3.13a1.28,1.28,0,0,0-1.41-1.46q-3.09,0-6.17,0a1.27,1.27,0,0,0-1.41,1.39q0,3.07,0,6.17a1.29,1.29,0,0,0,1.45,1.42h6.09a1.29,1.29,0,0,0,1.45-1.43C58.64,45.1,58.63,44.11,58.63,43.13Zm-2.69,1.71c-.37.31-1.17.12-1.78.11s-1.5.28-1.83-.12-.07-1.22-.07-1.85-.32-1.43.07-1.76,1.17-.12,1.78-.11,1.49-.28,1.83.12.13,1.22.12,1.85S56.33,44.52,55.94,44.84Z" transform="translate(0.04 0)"></path><path class="cls-2" d="M71.47,39.92a1.27,1.27,0,0,0-1.41-1.38q-3.07,0-6.17,0a1.26,1.26,0,0,0-1.4,1.38c0,2.06,0,4.12,0,6.18a1.29,1.29,0,0,0,1.45,1.42c1,0,2,0,3,0s2.14,0,3.21,0a1.26,1.26,0,0,0,1.36-1.35C71.49,44.09,71.49,42,71.47,39.92Zm-2.7,4.93c-.37.32-1.22.06-1.86.06C65.05,45,65,45,65.06,43.12c0-.66-.3-1.53.14-1.91s1.21-.1,1.85-.11c1.86,0,1.87,0,1.85,1.84C68.89,43.6,69.2,44.47,68.77,44.85Z" transform="translate(0.04 0)"></path></svg>