<svg xmlns="http://www.w3.org/2000/svg" xmlns:xlink="http://www.w3.org/1999/xlink" xml:space="preserve" width="91px" height="91px" style="shape-rendering:geometricPrecision; text-rendering:geometricPrecision; image-rendering:optimizeQuality; fill-rule:evenodd; clip-rule:evenodd" viewBox="0 0 4.38 4.38"> <defs> <style type="text/css"> .fil1 {fill:#083264} .fil0 {fill:white} </style> </defs> <g id="Layer_x0020_1"> <metadata id="CorelCorpID_0Corel-Layer"></metadata> <g id="_1754408268992"> <circle class="fil0" cx="2.19" cy="2.19" r="2.19"></circle> <path class="fil1" d="M1.81 3.16l0.37 0c-0.01,0.08 -0.1,0.16 -0.18,0.16 -0.09,0 -0.18,-0.08 -0.19,-0.16zm0.5 -1.82c0,-0.09 0.11,-0.08 0.15,-0.08 0,-0.09 -0.01,-0.11 0.01,-0.19 0.08,-0.01 0.52,-0.01 0.6,0 0.02,0.08 0.02,0.45 0,0.53 -0.06,0.02 -0.06,0.01 -0.14,0.01 0,-0.21 -0.31,-0.21 -0.31,0l-0.16 0 0 -0.2c-0.04,0 -0.15,0.01 -0.15,-0.07zm0.07 -0.25l0 0.09c-0.2,0 -0.2,0.31 0,0.31l0 0.2 0.31 0c0,-0.05 0,-0.16 0.08,-0.16 0.09,0 0.08,0.11 0.08,0.16 0.37,0 0.31,0.05 0.31,-0.6 0,-0.05 -0.05,-0.1 -0.11,-0.1l-0.56 0c-0.06,0 -0.11,0.05 -0.11,0.1zm-0.66 1.95c0.02,-0.02 0.03,-0.03 0.06,-0.03l0.43 0c0.03,0 0.04,0.01 0.06,0.03 -0.01,0.03 -0.02,0.05 -0.06,0.05l-0.43 0c-0.05,0 -0.04,-0.02 -0.06,-0.05zm-0.07 -0.16c0.01,-0.02 0.02,-0.03 0.05,-0.03l0.59 0c0.03,0 0.04,0.01 0.06,0.03 -0.01,0.04 -0.02,0.05 -0.06,0.05l-0.59 0c-0.05,0 -0.04,-0.02 -0.05,-0.05zm0.62 -0.25l0 0.14 -0.2 0 0 -0.38c-0.04,0 -0.15,0 -0.15,-0.08 0,-0.09 0.11,-0.08 0.15,-0.08l0 -0.23 0.24 0c0,-0.04 -0.01,-0.16 0.07,-0.16 0.09,0 0.08,0.12 0.08,0.16l0.23 0c-0.03,0.16 0,0.18 -0.14,0.38 -0.03,0.05 -0.25,0.24 -0.28,0.25zm-0.97 -0.63l0.31 0c0,-0.04 -0.01,-0.16 0.07,-0.16 0.09,0 0.08,0.12 0.08,0.16l0.24 0 0 0.15c-0.21,0 -0.21,0.31 0,0.31l0 0.31 -0.28 0 0 -0.14c-0.04,-0.01 -0.25,-0.2 -0.28,-0.24 -0.15,-0.2 -0.12,-0.35 -0.14,-0.39zm0.54 -0.37c0,0.1 0.06,0.17 0.16,0.17l0 0.12 -0.16 0c0,-0.05 -0.01,-0.08 -0.04,-0.11 -0.1,-0.1 -0.27,-0.03 -0.27,0.11l-0.22 0c0,-0.11 0.03,-0.18 0.07,-0.27 0.11,-0.21 0.35,-0.35 0.62,-0.35l0 0.19c-0.1,0 -0.16,0.08 -0.16,0.14zm-0.62 0.29c0,0.24 0.03,0.35 0.16,0.52 0.07,0.09 0.13,0.12 0.2,0.18 0.08,0.07 0.07,0.03 0.07,0.16 -0.11,0.03 -0.11,0.19 0,0.22 0,0.06 0,0.11 0.03,0.14 0.04,0.03 0.03,-0.01 0.05,0.04 0.05,0.15 0.11,0.22 0.29,0.22 0.14,0 0.21,-0.12 0.24,-0.21 0.02,-0.06 0,-0.02 0.04,-0.05 0.05,-0.03 0.05,-0.07 0.05,-0.14 0.1,-0.03 0.1,-0.19 0,-0.22 0,-0.12 -0.02,-0.09 0.1,-0.19 0.18,-0.14 0.32,-0.33 0.32,-0.58l0 -0.09 -0.23 0c0,-0.21 -0.31,-0.21 -0.31,0l-0.16 0 0 -0.19c-0.04,0 -0.15,0 -0.15,-0.08 0,-0.09 0.11,-0.08 0.15,-0.08l0 -0.35c-0.19,0 -0.25,-0.01 -0.43,0.07 -0.23,0.1 -0.42,0.38 -0.42,0.63z"></path> </g> </g> </svg>