<svg xmlns="http://www.w3.org/2000/svg" xmlns:xlink="http://www.w3.org/1999/xlink" xml:space="preserve" width="91px" height="91px" style="shape-rendering:geometricPrecision; text-rendering:geometricPrecision; image-rendering:optimizeQuality; fill-rule:evenodd; clip-rule:evenodd" viewBox="0 0 19.77 19.77"> <defs> <style type="text/css"> .fil1 {fill:#083264} .fil0 {fill:white} </style> </defs> <g id="Layer_x0020_1"> <metadata id="CorelCorpID_0Corel-Layer"></metadata> <g id="_1718315925712"> <circle class="fil0" cx="9.88" cy="9.88" r="9.88"></circle> <g id="business-team-icon.svg"> <g> <path class="fil1" d="M13.62 13.45l0.24 -0.93 -0.17 -0.18c-0.07,-0.11 -0.09,-0.21 -0.05,-0.29 0.09,-0.18 0.28,-0.15 0.46,-0.15 0.18,0 0.41,-0.03 0.47,0.2 0.02,0.08 -0.01,0.16 -0.06,0.24l-0.17 0.18 0.15 0.56 0.96 -0.84 0.5 0.01c-0.17,-0.34 -0.39,-0.64 -0.65,-0.91 0.48,0.18 0.97,0.37 1.34,0.59 0.23,0.15 0.35,0.26 0.44,0.43 0.2,0.38 0.22,0.71 0.25,1.11l0.07 0.35 -2.72 0 0 0.01 -1.04 0c-0.02,0.24 -0.16,0.38 -0.43,0.4l-3.3 0 -3.35 0c-0.27,-0.02 -0.41,-0.16 -0.43,-0.4l0.09 -1.47c0.03,-0.34 0.12,-0.61 0.28,-0.82 0.1,-0.13 0.23,-0.23 0.37,-0.31 0.44,-0.25 1.49,-0.32 1.89,-0.69l0.62 1.82 0.31 -1.08 -0.15 -0.17c-0.07,-0.1 -0.08,-0.18 -0.04,-0.26 0.08,-0.16 0.25,-0.13 0.41,-0.13 0.17,0 0.37,-0.03 0.43,0.18 0.01,0.07 -0.01,0.14 -0.06,0.21l-0.15 0.17 0.31 1.08 0.56 -1.82c0.41,0.37 1.45,0.44 1.9,0.69 0.14,0.08 0.27,0.18 0.37,0.31 0.15,0.21 0.25,0.47 0.27,0.82l0.08 1.09 0 0zm-9.38 -2.01l0.41 1.22 0.21 -0.72 -0.1 -0.11c-0.05,-0.07 -0.06,-0.13 -0.03,-0.18 0.05,-0.11 0.17,-0.09 0.28,-0.09 0.11,0 0.25,-0.02 0.28,0.12 0.02,0.04 0,0.1 -0.03,0.15l-0.11 0.11 0.21 0.72 0.38 -1.22c0.06,0.05 0.13,0.09 0.22,0.13 -0.03,0.06 -0.06,0.13 -0.08,0.2 -0.07,0.19 -0.11,0.39 -0.12,0.62l0 0c0,0.01 0,0.01 0,0.02l-0.09 1.41 -0.66 0 -2.36 0c-0.18,-0.01 -0.27,-0.1 -0.28,-0.26l0.06 -0.9c0.02,-0.23 0.08,-0.41 0.19,-0.55 0.06,-0.09 0.15,-0.16 0.24,-0.21 0.3,-0.17 1.11,-0.21 1.38,-0.46l0 0zm-0.21 -1.73c-0.04,0 -0.07,0.01 -0.09,0.03 -0.01,0 -0.02,0.02 -0.03,0.03 -0.01,0.01 -0.01,0.03 -0.01,0.05 0,0.07 0.04,0.16 0.11,0.26l0 0.01 0 0 0.23 0.37c0.1,0.14 0.19,0.29 0.31,0.4 0.12,0.11 0.25,0.18 0.44,0.18 0.2,0 0.34,-0.07 0.46,-0.18 0.12,-0.12 0.22,-0.28 0.32,-0.44l0.26 -0.43c0.05,-0.12 0.07,-0.19 0.05,-0.22 -0.01,-0.03 -0.05,-0.03 -0.13,-0.03 -0.04,0.01 -0.09,0.01 -0.14,-0.02l0.13 -0.39c-0.48,-0.01 -0.8,-0.09 -1.19,-0.34 -0.13,-0.08 -0.17,-0.17 -0.29,-0.16 -0.1,0.02 -0.18,0.06 -0.24,0.13 -0.06,0.06 -0.11,0.15 -0.14,0.27l0.08 0.47c-0.04,0.02 -0.09,0.03 -0.13,0.01l0 0zm2.07 -0.12c0.06,0.02 0.1,0.05 0.13,0.1 0.04,0.08 0.02,0.2 -0.05,0.37l0 0c0,0 -0.01,0 -0.01,0.01l-0.26 0.43c-0.11,0.17 -0.21,0.34 -0.35,0.47 -0.14,0.14 -0.32,0.23 -0.57,0.23 -0.23,0 -0.4,-0.09 -0.54,-0.22 -0.14,-0.12 -0.24,-0.28 -0.34,-0.44l-0.23 -0.37c-0.09,-0.13 -0.14,-0.25 -0.14,-0.34 0,-0.05 0.01,-0.09 0.03,-0.13 0.01,-0.04 0.04,-0.07 0.08,-0.1 0.02,-0.01 0.04,-0.02 0.06,-0.03 -0.01,-0.2 -0.02,-0.44 -0.01,-0.65 0.01,-0.05 0.02,-0.1 0.03,-0.15 0.06,-0.21 0.21,-0.38 0.4,-0.5 0.06,-0.04 0.13,-0.08 0.21,-0.1 0.44,-0.17 1.03,-0.08 1.35,0.27 0.13,0.13 0.21,0.32 0.23,0.56l-0.02 0.59 0 0zm2.34 -1.63c-0.05,0 -0.09,0.02 -0.12,0.04 -0.02,0.01 -0.03,0.03 -0.04,0.04 -0.01,0.03 -0.02,0.05 -0.02,0.09 0.01,0.1 0.06,0.23 0.16,0.38l0.01 0.01 0 0 0.34 0.55c0.14,0.22 0.29,0.44 0.46,0.61 0.17,0.15 0.38,0.26 0.65,0.26 0.3,0 0.51,-0.11 0.69,-0.28 0.19,-0.17 0.33,-0.41 0.48,-0.64l0.39 -0.64c0.07,-0.18 0.1,-0.29 0.07,-0.34 -0.01,-0.04 -0.08,-0.04 -0.2,-0.03 -0.01,0 -0.01,0 -0.02,0 -0.05,0 -0.1,-0.01 -0.16,-0.04l0.18 -0.58c-0.72,-0.01 -1.21,-0.14 -1.78,-0.51 -0.19,-0.12 -0.25,-0.26 -0.44,-0.24 -0.14,0.03 -0.26,0.09 -0.36,0.19 -0.09,0.1 -0.16,0.24 -0.21,0.41l0.13 0.7c-0.08,0.04 -0.14,0.05 -0.21,0.02l0 0zm3.11 -0.18c0.08,0.03 0.14,0.08 0.18,0.15 0.06,0.12 0.04,0.3 -0.07,0.55l0 0c-0.01,0 -0.01,0.01 -0.01,0.01l-0.4 0.65c-0.15,0.25 -0.3,0.51 -0.51,0.7 -0.22,0.21 -0.49,0.34 -0.86,0.34 -0.34,0 -0.6,-0.13 -0.81,-0.32 -0.2,-0.19 -0.36,-0.43 -0.5,-0.66l-0.35 -0.55c-0.13,-0.19 -0.19,-0.37 -0.2,-0.52 0,-0.07 0.01,-0.13 0.04,-0.19 0.03,-0.06 0.07,-0.11 0.13,-0.15 0.02,-0.02 0.05,-0.03 0.09,-0.04 -0.02,-0.3 -0.03,-0.66 -0.01,-0.97 0,-0.08 0.02,-0.15 0.04,-0.22 0.09,-0.32 0.31,-0.58 0.58,-0.75 0.1,-0.06 0.21,-0.11 0.32,-0.15 0.67,-0.24 1.55,-0.11 2.02,0.4 0.19,0.21 0.31,0.48 0.34,0.85l-0.02 0.87 0 0zm1.2 3.01l0.31 0 0.25 -0.01c-0.3,-0.91 -0.2,-1.75 0.52,-2.46 0.12,0.39 0.39,0.71 0.85,0.95 0.22,0.16 0.43,0.36 0.64,0.59 0.03,-0.15 -0.1,-0.34 -0.27,-0.52 0.15,0.07 0.3,0.18 0.4,0.39 0.12,0.24 0.11,0.44 0.08,0.71 -0.02,0.12 -0.05,0.23 -0.09,0.34l0.42 0c0.44,-0.95 0.16,-2.37 -0.75,-2.97 -0.28,-0.18 -0.48,-0.17 -0.81,-0.17 -0.37,0 -0.56,0.01 -0.89,0.22 -0.47,0.31 -0.76,0.86 -0.88,1.61 -0.03,0.37 -0.04,1.02 0.22,1.32l0 0z"></path> </g> </g> </g> </g> </svg>