<svg xmlns="http://www.w3.org/2000/svg" xmlns:xlink="http://www.w3.org/1999/xlink" xml:space="preserve" width="91px" height="91px" style="shape-rendering:geometricPrecision; text-rendering:geometricPrecision; image-rendering:optimizeQuality; fill-rule:evenodd; clip-rule:evenodd" viewBox="0 0 4.38 4.38"> <defs> <style type="text/css"> .fil1 {fill:#083264} .fil0 {fill:white} </style> </defs> <g id="Layer_x0020_1"> <metadata id="CorelCorpID_0Corel-Layer"></metadata> <g id="_1718178131104"> <circle class="fil0" cx="2.19" cy="2.19" r="2.19"></circle> <path class="fil1" d="M1.48 2.68c-0.05,0.02 -0.49,0.01 -0.52,0 -0.01,-0.01 -0.03,-0.2 0.01,-0.21 0.05,-0.02 0.35,-0.01 0.43,0.06 0.03,0.02 0.09,0.11 0.08,0.15zm1.48 0.01c0,0 0,0 0,-0.01 0,-0.04 0,-0.06 -0.02,-0.07 0,0 -0.01,0 -0.02,0 0.04,-0.09 0.09,-0.11 0.19,-0.13 0.07,-0.02 0.25,-0.03 0.31,-0.01 0.01,0.03 0.02,0.18 0,0.2 -0.01,0.03 -0.05,0.02 -0.1,0.02l-0.36 0zm-1.49 0.51c0.01,-0.01 0.01,0.01 0.01,-0.02l0 -0.18 1.43 0 -0.01 0.18c0.01,0.03 0.01,0.01 0.01,0.02 0.01,0.06 0.1,0.05 0.16,0.05 0.08,0 0.15,0 0.22,0 0.06,0 0.16,0.02 0.18,-0.04 0.01,-0.03 0.01,-0.16 0.01,-0.21 0.07,-0.04 0.06,-0.04 0.06,-0.15l0 -0.42c0,-0.06 0.01,-0.16 -0.02,-0.2 0.04,-0.03 0.08,-0.06 0.12,-0.09 0.01,-0.03 0.01,-0.07 0,-0.11 -0.01,-0.03 -0.04,-0.03 -0.08,-0.03 -0.08,0 -0.17,-0.01 -0.25,0l-0.2 -0.36c-0.07,-0.09 -0.11,-0.16 -0.24,-0.19 -0.1,-0.02 -0.31,-0.01 -0.41,-0.01 -0.29,0 -0.57,0 -0.86,0 -0.1,0 -0.17,0.03 -0.23,0.08 -0.02,0.02 -0.04,0.04 -0.06,0.07 -0.02,0.03 -0.05,0.07 -0.07,0.1 -0.01,0.02 -0.02,0.04 -0.03,0.06 -0.01,0.02 -0.02,0.03 -0.02,0.06 -0.03,0.02 -0.1,0.16 -0.12,0.19 -0.05,0 -0.11,0 -0.17,0 -0.12,0 -0.17,-0.03 -0.17,0.09 0.01,0.06 0.04,0.08 0.13,0.14 -0.02,0.04 -0.02,0.05 -0.02,0.09l0 0.53c0,0.11 -0.01,0.11 0.06,0.15 0.02,0.29 -0.08,0.25 0.4,0.25 0.07,0 0.16,0.02 0.17,-0.05zm1.27 -2.05c-0.06,-0.02 -0.25,-0.02 -0.33,-0.01 -0.03,0 -0.03,0 -0.03,0.04l0 0.12c0,0.09 0,0.07 0.25,0.07 0.09,0 0.18,-0.01 0.26,0 -0.01,-0.12 -0.06,-0.19 -0.15,-0.22zm-0.73 0.22c0.05,-0.01 0.04,-0.02 0.04,-0.12 0,-0.1 0.01,-0.1 -0.03,-0.12 -0.1,0.01 -0.28,-0.01 -0.36,0.02 -0.08,0.02 -0.14,0.1 -0.15,0.21l0.5 0.01zm-0.74 0.54c0.01,-0.05 0.07,-0.13 0.1,-0.18 0.03,-0.07 0.08,-0.11 0.15,-0.14 0.08,-0.04 0.42,-0.02 0.54,-0.02 0.19,0 0.38,0 0.57,0 0.14,0 0.32,-0.01 0.39,0.18l0.18 0.3c0,0.03 -0.05,0.01 -0.11,0 -0.04,-0.01 -0.07,-0.01 -0.12,-0.02 -0.24,-0.03 -0.53,-0.03 -0.78,-0.03 -0.27,0 -0.68,0 -0.96,0.06 -0.04,0.01 -0.03,0.01 -0.05,0 0,0 0.07,-0.14 0.09,-0.15zm1.3 0.57c0.01,0.02 0.01,0.04 0,0.07 -0.03,0.03 -0.27,0.12 -0.33,0.14 -0.11,0.02 -0.29,-0.07 -0.37,-0.11 -0.04,-0.01 -0.06,-0.01 -0.07,-0.05 0,-0.05 0.01,-0.06 0.06,-0.06 0.11,0 0.67,-0.01 0.71,0.01z"></path> </g> </g> </svg>