<svg xmlns="http://www.w3.org/2000/svg" id="Layer_1" data-name="Layer 1" viewBox="0 0 91 91"><defs><style>.cls-1{fill:#fff;}.cls-2{fill:#083264;}</style></defs><circle class="cls-1" cx="45.5" cy="45.5" r="45.5"></circle><path class="cls-2" d="M18.51,35.81c-.11,1.62,0,3.27,0,5a4.24,4.24,0,0,1-2.09-3.36c-.11-1.55,0-3.12,0-4.8a4.93,4.93,0,0,0,.72.48C18.36,33.6,18.59,34.55,18.51,35.81Z"></path><path class="cls-2" d="M26.34,59.53a22.06,22.06,0,0,0,5.48,3.16,14.22,14.22,0,0,0-3.37,3.51A7.66,7.66,0,0,1,26.34,59.53Z"></path><path class="cls-2" d="M29.91,68.42a1.22,1.22,0,0,1-2,.42,10,10,0,0,1-2.64-2.93,10.11,10.11,0,0,1-1.35-6c-2,.69-3.93,1.31-5.84,2a7.3,7.3,0,0,0-4.88,6A50.09,50.09,0,0,0,13,73.77c0,.46.13.56.56.55H29.08c.43,0,.6-.11.65-.54.27-2.1.56-4.2.85-6.38A4.07,4.07,0,0,0,29.91,68.42Zm-5,4c-.71,0-1.42,0-2.12,0s-1.42,0-2.13,0a1.2,1.2,0,0,1-1.28-1.22,1.17,1.17,0,0,1,1.26-1.16q2.16,0,4.32,0a1.17,1.17,0,0,1,1.28,1.21A1.2,1.2,0,0,1,24.89,72.44Z"></path><path class="cls-2" d="M52,30.59c-9.77,7.39-25.17,7-34.24,0A103,103,0,0,1,52,30.59Z"></path><path class="cls-2" d="M37.59,73.62c.09.57,0,.75-.63.71s-1.42,0-2.12,0-1.51,0-2.26,0c-.37,0-.54,0-.48-.48.42-3,.83-6,1.25-9.07.07-.51,1.39-1.09,1.88-.9a1.92,1.92,0,0,1,1.29,1.83C36.81,68.35,37.21,71,37.59,73.62Z"></path><path class="cls-2" d="M40.84,55.4a6,6,0,0,0,1.06,1.82c.12.15.23.26,0,.44A18.37,18.37,0,0,1,35,61.12l-.17,0a15.76,15.76,0,0,1-2.49-.82,18.74,18.74,0,0,1-4.41-2.58c-.25-.19-.31-.31-.08-.57a6,6,0,0,0,1.07-1.89c.13-.37.29-.35.61-.25a17.92,17.92,0,0,0,10.58,0C40.55,54.91,40.7,55,40.84,55.4Z"></path><path class="cls-2" d="M37.9,62.69a22,22,0,0,0,5.46-3.14,6.81,6.81,0,0,1,0,2.7,7.57,7.57,0,0,1-1.78,3.63c-.15.17-.27.39-.5,0A13.11,13.11,0,0,0,37.9,62.69Z"></path><path class="cls-2" d="M48.85,35.28a31.6,31.6,0,0,1-9,2.72c-.53.08-.7.25-.64.75a1.33,1.33,0,0,1-.3,1.1,1.12,1.12,0,0,1-1.24.36,1.15,1.15,0,0,1-.83-1.27c0-.55-.17-.63-.66-.6a21.17,21.17,0,0,1-2.39,0c-.59,0-1,0-.9.77a1.12,1.12,0,0,1-1.2,1.14,1.17,1.17,0,0,1-1.14-1.14,1.48,1.48,0,0,1,0-.47c.06-.44-.12-.57-.55-.63a32,32,0,0,1-5.39-1.26c-1.25-.41-2.46-.92-3.71-1.46,0,1.84-.09,3.62,0,5.39a12.63,12.63,0,0,0,4.45,9.37,14.49,14.49,0,0,0,13.57,2.83,12.6,12.6,0,0,0,9-8C49.17,41.83,48.82,38.59,48.85,35.28ZM38.08,46.4a5,5,0,0,1-3.22,1.24,5.05,5.05,0,0,1-3.21-1.22,1.18,1.18,0,0,1-.22-1.7,1.2,1.2,0,0,1,1.65-.2c1.47,1,2.11,1,3.54,0a1.17,1.17,0,0,1,1.69.22A1.16,1.16,0,0,1,38.08,46.4Z"></path><path class="cls-2" d="M53.29,37.63a4.14,4.14,0,0,1-1.85,3c-.26-.16-.12-.41-.13-.62,0-2,0-4,0-6l2-1.43C53.32,34.38,53.41,36,53.29,37.63Z"></path><path class="cls-2" d="M38.21,19.27a3.35,3.35,0,0,1-6.69,0A3.31,3.31,0,0,1,34.84,16,3.34,3.34,0,0,1,38.21,19.27Z"></path><path class="cls-2" d="M52.49,17.24a25,25,0,0,0-9.64-6.3,21.5,21.5,0,0,0-8.29-2A13.31,13.31,0,0,0,33,9.1a33.29,33.29,0,0,0-10.48,4,18.69,18.69,0,0,0-6.3,5.49,8.87,8.87,0,0,0-.69,9.62c.13.26.2.4.59.32A87.24,87.24,0,0,1,28.78,27a98.43,98.43,0,0,1,14.16.14A82.52,82.52,0,0,1,53.66,28.5c.26.05.39,0,.52-.22a10,10,0,0,0,1.1-3.77A9.69,9.69,0,0,0,52.49,17.24ZM34.87,25a5.74,5.74,0,1,1,5.72-5.72A5.79,5.79,0,0,1,34.87,25Z"></path><path class="cls-2" d="M56.64,68.92a7.3,7.3,0,0,0-4.35-6.75,66.25,66.25,0,0,0-6.43-2.3c0,.28,0,.5,0,.72a9.86,9.86,0,0,1-4,8.27,1.21,1.21,0,0,1-2-.42c-.17-.27-.24-.63-.67-.84.3,2.12.6,4.14.84,6.16.07.49.25.57.69.56H56.09c.42,0,.59-.07.58-.54C56.63,72.16,56.7,70.54,56.64,68.92ZM49.1,72.44c-.73,0-1.46,0-2.19,0s-1.42,0-2.12,0a1.21,1.21,0,0,1-1.3-1.21,1.18,1.18,0,0,1,1.26-1.17c1.46,0,2.93,0,4.39,0a1.15,1.15,0,0,1,1.21,1.21A1.17,1.17,0,0,1,49.1,72.44Z"></path><path class="cls-2" d="M67.48,58.26c1.41,0,2.74,0,4.06,0a1.43,1.43,0,0,1,1.14.36,1.12,1.12,0,0,1,.3,1.19,1.09,1.09,0,0,1-1.06.83q-2.91,0-5.82,0A1.12,1.12,0,0,1,65,59.44a4.78,4.78,0,0,1,2.66-4.72c.71-.36,1.45-.66,2.16-1a1.38,1.38,0,0,0,.8-1.82,1.62,1.62,0,0,0-1.69-1.12,1.6,1.6,0,0,0-1.54,1.38c0,.16,0,.33,0,.48a1.17,1.17,0,0,1-1.29,1A1.14,1.14,0,0,1,65,52.41a3.92,3.92,0,0,1,4.46-4,4,4,0,0,1,3.48,5.22,3.13,3.13,0,0,1-1.65,2c-.75.39-1.53.72-2.28,1.1A2.64,2.64,0,0,0,67.48,58.26Z"></path><path class="cls-2" d="M81.15,55.52c-.34-.12-.39-.3-.38-.6,0-.87,0-1.74,0-2.6s0-1.69,0-2.54A1.21,1.21,0,0,0,78.52,49q-2.38,3.38-4.79,6.74a1.23,1.23,0,0,0,1,2c.69,0,1.37,0,2.06,0,.51,0,1.18-.22,1.5.13s.07.9.09,1.38a1.27,1.27,0,0,0,0,.2,1.17,1.17,0,0,0,2.34,0c0-.41,0-.82,0-1.23s0-.5.37-.62a1.16,1.16,0,0,0,0-2.13Zm-2.73-1.35c0,1.29,0,1.29-1.46,1.17l1.32-1.86.14,0Z"></path><path class="cls-2" d="M80.57,65.9a15.19,15.19,0,0,1-3.89,1.79,13.39,13.39,0,1,1-6.77-25.91A13,13,0,0,1,81,44c.17.13.33.25.48.39A1.18,1.18,0,1,1,80,46.16,11.48,11.48,0,0,0,75.68,44a11.23,11.23,0,0,0-13.42,8.47,11,11,0,0,0,8.88,13.13,10.87,10.87,0,0,0,7.42-1.32c-.09-.19-.25-.15-.37-.19a1.13,1.13,0,0,1-.84-1.26,1.1,1.1,0,0,1,1.08-1c1.28,0,2.56,0,3.84.09.52,0,.73.45,1,.83-.23,0-.31-.15-.42-.28a.91.91,0,0,0-.65-.34c-1.12,0-2.23-.23-3.35-.15a1.28,1.28,0,0,0-1.15.62c-.25.48-.08.93.5,1.3s.57.51,0,.83a9.35,9.35,0,0,1-3.69,1.18,11.12,11.12,0,0,1-8.88-2.77,10.88,10.88,0,0,1-3.76-8.28A11.37,11.37,0,0,1,72.27,43.62a11.07,11.07,0,0,1,7.52,2.16c.81.57,1.42.59,1.8,0s.2-1.08-.61-1.65a13.34,13.34,0,0,0-21,8.93,12.61,12.61,0,0,0,3.12,10.36,13.11,13.11,0,0,0,16.56,2.8,4.39,4.39,0,0,1,.47-.27C80.3,65.88,80.46,65.84,80.57,65.9Z"></path><path class="cls-2" d="M83.23,64.52A5,5,0,0,0,83,66.36a1.55,1.55,0,0,1-.46,1.1,1.16,1.16,0,0,1-1.23.19,1.14,1.14,0,0,1-.72-1,6.8,6.8,0,0,1,0-.74c.1.06.16.2.18.44,0,.81.38,1.17,1,1.17s1-.43,1-1.2a14,14,0,0,1,.18-1.43C83,64.73,83,64.5,83.23,64.52Z"></path><path class="cls-2" d="M83.23,62.74v1.78A5,5,0,0,0,83,66.36a1.55,1.55,0,0,1-.46,1.1,1.16,1.16,0,0,1-1.23.19,1.14,1.14,0,0,1-.72-1,6.8,6.8,0,0,1,0-.74s0,0,0,0h0a15.19,15.19,0,0,1-3.89,1.79,13.39,13.39,0,1,1-6.77-25.91A13,13,0,0,1,81,44c.17.13.33.25.48.39A1.18,1.18,0,1,1,80,46.16,11.48,11.48,0,0,0,75.68,44a11.23,11.23,0,0,0-13.42,8.47,11,11,0,0,0,8.88,13.13,10.87,10.87,0,0,0,7.42-1.32c-.09-.19-.25-.15-.37-.19a1.13,1.13,0,0,1-.84-1.26,1.1,1.1,0,0,1,1.08-1c1.28,0,2.56,0,3.84.09C82.79,61.93,83,62.36,83.23,62.74Z"></path><path class="cls-2" d="M38.21,19.27a3.35,3.35,0,0,1-6.69,0A3.31,3.31,0,0,1,34.84,16,3.34,3.34,0,0,1,38.21,19.27Z"></path><path class="cls-2" d="M52.49,17.24a25,25,0,0,0-9.64-6.3,21.5,21.5,0,0,0-8.29-2A13.31,13.31,0,0,0,33,9.1a33.29,33.29,0,0,0-10.48,4,18.69,18.69,0,0,0-6.3,5.49,8.87,8.87,0,0,0-.69,9.62c.13.26.2.4.59.32A87.24,87.24,0,0,1,28.78,27a98.43,98.43,0,0,1,14.16.14A82.52,82.52,0,0,1,53.66,28.5c.26.05.39,0,.52-.22a10,10,0,0,0,1.1-3.77A9.69,9.69,0,0,0,52.49,17.24ZM34.87,25a5.74,5.74,0,1,1,5.72-5.72A5.79,5.79,0,0,1,34.87,25Z"></path><path class="cls-2" d="M48.85,35.28a31.6,31.6,0,0,1-9,2.72c-.53.08-.7.25-.64.75a1.33,1.33,0,0,1-.3,1.1,1.12,1.12,0,0,1-1.24.36,1.15,1.15,0,0,1-.83-1.27c0-.55-.17-.63-.66-.6a21.17,21.17,0,0,1-2.39,0c-.59,0-1,0-.9.77a1.12,1.12,0,0,1-1.2,1.14,1.17,1.17,0,0,1-1.14-1.14,1.48,1.48,0,0,1,0-.47c.06-.44-.12-.57-.55-.63a32,32,0,0,1-5.39-1.26c-1.25-.41-2.46-.92-3.71-1.46,0,1.84-.09,3.62,0,5.39a12.63,12.63,0,0,0,4.45,9.37,14.49,14.49,0,0,0,13.57,2.83,12.6,12.6,0,0,0,9-8C49.17,41.83,48.82,38.59,48.85,35.28ZM38.08,46.4a5,5,0,0,1-3.22,1.24,5.05,5.05,0,0,1-3.21-1.22,1.18,1.18,0,0,1-.22-1.7,1.2,1.2,0,0,1,1.65-.2c1.47,1,2.11,1,3.54,0a1.17,1.17,0,0,1,1.69.22A1.16,1.16,0,0,1,38.08,46.4Z"></path><path class="cls-2" d="M52,30.59c-9.77,7.39-25.17,7-34.24,0A103,103,0,0,1,52,30.59Z"></path><path class="cls-2" d="M29.91,68.42a1.22,1.22,0,0,1-2,.42,10,10,0,0,1-2.64-2.93,10.11,10.11,0,0,1-1.35-6c-2,.69-3.93,1.31-5.84,2a7.3,7.3,0,0,0-4.88,6A50.09,50.09,0,0,0,13,73.77c0,.46.13.56.56.55H29.08c.43,0,.6-.11.65-.54.27-2.1.56-4.2.85-6.38A4.07,4.07,0,0,0,29.91,68.42Zm-5,4c-.71,0-1.42,0-2.12,0s-1.42,0-2.13,0a1.2,1.2,0,0,1-1.28-1.22,1.17,1.17,0,0,1,1.26-1.16q2.16,0,4.32,0a1.17,1.17,0,0,1,1.28,1.21A1.2,1.2,0,0,1,24.89,72.44Z"></path><path class="cls-2" d="M56.64,68.92a7.3,7.3,0,0,0-4.35-6.75,66.25,66.25,0,0,0-6.43-2.3c0,.28,0,.5,0,.72a9.86,9.86,0,0,1-4,8.27,1.21,1.21,0,0,1-2-.42c-.17-.27-.24-.63-.67-.84.3,2.12.6,4.14.84,6.16.07.49.25.57.69.56H56.09c.42,0,.59-.07.58-.54C56.63,72.16,56.7,70.54,56.64,68.92ZM49.1,72.44c-.73,0-1.46,0-2.19,0s-1.42,0-2.12,0a1.21,1.21,0,0,1-1.3-1.21,1.18,1.18,0,0,1,1.26-1.17c1.46,0,2.93,0,4.39,0a1.15,1.15,0,0,1,1.21,1.21A1.17,1.17,0,0,1,49.1,72.44Z"></path><path class="cls-2" d="M72.68,58.62a1.12,1.12,0,0,1,.3,1.19,1.09,1.09,0,0,1-1.06.83q-2.91,0-5.82,0A1.12,1.12,0,0,1,65,59.44a4.78,4.78,0,0,1,2.66-4.72c.71-.36,1.45-.66,2.16-1a1.38,1.38,0,0,0,.8-1.82,1.62,1.62,0,0,0-1.69-1.12,1.6,1.6,0,0,0-1.54,1.38c0,.16,0,.33,0,.48a1.17,1.17,0,0,1-1.29,1A1.14,1.14,0,0,1,65,52.41a3.92,3.92,0,0,1,4.46-4,4,4,0,0,1,3.48,5.22,3.13,3.13,0,0,1-1.65,2c-.75.39-1.53.72-2.28,1.1a2.64,2.64,0,0,0-1.49,1.56c1.41,0,2.74,0,4.06,0A1.43,1.43,0,0,1,72.68,58.62Z"></path><path class="cls-2" d="M41.91,57.66A18.37,18.37,0,0,1,35,61.12l-.17,0a15.76,15.76,0,0,1-2.49-.82,18.74,18.74,0,0,1-4.41-2.58c-.25-.19-.31-.31-.08-.57a6,6,0,0,0,1.07-1.89c.13-.37.29-.35.61-.25a17.92,17.92,0,0,0,10.58,0c.44-.14.59-.06.73.35a6,6,0,0,0,1.06,1.82C42,57.37,42.13,57.48,41.91,57.66Z"></path><path class="cls-2" d="M81.15,55.52c-.34-.12-.39-.3-.38-.6,0-.87,0-1.74,0-2.6s0-1.69,0-2.54A1.21,1.21,0,0,0,78.52,49q-2.38,3.38-4.79,6.74a1.23,1.23,0,0,0,1,2c.69,0,1.37,0,2.06,0,.51,0,1.18-.22,1.5.13s.07.9.09,1.38a1.27,1.27,0,0,0,0,.2,1.17,1.17,0,0,0,2.34,0c0-.41,0-.82,0-1.23s0-.5.37-.62a1.16,1.16,0,0,0,0-2.13Zm-2.73-1.35c0,1.29,0,1.29-1.46,1.17l1.32-1.86.14,0Z"></path><path class="cls-2" d="M37,74.33c-.71-.06-1.42,0-2.12,0s-1.51,0-2.26,0c-.37,0-.54,0-.48-.48.42-3,.83-6,1.25-9.07.07-.51,1.39-1.09,1.88-.9a1.92,1.92,0,0,1,1.29,1.83c.29,2.65.69,5.28,1.07,7.92C37.68,74.19,37.55,74.37,37,74.33Z"></path><path class="cls-2" d="M31.82,62.69a14.22,14.22,0,0,0-3.37,3.51,7.66,7.66,0,0,1-2.11-6.67A22.06,22.06,0,0,0,31.82,62.69Z"></path><path class="cls-2" d="M43.35,62.25a7.57,7.57,0,0,1-1.78,3.63c-.15.17-.27.39-.5,0a13.11,13.11,0,0,0-3.17-3.23,22,22,0,0,0,5.46-3.14A6.81,6.81,0,0,1,43.35,62.25Z"></path><path class="cls-2" d="M18.51,35.81c-.11,1.62,0,3.27,0,5a4.24,4.24,0,0,1-2.09-3.36c-.11-1.55,0-3.12,0-4.8a4.93,4.93,0,0,0,.72.48C18.36,33.6,18.59,34.55,18.51,35.81Z"></path><path class="cls-2" d="M53.29,37.63a4.14,4.14,0,0,1-1.85,3c-.26-.16-.12-.41-.13-.62,0-2,0-4,0-6l2-1.43C53.32,34.38,53.41,36,53.29,37.63Z"></path><path class="cls-2" d="M38.21,19.27a3.35,3.35,0,0,1-6.69,0A3.31,3.31,0,0,1,34.84,16,3.34,3.34,0,0,1,38.21,19.27Z"></path><path class="cls-2" d="M38.21,19.27a3.35,3.35,0,0,1-6.69,0A3.31,3.31,0,0,1,34.84,16,3.34,3.34,0,0,1,38.21,19.27Z"></path></svg>