<svg xmlns="http://www.w3.org/2000/svg" id="Layer_1" data-name="Layer 1" viewBox="0 0 91 91"><defs><style>.cls-1{fill:#fff;}.cls-2{fill:#083264;}</style></defs><circle class="cls-1" cx="45.5" cy="45.5" r="45.5"></circle><path class="cls-2" d="M38,11c-.25-.23-.3-.39,0-.63s.67-.66,1-1l.27-.24.31.27c.92.93,1.84,1.86,2.78,2.77.22.22.25.36,0,.58a10.6,10.6,0,0,0-1,1c-.24.29-.39.21-.62,0C39.8,12.83,38.89,11.92,38,11Z" transform="translate(0.04 0)"></path><path class="cls-2" d="M44.06,11.56c0-.92,0-1.85,0-2.77a1.29,1.29,0,0,1,.21.9c0,.9,0,1.8,0,2.71,0,.6.11.65.9.66.47,0,.85,0,.84-.66,0-.91,0-1.81,0-2.71a1.24,1.24,0,0,1,.21-.9c0,1.35,0,2.7,0,4.06,0,.31-.07.41-.41.42C44.05,13.35,44.05,13.36,44.06,11.56Z" transform="translate(0.04 0)"></path><path class="cls-2" d="M47.71,12.5l3.18-3.18c.13-.14.25-.18.38,0l.1.1c1.38,1.23,1.38,1.23.07,2.54-.63.62-1.25,1.24-1.86,1.87-.2.2-.32.23-.53,0C48.63,13.37,48.19,13,47.71,12.5Z" transform="translate(0.04 0)"></path><path class="cls-2" d="M79.87,41.4c0,.65,0,1.31,0,2a3.36,3.36,0,0,1-3.43,3.5c-1.18,0-2.35,0-3.53,0a1.15,1.15,0,0,0-.69.09c.37.47.73.92,1.08,1.38a10,10,0,0,1,2.09,6.23q0,10.07,0,20.14a3.36,3.36,0,0,1-3.49,3.5H67.76a3.38,3.38,0,0,1-3.57-3.57c0-1.63,0-3.25,0-4.88,0-.43-.12-.52-.53-.52q-18.51,0-37,0c-.49,0-.53.19-.53.58,0,1.59,0,3.17,0,4.75a3.4,3.4,0,0,1-3.64,3.64c-1.38,0-2.76,0-4.14,0a3.33,3.33,0,0,1-3.42-3.42q0-10.17,0-20.34A10,10,0,0,1,17.27,48l.79-1s0,0,0-.14c-1,0-2-.06-3,0-2.12.16-3.76-.46-4.6-2.57.33,0,.39.27.5.49A3.26,3.26,0,0,0,14,46.67c1.06,0,2.12,0,3.18,0a3.07,3.07,0,0,1,.68,0c.32.07.4.25.23.54a8.17,8.17,0,0,1-.61.81,10.27,10.27,0,0,0-2.36,6.7q0,9.8,0,19.58a3.92,3.92,0,0,0,.28,1.73A3.07,3.07,0,0,0,18.23,78c1.53.05,3.07,0,4.61,0a3.11,3.11,0,0,0,3-2.62A23.9,23.9,0,0,0,26,71.78c0-.65,0-1.31,0-2a.68.68,0,0,1,.75-.76h.68q17.73,0,35.45,0c1.45,0,1.48,0,1.48,1.47,0,1.27,0,2.53,0,3.8a3.59,3.59,0,0,0,1,2.77,3.24,3.24,0,0,0,2.27.9c1.4,0,2.8,0,4.2,0a3.18,3.18,0,0,0,3.32-3.34c0-6.8,0-13.6,0-20.4a9.58,9.58,0,0,0-1.92-5.63c-.29-.4-.63-.77-.91-1.18s-.26-.72.37-.75c1.2-.05,2.4,0,3.6,0a3.16,3.16,0,0,0,3.21-2.41,8.69,8.69,0,0,0,0-3.83,3,3,0,0,0-2.93-2.29c-1.58,0-3.16,0-4.74,0-1,0-1.11-.13-1.13-1.14a31.93,31.93,0,0,0-.11-3.79,9.89,9.89,0,0,0-8.36-8.44,7.81,7.81,0,0,0-1.08-.05H49.58c-1.14,0-1.22-.09-1.23-1.24,0-1.44,0-1.47,1.48-1.47h9.42c1.92,0,2.78-1.07,2.39-2.93a4.18,4.18,0,0,0-4-3.31H32.68a4.25,4.25,0,0,0-4.11,4.07A2,2,0,0,0,30.63,22c1.15.05,2.3,0,3.45,0,2.26,0,4.52,0,6.78,0,1,0,1.1.14,1.12,1.09,0,1.6,0,1.62-1.6,1.62H29.19a9.84,9.84,0,0,0-9.44,8.19A31.52,31.52,0,0,0,19.61,37c0,1-.13,1.1-1.09,1.11-1.49,0-3,0-4.48,0A3.18,3.18,0,0,0,10.93,40c-.11.21-.15.49-.48.5.2-.09.16-.31.23-.46a3.26,3.26,0,0,1,3.09-2.13c1.7,0,3.39,0,5.08,0,.45,0,.57-.11.57-.55a23.89,23.89,0,0,1,.24-5.07,10,10,0,0,1,9.25-7.79c4.06-.1,8.13-.05,12.2,0,.58,0,.71-.16.7-.72,0-1.55,0-1.55-1.58-1.55H30.8a2.27,2.27,0,0,1-2.39-2.84,4.4,4.4,0,0,1,4.32-3.84c1.63-.06,3.26,0,4.88,0H57.14a4.49,4.49,0,0,1,4.78,3.87,2.28,2.28,0,0,1-2.42,2.83q-5.18,0-10.37,0c-.45,0-.62.08-.61.58,0,1.69,0,1.69,1.67,1.69,3.5,0,7,0,10.5,0a10,10,0,0,1,10,8.12,23.36,23.36,0,0,1,.19,4.73c0,.45.09.62.58.61,1.63,0,3.26,0,4.88,0A3.33,3.33,0,0,1,79.87,41.4Z" transform="translate(0.04 0)"></path><path class="cls-2" d="M50.76,58.58c0-.38-.06-.55-.51-.55-3.38,0-6.77,0-10.15,0-.42,0-.54.12-.53.53,0,1.9,0,3.79,0,5.69,0,.48.17.54.58.53,1.67,0,3.34,0,5,0s3.39,0,5.08,0c.41,0,.54-.09.53-.52C50.74,62.37,50.74,60.48,50.76,58.58Zm-3.9,3.94c-1.51,0-3,0-4.53,0-.39,0-.54-.07-.55-.51,0-1.72,0-1.72,1.69-1.72h1.76c.92,0,1.84,0,2.77,0,.38,0,.54.06.55.5C48.56,62.52,48.58,62.52,46.86,62.52Zm3.9-3.94c0-.38-.06-.55-.51-.55-3.38,0-6.77,0-10.15,0-.42,0-.54.12-.53.53,0,1.9,0,3.79,0,5.69,0,.48.17.54.58.53,1.67,0,3.34,0,5,0s3.39,0,5.08,0c.41,0,.54-.09.53-.52C50.74,62.37,50.74,60.48,50.76,58.58Zm-3.9,3.94c-1.51,0-3,0-4.53,0-.39,0-.54-.07-.55-.51,0-1.72,0-1.72,1.69-1.72h1.76c.92,0,1.84,0,2.77,0,.38,0,.54.06.55.5C48.56,62.52,48.58,62.52,46.86,62.52Zm3.9-3.94c0-.38-.06-.55-.51-.55-3.38,0-6.77,0-10.15,0-.42,0-.54.12-.53.53,0,1.9,0,3.79,0,5.69,0,.48.17.54.58.53,1.67,0,3.34,0,5,0s3.39,0,5.08,0c.41,0,.54-.09.53-.52C50.74,62.37,50.74,60.48,50.76,58.58Zm-3.9,3.94c-1.51,0-3,0-4.53,0-.39,0-.54-.07-.55-.51,0-1.72,0-1.72,1.69-1.72h1.76c.92,0,1.84,0,2.77,0,.38,0,.54.06.55.5C48.56,62.52,48.58,62.52,46.86,62.52Zm3.9-3.94c0-.38-.06-.55-.51-.55-3.38,0-6.77,0-10.15,0-.42,0-.54.12-.53.53,0,1.9,0,3.79,0,5.69,0,.48.17.54.58.53,1.67,0,3.34,0,5,0s3.39,0,5.08,0c.41,0,.54-.09.53-.52C50.74,62.37,50.74,60.48,50.76,58.58Zm-3.9,3.94c-1.51,0-3,0-4.53,0-.39,0-.54-.07-.55-.51,0-1.72,0-1.72,1.69-1.72h1.76c.92,0,1.84,0,2.77,0,.38,0,.54.06.55.5C48.56,62.52,48.58,62.52,46.86,62.52Zm3.9-3.94c0-.38-.06-.55-.51-.55-3.38,0-6.77,0-10.15,0-.42,0-.54.12-.53.53,0,1.9,0,3.79,0,5.69,0,.48.17.54.58.53,1.67,0,3.34,0,5,0s3.39,0,5.08,0c.41,0,.54-.09.53-.52C50.74,62.37,50.74,60.48,50.76,58.58Zm-3.9,3.94c-1.51,0-3,0-4.53,0-.39,0-.54-.07-.55-.51,0-1.72,0-1.72,1.69-1.72h1.76c.92,0,1.84,0,2.77,0,.38,0,.54.06.55.5C48.56,62.52,48.58,62.52,46.86,62.52Zm3.9-3.94c0-.38-.06-.55-.51-.55-3.38,0-6.77,0-10.15,0-.42,0-.54.12-.53.53,0,1.9,0,3.79,0,5.69,0,.48.17.54.58.53,1.67,0,3.34,0,5,0s3.39,0,5.08,0c.41,0,.54-.09.53-.52C50.74,62.37,50.74,60.48,50.76,58.58Zm-3.9,3.94c-1.51,0-3,0-4.53,0-.39,0-.54-.07-.55-.51,0-1.72,0-1.72,1.69-1.72h1.76c.92,0,1.84,0,2.77,0,.38,0,.54.06.55.5C48.56,62.52,48.58,62.52,46.86,62.52Zm3.9-3.94c0-.38-.06-.55-.51-.55-3.38,0-6.77,0-10.15,0-.42,0-.54.12-.53.53,0,1.9,0,3.79,0,5.69,0,.48.17.54.58.53,1.67,0,3.34,0,5,0s3.39,0,5.08,0c.41,0,.54-.09.53-.52C50.74,62.37,50.74,60.48,50.76,58.58Zm-3.9,3.94c-1.51,0-3,0-4.53,0-.39,0-.54-.07-.55-.51,0-1.72,0-1.72,1.69-1.72h1.76c.92,0,1.84,0,2.77,0,.38,0,.54.06.55.5C48.56,62.52,48.58,62.52,46.86,62.52Zm3.9-3.94c0-.38-.06-.55-.51-.55-3.38,0-6.77,0-10.15,0-.42,0-.54.12-.53.53,0,1.9,0,3.79,0,5.69,0,.48.17.54.58.53,1.67,0,3.34,0,5,0s3.39,0,5.08,0c.41,0,.54-.09.53-.52C50.74,62.37,50.74,60.48,50.76,58.58Zm-3.9,3.94c-1.51,0-3,0-4.53,0-.39,0-.54-.07-.55-.51,0-1.72,0-1.72,1.69-1.72h1.76c.92,0,1.84,0,2.77,0,.38,0,.54.06.55.5C48.56,62.52,48.58,62.52,46.86,62.52Zm3.9-3.94c0-.38-.06-.55-.51-.55-3.38,0-6.77,0-10.15,0-.42,0-.54.12-.53.53,0,1.9,0,3.79,0,5.69,0,.48.17.54.58.53,1.67,0,3.34,0,5,0s3.39,0,5.08,0c.41,0,.54-.09.53-.52C50.74,62.37,50.74,60.48,50.76,58.58Zm-3.9,3.94c-1.51,0-3,0-4.53,0-.39,0-.54-.07-.55-.51,0-1.72,0-1.72,1.69-1.72h1.76c.92,0,1.84,0,2.77,0,.38,0,.54.06.55.5C48.56,62.52,48.58,62.52,46.86,62.52Zm3.9-3.94c0-.38-.06-.55-.51-.55-3.38,0-6.77,0-10.15,0-.42,0-.54.12-.53.53,0,1.9,0,3.79,0,5.69,0,.48.17.54.58.53,1.67,0,3.34,0,5,0s3.39,0,5.08,0c.41,0,.54-.09.53-.52C50.74,62.37,50.74,60.48,50.76,58.58Zm-3.9,3.94c-1.51,0-3,0-4.53,0-.39,0-.54-.07-.55-.51,0-1.72,0-1.72,1.69-1.72h1.76c.92,0,1.84,0,2.77,0,.38,0,.54.06.55.5C48.56,62.52,48.58,62.52,46.86,62.52Zm3.9-3.94c0-.38-.06-.55-.51-.55-3.38,0-6.77,0-10.15,0-.42,0-.54.12-.53.53,0,1.9,0,3.79,0,5.69,0,.48.17.54.58.53,1.67,0,3.34,0,5,0s3.39,0,5.08,0c.41,0,.54-.09.53-.52C50.74,62.37,50.74,60.48,50.76,58.58Zm-3.9,3.94c-1.51,0-3,0-4.53,0-.39,0-.54-.07-.55-.51,0-1.72,0-1.72,1.69-1.72h1.76c.92,0,1.84,0,2.77,0,.38,0,.54.06.55.5C48.56,62.52,48.58,62.52,46.86,62.52Zm3.9-3.94c0-.38-.06-.55-.51-.55-3.38,0-6.77,0-10.15,0-.42,0-.54.12-.53.53,0,1.9,0,3.79,0,5.69,0,.48.17.54.58.53,1.67,0,3.34,0,5,0s3.39,0,5.08,0c.41,0,.54-.09.53-.52C50.74,62.37,50.74,60.48,50.76,58.58Zm-3.9,3.94c-1.51,0-3,0-4.53,0-.39,0-.54-.07-.55-.51,0-1.72,0-1.72,1.69-1.72h1.76c.92,0,1.84,0,2.77,0,.38,0,.54.06.55.5C48.56,62.52,48.58,62.52,46.86,62.52Zm3.9-3.94c0-.38-.06-.55-.51-.55-3.38,0-6.77,0-10.15,0-.42,0-.54.12-.53.53,0,1.9,0,3.79,0,5.69,0,.48.17.54.58.53,1.67,0,3.34,0,5,0s3.39,0,5.08,0c.41,0,.54-.09.53-.52C50.74,62.37,50.74,60.48,50.76,58.58Zm-3.9,3.94c-1.51,0-3,0-4.53,0-.39,0-.54-.07-.55-.51,0-1.72,0-1.72,1.69-1.72h1.76c.92,0,1.84,0,2.77,0,.38,0,.54.06.55.5C48.56,62.52,48.58,62.52,46.86,62.52Zm3.9-3.94c0-.38-.06-.55-.51-.55-3.38,0-6.77,0-10.15,0-.42,0-.54.12-.53.53,0,1.9,0,3.79,0,5.69,0,.48.17.54.58.53,1.67,0,3.34,0,5,0s3.39,0,5.08,0c.41,0,.54-.09.53-.52C50.74,62.37,50.74,60.48,50.76,58.58Zm-3.9,3.94c-1.51,0-3,0-4.53,0-.39,0-.54-.07-.55-.51,0-1.72,0-1.72,1.69-1.72h1.76c.92,0,1.84,0,2.77,0,.38,0,.54.06.55.5C48.56,62.52,48.58,62.52,46.86,62.52Zm3.9-3.94c0-.38-.06-.55-.51-.55-3.38,0-6.77,0-10.15,0-.42,0-.54.12-.53.53,0,1.9,0,3.79,0,5.69,0,.48.17.54.58.53,1.67,0,3.34,0,5,0s3.39,0,5.08,0c.41,0,.54-.09.53-.52C50.74,62.37,50.74,60.48,50.76,58.58Zm-3.9,3.94c-1.51,0-3,0-4.53,0-.39,0-.54-.07-.55-.51,0-1.72,0-1.72,1.69-1.72h1.76c.92,0,1.84,0,2.77,0,.38,0,.54.06.55.5C48.56,62.52,48.58,62.52,46.86,62.52Zm3.9-3.94c0-.38-.06-.55-.51-.55-3.38,0-6.77,0-10.15,0-.42,0-.54.12-.53.53,0,1.9,0,3.79,0,5.69,0,.48.17.54.58.53,1.67,0,3.34,0,5,0s3.39,0,5.08,0c.41,0,.54-.09.53-.52C50.74,62.37,50.74,60.48,50.76,58.58Zm-3.9,3.94c-1.51,0-3,0-4.53,0-.39,0-.54-.07-.55-.51,0-1.72,0-1.72,1.69-1.72h1.76c.92,0,1.84,0,2.77,0,.38,0,.54.06.55.5C48.56,62.52,48.58,62.52,46.86,62.52Zm29.51-24.6c-1.62,0-3.25,0-4.88,0-.49,0-.58-.16-.58-.61a23.36,23.36,0,0,0-.19-4.73,10,10,0,0,0-10-8.12c-3.5,0-7,0-10.5,0-1.67,0-1.65,0-1.67-1.69,0-.5.16-.58.61-.58q5.19,0,10.37,0a2.28,2.28,0,0,0,2.42-2.83,4.49,4.49,0,0,0-4.78-3.87H37.61c-1.62,0-3.25,0-4.88,0a4.4,4.4,0,0,0-4.32,3.84,2.27,2.27,0,0,0,2.39,2.84h9.43c1.57,0,1.54,0,1.58,1.55,0,.56-.12.72-.7.72-4.07,0-8.14-.08-12.2,0a10,10,0,0,0-9.25,7.79,23.89,23.89,0,0,0-.24,5.07c0,.44-.12.56-.57.55-1.69,0-3.38,0-5.08,0a3.26,3.26,0,0,0-3.09,2.13c-.07.15,0,.37-.23.46v3.8c.84,2.11,2.48,2.73,4.6,2.57,1-.07,2,0,3,0,0,.1,0,.13,0,.14l-.79,1a10,10,0,0,0-2.33,6.42q0,10.17,0,20.34a3.33,3.33,0,0,0,3.42,3.42c1.38,0,2.76,0,4.14,0a3.4,3.4,0,0,0,3.64-3.64c0-1.58,0-3.16,0-4.75,0-.39,0-.58.53-.58q18.51,0,37,0c.41,0,.54.09.53.52,0,1.63,0,3.25,0,4.88a3.38,3.38,0,0,0,3.57,3.57H71.9a3.36,3.36,0,0,0,3.49-3.5q0-10.08,0-20.14a10,10,0,0,0-2.09-6.23c-.35-.46-.71-.91-1.08-1.38a1.15,1.15,0,0,1,.69-.09c1.18,0,2.35,0,3.53,0a3.36,3.36,0,0,0,3.43-3.5c0-.65,0-1.31,0-2A3.33,3.33,0,0,0,76.37,37.92Zm1.25,5.52a1.07,1.07,0,0,1-1.2,1.16c-.84,0-1.67,0-2.51,0s-1.66,0-2.5,0c-.36,0-.51-.07-.5-.48,0-1.17,0-2.34,0-3.51,0-.36,0-.52.47-.52,1.65,0,3.29,0,4.94,0a1.15,1.15,0,0,1,1.31,1.28C77.65,42.09,77.65,42.77,77.62,43.44ZM66.45,74.83c0-1.73,0-3.47,0-5.21,0-.3.09-.39.38-.37s.86,0,1.29,0c1.74,0,3.47.06,5-1.15,0,2.35,0,4.58,0,6.81a1,1,0,0,1-1,1c-1.54,0-3.07,0-4.6,0A1,1,0,0,1,66.45,74.83Zm6.64-10.6a3.17,3.17,0,0,1-2.8,2.71c-1.91.09-3.83,0-5.75.06-.26,0-.38-.1-.35-.36v-.2a4,4,0,0,1,0-1.47c.19-.43.84-.24,1.27-.39a4.42,4.42,0,0,0,2.71-2.38c.16-.34.27-.39.61-.21a4.41,4.41,0,0,0,4.31-.05A12.4,12.4,0,0,1,73.09,64.23ZM24.42,67c-1.27,0-2.53,0-3.79,0a3.32,3.32,0,0,1-3.45-3.39c0-.54,0-1.07,0-1.67a4.5,4.5,0,0,0,4.52,0c.22-.12.25,0,.33.15a4.41,4.41,0,0,0,3.82,2.72c.3,0,.28.2.29.41C26.26,67,26.26,67,24.42,67Zm-6,9c-.79,0-1.21-.4-1.22-1.14,0-2.19,0-4.38,0-6.74,1.78,1.42,3.75,1.16,5.68,1.17,1,0,1,0,1,1,0,1.47,0,2.94,0,4.4,0,.89-.39,1.29-1.27,1.3Q20.51,76,18.41,76ZM12.7,43.36c0-.67,0-1.35,0-2a1.11,1.11,0,0,1,1.18-1.2c1.72,0,3.43,0,5.15,0,.3,0,.38.09.38.38,0,1.25,0,2.49,0,3.73,0,.37-.17.39-.45.38H16.4c-.82,0-1.63,0-2.44,0A1.11,1.11,0,0,1,12.7,43.36ZM18.61,50c.7-1,1.48-1.88,2.22-2.83a.68.68,0,0,1,.63-.28h9.35a.7.7,0,0,1,.61.32q2.44,3.28,4.93,6.58A2.49,2.49,0,0,0,35.1,55.6c0,.39-.39.22-.6.22-2.71,0-5.42,0-8.13,0a4.7,4.7,0,0,0-2.41.56c-.18.1-.3.2-.46-.07-1.68-2.7-3.2-3.24-6.17-2.24,0,0,0,0-.11,0A7.21,7.21,0,0,1,18.61,50ZM29.14,26.71c.83,0,1.67,0,2.51,0H60.58a7.81,7.81,0,0,1,8,6.52,8.84,8.84,0,0,1,.11,1.55c0,3.07,0,6.14,0,9.21,0,.5-.1.65-.62.64-1.62,0-1.62,0-1.62-1.59,0-2.73,0-5.47,0-8.2A5.58,5.58,0,0,0,60.58,29c-5.15,0-10.3,0-15.45,0S35,29,29.88,28.93a5.78,5.78,0,0,0-6,6c.08,3,0,6.05,0,9.08,0,.43-.08.61-.54.57s-1.23.15-1.57-.11-.11-1-.12-1.55c0-2.93-.05-5.87,0-8.8A7.75,7.75,0,0,1,29.14,26.71Zm1.56-7.38a2.26,2.26,0,0,1,2.2-1.58c1.39,0,2.79,0,4.19,0s2.8,0,4.2,0c.42,0,.51.12.52.53,0,1.74,0,1.74-1.68,1.74-3,0-6,0-8.93,0C30.61,20,30.56,19.79,30.7,19.33Zm29,.07c.09.39.08.62-.46.61-1.69,0-3.38,0-5.07,0s-3.34,0-5,0c-.48,0-.63-.15-.58-.61s-.22-1.23.1-1.56,1-.09,1.57-.09q3.59,0,7.17,0A2.29,2.29,0,0,1,59.65,19.4Zm-13.38-.56c0,1.16,0,1.16-1.17,1.16s-1.05,0-1.05-1c0-1.24,0-1.24,1.28-1.24C46.27,17.74,46.27,17.74,46.27,18.84Zm0,4.39v.07c0,1.17,0,1.17-1.16,1.17s-1.06,0-1.06-1.07,0-1.18,1.2-1.18C46.27,22.22,46.27,22.22,46.27,23.23ZM53,66.42c0,.49-.15.59-.61.59-2.43,0-4.87,0-7.31,0s-4.79,0-7.18,0c-.46,0-.62-.09-.62-.59q0-5,0-10c0-.5.16-.59.61-.58h14.5c.45,0,.62.07.61.57C53,59.73,53,63.08,53,66.42ZM30.63,41.16a3.27,3.27,0,0,1,3.3-3.24c.75,0,1.49,0,2.23,0a3.33,3.33,0,0,1,3.41,3.36c0,.95,0,1.9,0,2.84,0,.39-.12.5-.5.5-1.33,0-2.66,0-4,0s-2.66,0-4,0c-.37,0-.51-.09-.5-.48C30.64,43.14,30.6,42.15,30.63,41.16Zm13,5.7c.34,0,.41.13.41.44,0,1.94,0,3.89,0,5.83,0,.38-.14.44-.47.44H39.38a.64.64,0,0,1-.58-.25c-1.57-2.12-3.15-4.23-4.82-6.45Zm7.91,6.41a.68.68,0,0,1-.62.3H46.73c-.33,0-.47-.08-.47-.45,0-1.94,0-3.88,0-5.83,0-.32.09-.43.42-.43h9.67C54.69,49.08,53.12,51.17,51.56,53.27ZM51,44.61a3.13,3.13,0,0,1,2.75-2.2,25.67,25.67,0,0,1,2.91,0,3.18,3.18,0,0,1,2.63,1.78c.14.26.15.41-.22.41Zm2-6.74a2.24,2.24,0,1,1,4.47.06A2.24,2.24,0,0,1,53,37.87Zm6.15,3.06c-.34-.19-.38-.31-.17-.65a4.38,4.38,0,0,0-.17-5.07,4.48,4.48,0,0,0-8,2.27,4.11,4.11,0,0,0,.71,2.83c.2.29.19.42-.14.6a5.3,5.3,0,0,0-2.61,3.3c-.1.35-.26.4-.56.4-2,0-3.93,0-5.9,0-.44,0-.52-.15-.5-.55,0-1,0-1.9,0-2.84a5.53,5.53,0,0,0-5.15-5.54,13.21,13.21,0,0,0-3.92.11,5.6,5.6,0,0,0-4.35,5.3c0,1,0,2,0,3,0,.39-.05.54-.5.54-1.73,0-1.73,0-1.73-1.68V34.87a3.38,3.38,0,0,1,3.7-3.7H60.4c2.44,0,3.78,1.33,3.79,3.75,0,3,0,6,0,9,0,.58-.18.64-.7.69-1.09.1-1.8-.07-2.15-1.31A4.17,4.17,0,0,0,59.16,40.93Zm-24.4,21.6H30A4.51,4.51,0,0,0,30,58h4.8c.29,0,.31.17.31.4,0,1.23,0,2.47,0,3.71C35.1,62.4,35,62.53,34.76,62.53Zm.34,3.39C35.1,67,35.1,67,34,67s-1.16,0-1.16-1.15,0-1.07,1.09-1.07S35.1,64.78,35.1,65.92Zm-4.48,0c0,1.07,0,1.07-1.05,1.07-1.21,0-1.21,0-1.21-1.23,0-1,0-1,1-1h.13C30.62,64.78,30.62,64.78,30.62,65.93Zm-9-7.9a2.28,2.28,0,0,1-2.22,2.27,2.25,2.25,0,0,1-2.25-2.22,2.24,2.24,0,0,1,4.47,0Zm4.5,4.49a2.23,2.23,0,0,1-2.26-2.21,2.24,2.24,0,1,1,4.47,0A2.22,2.22,0,0,1,26.15,62.52Zm29.08-4.11c0-.3.12-.38.4-.37h4.69a4.53,4.53,0,0,0,0,4.48H55.61c-.29,0-.39-.1-.38-.4Q55.25,60.27,55.23,58.41Zm5.5,6.37h.13c1.11,0,1.11,0,1.11,1.13S62,67,60.89,67s-1.18,0-1.18-1.21C59.71,64.78,59.71,64.78,60.73,64.78Zm-4.71,0a1.82,1.82,0,0,0,.33,0c1.14,0,1.14,0,1.14,1.16s0,1.06-1.05,1.06c-1.21,0-1.21,0-1.21-1.24a1.34,1.34,0,0,0,0-.2C55.1,64.91,55.37,64.66,56,64.78ZM62,60.25a2.24,2.24,0,0,1,2.27-2.2,2.27,2.27,0,0,1,2.2,2.28,2.24,2.24,0,0,1-2.29,2.19A2.21,2.21,0,0,1,62,60.25Zm6.7-2.18a2.23,2.23,0,0,1,2.23-2.24A2.2,2.2,0,0,1,73.14,58a2.24,2.24,0,0,1-2.21,2.26A2.28,2.28,0,0,1,68.67,58.07Zm4.39-4a5,5,0,0,0-2.54-.52,4.41,4.41,0,0,0-3.61,2.52c-.19.39-.31.43-.67.22a4.16,4.16,0,0,0-2.14-.51H55.9c-.41,0-.68,0-.75-.55A2,2,0,0,0,54,53.79l4.93-6.6a.76.76,0,0,1,.68-.33h9.28a.76.76,0,0,1,.68.34c.69.89,1.42,1.75,2.09,2.66A7,7,0,0,1,73.06,54.11Zm-22.3,4.47c0-.38-.06-.55-.51-.55-3.38,0-6.77,0-10.15,0-.42,0-.54.12-.53.53,0,1.9,0,3.79,0,5.69,0,.48.17.54.58.53,1.67,0,3.34,0,5,0s3.39,0,5.08,0c.41,0,.54-.09.53-.52C50.74,62.37,50.74,60.48,50.76,58.58Zm-3.9,3.94c-1.51,0-3,0-4.53,0-.39,0-.54-.07-.55-.51,0-1.72,0-1.72,1.69-1.72h1.76c.92,0,1.84,0,2.77,0,.38,0,.54.06.55.5C48.56,62.52,48.58,62.52,46.86,62.52Zm3.9-3.94c0-.38-.06-.55-.51-.55-3.38,0-6.77,0-10.15,0-.42,0-.54.12-.53.53,0,1.9,0,3.79,0,5.69,0,.48.17.54.58.53,1.67,0,3.34,0,5,0s3.39,0,5.08,0c.41,0,.54-.09.53-.52C50.74,62.37,50.74,60.48,50.76,58.58Zm-3.9,3.94c-1.51,0-3,0-4.53,0-.39,0-.54-.07-.55-.51,0-1.72,0-1.72,1.69-1.72h1.76c.92,0,1.84,0,2.77,0,.38,0,.54.06.55.5C48.56,62.52,48.58,62.52,46.86,62.52Zm3.9-3.94c0-.38-.06-.55-.51-.55-3.38,0-6.77,0-10.15,0-.42,0-.54.12-.53.53,0,1.9,0,3.79,0,5.69,0,.48.17.54.58.53,1.67,0,3.34,0,5,0s3.39,0,5.08,0c.41,0,.54-.09.53-.52C50.74,62.37,50.74,60.48,50.76,58.58Zm-3.9,3.94c-1.51,0-3,0-4.53,0-.39,0-.54-.07-.55-.51,0-1.72,0-1.72,1.69-1.72h1.76c.92,0,1.84,0,2.77,0,.38,0,.54.06.55.5C48.56,62.52,48.58,62.52,46.86,62.52Zm3.9-3.94c0-.38-.06-.55-.51-.55-3.38,0-6.77,0-10.15,0-.42,0-.54.12-.53.53,0,1.9,0,3.79,0,5.69,0,.48.17.54.58.53,1.67,0,3.34,0,5,0s3.39,0,5.08,0c.41,0,.54-.09.53-.52C50.74,62.37,50.74,60.48,50.76,58.58Zm-3.9,3.94c-1.51,0-3,0-4.53,0-.39,0-.54-.07-.55-.51,0-1.72,0-1.72,1.69-1.72h1.76c.92,0,1.84,0,2.77,0,.38,0,.54.06.55.5C48.56,62.52,48.58,62.52,46.86,62.52Zm3.9-3.94c0-.38-.06-.55-.51-.55-3.38,0-6.77,0-10.15,0-.42,0-.54.12-.53.53,0,1.9,0,3.79,0,5.69,0,.48.17.54.58.53,1.67,0,3.34,0,5,0s3.39,0,5.08,0c.41,0,.54-.09.53-.52C50.74,62.37,50.74,60.48,50.76,58.58Zm-3.9,3.94c-1.51,0-3,0-4.53,0-.39,0-.54-.07-.55-.51,0-1.72,0-1.72,1.69-1.72h1.76c.92,0,1.84,0,2.77,0,.38,0,.54.06.55.5C48.56,62.52,48.58,62.52,46.86,62.52Zm3.9-3.94c0-.38-.06-.55-.51-.55-3.38,0-6.77,0-10.15,0-.42,0-.54.12-.53.53,0,1.9,0,3.79,0,5.69,0,.48.17.54.58.53,1.67,0,3.34,0,5,0s3.39,0,5.08,0c.41,0,.54-.09.53-.52C50.74,62.37,50.74,60.48,50.76,58.58Zm-3.9,3.94c-1.51,0-3,0-4.53,0-.39,0-.54-.07-.55-.51,0-1.72,0-1.72,1.69-1.72h1.76c.92,0,1.84,0,2.77,0,.38,0,.54.06.55.5C48.56,62.52,48.58,62.52,46.86,62.52Zm3.9-3.94c0-.38-.06-.55-.51-.55-3.38,0-6.77,0-10.15,0-.42,0-.54.12-.53.53,0,1.9,0,3.79,0,5.69,0,.48.17.54.58.53,1.67,0,3.34,0,5,0s3.39,0,5.08,0c.41,0,.54-.09.53-.52C50.74,62.37,50.74,60.48,50.76,58.58Zm-3.9,3.94c-1.51,0-3,0-4.53,0-.39,0-.54-.07-.55-.51,0-1.72,0-1.72,1.69-1.72h1.76c.92,0,1.84,0,2.77,0,.38,0,.54.06.55.5C48.56,62.52,48.58,62.52,46.86,62.52Zm3.9-3.94c0-.38-.06-.55-.51-.55-3.38,0-6.77,0-10.15,0-.42,0-.54.12-.53.53,0,1.9,0,3.79,0,5.69,0,.48.17.54.58.53,1.67,0,3.34,0,5,0s3.39,0,5.08,0c.41,0,.54-.09.53-.52C50.74,62.37,50.74,60.48,50.76,58.58Zm-3.9,3.94c-1.51,0-3,0-4.53,0-.39,0-.54-.07-.55-.51,0-1.72,0-1.72,1.69-1.72h1.76c.92,0,1.84,0,2.77,0,.38,0,.54.06.55.5C48.56,62.52,48.58,62.52,46.86,62.52Zm3.9-3.94c0-.38-.06-.55-.51-.55-3.38,0-6.77,0-10.15,0-.42,0-.54.12-.53.53,0,1.9,0,3.79,0,5.69,0,.48.17.54.58.53,1.67,0,3.34,0,5,0s3.39,0,5.08,0c.41,0,.54-.09.53-.52C50.74,62.37,50.74,60.48,50.76,58.58Zm-3.9,3.94c-1.51,0-3,0-4.53,0-.39,0-.54-.07-.55-.51,0-1.72,0-1.72,1.69-1.72h1.76c.92,0,1.84,0,2.77,0,.38,0,.54.06.55.5C48.56,62.52,48.58,62.52,46.86,62.52Zm3.9-3.94c0-.38-.06-.55-.51-.55-3.38,0-6.77,0-10.15,0-.42,0-.54.12-.53.53,0,1.9,0,3.79,0,5.69,0,.48.17.54.58.53,1.67,0,3.34,0,5,0s3.39,0,5.08,0c.41,0,.54-.09.53-.52C50.74,62.37,50.74,60.48,50.76,58.58Zm-3.9,3.94c-1.51,0-3,0-4.53,0-.39,0-.54-.07-.55-.51,0-1.72,0-1.72,1.69-1.72h1.76c.92,0,1.84,0,2.77,0,.38,0,.54.06.55.5C48.56,62.52,48.58,62.52,46.86,62.52Zm3.9-3.94c0-.38-.06-.55-.51-.55-3.38,0-6.77,0-10.15,0-.42,0-.54.12-.53.53,0,1.9,0,3.79,0,5.69,0,.48.17.54.58.53,1.67,0,3.34,0,5,0s3.39,0,5.08,0c.41,0,.54-.09.53-.52C50.74,62.37,50.74,60.48,50.76,58.58Zm-3.9,3.94c-1.51,0-3,0-4.53,0-.39,0-.54-.07-.55-.51,0-1.72,0-1.72,1.69-1.72h1.76c.92,0,1.84,0,2.77,0,.38,0,.54.06.55.5C48.56,62.52,48.58,62.52,46.86,62.52Zm3.9-3.94c0-.38-.06-.55-.51-.55-3.38,0-6.77,0-10.15,0-.42,0-.54.12-.53.53,0,1.9,0,3.79,0,5.69,0,.48.17.54.58.53,1.67,0,3.34,0,5,0s3.39,0,5.08,0c.41,0,.54-.09.53-.52C50.74,62.37,50.74,60.48,50.76,58.58Zm-3.9,3.94c-1.51,0-3,0-4.53,0-.39,0-.54-.07-.55-.51,0-1.72,0-1.72,1.69-1.72h1.76c.92,0,1.84,0,2.77,0,.38,0,.54.06.55.5C48.56,62.52,48.58,62.52,46.86,62.52Zm3.9-3.94c0-.38-.06-.55-.51-.55-3.38,0-6.77,0-10.15,0-.42,0-.54.12-.53.53,0,1.9,0,3.79,0,5.69,0,.48.17.54.58.53,1.67,0,3.34,0,5,0s3.39,0,5.08,0c.41,0,.54-.09.53-.52C50.74,62.37,50.74,60.48,50.76,58.58Zm-3.9,3.94c-1.51,0-3,0-4.53,0-.39,0-.54-.07-.55-.51,0-1.72,0-1.72,1.69-1.72h1.76c.92,0,1.84,0,2.77,0,.38,0,.54.06.55.5C48.56,62.52,48.58,62.52,46.86,62.52Zm3.9-3.94c0-.38-.06-.55-.51-.55-3.38,0-6.77,0-10.15,0-.42,0-.54.12-.53.53,0,1.9,0,3.79,0,5.69,0,.48.17.54.58.53,1.67,0,3.34,0,5,0s3.39,0,5.08,0c.41,0,.54-.09.53-.52C50.74,62.37,50.74,60.48,50.76,58.58Zm-3.9,3.94c-1.51,0-3,0-4.53,0-.39,0-.54-.07-.55-.51,0-1.72,0-1.72,1.69-1.72h1.76c.92,0,1.84,0,2.77,0,.38,0,.54.06.55.5C48.56,62.52,48.58,62.52,46.86,62.52Zm3.9-3.94c0-.38-.06-.55-.51-.55-3.38,0-6.77,0-10.15,0-.42,0-.54.12-.53.53,0,1.9,0,3.79,0,5.69,0,.48.17.54.58.53,1.67,0,3.34,0,5,0s3.39,0,5.08,0c.41,0,.54-.09.53-.52C50.74,62.37,50.74,60.48,50.76,58.58Zm-3.9,3.94c-1.51,0-3,0-4.53,0-.39,0-.54-.07-.55-.51,0-1.72,0-1.72,1.69-1.72h1.76c.92,0,1.84,0,2.77,0,.38,0,.54.06.55.5C48.56,62.52,48.58,62.52,46.86,62.52Z" transform="translate(0.04 0)"></path><path class="cls-2" d="M46.28,12.85c0,.31-.07.41-.41.42-1.82.08-1.82.09-1.81-1.71,0-.92,0-1.85,0-2.77h2.17C46.26,10.14,46.26,11.49,46.28,12.85Z" transform="translate(0.04 0)"></path><path class="cls-2" d="M42.32,12.77a10.6,10.6,0,0,0-1,1c-.24.29-.39.21-.62,0-.89-.92-1.8-1.83-2.72-2.73-.25-.23-.3-.39,0-.63s.67-.66,1-1l.27-.24.31.27c.92.93,1.84,1.86,2.78,2.77C42.54,12.41,42.57,12.55,42.32,12.77Z" transform="translate(0.04 0)"></path><path class="cls-2" d="M51.44,11.94c-.63.62-1.25,1.24-1.86,1.87-.2.2-.32.23-.53,0-.42-.44-.86-.85-1.34-1.31l3.18-3.18c.13-.14.25-.18.38,0l.1.1C52.75,10.63,52.75,10.63,51.44,11.94Z" transform="translate(0.04 0)"></path><path class="cls-2" d="M50.76,58.58c0-.38-.06-.55-.51-.55-3.38,0-6.77,0-10.15,0-.42,0-.54.12-.53.53,0,1.9,0,3.79,0,5.69,0,.48.17.54.58.53,1.67,0,3.34,0,5,0s3.39,0,5.08,0c.41,0,.54-.09.53-.52C50.74,62.37,50.74,60.48,50.76,58.58Zm-3.9,3.94c-1.51,0-3,0-4.53,0-.39,0-.54-.07-.55-.51,0-1.72,0-1.72,1.69-1.72h1.76c.92,0,1.84,0,2.77,0,.38,0,.54.06.55.5C48.56,62.52,48.58,62.52,46.86,62.52Z" transform="translate(0.04 0)"></path><path class="cls-2" d="M50.76,58.58c0-.38-.06-.55-.51-.55-3.38,0-6.77,0-10.15,0-.42,0-.54.12-.53.53,0,1.9,0,3.79,0,5.69,0,.48.17.54.58.53,1.67,0,3.34,0,5,0s3.39,0,5.08,0c.41,0,.54-.09.53-.52C50.74,62.37,50.74,60.48,50.76,58.58Zm-3.9,3.94c-1.51,0-3,0-4.53,0-.39,0-.54-.07-.55-.51,0-1.72,0-1.72,1.69-1.72h1.76c.92,0,1.84,0,2.77,0,.38,0,.54.06.55.5C48.56,62.52,48.58,62.52,46.86,62.52Z" transform="translate(0.04 0)"></path></svg>