<svg xmlns="http://www.w3.org/2000/svg" id="Layer_1" data-name="Layer 1" viewBox="0 0 91 91"><defs><style>.cls-1{fill:#fff;}.cls-2{fill:#083264;}</style></defs><circle class="cls-1" cx="45.5" cy="45.5" r="45.5"></circle><path class="cls-2" d="M40.46,21.71a8.06,8.06,0,1,0,8,8.07A8.06,8.06,0,0,0,40.46,21.71Zm-.12,13.43A5.38,5.38,0,1,1,45.8,29.8,5.42,5.42,0,0,1,40.34,35.14Zm.12-13.43a8.06,8.06,0,1,0,8,8.07A8.06,8.06,0,0,0,40.46,21.71Zm-.12,13.43A5.38,5.38,0,1,1,45.8,29.8,5.42,5.42,0,0,1,40.34,35.14ZM62,20.4a8.14,8.14,0,0,0-2.81-5,6.89,6.89,0,0,0-4.27-1.76H25.94l0,0h-.13a6.76,6.76,0,0,0-4.94,2.54,8.64,8.64,0,0,0-2.13,6.09q0,23.28,0,46.57a17.2,17.2,0,0,0,.16,2.38,8,8,0,0,0,7.66,6.88c9.27,0,18.54,0,27.81,0a7.41,7.41,0,0,0,5.81-2.8,8.75,8.75,0,0,0,2-6q0-23.31,0-46.63A14.58,14.58,0,0,0,62,20.4ZM40.59,19a10.73,10.73,0,1,1-10.9,10.72A10.71,10.71,0,0,1,40.59,19ZM29.69,59.54A2.6,2.6,0,0,1,32,56.66c.34-.07.37-.23.37-.5,0-1.62,0-3.23,0-4.85A8.05,8.05,0,0,1,48.28,49.5a7.38,7.38,0,0,1,.19,1.81c0,1.6,0,3.19,0,4.78,0,.33,0,.51.43.59a2.54,2.54,0,0,1,2.24,2.67c0,3.54,0,7.09,0,10.63a2.61,2.61,0,0,1-2.73,2.73c-2.67,0-5.33,0-8,0H32.61a2.67,2.67,0,0,1-2.92-2.93Q29.67,64.67,29.69,59.54ZM40.44,37.82a8.06,8.06,0,1,0-8.08-8.07A8.06,8.06,0,0,0,40.44,37.82Zm0-13.44A5.38,5.38,0,1,1,35,29.7,5.42,5.42,0,0,1,40.47,24.38ZM38.16,56.61h4.52c.33,0,.43-.09.42-.42,0-.83,0-1.67,0-2.51h0c0-.84,0-1.67,0-2.51a2.67,2.67,0,0,0-5.33,0c0,1.67,0,3.35,0,5C37.73,56.52,37.83,56.62,38.16,56.61Z" transform="translate(0.04 0)"></path><path class="cls-2" d="M62,20.4a14.58,14.58,0,0,1,.17,2.38q0,23.31,0,46.63a8.75,8.75,0,0,1-2,6,7.41,7.41,0,0,1-5.81,2.8c-9.27,0-18.54,0-27.81,0a8,8,0,0,1-7.66-6.88,17.2,17.2,0,0,1-.16-2.38q0-23.29,0-46.57a8.64,8.64,0,0,1,2.13-6.09,6.76,6.76,0,0,1,4.94-2.54.28.28,0,0,0,.13,0,5.75,5.75,0,0,1-1.14.28,8.07,8.07,0,0,0-5.83,7.84c0,2.88,0,5.75,0,8.62V69.75a8.1,8.1,0,0,0,5.83,8,8.56,8.56,0,0,0,2.36.32H53.73A8.07,8.07,0,0,0,61.91,70c0-2.12,0-4.24,0-6.36q0-20.82,0-41.65a8,8,0,0,0-4.82-7.67,16.31,16.31,0,0,0-2.19-.67,6.89,6.89,0,0,1,4.27,1.76A8.14,8.14,0,0,1,62,20.4Z" transform="translate(0.04 0)"></path><path class="cls-2" d="M69.87,29.75a8.3,8.3,0,0,1-2,5.35c-.27.32-.42.31-.71,0C66.12,34.06,65.08,33,64,32c-.22-.22-.3-.35-.08-.66a2.54,2.54,0,0,0,0-3.14c-.2-.28-.19-.43.06-.66,1.06-1,2.12-2.09,3.15-3.16.29-.3.43-.25.67,0A8.27,8.27,0,0,1,69.87,29.75Z" transform="translate(0.04 0)"></path><path class="cls-2" d="M77.92,30.27a15.88,15.88,0,0,1-4.37,10.52c-.28.31-.43.32-.72,0-1-1.06-2-2.1-3.11-3.12-.29-.28-.24-.41,0-.69a10.69,10.69,0,0,0,0-14.47c-.28-.31-.26-.46,0-.73,1-1,2.07-2,3.07-3.07.33-.35.48-.26.77,0A16.55,16.55,0,0,1,77.92,30.27Z" transform="translate(0.04 0)"></path><path class="cls-2" d="M43.1,56.19c0,.33-.09.43-.42.42H38.16c-.33,0-.43-.09-.42-.42,0-1.67,0-3.35,0-5a2.67,2.67,0,0,1,5.33,0c0,.84,0,1.67,0,2.51h0C43.09,54.52,43.08,55.36,43.1,56.19Z" transform="translate(0.04 0)"></path><path class="cls-2" d="M40.46,21.71a8.06,8.06,0,1,0,8,8.07A8.06,8.06,0,0,0,40.46,21.71Zm-.12,13.43A5.38,5.38,0,1,1,45.8,29.8,5.42,5.42,0,0,1,40.34,35.14Z" transform="translate(0.04 0)"></path><path class="cls-2" d="M77.92,30.27a15.88,15.88,0,0,1-4.37,10.52c-.28.31-.43.32-.72,0-1-1.06-2-2.1-3.11-3.12-.29-.28-.24-.41,0-.69a10.69,10.69,0,0,0,0-14.47c-.28-.31-.26-.46,0-.73,1-1,2.07-2,3.07-3.07.33-.35.48-.26.77,0A16.55,16.55,0,0,1,77.92,30.27Z" transform="translate(0.04 0)"></path><path class="cls-2" d="M69.87,29.75a8.3,8.3,0,0,1-2,5.35c-.27.32-.42.31-.71,0C66.12,34.06,65.08,33,64,32c-.22-.22-.3-.35-.08-.66a2.54,2.54,0,0,0,0-3.14c-.2-.28-.19-.43.06-.66,1.06-1,2.12-2.09,3.15-3.16.29-.3.43-.25.67,0A8.27,8.27,0,0,1,69.87,29.75Z" transform="translate(0.04 0)"></path><path class="cls-2" d="M43.1,56.19c0,.33-.09.43-.42.42H38.16c-.33,0-.43-.09-.42-.42,0-1.67,0-3.35,0-5a2.67,2.67,0,0,1,5.33,0c0,.84,0,1.67,0,2.51h0C43.09,54.52,43.08,55.36,43.1,56.19Z" transform="translate(0.04 0)"></path><path class="cls-2" d="M40.46,21.71a8.06,8.06,0,1,0,8,8.07A8.06,8.06,0,0,0,40.46,21.71Zm-.12,13.43A5.38,5.38,0,1,1,45.8,29.8,5.42,5.42,0,0,1,40.34,35.14Z" transform="translate(0.04 0)"></path></svg>