<svg xmlns="http://www.w3.org/2000/svg" id="Layer_1" data-name="Layer 1" viewBox="0 0 91 91"><defs><style>.cls-1{fill:#fff;}.cls-2{fill:#083264;}</style></defs><circle class="cls-1" cx="45.5" cy="45.5" r="45.5"></circle><path class="cls-2" d="M19.48,70.44c-2.22,0-.26-2.15-1.07-2.69,0-1,0-1.56,0-2.16s0-1.24.85-1.29,1.13.61,1.13,1.37a8.22,8.22,0,0,1,0,1.79C20.17,68.52,21.12,70.4,19.48,70.44Z" transform="translate(0.04 0)"></path><path class="cls-2" d="M37,54.26c-2,0-4.9-.77-4.72,3.13.17,3.61,1.88,6.45,4.4,6.58,2.37.12,4.66-2.95,4.69-6.57C42.09,53.81,39.15,54.23,37,54.26Zm2.47,3.54c-.13,2.23-.81,4-2.82,3.89s-2.44-2-2.49-3.84c-.07-2.42,1.78-1.66,3-1.73S39.9,56.13,39.49,57.8Z" transform="translate(0.04 0)"></path><path class="cls-2" d="M41.94,66.12c0,.5,0,1,0,1.49h0c0,.7,0,1.4,0,2.08a1.06,1.06,0,0,1-1.2,1,1.05,1.05,0,0,1-1.14-1.09c0-1.19,0-2.39,0-3.58,0-.87-.13-1.92,1.23-1.89S41.91,65.25,41.94,66.12Z" transform="translate(0.04 0)"></path><path class="cls-2" d="M41,21.86a3.69,3.69,0,0,0-3.15-3.47,31.33,31.33,0,0,1-5.15-1.49c-2-.84-11.61,1.17-12.9,2.92a2.86,2.86,0,0,0-.61,1.34c-.37,5.41-2.3,10.71.33,16.25C21.6,41.75,25.18,45,30,45a11.12,11.12,0,0,0,8-3.49c2.63-2.78,3.6-6.6,4.2-9.93C42.71,28.66,41.44,25.12,41,21.86ZM20.61,25.05c.16-3,.78-5.17,4.38-5.37a6.78,6.78,0,0,0,3.89-1.38,1.93,1.93,0,0,1,2.46,0,12.63,12.63,0,0,0,3,1.21c5.27,1.51,5.36,1.61,4.94,7.5-2.22-.6-4.38-1.34-6.61-1.77a17.82,17.82,0,0,0-10,1.26C21.05,27.2,20.51,27.13,20.61,25.05ZM38.48,36.89a9,9,0,0,1-8.95,6.16,9.13,9.13,0,0,1-8.41-7.29c-.31-1.64-.15-2.84,1.76-3.49a22.46,22.46,0,0,1,7.26-1.59A17.76,17.76,0,0,1,36,31.8C39.18,33,39.54,33.72,38.48,36.89ZM20.12,31.17c.4-2,2.9-3.44,7.51-4a15,15,0,0,1,12.52,3.58C30,28.14,30,28.14,20.12,31.17Zm5-7.23a16.26,16.26,0,0,1,10,0c.66.21,1.47.43,1.68-.57.14-.69-.42-1-1-1.28a16.33,16.33,0,0,0-5.57-1,16.07,16.07,0,0,0-5.58.93c-.67.26-1.43.54-1.24,1.41S24.44,24.14,25.08,23.94Z" transform="translate(0.04 0)"></path><path class="cls-2" d="M50.23,56.81c-1.32-4.93-5-7.49-9.52-9.6-3.94-1.83-6.26.35-8.78,2.32-1.51,1.18-2.48.82-3.91-.1-1.77-1.15-3.17-3.42-5.6-3a17.81,17.81,0,0,0-8.58,4c-4.14,3.6-4.74,8.33-4.4,12.61,0,2.27-.07,3.77,0,5.26,0,.33-.08.77-.09,1.17l.65,1,.25,0c1.6,0,1-1.42,1.06-2.28.07-2.9-.07-5.8.07-8.68.21-4.69,3-7.51,6.91-9.76,3.63-2.12,6.45-.94,9.09,1.58,1.92,1.82,3.53,1.35,5.49-.07,1.59-1.16,2.9-3.12,5.4-2.7A12.25,12.25,0,0,1,48.73,60.6c0,2.8,0,5.59,0,8.39,0,.73,0,1.47,1,1.51.76,0,1-.49,1-1.16C50.64,65.16,51.32,60.91,50.23,56.81Z" transform="translate(0.04 0)"></path><path class="cls-2" d="M53.21,46.45c-.07-2.22-.31-3.51-3-3.34-2.24.13-4.11.09-3.36,3.15-.64,2.7.59,3.39,3.16,3.38S53.29,49,53.21,46.45Zm-3.3,1.23c-.87,0-1.25-.41-1.24-1.28s.49-1.2,1.32-1.22,1.21.48,1.21,1.3S50.78,47.75,49.91,47.68Z" transform="translate(0.04 0)"></path><path class="cls-2" d="M61.22,46.67C61.1,44.33,61,42.91,58,43.11c-2.21.15-3.87.24-3.22,3-.39,2.3.11,3.65,2.89,3.46C59.79,49.49,61.37,49.61,61.22,46.67Zm-3.51,1.1c-.73.06-1-.51-1-1.31s.2-1.36,1.17-1.36,1.42.46,1.38,1.47S58.73,47.76,57.71,47.77Z" transform="translate(0.04 0)"></path><path class="cls-2" d="M80.06,60.53c-2.1-.55-1.31-2.24-1.33-3.48-.07-5.39,0-10.79,0-16.19a10.1,10.1,0,0,1,.76-3.37c1.55-4.48,4.8-9,1.24-13.9a4.44,4.44,0,0,1-1.08-3.28c.08-.63-.13-1.3-.84-1.37-1-.1-1.1.77-1,1.45.35,2.35-1.13,2.32-2.74,2.24-1-.05-2,0-3,0-4.89,0-6.63,2.13-5.73,6.92A17.92,17.92,0,0,0,68,35.23a15.46,15.46,0,0,1,1.65,9.2c-.06.65.22,1.53-.81,1.64-1.27.13-1.21-.87-1.11-1.62.37-2.56-1-3.53-3.24-4.1a40,40,0,0,0-21.9.21,6.25,6.25,0,0,0-2.15.95A1.69,1.69,0,0,0,40,43.92c.83.87,1.53.39,1.89-.74.3-.93,1.31-.81,2-1a36.4,36.4,0,0,1,19.83,0c1.46.39,2.41.93,2.08,2.6-.62,3.07,1.09,3.58,3.55,3.25,1.83-.25,2.48.47,2.38,2.32-.15,2.49-.06,5,0,7.5,0,1.37.11,2.53-1.93,2.49S68,59.24,68.06,58a36,36,0,0,1,0-3.6c.27-2.39-.48-3.51-3.1-3.27a33.76,33.76,0,0,1-6.89,0c-3.06-.34-4.1.71-3.84,3.8.16,1.73.91,3.8-.72,5.29-.49.45-.92.73-.67,1.39s1,.52,1.55.52q6,0,12,0c4.1,0,8.19,0,12.3,0,.56,0,1.28.19,1.53-.55C80.34,61.26,80.21,60.56,80.06,60.53Zm-19.76-3c.06,1.53.24,2.89-2.15,2.87s-2-1.35-2-2.72V56.33c.51-1.08-1.26-3.48,1.94-3.42,1.7,0,2.38.56,2.18,2.25A17.32,17.32,0,0,0,60.3,57.55Zm5.15,3c-2.35.89-3.66-.15-3.69-2.77,0-.69,0-1.39,0-2.09-.12-1.77,0-3,2.44-3s2.47,1.34,2.36,3.05c0,.3,0,.6,0,1.12C66.11,57.89,67.46,59.75,65.45,60.51ZM80.2,28.86c-.25,1.7.06,3.87-3,3.64-2-.15-2.4-.87-2.1-2.57-.63-2.64,1.19-2.46,2.83-2.28C78.77,27.75,80.49,26.84,80.2,28.86Zm-.37-3.18H69C70.47,24.06,76.91,23.88,79.83,25.68Zm-11.76,3.2c-.35-2.34,1.72-.7,2.19-1.13,2.48-.59,3,.37,3,2.45s-.82,2.13-2.47,2.27C67.82,32.71,68.3,30.41,68.07,28.88Zm8.72,20.3c0,3.09,0,6.18,0,9.27,0,1.15-.18,1.88-1.59,1.89s-1.64-.71-1.62-1.87c0-2.59.09-5.18,0-7.77-.07-1.74.82-3.92-1.82-4.78-.46-.16-.56-7-.11-7.27,1.35-.86,2.89-.39,4.33-.32,1.21.06.79,1.18.8,1.89C76.81,43.21,76.79,46.19,76.79,49.18ZM78.44,35a1.32,1.32,0,0,1-1.35,1.33c-1.89,0-3.79,0-5.69,0A1.3,1.3,0,0,1,70,34.85c.07-1.11,1-.63,1.64-.68.89-.08,1.79,0,2.69,0s1.8,0,2.7,0C77.58,34.2,78.57,33.81,78.44,35Z" transform="translate(0.04 0)"></path><path class="cls-2" d="M80.06,60.53c-2.1-.55-1.31-2.24-1.33-3.48-.07-5.39,0-10.79,0-16.19a10.1,10.1,0,0,1,.76-3.37c1.55-4.48,4.8-9,1.24-13.9a4.44,4.44,0,0,1-1.08-3.28c.08-.63-.13-1.3-.84-1.37-1-.1-1.1.77-1,1.45.35,2.35-1.13,2.32-2.74,2.24-1-.05-2,0-3,0-4.89,0-6.63,2.13-5.73,6.92A17.92,17.92,0,0,0,68,35.23a15.46,15.46,0,0,1,1.65,9.2c-.06.65.22,1.53-.81,1.64-1.27.13-1.21-.87-1.11-1.62.37-2.56-1-3.53-3.24-4.1a40,40,0,0,0-21.9.21,6.25,6.25,0,0,0-2.15.95A1.69,1.69,0,0,0,40,43.92c.83.87,1.53.39,1.89-.74.3-.93,1.31-.81,2-1a36.4,36.4,0,0,1,19.83,0c1.46.39,2.41.93,2.08,2.6-.62,3.07,1.09,3.58,3.55,3.25,1.83-.25,2.48.47,2.38,2.32-.15,2.49-.06,5,0,7.5,0,1.37.11,2.53-1.93,2.49S68,59.24,68.06,58a36,36,0,0,1,0-3.6c.27-2.39-.48-3.51-3.1-3.27a33.76,33.76,0,0,1-6.89,0c-3.06-.34-4.1.71-3.84,3.8.16,1.73.91,3.8-.72,5.29-.49.45-.92.73-.67,1.39s1,.52,1.55.52q6,0,12,0c4.1,0,8.19,0,12.3,0,.56,0,1.28.19,1.53-.55C80.34,61.26,80.21,60.56,80.06,60.53Zm-19.76-3c.06,1.53.24,2.89-2.15,2.87s-2-1.35-2-2.72V56.33c.51-1.08-1.26-3.48,1.94-3.42,1.7,0,2.38.56,2.18,2.25A17.32,17.32,0,0,0,60.3,57.55Zm5.15,3c-2.35.89-3.66-.15-3.69-2.77,0-.69,0-1.39,0-2.09-.12-1.77,0-3,2.44-3s2.47,1.34,2.36,3.05c0,.3,0,.6,0,1.12C66.11,57.89,67.46,59.75,65.45,60.51ZM80.2,28.86c-.25,1.7.06,3.87-3,3.64-2-.15-2.4-.87-2.1-2.57-.63-2.64,1.19-2.46,2.83-2.28C78.77,27.75,80.49,26.84,80.2,28.86Zm-.37-3.18H69C70.47,24.06,76.91,23.88,79.83,25.68Zm-11.76,3.2c-.35-2.34,1.72-.7,2.19-1.13,2.48-.59,3,.37,3,2.45s-.82,2.13-2.47,2.27C67.82,32.71,68.3,30.41,68.07,28.88Zm8.72,20.3c0,3.09,0,6.18,0,9.27,0,1.15-.18,1.88-1.59,1.89s-1.64-.71-1.62-1.87c0-2.59.09-5.18,0-7.77-.07-1.74.82-3.92-1.82-4.78-.46-.16-.56-7-.11-7.27,1.35-.86,2.89-.39,4.33-.32,1.21.06.79,1.18.8,1.89C76.81,43.21,76.79,46.19,76.79,49.18ZM78.44,35a1.32,1.32,0,0,1-1.35,1.33c-1.89,0-3.79,0-5.69,0A1.3,1.3,0,0,1,70,34.85c.07-1.11,1-.63,1.64-.68.89-.08,1.79,0,2.69,0s1.8,0,2.7,0C77.58,34.2,78.57,33.81,78.44,35Z" transform="translate(0.04 0)"></path><path class="cls-2" d="M41,21.86a3.69,3.69,0,0,0-3.15-3.47,31.33,31.33,0,0,1-5.15-1.49c-2-.84-11.61,1.17-12.9,2.92a2.86,2.86,0,0,0-.61,1.34c-.37,5.41-2.3,10.71.33,16.25C21.6,41.75,25.18,45,30,45a11.12,11.12,0,0,0,8-3.49c2.63-2.78,3.6-6.6,4.2-9.93C42.71,28.66,41.44,25.12,41,21.86ZM20.61,25.05c.16-3,.78-5.17,4.38-5.37a6.78,6.78,0,0,0,3.89-1.38,1.93,1.93,0,0,1,2.46,0,12.63,12.63,0,0,0,3,1.21c5.27,1.51,5.36,1.61,4.94,7.5-2.22-.6-4.38-1.34-6.61-1.77a17.82,17.82,0,0,0-10,1.26C21.05,27.2,20.51,27.13,20.61,25.05ZM38.48,36.89a9,9,0,0,1-8.95,6.16,9.13,9.13,0,0,1-8.41-7.29c-.31-1.64-.15-2.84,1.76-3.49a22.46,22.46,0,0,1,7.26-1.59A17.76,17.76,0,0,1,36,31.8C39.18,33,39.54,33.72,38.48,36.89ZM20.12,31.17c.4-2,2.9-3.44,7.51-4a15,15,0,0,1,12.52,3.58C30,28.14,30,28.14,20.12,31.17Zm5-7.23a16.26,16.26,0,0,1,10,0c.66.21,1.47.43,1.68-.57.14-.69-.42-1-1-1.28a16.33,16.33,0,0,0-5.57-1,16.07,16.07,0,0,0-5.58.93c-.67.26-1.43.54-1.24,1.41S24.44,24.14,25.08,23.94Z" transform="translate(0.04 0)"></path><path class="cls-2" d="M50.23,56.81c-1.32-4.93-5-7.49-9.52-9.6-3.94-1.83-6.26.35-8.78,2.32-1.51,1.18-2.48.82-3.91-.1-1.77-1.15-3.17-3.42-5.6-3a17.81,17.81,0,0,0-8.58,4c-4.14,3.6-4.74,8.33-4.4,12.61,0,2.27-.07,3.77,0,5.26,0,.33-.08.77-.09,1.17l.65,1,.25,0c1.6,0,1-1.42,1.06-2.28.07-2.9-.07-5.8.07-8.68.21-4.69,3-7.51,6.91-9.76,3.63-2.12,6.45-.94,9.09,1.58,1.92,1.82,3.53,1.35,5.49-.07,1.59-1.16,2.9-3.12,5.4-2.7A12.25,12.25,0,0,1,48.73,60.6c0,2.8,0,5.59,0,8.39,0,.73,0,1.47,1,1.51.76,0,1-.49,1-1.16C50.64,65.16,51.32,60.91,50.23,56.81Z" transform="translate(0.04 0)"></path><path class="cls-2" d="M37,54.26c-2,0-4.9-.77-4.72,3.13.17,3.61,1.88,6.45,4.4,6.58,2.37.12,4.66-2.95,4.69-6.57C42.09,53.81,39.15,54.23,37,54.26Zm2.47,3.54c-.13,2.23-.81,4-2.82,3.89s-2.44-2-2.49-3.84c-.07-2.42,1.78-1.66,3-1.73S39.9,56.13,39.49,57.8Z" transform="translate(0.04 0)"></path><path class="cls-2" d="M53.21,46.45c-.07-2.22-.31-3.51-3-3.34-2.24.13-4.11.09-3.36,3.15-.64,2.7.59,3.39,3.16,3.38S53.29,49,53.21,46.45Zm-3.3,1.23c-.87,0-1.25-.41-1.24-1.28s.49-1.2,1.32-1.22,1.21.48,1.21,1.3S50.78,47.75,49.91,47.68Z" transform="translate(0.04 0)"></path><path class="cls-2" d="M61.22,46.67C61.1,44.33,61,42.91,58,43.11c-2.21.15-3.87.24-3.22,3-.39,2.3.11,3.65,2.89,3.46C59.79,49.49,61.37,49.61,61.22,46.67Zm-3.51,1.1c-.73.06-1-.51-1-1.31s.2-1.36,1.17-1.36,1.42.46,1.38,1.47S58.73,47.76,57.71,47.77Z" transform="translate(0.04 0)"></path><path class="cls-2" d="M19.48,70.44c-2.22,0-.26-2.15-1.07-2.69,0-1,0-1.56,0-2.16s0-1.24.85-1.29,1.13.61,1.13,1.37a8.22,8.22,0,0,1,0,1.79C20.17,68.52,21.12,70.4,19.48,70.44Z" transform="translate(0.04 0)"></path><path class="cls-2" d="M41.94,67.61h0c0,.7,0,1.4,0,2.08a1.06,1.06,0,0,1-1.2,1,1.05,1.05,0,0,1-1.14-1.09c0-1.19,0-2.39,0-3.58,0-.87-.13-1.92,1.23-1.89s1.16,1.08,1.19,2C42,66.62,41.94,67.12,41.94,67.61Z" transform="translate(0.04 0)"></path><path class="cls-2" d="M36.78,23.38c-.21,1-1,.78-1.68.57a16.26,16.26,0,0,0-10,0c-.64.2-1.48.49-1.7-.51S24,22.28,24.62,22a16.07,16.07,0,0,1,5.58-.93,16.33,16.33,0,0,1,5.57,1C36.36,22.34,36.92,22.69,36.78,23.38Z" transform="translate(0.04 0)"></path><path class="cls-2" d="M40.75,69.91c-1-1.64-.56-3.29-.23-5C41.75,66.56,41.4,68.23,40.75,69.91Z" transform="translate(0.04 0)"></path><path class="cls-2" d="M36.78,23.38c-.21,1-1,.78-1.68.57a16.26,16.26,0,0,0-10,0c-.64.2-1.48.49-1.7-.51S24,22.28,24.62,22a16.07,16.07,0,0,1,5.58-.93,16.33,16.33,0,0,1,5.57,1C36.36,22.34,36.92,22.69,36.78,23.38Z" transform="translate(0.04 0)"></path><path class="cls-2" d="M10.5,71.61c6.58.42,13.16.55,19.75.66,6.4.11,12.92.55,19.25-.64,1.9-.36,1.09-3.25-.8-2.9-6.2,1.17-12.67.64-18.94.53-6.42-.11-12.85-.24-19.26-.65-1.93-.12-1.92,2.88,0,3Z" transform="translate(0.04 0)"></path></svg>