<svg xmlns="http://www.w3.org/2000/svg" id="Layer_1" data-name="Layer 1" viewBox="0 0 91 91"><defs><style>.cls-1{fill:#fff;}.cls-2{fill:#083264;}</style></defs><circle class="cls-1" cx="45.5" cy="45.5" r="45.5"></circle><path class="cls-2" d="M40.38,33.71c0-.28-.1-.35-.37-.34-.43,0-.86,0-1.28,0H37.31c-.19,0-.31,0-.3.25,0,.55,0,1.1,0,1.65,0,.25.1.33.35.33h2.7c.27,0,.33-.11.32-.34C40.36,34.75,40.36,34.23,40.38,33.71Zm4.44,5.51c0-.22-.08-.31-.32-.31-1.27,0-2.54,0-3.82,0-.26,0-.33.08-.32.33,0,.53,0,1.07,0,1.6,0,.26.08.33.32.33.64,0,1.28,0,1.92,0h1.9c.22,0,.33,0,.33-.29C44.81,40.32,44.82,39.77,44.82,39.22Zm3-5.85c-.46,0-.92,0-1.38,0h0c-.46,0-.91,0-1.38,0-.2,0-.28,0-.28.27,0,.55,0,1.09,0,1.64,0,.23,0,.33.3.33h2.75c.21,0,.3-.06.29-.28,0-.55,0-1.09,0-1.64C48.17,33.45,48.08,33.36,47.85,33.37Zm0,0c-.46,0-.92,0-1.38,0h0c-.46,0-.91,0-1.38,0-.2,0-.28,0-.28.27,0,.55,0,1.09,0,1.64,0,.23,0,.33.3.33h2.75c.21,0,.3-.06.29-.28,0-.55,0-1.09,0-1.64C48.17,33.45,48.08,33.36,47.85,33.37Zm-3,5.85c0-.22-.08-.31-.32-.31-1.27,0-2.54,0-3.82,0-.26,0-.33.08-.32.33,0,.53,0,1.07,0,1.6,0,.26.08.33.32.33.64,0,1.28,0,1.92,0h1.9c.22,0,.33,0,.33-.29C44.81,40.32,44.82,39.77,44.82,39.22Zm-4.44-5.51c0-.28-.1-.35-.37-.34-.43,0-.86,0-1.28,0H37.31c-.19,0-.31,0-.3.25,0,.55,0,1.1,0,1.65,0,.25.1.33.35.33h2.7c.27,0,.33-.11.32-.34C40.36,34.75,40.36,34.23,40.38,33.71Zm0,0c0-.28-.1-.35-.37-.34-.43,0-.86,0-1.28,0H37.31c-.19,0-.31,0-.3.25,0,.55,0,1.1,0,1.65,0,.25.1.33.35.33h2.7c.27,0,.33-.11.32-.34C40.36,34.75,40.36,34.23,40.38,33.71Zm4.44,5.51c0-.22-.08-.31-.32-.31-1.27,0-2.54,0-3.82,0-.26,0-.33.08-.32.33,0,.53,0,1.07,0,1.6,0,.26.08.33.32.33.64,0,1.28,0,1.92,0h1.9c.22,0,.33,0,.33-.29C44.81,40.32,44.82,39.77,44.82,39.22Zm3-5.85c-.46,0-.92,0-1.38,0h0c-.46,0-.91,0-1.38,0-.2,0-.28,0-.28.27,0,.55,0,1.09,0,1.64,0,.23,0,.33.3.33h2.75c.21,0,.3-.06.29-.28,0-.55,0-1.09,0-1.64C48.17,33.45,48.08,33.36,47.85,33.37Zm0,0c-.46,0-.92,0-1.38,0h0c-.46,0-.91,0-1.38,0-.2,0-.28,0-.28.27,0,.55,0,1.09,0,1.64,0,.23,0,.33.3.33h2.75c.21,0,.3-.06.29-.28,0-.55,0-1.09,0-1.64C48.17,33.45,48.08,33.36,47.85,33.37Zm-3,5.85c0-.22-.08-.31-.32-.31-1.27,0-2.54,0-3.82,0-.26,0-.33.08-.32.33,0,.53,0,1.07,0,1.6,0,.26.08.33.32.33.64,0,1.28,0,1.92,0h1.9c.22,0,.33,0,.33-.29C44.81,40.32,44.82,39.77,44.82,39.22Zm-4.44-5.51c0-.28-.1-.35-.37-.34-.43,0-.86,0-1.28,0H37.31c-.19,0-.31,0-.3.25,0,.55,0,1.1,0,1.65,0,.25.1.33.35.33h2.7c.27,0,.33-.11.32-.34C40.36,34.75,40.36,34.23,40.38,33.71Zm0,0c0-.28-.1-.35-.37-.34-.43,0-.86,0-1.28,0H37.31c-.19,0-.31,0-.3.25,0,.55,0,1.1,0,1.65,0,.25.1.33.35.33h2.7c.27,0,.33-.11.32-.34C40.36,34.75,40.36,34.23,40.38,33.71Zm4.44,5.51c0-.22-.08-.31-.32-.31-1.27,0-2.54,0-3.82,0-.26,0-.33.08-.32.33,0,.53,0,1.07,0,1.6,0,.26.08.33.32.33.64,0,1.28,0,1.92,0h1.9c.22,0,.33,0,.33-.29C44.81,40.32,44.82,39.77,44.82,39.22Zm3-5.85c-.46,0-.92,0-1.38,0h0c-.46,0-.91,0-1.38,0-.2,0-.28,0-.28.27,0,.55,0,1.09,0,1.64,0,.23,0,.33.3.33h2.75c.21,0,.3-.06.29-.28,0-.55,0-1.09,0-1.64C48.17,33.45,48.08,33.36,47.85,33.37Zm8.1,27c0-.29-.11-.34-.36-.34-1.63,0-3.27,0-4.9,0-.29,0-.35.1-.33.36,0,.51,0,1,0,1.52,0,.31.11.37.39.37h2.4c.82,0,1.64,0,2.45,0,.26,0,.37-.05.36-.34Q55.92,61.19,56,60.41Zm0,0c0-.29-.11-.34-.36-.34-1.63,0-3.27,0-4.9,0-.29,0-.35.1-.33.36,0,.51,0,1,0,1.52,0,.31.11.37.39.37h2.4c.82,0,1.64,0,2.45,0,.26,0,.37-.05.36-.34Q55.92,61.19,56,60.41Zm-8.1-27c-.46,0-.92,0-1.38,0h0c-.46,0-.91,0-1.38,0-.2,0-.28,0-.28.27,0,.55,0,1.09,0,1.64,0,.23,0,.33.3.33h2.75c.21,0,.3-.06.29-.28,0-.55,0-1.09,0-1.64C48.17,33.45,48.08,33.36,47.85,33.37Zm-3,5.85c0-.22-.08-.31-.32-.31-1.27,0-2.54,0-3.82,0-.26,0-.33.08-.32.33,0,.53,0,1.07,0,1.6,0,.26.08.33.32.33.64,0,1.28,0,1.92,0h1.9c.22,0,.33,0,.33-.29C44.81,40.32,44.82,39.77,44.82,39.22Zm-4.44-5.51c0-.28-.1-.35-.37-.34-.43,0-.86,0-1.28,0H37.31c-.19,0-.31,0-.3.25,0,.55,0,1.1,0,1.65,0,.25.1.33.35.33h2.7c.27,0,.33-.11.32-.34C40.36,34.75,40.36,34.23,40.38,33.71Zm0,0c0-.28-.1-.35-.37-.34-.43,0-.86,0-1.28,0H37.31c-.19,0-.31,0-.3.25,0,.55,0,1.1,0,1.65,0,.25.1.33.35.33h2.7c.27,0,.33-.11.32-.34C40.36,34.75,40.36,34.23,40.38,33.71Zm4.44,5.51c0-.22-.08-.31-.32-.31-1.27,0-2.54,0-3.82,0-.26,0-.33.08-.32.33,0,.53,0,1.07,0,1.6,0,.26.08.33.32.33.64,0,1.28,0,1.92,0h1.9c.22,0,.33,0,.33-.29C44.81,40.32,44.82,39.77,44.82,39.22Zm3-5.85c-.46,0-.92,0-1.38,0h0c-.46,0-.91,0-1.38,0-.2,0-.28,0-.28.27,0,.55,0,1.09,0,1.64,0,.23,0,.33.3.33h2.75c.21,0,.3-.06.29-.28,0-.55,0-1.09,0-1.64C48.17,33.45,48.08,33.36,47.85,33.37Zm8.1,27c0-.29-.11-.34-.36-.34-1.63,0-3.27,0-4.9,0-.29,0-.35.1-.33.36,0,.51,0,1,0,1.52,0,.31.11.37.39.37h2.4c.82,0,1.64,0,2.45,0,.26,0,.37-.05.36-.34Q55.92,61.19,56,60.41Zm0,0c0-.29-.11-.34-.36-.34-1.63,0-3.27,0-4.9,0-.29,0-.35.1-.33.36,0,.51,0,1,0,1.52,0,.31.11.37.39.37h2.4c.82,0,1.64,0,2.45,0,.26,0,.37-.05.36-.34Q55.92,61.19,56,60.41Zm-8.1-27c-.46,0-.92,0-1.38,0h0c-.46,0-.91,0-1.38,0-.2,0-.28,0-.28.27,0,.55,0,1.09,0,1.64,0,.23,0,.33.3.33h2.75c.21,0,.3-.06.29-.28,0-.55,0-1.09,0-1.64C48.17,33.45,48.08,33.36,47.85,33.37Zm-3,5.85c0-.22-.08-.31-.32-.31-1.27,0-2.54,0-3.82,0-.26,0-.33.08-.32.33,0,.53,0,1.07,0,1.6,0,.26.08.33.32.33.64,0,1.28,0,1.92,0h1.9c.22,0,.33,0,.33-.29C44.81,40.32,44.82,39.77,44.82,39.22Zm-4.44-5.51c0-.28-.1-.35-.37-.34-.43,0-.86,0-1.28,0H37.31c-.19,0-.31,0-.3.25,0,.55,0,1.1,0,1.65,0,.25.1.33.35.33h2.7c.27,0,.33-.11.32-.34C40.36,34.75,40.36,34.23,40.38,33.71Zm0,0c0-.28-.1-.35-.37-.34-.43,0-.86,0-1.28,0H37.31c-.19,0-.31,0-.3.25,0,.55,0,1.1,0,1.65,0,.25.1.33.35.33h2.7c.27,0,.33-.11.32-.34C40.36,34.75,40.36,34.23,40.38,33.71Zm4.44,5.51c0-.22-.08-.31-.32-.31-1.27,0-2.54,0-3.82,0-.26,0-.33.08-.32.33,0,.53,0,1.07,0,1.6,0,.26.08.33.32.33.64,0,1.28,0,1.92,0h1.9c.22,0,.33,0,.33-.29C44.81,40.32,44.82,39.77,44.82,39.22Zm3-5.85c-.46,0-.92,0-1.38,0h0c-.46,0-.91,0-1.38,0-.2,0-.28,0-.28.27,0,.55,0,1.09,0,1.64,0,.23,0,.33.3.33h2.75c.21,0,.3-.06.29-.28,0-.55,0-1.09,0-1.64C48.17,33.45,48.08,33.36,47.85,33.37Zm8.1,27c0-.29-.11-.34-.36-.34-1.63,0-3.27,0-4.9,0-.29,0-.35.1-.33.36,0,.51,0,1,0,1.52,0,.31.11.37.39.37h2.4c.82,0,1.64,0,2.45,0,.26,0,.37-.05.36-.34Q55.92,61.19,56,60.41Zm0,0c0-.29-.11-.34-.36-.34-1.63,0-3.27,0-4.9,0-.29,0-.35.1-.33.36,0,.51,0,1,0,1.52,0,.31.11.37.39.37h2.4c.82,0,1.64,0,2.45,0,.26,0,.37-.05.36-.34Q55.92,61.19,56,60.41Zm-8.1-27c-.46,0-.92,0-1.38,0h0c-.46,0-.91,0-1.38,0-.2,0-.28,0-.28.27,0,.55,0,1.09,0,1.64,0,.23,0,.33.3.33h2.75c.21,0,.3-.06.29-.28,0-.55,0-1.09,0-1.64C48.17,33.45,48.08,33.36,47.85,33.37Zm-3,5.85c0-.22-.08-.31-.32-.31-1.27,0-2.54,0-3.82,0-.26,0-.33.08-.32.33,0,.53,0,1.07,0,1.6,0,.26.08.33.32.33.64,0,1.28,0,1.92,0h1.9c.22,0,.33,0,.33-.29C44.81,40.32,44.82,39.77,44.82,39.22Zm-4.44-5.51c0-.28-.1-.35-.37-.34-.43,0-.86,0-1.28,0H37.31c-.19,0-.31,0-.3.25,0,.55,0,1.1,0,1.65,0,.25.1.33.35.33h2.7c.27,0,.33-.11.32-.34C40.36,34.75,40.36,34.23,40.38,33.71Zm0,0c0-.28-.1-.35-.37-.34-.43,0-.86,0-1.28,0H37.31c-.19,0-.31,0-.3.25,0,.55,0,1.1,0,1.65,0,.25.1.33.35.33h2.7c.27,0,.33-.11.32-.34C40.36,34.75,40.36,34.23,40.38,33.71Zm4.44,5.51c0-.22-.08-.31-.32-.31-1.27,0-2.54,0-3.82,0-.26,0-.33.08-.32.33,0,.53,0,1.07,0,1.6,0,.26.08.33.32.33.64,0,1.28,0,1.92,0h1.9c.22,0,.33,0,.33-.29C44.81,40.32,44.82,39.77,44.82,39.22Zm3-5.85c-.46,0-.92,0-1.38,0h0c-.46,0-.91,0-1.38,0-.2,0-.28,0-.28.27,0,.55,0,1.09,0,1.64,0,.23,0,.33.3.33h2.75c.21,0,.3-.06.29-.28,0-.55,0-1.09,0-1.64C48.17,33.45,48.08,33.36,47.85,33.37Zm8.1,27c0-.29-.11-.34-.36-.34-1.63,0-3.27,0-4.9,0-.29,0-.35.1-.33.36,0,.51,0,1,0,1.52,0,.31.11.37.39.37h2.4c.82,0,1.64,0,2.45,0,.26,0,.37-.05.36-.34Q55.92,61.19,56,60.41Zm0,0c0-.29-.11-.34-.36-.34-1.63,0-3.27,0-4.9,0-.29,0-.35.1-.33.36,0,.51,0,1,0,1.52,0,.31.11.37.39.37h2.4c.82,0,1.64,0,2.45,0,.26,0,.37-.05.36-.34Q55.92,61.19,56,60.41Zm-8.1-27c-.46,0-.92,0-1.38,0h0c-.46,0-.91,0-1.38,0-.2,0-.28,0-.28.27,0,.55,0,1.09,0,1.64,0,.23,0,.33.3.33h2.75c.21,0,.3-.06.29-.28,0-.55,0-1.09,0-1.64C48.17,33.45,48.08,33.36,47.85,33.37Zm-3,5.85c0-.22-.08-.31-.32-.31-1.27,0-2.54,0-3.82,0-.26,0-.33.08-.32.33,0,.53,0,1.07,0,1.6,0,.26.08.33.32.33.64,0,1.28,0,1.92,0h1.9c.22,0,.33,0,.33-.29C44.81,40.32,44.82,39.77,44.82,39.22Zm-4.44-5.51c0-.28-.1-.35-.37-.34-.43,0-.86,0-1.28,0H37.31c-.19,0-.31,0-.3.25,0,.55,0,1.1,0,1.65,0,.25.1.33.35.33h2.7c.27,0,.33-.11.32-.34C40.36,34.75,40.36,34.23,40.38,33.71Zm0,0c0-.28-.1-.35-.37-.34-.43,0-.86,0-1.28,0H37.31c-.19,0-.31,0-.3.25,0,.55,0,1.1,0,1.65,0,.25.1.33.35.33h2.7c.27,0,.33-.11.32-.34C40.36,34.75,40.36,34.23,40.38,33.71Zm4.44,5.51c0-.22-.08-.31-.32-.31-1.27,0-2.54,0-3.82,0-.26,0-.33.08-.32.33,0,.53,0,1.07,0,1.6,0,.26.08.33.32.33.64,0,1.28,0,1.92,0h1.9c.22,0,.33,0,.33-.29C44.81,40.32,44.82,39.77,44.82,39.22Zm3-5.85c-.46,0-.92,0-1.38,0h0c-.46,0-.91,0-1.38,0-.2,0-.28,0-.28.27,0,.55,0,1.09,0,1.64,0,.23,0,.33.3.33h2.75c.21,0,.3-.06.29-.28,0-.55,0-1.09,0-1.64C48.17,33.45,48.08,33.36,47.85,33.37Zm8.1,27c0-.29-.11-.34-.36-.34-1.63,0-3.27,0-4.9,0-.29,0-.35.1-.33.36,0,.51,0,1,0,1.52,0,.31.11.37.39.37h2.4c.82,0,1.64,0,2.45,0,.26,0,.37-.05.36-.34Q55.92,61.19,56,60.41Zm0,0c0-.29-.11-.34-.36-.34-1.63,0-3.27,0-4.9,0-.29,0-.35.1-.33.36,0,.51,0,1,0,1.52,0,.31.11.37.39.37h2.4c.82,0,1.64,0,2.45,0,.26,0,.37-.05.36-.34Q55.92,61.19,56,60.41Zm-8.1-27c-.46,0-.92,0-1.38,0h0c-.46,0-.91,0-1.38,0-.2,0-.28,0-.28.27,0,.55,0,1.09,0,1.64,0,.23,0,.33.3.33h2.75c.21,0,.3-.06.29-.28,0-.55,0-1.09,0-1.64C48.17,33.45,48.08,33.36,47.85,33.37Zm-3,5.85c0-.22-.08-.31-.32-.31-1.27,0-2.54,0-3.82,0-.26,0-.33.08-.32.33,0,.53,0,1.07,0,1.6,0,.26.08.33.32.33.64,0,1.28,0,1.92,0h1.9c.22,0,.33,0,.33-.29C44.81,40.32,44.82,39.77,44.82,39.22Zm-4.44-5.51c0-.28-.1-.35-.37-.34-.43,0-.86,0-1.28,0H37.31c-.19,0-.31,0-.3.25,0,.55,0,1.1,0,1.65,0,.25.1.33.35.33h2.7c.27,0,.33-.11.32-.34C40.36,34.75,40.36,34.23,40.38,33.71Zm0,0c0-.28-.1-.35-.37-.34-.43,0-.86,0-1.28,0H37.31c-.19,0-.31,0-.3.25,0,.55,0,1.1,0,1.65,0,.25.1.33.35.33h2.7c.27,0,.33-.11.32-.34C40.36,34.75,40.36,34.23,40.38,33.71Zm4.44,5.51c0-.22-.08-.31-.32-.31-1.27,0-2.54,0-3.82,0-.26,0-.33.08-.32.33,0,.53,0,1.07,0,1.6,0,.26.08.33.32.33.64,0,1.28,0,1.92,0h1.9c.22,0,.33,0,.33-.29C44.81,40.32,44.82,39.77,44.82,39.22Zm3-5.85c-.46,0-.92,0-1.38,0h0c-.46,0-.91,0-1.38,0-.2,0-.28,0-.28.27,0,.55,0,1.09,0,1.64,0,.23,0,.33.3.33h2.75c.21,0,.3-.06.29-.28,0-.55,0-1.09,0-1.64C48.17,33.45,48.08,33.36,47.85,33.37Zm8.1,27c0-.29-.11-.34-.36-.34-1.63,0-3.27,0-4.9,0-.29,0-.35.1-.33.36,0,.51,0,1,0,1.52,0,.31.11.37.39.37h2.4c.82,0,1.64,0,2.45,0,.26,0,.37-.05.36-.34Q55.92,61.19,56,60.41Zm0,0c0-.29-.11-.34-.36-.34-1.63,0-3.27,0-4.9,0-.29,0-.35.1-.33.36,0,.51,0,1,0,1.52,0,.31.11.37.39.37h2.4c.82,0,1.64,0,2.45,0,.26,0,.37-.05.36-.34Q55.92,61.19,56,60.41Zm-8.1-27c-.46,0-.92,0-1.38,0h0c-.46,0-.91,0-1.38,0-.2,0-.28,0-.28.27,0,.55,0,1.09,0,1.64,0,.23,0,.33.3.33h2.75c.21,0,.3-.06.29-.28,0-.55,0-1.09,0-1.64C48.17,33.45,48.08,33.36,47.85,33.37Zm-3,5.85c0-.22-.08-.31-.32-.31-1.27,0-2.54,0-3.82,0-.26,0-.33.08-.32.33,0,.53,0,1.07,0,1.6,0,.26.08.33.32.33.64,0,1.28,0,1.92,0h1.9c.22,0,.33,0,.33-.29C44.81,40.32,44.82,39.77,44.82,39.22Zm-4.44-5.51c0-.28-.1-.35-.37-.34-.43,0-.86,0-1.28,0H37.31c-.19,0-.31,0-.3.25,0,.55,0,1.1,0,1.65,0,.25.1.33.35.33h2.7c.27,0,.33-.11.32-.34C40.36,34.75,40.36,34.23,40.38,33.71ZM76,61.3a3.39,3.39,0,0,0-1.9-3.13.56.56,0,0,1-.34-.58c0-1.49,0-3,0-4.45q0-3.59,0-7.17c0-.31-.09-.41-.4-.38a8.56,8.56,0,0,1-1.34,0c-.39,0-.5.07-.5.48,0,3.79,0,7.59,0,11.39,0,.32-.1.4-.4.39-.7,0-1.39,0-2.09,0-.39,0-.52-.13-.61-.5a6.57,6.57,0,0,0-4.68-5.05c-1.37-.45-2.76-.87-4.14-1.3l-4.29-1.33-4.6-1.46a.4.4,0,0,1-.34-.47c0-.7.05-1.4,0-2.09a.7.7,0,0,1,.37-.72,8.69,8.69,0,0,0,4-6.26.71.71,0,0,1,.29-.47c1.15-.94,2.3-1.88,3.46-2.79a3.58,3.58,0,0,0-2-6.48c-.46,0-.92,0-1.37,0-.26,0-.33-.1-.33-.35,0-1.87,0-3.74,0-5.61a1.5,1.5,0,0,1,.1-.72c.78-1.53,1.58-3.05,2.3-4.6a3.26,3.26,0,0,0-1.19-4,17,17,0,0,0-8.39-2.54c-3.1,0-6.2,0-9.3,0a17.75,17.75,0,0,0-8.75,2.26A3.41,3.41,0,0,0,28.08,18c.56,1,1.09,2.09,1.57,3.18A4,4,0,0,1,30.36,23c0,1.81,0,3.62,0,5.42,0,.42-.1.56-.53.56a7,7,0,0,0-2,.06,3.44,3.44,0,0,0-2.57,2.93,3.3,3.3,0,0,0,1.25,3.35c1.16.95,2.32,1.88,3.5,2.81a1.19,1.19,0,0,1,.46.77,8.68,8.68,0,0,0,4,6.1.62.62,0,0,1,.32.58c0,.73,0,1.46,0,2.18a.45.45,0,0,1-.36.52c-.91.27-1.81.56-2.71.85l-4.82,1.52c-2.07.63-4.16,1.18-6.16,2a6.27,6.27,0,0,0-4.1,5.5c-.29,2.71-.57,5.43-.82,8.14q-.33,3.63-.74,7.26a5.5,5.5,0,0,0,.05,2,3.4,3.4,0,0,0,3,2.4H72.67A3.35,3.35,0,0,0,76,74.6C76,70.16,76,65.73,76,61.3ZM55.09,31.15c.27,0,.53,0,.8,0,.47.06,1-.14,1.38.28a1.4,1.4,0,0,1,0,2.14c-.75.56-1.49,1.12-2.18,1.75-.05.06-.11.12-.19.08s-.1-.14-.09-.23c.07-1.26.06-2.52,0-3.77C54.82,31.19,54.91,31.15,55.09,31.15ZM30.36,33.33h0c0,.6,0,1.19,0,1.78,0,.1,0,.22-.09.27s-.14,0-.2-.08A14.8,14.8,0,0,0,28,33.61a1.45,1.45,0,0,1,.24-2.39.46.46,0,0,1,.3-.06,4.28,4.28,0,0,1,.62,0c.39,0,.93-.18,1.14.08s.09.76.1,1.16S30.36,33,30.36,33.33ZM31.94,20.7c-.59-1.22-1.22-2.43-1.83-3.64a1.09,1.09,0,0,1,.43-1.6A13.43,13.43,0,0,1,33.9,14a18.74,18.74,0,0,1,5.58-.64c2.64.05,5.28,0,7.92,0a13.85,13.85,0,0,1,6.27,1.56,6.42,6.42,0,0,1,1.09.6,1.06,1.06,0,0,1,.38,1.37c-.66,1.34-1.34,2.67-2,4-.14.27-.37.22-.58.22h-10c-3.31,0-6.61,0-9.92,0A.67.67,0,0,1,31.94,20.7Zm20.37,3.39a6.52,6.52,0,0,1-4.67,4.61,6,6,0,0,1-1.88.23c-2.1,0-4.19,0-6.28,0A6.8,6.8,0,0,1,33,24.64c-.12-.33-.2-.68-.32-1s0-.25.18-.25H51.76C52.5,23.39,52.52,23.39,52.31,24.09ZM32.61,37.62c0-2.8,0-5.6,0-8.4,0-.32-.23-.77.06-.91s.4.4.63.59a8.81,8.81,0,0,0,5.84,2.25c2.43,0,4.86,0,7.29,0a7.74,7.74,0,0,0,4.29-1.39,5,5,0,0,0,1.58-1.34c0-.07.11-.16.21-.1s.07.18.07.28c0,1.57,0,3.14,0,5.32,0,1,.12,2.66,0,4.28a6.43,6.43,0,0,1-3.49,5.15c-1.29.73-2.62,1.36-4,2a5.48,5.48,0,0,1-5,0c-1.36-.68-2.77-1.28-4.07-2A6.4,6.4,0,0,1,32.61,37.62ZM43.28,52.48c-.67.55-.71.57-1.37,0-1.58-1.3-3.12-2.63-4.68-3.95A.5.5,0,0,1,37,48.1a9.62,9.62,0,0,0,0-1.42c0-.33.07-.34.35-.2a22.4,22.4,0,0,0,2.85,1.33,8.25,8.25,0,0,0,6.74-.9,7,7,0,0,0,.85-.47c.17-.13.31-.08.31.17v.92c.19.6-.15,1.06-.69,1.5C46,50.16,44.67,51.33,43.28,52.48Zm1.29,5.59a.47.47,0,0,1,.08.63,2.27,2.27,0,0,1-1.81,1.38,2.53,2.53,0,0,1-2.42-1.62.23.23,0,0,1,.06-.24c.64-.66,1.29-1.31,1.93-2,.13-.14.25-.12.38,0C43.38,56.88,44,57.48,44.57,58.07ZM20,55.72a4.67,4.67,0,0,1,1.85-1.17c1.8-.58,3.61-1.14,5.4-1.73.27-.08.42,0,.55.2.3.59.61,1.18.93,1.76.16.31,0,.43-.27.54l-3.8,1.91-2.49,1.25-.25.12c-.19,0-.26-.12-.34-.23-.55-.71-1.08-1.44-1.63-2.15C19.78,56,19.83,55.88,20,55.72ZM32.57,75.29c0,.29-.09.37-.38.37H26.24c-.28,0-.34-.1-.34-.36,0-1.25,0-2.49,0-3.74,0-.3.07-.37.36-.36h5.91c.27,0,.39,0,.39.35C32.55,72.8,32.55,74,32.57,75.29Zm0-6.61c0,.26-.12.29-.33.29h-3c-1,0-1.95,0-2.93,0-.32,0-.4-.1-.38-.41,0-.5,0-1,0-1.51,0-.23.07-.3.3-.3q3,0,6,0c.21,0,.32,0,.32.29C32.55,67.59,32.55,68.14,32.57,68.68Zm6.55-7.57c-.25,1.73-.48,3.47-.71,5.2-.39,3-.79,5.9-1.17,8.85,0,.37-.16.52-.55.5s-1,0-1.55,0c-.24,0-.33,0-.33-.32,0-3.45,0-6.9,0-10.36,0-.39-.12-.45-.48-.45-1.7,0-3.41,0-5.11,0h0c-1.74,0-3.47,0-5.21,0-.33,0-.34.13-.34.39,0,3.44,0,6.88,0,10.32,0,.36-.11.44-.45.44-1.62,0-3.23,0-4.85,0a1.13,1.13,0,0,1-1.12-1.26c.22-1.38.26-2.77.42-4.15.36-3.09.58-6.2.95-9.29a9.87,9.87,0,0,0,.16-2c0-.11,0-.23.1-.26s.19.06.26.15c.59.8,1.2,1.61,1.79,2.42.12.17.21.27.42.17l4.23-2.12,5.89-3c.35-.17.36-.3.18-.64-.53-1-1-2-1.5-3-.36-.72-.33-.64.44-1s1,0,1.43.42c1.95,2,3.92,4,5.9,5.92a.9.9,0,0,1,.26.49A4.56,4.56,0,0,0,39,60.45.8.8,0,0,1,39.12,61.11ZM39,56c-1.52-1.54-3.05-3.06-4.57-4.6-.18-.18-.53-.3-.48-.58s.43-.13.65-.25.47-.15.7-.26a.54.54,0,0,1,.64.11q2.37,2,4.77,4c.06.06.15.1.16.23l-.19.21c-.38.39-.79.76-1.15,1.16C39.31,56.22,39.2,56.21,39,56Zm6.42,19.65H42.56c-.92,0-1.84,0-2.75,0-.33,0-.39-.1-.35-.42.24-1.64.45-3.29.68-4.93.32-2.39.63-4.79,1-7.17,0-.31-.05-.68.15-.91s.52.12.82.08c.54-.07,1.09.1,1.62-.17.25-.12.28.13.31.3.09.58.18,1.17.26,1.76.31,2.66.69,5.31,1.05,8,.14,1,.26,2.08.42,3.12C45.78,75.58,45.68,75.66,45.41,75.65ZM45.68,56c-.41-.41-.83-.84-1.26-1.24-.17-.16-.14-.23,0-.37q2.4-2,4.77-4a.59.59,0,0,1,.69-.12c.34.13.69.22,1.05.32.11,0,.26,0,.31.13s-.06.24-.15.34c-1.1,1.08-2.19,2.17-3.27,3.25-.57.56-1.13,1.13-1.69,1.7-.07.06-.12.14-.26.14S45.76,56.1,45.68,56ZM59.26,75.3c0,.27-.07.36-.35.35-2,0-3.94,0-5.92,0-.21,0-.4,0-.39-.3,0-1.26,0-2.52,0-3.78,0-.29.07-.38.37-.38,1,0,2,0,2.93,0h3c.29,0,.39.07.39.36C59.25,72.81,59.25,74.06,59.26,75.3Zm0-6.71c0,.29-.07.39-.37.39-2,0-4,0-6,0-.28,0-.35-.1-.34-.37,0-.5,0-1,0-1.51,0-.28.07-.36.34-.35,1,0,2,0,3,0s1.95,0,2.93,0c.29,0,.39.09.38.39A14.2,14.2,0,0,0,59.26,68.59Zm4,7.06c-.49,0-1,0-1.47,0-.23,0-.3-.07-.3-.31,0-3.45,0-6.91,0-10.36,0-.38-.1-.47-.47-.47q-5.11,0-10.23,0c-.36,0-.46.06-.46.46,0,3.44,0,6.88,0,10.32,0,.26-.07.37-.35.36-.53,0-1.06,0-1.6,0-.3,0-.42-.1-.45-.4-.17-1.43-.34-2.86-.54-4.28-.34-2.33-.64-4.67-.93-7-.13-1-.29-2-.46-3a.7.7,0,0,1,.19-.57,4.48,4.48,0,0,0,.81-2,.67.67,0,0,1,.22-.36c2.1-2.1,4.19-4.19,6.28-6.3.21-.2.37-.33.68-.15a3.93,3.93,0,0,0,.84.27c.24.07.32.15.19.41-.6,1.13-1.17,2.28-1.76,3.43-.13.23-.06.34.15.45l5,2.77c1.56.87,3.12,1.75,4.69,2.61a.71.71,0,0,1,.4.74q0,3.09,0,6.18h0v6.19c0,.12,0,.24,0,.35C63.84,75.65,63.84,75.65,63.27,75.65Zm1.06-16.37c-.13.19-.23.25-.46.11L58,56.13l-1.43-.79a.32.32,0,0,1-.14-.51c.32-.6.63-1.21.93-1.81a.34.34,0,0,1,.38-.24l1.51.47c1.31.41,2.63.81,3.94,1.24a4.54,4.54,0,0,1,3,3.13c.08.25-.06.36-.26.43A3.08,3.08,0,0,0,64.33,59.28Zm9.41,4.54V74.36a1.17,1.17,0,0,1-1.27,1.29H67.18A1.15,1.15,0,0,1,66,74.4c0-2.19,0-4.39,0-6.58h0V61.16A1.17,1.17,0,0,1,67,60.08h5.73a1.15,1.15,0,0,1,1,1.12C73.75,62.07,73.74,63,73.74,63.82Zm-2.22,7.67c0-.24-.07-.31-.3-.3-.46,0-.92,0-1.38,0H68.46c-.18,0-.31,0-.31.25,0,.56,0,1.13,0,1.69,0,.2,0,.3.27.29h2.85c.19,0,.26-.06.25-.25C71.52,72.61,71.51,72.05,71.52,71.49Zm-.33-9.19c-.9,0-1.8,0-2.7,0-.25,0-.34.06-.33.33,0,.53,0,1.06,0,1.59,0,.27.11.33.35.32.44,0,.88,0,1.33,0h0c.44,0,.89,0,1.33,0,.25,0,.38,0,.37-.34q0-.8,0-1.59C71.54,62.33,71.43,62.3,71.19,62.3ZM68.51,69q1.35,0,2.7,0c.22,0,.32,0,.31-.29,0-.55,0-1.1,0-1.64,0-.24-.06-.31-.3-.31-.45,0-.91,0-1.37,0s-.92,0-1.38,0c-.26,0-.33.08-.31.34,0,.51,0,1,0,1.54C68.14,68.9,68.24,69,68.51,69ZM55.59,60.07c-1.63,0-3.27,0-4.9,0-.29,0-.35.1-.33.36,0,.51,0,1,0,1.52,0,.31.11.37.39.37h2.4c.82,0,1.64,0,2.45,0,.26,0,.37-.05.36-.34q0-.78,0-1.56C56,60.12,55.84,60.07,55.59,60.07ZM45.11,35.61h2.75c.21,0,.3-.06.29-.28,0-.55,0-1.09,0-1.64,0-.23-.09-.32-.32-.31-.46,0-.92,0-1.38,0h0c-.46,0-.91,0-1.38,0-.2,0-.28,0-.28.27,0,.55,0,1.09,0,1.64C44.81,35.51,44.86,35.61,45.11,35.61Zm-4.75,5.23c0,.26.08.33.32.33.64,0,1.28,0,1.92,0h1.9c.22,0,.33,0,.33-.29,0-.55,0-1.1,0-1.65,0-.22-.08-.31-.32-.31-1.27,0-2.54,0-3.82,0-.26,0-.33.08-.32.33C40.37,39.77,40.39,40.31,40.36,40.84Zm-3-5.23h2.7c.27,0,.33-.11.32-.34,0-.52,0-1,0-1.56,0-.28-.1-.35-.37-.34-.43,0-.86,0-1.28,0H37.31c-.19,0-.31,0-.3.25,0,.55,0,1.1,0,1.65C37,35.53,37.1,35.61,37.35,35.61Zm3-1.9c0-.28-.1-.35-.37-.34-.43,0-.86,0-1.28,0H37.31c-.19,0-.31,0-.3.25,0,.55,0,1.1,0,1.65,0,.25.1.33.35.33h2.7c.27,0,.33-.11.32-.34C40.36,34.75,40.36,34.23,40.38,33.71Zm4.44,5.51c0-.22-.08-.31-.32-.31-1.27,0-2.54,0-3.82,0-.26,0-.33.08-.32.33,0,.53,0,1.07,0,1.6,0,.26.08.33.32.33.64,0,1.28,0,1.92,0h1.9c.22,0,.33,0,.33-.29C44.81,40.32,44.82,39.77,44.82,39.22Zm3-5.85c-.46,0-.92,0-1.38,0h0c-.46,0-.91,0-1.38,0-.2,0-.28,0-.28.27,0,.55,0,1.09,0,1.64,0,.23,0,.33.3.33h2.75c.21,0,.3-.06.29-.28,0-.55,0-1.09,0-1.64C48.17,33.45,48.08,33.36,47.85,33.37Zm8.1,27c0-.29-.11-.34-.36-.34-1.63,0-3.27,0-4.9,0-.29,0-.35.1-.33.36,0,.51,0,1,0,1.52,0,.31.11.37.39.37h2.4c.82,0,1.64,0,2.45,0,.26,0,.37-.05.36-.34Q55.92,61.19,56,60.41Zm0,0c0-.29-.11-.34-.36-.34-1.63,0-3.27,0-4.9,0-.29,0-.35.1-.33.36,0,.51,0,1,0,1.52,0,.31.11.37.39.37h2.4c.82,0,1.64,0,2.45,0,.26,0,.37-.05.36-.34Q55.92,61.19,56,60.41Zm-8.1-27c-.46,0-.92,0-1.38,0h0c-.46,0-.91,0-1.38,0-.2,0-.28,0-.28.27,0,.55,0,1.09,0,1.64,0,.23,0,.33.3.33h2.75c.21,0,.3-.06.29-.28,0-.55,0-1.09,0-1.64C48.17,33.45,48.08,33.36,47.85,33.37Zm-3,5.85c0-.22-.08-.31-.32-.31-1.27,0-2.54,0-3.82,0-.26,0-.33.08-.32.33,0,.53,0,1.07,0,1.6,0,.26.08.33.32.33.64,0,1.28,0,1.92,0h1.9c.22,0,.33,0,.33-.29C44.81,40.32,44.82,39.77,44.82,39.22Zm-4.44-5.51c0-.28-.1-.35-.37-.34-.43,0-.86,0-1.28,0H37.31c-.19,0-.31,0-.3.25,0,.55,0,1.1,0,1.65,0,.25.1.33.35.33h2.7c.27,0,.33-.11.32-.34C40.36,34.75,40.36,34.23,40.38,33.71Zm0,0c0-.28-.1-.35-.37-.34-.43,0-.86,0-1.28,0H37.31c-.19,0-.31,0-.3.25,0,.55,0,1.1,0,1.65,0,.25.1.33.35.33h2.7c.27,0,.33-.11.32-.34C40.36,34.75,40.36,34.23,40.38,33.71Zm4.44,5.51c0-.22-.08-.31-.32-.31-1.27,0-2.54,0-3.82,0-.26,0-.33.08-.32.33,0,.53,0,1.07,0,1.6,0,.26.08.33.32.33.64,0,1.28,0,1.92,0h1.9c.22,0,.33,0,.33-.29C44.81,40.32,44.82,39.77,44.82,39.22Zm3-5.85c-.46,0-.92,0-1.38,0h0c-.46,0-.91,0-1.38,0-.2,0-.28,0-.28.27,0,.55,0,1.09,0,1.64,0,.23,0,.33.3.33h2.75c.21,0,.3-.06.29-.28,0-.55,0-1.09,0-1.64C48.17,33.45,48.08,33.36,47.85,33.37Zm8.1,27c0-.29-.11-.34-.36-.34-1.63,0-3.27,0-4.9,0-.29,0-.35.1-.33.36,0,.51,0,1,0,1.52,0,.31.11.37.39.37h2.4c.82,0,1.64,0,2.45,0,.26,0,.37-.05.36-.34Q55.92,61.19,56,60.41Zm0,0c0-.29-.11-.34-.36-.34-1.63,0-3.27,0-4.9,0-.29,0-.35.1-.33.36,0,.51,0,1,0,1.52,0,.31.11.37.39.37h2.4c.82,0,1.64,0,2.45,0,.26,0,.37-.05.36-.34Q55.92,61.19,56,60.41Zm-8.1-27c-.46,0-.92,0-1.38,0h0c-.46,0-.91,0-1.38,0-.2,0-.28,0-.28.27,0,.55,0,1.09,0,1.64,0,.23,0,.33.3.33h2.75c.21,0,.3-.06.29-.28,0-.55,0-1.09,0-1.64C48.17,33.45,48.08,33.36,47.85,33.37Zm-3,5.85c0-.22-.08-.31-.32-.31-1.27,0-2.54,0-3.82,0-.26,0-.33.08-.32.33,0,.53,0,1.07,0,1.6,0,.26.08.33.32.33.64,0,1.28,0,1.92,0h1.9c.22,0,.33,0,.33-.29C44.81,40.32,44.82,39.77,44.82,39.22Zm-4.44-5.51c0-.28-.1-.35-.37-.34-.43,0-.86,0-1.28,0H37.31c-.19,0-.31,0-.3.25,0,.55,0,1.1,0,1.65,0,.25.1.33.35.33h2.7c.27,0,.33-.11.32-.34C40.36,34.75,40.36,34.23,40.38,33.71Zm0,0c0-.28-.1-.35-.37-.34-.43,0-.86,0-1.28,0H37.31c-.19,0-.31,0-.3.25,0,.55,0,1.1,0,1.65,0,.25.1.33.35.33h2.7c.27,0,.33-.11.32-.34C40.36,34.75,40.36,34.23,40.38,33.71Zm4.44,5.51c0-.22-.08-.31-.32-.31-1.27,0-2.54,0-3.82,0-.26,0-.33.08-.32.33,0,.53,0,1.07,0,1.6,0,.26.08.33.32.33.64,0,1.28,0,1.92,0h1.9c.22,0,.33,0,.33-.29C44.81,40.32,44.82,39.77,44.82,39.22Zm3-5.85c-.46,0-.92,0-1.38,0h0c-.46,0-.91,0-1.38,0-.2,0-.28,0-.28.27,0,.55,0,1.09,0,1.64,0,.23,0,.33.3.33h2.75c.21,0,.3-.06.29-.28,0-.55,0-1.09,0-1.64C48.17,33.45,48.08,33.36,47.85,33.37Zm8.1,27c0-.29-.11-.34-.36-.34-1.63,0-3.27,0-4.9,0-.29,0-.35.1-.33.36,0,.51,0,1,0,1.52,0,.31.11.37.39.37h2.4c.82,0,1.64,0,2.45,0,.26,0,.37-.05.36-.34Q55.92,61.19,56,60.41Zm0,0c0-.29-.11-.34-.36-.34-1.63,0-3.27,0-4.9,0-.29,0-.35.1-.33.36,0,.51,0,1,0,1.52,0,.31.11.37.39.37h2.4c.82,0,1.64,0,2.45,0,.26,0,.37-.05.36-.34Q55.92,61.19,56,60.41Zm-8.1-27c-.46,0-.92,0-1.38,0h0c-.46,0-.91,0-1.38,0-.2,0-.28,0-.28.27,0,.55,0,1.09,0,1.64,0,.23,0,.33.3.33h2.75c.21,0,.3-.06.29-.28,0-.55,0-1.09,0-1.64C48.17,33.45,48.08,33.36,47.85,33.37Zm-3,5.85c0-.22-.08-.31-.32-.31-1.27,0-2.54,0-3.82,0-.26,0-.33.08-.32.33,0,.53,0,1.07,0,1.6,0,.26.08.33.32.33.64,0,1.28,0,1.92,0h1.9c.22,0,.33,0,.33-.29C44.81,40.32,44.82,39.77,44.82,39.22Zm-4.44-5.51c0-.28-.1-.35-.37-.34-.43,0-.86,0-1.28,0H37.31c-.19,0-.31,0-.3.25,0,.55,0,1.1,0,1.65,0,.25.1.33.35.33h2.7c.27,0,.33-.11.32-.34C40.36,34.75,40.36,34.23,40.38,33.71Zm0,0c0-.28-.1-.35-.37-.34-.43,0-.86,0-1.28,0H37.31c-.19,0-.31,0-.3.25,0,.55,0,1.1,0,1.65,0,.25.1.33.35.33h2.7c.27,0,.33-.11.32-.34C40.36,34.75,40.36,34.23,40.38,33.71Zm4.44,5.51c0-.22-.08-.31-.32-.31-1.27,0-2.54,0-3.82,0-.26,0-.33.08-.32.33,0,.53,0,1.07,0,1.6,0,.26.08.33.32.33.64,0,1.28,0,1.92,0h1.9c.22,0,.33,0,.33-.29C44.81,40.32,44.82,39.77,44.82,39.22Zm3-5.85c-.46,0-.92,0-1.38,0h0c-.46,0-.91,0-1.38,0-.2,0-.28,0-.28.27,0,.55,0,1.09,0,1.64,0,.23,0,.33.3.33h2.75c.21,0,.3-.06.29-.28,0-.55,0-1.09,0-1.64C48.17,33.45,48.08,33.36,47.85,33.37Zm8.1,27c0-.29-.11-.34-.36-.34-1.63,0-3.27,0-4.9,0-.29,0-.35.1-.33.36,0,.51,0,1,0,1.52,0,.31.11.37.39.37h2.4c.82,0,1.64,0,2.45,0,.26,0,.37-.05.36-.34Q55.92,61.19,56,60.41Zm0,0c0-.29-.11-.34-.36-.34-1.63,0-3.27,0-4.9,0-.29,0-.35.1-.33.36,0,.51,0,1,0,1.52,0,.31.11.37.39.37h2.4c.82,0,1.64,0,2.45,0,.26,0,.37-.05.36-.34Q55.92,61.19,56,60.41Zm-8.1-27c-.46,0-.92,0-1.38,0h0c-.46,0-.91,0-1.38,0-.2,0-.28,0-.28.27,0,.55,0,1.09,0,1.64,0,.23,0,.33.3.33h2.75c.21,0,.3-.06.29-.28,0-.55,0-1.09,0-1.64C48.17,33.45,48.08,33.36,47.85,33.37Zm-3,5.85c0-.22-.08-.31-.32-.31-1.27,0-2.54,0-3.82,0-.26,0-.33.08-.32.33,0,.53,0,1.07,0,1.6,0,.26.08.33.32.33.64,0,1.28,0,1.92,0h1.9c.22,0,.33,0,.33-.29C44.81,40.32,44.82,39.77,44.82,39.22Zm-4.44-5.51c0-.28-.1-.35-.37-.34-.43,0-.86,0-1.28,0H37.31c-.19,0-.31,0-.3.25,0,.55,0,1.1,0,1.65,0,.25.1.33.35.33h2.7c.27,0,.33-.11.32-.34C40.36,34.75,40.36,34.23,40.38,33.71Zm0,0c0-.28-.1-.35-.37-.34-.43,0-.86,0-1.28,0H37.31c-.19,0-.31,0-.3.25,0,.55,0,1.1,0,1.65,0,.25.1.33.35.33h2.7c.27,0,.33-.11.32-.34C40.36,34.75,40.36,34.23,40.38,33.71Zm4.44,5.51c0-.22-.08-.31-.32-.31-1.27,0-2.54,0-3.82,0-.26,0-.33.08-.32.33,0,.53,0,1.07,0,1.6,0,.26.08.33.32.33.64,0,1.28,0,1.92,0h1.9c.22,0,.33,0,.33-.29C44.81,40.32,44.82,39.77,44.82,39.22Zm3-5.85c-.46,0-.92,0-1.38,0h0c-.46,0-.91,0-1.38,0-.2,0-.28,0-.28.27,0,.55,0,1.09,0,1.64,0,.23,0,.33.3.33h2.75c.21,0,.3-.06.29-.28,0-.55,0-1.09,0-1.64C48.17,33.45,48.08,33.36,47.85,33.37Zm8.1,27c0-.29-.11-.34-.36-.34-1.63,0-3.27,0-4.9,0-.29,0-.35.1-.33.36,0,.51,0,1,0,1.52,0,.31.11.37.39.37h2.4c.82,0,1.64,0,2.45,0,.26,0,.37-.05.36-.34Q55.92,61.19,56,60.41Zm0,0c0-.29-.11-.34-.36-.34-1.63,0-3.27,0-4.9,0-.29,0-.35.1-.33.36,0,.51,0,1,0,1.52,0,.31.11.37.39.37h2.4c.82,0,1.64,0,2.45,0,.26,0,.37-.05.36-.34Q55.92,61.19,56,60.41Zm-8.1-27c-.46,0-.92,0-1.38,0h0c-.46,0-.91,0-1.38,0-.2,0-.28,0-.28.27,0,.55,0,1.09,0,1.64,0,.23,0,.33.3.33h2.75c.21,0,.3-.06.29-.28,0-.55,0-1.09,0-1.64C48.17,33.45,48.08,33.36,47.85,33.37Zm-3,5.85c0-.22-.08-.31-.32-.31-1.27,0-2.54,0-3.82,0-.26,0-.33.08-.32.33,0,.53,0,1.07,0,1.6,0,.26.08.33.32.33.64,0,1.28,0,1.92,0h1.9c.22,0,.33,0,.33-.29C44.81,40.32,44.82,39.77,44.82,39.22Zm-4.44-5.51c0-.28-.1-.35-.37-.34-.43,0-.86,0-1.28,0H37.31c-.19,0-.31,0-.3.25,0,.55,0,1.1,0,1.65,0,.25.1.33.35.33h2.7c.27,0,.33-.11.32-.34C40.36,34.75,40.36,34.23,40.38,33.71Zm0,0c0-.28-.1-.35-.37-.34-.43,0-.86,0-1.28,0H37.31c-.19,0-.31,0-.3.25,0,.55,0,1.1,0,1.65,0,.25.1.33.35.33h2.7c.27,0,.33-.11.32-.34C40.36,34.75,40.36,34.23,40.38,33.71Zm4.44,5.51c0-.22-.08-.31-.32-.31-1.27,0-2.54,0-3.82,0-.26,0-.33.08-.32.33,0,.53,0,1.07,0,1.6,0,.26.08.33.32.33.64,0,1.28,0,1.92,0h1.9c.22,0,.33,0,.33-.29C44.81,40.32,44.82,39.77,44.82,39.22Zm3-5.85c-.46,0-.92,0-1.38,0h0c-.46,0-.91,0-1.38,0-.2,0-.28,0-.28.27,0,.55,0,1.09,0,1.64,0,.23,0,.33.3.33h2.75c.21,0,.3-.06.29-.28,0-.55,0-1.09,0-1.64C48.17,33.45,48.08,33.36,47.85,33.37Zm0,0c-.46,0-.92,0-1.38,0h0c-.46,0-.91,0-1.38,0-.2,0-.28,0-.28.27,0,.55,0,1.09,0,1.64,0,.23,0,.33.3.33h2.75c.21,0,.3-.06.29-.28,0-.55,0-1.09,0-1.64C48.17,33.45,48.08,33.36,47.85,33.37Zm-3,5.85c0-.22-.08-.31-.32-.31-1.27,0-2.54,0-3.82,0-.26,0-.33.08-.32.33,0,.53,0,1.07,0,1.6,0,.26.08.33.32.33.64,0,1.28,0,1.92,0h1.9c.22,0,.33,0,.33-.29C44.81,40.32,44.82,39.77,44.82,39.22Zm-4.44-5.51c0-.28-.1-.35-.37-.34-.43,0-.86,0-1.28,0H37.31c-.19,0-.31,0-.3.25,0,.55,0,1.1,0,1.65,0,.25.1.33.35.33h2.7c.27,0,.33-.11.32-.34C40.36,34.75,40.36,34.23,40.38,33.71Zm0,0c0-.28-.1-.35-.37-.34-.43,0-.86,0-1.28,0H37.31c-.19,0-.31,0-.3.25,0,.55,0,1.1,0,1.65,0,.25.1.33.35.33h2.7c.27,0,.33-.11.32-.34C40.36,34.75,40.36,34.23,40.38,33.71Zm4.44,5.51c0-.22-.08-.31-.32-.31-1.27,0-2.54,0-3.82,0-.26,0-.33.08-.32.33,0,.53,0,1.07,0,1.6,0,.26.08.33.32.33.64,0,1.28,0,1.92,0h1.9c.22,0,.33,0,.33-.29C44.81,40.32,44.82,39.77,44.82,39.22Zm3-5.85c-.46,0-.92,0-1.38,0h0c-.46,0-.91,0-1.38,0-.2,0-.28,0-.28.27,0,.55,0,1.09,0,1.64,0,.23,0,.33.3.33h2.75c.21,0,.3-.06.29-.28,0-.55,0-1.09,0-1.64C48.17,33.45,48.08,33.36,47.85,33.37Zm0,0c-.46,0-.92,0-1.38,0h0c-.46,0-.91,0-1.38,0-.2,0-.28,0-.28.27,0,.55,0,1.09,0,1.64,0,.23,0,.33.3.33h2.75c.21,0,.3-.06.29-.28,0-.55,0-1.09,0-1.64C48.17,33.45,48.08,33.36,47.85,33.37Zm-3,5.85c0-.22-.08-.31-.32-.31-1.27,0-2.54,0-3.82,0-.26,0-.33.08-.32.33,0,.53,0,1.07,0,1.6,0,.26.08.33.32.33.64,0,1.28,0,1.92,0h1.9c.22,0,.33,0,.33-.29C44.81,40.32,44.82,39.77,44.82,39.22Zm-4.44-5.51c0-.28-.1-.35-.37-.34-.43,0-.86,0-1.28,0H37.31c-.19,0-.31,0-.3.25,0,.55,0,1.1,0,1.65,0,.25.1.33.35.33h2.7c.27,0,.33-.11.32-.34C40.36,34.75,40.36,34.23,40.38,33.71Zm0,0c0-.28-.1-.35-.37-.34-.43,0-.86,0-1.28,0H37.31c-.19,0-.31,0-.3.25,0,.55,0,1.1,0,1.65,0,.25.1.33.35.33h2.7c.27,0,.33-.11.32-.34C40.36,34.75,40.36,34.23,40.38,33.71Zm4.44,5.51c0-.22-.08-.31-.32-.31-1.27,0-2.54,0-3.82,0-.26,0-.33.08-.32.33,0,.53,0,1.07,0,1.6,0,.26.08.33.32.33.64,0,1.28,0,1.92,0h1.9c.22,0,.33,0,.33-.29C44.81,40.32,44.82,39.77,44.82,39.22Zm3-5.85c-.46,0-.92,0-1.38,0h0c-.46,0-.91,0-1.38,0-.2,0-.28,0-.28.27,0,.55,0,1.09,0,1.64,0,.23,0,.33.3.33h2.75c.21,0,.3-.06.29-.28,0-.55,0-1.09,0-1.64C48.17,33.45,48.08,33.36,47.85,33.37Zm0,0c-.46,0-.92,0-1.38,0h0c-.46,0-.91,0-1.38,0-.2,0-.28,0-.28.27,0,.55,0,1.09,0,1.64,0,.23,0,.33.3.33h2.75c.21,0,.3-.06.29-.28,0-.55,0-1.09,0-1.64C48.17,33.45,48.08,33.36,47.85,33.37Zm-3,5.85c0-.22-.08-.31-.32-.31-1.27,0-2.54,0-3.82,0-.26,0-.33.08-.32.33,0,.53,0,1.07,0,1.6,0,.26.08.33.32.33.64,0,1.28,0,1.92,0h1.9c.22,0,.33,0,.33-.29C44.81,40.32,44.82,39.77,44.82,39.22Zm-4.44-5.51c0-.28-.1-.35-.37-.34-.43,0-.86,0-1.28,0H37.31c-.19,0-.31,0-.3.25,0,.55,0,1.1,0,1.65,0,.25.1.33.35.33h2.7c.27,0,.33-.11.32-.34C40.36,34.75,40.36,34.23,40.38,33.71Z" transform="translate(0 0)"></path><path class="cls-2" d="M40.38,33.71c0-.28-.1-.35-.37-.34-.43,0-.86,0-1.28,0H37.31c-.19,0-.31,0-.3.25,0,.55,0,1.1,0,1.65,0,.25.1.33.35.33h2.7c.27,0,.33-.11.32-.34C40.36,34.75,40.36,34.23,40.38,33.71Zm4.44,5.51c0-.22-.08-.31-.32-.31-1.27,0-2.54,0-3.82,0-.26,0-.33.08-.32.33,0,.53,0,1.07,0,1.6,0,.26.08.33.32.33.64,0,1.28,0,1.92,0h1.9c.22,0,.33,0,.33-.29C44.81,40.32,44.82,39.77,44.82,39.22Zm3-5.85c-.46,0-.92,0-1.38,0h0c-.46,0-.91,0-1.38,0-.2,0-.28,0-.28.27,0,.55,0,1.09,0,1.64,0,.23,0,.33.3.33h2.75c.21,0,.3-.06.29-.28,0-.55,0-1.09,0-1.64C48.17,33.45,48.08,33.36,47.85,33.37Zm0,0c-.46,0-.92,0-1.38,0h0c-.46,0-.91,0-1.38,0-.2,0-.28,0-.28.27,0,.55,0,1.09,0,1.64,0,.23,0,.33.3.33h2.75c.21,0,.3-.06.29-.28,0-.55,0-1.09,0-1.64C48.17,33.45,48.08,33.36,47.85,33.37Zm-3,5.85c0-.22-.08-.31-.32-.31-1.27,0-2.54,0-3.82,0-.26,0-.33.08-.32.33,0,.53,0,1.07,0,1.6,0,.26.08.33.32.33.64,0,1.28,0,1.92,0h1.9c.22,0,.33,0,.33-.29C44.81,40.32,44.82,39.77,44.82,39.22Zm-4.44-5.51c0-.28-.1-.35-.37-.34-.43,0-.86,0-1.28,0H37.31c-.19,0-.31,0-.3.25,0,.55,0,1.1,0,1.65,0,.25.1.33.35.33h2.7c.27,0,.33-.11.32-.34C40.36,34.75,40.36,34.23,40.38,33.71Zm0,0c0-.28-.1-.35-.37-.34-.43,0-.86,0-1.28,0H37.31c-.19,0-.31,0-.3.25,0,.55,0,1.1,0,1.65,0,.25.1.33.35.33h2.7c.27,0,.33-.11.32-.34C40.36,34.75,40.36,34.23,40.38,33.71Zm4.44,5.51c0-.22-.08-.31-.32-.31-1.27,0-2.54,0-3.82,0-.26,0-.33.08-.32.33,0,.53,0,1.07,0,1.6,0,.26.08.33.32.33.64,0,1.28,0,1.92,0h1.9c.22,0,.33,0,.33-.29C44.81,40.32,44.82,39.77,44.82,39.22Zm3-5.85c-.46,0-.92,0-1.38,0h0c-.46,0-.91,0-1.38,0-.2,0-.28,0-.28.27,0,.55,0,1.09,0,1.64,0,.23,0,.33.3.33h2.75c.21,0,.3-.06.29-.28,0-.55,0-1.09,0-1.64C48.17,33.45,48.08,33.36,47.85,33.37Zm0,0c-.46,0-.92,0-1.38,0h0c-.46,0-.91,0-1.38,0-.2,0-.28,0-.28.27,0,.55,0,1.09,0,1.64,0,.23,0,.33.3.33h2.75c.21,0,.3-.06.29-.28,0-.55,0-1.09,0-1.64C48.17,33.45,48.08,33.36,47.85,33.37Zm-3,5.85c0-.22-.08-.31-.32-.31-1.27,0-2.54,0-3.82,0-.26,0-.33.08-.32.33,0,.53,0,1.07,0,1.6,0,.26.08.33.32.33.64,0,1.28,0,1.92,0h1.9c.22,0,.33,0,.33-.29C44.81,40.32,44.82,39.77,44.82,39.22Zm-4.44-5.51c0-.28-.1-.35-.37-.34-.43,0-.86,0-1.28,0H37.31c-.19,0-.31,0-.3.25,0,.55,0,1.1,0,1.65,0,.25.1.33.35.33h2.7c.27,0,.33-.11.32-.34C40.36,34.75,40.36,34.23,40.38,33.71Zm0,0c0-.28-.1-.35-.37-.34-.43,0-.86,0-1.28,0H37.31c-.19,0-.31,0-.3.25,0,.55,0,1.1,0,1.65,0,.25.1.33.35.33h2.7c.27,0,.33-.11.32-.34C40.36,34.75,40.36,34.23,40.38,33.71Zm4.44,5.51c0-.22-.08-.31-.32-.31-1.27,0-2.54,0-3.82,0-.26,0-.33.08-.32.33,0,.53,0,1.07,0,1.6,0,.26.08.33.32.33.64,0,1.28,0,1.92,0h1.9c.22,0,.33,0,.33-.29C44.81,40.32,44.82,39.77,44.82,39.22Zm3-5.85c-.46,0-.92,0-1.38,0h0c-.46,0-.91,0-1.38,0-.2,0-.28,0-.28.27,0,.55,0,1.09,0,1.64,0,.23,0,.33.3.33h2.75c.21,0,.3-.06.29-.28,0-.55,0-1.09,0-1.64C48.17,33.45,48.08,33.36,47.85,33.37Zm8.1,27c0-.29-.11-.34-.36-.34-1.63,0-3.27,0-4.9,0-.29,0-.35.1-.33.36,0,.51,0,1,0,1.52,0,.31.11.37.39.37h2.4c.82,0,1.64,0,2.45,0,.26,0,.37-.05.36-.34Q55.92,61.19,56,60.41Zm0,0c0-.29-.11-.34-.36-.34-1.63,0-3.27,0-4.9,0-.29,0-.35.1-.33.36,0,.51,0,1,0,1.52,0,.31.11.37.39.37h2.4c.82,0,1.64,0,2.45,0,.26,0,.37-.05.36-.34Q55.92,61.19,56,60.41Zm-8.1-27c-.46,0-.92,0-1.38,0h0c-.46,0-.91,0-1.38,0-.2,0-.28,0-.28.27,0,.55,0,1.09,0,1.64,0,.23,0,.33.3.33h2.75c.21,0,.3-.06.29-.28,0-.55,0-1.09,0-1.64C48.17,33.45,48.08,33.36,47.85,33.37Zm-3,5.85c0-.22-.08-.31-.32-.31-1.27,0-2.54,0-3.82,0-.26,0-.33.08-.32.33,0,.53,0,1.07,0,1.6,0,.26.08.33.32.33.64,0,1.28,0,1.92,0h1.9c.22,0,.33,0,.33-.29C44.81,40.32,44.82,39.77,44.82,39.22Zm-4.44-5.51c0-.28-.1-.35-.37-.34-.43,0-.86,0-1.28,0H37.31c-.19,0-.31,0-.3.25,0,.55,0,1.1,0,1.65,0,.25.1.33.35.33h2.7c.27,0,.33-.11.32-.34C40.36,34.75,40.36,34.23,40.38,33.71Zm0,0c0-.28-.1-.35-.37-.34-.43,0-.86,0-1.28,0H37.31c-.19,0-.31,0-.3.25,0,.55,0,1.1,0,1.65,0,.25.1.33.35.33h2.7c.27,0,.33-.11.32-.34C40.36,34.75,40.36,34.23,40.38,33.71Zm4.44,5.51c0-.22-.08-.31-.32-.31-1.27,0-2.54,0-3.82,0-.26,0-.33.08-.32.33,0,.53,0,1.07,0,1.6,0,.26.08.33.32.33.64,0,1.28,0,1.92,0h1.9c.22,0,.33,0,.33-.29C44.81,40.32,44.82,39.77,44.82,39.22Zm3-5.85c-.46,0-.92,0-1.38,0h0c-.46,0-.91,0-1.38,0-.2,0-.28,0-.28.27,0,.55,0,1.09,0,1.64,0,.23,0,.33.3.33h2.75c.21,0,.3-.06.29-.28,0-.55,0-1.09,0-1.64C48.17,33.45,48.08,33.36,47.85,33.37Zm8.1,27c0-.29-.11-.34-.36-.34-1.63,0-3.27,0-4.9,0-.29,0-.35.1-.33.36,0,.51,0,1,0,1.52,0,.31.11.37.39.37h2.4c.82,0,1.64,0,2.45,0,.26,0,.37-.05.36-.34Q55.92,61.19,56,60.41Zm0,0c0-.29-.11-.34-.36-.34-1.63,0-3.27,0-4.9,0-.29,0-.35.1-.33.36,0,.51,0,1,0,1.52,0,.31.11.37.39.37h2.4c.82,0,1.64,0,2.45,0,.26,0,.37-.05.36-.34Q55.92,61.19,56,60.41Zm-8.1-27c-.46,0-.92,0-1.38,0h0c-.46,0-.91,0-1.38,0-.2,0-.28,0-.28.27,0,.55,0,1.09,0,1.64,0,.23,0,.33.3.33h2.75c.21,0,.3-.06.29-.28,0-.55,0-1.09,0-1.64C48.17,33.45,48.08,33.36,47.85,33.37Zm-3,5.85c0-.22-.08-.31-.32-.31-1.27,0-2.54,0-3.82,0-.26,0-.33.08-.32.33,0,.53,0,1.07,0,1.6,0,.26.08.33.32.33.64,0,1.28,0,1.92,0h1.9c.22,0,.33,0,.33-.29C44.81,40.32,44.82,39.77,44.82,39.22Zm-4.44-5.51c0-.28-.1-.35-.37-.34-.43,0-.86,0-1.28,0H37.31c-.19,0-.31,0-.3.25,0,.55,0,1.1,0,1.65,0,.25.1.33.35.33h2.7c.27,0,.33-.11.32-.34C40.36,34.75,40.36,34.23,40.38,33.71Zm0,0c0-.28-.1-.35-.37-.34-.43,0-.86,0-1.28,0H37.31c-.19,0-.31,0-.3.25,0,.55,0,1.1,0,1.65,0,.25.1.33.35.33h2.7c.27,0,.33-.11.32-.34C40.36,34.75,40.36,34.23,40.38,33.71Zm4.44,5.51c0-.22-.08-.31-.32-.31-1.27,0-2.54,0-3.82,0-.26,0-.33.08-.32.33,0,.53,0,1.07,0,1.6,0,.26.08.33.32.33.64,0,1.28,0,1.92,0h1.9c.22,0,.33,0,.33-.29C44.81,40.32,44.82,39.77,44.82,39.22Zm3-5.85c-.46,0-.92,0-1.38,0h0c-.46,0-.91,0-1.38,0-.2,0-.28,0-.28.27,0,.55,0,1.09,0,1.64,0,.23,0,.33.3.33h2.75c.21,0,.3-.06.29-.28,0-.55,0-1.09,0-1.64C48.17,33.45,48.08,33.36,47.85,33.37Zm8.1,27c0-.29-.11-.34-.36-.34-1.63,0-3.27,0-4.9,0-.29,0-.35.1-.33.36,0,.51,0,1,0,1.52,0,.31.11.37.39.37h2.4c.82,0,1.64,0,2.45,0,.26,0,.37-.05.36-.34Q55.92,61.19,56,60.41Zm0,0c0-.29-.11-.34-.36-.34-1.63,0-3.27,0-4.9,0-.29,0-.35.1-.33.36,0,.51,0,1,0,1.52,0,.31.11.37.39.37h2.4c.82,0,1.64,0,2.45,0,.26,0,.37-.05.36-.34Q55.92,61.19,56,60.41Zm-8.1-27c-.46,0-.92,0-1.38,0h0c-.46,0-.91,0-1.38,0-.2,0-.28,0-.28.27,0,.55,0,1.09,0,1.64,0,.23,0,.33.3.33h2.75c.21,0,.3-.06.29-.28,0-.55,0-1.09,0-1.64C48.17,33.45,48.08,33.36,47.85,33.37Zm-3,5.85c0-.22-.08-.31-.32-.31-1.27,0-2.54,0-3.82,0-.26,0-.33.08-.32.33,0,.53,0,1.07,0,1.6,0,.26.08.33.32.33.64,0,1.28,0,1.92,0h1.9c.22,0,.33,0,.33-.29C44.81,40.32,44.82,39.77,44.82,39.22Zm-4.44-5.51c0-.28-.1-.35-.37-.34-.43,0-.86,0-1.28,0H37.31c-.19,0-.31,0-.3.25,0,.55,0,1.1,0,1.65,0,.25.1.33.35.33h2.7c.27,0,.33-.11.32-.34C40.36,34.75,40.36,34.23,40.38,33.71Zm0,0c0-.28-.1-.35-.37-.34-.43,0-.86,0-1.28,0H37.31c-.19,0-.31,0-.3.25,0,.55,0,1.1,0,1.65,0,.25.1.33.35.33h2.7c.27,0,.33-.11.32-.34C40.36,34.75,40.36,34.23,40.38,33.71Zm4.44,5.51c0-.22-.08-.31-.32-.31-1.27,0-2.54,0-3.82,0-.26,0-.33.08-.32.33,0,.53,0,1.07,0,1.6,0,.26.08.33.32.33.64,0,1.28,0,1.92,0h1.9c.22,0,.33,0,.33-.29C44.81,40.32,44.82,39.77,44.82,39.22Zm3-5.85c-.46,0-.92,0-1.38,0h0c-.46,0-.91,0-1.38,0-.2,0-.28,0-.28.27,0,.55,0,1.09,0,1.64,0,.23,0,.33.3.33h2.75c.21,0,.3-.06.29-.28,0-.55,0-1.09,0-1.64C48.17,33.45,48.08,33.36,47.85,33.37Zm8.1,27c0-.29-.11-.34-.36-.34-1.63,0-3.27,0-4.9,0-.29,0-.35.1-.33.36,0,.51,0,1,0,1.52,0,.31.11.37.39.37h2.4c.82,0,1.64,0,2.45,0,.26,0,.37-.05.36-.34Q55.92,61.19,56,60.41Zm0,0c0-.29-.11-.34-.36-.34-1.63,0-3.27,0-4.9,0-.29,0-.35.1-.33.36,0,.51,0,1,0,1.52,0,.31.11.37.39.37h2.4c.82,0,1.64,0,2.45,0,.26,0,.37-.05.36-.34Q55.92,61.19,56,60.41Zm-8.1-27c-.46,0-.92,0-1.38,0h0c-.46,0-.91,0-1.38,0-.2,0-.28,0-.28.27,0,.55,0,1.09,0,1.64,0,.23,0,.33.3.33h2.75c.21,0,.3-.06.29-.28,0-.55,0-1.09,0-1.64C48.17,33.45,48.08,33.36,47.85,33.37Zm-3,5.85c0-.22-.08-.31-.32-.31-1.27,0-2.54,0-3.82,0-.26,0-.33.08-.32.33,0,.53,0,1.07,0,1.6,0,.26.08.33.32.33.64,0,1.28,0,1.92,0h1.9c.22,0,.33,0,.33-.29C44.81,40.32,44.82,39.77,44.82,39.22Zm-4.44-5.51c0-.28-.1-.35-.37-.34-.43,0-.86,0-1.28,0H37.31c-.19,0-.31,0-.3.25,0,.55,0,1.1,0,1.65,0,.25.1.33.35.33h2.7c.27,0,.33-.11.32-.34C40.36,34.75,40.36,34.23,40.38,33.71Zm0,0c0-.28-.1-.35-.37-.34-.43,0-.86,0-1.28,0H37.31c-.19,0-.31,0-.3.25,0,.55,0,1.1,0,1.65,0,.25.1.33.35.33h2.7c.27,0,.33-.11.32-.34C40.36,34.75,40.36,34.23,40.38,33.71Zm4.44,5.51c0-.22-.08-.31-.32-.31-1.27,0-2.54,0-3.82,0-.26,0-.33.08-.32.33,0,.53,0,1.07,0,1.6,0,.26.08.33.32.33.64,0,1.28,0,1.92,0h1.9c.22,0,.33,0,.33-.29C44.81,40.32,44.82,39.77,44.82,39.22Zm3-5.85c-.46,0-.92,0-1.38,0h0c-.46,0-.91,0-1.38,0-.2,0-.28,0-.28.27,0,.55,0,1.09,0,1.64,0,.23,0,.33.3.33h2.75c.21,0,.3-.06.29-.28,0-.55,0-1.09,0-1.64C48.17,33.45,48.08,33.36,47.85,33.37Zm8.1,27c0-.29-.11-.34-.36-.34-1.63,0-3.27,0-4.9,0-.29,0-.35.1-.33.36,0,.51,0,1,0,1.52,0,.31.11.37.39.37h2.4c.82,0,1.64,0,2.45,0,.26,0,.37-.05.36-.34Q55.92,61.19,56,60.41Zm0,0c0-.29-.11-.34-.36-.34-1.63,0-3.27,0-4.9,0-.29,0-.35.1-.33.36,0,.51,0,1,0,1.52,0,.31.11.37.39.37h2.4c.82,0,1.64,0,2.45,0,.26,0,.37-.05.36-.34Q55.92,61.19,56,60.41Zm-8.1-27c-.46,0-.92,0-1.38,0h0c-.46,0-.91,0-1.38,0-.2,0-.28,0-.28.27,0,.55,0,1.09,0,1.64,0,.23,0,.33.3.33h2.75c.21,0,.3-.06.29-.28,0-.55,0-1.09,0-1.64C48.17,33.45,48.08,33.36,47.85,33.37Zm-3,5.85c0-.22-.08-.31-.32-.31-1.27,0-2.54,0-3.82,0-.26,0-.33.08-.32.33,0,.53,0,1.07,0,1.6,0,.26.08.33.32.33.64,0,1.28,0,1.92,0h1.9c.22,0,.33,0,.33-.29C44.81,40.32,44.82,39.77,44.82,39.22Zm-4.44-5.51c0-.28-.1-.35-.37-.34-.43,0-.86,0-1.28,0H37.31c-.19,0-.31,0-.3.25,0,.55,0,1.1,0,1.65,0,.25.1.33.35.33h2.7c.27,0,.33-.11.32-.34C40.36,34.75,40.36,34.23,40.38,33.71Zm0,0c0-.28-.1-.35-.37-.34-.43,0-.86,0-1.28,0H37.31c-.19,0-.31,0-.3.25,0,.55,0,1.1,0,1.65,0,.25.1.33.35.33h2.7c.27,0,.33-.11.32-.34C40.36,34.75,40.36,34.23,40.38,33.71Zm4.44,5.51c0-.22-.08-.31-.32-.31-1.27,0-2.54,0-3.82,0-.26,0-.33.08-.32.33,0,.53,0,1.07,0,1.6,0,.26.08.33.32.33.64,0,1.28,0,1.92,0h1.9c.22,0,.33,0,.33-.29C44.81,40.32,44.82,39.77,44.82,39.22Zm3-5.85c-.46,0-.92,0-1.38,0h0c-.46,0-.91,0-1.38,0-.2,0-.28,0-.28.27,0,.55,0,1.09,0,1.64,0,.23,0,.33.3.33h2.75c.21,0,.3-.06.29-.28,0-.55,0-1.09,0-1.64C48.17,33.45,48.08,33.36,47.85,33.37Zm8.1,27c0-.29-.11-.34-.36-.34-1.63,0-3.27,0-4.9,0-.29,0-.35.1-.33.36,0,.51,0,1,0,1.52,0,.31.11.37.39.37h2.4c.82,0,1.64,0,2.45,0,.26,0,.37-.05.36-.34Q55.92,61.19,56,60.41Zm0,0c0-.29-.11-.34-.36-.34-1.63,0-3.27,0-4.9,0-.29,0-.35.1-.33.36,0,.51,0,1,0,1.52,0,.31.11.37.39.37h2.4c.82,0,1.64,0,2.45,0,.26,0,.37-.05.36-.34Q55.92,61.19,56,60.41Zm-8.1-27c-.46,0-.92,0-1.38,0h0c-.46,0-.91,0-1.38,0-.2,0-.28,0-.28.27,0,.55,0,1.09,0,1.64,0,.23,0,.33.3.33h2.75c.21,0,.3-.06.29-.28,0-.55,0-1.09,0-1.64C48.17,33.45,48.08,33.36,47.85,33.37Zm-3,5.85c0-.22-.08-.31-.32-.31-1.27,0-2.54,0-3.82,0-.26,0-.33.08-.32.33,0,.53,0,1.07,0,1.6,0,.26.08.33.32.33.64,0,1.28,0,1.92,0h1.9c.22,0,.33,0,.33-.29C44.81,40.32,44.82,39.77,44.82,39.22Zm-4.44-5.51c0-.28-.1-.35-.37-.34-.43,0-.86,0-1.28,0H37.31c-.19,0-.31,0-.3.25,0,.55,0,1.1,0,1.65,0,.25.1.33.35.33h2.7c.27,0,.33-.11.32-.34C40.36,34.75,40.36,34.23,40.38,33.71ZM76,61.3a3.39,3.39,0,0,0-1.9-3.13.56.56,0,0,1-.34-.58c0-1.49,0-3,0-4.45q0-3.59,0-7.17c0-.31-.09-.41-.4-.38a8.56,8.56,0,0,1-1.34,0c-.39,0-.5.07-.5.48,0,3.79,0,7.59,0,11.39,0,.32-.1.4-.4.39-.7,0-1.39,0-2.09,0-.39,0-.52-.13-.61-.5a6.57,6.57,0,0,0-4.68-5.05c-1.37-.45-2.76-.87-4.14-1.3l-4.29-1.33-4.6-1.46a.4.4,0,0,1-.34-.47c0-.7.05-1.4,0-2.09a.7.7,0,0,1,.37-.72,8.69,8.69,0,0,0,4-6.26.71.71,0,0,1,.29-.47c1.15-.94,2.3-1.88,3.46-2.79a3.58,3.58,0,0,0-2-6.48c-.46,0-.92,0-1.37,0-.26,0-.33-.1-.33-.35,0-1.87,0-3.74,0-5.61a1.5,1.5,0,0,1,.1-.72c.78-1.53,1.58-3.05,2.3-4.6a3.26,3.26,0,0,0-1.19-4,17,17,0,0,0-8.39-2.54c-3.1,0-6.2,0-9.3,0a17.75,17.75,0,0,0-8.75,2.26A3.41,3.41,0,0,0,28.08,18c.56,1,1.09,2.09,1.57,3.18A4,4,0,0,1,30.36,23c0,1.81,0,3.62,0,5.42,0,.42-.1.56-.53.56a7,7,0,0,0-2,.06,3.44,3.44,0,0,0-2.57,2.93,3.3,3.3,0,0,0,1.25,3.35c1.16.95,2.32,1.88,3.5,2.81a1.19,1.19,0,0,1,.46.77,8.68,8.68,0,0,0,4,6.1.62.62,0,0,1,.32.58c0,.73,0,1.46,0,2.18a.45.45,0,0,1-.36.52c-.91.27-1.81.56-2.71.85l-4.82,1.52c-2.07.63-4.16,1.18-6.16,2a6.27,6.27,0,0,0-4.1,5.5c-.29,2.71-.57,5.43-.82,8.14q-.33,3.63-.74,7.26a5.5,5.5,0,0,0,.05,2,3.4,3.4,0,0,0,3,2.4H72.67A3.35,3.35,0,0,0,76,74.6C76,70.16,76,65.73,76,61.3ZM55.09,31.15c.27,0,.53,0,.8,0,.47.06,1-.14,1.38.28a1.4,1.4,0,0,1,0,2.14c-.75.56-1.49,1.12-2.18,1.75-.05.06-.11.12-.19.08s-.1-.14-.09-.23c.07-1.26.06-2.52,0-3.77C54.82,31.19,54.91,31.15,55.09,31.15ZM30.36,33.33h0c0,.6,0,1.19,0,1.78,0,.1,0,.22-.09.27s-.14,0-.2-.08A14.8,14.8,0,0,0,28,33.61a1.45,1.45,0,0,1,.24-2.39.46.46,0,0,1,.3-.06,4.28,4.28,0,0,1,.62,0c.39,0,.93-.18,1.14.08s.09.76.1,1.16S30.36,33,30.36,33.33ZM31.94,20.7c-.59-1.22-1.22-2.43-1.83-3.64a1.09,1.09,0,0,1,.43-1.6A13.43,13.43,0,0,1,33.9,14a18.74,18.74,0,0,1,5.58-.64c2.64.05,5.28,0,7.92,0a13.85,13.85,0,0,1,6.27,1.56,6.42,6.42,0,0,1,1.09.6,1.06,1.06,0,0,1,.38,1.37c-.66,1.34-1.34,2.67-2,4-.14.27-.37.22-.58.22h-10c-3.31,0-6.61,0-9.92,0A.67.67,0,0,1,31.94,20.7Zm20.37,3.39a6.52,6.52,0,0,1-4.67,4.61,6,6,0,0,1-1.88.23c-2.1,0-4.19,0-6.28,0A6.8,6.8,0,0,1,33,24.64c-.12-.33-.2-.68-.32-1s0-.25.18-.25H51.76C52.5,23.39,52.52,23.39,52.31,24.09ZM32.61,37.62c0-2.8,0-5.6,0-8.4,0-.32-.23-.77.06-.91s.4.4.63.59a8.81,8.81,0,0,0,5.84,2.25c2.43,0,4.86,0,7.29,0a7.74,7.74,0,0,0,4.29-1.39,5,5,0,0,0,1.58-1.34c0-.07.11-.16.21-.1s.07.18.07.28c0,1.57,0,3.14,0,5.32,0,1,.12,2.66,0,4.28a6.43,6.43,0,0,1-3.49,5.15c-1.29.73-2.62,1.36-4,2a5.48,5.48,0,0,1-5,0c-1.36-.68-2.77-1.28-4.07-2A6.4,6.4,0,0,1,32.61,37.62ZM43.28,52.48c-.67.55-.71.57-1.37,0-1.58-1.3-3.12-2.63-4.68-3.95A.5.5,0,0,1,37,48.1a9.62,9.62,0,0,0,0-1.42c0-.33.07-.34.35-.2a22.4,22.4,0,0,0,2.85,1.33,8.25,8.25,0,0,0,6.74-.9,7,7,0,0,0,.85-.47c.17-.13.31-.08.31.17v.92c.19.6-.15,1.06-.69,1.5C46,50.16,44.67,51.33,43.28,52.48Zm1.29,5.59a.47.47,0,0,1,.08.63,2.27,2.27,0,0,1-1.81,1.38,2.53,2.53,0,0,1-2.42-1.62.23.23,0,0,1,.06-.24c.64-.66,1.29-1.31,1.93-2,.13-.14.25-.12.38,0C43.38,56.88,44,57.48,44.57,58.07ZM20,55.72a4.67,4.67,0,0,1,1.85-1.17c1.8-.58,3.61-1.14,5.4-1.73.27-.08.42,0,.55.2.3.59.61,1.18.93,1.76.16.31,0,.43-.27.54l-3.8,1.91-2.49,1.25-.25.12c-.19,0-.26-.12-.34-.23-.55-.71-1.08-1.44-1.63-2.15C19.78,56,19.83,55.88,20,55.72ZM32.57,75.29c0,.29-.09.37-.38.37H26.24c-.28,0-.34-.1-.34-.36,0-1.25,0-2.49,0-3.74,0-.3.07-.37.36-.36h5.91c.27,0,.39,0,.39.35C32.55,72.8,32.55,74,32.57,75.29Zm0-6.61c0,.26-.12.29-.33.29h-3c-1,0-1.95,0-2.93,0-.32,0-.4-.1-.38-.41,0-.5,0-1,0-1.51,0-.23.07-.3.3-.3q3,0,6,0c.21,0,.32,0,.32.29C32.55,67.59,32.55,68.14,32.57,68.68Zm6.55-7.57c-.25,1.73-.48,3.47-.71,5.2-.39,3-.79,5.9-1.17,8.85,0,.37-.16.52-.55.5s-1,0-1.55,0c-.24,0-.33,0-.33-.32,0-3.45,0-6.9,0-10.36,0-.39-.12-.45-.48-.45-1.7,0-3.41,0-5.11,0h0c-1.74,0-3.47,0-5.21,0-.33,0-.34.13-.34.39,0,3.44,0,6.88,0,10.32,0,.36-.11.44-.45.44-1.62,0-3.23,0-4.85,0a1.13,1.13,0,0,1-1.12-1.26c.22-1.38.26-2.77.42-4.15.36-3.09.58-6.2.95-9.29a9.87,9.87,0,0,0,.16-2c0-.11,0-.23.1-.26s.19.06.26.15c.59.8,1.2,1.61,1.79,2.42.12.17.21.27.42.17l4.23-2.12,5.89-3c.35-.17.36-.3.18-.64-.53-1-1-2-1.5-3-.36-.72-.33-.64.44-1s1,0,1.43.42c1.95,2,3.92,4,5.9,5.92a.9.9,0,0,1,.26.49A4.56,4.56,0,0,0,39,60.45.8.8,0,0,1,39.12,61.11ZM39,56c-1.52-1.54-3.05-3.06-4.57-4.6-.18-.18-.53-.3-.48-.58s.43-.13.65-.25.47-.15.7-.26a.54.54,0,0,1,.64.11q2.37,2,4.77,4c.06.06.15.1.16.23l-.19.21c-.38.39-.79.76-1.15,1.16C39.31,56.22,39.2,56.21,39,56Zm6.42,19.65H42.56c-.92,0-1.84,0-2.75,0-.33,0-.39-.1-.35-.42.24-1.64.45-3.29.68-4.93.32-2.39.63-4.79,1-7.17,0-.31-.05-.68.15-.91s.52.12.82.08c.54-.07,1.09.1,1.62-.17.25-.12.28.13.31.3.09.58.18,1.17.26,1.76.31,2.66.69,5.31,1.05,8,.14,1,.26,2.08.42,3.12C45.78,75.58,45.68,75.66,45.41,75.65ZM45.68,56c-.41-.41-.83-.84-1.26-1.24-.17-.16-.14-.23,0-.37q2.4-2,4.77-4a.59.59,0,0,1,.69-.12c.34.13.69.22,1.05.32.11,0,.26,0,.31.13s-.06.24-.15.34c-1.1,1.08-2.19,2.17-3.27,3.25-.57.56-1.13,1.13-1.69,1.7-.07.06-.12.14-.26.14S45.76,56.1,45.68,56ZM59.26,75.3c0,.27-.07.36-.35.35-2,0-3.94,0-5.92,0-.21,0-.4,0-.39-.3,0-1.26,0-2.52,0-3.78,0-.29.07-.38.37-.38,1,0,2,0,2.93,0h3c.29,0,.39.07.39.36C59.25,72.81,59.25,74.06,59.26,75.3Zm0-6.71c0,.29-.07.39-.37.39-2,0-4,0-6,0-.28,0-.35-.1-.34-.37,0-.5,0-1,0-1.51,0-.28.07-.36.34-.35,1,0,2,0,3,0s1.95,0,2.93,0c.29,0,.39.09.38.39A14.2,14.2,0,0,0,59.26,68.59Zm4,7.06c-.49,0-1,0-1.47,0-.23,0-.3-.07-.3-.31,0-3.45,0-6.91,0-10.36,0-.38-.1-.47-.47-.47q-5.11,0-10.23,0c-.36,0-.46.06-.46.46,0,3.44,0,6.88,0,10.32,0,.26-.07.37-.35.36-.53,0-1.06,0-1.6,0-.3,0-.42-.1-.45-.4-.17-1.43-.34-2.86-.54-4.28-.34-2.33-.64-4.67-.93-7-.13-1-.29-2-.46-3a.7.7,0,0,1,.19-.57,4.48,4.48,0,0,0,.81-2,.67.67,0,0,1,.22-.36c2.1-2.1,4.19-4.19,6.28-6.3.21-.2.37-.33.68-.15a3.93,3.93,0,0,0,.84.27c.24.07.32.15.19.41-.6,1.13-1.17,2.28-1.76,3.43-.13.23-.06.34.15.45l5,2.77c1.56.87,3.12,1.75,4.69,2.61a.71.71,0,0,1,.4.74q0,3.09,0,6.18h0v6.19c0,.12,0,.24,0,.35C63.84,75.65,63.84,75.65,63.27,75.65Zm1.06-16.37c-.13.19-.23.25-.46.11L58,56.13l-1.43-.79a.32.32,0,0,1-.14-.51c.32-.6.63-1.21.93-1.81a.34.34,0,0,1,.38-.24l1.51.47c1.31.41,2.63.81,3.94,1.24a4.54,4.54,0,0,1,3,3.13c.08.25-.06.36-.26.43A3.08,3.08,0,0,0,64.33,59.28Zm9.41,4.54V74.36a1.17,1.17,0,0,1-1.27,1.29H67.18A1.15,1.15,0,0,1,66,74.4c0-2.19,0-4.39,0-6.58h0V61.16A1.17,1.17,0,0,1,67,60.08h5.73a1.15,1.15,0,0,1,1,1.12C73.75,62.07,73.74,63,73.74,63.82Zm-2.22,7.67c0-.24-.07-.31-.3-.3-.46,0-.92,0-1.38,0H68.46c-.18,0-.31,0-.31.25,0,.56,0,1.13,0,1.69,0,.2,0,.3.27.29h2.85c.19,0,.26-.06.25-.25C71.52,72.61,71.51,72.05,71.52,71.49Zm-.33-9.19c-.9,0-1.8,0-2.7,0-.25,0-.34.06-.33.33,0,.53,0,1.06,0,1.59,0,.27.11.33.35.32.44,0,.88,0,1.33,0h0c.44,0,.89,0,1.33,0,.25,0,.38,0,.37-.34q0-.8,0-1.59C71.54,62.33,71.43,62.3,71.19,62.3ZM68.51,69q1.35,0,2.7,0c.22,0,.32,0,.31-.29,0-.55,0-1.1,0-1.64,0-.24-.06-.31-.3-.31-.45,0-.91,0-1.37,0s-.92,0-1.38,0c-.26,0-.33.08-.31.34,0,.51,0,1,0,1.54C68.14,68.9,68.24,69,68.51,69ZM55.59,60.07c-1.63,0-3.27,0-4.9,0-.29,0-.35.1-.33.36,0,.51,0,1,0,1.52,0,.31.11.37.39.37h2.4c.82,0,1.64,0,2.45,0,.26,0,.37-.05.36-.34q0-.78,0-1.56C56,60.12,55.84,60.07,55.59,60.07ZM45.11,35.61h2.75c.21,0,.3-.06.29-.28,0-.55,0-1.09,0-1.64,0-.23-.09-.32-.32-.31-.46,0-.92,0-1.38,0h0c-.46,0-.91,0-1.38,0-.2,0-.28,0-.28.27,0,.55,0,1.09,0,1.64C44.81,35.51,44.86,35.61,45.11,35.61Zm-4.75,5.23c0,.26.08.33.32.33.64,0,1.28,0,1.92,0h1.9c.22,0,.33,0,.33-.29,0-.55,0-1.1,0-1.65,0-.22-.08-.31-.32-.31-1.27,0-2.54,0-3.82,0-.26,0-.33.08-.32.33C40.37,39.77,40.39,40.31,40.36,40.84Zm-3-5.23h2.7c.27,0,.33-.11.32-.34,0-.52,0-1,0-1.56,0-.28-.1-.35-.37-.34-.43,0-.86,0-1.28,0H37.31c-.19,0-.31,0-.3.25,0,.55,0,1.1,0,1.65C37,35.53,37.1,35.61,37.35,35.61Zm3-1.9c0-.28-.1-.35-.37-.34-.43,0-.86,0-1.28,0H37.31c-.19,0-.31,0-.3.25,0,.55,0,1.1,0,1.65,0,.25.1.33.35.33h2.7c.27,0,.33-.11.32-.34C40.36,34.75,40.36,34.23,40.38,33.71Zm4.44,5.51c0-.22-.08-.31-.32-.31-1.27,0-2.54,0-3.82,0-.26,0-.33.08-.32.33,0,.53,0,1.07,0,1.6,0,.26.08.33.32.33.64,0,1.28,0,1.92,0h1.9c.22,0,.33,0,.33-.29C44.81,40.32,44.82,39.77,44.82,39.22Zm3-5.85c-.46,0-.92,0-1.38,0h0c-.46,0-.91,0-1.38,0-.2,0-.28,0-.28.27,0,.55,0,1.09,0,1.64,0,.23,0,.33.3.33h2.75c.21,0,.3-.06.29-.28,0-.55,0-1.09,0-1.64C48.17,33.45,48.08,33.36,47.85,33.37Zm8.1,27c0-.29-.11-.34-.36-.34-1.63,0-3.27,0-4.9,0-.29,0-.35.1-.33.36,0,.51,0,1,0,1.52,0,.31.11.37.39.37h2.4c.82,0,1.64,0,2.45,0,.26,0,.37-.05.36-.34Q55.92,61.19,56,60.41Zm0,0c0-.29-.11-.34-.36-.34-1.63,0-3.27,0-4.9,0-.29,0-.35.1-.33.36,0,.51,0,1,0,1.52,0,.31.11.37.39.37h2.4c.82,0,1.64,0,2.45,0,.26,0,.37-.05.36-.34Q55.92,61.19,56,60.41Zm-8.1-27c-.46,0-.92,0-1.38,0h0c-.46,0-.91,0-1.38,0-.2,0-.28,0-.28.27,0,.55,0,1.09,0,1.64,0,.23,0,.33.3.33h2.75c.21,0,.3-.06.29-.28,0-.55,0-1.09,0-1.64C48.17,33.45,48.08,33.36,47.85,33.37Zm-3,5.85c0-.22-.08-.31-.32-.31-1.27,0-2.54,0-3.82,0-.26,0-.33.08-.32.33,0,.53,0,1.07,0,1.6,0,.26.08.33.32.33.64,0,1.28,0,1.92,0h1.9c.22,0,.33,0,.33-.29C44.81,40.32,44.82,39.77,44.82,39.22Zm-4.44-5.51c0-.28-.1-.35-.37-.34-.43,0-.86,0-1.28,0H37.31c-.19,0-.31,0-.3.25,0,.55,0,1.1,0,1.65,0,.25.1.33.35.33h2.7c.27,0,.33-.11.32-.34C40.36,34.75,40.36,34.23,40.38,33.71Zm0,0c0-.28-.1-.35-.37-.34-.43,0-.86,0-1.28,0H37.31c-.19,0-.31,0-.3.25,0,.55,0,1.1,0,1.65,0,.25.1.33.35.33h2.7c.27,0,.33-.11.32-.34C40.36,34.75,40.36,34.23,40.38,33.71Zm4.44,5.51c0-.22-.08-.31-.32-.31-1.27,0-2.54,0-3.82,0-.26,0-.33.08-.32.33,0,.53,0,1.07,0,1.6,0,.26.08.33.32.33.64,0,1.28,0,1.92,0h1.9c.22,0,.33,0,.33-.29C44.81,40.32,44.82,39.77,44.82,39.22Zm3-5.85c-.46,0-.92,0-1.38,0h0c-.46,0-.91,0-1.38,0-.2,0-.28,0-.28.27,0,.55,0,1.09,0,1.64,0,.23,0,.33.3.33h2.75c.21,0,.3-.06.29-.28,0-.55,0-1.09,0-1.64C48.17,33.45,48.08,33.36,47.85,33.37Zm8.1,27c0-.29-.11-.34-.36-.34-1.63,0-3.27,0-4.9,0-.29,0-.35.1-.33.36,0,.51,0,1,0,1.52,0,.31.11.37.39.37h2.4c.82,0,1.64,0,2.45,0,.26,0,.37-.05.36-.34Q55.92,61.19,56,60.41Zm0,0c0-.29-.11-.34-.36-.34-1.63,0-3.27,0-4.9,0-.29,0-.35.1-.33.36,0,.51,0,1,0,1.52,0,.31.11.37.39.37h2.4c.82,0,1.64,0,2.45,0,.26,0,.37-.05.36-.34Q55.92,61.19,56,60.41Zm-8.1-27c-.46,0-.92,0-1.38,0h0c-.46,0-.91,0-1.38,0-.2,0-.28,0-.28.27,0,.55,0,1.09,0,1.64,0,.23,0,.33.3.33h2.75c.21,0,.3-.06.29-.28,0-.55,0-1.09,0-1.64C48.17,33.45,48.08,33.36,47.85,33.37Zm-3,5.85c0-.22-.08-.31-.32-.31-1.27,0-2.54,0-3.82,0-.26,0-.33.08-.32.33,0,.53,0,1.07,0,1.6,0,.26.08.33.32.33.64,0,1.28,0,1.92,0h1.9c.22,0,.33,0,.33-.29C44.81,40.32,44.82,39.77,44.82,39.22Zm-4.44-5.51c0-.28-.1-.35-.37-.34-.43,0-.86,0-1.28,0H37.31c-.19,0-.31,0-.3.25,0,.55,0,1.1,0,1.65,0,.25.1.33.35.33h2.7c.27,0,.33-.11.32-.34C40.36,34.75,40.36,34.23,40.38,33.71Zm0,0c0-.28-.1-.35-.37-.34-.43,0-.86,0-1.28,0H37.31c-.19,0-.31,0-.3.25,0,.55,0,1.1,0,1.65,0,.25.1.33.35.33h2.7c.27,0,.33-.11.32-.34C40.36,34.75,40.36,34.23,40.38,33.71Zm4.44,5.51c0-.22-.08-.31-.32-.31-1.27,0-2.54,0-3.82,0-.26,0-.33.08-.32.33,0,.53,0,1.07,0,1.6,0,.26.08.33.32.33.64,0,1.28,0,1.92,0h1.9c.22,0,.33,0,.33-.29C44.81,40.32,44.82,39.77,44.82,39.22Zm3-5.85c-.46,0-.92,0-1.38,0h0c-.46,0-.91,0-1.38,0-.2,0-.28,0-.28.27,0,.55,0,1.09,0,1.64,0,.23,0,.33.3.33h2.75c.21,0,.3-.06.29-.28,0-.55,0-1.09,0-1.64C48.17,33.45,48.08,33.36,47.85,33.37Zm8.1,27c0-.29-.11-.34-.36-.34-1.63,0-3.27,0-4.9,0-.29,0-.35.1-.33.36,0,.51,0,1,0,1.52,0,.31.11.37.39.37h2.4c.82,0,1.64,0,2.45,0,.26,0,.37-.05.36-.34Q55.92,61.19,56,60.41Zm0,0c0-.29-.11-.34-.36-.34-1.63,0-3.27,0-4.9,0-.29,0-.35.1-.33.36,0,.51,0,1,0,1.52,0,.31.11.37.39.37h2.4c.82,0,1.64,0,2.45,0,.26,0,.37-.05.36-.34Q55.92,61.19,56,60.41Zm-8.1-27c-.46,0-.92,0-1.38,0h0c-.46,0-.91,0-1.38,0-.2,0-.28,0-.28.27,0,.55,0,1.09,0,1.64,0,.23,0,.33.3.33h2.75c.21,0,.3-.06.29-.28,0-.55,0-1.09,0-1.64C48.17,33.45,48.08,33.36,47.85,33.37Zm-3,5.85c0-.22-.08-.31-.32-.31-1.27,0-2.54,0-3.82,0-.26,0-.33.08-.32.33,0,.53,0,1.07,0,1.6,0,.26.08.33.32.33.64,0,1.28,0,1.92,0h1.9c.22,0,.33,0,.33-.29C44.81,40.32,44.82,39.77,44.82,39.22Zm-4.44-5.51c0-.28-.1-.35-.37-.34-.43,0-.86,0-1.28,0H37.31c-.19,0-.31,0-.3.25,0,.55,0,1.1,0,1.65,0,.25.1.33.35.33h2.7c.27,0,.33-.11.32-.34C40.36,34.75,40.36,34.23,40.38,33.71Zm0,0c0-.28-.1-.35-.37-.34-.43,0-.86,0-1.28,0H37.31c-.19,0-.31,0-.3.25,0,.55,0,1.1,0,1.65,0,.25.1.33.35.33h2.7c.27,0,.33-.11.32-.34C40.36,34.75,40.36,34.23,40.38,33.71Zm4.44,5.51c0-.22-.08-.31-.32-.31-1.27,0-2.54,0-3.82,0-.26,0-.33.08-.32.33,0,.53,0,1.07,0,1.6,0,.26.08.33.32.33.64,0,1.28,0,1.92,0h1.9c.22,0,.33,0,.33-.29C44.81,40.32,44.82,39.77,44.82,39.22Zm3-5.85c-.46,0-.92,0-1.38,0h0c-.46,0-.91,0-1.38,0-.2,0-.28,0-.28.27,0,.55,0,1.09,0,1.64,0,.23,0,.33.3.33h2.75c.21,0,.3-.06.29-.28,0-.55,0-1.09,0-1.64C48.17,33.45,48.08,33.36,47.85,33.37Zm8.1,27c0-.29-.11-.34-.36-.34-1.63,0-3.27,0-4.9,0-.29,0-.35.1-.33.36,0,.51,0,1,0,1.52,0,.31.11.37.39.37h2.4c.82,0,1.64,0,2.45,0,.26,0,.37-.05.36-.34Q55.92,61.19,56,60.41Zm0,0c0-.29-.11-.34-.36-.34-1.63,0-3.27,0-4.9,0-.29,0-.35.1-.33.36,0,.51,0,1,0,1.52,0,.31.11.37.39.37h2.4c.82,0,1.64,0,2.45,0,.26,0,.37-.05.36-.34Q55.92,61.19,56,60.41Zm-8.1-27c-.46,0-.92,0-1.38,0h0c-.46,0-.91,0-1.38,0-.2,0-.28,0-.28.27,0,.55,0,1.09,0,1.64,0,.23,0,.33.3.33h2.75c.21,0,.3-.06.29-.28,0-.55,0-1.09,0-1.64C48.17,33.45,48.08,33.36,47.85,33.37Zm-3,5.85c0-.22-.08-.31-.32-.31-1.27,0-2.54,0-3.82,0-.26,0-.33.08-.32.33,0,.53,0,1.07,0,1.6,0,.26.08.33.32.33.64,0,1.28,0,1.92,0h1.9c.22,0,.33,0,.33-.29C44.81,40.32,44.82,39.77,44.82,39.22Zm-4.44-5.51c0-.28-.1-.35-.37-.34-.43,0-.86,0-1.28,0H37.31c-.19,0-.31,0-.3.25,0,.55,0,1.1,0,1.65,0,.25.1.33.35.33h2.7c.27,0,.33-.11.32-.34C40.36,34.75,40.36,34.23,40.38,33.71Zm0,0c0-.28-.1-.35-.37-.34-.43,0-.86,0-1.28,0H37.31c-.19,0-.31,0-.3.25,0,.55,0,1.1,0,1.65,0,.25.1.33.35.33h2.7c.27,0,.33-.11.32-.34C40.36,34.75,40.36,34.23,40.38,33.71Zm4.44,5.51c0-.22-.08-.31-.32-.31-1.27,0-2.54,0-3.82,0-.26,0-.33.08-.32.33,0,.53,0,1.07,0,1.6,0,.26.08.33.32.33.64,0,1.28,0,1.92,0h1.9c.22,0,.33,0,.33-.29C44.81,40.32,44.82,39.77,44.82,39.22Zm3-5.85c-.46,0-.92,0-1.38,0h0c-.46,0-.91,0-1.38,0-.2,0-.28,0-.28.27,0,.55,0,1.09,0,1.64,0,.23,0,.33.3.33h2.75c.21,0,.3-.06.29-.28,0-.55,0-1.09,0-1.64C48.17,33.45,48.08,33.36,47.85,33.37Zm8.1,27c0-.29-.11-.34-.36-.34-1.63,0-3.27,0-4.9,0-.29,0-.35.1-.33.36,0,.51,0,1,0,1.52,0,.31.11.37.39.37h2.4c.82,0,1.64,0,2.45,0,.26,0,.37-.05.36-.34Q55.92,61.19,56,60.41Zm0,0c0-.29-.11-.34-.36-.34-1.63,0-3.27,0-4.9,0-.29,0-.35.1-.33.36,0,.51,0,1,0,1.52,0,.31.11.37.39.37h2.4c.82,0,1.64,0,2.45,0,.26,0,.37-.05.36-.34Q55.92,61.19,56,60.41Zm-8.1-27c-.46,0-.92,0-1.38,0h0c-.46,0-.91,0-1.38,0-.2,0-.28,0-.28.27,0,.55,0,1.09,0,1.64,0,.23,0,.33.3.33h2.75c.21,0,.3-.06.29-.28,0-.55,0-1.09,0-1.64C48.17,33.45,48.08,33.36,47.85,33.37Zm-3,5.85c0-.22-.08-.31-.32-.31-1.27,0-2.54,0-3.82,0-.26,0-.33.08-.32.33,0,.53,0,1.07,0,1.6,0,.26.08.33.32.33.64,0,1.28,0,1.92,0h1.9c.22,0,.33,0,.33-.29C44.81,40.32,44.82,39.77,44.82,39.22Zm-4.44-5.51c0-.28-.1-.35-.37-.34-.43,0-.86,0-1.28,0H37.31c-.19,0-.31,0-.3.25,0,.55,0,1.1,0,1.65,0,.25.1.33.35.33h2.7c.27,0,.33-.11.32-.34C40.36,34.75,40.36,34.23,40.38,33.71Zm0,0c0-.28-.1-.35-.37-.34-.43,0-.86,0-1.28,0H37.31c-.19,0-.31,0-.3.25,0,.55,0,1.1,0,1.65,0,.25.1.33.35.33h2.7c.27,0,.33-.11.32-.34C40.36,34.75,40.36,34.23,40.38,33.71Zm4.44,5.51c0-.22-.08-.31-.32-.31-1.27,0-2.54,0-3.82,0-.26,0-.33.08-.32.33,0,.53,0,1.07,0,1.6,0,.26.08.33.32.33.64,0,1.28,0,1.92,0h1.9c.22,0,.33,0,.33-.29C44.81,40.32,44.82,39.77,44.82,39.22Zm3-5.85c-.46,0-.92,0-1.38,0h0c-.46,0-.91,0-1.38,0-.2,0-.28,0-.28.27,0,.55,0,1.09,0,1.64,0,.23,0,.33.3.33h2.75c.21,0,.3-.06.29-.28,0-.55,0-1.09,0-1.64C48.17,33.45,48.08,33.36,47.85,33.37Zm0,0c-.46,0-.92,0-1.38,0h0c-.46,0-.91,0-1.38,0-.2,0-.28,0-.28.27,0,.55,0,1.09,0,1.64,0,.23,0,.33.3.33h2.75c.21,0,.3-.06.29-.28,0-.55,0-1.09,0-1.64C48.17,33.45,48.08,33.36,47.85,33.37Zm-3,5.85c0-.22-.08-.31-.32-.31-1.27,0-2.54,0-3.82,0-.26,0-.33.08-.32.33,0,.53,0,1.07,0,1.6,0,.26.08.33.32.33.64,0,1.28,0,1.92,0h1.9c.22,0,.33,0,.33-.29C44.81,40.32,44.82,39.77,44.82,39.22Zm-4.44-5.51c0-.28-.1-.35-.37-.34-.43,0-.86,0-1.28,0H37.31c-.19,0-.31,0-.3.25,0,.55,0,1.1,0,1.65,0,.25.1.33.35.33h2.7c.27,0,.33-.11.32-.34C40.36,34.75,40.36,34.23,40.38,33.71Zm0,0c0-.28-.1-.35-.37-.34-.43,0-.86,0-1.28,0H37.31c-.19,0-.31,0-.3.25,0,.55,0,1.1,0,1.65,0,.25.1.33.35.33h2.7c.27,0,.33-.11.32-.34C40.36,34.75,40.36,34.23,40.38,33.71Zm4.44,5.51c0-.22-.08-.31-.32-.31-1.27,0-2.54,0-3.82,0-.26,0-.33.08-.32.33,0,.53,0,1.07,0,1.6,0,.26.08.33.32.33.64,0,1.28,0,1.92,0h1.9c.22,0,.33,0,.33-.29C44.81,40.32,44.82,39.77,44.82,39.22Zm3-5.85c-.46,0-.92,0-1.38,0h0c-.46,0-.91,0-1.38,0-.2,0-.28,0-.28.27,0,.55,0,1.09,0,1.64,0,.23,0,.33.3.33h2.75c.21,0,.3-.06.29-.28,0-.55,0-1.09,0-1.64C48.17,33.45,48.08,33.36,47.85,33.37Zm0,0c-.46,0-.92,0-1.38,0h0c-.46,0-.91,0-1.38,0-.2,0-.28,0-.28.27,0,.55,0,1.09,0,1.64,0,.23,0,.33.3.33h2.75c.21,0,.3-.06.29-.28,0-.55,0-1.09,0-1.64C48.17,33.45,48.08,33.36,47.85,33.37Zm-3,5.85c0-.22-.08-.31-.32-.31-1.27,0-2.54,0-3.82,0-.26,0-.33.08-.32.33,0,.53,0,1.07,0,1.6,0,.26.08.33.32.33.64,0,1.28,0,1.92,0h1.9c.22,0,.33,0,.33-.29C44.81,40.32,44.82,39.77,44.82,39.22Zm-4.44-5.51c0-.28-.1-.35-.37-.34-.43,0-.86,0-1.28,0H37.31c-.19,0-.31,0-.3.25,0,.55,0,1.1,0,1.65,0,.25.1.33.35.33h2.7c.27,0,.33-.11.32-.34C40.36,34.75,40.36,34.23,40.38,33.71Zm0,0c0-.28-.1-.35-.37-.34-.43,0-.86,0-1.28,0H37.31c-.19,0-.31,0-.3.25,0,.55,0,1.1,0,1.65,0,.25.1.33.35.33h2.7c.27,0,.33-.11.32-.34C40.36,34.75,40.36,34.23,40.38,33.71Zm4.44,5.51c0-.22-.08-.31-.32-.31-1.27,0-2.54,0-3.82,0-.26,0-.33.08-.32.33,0,.53,0,1.07,0,1.6,0,.26.08.33.32.33.64,0,1.28,0,1.92,0h1.9c.22,0,.33,0,.33-.29C44.81,40.32,44.82,39.77,44.82,39.22Zm3-5.85c-.46,0-.92,0-1.38,0h0c-.46,0-.91,0-1.38,0-.2,0-.28,0-.28.27,0,.55,0,1.09,0,1.64,0,.23,0,.33.3.33h2.75c.21,0,.3-.06.29-.28,0-.55,0-1.09,0-1.64C48.17,33.45,48.08,33.36,47.85,33.37Zm0,0c-.46,0-.92,0-1.38,0h0c-.46,0-.91,0-1.38,0-.2,0-.28,0-.28.27,0,.55,0,1.09,0,1.64,0,.23,0,.33.3.33h2.75c.21,0,.3-.06.29-.28,0-.55,0-1.09,0-1.64C48.17,33.45,48.08,33.36,47.85,33.37Zm-3,5.85c0-.22-.08-.31-.32-.31-1.27,0-2.54,0-3.82,0-.26,0-.33.08-.32.33,0,.53,0,1.07,0,1.6,0,.26.08.33.32.33.64,0,1.28,0,1.92,0h1.9c.22,0,.33,0,.33-.29C44.81,40.32,44.82,39.77,44.82,39.22Zm-4.44-5.51c0-.28-.1-.35-.37-.34-.43,0-.86,0-1.28,0H37.31c-.19,0-.31,0-.3.25,0,.55,0,1.1,0,1.65,0,.25.1.33.35.33h2.7c.27,0,.33-.11.32-.34C40.36,34.75,40.36,34.23,40.38,33.71Z" transform="translate(0 0)"></path><path class="cls-2" d="M47.18,45.28c0,.23-.06.34-.32.34h-2.7c-.25,0-.35-.08-.35-.33,0-.55,0-1.1,0-1.64,0-.25.11-.26.3-.26h1.42c.42,0,.85,0,1.28,0,.27,0,.38.07.37.34C47.17,44.24,47.17,44.76,47.18,45.28Z" transform="translate(0 0)"></path><path class="cls-2" d="M47.73,45.33c0,.24-.1.3-.32.29H45.5c-.64,0-1.27,0-1.91,0-.25,0-.33-.07-.32-.33,0-.53,0-1.07,0-1.6,0-.25.06-.33.32-.33,1.27,0,2.55,0,3.82,0,.23,0,.32.09.32.31C47.73,44.23,47.72,44.78,47.73,45.33Z" transform="translate(0 0)"></path><path class="cls-2" d="M47.18,43.69c0,.55,0,1.1,0,1.64,0,.22-.09.28-.29.28H44.12c-.24,0-.3-.1-.3-.33,0-.54,0-1.09,0-1.64,0-.23.08-.27.29-.26h1.37c.46,0,.92,0,1.38,0C47.09,43.37,47.18,43.46,47.18,43.69Z" transform="translate(0 0)"></path><path class="cls-2" d="M48.3,45.28c0,.29-.1.35-.36.34H43.09c-.28,0-.4-.06-.39-.37a12.68,12.68,0,0,0,0-1.51c0-.27,0-.37.34-.36h4.89c.26,0,.38,0,.37.33Q48.27,44.5,48.3,45.28Z" transform="translate(0 0)"></path><path class="cls-2" d="M47.18,43.68c0,.55,0,1.1,0,1.64,0,.25-.09.3-.31.3h-2.7c-.27,0-.36-.08-.35-.36,0-.51,0-1,0-1.55,0-.25.06-.34.32-.33.45,0,.91,0,1.37,0s.92,0,1.37,0C47.12,43.37,47.19,43.45,47.18,43.68Z" transform="translate(0 0)"></path><path class="cls-2" d="M43.81,45.29c0-.53,0-1.06,0-1.59,0-.26.08-.33.33-.33.9,0,1.8,0,2.7,0,.24,0,.35,0,.34.3,0,.53,0,1.07,0,1.6,0,.29-.12.34-.37.33H44.16C43.92,45.62,43.8,45.56,43.81,45.29Z" transform="translate(0 0)"></path><path class="cls-2" d="M47.19,45.37c0,.19-.06.25-.25.25H44.09c-.22,0-.28-.09-.28-.29,0-.56,0-1.12,0-1.69,0-.24.13-.25.31-.25h2.76c.23,0,.31.06.3.3C47.17,44.24,47.18,44.8,47.19,45.37Z" transform="translate(0 0)"></path><path class="cls-2" d="M47.73,45.33c0,.24-.1.3-.32.29H45.5c-.64,0-1.27,0-1.91,0-.25,0-.33-.07-.32-.33,0-.53,0-1.07,0-1.6,0-.25.06-.33.32-.33,1.27,0,2.55,0,3.82,0,.23,0,.32.09.32.31C47.73,44.23,47.72,44.78,47.73,45.33Z" transform="translate(0 0)"></path><path class="cls-2" d="M47.18,45.28c0,.23-.06.34-.32.34h-2.7c-.25,0-.35-.08-.35-.33,0-.55,0-1.1,0-1.64,0-.25.11-.26.3-.26h1.42c.42,0,.85,0,1.28,0,.27,0,.38.07.37.34C47.17,44.24,47.17,44.76,47.18,45.28Z" transform="translate(0 0)"></path><path class="cls-2" d="M47.18,43.69c0,.55,0,1.1,0,1.64,0,.22-.09.28-.29.28H44.12c-.24,0-.3-.1-.3-.33,0-.54,0-1.09,0-1.64,0-.23.08-.27.29-.26h1.37c.46,0,.92,0,1.38,0C47.09,43.37,47.18,43.46,47.18,43.69Z" transform="translate(0 0)"></path><path class="cls-2" d="M48.3,45.28c0,.29-.1.35-.36.34H43.09c-.28,0-.4-.06-.39-.37a12.68,12.68,0,0,0,0-1.51c0-.27,0-.37.34-.36h4.89c.26,0,.38,0,.37.33Q48.27,44.5,48.3,45.28Z" transform="translate(0 0)"></path><path class="cls-2" d="M47.18,45.32c0,.25-.09.3-.31.3h-2.7c-.27,0-.36-.08-.35-.36,0-.51,0-1,0-1.55,0-.25.06-.34.32-.33.45,0,.91,0,1.37,0s.92,0,1.37,0c.24,0,.31.07.3.3C47.17,44.23,47.17,44.78,47.18,45.32Z" transform="translate(0 0)"></path><path class="cls-2" d="M47.19,45.29c0,.29-.12.34-.37.33H44.16c-.24,0-.36-.06-.35-.33,0-.53,0-1.06,0-1.59,0-.26.08-.33.33-.33.9,0,1.8,0,2.7,0,.24,0,.35,0,.34.3C47.17,44.22,47.16,44.76,47.19,45.29Z" transform="translate(0 0)"></path><path class="cls-2" d="M47.19,45.37c0,.19-.06.25-.25.25H44.09c-.22,0-.28-.09-.28-.29,0-.56,0-1.12,0-1.69,0-.24.13-.25.31-.25h2.76c.23,0,.31.06.3.3C47.17,44.24,47.18,44.8,47.19,45.37Z" transform="translate(0 0)"></path></svg>