<svg xmlns="http://www.w3.org/2000/svg" xmlns:xlink="http://www.w3.org/1999/xlink" id="Layer_1" x="0px" y="0px" viewBox="0 0 91 91" style="enable-background:new 0 0 91 91;" xml:space="preserve"> <style type="text/css"> .st0{fill-rule:evenodd;clip-rule:evenodd;fill:#FFFFFF;} .st1{fill-rule:evenodd;clip-rule:evenodd;fill:#0B2852;} </style> <g> <circle class="st0" cx="45.5" cy="45.5" r="45.5"></circle> <path class="st1" d="M33.06,19.26c-1.51,0.57-0.51,2.81-2.85,4.88c-0.93,0.83-3.78,2.2-5.4,2.46c-3.37,0.54-4.86-1.83-6.24-1.35 c-0.34,0.12-3.78,3.46-4.03,3.88c-1,1.66,1.6,2.15,1.3,5.98c-0.12,1.63-1.5,4.61-2.28,5.6c-1.57,2.01-4.58,2.19-5.02,2.86 c-0.45,0.7-0.25,2.78-0.25,3.73c-0.02,4.51,0.87,2.42,3.63,4.1c1.02,0.62,1.39,1.05,2,1.94c0.83,1.2,2.01,4.16,1.92,5.98 c-0.15,2.93-2.66,3.78-0.77,5.64c1.51,1.48,3.13,3.69,4.45,3.33c0.74-0.2,2.73-2.23,6.02-1.22c1.86,0.57,4.21,1.7,5.1,2.78 c3.15,3.83-1,5,7.36,4.55c3.13-0.17,0.51-4.09,5.5-6.19c2.64-1.12,3.59-1.05,3.16-4.77c-0.24-2.03-3.21-1.43-6.42-1.42 c-2.52,0.01-5.21,0.19-7.61-0.34c-4.46-1-7.32-3.46-9.3-6.29c-2.32-3.3-3.46-8.06-2.14-12.7c1.19-4.21,3.72-7.05,6.64-8.92 c5.61-3.6,11.87-1.84,17.29-2.27c1.44-0.11,1.56-0.97,1.57-2.4c0.01-3.71-1.38-2.73-3.84-4.11c-1.85-1.03-2.47-2.24-3.14-4.73 c-0.36-1.33-1.31-1.16-2.84-1.16C35.7,19.12,34.06,18.88,33.06,19.26L33.06,19.26z M72.33,34.64c0.68-0.79,2.1-4.22,6.33-3.23 c5.51,1.29,5.47,9.46-0.27,10.51c-3.66,0.67-4.9-1.76-6.06-3.26c-1.8-0.12-3.81-0.03-5.63-0.04c-3.63-0.01-2.77,0.17-6.97,4.34 c-0.78,0.77-1.79,2.12-3.35,2.33c-2.16,0.29-13.18,0.04-16.9,0.05c-2.32,0-3.57,0.42-3.52-2.15c0.05-2.32,1.73-1.82,3.71-1.82 c3.05,0,15.46,0.38,16.51-0.45c1.44-1.15,4.25-4.52,5.65-5.61C63.37,34.11,69.88,34.7,72.33,34.64L72.33,34.64z M59.73,48.56 c1.08-1.92,2.85-3.94,6.17-3.27c2.31,0.46,4.31,2.58,4.23,5.4c-0.07,2.68-2.07,4.75-4.46,5.16c-3.01,0.52-5.15-1.38-5.86-3.31 l-19.58,0c-2.34,0-4.27,0.65-4.27-2.03c0-1.2,0.25-1.82,1.44-1.94L59.73,48.56L59.73,48.56z M52.88,30.5 c-0.35-1.6-1.01-2.07-0.56-4.15c0.79-3.66,5.53-5.54,8.54-3.03c4.23,3.53,1.54,10.5-4.67,9.45l-3.21,3.27 c-1.28,1.34-1.3,2.11-4.11,2.11c-1.74,0-11.59,0.27-12.33-0.29c-0.79-0.59-1.4-3.67,1.43-3.69c2.06-0.02,4.14,0.01,6.21,0.01 c1.67,0,4.63,0.46,5.65-0.55C50.52,32.94,52.28,30.8,52.88,30.5L52.88,30.5z M55.21,60.27c3.49-0.4,5.91,0.75,6.78,3.58 c1,3.28-1.1,5.92-3.39,6.69c-3.91,1.33-7.4-1.92-7.09-5.58c0.08-0.93,0.48-1.44,0.57-2.01c0.08-0.5-2.11-2.79-2.14-2.82 c-0.92-0.78-8.34-0.41-10.26-0.41c-1.84,0-3.55,0.46-3.69-1.56c-0.17-2.33,0.63-2.43,2.75-2.41c3.51,0.02,7.02-0.03,10.52-0.01 c2.79,0.02,3.2,1.48,4.79,3.09C54.5,59.29,54.88,59.73,55.21,60.27L55.21,60.27z M63.92,48.2c-3.2,1.31-1.38,5.73,1.66,4.74 C68.8,51.9,67.04,46.93,63.92,48.2L63.92,48.2z M76.58,34.26c-3.14,1.12-1.55,5.73,1.59,4.81C81.13,38.2,79.97,33.05,76.58,34.26 L76.58,34.26z M56.36,62.99c-3.43,0.77-2.13,5.65,1.1,4.93C60.39,67.27,59.69,62.24,56.36,62.99L56.36,62.99z M57.1,25.07 c-3.24,0.68-2.42,5.73,1.1,4.93C61.13,29.33,60.36,24.39,57.1,25.07z"></path> </g> </svg>