<svg xmlns="http://www.w3.org/2000/svg" xmlns:xlink="http://www.w3.org/1999/xlink" id="Layer_1" x="0px" y="0px" viewBox="0 0 45 45" style="enable-background:new 0 0 45 45;" xml:space="preserve"> <style type="text/css"> .st0{fill-rule:evenodd;clip-rule:evenodd;fill:#FFFFFF;} .st1{fill-rule:evenodd;clip-rule:evenodd;fill:#0A2852;} </style> <g> <circle class="st0" cx="22.5" cy="22.5" r="22.5"></circle> <path class="st1" d="M8.99,11.18L8.91,24.59c0,2.4,0.3,4.09,1.26,5.89c1.64,3.1,4.4,5.41,7.39,6.85c1.15,0.55,4.17,1.86,5.56,1.51 c5.06-1.26,10.13-4.41,12.1-9.25c1.14-2.82,0.84-6.44,0.84-9.61l-0.07-8.82l-3.89-0.71c-2.7-0.61-6.93-1.88-8.99-3.77 c-0.26-0.24-0.32-0.45-0.61-0.61c-0.45,0.3-0.56,0.85-2.64,1.97C15.08,10.62,9.76,10.85,8.99,11.18L8.99,11.18z M10.26,12.36 c1.11-0.29,2.34-0.4,3.46-0.69c2.66-0.69,5.21-1.4,7.56-2.86c0.22-0.14,1.02-0.77,1.2-0.77c0.17,0,1.03,0.66,1.24,0.79 c1.22,0.76,2.87,1.44,4.25,1.92c1.08,0.38,2.13,0.64,3.28,0.91l3.38,0.68c0.19,0.45,0.06,8.1,0.07,9.29c0,3.19,0.28,5.65-1.12,8.23 c-1.08,1.99-2.6,3.62-4.47,4.92c-1.41,0.98-5.09,2.76-6.63,2.78c-0.73,0.01-2.88-0.82-3.6-1.12c-3.15-1.34-5.9-3.56-7.51-6.55 c-1.38-2.58-1.13-4.93-1.12-8.25C10.26,18.63,10.12,15.34,10.26,12.36L10.26,12.36z M21.68,13.61c2.77-0.38,5.27,0.9,6.82,2.2 c5.97,5.02,2.8,15.35-5.14,15.95c-5.43,0.42-9.5-3.52-9.96-8.21c-0.27-2.79,0.74-5.19,2.22-6.86c0.76-0.86,1.42-1.39,2.55-2.04 C19.32,13.98,20.23,13.8,21.68,13.61L21.68,13.61z M21.64,14.97c4.36-0.6,8.19,2.88,8.56,6.84c0.43,4.6-2.83,8.12-6.9,8.57 c-4.59,0.51-8.09-2.96-8.54-6.86C14.26,19.18,17.29,15.57,21.64,14.97L21.64,14.97z M24.65,24.97c-2.28,0-2,0.18-1.98-0.81 c0.01-0.77,0.61-1.33,0.98-1.87l2.32-3.41l1.2,0.02l0,4.77l0.93,0.03l0,1.23l-0.91,0.05l-0.07,1.5l-1.32-0.01l-0.01-1.48 L24.65,24.97L24.65,24.97z M17.02,21.05c0.31-2.85,3.87-2.67,4.7-1c1.18,2.35-2.33,4.09-2.62,5.08l2.81,0.03 c0.04,0.36,0.09,1-0.06,1.23c-0.22,0.13-4.41,0.13-4.96,0.05C16.77,25,19,23.21,19.62,22.6c1.86-1.84,0.37-2.92-0.62-2.46 c-0.47,0.22-0.38,0.51-0.6,1.07L17.02,21.05L17.02,21.05z M24.09,23.68c0.02-0.16,1.33-2.29,1.68-2.45 c0.03,0.54,0.09,1.99-0.03,2.46L24.09,23.68z"></path> </g> </svg>