<svg xmlns="http://www.w3.org/2000/svg" id="Layer_1" data-name="Layer 1" viewBox="0 0 90 90"><defs><style>.cls-1{fill:#fff;}.cls-2{fill:#083264;}</style></defs><circle class="cls-1" cx="45" cy="45" r="45"></circle><path class="cls-2" d="M30,44.89a9.79,9.79,0,0,0,.71-1.52l.51-.15s.86-2.63,1-3.34.56-6.17.45-7.14a41.67,41.67,0,0,0-2.83-6.42c-.35-.56-.1-.87-.51-1.32a1.79,1.79,0,0,0-.91-.56L25.24,23l-.2.35-.66-.46-.2-.81-.29.06a2.87,2.87,0,0,1,.09-.81,4.46,4.46,0,0,0,.4-.66,2.86,2.86,0,0,0,.21-1.07l.2-.05c.2,0,.25-1,.25-1.36s-.35-.61-.45-.56a2.86,2.86,0,0,0,.1-1s1-.86,1-1.22-2.18-2.07-2.48-2.17a19.31,19.31,0,0,0-3.75.15,7.48,7.48,0,0,0-2.22,2.12c-.15.46,1,1.22,1,1.22a5.45,5.45,0,0,0,0,.91c0,.15.65.55.5,1.06A3.19,3.19,0,0,0,19,20.6a1.67,1.67,0,0,0,.59.95l-.41.78-1,.87a4.14,4.14,0,0,0-.63.11,1.9,1.9,0,0,0-1.14.7.43.43,0,0,0,0,.07,2.08,2.08,0,0,0-.78.16c-.51.25-1.12,1.42-1.12,1.42l-.35-.15-1.32,1.82a2.4,2.4,0,0,1-.4.55c-.26.26-.91.26-1.32.86s-.45.61-.76.81-.71.46-.76.76,0,2.38.46,2.79a4.31,4.31,0,0,0,3.09.3,24.3,24.3,0,0,0,2.12-1.67,11.32,11.32,0,0,0-.05,3l.25.55.11.66H13.6s0,.61-.15,1.27a1.07,1.07,0,0,0,.41,1s.05,1.11.1,1.52a.53.53,0,0,0,.45.45s-.1.46.15.51a2.24,2.24,0,0,0,.61,0s.66,1.57.81,2-.25.92-.35,1.22-.05,1.72-.1,2.07a5,5,0,0,1-1.17.11s.1,6,.31,6.83.55,1,.55,1l.2.76.21.46a23.08,23.08,0,0,0-.91,4.15A27.5,27.5,0,0,1,14.41,63c-.1.36-.4.25-.4.66a4.84,4.84,0,0,0,.15,1c.05.3-.25.56-.25.71s.3.61.25.86a5.77,5.77,0,0,1-.66,2c-.4.56-1.26.66-1.57,1.12a1.13,1.13,0,0,0-.15.91h5.37a5.13,5.13,0,0,0,.35-1.52c-.05-.46-.1-1.72-.1-1.72a2.6,2.6,0,0,0,.71-.91c.15-.46-.2-.56-.1-.86s.4-.36.5-.81-.25-.46-.2-.61,1.52-5.67,1.62-6.63a7.82,7.82,0,0,0-.25-2.28s2.07-8.35,2.32-9a6.46,6.46,0,0,1,.06,1.47s.65,2.68.86,3.64.91,3.09,1,3.65.45,5,.5,6.17a24.39,24.39,0,0,0,.76,4.61l.26.56a2.23,2.23,0,0,0,.05.76c.1.35.15.7.4.76a1.51,1.51,0,0,1,.56.35,3.24,3.24,0,0,0-.1,1.27,6.48,6.48,0,0,1,.1,1h5.46s.11-.86-.25-1.12a7.17,7.17,0,0,1-1.47-1.06c-.3-.4-.2-1.06-.35-1.32s-.51-.1-.46-.35.51-.2.46-.76a8.67,8.67,0,0,0-.46-1.82c-.1-.25.21-.36.11-.91a1.64,1.64,0,0,0-.36-.81l-.66-7.34A5,5,0,0,0,29,52.69,7,7,0,0,0,28.74,51a9.23,9.23,0,0,0,.35-2.28A9.26,9.26,0,0,0,28.38,46,5.49,5.49,0,0,0,30,44.89ZM21,13.76l.16.36.25-.36h1.26s-.3.81-.76.91a.82.82,0,0,1-.75-.2.75.75,0,0,1-.76.15c-.46-.15-.66-.81-.66-.81Zm-1.87,2.69c.66-.76,3.59-1.07,5-.11C20.79,15.38,19.17,16.45,19.17,16.45Zm9.41,28,0-1.52.41.05A3.7,3.7,0,0,1,28.58,44.49Zm.87-6.43a25.48,25.48,0,0,1-.11,3.14,2.89,2.89,0,0,1-.55.91,30.32,30.32,0,0,0-.05-3.6,7.79,7.79,0,0,0-.86-2s.65,0,.86-.3a12.73,12.73,0,0,0,.15-2.64h.45s.26,2,.26,2.89S29.45,37.15,29.45,38.06Z"></path><path class="cls-2" d="M53.31,69c-.47-.25-1.42-.2-2-.52a2.19,2.19,0,0,1-1.16-1.14c-.53-.88-.76-1.28-.76-1.28l.17-.47c.17-.47-.38-.8-.38-.8a2.74,2.74,0,0,0,.66-1,3.3,3.3,0,0,0-.05-1.42s1.24-5.5,1.42-6.68a32.49,32.49,0,0,0,0-5.13c-.08-.24.1-1,.06-2.6a57.64,57.64,0,0,0-1.19-6.42,1.92,1.92,0,0,0,1-.4c.43-.36,1.07-4.44,1.07-4.44s1.07.36,1.47,0,.72-4.23.54-4.5-1-.21-1-.21l-.06-1.89-.55,0-.08,1.29s-.4,0-.4-.07c-.13-.87-.29-2-.29-2l.26,0,0-.81a2,2,0,0,0-.37,0c-.2-.5-2.15-4.6-2.15-4.6l-.13-.42s1.36.48,1.63.3.1-.74.1-.74a2,2,0,0,0,.26-.25.28.28,0,0,0,0-.35s.34,0,.37-.15-.15-.37-.15-.37a1.7,1.7,0,0,0,.69-.11c.16-.13,0-.56-.19-1a1.15,1.15,0,0,1,0-.79s.94.1,1.16-.1-.85-1.89-.85-1.89l.11-.26c.11-.26-.23-.37-.23-.37s2.28-2.69,1.15-2.65a37.15,37.15,0,0,0-5.47,1.29c-1.37.38-4.1.55-3.94,1.15s1.63,1,1.52,1c-.66.1.36,2.89.28,3a1.42,1.42,0,0,0-.59,1.46c-2.39.87-3.61,3.46-4.82,5.51l-1.21,2c-.37.64-.79,1.26-1.1,1.93A3,3,0,0,0,37.76,34a3.94,3.94,0,0,0,1,1.6c.55.6,1.15,1.15,1.73,1.71l1,1v.6a13.82,13.82,0,0,0-.1,4.34c.34,2.22,2.24,5.5,2.33,5.1-.61,2.44.65,5.7.65,5.7s-.42,1.1-.82,1.33A16.87,16.87,0,0,0,40.86,58c-.58.78-1.07,1.72-1.4,2.1a4.79,4.79,0,0,1-1.52,1.07c-.4.15-.65.86-.65.86a8.92,8.92,0,0,1-1.12.6c-.4.15-.26.94-.26.94A17.93,17.93,0,0,0,34,65.28c.22,1,1.69,2.1,1.69,2.1l.64-.46s-.09.55,0,.55c.89,2.63,3.77,4.19,4.65,3.9s.2-2-.5-2.62a3.62,3.62,0,0,1-.89-2.15c-.07-.48.4-.23.8-.54s.35-1.25.66-1.32a1.62,1.62,0,0,0,.9-1.24c.17-.71.64-.3,1.44-.84a9.38,9.38,0,0,0,1.78-1.93,4,4,0,0,1-.2,1.81,6.07,6.07,0,0,0-.46,2.91,14.24,14.24,0,0,0,.19,2,16.09,16.09,0,0,0-.28,1.73c-.1.94-.11,1.5-.11,1.5h3.87l-.07-.56a5.52,5.52,0,0,0,1.49.43,7.3,7.3,0,0,0,3.8-.38C54.08,69.7,53.77,69.22,53.31,69ZM47.05,25.12a1.05,1.05,0,0,0,1.09.55,1.11,1.11,0,0,1,.2.53A7.76,7.76,0,0,0,46,26.15L46,25.81C46.48,25.82,47,25.17,47.05,25.12Zm.32,3.19a2.13,2.13,0,0,1-1.43-1.9,8.85,8.85,0,0,1,2.45,0C48.35,28.07,47.37,28.31,47.37,28.31Z"></path><path class="cls-2" d="M79.58,65A1.49,1.49,0,0,0,79,64.1V63a9.91,9.91,0,0,0-.32-3.17c-.36-.84-1.78-5.2-1.86-5.51S77,53.71,77,53a5.62,5.62,0,0,0-.84-2s.64-.44.68-.88-.12-1.07-.12-1.62a11.26,11.26,0,0,0-.48-3c-.2-.08-.75.08-.79-.08s-.18-2.23-.18-2.23L76,42s1.47.08,1.79-.19.19-3.18,0-3.61-1.47-.08-1.47-.08L76.75,37l-.76-.4s.4,1.06.44.54a1.68,1.68,0,0,0-.32-1,1.42,1.42,0,0,0,.64-.52c.27-.39-.2-1.26-.2-1.26a3.75,3.75,0,0,0,.83.51,3.6,3.6,0,0,0,2,0,2.07,2.07,0,0,0,1.11-1.78,18.36,18.36,0,0,0-1.17-3.26c-.19-.4-1.94-3.17-1.94-3.17a.5.5,0,0,0,0-.51c-.16-.28-1-1.43-1-1.43l.32-.24a5.9,5.9,0,0,0-.87-1.19,8.47,8.47,0,0,0-2.38-1.27,13.82,13.82,0,0,1-2.3-1l-.24-1h-.55s-.16-.79.31-1S71,17.8,71,17.8V16.69s1.43-1,1.27-1.66-4.68-2.38-5.63-2.3a.86.86,0,0,0,.83.63.92.92,0,0,1-.71,1.19A.86.86,0,0,1,66,13.44a1.21,1.21,0,0,0,.59-.71c-1,.08-2.85,2.14-2.93,2.62s1.11,1.11,1.11,1.11-.36.71.12,1.07a.66.66,0,0,0,.83,0,13.08,13.08,0,0,0,.32,3.13c.31.71.71.83.71.83l-.24.51-.63,0a8,8,0,0,1-1,.76c-.32.16-.56.2-.91.35s-.76,1-1.11,1.59-.56,1.7-.76,2-.47.28-.83.63-.4,1.23-.55,1.59-.36.32-.56.44-.47,1-.59,1.34-.68.84-1,1.27-.68,2.5-.36,2.82.67.79,1.11.91a4.21,4.21,0,0,0,2.1-.28,3.81,3.81,0,0,0,.87-1.15l.2,2.74.2,1.48.31.67,0,1.27.4.28-.4.87s-.88,6.68-.83,6.59c-.12,1.08-.33,5.41-.37,6s.57,5.5.49,6.68a23.05,23.05,0,0,0,.33,3.6,1.85,1.85,0,0,1-.24,1c-.16.44.12.44.12.44a6.11,6.11,0,0,1-1.23,1.82c-.56.36-1.87.55-2.42,1s-.44,1.62-.44,1.62,4.56,0,4.72,0c.35-.08.59-.6.59-.6l.24.52h2.66s.12-1.82.16-2.5a1,1,0,0,0-.36-.91,3.39,3.39,0,0,0,.32-.83,10.3,10.3,0,0,0,0-1.15c0-.47.23-6.81.27-7.36a8.83,8.83,0,0,0-.36-2c-.08-.31.12-.39.2-.83s-.12-.51,0-.83S68.4,45,68.92,44.77a93.44,93.44,0,0,0,3.29,10A6.88,6.88,0,0,1,73.12,57c.36,1.23,1.67,6.34,1.79,6.66a6.28,6.28,0,0,1,0,1.27c0,.51.64.83.72,1.19a4.38,4.38,0,0,1,0,1c0,.2.47.55.2,1.23s-1,1.38-1.23,1.86a1.51,1.51,0,0,0,.16,1.11h4.28a2.18,2.18,0,0,0,.27-1.94l-.51-2a2.26,2.26,0,0,0,.63-.56c.28-.36-.2-.83-.2-.83A1.43,1.43,0,0,0,79.58,65ZM63.89,27.51l-.16-.87,1.9-.08.16,1Zm1.5-10.7c.24-1.58,2.78-1.86,4.76-.35C67.06,15.54,65.39,16.81,65.39,16.81ZM70,27.2a.92.92,0,0,1-.63-.4,6.57,6.57,0,0,0-.12-.71c.24,0,.63-.44.63-.44.08.28.64.4.64.4l0,.59S70.31,27.2,70,27.2Zm-.67-5a6,6,0,0,0,1.54-.67l.32.12A2.1,2.1,0,0,1,69.36,22.24ZM75,25c-.11,0-.27-.4-.27-.4a1.5,1.5,0,0,1,1-.63,3,3,0,0,0,.2.55S75.1,24.74,75,25Zm.92-.08s1.19,1.66,1.19,1.74a.91.91,0,0,1-.64.12,4.81,4.81,0,0,1-1.31-1.51A1.29,1.29,0,0,1,75.9,24.94Z"></path></svg>