<svg xmlns="http://www.w3.org/2000/svg" xmlns:xlink="http://www.w3.org/1999/xlink" xml:space="preserve" width="91px" height="91px" style="shape-rendering:geometricPrecision; text-rendering:geometricPrecision; image-rendering:optimizeQuality; fill-rule:evenodd; clip-rule:evenodd" viewBox="0 0 5.26 5.26"> <defs> <style type="text/css"> .fil1 {fill:#083264} .fil0 {fill:white} </style> </defs> <g id="Layer_x0020_1"> <metadata id="CorelCorpID_0Corel-Layer"></metadata> <g id="_1718018327024"> <circle class="fil0" cx="2.63" cy="2.63" r="2.63"></circle> <path class="fil1" d="M3.65 2.37c-0.06,-0.04 -0.14,-0.12 -0.2,-0.16 -0.03,-0.02 -0.06,-0.06 -0.11,-0.07 -0.05,0 -0.1,0.02 -0.1,0.08 0,0.08 0.04,0.08 0.08,0.13l0.21 0.17c0.02,0.02 0.03,0.03 0.05,0.05 0.04,0.03 0.05,0.02 0.1,0.02 0.05,0 0.11,-0.05 0.15,-0.09l0.11 -0.09c0.01,-0.01 0.01,-0.01 0.02,-0.02 0.02,-0.01 0.02,-0.02 0.04,-0.03 0,0.02 0,0.03 0,0.05 0,0.02 0,0.04 0,0.06l0 0.29c0.01,0.02 0.01,0.03 0.01,0.05l0 0.93c0,0.08 0,0.15 0,0.23 0.01,0.09 0.14,0.13 0.22,0.07 0.02,-0.01 0.03,-0.04 0.04,-0.06 0.02,0.01 0.02,0.03 0.04,0.05 0.05,0.05 0.13,0.05 0.19,0.01 0.04,-0.03 0.04,-0.08 0.04,-0.13 0.01,-0.28 0,-0.59 0,-0.88 0.03,-0.01 0.05,-0.01 0.07,-0.04l0.01 -0.01c0.01,0 0.01,-0.01 0.01,-0.01 0.04,-0.06 0.05,-0.14 0.05,-0.23l0 -0.18c0,-0.01 0,-0.01 0,-0.01 0,0 0,0 0,-0.01l0 -0.06c0,-0.01 0,-0.01 0,-0.01 -0.01,-0.15 0.03,-0.39 -0.18,-0.39 -0.04,0 -0.03,0 -0.05,0.04l-0.04 0.11c-0.01,0.02 -0.02,0.04 -0.03,0.06 -0.01,0.03 -0.03,0.06 -0.05,0.1 -0.01,0.02 -0.03,0.08 -0.06,0.09 -0.04,-0.03 -0.12,-0.24 -0.15,-0.31 -0.02,-0.07 -0.02,-0.12 -0.13,-0.08 -0.03,0.01 -0.14,0.11 -0.17,0.14l-0.05 0.04c-0.03,0.02 -0.09,0.08 -0.12,0.1zm0.54 -0.17c0,0.03 0.01,0.03 0.03,0.06 0.01,0.02 0.02,0.02 0.02,0.05 0,0.06 0.02,0.08 0.03,0.12l0.01 0c0.01,-0.02 0.02,-0.04 0.03,-0.06 0.01,-0.02 0,-0.03 0,-0.06 0.01,-0.05 0.05,-0.07 0.05,-0.11 0,-0.02 -0.05,-0.05 -0.08,-0.05 -0.03,0 -0.09,0.02 -0.09,0.05zm-0.8 -0.16c0,0.02 0,0.03 0.01,0.04 0.01,0.01 0,0 0.01,0.01 0,0 0.01,0 0.01,0 0.04,0.02 0.06,0.04 0.09,0.06l0 -0.47 -0.12 0 0 0.36zm-1.01 -0.11c0,0.07 0.03,0.07 0.12,0.07l0.67 0c0.02,0 0.01,0 0.02,-0.01 0.06,-0.06 -0.01,-0.12 -0.02,-0.12l-0.75 0c-0.01,0 -0.04,0.04 -0.04,0.06zm0.34 0.55l0.45 0c0.01,0 0.02,-0.02 0.03,-0.03 0.04,-0.06 -0.02,-0.11 -0.03,-0.11 -0.22,0 -0.49,0 -0.71,0.01 -0.03,0 -0.04,-0.01 -0.06,0.01 -0.04,0.03 -0.02,0.09 0.01,0.11 0.02,0.01 0.26,0.01 0.31,0.01zm-0.34 0.4c0,0.09 0.07,0.06 0.14,0.07l0.55 0.01c0.02,-0.01 0.02,-0.01 0.04,-0.01 0.03,0 0.06,0 0.08,-0.01 0.04,-0.03 0.03,-0.11 -0.03,-0.12 -0.05,-0.01 -0.12,0 -0.18,0 -0.03,0 -0.04,-0.01 -0.09,-0.01 -0.09,0 -0.38,0 -0.44,0.01 -0.03,0 -0.04,0 -0.05,0.01 -0.01,0.01 -0.02,0.03 -0.02,0.05zm1.89 -0.83c0.09,0 0.16,-0.04 0.19,-0.12 0.01,-0.01 0.02,-0.06 0.02,-0.08 0,-0.05 -0.03,-0.1 -0.06,-0.14 -0.08,-0.08 -0.22,-0.08 -0.29,0 -0.02,0.02 -0.05,0.06 -0.05,0.1 -0.01,0.07 -0.01,0.12 0.05,0.18 0.03,0.03 0.08,0.06 0.14,0.06zm-3.03 -0.1c-0.05,-0.08 -0.06,-0.06 -0.12,-0.01 -0.08,0.06 -0.03,0.09 0,0.13l-0.02 0.03c-0.02,0.04 -0.03,0.06 -0.06,0.06 -0.03,0 -0.03,0 -0.06,0.01 0,0.03 -0.01,0.05 -0.01,0.12 0,0.04 0.06,0.03 0.08,0.05 0.02,0.01 0.02,0.02 0.03,0.04 0,0.01 0.01,0.04 0.01,0.05 0,0.03 -0.1,0.03 -0.01,0.13 0.02,0.01 0.05,0.04 0.06,0.04 0.02,0 0.05,-0.04 0.07,-0.04 0.02,0 0.05,0.04 0.05,-0.04 0,-0.03 -0.05,-0.05 -0.08,-0.1 -0.09,-0.16 -0.04,-0.32 0.11,-0.4 0.09,-0.04 0.2,-0.03 0.27,0.02 0.06,0.04 0.08,0.09 0.1,0.11 0.02,-0.01 0.02,-0.01 0.05,-0.02 0.05,0 -0.01,0 0.04,-0.06 0.02,-0.02 0.04,-0.04 -0.02,-0.09 -0.06,-0.07 -0.04,-0.06 -0.12,-0.01l-0.05 -0.02c-0.02,-0.01 -0.04,-0.02 -0.04,-0.04 -0.02,-0.06 0.02,-0.08 -0.13,-0.08 -0.06,0 -0.03,0.06 -0.05,0.08 -0.02,0.02 -0.08,0.03 -0.1,0.04zm0.51 0.95c-0.09,0 -0.15,-0.02 -0.21,-0.08 -0.07,-0.07 -0.08,-0.13 -0.08,-0.22 0,-0.05 0.02,-0.07 0.03,-0.1 0.04,-0.08 0.15,-0.16 0.25,-0.15 0.05,0.01 0.07,0.01 0.11,0.02 0.05,0.03 0.08,0.05 0.11,0.09 0.12,0.15 0.03,0.44 -0.21,0.44zm-0.06 -0.7c-0.03,0.06 0.02,0.07 -0.12,0.11 -0.01,-0.01 -0.05,-0.05 -0.06,-0.05 -0.03,0 -0.11,0.07 -0.11,0.09 0,0.02 0.04,0.06 0.04,0.07 -0.02,0.05 -0.03,0.09 -0.07,0.1 -0.03,0 -0.05,0 -0.06,0.02 -0.01,0.03 -0.02,0.09 0,0.13 0.02,0.03 0.07,-0.02 0.09,0.05 0.01,0.02 0.01,0.03 0.01,0.06 0,0.05 -0.08,0.04 0,0.14 0.06,0.06 0.08,0.03 0.12,-0.01 0.02,0.01 0.07,0.04 0.09,0.05 0.03,0.03 -0.01,0.09 0.05,0.09l0.12 0c0,-0.01 0.01,-0.06 0.01,-0.07 0.01,-0.02 0.04,-0.02 0.06,-0.03 0.07,-0.02 0.03,-0.01 0.1,0.04 0.03,-0.01 0.11,-0.06 0.11,-0.11 0,0 -0.04,-0.05 -0.04,-0.06l0 0c0.03,-0.04 0.03,-0.09 0.07,-0.09 0.04,-0.01 0.07,0.01 0.07,-0.1 0,-0.08 -0.04,-0.06 -0.07,-0.07 -0.02,-0.01 -0.05,-0.08 -0.05,-0.1 0.03,-0.03 0.06,-0.06 0.04,-0.1 -0.09,-0.12 -0.12,-0.04 -0.15,-0.04 -0.02,0 -0.04,-0.01 -0.07,-0.02 -0.03,-0.02 -0.03,-0.03 -0.03,-0.05 0,-0.03 0,-0.04 -0.03,-0.05 -0.03,-0.02 -0.09,-0.01 -0.12,0zm-1.01 -0.45c0,0.47 0.01,0.92 0,1.38 0,0.07 0.08,0.15 0.13,0.18 0.04,0.03 0.09,0.03 0.13,0.03 0.21,0 0.41,0 0.62,0l1.45 0c0.07,0 0.28,-0.01 0.33,-0.01 0.04,-0.01 0.06,-0.02 0.08,-0.04 0.01,-0.03 0.04,-0.04 0.05,-0.06 0.03,-0.05 0.04,-0.12 0.04,-0.2l0 -0.42c0,-0.01 -0.07,-0.06 -0.08,-0.07 -0.02,-0.01 -0.02,-0.02 -0.03,-0.03 0,0.03 -0.01,0.04 -0.01,0.07l-0.01 0.48c0,0.06 0.01,0.09 -0.05,0.14 -0.03,0.02 -0.02,0.02 -0.06,0.02 -0.1,0 -0.18,0 -0.28,0l-1.93 0c-0.05,0 -0.16,0 -0.2,-0.02 -0.06,-0.04 -0.05,-0.08 -0.05,-0.12 -0.01,-0.03 0,-1.25 0,-1.39l-0.13 0 0 0.06zm1.26 -0.44c-0.14,0 -1.23,-0.01 -1.3,0.01 -0.04,0.01 -0.06,0.05 -0.07,0.1l0 0.07c0,0.03 0.01,0.06 0.02,0.08 0.01,0.01 0.01,0.01 0.02,0.02 0.01,0.01 0.02,0.02 0.03,0.02 0.27,0 2.68,0 2.73,0 0.03,-0.01 0.2,0 0.22,-0.03 0.04,-0.04 0.04,-0.2 0,-0.24 -0.04,-0.04 -0.19,-0.03 -0.25,-0.03l-1.09 0c0,-0.04 0,-0.08 -0.03,-0.11 -0.01,-0.01 -0.03,-0.01 -0.06,-0.02l-0.11 0c0,0 0,0 0,0 -0.03,0 -0.08,0 -0.09,0.03 -0.01,0.02 -0.02,0.06 -0.02,0.1z"></path> </g> </g> </svg>