<svg xmlns="http://www.w3.org/2000/svg" xmlns:xlink="http://www.w3.org/1999/xlink" id="Layer_1" x="0px" y="0px" viewBox="0 0 91 91" style="enable-background:new 0 0 91 91;" xml:space="preserve"> <style type="text/css"> .st0{fill-rule:evenodd;clip-rule:evenodd;fill:#FFFFFF;} .st1{fill-rule:evenodd;clip-rule:evenodd;fill:#0B2852;} </style> <g> <circle class="st0" cx="45.5" cy="45.5" r="45.5"></circle> <path class="st1" d="M32.42,64.82l0.07,4.32c1.06,0.46,3.1,1.64,4.46,1.62l0.08-5.46c0.84,1.67,0.54,4.32,1.49,6.02 c0.9,0.74,12.24,1.31,13.83-0.12c1-0.92,0.78-4.58,1.52-5.9l0.11,5.5c1.01-0.09,1.87-0.48,2.71-0.84c2.2-0.95,1.85-0.49,1.85-5.15 c0-6.61-5.96-10.3-8.11-8.81c-2.82,1.96-6.54,2.25-9.47,0.32c-1.1-0.73-1.65-1.36-4.31,0.37C34.16,58.31,32.42,60.8,32.42,64.82 L32.42,64.82z M44.35,43.13c3.35-0.81,6.5,1.75,7.08,4.68c0.72,3.71-1.7,6.59-4.61,7.25C39.21,56.8,35.86,45.17,44.35,43.13 L44.35,43.13z M31.59,35.19c-8.55,2.39-4.55,13.88,2.86,11.84c2.74-0.75,5.29-3.71,4.38-7.38C38.19,37.08,35.27,34.16,31.59,35.19 L31.59,35.19z M56.49,35.26c-1.65,0.61-2.48,0.82-3.58,2.5c-0.86,1.31-1.24,3.24-0.76,4.96c0.8,2.91,3.89,5.33,7.59,4.27 C67.75,44.7,63.59,32.65,56.49,35.26L56.49,35.26z M61.47,33.37c0.26-1.49,0.99-1.79,0.53-3.13c-0.31-0.91-0.7-1.38-0.8-2.57 c-0.16-1.93,0.54-3.77,1.52-4.91c6.23-7.17,16.69,2.71,9.75,9.26c-3.27,3.08-6.36,1.35-8.07,0.78 C63.28,32.43,62.87,33.12,61.47,33.37L61.47,33.37z M67.89,29.95c1.9-0.99,4.38-4.5,2.44-5.7c-1.34-0.83-1.64,0.05-2.44,0.58 c-2.73-2.25-3.29,0.53-3.04,1.57C65.09,27.41,67.02,29.55,67.89,29.95L67.89,29.95z M30.84,33.44c-1.06-0.26-2.2-1.13-3.09-0.89 c-1.03,0.27-4.7,2.89-8.87-0.55c-3.11-2.56-3.68-7.59-0.57-10.8c2.97-3.07,7.91-3.15,10.88,0.24c3.58,4.08,0.93,8.07,0.81,8.85 C29.82,31.42,30.63,32.17,30.84,33.44L30.84,33.44z M22.41,28.72c1.3,0.36,4.34,0.95,4.97-0.41l0.43-1.67 c0.03-0.63-0.22-1.99-0.45-2.41l-1.84-0.14c-0.18-1.15,0.34-1.45-0.33-2.49c-1.08,0.24-0.14,0.27-0.84,1.58 C23.35,25.08,22.22,22.75,22.41,28.72L22.41,28.72z M19.82,27.12l0,0.96l0,1.06l1.81,0.01l0-3.48l0-0.8l-1.79-0.07L19.82,27.12 L19.82,27.12z M19.88,61.09c-0.13-5.94-0.14-9.95,4.52-12.57c3.5-1.96,2.68-0.37,5.61,0.65c3.66,1.28,5.72-0.35,6.9-0.36 c0.12,2.1,0.48,2.83,0.94,4.44c-0.86,0.77-2.03,1.03-3.08,1.8c-4.76,3.44-4.28,7.53-4.94,8.81c-5.69,0.26-3.76-1.63-5.45-6.92 l0,5.83C22.69,62.63,21,61.72,19.88,61.09L19.88,61.09z M53.98,48.89c2.19,0.12,3.04,1.37,6.24,0.5c3.48-0.95,2.53-2.5,5.25-1.41 c3.4,1.36,5.62,4.64,5.62,8.65c0,4.73,0.38,4.43-1.73,5.31c-0.82,0.34-1.93,0.88-2.81,0.86l-0.03-4.85 c-0.3,0.39-0.11,0.02-0.42,0.72c0,0.01-0.16,0.47-0.17,0.52c-0.78,2.92,0.49,5.15-4.98,4.63c-0.77-8.32-6.7-9.49-7.95-10.58 C53.48,51.81,53.9,50.83,53.98,48.89z"></path> </g> </svg>