<svg xmlns="http://www.w3.org/2000/svg" xmlns:xlink="http://www.w3.org/1999/xlink" id="Layer_1" x="0px" y="0px" viewBox="0 0 91 91" style="enable-background:new 0 0 91 91;" xml:space="preserve"> <style type="text/css"> .st0{fill-rule:evenodd;clip-rule:evenodd;fill:#FFFFFF;} .st1{fill-rule:evenodd;clip-rule:evenodd;fill:#0B2852;} </style> <g> <circle class="st0" cx="45.5" cy="45.5" r="45.5"></circle> <path class="st1" d="M28.67,16.26v31.47c0.17,0.33,0.14,1.55,1.52,2.57c1.05,0.77,1.88,0.74,3.38,0.74l8.05,0 c0,0-0.04,0.07,0.12-0.05c-0.02-0.18,0.01-0.08-0.51-0.26c-1.21-0.41-2.25-1.34-2.84-2.51c-0.39-0.79-0.53-1.52-0.53-2.51 c0-1.02,0-2.03,0-3.05c0-2.42-0.04-3.28,1.22-4.87c0.42-0.53,1.11-1.01,1.74-1.31c0.84-0.4,1.61-0.45,2.62-0.45 c2.27,0,3.45-0.12,4.99,1.09c1.06,0.84,1.91,2.17,1.91,4.2c0,1.02,0,2.03,0,3.05c0,0.95,0.07,2-0.16,2.87 c-0.36,1.35-1.17,2.36-2.29,3.06c-0.17,0.1-0.34,0.17-0.5,0.27v0.46c0.45,0.05,8.41,0.01,9.1,0.01c1.5,0,2.86,0.17,4.03-0.54 c1.65-0.99,1.65-2.45,1.82-2.78V16.37c-0.16-0.43-0.08-1.3-1.09-2.32c-1.01-1.01-1.93-0.95-2.29-1.09H31.97 c-0.23,0.12-0.6,0.07-1.25,0.4C28.85,14.32,28.81,15.99,28.67,16.26L28.67,16.26z M40.8,28.05c0.09-0.71,0.59-1.57,0.92-1.99 c0.28-0.36,1.04-1.11,1.58-1.3c0.14,0.07,0.3,0.2,0.47,0.29c0.89,0.5,2.05,0.58,3.01,0.22c0.6-0.23,0.58-0.31,0.94-0.5 c0.25,0.08,0.71,0.43,0.89,0.59c0.73,0.64,1.48,1.62,1.62,2.71c-3.03,0-6.25,0.03-9.25,0L40.8,28.05L40.8,28.05z M45.06,18.89 c1.78-0.28,3.19,1.04,3.41,2.55c0.24,1.76-1.05,3.15-2.53,3.36c-1.78,0.26-3.18-1.05-3.39-2.55C42.3,20.49,43.57,19.12,45.06,18.89 L45.06,18.89z M41.73,50.2c-1.17-0.21-2.43-1.39-2.89-2.56c-0.33-0.85-0.33-1.38-0.33-2.36c0-0.9,0-1.8,0-2.71 c0-1.69-0.14-2.95,1.06-4.33c1.09-1.25,2.23-1.54,3.89-1.54c1.98,0,3.13-0.14,4.5,0.92c0.95,0.74,1.71,1.9,1.71,3.72 c0,1.02,0.06,4.63-0.06,5.36c-0.13,0.76-0.44,1.4-0.81,1.89c-0.27,0.36-0.93,1.04-1.42,1.23c-0.11-1.55,0.22-2.9-0.32-4.34 c-0.96-2.55-4.12-2.76-5.12,0.29C41.6,46.82,41.73,48.98,41.73,50.2L41.73,50.2z M42.39,70.06c-0.05-6.83,0-13.67,0-20.5 c0-1.61-0.21-3.35,0.64-4.51c1.29-1.76,3.69-0.73,3.69,2.28c0,2.52-0.03,5.18,0,7.67h0.65c0.2-2.07,4.33-2.02,4.33,0.13 c0,0.83,0,1.66,0,2.48c0.74,0.01,0.63,0.02,0.67-0.12c0.03-0.1,0-0.16,0.11-0.37c0.76-1.57,4.17-1.28,4.21,0.51 c0.02,0.82-0.01,1.65,0,2.47l0.66,0c0.11-1.36,2.05-1.88,3.37-1.26c0.79,0.37,0.96,0.84,0.96,1.6v10.24c0,1.87-0.02,3.05-0.14,4.93 c-0.03,0.39-0.13,0.73-0.29,1.03c-0.14,0.27-0.37,0.57-0.55,0.72c-0.49,0.41-1.01,0.68-1.88,0.68H46.03 c-1.55,0-3.35,0.09-4.77-0.35c-0.64-0.2-1.23-0.45-1.57-1c-0.23-0.36-0.77-1.36-0.95-1.59c-0.37-0.47-0.71-1-1.07-1.5 c-1.07-1.46-2.13-3.01-3.2-4.47c-0.19-0.26-0.35-0.52-0.55-0.75c-0.2-0.22-0.33-0.48-0.43-0.84c-0.61-2.11,0.91-3.59,2.92-2.96 c0.4,0.12,0.54,0.29,0.77,0.5l1.3,1.27c0.44,0.41,0.86,0.83,1.3,1.23c0.13,0.12,0.19,0.19,0.32,0.33l0.68,0.63 c0.11,0.11,0.19,0.21,0.31,0.31C41.3,69.05,42.29,70.03,42.39,70.06L42.39,70.06z M34.64,15.83c0.64-0.11,1.88-0.04,2.59-0.04 c6.07,0,12.14,0,18.22,0c0.96,0,1.46-0.06,2.23,0.39c1.55,0.89,1.36,2.41,1.36,3.84v7.81c0,0.82-0.24,1.49-0.65,1.95 c-1.15,1.3-2.46,0.99-4.25,0.99H35.93c-0.92,0-1.5,0.05-2.23-0.38c-0.52-0.3-0.94-0.76-1.19-1.41c-0.26-0.67-0.18-1.65-0.18-2.42 v-7.81C32.33,17.2,33.22,16.08,34.64,15.83L34.64,15.83z M59.35,44.71l-5.68,0.01l0-2.4l5.69,0.01L59.35,44.71L59.35,44.71z M59.36,40.44l-5.69,0.01l0-2.39l5.68,0.01L59.36,40.44z"></path> </g> </svg>