<svg xmlns="http://www.w3.org/2000/svg" xmlns:xlink="http://www.w3.org/1999/xlink" id="Layer_1" x="0px" y="0px" viewBox="0 0 91 91" style="enable-background:new 0 0 91 91;" xml:space="preserve"> <style type="text/css"> .st0{fill-rule:evenodd;clip-rule:evenodd;fill:#FFFFFF;} .st1{fill-rule:evenodd;clip-rule:evenodd;fill:#0B2852;} </style> <g> <circle class="st0" cx="45.5" cy="45.5" r="45.5"></circle> <path class="st1" d="M40.16,75.93c1.35,0.46,3.91,2.62,5.36,2.84c0.91-0.19,2.05-0.85,2.81-1.24c0.7-0.36,1.9-1.17,2.62-1.45 c1.46-1.25,2.64-1.7,5.12-4.01c4.57-4.25,9.12-10.28,11.76-15.99c3.99-8.63,6.65-19.56,6.23-30.78c-2.18-1.45-5.66-2.91-8.4-3.98 c-1.55-0.6-8-2.79-9.77-2.78c0.6,1.12,1.46,2.04,1.6,3.75c3.59,0.61,9.26,3.41,12.39,5.07c0.44,5.95-0.76,12.06-1.96,17.2 c-0.55,2.34-1.5,5.04-2.42,7.19c-0.72,1.68-1.02,1.75-2.03,2.77c-0.88,0.87-1.43,1.63-3.18,1.65c0.18-0.54,2.94-4.09,3.48-4.82 c0.83-1.14,1.41-1.23,0.76-2.76c-0.48-1.12-0.76-1.72-1.47-2.8c-1.27-1.92-2.61-2.59-4.73-3.54c-1.14-0.51-5.11-2.43-6.03-2.37 c-1.29,0.97-2.66,5.76-3.73,7.42c-0.46-0.15-1.15-1.19-1.4-1.49l-0.95-1.16c-0.16-0.16-0.08-0.09-0.22-0.2 c-0.19-0.16-0.05-0.05-0.28-0.2c-0.05-0.23,0.28,0.02-0.21-0.27c-0.92,0.4-2.16,3.16-3.07,3.35c-0.48-0.48-1.45-3.12-1.76-3.83 c-0.47-1.11-1.1-3.07-1.98-3.62c-0.9-0.05-5.06,1.93-6.01,2.37c-3.43,1.59-4.74,2.67-6.21,6.37c-0.54,1.37-0.46,1.08,0.78,2.81 l3.54,4.81c-1.69-0.08-2.15-0.65-3.14-1.61c-2.16-2.07-2.31-2.95-3.42-6.2c-0.41-1.2-0.72-2.48-1.14-3.79 c-1.09-3.39-2.53-13.25-1.96-17.32c1.84-1.05,3.77-2.01,5.79-2.83c1.12-0.45,2.1-0.83,3.21-1.2c4.97-1.68,2.54-0.26,3.99-3.07 c0.24-0.47,0.82-1.27,0.98-1.72c-1.76,0.03-7.8,2.06-9.66,2.76c-2.93,1.11-6.14,2.52-8.51,4.02c-0.61,14.13,4.19,31.47,13.44,41.96 c2.45,2.78,4.37,4.6,7.15,6.73C37.93,74.3,39.97,75.66,40.16,75.93L40.16,75.93z M43.9,41.95c-1.18,0.04-3.06-1.63-3.69-2.37 c-1.46-1.71-1.4-3.08-2.14-4.01c-0.99-1.25-1.62-2.05-2.04-4.08c-0.6-2.92,0.55-2.57,0.67-3.61c0.05-0.43-0.01-0.97,0.04-1.45 c0.47,0.04,2.37,0.92,3.23,1.12c1.08,0.26,2.79,0.41,3.54,0.62c2.41,0.09,3.8,0.07,5.99-0.28c0.87-0.14,1.8-0.38,2.57-0.64 c0.57-0.19,1.82-0.77,2.22-0.83c0.05,0.56-0.1,1.27,0.11,1.78c0.24,0.58,1.32,0.76,0.39,4.14c-0.62,2.27-1.84,2.69-2.49,4.58 C50.55,42.01,45.17,43.02,43.9,41.95L43.9,41.95z M38.83,24.12c3.17-1.28,6.83-1.59,10.18-0.94c1.12,0.22,3.68,0.89,4.44,1.62 c-2.34,1.89-12.88,2.83-15.82,0C37.97,24.42,38.35,24.32,38.83,24.12L38.83,24.12z M45.1,20.08c-0.53-0.67-1.87-0.15-1.24-2.11 c0.06-0.19,0.12-0.26,0.14-0.52c0.01-0.22,0-0.12-0.03-0.29l-0.06-0.15l-0.17-0.16c-0.26-0.31-0.24-0.15-0.25-0.58 c0.4-0.21,3.61-0.24,4.05,0c-0.05,0.83,0.12,0.15-0.51,0.67c-0.09,1.01,0.44,1.06,0.29,2.27C46.78,19.68,46.11,20.13,45.1,20.08 L45.1,20.08z M35.05,23.64C32.43,12.79,58.6,12.4,55.94,23.65c-0.67,0-1.98-0.77-2.73-1.08c-3.23-1.34-6.39-1.4-9.76-1.29 c-1.55,0.25-2.98,0.4-4.57,0.91C37.42,22.65,35.59,23.77,35.05,23.64L35.05,23.64z M50.49,49.53c0.76-0.37,2.91-0.13,3.37-0.75 l1-2.07c0.21-0.42,0.11-0.31,0.38-0.57c0.54,0.53,1.11,2.23,1.61,2.88l3.03,0.47c-0.11,0.67-1.71,1.76-2.17,2.41l0.41,3.14 c-0.98-0.22-2.31-1.35-2.99-1.28c-0.66,0.08-1.94,1.18-2.88,1.33l0.52-3.24L50.49,49.53L50.49,49.53z M32.7,51.08l0.08-1.52 l6.14,0.02l0.02,1.54L32.7,51.08z"></path> </g> </svg>