<svg xmlns="http://www.w3.org/2000/svg" xmlns:xlink="http://www.w3.org/1999/xlink" xml:space="preserve" width="91px" height="91px" style="shape-rendering:geometricPrecision; text-rendering:geometricPrecision; image-rendering:optimizeQuality; fill-rule:evenodd; clip-rule:evenodd" viewBox="0 0 5.36 5.36"> <defs> <style type="text/css"> .fil1 {fill:#083264} .fil0 {fill:white} </style> </defs> <g id="Layer_x0020_1"> <metadata id="CorelCorpID_0Corel-Layer"></metadata> <g id="_1718533223456"> <circle class="fil0" cx="2.68" cy="2.68" r="2.68"></circle> <path id="commitment-icon.svg" class="fil1" d="M0.95 2.49l0.07 0.84c0.01,0.09 0.03,0.14 0.06,0.18 0.02,0.02 0.05,0.03 0.08,0.02 0,0 0.01,0 0.01,0l0.33 0 0 0c0.05,0 0.08,-0.01 0.1,-0.04 0.02,-0.03 0.04,-0.08 0.04,-0.14l0 -0.93c0,0 0,-0.01 0,-0.01 0,0 0,0 0,-0.01 -0.01,-0.03 -0.02,-0.05 -0.04,-0.06 -0.03,-0.02 -0.07,-0.02 -0.12,-0.02l0 0 0 0 -0.42 0c-0.04,0 -0.07,0.01 -0.09,0.03 -0.02,0.03 -0.03,0.07 -0.02,0.13l0 0.01 0 0zm2.67 -0.04c0,-0.01 0,-0.03 0,-0.04l-0.15 -0.11c-0.03,-0.01 -0.05,-0.03 -0.08,-0.04 -0.04,-0.03 -0.08,-0.06 -0.12,-0.09 0.01,-0.03 0.03,-0.05 0.04,-0.08 0.05,0.03 0.09,0.06 0.14,0.09 0.02,0.02 0.04,0.03 0.07,0.05l0.13 0.09c0.01,-0.01 0.02,-0.02 0.03,-0.03 0.04,-0.03 0.09,-0.05 0.17,-0.05l0 0 0.39 0c0.08,0 0.15,0.02 0.19,0.05 0.06,0.04 0.08,0.1 0.07,0.19l-0.09 0.89c0,0.08 -0.02,0.15 -0.06,0.19 -0.04,0.05 -0.1,0.07 -0.17,0.07l-0.35 0c-0.05,0 -0.1,-0.02 -0.13,-0.04 -0.03,-0.02 -0.05,-0.05 -0.06,-0.09l-0.13 0c0.02,0.05 0.02,0.1 0.01,0.14 -0.02,0.04 -0.04,0.07 -0.08,0.1 -0.03,0.03 -0.07,0.04 -0.11,0.05 -0.04,0.01 -0.09,0 -0.13,-0.01 -0.04,0.05 -0.09,0.08 -0.14,0.09 -0.05,0.02 -0.1,0.01 -0.16,-0.01 -0.05,0.06 -0.1,0.09 -0.16,0.11 -0.06,0.01 -0.13,0 -0.2,-0.03 -0.02,0.02 -0.04,0.03 -0.07,0.04 -0.03,0.01 -0.06,0.02 -0.1,0.02 -0.09,-0.01 -0.15,-0.03 -0.2,-0.07 -0.04,-0.04 -0.07,-0.1 -0.1,-0.15l-0.2 -0.34 -0.15 0c-0.01,0.04 -0.02,0.08 -0.05,0.11 -0.04,0.05 -0.09,0.07 -0.17,0.07l-0.33 0c-0.06,0.01 -0.12,0 -0.16,-0.06 -0.04,-0.04 -0.07,-0.11 -0.08,-0.22l0 0 -0.07 -0.85c-0.01,-0.09 0,-0.15 0.04,-0.19 0.04,-0.05 0.09,-0.07 0.16,-0.07l0.01 0 0.41 0 0 0c0.07,0 0.12,0.01 0.17,0.04 0.03,0.02 0.06,0.05 0.07,0.09l0.28 0c0.07,-0.05 0.14,-0.08 0.21,-0.11 0.02,0 0.03,0 0.04,-0.01 0.01,0.02 0.03,0.04 0.05,0.06 0,0.01 0.01,0.02 0.02,0.02 -0.03,0.01 -0.05,0.01 -0.08,0.02 -0.06,0.02 -0.13,0.06 -0.19,0.1 -0.01,0.01 -0.02,0.01 -0.03,0.01l-0.29 0 0 0.89 0.17 0c0.01,0 0.03,0.01 0.04,0.03l0.2 0.36c0.03,0.05 0.06,0.1 0.1,0.13 0.03,0.03 0.07,0.04 0.13,0.05 0.02,0 0.05,-0.01 0.07,-0.02 0.01,0 0.03,-0.01 0.04,-0.02l-0.14 -0.25c0,-0.01 0,-0.01 0,-0.02 0,-0.02 0.01,-0.03 0.02,-0.04 0.01,-0.01 0.02,-0.01 0.02,-0.01 0.02,0 0.04,0.01 0.04,0.03l0.15 0.27c0.06,0.03 0.1,0.04 0.15,0.03 0.04,-0.01 0.08,-0.04 0.11,-0.08l-0.21 -0.33c0,0 0,-0.01 0,-0.02 0,-0.02 0,-0.03 0.02,-0.04 0,0 0.01,-0.01 0.02,-0.01 0.02,0 0.03,0.01 0.04,0.02l0.22 0.35c0.04,0.02 0.08,0.02 0.11,0.01 0.04,-0.01 0.07,-0.03 0.11,-0.06l-0.2 -0.38c-0.02,-0.02 -0.01,-0.05 0.01,-0.06 0.01,-0.01 0.02,-0.01 0.03,-0.01 0.01,0 0.03,0.01 0.04,0.02l0.2 0.4c0.03,0.01 0.06,0.02 0.09,0.01 0.03,0 0.05,-0.01 0.08,-0.03 0.02,-0.02 0.03,-0.04 0.04,-0.06 0.01,-0.03 0.01,-0.06 -0.01,-0.09 0,-0.01 0,-0.01 0,-0.02 0,0 0,0 0,0 -0.01,-0.01 -0.02,-0.02 -0.03,-0.03l-0.46 -0.83c-0.05,-0.08 -0.09,-0.08 -0.14,-0.06 -0.03,0.02 -0.06,0.05 -0.09,0.08 -0.02,0.02 -0.04,0.04 -0.06,0.05l-0.08 0.07c-0.06,0.04 -0.12,0.07 -0.18,0.07 -0.04,0.01 -0.08,0 -0.12,-0.01 -0.03,-0.02 -0.06,-0.04 -0.09,-0.07 -0.02,-0.03 -0.04,-0.07 -0.05,-0.12 0,-0.01 0.01,-0.03 0.02,-0.04l0.22 -0.26c0.02,0.02 0.05,0.04 0.07,0.05l-0.21 0.26c0,0.02 0.01,0.04 0.02,0.06 0.02,0.01 0.03,0.03 0.06,0.03 0.02,0.01 0.04,0.01 0.07,0.01 0.04,0 0.09,-0.02 0.13,-0.05l0.08 -0.07c0.02,-0.01 0.04,-0.03 0.05,-0.05 0.04,-0.03 0.08,-0.06 0.12,-0.09 0.09,-0.05 0.18,-0.05 0.26,0.1l0.45 0.81 0.16 0 0 -0.96zm-0.89 -1.09c0.28,0 0.5,0.22 0.5,0.5 0,0.28 -0.22,0.5 -0.5,0.5 -0.27,0 -0.5,-0.22 -0.5,-0.5 0,-0.28 0.23,-0.5 0.5,-0.5zm-0.14 0.46c0.02,0.01 0.03,0.01 0.05,0.02 0.01,0.01 0.02,0.02 0.03,0.03 0.02,-0.03 0.07,-0.09 0.11,-0.14 0.04,-0.04 0.08,-0.07 0.1,-0.08l0 -0.01 0.14 0 -0.02 0.02c-0.07,0.08 -0.12,0.15 -0.17,0.21 -0.05,0.07 -0.1,0.15 -0.15,0.24l-0.01 0.02 -0.01 -0.02c-0.02,-0.06 -0.05,-0.1 -0.08,-0.14 -0.03,-0.04 -0.06,-0.08 -0.11,-0.11l-0.02 -0.02 0.14 -0.03 0 0.01 0 0zm-1.27 1.32c0.05,0 0.08,0.03 0.08,0.08 0,0.04 -0.03,0.08 -0.08,0.08 -0.04,0 -0.07,-0.04 -0.07,-0.08 0,-0.05 0.03,-0.08 0.07,-0.08zm2.7 0c0.04,0 0.08,0.03 0.08,0.08 0,0.04 -0.04,0.08 -0.08,0.08 -0.04,0 -0.08,-0.04 -0.08,-0.08 0,-0.05 0.04,-0.08 0.08,-0.08z"></path> </g> </g> </svg>