<svg xmlns="http://www.w3.org/2000/svg" xmlns:xlink="http://www.w3.org/1999/xlink" xml:space="preserve" width="91px" height="91px" style="shape-rendering:geometricPrecision; text-rendering:geometricPrecision; image-rendering:optimizeQuality; fill-rule:evenodd; clip-rule:evenodd" viewBox="0 0 51.38 51.38"> <defs> <style type="text/css"> .fil1 {fill:#083264} .fil0 {fill:white} </style> </defs> <g id="Layer_x0020_1"> <metadata id="CorelCorpID_0Corel-Layer"></metadata> <g id="_1718023662624"> <circle class="fil0" cx="25.69" cy="25.69" r="25.69"></circle> <path class="fil1" d="M24.92 38.26l0 -0.33 1.54 0 0 0.33c0,0.38 -0.39,0.71 -0.77,0.71 -0.38,0 -0.77,-0.33 -0.77,-0.71zm9.54 -15.38c0,0.26 0.17,0.44 0.44,0.44l1.71 0c0.57,0 0.57,-0.83 0,-0.83l-1.71 0c-0.24,0 -0.44,0.17 -0.44,0.39zm-19.69 0.44l1.71 0c0.59,0 0.58,-0.83 0,-0.83l-1.71 0c-0.57,0 -0.57,0.83 0,0.83zm2.76 7.22c0,0.29 0.14,0.5 0.44,0.5 0.31,0 0.8,-0.61 1.12,-0.93 0.15,-0.15 0.42,-0.35 0.49,-0.55 0.1,-0.27 -0.06,-0.56 -0.4,-0.56 -0.36,0 -1.65,1.46 -1.65,1.54zm14.66 -13.73c0.29,0 0.44,-0.24 0.6,-0.4 0.19,-0.19 0.95,-0.89 1.02,-1.08 0.09,-0.26 -0.07,-0.56 -0.4,-0.56 -0.31,0 -0.81,0.61 -1.12,0.93 -0.15,0.15 -0.42,0.35 -0.49,0.55 -0.1,0.27 0.06,0.56 0.39,0.56zm-13.01 0c0.3,0 0.49,-0.23 0.42,-0.52 -0.06,-0.22 -0.81,-0.89 -1.01,-1.09 -0.16,-0.16 -0.34,-0.43 -0.62,-0.43 -0.3,0 -0.49,0.24 -0.41,0.52 0.05,0.23 0.8,0.89 1,1.09 0.16,0.17 0.34,0.43 0.62,0.43zm14.23 14.23c0.3,0 0.48,-0.24 0.41,-0.52 -0.06,-0.23 -0.8,-0.89 -1,-1.1 -0.17,-0.16 -0.34,-0.42 -0.63,-0.42 -0.29,0 -0.48,0.23 -0.41,0.52 0.06,0.22 0.8,0.89 1.01,1.09 0.16,0.16 0.33,0.43 0.62,0.43zm-8.16 -19.02l0 1.65c0,0.55 0.88,0.69 0.88,-0.11 0,-0.99 0.19,-1.98 -0.43,-1.99l-0.02 0c-0.26,0.01 -0.43,0.18 -0.43,0.45zm0.99 4.02c0,0.95 0.89,0.06 3.17,1.63 0.17,0.12 0.28,0.21 0.43,0.34 1.05,0.94 1.71,1.89 2.08,3.32 0.1,0.39 0.08,1.05 0.55,1.05 0.2,0 0.41,-0.23 0.43,-0.4 0.06,-0.34 -0.39,-1.61 -0.51,-1.94 -0.1,-0.23 -0.15,-0.36 -0.27,-0.56 -0.61,-1.01 -0.41,-0.64 -1.06,-1.48 -0.22,-0.29 -0.57,-0.59 -0.85,-0.8 -0.27,-0.21 -0.68,-0.51 -0.99,-0.66 -0.77,-0.4 -1.72,-0.83 -2.65,-0.83 -0.13,0 -0.33,0.2 -0.33,0.33zm-1.16 10.53c0,-0.91 1.22,-0.87 1.22,0 0,0.71 -1.22,0.74 -1.22,0zm3.7 -2.48c0.82,0 0.94,1.21 -0.06,1.21 -0.73,0 -0.67,-1.21 0.06,-1.21zm-6.12 1.21c-1.03,0 -0.82,-1.21 -0.11,-1.21 0.85,0 0.79,1.21 0.11,1.21zm0.33 -2.81c0.34,-0.03 0.64,-0.33 0.8,-0.57 0.26,-0.39 0.25,-0.58 0.25,-1.19 0.22,-0.06 0.43,-0.27 0.66,-0.33 0.16,0.11 0.17,0.16 0.4,0.25 0.69,0.28 1.05,0.1 1.58,-0.25 0.22,0.06 0.44,0.27 0.66,0.33 0,0.59 -0.01,0.78 0.23,1.15 0.15,0.25 0.46,0.58 0.82,0.61l0 0.83c-0.34,0.03 -0.65,0.32 -0.81,0.57 -0.26,0.41 -0.24,0.57 -0.24,1.19 -0.22,0.06 -0.44,0.27 -0.66,0.33 -0.16,-0.1 -0.19,-0.16 -0.4,-0.26 -0.69,-0.31 -1.13,-0.04 -1.58,0.26 -0.23,-0.06 -0.44,-0.27 -0.66,-0.33 0,-0.6 0.02,-0.77 -0.22,-1.16 -0.16,-0.25 -0.46,-0.57 -0.83,-0.6l0 -0.83zm5.73 -1.98c0.86,0 0.79,0.77 0.54,1.03 -0.33,0.33 -1.01,0.2 -1.07,-0.39 -0.03,-0.3 0.2,-0.64 0.53,-0.64zm-6.12 1.21c-0.82,0 -0.94,-1.21 0.06,-1.21 0.71,0 0.69,1.21 -0.06,1.21zm2.48 -2.37c0,-0.89 1.22,-0.89 1.22,0 0,0.73 -1.22,0.73 -1.22,0zm-0.88 0c0,0.15 0.03,0.15 0.06,0.27 -0.22,0.15 -0.43,0.27 -0.67,0.39 -1.54,-1.03 -2.48,0.28 -2.48,0.94 0,0.52 -0.02,0.67 0.33,1.1 0.14,0.17 0.44,0.42 0.72,0.44l0 0.83c-0.5,0.04 -1.05,0.67 -1.05,1.21 0,0.51 0.02,0.85 0.46,1.26 0.63,0.6 1.38,0.44 2.02,0.01 0.24,0.12 0.46,0.28 0.67,0.33 -0.02,0.23 -0.06,0.12 -0.06,0.33 0,2.01 2.98,2.01 2.98,0 0,-0.21 -0.04,-0.1 -0.06,-0.33 0.21,-0.05 0.43,-0.21 0.66,-0.33 1.52,1.01 2.49,-0.27 2.49,-0.94l0 -0.33c0,-0.54 -0.55,-1.17 -1.05,-1.21l0 -0.83c0.19,-0.02 0.26,-0.06 0.39,-0.15 1.54,-1.09 0.18,-3.67 -1.83,-2.33 -0.23,-0.12 -0.44,-0.24 -0.66,-0.39 0.34,-1.45 -1.44,-2.39 -2.47,-1.36 -0.25,0.25 -0.45,0.6 -0.45,1.09zm1.69 20.45l-0.32 0c-0.47,-0.04 -0.91,-0.27 -1.18,-0.62 -0.29,-0.38 -0.35,-0.71 -0.35,-1.36 -0.71,-0.17 -1.06,-0.81 -1.05,-1.54l0 -1.94c0.01,-0.86 -0.26,-0.37 -0.65,-1.22 -0.16,-0.37 -0.12,-0.65 -0.12,-1.15 0,-1.23 0.01,-2.54 -1.08,-3.38 -0.15,-0.11 -0.18,-0.18 -0.33,-0.29 -0.15,-0.12 -0.22,-0.17 -0.35,-0.31l-0.83 -1.04c-0.8,-1.17 -1.22,-2.5 -1.22,-4.24 0,-2.62 1.72,-5.08 3.82,-6.21 0.56,-0.3 1.71,-0.79 2.52,-0.79 0.37,0 0.54,0.49 0.24,0.74 -0.16,0.13 -0.05,0.06 -0.28,0.1 -1.72,0.36 -3.26,1.18 -4.25,2.64 -0.65,0.96 -1.17,2.06 -1.17,3.36 0,1.45 0.13,2.39 0.86,3.6 0.31,0.51 0.82,1.19 1.27,1.55 0.11,0.09 0.13,0.12 0.23,0.21 0.12,0.1 0.14,0.09 0.25,0.19l0.43 0.51c1.58,2.21 -0.27,4.74 1.76,4.74l3.2 0c1.42,0 1.01,-1.57 1.04,-2.76 0.03,-1.02 0.59,-1.87 1.23,-2.52 0.53,-0.52 0.88,-0.74 1.39,-1.48 0.58,-0.83 0.9,-1.66 1.08,-2.67 0.1,-0.64 0.67,-0.59 0.84,-0.22 0.07,0.17 0.02,0.33 -0.03,0.54 -0.07,0.33 -0.15,0.7 -0.25,1.02 -0.33,0.97 -1.22,2.42 -2.03,3.04 -2.2,1.7 -1.01,3.74 -1.54,4.85 -0.27,0.56 -0.42,0.5 -0.56,0.71 -0.15,0.22 -0.07,2.07 -0.07,2.47 0,0.75 -0.44,1.35 -1.05,1.49 0,1.33 -0.7,1.91 -1.45,1.98zm-2.08 -3.52l0 -0.28 3.75 0c0,0.42 -0.04,1.05 -0.66,1.05l-2.42 0c-0.4,0 -0.67,-0.36 -0.67,-0.77zm0 -2.1l3.75 0 0 0.94 -3.75 0 0 -0.94z"></path> </g> </g> </svg>