<svg xmlns="http://www.w3.org/2000/svg" xmlns:xlink="http://www.w3.org/1999/xlink" xml:space="preserve" width="91px" height="91px" style="shape-rendering:geometricPrecision; text-rendering:geometricPrecision; image-rendering:optimizeQuality; fill-rule:evenodd; clip-rule:evenodd" viewBox="0 0 4.95 4.95"> <defs> <style type="text/css"> .fil1 {fill:#083264} .fil0 {fill:white} </style> </defs> <g id="Layer_x0020_1"> <metadata id="CorelCorpID_0Corel-Layer"></metadata> <g id="_1718378831152"> <circle class="fil0" cx="2.48" cy="2.48" r="2.48"></circle> <g> <path class="fil1" d="M0.74 2.47c0,0.09 0.22,0.4 0.3,0.5l0.08 0.08c0.01,0.01 0.02,0.02 0.04,0.03 0.04,0.04 0.08,0.08 0.13,0.12 0.04,-0.06 0.45,-0.44 0.45,-0.46l-0.03 -0.11c-0.11,-0.56 0.4,-1.02 0.91,-0.92 0.15,0.03 0.09,0.06 0.2,-0.05 0.03,-0.03 0.22,-0.2 0.23,-0.23l-0.27 -0.06c-0.03,-0.01 -0.07,-0.01 -0.1,-0.02 -0.23,-0.03 -0.46,0 -0.69,0.05 -0.28,0.07 -0.5,0.2 -0.73,0.38 -0.13,0.1 -0.27,0.27 -0.36,0.4 -0.05,0.06 -0.16,0.24 -0.16,0.29z"></path> <path class="fil1" d="M3.22 2.21c0,0.05 0.11,0.31 -0.04,0.59 -0.07,0.14 -0.13,0.22 -0.25,0.31 -0.04,0.03 -0.07,0.05 -0.12,0.07 -0.15,0.08 -0.37,0.1 -0.54,0.05 -0.08,-0.03 -0.06,-0.02 -0.21,0.14 -0.03,0.03 -0.15,0.13 -0.15,0.16 0.01,0 0.21,0.06 0.36,0.07 0.14,0.02 0.28,0.02 0.42,0 0.06,-0.01 0.12,-0.02 0.18,-0.03 0.32,-0.06 0.57,-0.2 0.82,-0.39 0.02,-0.02 0.04,-0.04 0.06,-0.05 0.18,-0.18 0.15,-0.15 0.31,-0.36 0.03,-0.04 0.15,-0.24 0.15,-0.3 0,-0.06 -0.18,-0.33 -0.23,-0.4l-0.23 -0.24c-0.01,-0.02 -0.02,-0.02 -0.04,-0.04 -0.02,-0.02 -0.03,-0.02 -0.05,-0.03 -0.04,0.06 -0.44,0.43 -0.44,0.45z"></path> <path class="fil1" d="M1.11 3.65c0,0.11 0.11,0.22 0.26,0.18 0.06,-0.02 0.23,-0.21 0.29,-0.27l1.58 -1.58c0.05,-0.05 0.52,-0.52 0.56,-0.56 0.01,-0.02 0.02,-0.03 0.03,-0.05 0.05,-0.15 -0.09,-0.29 -0.24,-0.24 -0.07,0.02 -0.24,0.2 -0.29,0.26 -0.11,0.11 -0.22,0.21 -0.32,0.32 -0.13,0.12 -1.78,1.77 -1.82,1.82 -0.02,0.02 -0.02,0.03 -0.03,0.05 -0.01,0.01 -0.02,0.06 -0.02,0.07z"></path> <path class="fil1" d="M2.45 2.98c0.16,0 0.27,-0.04 0.38,-0.15 0.11,-0.11 0.15,-0.22 0.15,-0.38l-0.53 0.53z"></path> <path class="fil1" d="M1.97 2.5l0.54 -0.52c-0.19,-0.01 -0.3,0.05 -0.39,0.14 -0.09,0.09 -0.15,0.2 -0.15,0.38z"></path> </g> </g> </g> </svg>