<svg xmlns="http://www.w3.org/2000/svg" xmlns:xlink="http://www.w3.org/1999/xlink" xml:space="preserve" width="91px" height="91px" style="shape-rendering:geometricPrecision; text-rendering:geometricPrecision; image-rendering:optimizeQuality; fill-rule:evenodd; clip-rule:evenodd" viewBox="0 0 5.36 5.36"> <defs> <style type="text/css"> .fil1 {fill:#083264} .fil0 {fill:white} </style> </defs> <g id="Layer_x0020_1"> <metadata id="CorelCorpID_0Corel-Layer"></metadata> <g id="_1718034772624"> <circle class="fil0" cx="2.68" cy="2.68" r="2.68"></circle> <g> <path class="fil1" d="M1.14 2.66c0,0.19 0.01,0.27 0.06,0.45 0.02,0.08 0.09,0.23 0.14,0.31 0.05,0.09 0.08,0.13 0.15,0.21 0.03,0.05 0.05,0.07 0.12,0.07 0.06,0 0.18,-0.09 0.06,-0.22 -0.07,-0.09 -0.12,-0.17 -0.18,-0.28 -0.11,-0.22 -0.14,-0.53 -0.08,-0.79 0.02,-0.08 0.04,-0.14 0.07,-0.21 0.03,-0.09 0.14,-0.26 0.21,-0.34 0.46,-0.5 1.19,-0.54 1.69,-0.14 0.01,0.01 0.02,0.02 0.03,0.03 0.14,0.11 0.2,0.2 0.29,0.35 0.01,0.03 0.08,0.16 0.08,0.2 -0.03,0 -0.19,0.04 -0.19,0.07 0,0.04 0.06,0.06 0.09,0.08 0.04,0.03 0.27,0.19 0.31,0.19 0.06,0 0.07,-0.03 0.09,-0.08 0.02,-0.06 0.14,-0.32 0.14,-0.36 0,-0.06 -0.14,0.01 -0.21,0.02 -0.01,-0.04 -0.08,-0.19 -0.1,-0.23 -0.01,-0.02 -0.02,-0.03 -0.03,-0.05 -0.07,-0.13 -0.16,-0.23 -0.26,-0.33 -0.18,-0.18 -0.4,-0.28 -0.64,-0.35 -0.1,-0.04 -0.26,-0.05 -0.37,-0.05l-0.23 0.02c-0.05,0.01 -0.09,0.01 -0.13,0.03 -0.2,0.05 -0.46,0.17 -0.61,0.31l-0.08 0.08c-0.06,0.06 -0.14,0.17 -0.19,0.24l-0.06 0.1c-0.1,0.2 -0.17,0.4 -0.17,0.67z"></path> <path class="fil1" d="M1.89 2.51c0.05,0 0.14,0.01 0.24,0.01 0.01,-0.18 0.21,-0.14 0.21,-0.03 0,0.08 -0.12,0.16 -0.19,0.21 -0.12,0.09 -0.28,0.24 -0.28,0.4l0.71 0 0 -0.19 -0.36 0c0.07,-0.11 0.36,-0.19 0.36,-0.44 0,-0.08 -0.06,-0.15 -0.11,-0.19 -0.11,-0.07 -0.39,-0.07 -0.49,0.02 -0.03,0.03 -0.04,0.04 -0.06,0.08 -0.02,0.03 -0.03,0.09 -0.03,0.13z"></path> <path class="fil1" d="M3.09 2.5l0 0.26 -0.22 0c0.01,-0.02 0.2,-0.25 0.22,-0.26zm-0.44 0.26l0 0.18 0.44 0 0 0.16 0.21 0 0 -0.16 0.11 0 0 -0.18 -0.11 0 0 -0.53 -0.2 0c-0.02,0 -0.04,0.04 -0.06,0.06l-0.33 0.39c-0.01,0.02 -0.02,0.02 -0.03,0.04 -0.01,0.01 -0.03,0.03 -0.03,0.04z"></path> <path class="fil1" d="M2.76 4c0,0.04 0.01,0.07 0.04,0.1 0.01,0.01 0.05,0.03 0.08,0.03 0.02,0 0.12,-0.02 0.13,-0.03 0.11,-0.06 0.09,-0.23 -0.05,-0.23 -0.03,0 -0.11,0.02 -0.13,0.03 -0.03,0.02 -0.07,0.05 -0.07,0.1z"></path> <path class="fil1" d="M1.87 3.87c0,0.11 0.05,0.11 0.13,0.15 0.15,0.08 0.25,-0.13 0.12,-0.21 -0.04,-0.02 -0.09,-0.05 -0.14,-0.05 -0.06,0 -0.11,0.05 -0.11,0.11z"></path> <path class="fil1" d="M2.62 4.03c0,-0.04 -0.02,-0.08 -0.05,-0.1 -0.03,-0.02 -0.16,-0.05 -0.22,0 -0.06,0.05 -0.07,0.14 0,0.19 0.05,0.03 0.27,0.08 0.27,-0.09z"></path> <path class="fil1" d="M3.54 3.53c0,0.11 0.13,0.2 0.23,0.06 0.03,-0.04 0.06,-0.06 0.06,-0.12 0,-0.08 -0.13,-0.19 -0.23,-0.05 -0.03,0.04 -0.06,0.07 -0.06,0.11z"></path> <path class="fil1" d="M3.77 3.14c0,0.13 0.17,0.16 0.22,0.05 0.01,-0.01 0.04,-0.11 0.04,-0.12 0,-0.06 -0.05,-0.13 -0.1,-0.13 -0.05,0 -0.09,0 -0.13,0.07 -0.01,0.03 -0.03,0.09 -0.03,0.13z"></path> <path class="fil1" d="M3.19 3.84c0,0.07 0.06,0.12 0.12,0.12 0.05,0 0.19,-0.08 0.19,-0.14 0,-0.09 -0.03,-0.14 -0.13,-0.14 -0.04,0 -0.18,0.07 -0.18,0.16z"></path> </g> </g> </g> </svg>