<svg xmlns="http://www.w3.org/2000/svg" xmlns:xlink="http://www.w3.org/1999/xlink" xml:space="preserve" width="91px" height="91px" style="shape-rendering:geometricPrecision; text-rendering:geometricPrecision; image-rendering:optimizeQuality; fill-rule:evenodd; clip-rule:evenodd" viewBox="0 0 5.66 5.66"> <defs> <style type="text/css"> .fil1 {fill:#083264} .fil0 {fill:white} </style> </defs> <g id="Layer_x0020_1"> <metadata id="CorelCorpID_0Corel-Layer"></metadata> <g id="_1718159102464"> <circle class="fil0" cx="2.83" cy="2.83" r="2.83"></circle> <path class="fil1" d="M2.65 3.44l0.36 0c-0.05,0.18 -0.31,0.18 -0.36,0zm0.19 -1.2c0.01,0 -0.02,-0.07 0.13,-0.01 0.07,0.02 0.22,0.15 0.15,0.28 -0.03,-0.03 -0.01,0.01 -0.04,-0.04 -0.03,-0.06 0.01,-0.05 -0.06,-0.13 -0.06,-0.07 -0.1,-0.05 -0.18,-0.1zm-0.2 0.85l0.38 -0.01c0.01,-0.29 0.21,-0.32 0.2,-0.56 0,-0.52 -0.76,-0.51 -0.78,-0.02 -0.02,0.25 0.18,0.28 0.2,0.59zm-1.33 -0.81c-0.06,0.39 -0.03,0.22 0.17,0.39 0.08,0.07 0.05,0.16 0.05,0.29 -0.32,0.19 -0.27,0.18 -0.22,0.39l0.15 0.3c0.13,0.19 0.24,-0.1 0.44,0.09 0.2,0.2 0.02,0.15 0.06,0.42 0.13,0.11 0.39,0.22 0.59,0.22l0.15 -0.25 0.26 0 0.16 0.25c0.17,0.01 0.47,-0.12 0.58,-0.22 0.02,-0.12 -0.01,-0.19 -0.04,-0.31l0.18 -0.18c0.12,0.01 0.21,0.05 0.32,0.03 0.1,-0.12 0.22,-0.38 0.22,-0.56 -0.08,-0.09 -0.21,-0.12 -0.25,-0.23 0,-0.15 -0.03,-0.17 0.05,-0.24 0.03,-0.03 0.16,-0.1 0.2,-0.11 0.01,-0.22 -0.13,-0.51 -0.23,-0.61 -0.36,0.02 -0.26,0.13 -0.48,-0.12 0.01,-0.14 0.05,-0.2 0.03,-0.34 -0.15,-0.07 -0.33,-0.2 -0.55,-0.21 -0.14,0.11 -0.14,0.31 -0.42,0.24 -0.31,-0.21 0.04,-0.41 -0.78,-0.03 -0.01,0.13 0.05,0.23 0.04,0.31 -0.02,0.09 -0.1,0.13 -0.14,0.2l-0.34 -0.05c-0.1,0.1 -0.1,0.18 -0.17,0.29l-0.03 0.04zm0.71 1.14c-0.23,-0.35 -0.27,-0.75 -0.02,-1.13 0.08,-0.13 0.22,-0.26 0.38,-0.35 0.21,-0.11 0.38,-0.11 0.64,-0.09 0.29,0.08 0.54,0.22 0.7,0.52 0.16,0.31 0.13,0.73 -0.05,1.01 -0.14,0.21 -0.42,0.43 -0.8,0.45 -0.45,0.02 -0.64,-0.21 -0.85,-0.41zm1.02 -0.07c-0.06,0.08 -0.36,0.08 -0.42,0 0.07,-0.05 0.11,-0.04 0.22,-0.04 0.27,0 0.16,0.01 0.2,0.04zm-0.2 -0.08c-0.09,0 -0.14,0.02 -0.22,-0.03 0.04,-0.03 -0.06,-0.03 0.08,-0.05 0.05,-0.01 0.27,-0.01 0.34,0.03 -0.05,0.08 -0.08,0.05 -0.2,0.05zm-0.24 -0.14c-0.12,-0.41 -0.25,-0.43 -0.22,-0.66 0.07,-0.73 1.29,-0.37 0.8,0.36 -0.09,0.13 -0.08,0.16 -0.12,0.3 -0.13,0.03 -0.33,0.03 -0.46,0zm-0.02 -1.19c-0.52,0.14 -0.79,0.64 -0.65,1.16 0.12,0.41 0.59,0.79 1.15,0.63 0.44,-0.12 0.81,-0.58 0.65,-1.15 -0.03,-0.12 -0.08,-0.22 -0.14,-0.3 -0.06,-0.07 -0.17,-0.19 -0.25,-0.23 -0.2,-0.13 -0.48,-0.19 -0.76,-0.11z"></path> </g> </g> </svg>