<svg xmlns="http://www.w3.org/2000/svg" xmlns:xlink="http://www.w3.org/1999/xlink" id="Layer_1" x="0px" y="0px" viewBox="0 0 91 91" style="enable-background:new 0 0 91 91;" xml:space="preserve"> <style type="text/css"> .st0{fill-rule:evenodd;clip-rule:evenodd;fill:#FFFFFF;} .st1{fill-rule:evenodd;clip-rule:evenodd;fill:#0B2852;} </style> <g> <ellipse transform="matrix(0.9239 -0.3827 0.3827 0.9239 -13.9486 20.8756)" class="st0" cx="45.5" cy="45.5" rx="45.5" ry="45.5"></ellipse> <path class="st1" d="M16,24.35v17.64c0,5.8,0.62,10.05,2.51,14.7c2.32,5.72,6.44,10.85,11.09,14.66c3.46,2.84,6.31,4.75,10.18,7 c0.89,0.52,5.04,2.92,5.72,2.92c1.18,0,9.44-5.14,10.98-6.21c6.9-4.8,12.81-10.49,16.01-18.37c2.91-7.16,2.48-13.09,2.51-20.3 l0-12.03c0-2.55-0.86-2.08-2.9-1.76c-9.56,1.5-18.14-2.46-24.97-8.68c-0.44-0.4-0.89-1.05-1.62-1.05c-0.73,0-1.13,0.6-1.57,1 c-3.33,3-7,5.57-11.25,7.18c-4.34,1.64-9.03,2.33-13.71,1.53C16.92,22.24,16,21.8,16,24.35L16,24.35z M26.75,47.71 c-0.65,0.43-0.71,1.93-1.92,1.93c-0.58,0-1.03-0.36-1.11-0.89c-0.11-0.69,0.21-1.05,0.46-1.47c0.47-0.8,0.94-1.58,1.46-2.46 c0.42-0.71,0.89-1.78,1.89-1.91c1.32-0.17,1.77,0.78,2.25,1.6c0.42,0.72,0.99,1.64,1.44,2.39c0.51,0.84,1.32,1.9,0.2,2.63 c-0.76,0.49-1.43-0.05-1.82-0.73c-0.04-0.07-0.13-0.23-0.16-0.28l-0.26-0.25c-0.02,2.22,0.88,4.75,1.73,6.44 c0.94,1.85,2.15,3.32,3.46,4.54c6.38,5.96,16.63,5.7,22.88-0.63c2.95-2.98,3.38-5.55,3.99-6.07c0.4-0.35,1.04-0.39,1.5-0.02 c0.92,0.74,0.01,2.2-0.33,2.88c-2.73,5.46-7.73,9.13-13.86,10.26c-2.23,0.41-5.36,0.28-7.42-0.26 c-6.24-1.64-10.62-5.51-13.02-11.02C27.16,52.23,26.87,50.42,26.75,47.71L26.75,47.71z M61.55,44.23c-0.02-1.83-1.28-4.52-2-5.78 c-5.21-9.08-18.15-10.6-25.68-3.1c-2.94,2.92-3.09,5.25-4.15,5.46c-0.61,0.12-1.08-0.17-1.29-0.54c-0.49-0.87,0.48-2.15,0.82-2.78 c1.7-3.09,4.91-5.88,8.01-7.39c3.61-1.76,8.4-2.51,12.89-1.37c7.7,1.95,13.55,8.8,13.94,16.7c0.24-0.05,0.57-0.73,0.78-1.08 c0.27-0.45,0.45-0.86,0.92-1.05c1.11-0.44,2.03,0.69,1.37,1.82c-0.52,0.89-2.42,4.32-3.08,4.69c-1.19,0.65-2.04,0-2.59-0.9 c-0.52-0.87-0.98-1.63-1.43-2.4c-0.23-0.39-0.51-0.85-0.73-1.23c-0.89-1.47,0.41-2.23,1.24-1.96 C61.16,43.49,61.14,43.92,61.55,44.23L61.55,44.23z M47.46,50.61c-0.72,0-2.26,0-1.92-1.46c0.11-0.46,3.98-5.29,4.47-5.94 c0.99-1.31,1.94-2.53,3.05-3.9c0.48-0.59,1.01-1.61,1.8-1.67c0.51-0.04,0.91,0.27,1.09,0.59c0.39,0.69,0.05,8.45,0.21,10.03 c1.31,0.05,2.91-0.26,3.36,0.64c0.24,0.47,0.15,0.97-0.18,1.33c-0.57,0.62-2.21,0.37-3.19,0.4l-0.01,1.79c0,1,0.24,3.33-1.5,2.88 c-1.37-0.35-0.74-2.93-0.92-4.67L47.46,50.61L47.46,50.61z M36.47,52.94c2.19,0.06,4.43,0,6.62,0.01c1.1,0,2.14-0.12,2.37,0.92 c0.25,1.15-0.72,1.45-1.65,1.45c-2.2,0-4.4,0-6.59,0c-1.61,0-4.51,0.6-3.22-2.77c0.58-1.53,1.76-2.7,2.91-3.67 c2.39-2.02,6.77-3.92,6.12-6.75c-0.42-1.84-2.7-2.45-4.31-2.03c-0.98,0.26-1.49,0.68-1.98,1.32c-0.85,1.12-0.5,1.86-0.79,2.51 c-0.37,0.82-1.62,0.95-2.09,0.09c-0.33-0.6,0.04-2.13,0.26-2.71c2.1-5.42,11-4.67,11.3,1.04c0.11,2.1-0.82,3.46-1.96,4.55 c-1.05,1.01-2.53,1.89-3.73,2.77C38.82,50.33,36.73,51.93,36.47,52.94L36.47,52.94z M49.13,48.24c0.13-0.25,4.34-5.74,4.63-5.88 l-0.03,5.9L49.13,48.24L49.13,48.24z M67.97,36.46c1.05-0.43,2.12,0.94,1.31,1.87c-0.28,0.32-2,1.05-2.66,1.26 c-1.19,0.37-2.08-0.92-1.32-1.85C65.59,37.38,67.38,36.71,67.97,36.46L67.97,36.46z M24.5,54.53c1.11-0.32,1.96,1.01,1.16,1.91 c-0.31,0.34-2.16,1.05-2.71,1.22c-1.17,0.36-2-1.06-1.19-1.91C22.1,55.39,23.88,54.71,24.5,54.53L24.5,54.53z M35.74,23.05 c1.21-0.3,1.54,1.1,1.89,1.95c0.23,0.57,1.04,2.09-0.39,2.5c-1.22,0.35-1.6-1.07-1.92-1.89C34.98,24.72,34.34,23.4,35.74,23.05 L35.74,23.05z M36.61,66.67c0.53-0.2,1.1,0.11,1.33,0.52c0.35,0.61,0.08,1.01-0.12,1.5c-0.31,0.75-0.68,2.24-1.51,2.42 c-0.73,0.16-1.92-0.3-1.21-2.01C35.62,67.83,35.73,67,36.61,66.67L36.61,66.67z M22.3,36.5c0.64-0.18,0.94,0.09,1.54,0.33 c0.43,0.17,0.99,0.37,1.4,0.58c1.05,0.54,0.92,1.92-0.11,2.22c-0.61,0.18-2.39-0.67-2.89-0.91C21.18,38.2,21.1,36.83,22.3,36.5 L22.3,36.5z M62.63,28.46c1.22-0.49,2.04,0.99,1.24,1.88c-0.31,0.35-1.73,1.8-2.07,1.95c-1.14,0.49-2.17-0.91-1.28-1.91 c0.32-0.36,0.73-0.76,1.01-1.04C61.83,29.05,62.15,28.66,62.63,28.46L62.63,28.46z M54.65,23.07c0.58-0.19,2.03,0.11,1.21,2.02 c-0.36,0.84-0.67,2.21-1.5,2.41c-0.8,0.19-1.9-0.45-1.22-2.02C53.52,24.64,53.78,23.36,54.65,23.07L54.65,23.07z M53.79,66.65 c1.2-0.36,1.55,1.08,1.88,1.87c0.33,0.81,0.96,2.26-0.4,2.57c-1.25,0.28-1.54-1.09-1.91-1.96C52.96,68.18,52.46,67.05,53.79,66.65 L53.79,66.65z M45.12,21.2c0.52-0.17,1-0.02,1.29,0.36c0.32,0.42,0.27,0.87,0.27,1.45c0,1.03,0.23,2.39-0.79,2.73 c-1.35,0.46-1.58-0.81-1.58-1.84C44.3,22.72,44.1,21.55,45.12,21.2L45.12,21.2z M29.28,61.83c1.02-0.4,2.12,0.87,1.15,1.97 c-0.29,0.33-1.72,1.79-2.09,1.91c-1.09,0.36-2.09-0.95-1.18-1.97C27.57,63.3,28.69,62.06,29.28,61.83L29.28,61.83z M65.85,54.56 c0.61-0.24,2.25,0.57,2.84,0.84c1.19,0.55,1.08,1.94,0.11,2.24c-0.7,0.22-2.42-0.61-2.98-0.88C64.76,56.26,64.69,55.02,65.85,54.56 L65.85,54.56z M60.93,61.86c0.64-0.28,1.03,0.01,1.42,0.4c0.48,0.48,1.76,1.54,1.82,2.18c0.06,0.6-0.28,1.04-0.71,1.22 c-1.02,0.42-1.92-0.88-2.41-1.38c-0.27-0.27-0.8-0.67-0.86-1.19C60.12,62.42,60.42,62.09,60.93,61.86L60.93,61.86z M44.31,70.58 c0-1.04-0.09-2.28,1.19-2.27c1.43,0.01,1.18,1.75,1.18,3.16c0,2.1-2.37,2.09-2.37,0V70.58L44.31,70.58z M30.32,32.22 c-1.18,0.53-1.77-0.44-2.28-0.93c-0.12-0.12-1.93-1.64-1.08-2.13l0,0.63h1.25l0,1.34h1.34v1.25C30.03,32.37,29.97,32.4,30.32,32.22 L30.32,32.22z M27.43,28.58c0.38-0.39,0.97-0.2,1.35,0.11c0.35,0.29,0.62,0.6,0.9,0.88c0.51,0.52,1.5,1.14,0.98,2.32 c0.18-0.36,0.14-0.3,0.14-0.77h-1.25v-1.34h-1.34v-1.25C27.76,28.54,27.86,28.65,27.43,28.58L27.43,28.58z M29.55,31.12h-1.34 l0-1.34h1.34V31.12L29.55,31.12z M27.43,28.58c0.43,0.07,0.33-0.05,0.78-0.04v1.25h-1.25l0-0.63c-0.04-0.2-0.03-0.23,0.13-0.4 C27.31,28.52,27.23,28.62,27.43,28.58L27.43,28.58z M30.32,32.22c-0.36,0.18-0.3,0.15-0.77,0.15v-1.25h1.25 c0,0.48,0.04,0.42-0.14,0.77L30.32,32.22z"></path> </g> </svg>