<svg xmlns="http://www.w3.org/2000/svg" xmlns:xlink="http://www.w3.org/1999/xlink" xml:space="preserve" width="91px" height="91px" style="shape-rendering:geometricPrecision; text-rendering:geometricPrecision; image-rendering:optimizeQuality; fill-rule:evenodd; clip-rule:evenodd" viewBox="0 0 5.76 5.76"> <defs> <style type="text/css"> .fil1 {fill:#083264} .fil0 {fill:white} </style> </defs> <g id="Layer_x0020_1"> <metadata id="CorelCorpID_0Corel-Layer"></metadata> <g id="_1718181822672"> <circle class="fil0" cx="2.88" cy="2.88" r="2.88"></circle> <path class="fil1" d="M3.59 3.85l0 -0.92 0.46 0.46 -0.46 0.46zm0.18 -2.26c0,0.08 0.04,0.11 0.11,0.11 0.03,0 0.18,-0.11 0.22,-0.13 0.08,-0.06 0.06,-0.18 -0.06,-0.18 -0.03,0 -0.18,0.11 -0.22,0.13 -0.02,0.02 -0.05,0.04 -0.05,0.07zm-2.16 -0.12c0,0.08 0.03,0.09 0.12,0.14 0.07,0.05 0.11,0.09 0.17,0.09 0.07,0 0.13,-0.11 0.04,-0.18 -0.05,-0.02 -0.19,-0.13 -0.22,-0.13 -0.06,0 -0.11,0.03 -0.11,0.08zm0 0.94c0,0.07 0.03,0.1 0.11,0.1 0.03,0 0.12,-0.07 0.15,-0.08 0.08,-0.06 0.11,-0.06 0.11,-0.14 0,-0.05 -0.04,-0.08 -0.1,-0.08 -0.03,0 -0.12,0.07 -0.15,0.08 -0.05,0.03 -0.12,0.07 -0.12,0.12zm2.16 -0.12c0,0.04 0.01,0.06 0.05,0.09 0.03,0.02 0.05,0.03 0.07,0.05 0.07,0.04 0.11,0.08 0.18,0.08 0.06,0 0.12,-0.11 0.03,-0.17 -0.04,-0.03 -0.19,-0.13 -0.22,-0.13 -0.06,0 -0.11,0.03 -0.11,0.08zm0.09 -0.35c0,0.06 0.03,0.1 0.08,0.1l0.27 0c0.1,0 0.1,-0.18 0,-0.18l-0.27 0c-0.04,0 -0.08,0.04 -0.08,0.08zm-2.39 0c0,0.06 0.03,0.1 0.08,0.1l0.27 0c0.11,0 0.11,-0.18 0,-0.18l-0.27 0c-0.04,0 -0.08,0.04 -0.08,0.08zm0.88 0.01c0,0.15 0.02,0.22 0.1,0.34 0.08,0.12 0.25,0.22 0.39,0.22 0.15,0 0.22,-0.01 0.34,-0.09 0.03,-0.02 0.05,-0.03 0.07,-0.06 0.04,-0.04 0.08,-0.09 0.1,-0.14 0.11,-0.22 0.05,-0.51 -0.16,-0.66 -0.27,-0.19 -0.64,-0.09 -0.78,0.2 -0.03,0.04 -0.06,0.13 -0.06,0.19zm2.11 1.42l0 0.04c0,0.06 -0.02,0.11 -0.05,0.15 -0.04,0.05 -0.43,0.43 -0.49,0.5 -0.09,0.09 -0.18,0.21 -0.33,0.13 0,0.04 0.01,0.09 -0.01,0.12 -0.01,0.03 -0.04,0.06 -0.07,0.06l-1.26 0c-0.03,0 -0.07,-0.03 -0.08,-0.06 -0.01,-0.03 0,-0.08 0,-0.12 -0.09,0.04 -0.17,0.03 -0.23,-0.04l-0.3 -0.29c-0.07,-0.07 -0.13,-0.13 -0.2,-0.2 -0.1,-0.1 -0.14,-0.14 -0.14,-0.29 0,-0.06 0.04,-0.13 0.07,-0.17 0.09,-0.08 0.56,-0.56 0.61,-0.61 0.08,-0.06 0.22,-0.14 0.36,-0.14 0.01,0 0.01,0.01 0.02,0.02 0.06,0.08 0.24,0.18 0.34,0.21 0.27,0.06 0.47,-0.02 0.67,-0.18 0.03,-0.03 0.03,-0.05 0.05,-0.05 0.23,0 0.36,0.15 0.48,0.27l0.49 0.48c0.04,0.05 0.07,0.11 0.07,0.17zm-2.75 0.02l0.46 -0.46 0 0.92 -0.46 -0.46z"></path> </g> </g> </svg>