<svg xmlns="http://www.w3.org/2000/svg" xmlns:xlink="http://www.w3.org/1999/xlink" xml:space="preserve" width="91px" height="91px" style="shape-rendering:geometricPrecision; text-rendering:geometricPrecision; image-rendering:optimizeQuality; fill-rule:evenodd; clip-rule:evenodd" viewBox="0 0 5.52 5.52"> <defs> <style type="text/css"> .fil1 {fill:#083264} .fil0 {fill:white} </style> </defs> <g id="Layer_x0020_1"> <metadata id="CorelCorpID_0Corel-Layer"></metadata> <g id="_1754492218176"> <circle class="fil0" cx="2.76" cy="2.76" r="2.76"></circle> <path class="fil1" d="M2.3 3.3c0.01,-0.01 0.02,-0.01 0.03,-0.02l0.3 -0.31c0.02,-0.01 0.04,-0.04 0.05,-0.05 0.01,0 0.01,-0.01 0.02,-0.01l0.42 -0.43c0.01,-0.01 0.01,0 0.01,-0.01 0.01,-0.01 0.07,-0.07 0.08,-0.08 0.03,-0.03 0.06,-0.05 0.09,-0.08 0.05,-0.06 0.1,-0.11 0.16,-0.16l0.33 -0.33c0.01,0.01 0.04,0.05 0.05,0.06 0.02,0.03 0.04,0.05 0.06,0.08 0.1,0.14 0.19,0.34 0.22,0.51 0.01,0.01 0.02,0.1 0.02,0.12 0.04,0.27 -0.02,0.56 -0.14,0.8 -0.27,0.52 -0.82,0.82 -1.43,0.75 -0.22,-0.03 -0.42,-0.12 -0.6,-0.23 -0.02,-0.02 -0.13,-0.1 -0.15,-0.12 0.01,-0.01 0.1,-0.11 0.12,-0.13 0.04,-0.04 0.08,-0.08 0.12,-0.12l0.21 -0.21c0.01,-0.01 0.03,-0.02 0.03,-0.03zm1.14 -1.1c0.04,0.04 0.12,0.04 0.17,-0.01 0.05,-0.05 0.05,-0.12 0.01,-0.17 -0.01,0.01 -0.18,0.18 -0.18,0.18zm-1.12 1.28c0.02,0.03 0.03,0.06 0.07,0.07 0.07,0.01 0.09,-0.04 0.1,-0.05 0.01,-0.04 0,-0.03 0,-0.08 0,-0.09 0.01,-0.19 0,-0.27 0,0 -0.1,0.1 -0.12,0.12 -0.05,0.05 -0.05,0.04 -0.05,0.08 0,0.04 0,0.09 0,0.13zm-0.34 -1.25c0.08,0.01 0.15,-0.05 0.15,-0.13 0,-0.04 -0.02,-0.08 -0.04,-0.1 -0.02,-0.02 -0.06,-0.04 -0.11,-0.03 -0.06,0.01 -0.11,0.06 -0.11,0.13 0,0.07 0.05,0.12 0.11,0.13zm0.5 -0.26c-0.06,0.01 -0.12,0.07 -0.1,0.15 0.01,0.07 0.07,0.12 0.15,0.11 0.06,-0.01 0.12,-0.08 0.1,-0.15 -0.01,-0.07 -0.07,-0.12 -0.15,-0.11zm0.51 0c-0.07,0.01 -0.12,0.07 -0.11,0.15 0.01,0.07 0.08,0.12 0.15,0.11 0.07,-0.01 0.12,-0.08 0.11,-0.15 -0.01,-0.07 -0.07,-0.12 -0.15,-0.11zm-0.47 1.16c-0.01,0.05 0,0.11 0,0.16 0,0.06 0,0.11 0,0.17 0,0.05 0.03,0.08 0.07,0.09 0.06,0 0.09,-0.03 0.1,-0.07l0 -0.53c-0.01,0.01 -0.04,0.04 -0.05,0.05 -0.01,0.01 -0.12,0.12 -0.12,0.13zm0.17 -0.67c0,0.03 0,0.2 0,0.24 0.01,0 0.09,-0.09 0.11,-0.11 0.01,-0.01 0.01,0 0.01,-0.03 0,-0.02 0,-0.07 0,-0.08 0.02,-0.01 0.02,0.01 0.02,0.03 0,0.02 0,0.04 0,0.05 0.01,0 0.03,-0.02 0.04,-0.03l0.18 -0.18c0,-0.01 0.06,-0.07 0.07,-0.07l0.01 -0.02c-0.13,-0.02 -0.3,-0.01 -0.39,0.09 -0.03,0.04 -0.04,0.06 -0.05,0.11zm-0.37 0.61c0.01,-0.01 0.03,-0.03 0.04,-0.04l0.11 -0.11c0.05,-0.05 0.1,-0.09 0.14,-0.14 0.02,-0.02 0.03,-0.03 0.04,-0.04 0.01,-0.01 0.01,-0.05 0.01,-0.07 0,-0.05 0,-0.09 0,-0.14 0,-0.05 -0.01,-0.09 0.01,-0.13 0.02,-0.06 0.05,-0.08 0.06,-0.09 -0.04,-0.04 -0.15,-0.06 -0.21,-0.06 -0.09,0 -0.17,0.01 -0.24,0.06 -0.05,0.03 -0.1,0.1 -0.1,0.18l0 0.33c0,0.04 0.04,0.08 0.08,0.06 0.05,-0.01 0.04,-0.05 0.04,-0.1 0,-0.04 0,-0.29 0.01,-0.3 0.01,-0.01 0.01,0 0.01,0.02l0 0.11c0,0.15 0,0.31 0,0.46zm0.83 -0.58l-0.11 0.11c-0.06,0.06 -0.14,0.14 -0.2,0.2 -0.02,0.02 -0.01,0.01 -0.01,0.04l0 0.57c0,0.03 -0.01,0.07 0.01,0.1 0.04,0.05 0.12,0.05 0.15,-0.01 0.01,-0.02 0.01,-0.06 0.01,-0.1l0 -0.34c0,-0.03 0,-0.07 0,-0.11 0,-0.02 0.02,-0.02 0.02,0 0,0.02 0,0.04 0,0.06 0,0.08 0,0.15 0,0.23 0,0.07 0,0.15 0,0.22 0,0.07 0.07,0.11 0.13,0.08 0.06,-0.04 0.04,-0.11 0.04,-0.19 0,-0.08 0,-0.15 0,-0.23 0,-0.07 0.01,-0.15 0,-0.23 -0.01,0 -0.01,0 -0.01,-0.01 -0.01,0 -0.01,-0.01 -0.01,-0.01 0,-0.01 -0.01,-0.02 -0.01,-0.02 0,-0.03 0,-0.32 0,-0.37l-0.01 0.01zm-1.3 1.04l0.01 0c0.01,0 0.06,-0.06 0.07,-0.07 0.07,-0.06 0.06,-0.05 0.06,-0.09l0 -0.38c0,-0.01 -0.01,-0.07 0.02,-0.05 0.01,0 0,0.05 0,0.07 0,0.12 0,0.25 0,0.37 0.01,-0.01 0.15,-0.14 0.17,-0.16 0.01,-0.02 0,-0.02 0,-0.04 0,-0.08 0.01,-0.22 0,-0.29 -0.04,-0.01 -0.03,-0.08 -0.03,-0.14 0,-0.05 0,-0.11 0,-0.17 0,-0.05 0,-0.12 0.01,-0.16 0.02,-0.07 0.05,-0.1 0.06,-0.11 -0.02,-0.02 -0.06,-0.04 -0.09,-0.04 -0.04,-0.01 -0.06,-0.02 -0.11,-0.02 -0.07,0 -0.1,0 -0.17,0.02 -0.09,0.03 -0.16,0.11 -0.17,0.21 0,0.02 0,0.15 0,0.19 0,0.03 -0.01,0.16 0,0.18 0.02,0.05 0.09,0.05 0.12,0 0.01,-0.04 -0.01,-0.33 0,-0.37 0.02,-0.01 0.02,0.01 0.02,0.05l0 0.89c0,0.06 0,0.08 0.03,0.11zm1.37 -0.65c0.03,0.02 0.07,0.01 0.09,-0.02 0.01,-0.02 0,-0.09 0,-0.12 0,-0.04 0,-0.25 0.01,-0.26 0.02,-0.01 0.01,0.01 0.01,0.03l0 0.88c0,0.04 0,0.08 0.01,0.11 0.01,0.02 0.04,0.04 0.07,0.05 0.04,0 0.07,-0.02 0.08,-0.04 0.02,-0.03 0.01,-0.06 0.01,-0.1 0,-0.04 0,-0.45 0.01,-0.47 0,-0.01 0.01,-0.01 0.02,0 0,0.01 0,0.41 0,0.46 0,0.03 -0.01,0.08 0.01,0.1 0.01,0.03 0.04,0.05 0.07,0.05 0.04,0 0.06,-0.02 0.08,-0.04 0.01,-0.03 0.01,-0.07 0.01,-0.11 0,-0.04 0,-0.91 0,-0.92l0.01 0c0.01,0.01 0.01,0.25 0.01,0.29 0,0.05 -0.01,0.09 0.03,0.11 0.03,0.02 0.06,0.01 0.08,-0.02 0,0 0.01,-0.02 0.01,-0.02 0,-0.04 0,-0.19 0,-0.24 0,-0.08 0.01,-0.15 -0.03,-0.21 -0.05,-0.1 -0.17,-0.14 -0.33,-0.14 -0.03,0 -0.06,0.01 -0.1,0.02 -0.02,0 -0.04,0.04 -0.06,0.05 -0.03,0.03 -0.1,0.09 -0.12,0.12 -0.02,0.02 -0.01,0.19 -0.01,0.23 0,0.03 0,0.07 0,0.11 0,0.05 0,0.07 0.03,0.1zm0.25 -0.92c-0.03,0.03 -0.05,0.05 -0.08,0.08l-0.21 0.21c-0.01,0.01 -0.02,0.02 -0.02,0.02 -0.01,0.01 -0.01,0.01 -0.01,0.01 -0.01,0.01 -0.01,0.01 -0.01,0.01 0,0 0,0 0,0 -0.01,0.01 -0.21,0.21 -0.22,0.22 -0.04,0.04 -0.07,0.07 -0.11,0.11 -0.02,0.02 -0.1,0.1 -0.11,0.11 0,0 0,0 0,0l-0.05 0.05c-0.02,0.02 -0.03,0.03 -0.05,0.05 -0.04,0.04 -0.07,0.07 -0.11,0.11 -0.07,0.07 -0.13,0.13 -0.2,0.2 -0.07,0.07 -0.14,0.14 -0.21,0.21 -0.06,0.07 -0.15,0.15 -0.21,0.21l-0.14 0.14c-0.02,-0.02 -0.06,-0.07 -0.08,-0.09 -0.18,-0.24 -0.3,-0.58 -0.28,-0.9 0.01,-0.29 0.09,-0.53 0.25,-0.75 0.05,-0.07 0.1,-0.13 0.15,-0.19 0.26,-0.25 0.58,-0.39 0.95,-0.4 0.27,-0.02 0.57,0.07 0.79,0.21 0.04,0.03 0.16,0.12 0.19,0.15l-0.23 0.23zm0.8 0.94c0,-0.13 0.01,-0.24 -0.01,-0.37 -0.04,-0.21 -0.11,-0.41 -0.22,-0.58 -0.02,-0.04 -0.05,-0.08 -0.08,-0.11 -0.01,-0.01 -0.08,-0.1 -0.09,-0.11 -0.01,-0.02 -0.08,-0.08 -0.1,-0.1 -0.11,-0.1 -0.24,-0.18 -0.38,-0.25 -0.19,-0.09 -0.44,-0.15 -0.69,-0.14 -0.33,0.02 -0.63,0.14 -0.83,0.29 -0.11,0.08 -0.2,0.17 -0.29,0.27 -0.38,0.47 -0.45,1.15 -0.15,1.69 0.2,0.36 0.54,0.63 0.94,0.73 0.32,0.09 0.66,0.06 0.95,-0.05 0.15,-0.06 0.28,-0.14 0.39,-0.24 0.04,-0.03 0.08,-0.06 0.11,-0.09 0.03,-0.03 0.05,-0.05 0.07,-0.07 0.02,-0.03 0.04,-0.05 0.06,-0.08 0.13,-0.17 0.22,-0.34 0.28,-0.56 0.02,-0.08 0.03,-0.15 0.04,-0.23z"></path> </g> </g> </svg>