<svg xmlns="http://www.w3.org/2000/svg" xmlns:xlink="http://www.w3.org/1999/xlink" xml:space="preserve" width="91px" height="91px" style="shape-rendering:geometricPrecision; text-rendering:geometricPrecision; image-rendering:optimizeQuality; fill-rule:evenodd; clip-rule:evenodd" viewBox="0 0 5.38 5.38"> <defs> <style type="text/css"> .fil1 {fill:#083264} .fil0 {fill:white} </style> </defs> <g id="Layer_x0020_1"> <metadata id="CorelCorpID_0Corel-Layer"></metadata> <g id="_1718282662640"> <circle class="fil0" cx="2.69" cy="2.69" r="2.69"></circle> <path class="fil1" d="M3.8 3.9c0,-0.02 0.02,-0.06 0.03,-0.07 0.05,-0.06 0.16,-0.02 0.16,0.06 0.01,0.09 -0.09,0.14 -0.16,0.08 -0.02,-0.02 -0.03,-0.05 -0.03,-0.07zm-1.17 -1.1c-0.01,-0.02 -0.14,-0.15 -0.16,-0.16 -0.01,0.04 -0.09,0.09 -0.12,0.13 0.01,0.02 0.25,0.23 0.28,0.28l0.4 -0.4 -0.12 -0.12 -0.28 0.27zm-0.45 -0.05l0 -0.48c0,-0.01 0.05,-0.03 0.06,-0.04 0.08,-0.04 0.43,-0.23 0.45,-0.23 0.02,0 0.37,0.19 0.45,0.23 0.02,0.01 0.06,0.03 0.06,0.04l0 0.48c0,0.11 -0.01,0.2 -0.04,0.28 -0.02,0.05 -0.02,0.08 -0.05,0.12 -0.01,0.02 -0.01,0.03 -0.02,0.05 -0.01,0.02 -0.03,0.03 -0.04,0.05 -0.01,0.02 -0.02,0.03 -0.03,0.05 -0.06,0.07 -0.14,0.14 -0.22,0.18 -0.12,0.07 -0.1,0.07 -0.22,0.01 -0.14,-0.08 -0.28,-0.24 -0.34,-0.39 -0.04,-0.1 -0.06,-0.22 -0.06,-0.35zm-0.17 -0.6c0,0.17 -0.01,0.69 0.01,0.83 0.04,0.16 0.09,0.27 0.17,0.39 0.02,0.03 0.05,0.05 0.07,0.08 0.04,0.05 0.17,0.15 0.23,0.19 0.04,0.01 0.17,0.08 0.2,0.08 0.01,0 0.08,-0.03 0.1,-0.03 0.02,-0.01 0.03,-0.02 0.05,-0.03 0.02,0 0.02,-0.01 0.04,-0.02l0.13 -0.08c0.18,-0.15 0.3,-0.35 0.34,-0.57 0.03,-0.14 0.02,-0.67 0.02,-0.84 -0.02,0 -0.02,-0.01 -0.04,-0.02 -0.02,-0.01 -0.03,-0.01 -0.04,-0.02l-0.26 -0.13c-0.04,-0.02 -0.33,-0.18 -0.34,-0.18l-0.63 0.33c-0.02,0.01 -0.03,0.02 -0.05,0.02zm2.16 -0.68l0 0.03c-0.01,0.08 -0.04,0.16 -0.12,0.21 -0.05,0.03 -0.07,0.02 -0.07,0.04l0 0.35 -0.26 0 0 0.5 0.36 0 0 0.18 -0.36 0c0,0.33 -0.08,0.43 -0.09,0.5l0.35 0c0,0.53 -0.03,0.27 0.13,0.44 0.04,0.06 0.06,0.11 0.06,0.19 0,0.14 -0.12,0.26 -0.26,0.26 -0.29,0 -0.38,-0.35 -0.16,-0.5 0.04,-0.03 0.06,-0.02 0.06,-0.04l0 -0.17c-0.32,0 -0.26,-0.02 -0.3,0.05 -0.01,0.02 -0.03,0.04 -0.04,0.06 -0.05,0.07 -0.08,0.09 -0.13,0.15l-0.04 0.04c-0.12,0.12 -0.31,0.23 -0.47,0.28 -0.16,0.05 -0.12,0.05 -0.29,0 -0.23,-0.08 -0.39,-0.2 -0.55,-0.37 -0.03,-0.04 -0.09,-0.12 -0.12,-0.16 -0.01,-0.01 -0.01,-0.02 -0.02,-0.03 0,-0.01 0,-0.02 -0.02,-0.02l-0.26 0c0,0.24 -0.02,0.16 0.06,0.21 0.09,0.06 0.12,0.13 0.12,0.24 0,0.14 -0.12,0.26 -0.25,0.26 -0.19,0 -0.28,-0.13 -0.29,-0.26l0 -0.03c0.01,-0.06 0.03,-0.12 0.07,-0.16 0.08,-0.09 0.12,-0.07 0.12,-0.09l0 -0.35 0.35 0c-0.01,-0.07 -0.09,-0.17 -0.09,-0.5l-0.36 0 0 -0.18 0.36 0 0 -0.5 -0.26 0 0 -0.35c0,-0.02 -0.02,-0.01 -0.07,-0.04 -0.08,-0.06 -0.12,-0.13 -0.12,-0.24 0,-0.08 0.04,-0.14 0.08,-0.18 0.06,-0.06 0.11,-0.08 0.21,-0.08 0.13,0 0.25,0.13 0.25,0.26l0 0.04c0,0.09 -0.07,0.19 -0.15,0.22 -0.02,0.01 -0.03,0.01 -0.03,0.02l0 0.17 0.13 0c0.02,0 0.28,-0.14 0.31,-0.16l0.25 -0.13c0.02,-0.01 0.04,-0.02 0.06,-0.03l0.37 -0.19c0.02,0 0.21,0.11 0.25,0.13 0.02,0.01 0.04,0.02 0.07,0.03l0.18 0.1c0.02,0.01 0.04,0.02 0.06,0.03 0.03,0.01 0.04,0.02 0.06,0.03l0.31 0.16c0.07,0.05 0.07,0.03 0.19,0.03 0,-0.18 0.02,-0.17 -0.03,-0.19 -0.15,-0.06 -0.22,-0.29 -0.08,-0.44 0.07,-0.06 0.11,-0.08 0.21,-0.08 0.15,0 0.25,0.13 0.26,0.26zm-2.78 2.43c-0.01,-0.03 0.02,-0.1 0.09,-0.1 0.12,-0.01 0.14,0.18 0.01,0.19 -0.03,0.01 -0.08,-0.01 -0.09,-0.05 0,0 -0.01,-0.03 -0.01,-0.04zm0.45 -1.17l0 -0.66c0,-0.03 0.08,-0.06 0.09,-0.07l0.43 -0.22c0.04,-0.02 0.08,-0.04 0.11,-0.06l0.22 -0.11c0.03,0 0.62,0.32 0.75,0.39 0.02,0.01 0.1,0.04 0.1,0.07l0 0.67c0,0.37 -0.11,0.64 -0.32,0.86 -0.12,0.12 -0.27,0.21 -0.43,0.27 -0.01,0 -0.08,0.03 -0.09,0.03 -0.08,0 -0.28,-0.11 -0.35,-0.15 -0.2,-0.13 -0.37,-0.35 -0.45,-0.58 -0.04,-0.14 -0.06,-0.25 -0.06,-0.44zm1.96 -1.24c-0.01,-0.03 0.03,-0.1 0.09,-0.1 0.06,-0.01 0.1,0.04 0.1,0.09 0.01,0.12 -0.17,0.14 -0.19,0.01zm-2.41 0c-0.01,-0.03 0.02,-0.1 0.09,-0.1 0.12,-0.01 0.14,0.18 0.01,0.19 -0.03,0 -0.08,-0.02 -0.09,-0.05 0,-0.01 -0.01,-0.04 -0.01,-0.04z"></path> </g> </g> </svg>