<svg xmlns="http://www.w3.org/2000/svg" xmlns:xlink="http://www.w3.org/1999/xlink" xml:space="preserve" width="91px" height="91px" style="shape-rendering:geometricPrecision; text-rendering:geometricPrecision; image-rendering:optimizeQuality; fill-rule:evenodd; clip-rule:evenodd" viewBox="0 0 5.43 5.43"> <defs> <style type="text/css"> .fil1 {fill:#083264} .fil0 {fill:white} </style> </defs> <g id="Layer_x0020_1"> <metadata id="CorelCorpID_0Corel-Layer"></metadata> <g id="_1718023643136"> <circle class="fil0" cx="2.71" cy="2.71" r="2.71"></circle> <path class="fil1" d="M1.68 2.21c0.02,-0.08 0.22,-0.26 0.27,-0.31 0.1,-0.08 0.23,-0.16 0.37,-0.22 0.13,-0.05 0.33,-0.09 0.49,-0.07 0.14,0.01 0.36,0.06 0.44,0.13 -0.03,0.04 -0.08,0.08 -0.1,0.11 0.03,0.02 0.51,0.14 0.54,0.14l0.05 0.02c0.02,0.01 0.04,0.01 0.06,0.02 0.03,0 0.01,0 0.02,-0.01l-0.05 -0.13c0.01,-0.04 -0.07,-0.31 -0.1,-0.39 0,-0.03 -0.02,-0.12 -0.04,-0.14l-0.1 0.11c-0.16,-0.1 -0.24,-0.15 -0.44,-0.2 -0.55,-0.14 -1.09,0.04 -1.45,0.4 -0.49,0.5 -0.56,1.31 -0.16,1.89 -0.05,-0.29 -0.1,-0.42 -0.04,-0.75 0.01,-0.11 0.05,-0.23 0.09,-0.33 0.02,-0.06 0.11,-0.25 0.15,-0.27zm1.95 1.18c-0.03,0.05 -0.12,0.09 -0.15,0.13 -0.03,0.01 -0.1,0.06 -0.13,0.08 -0.25,0.15 -0.56,0.25 -0.86,0.2 -0.08,-0.01 -0.28,-0.07 -0.32,-0.12l0.1 -0.1 -0.01 -0.01c-0.04,-0.01 -0.2,-0.05 -0.22,-0.05 0,0 -0.01,-0.01 -0.01,0l-0.04 -0.02c-0.02,-0.01 -0.04,-0.01 -0.06,-0.02l-0.3 -0.08c-0.02,0 -0.01,0 -0.02,0.01 0.02,0.03 0.09,0.39 0.12,0.42 0,0.03 0.04,0.21 0.06,0.23l0.1 -0.1c0.1,0.06 0.2,0.12 0.33,0.16 0.33,0.12 0.71,0.11 1.03,-0.01 0.04,-0.02 0.14,-0.07 0.17,-0.07 0.01,-0.02 0.02,-0.02 0.05,-0.04l0.28 -0.21c0.31,-0.3 0.52,-0.81 0.44,-1.27 -0.02,-0.13 -0.05,-0.24 -0.09,-0.35 -0.02,-0.04 -0.11,-0.26 -0.15,-0.28 0.14,0.42 0.15,0.86 -0.08,1.21 -0.03,0.07 -0.08,0.11 -0.11,0.16 -0.02,0.03 -0.01,0.01 -0.01,0.02 -0.04,0.02 -0.03,0.03 -0.06,0.06 -0.01,0.01 -0.02,0.02 -0.03,0.03 -0.02,0.01 -0.01,0.01 -0.03,0.02zm-0.58 -0.83c0.02,-0.04 0.06,-0.09 0.06,-0.13 -0.02,0 -0.04,-0.01 -0.05,-0.02 -0.01,0.04 -0.21,0.45 -0.24,0.54l0.04 0.02c0.05,-0.08 0.15,-0.31 0.19,-0.41zm-0.87 0.19c0.07,-0.05 0.16,-0.11 0.11,-0.23 -0.01,-0.02 -0.01,-0.03 -0.02,-0.04 -0.06,-0.06 -0.15,-0.07 -0.23,-0.04 -0.05,0.02 -0.09,0.07 -0.1,0.15l0.1 0c0.03,-0.04 0.02,-0.07 0.06,-0.08 0.05,-0.01 0.08,0.01 0.08,0.04 0.03,0.08 -0.06,0.12 -0.09,0.15 -0.07,0.06 -0.14,0.12 -0.14,0.25l0.36 0 0.01 -0.1 -0.24 0c0.01,-0.04 0.07,-0.08 0.1,-0.1zm0.42 -0.01l-0.14 0 0.13 -0.19c0,0 0,0 0,-0.01l0.01 0.2zm0.15 0.04l0.01 -0.04 -0.06 0 0 -0.28c-0.01,-0.03 0,-0.02 -0.02,-0.03l-0.1 0.01c-0.08,0.07 -0.24,0.28 -0.21,0.39l0.2 0c0.04,0.01 0.03,-0.01 0.02,0.11 0.11,0.02 0.11,0.01 0.11,-0.02 0,-0.12 -0.02,-0.07 0.05,-0.1l0 -0.04zm0.63 -0.26l-0.04 0.05c0,0.02 -0.11,0.18 -0.14,0.37l0.11 0c0.01,-0.02 0.03,-0.14 0.07,-0.23 0.04,-0.07 0.08,-0.13 0.11,-0.19 0.01,-0.03 0.01,-0.05 0.01,-0.09l-0.36 -0.01 0 0.1 0.24 0z"></path> </g> </g> </svg>