<svg xmlns="http://www.w3.org/2000/svg" xmlns:xlink="http://www.w3.org/1999/xlink" xml:space="preserve" width="91px" height="91px" style="shape-rendering:geometricPrecision; text-rendering:geometricPrecision; image-rendering:optimizeQuality; fill-rule:evenodd; clip-rule:evenodd" viewBox="0 0 5.43 5.43"> <defs> <style type="text/css"> .fil1 {fill:#083264} .fil0 {fill:white} </style> </defs> <g id="Layer_x0020_1"> <metadata id="CorelCorpID_0Corel-Layer"></metadata> <g id="_1718252765072"> <circle class="fil0" cx="2.72" cy="2.72" r="2.72"></circle> <g> <path class="fil1" d="M1.8 3.9c0,0.21 -0.03,0.31 0.06,0.31 0.08,0 0.05,-0.07 0.05,-0.25l0.18 0c0,0.18 -0.03,0.25 0.05,0.25 0.08,0 0.06,-0.07 0.06,-0.25l0.17 0c0,0.18 -0.02,0.25 0.06,0.25 0.08,0 0.06,-0.07 0.06,-0.25l0.17 0c0,0.18 -0.03,0.25 0.06,0.25 0.08,0 0.05,-0.07 0.05,-0.25l0.18 0c0,0.18 -0.03,0.25 0.05,0.25 0.08,0 0.06,-0.07 0.06,-0.25l0.17 0c0,0.18 -0.02,0.25 0.06,0.25 0.08,0 0.06,-0.07 0.06,-0.25l0.17 0c0,0.18 -0.02,0.25 0.06,0.25 0.08,0 0.05,-0.07 0.05,-0.25 0.4,0 0.33,0.07 0.33,-0.32 0.17,0 0.25,0.02 0.25,-0.06 0,-0.08 -0.08,-0.06 -0.25,-0.06l0 -0.17c0.17,0 0.25,0.02 0.25,-0.06 0,-0.08 -0.08,-0.06 -0.25,-0.06l0 -0.17c0.17,0 0.25,0.03 0.25,-0.06 0,-0.08 -0.08,-0.05 -0.25,-0.05l0 -0.17c0.17,0 0.25,0.02 0.25,-0.06 0,-0.08 -0.08,-0.06 -0.25,-0.06l0 -0.17c0.17,0 0.25,0.02 0.25,-0.06 0,-0.08 -0.08,-0.06 -0.25,-0.06l0 -0.17c0.17,0 0.25,0.03 0.25,-0.06 0,-0.08 -0.08,-0.05 -0.25,-0.05l0 -0.17c0.17,0 0.25,0.02 0.25,-0.06 0,-0.08 -0.08,-0.06 -0.25,-0.06 0,-0.22 0.03,-0.32 -0.06,-0.32 -0.09,0 -0.06,0.31 -0.06,0.49l0 1.7c0.01,0.22 0.05,0.18 -0.38,0.18l-1.43 0c-0.1,0 -0.23,-0.03 -0.23,0.05z"></path> <path class="fil1" d="M1.47 1.53l0 0.27c-0.17,0 -0.24,-0.02 -0.24,0.06 0,0.08 0.07,0.06 0.24,0.06l0 0.11c0,0.14 -0.24,-0.02 -0.24,0.11 0,0.09 0.07,0.06 0.24,0.06l0 0.12c0,0.14 -0.24,-0.03 -0.24,0.11 0,0.08 0.07,0.06 0.24,0.06l0 0.17c-0.17,0 -0.24,-0.02 -0.24,0.06 0,0.08 0.07,0.06 0.24,0.06l0 0.11c0,0.14 -0.24,-0.02 -0.24,0.11 0,0.09 0.07,0.06 0.24,0.06l0 0.12c0,0.14 -0.24,-0.03 -0.24,0.11 0,0.08 0.07,0.06 0.24,0.06l0 0.11c0,0.14 -0.24,-0.02 -0.24,0.12 0,0.08 0.07,0.06 0.24,0.06 0,0.21 -0.03,0.32 0.06,0.32 0.09,0 0.06,-0.12 0.06,-0.21l0 -1.99c-0.01,-0.21 -0.05,-0.17 0.38,-0.17l1.43 0c0.27,0 0.23,0.05 0.23,-0.31 0,-0.08 -0.11,-0.08 -0.11,0l0 0.2 -0.17 0c0,-0.18 0.02,-0.25 -0.06,-0.25 -0.08,0 -0.06,0.07 -0.06,0.25l-0.17 0c0,-0.18 0.02,-0.25 -0.06,-0.25 -0.08,0 -0.05,0.07 -0.05,0.25l-0.18 0c0,-0.18 0.03,-0.25 -0.05,-0.25 -0.09,0 -0.06,0.07 -0.06,0.25l-0.17 0c0,-0.18 0.02,-0.25 -0.06,-0.25 -0.08,0 -0.06,0.07 -0.06,0.25l-0.17 0c0,-0.18 0.02,-0.25 -0.06,-0.25 -0.14,0 0.03,0.25 -0.11,0.25l-0.12 0c0,-0.18 0.03,-0.25 -0.05,-0.25 -0.14,0 0.01,0.2 -0.1,0.24 -0.09,0.03 -0.29,-0.05 -0.29,0.06z"></path> <path class="fil1" d="M2.47 2.03c-0.08,0.04 -0.16,0.06 -0.21,0.13 -0.06,-0.03 -0.12,-0.07 -0.19,-0.09 -0.06,0.04 -0.09,0.11 -0.13,0.18 -0.08,0.14 -0.21,0.27 0.05,0.33l0 0.27c-0.25,0.07 -0.13,0.19 -0.05,0.32 0.04,0.07 0.07,0.15 0.13,0.2 0.3,-0.07 0.34,-0.36 0.03,-0.15 -0.04,-0.08 -0.09,-0.16 -0.11,-0.23 0.2,-0.06 0.13,-0.12 0.13,-0.35 0,-0.03 0.07,-0.14 -0.13,-0.19 0.01,-0.06 0.03,-0.07 0.05,-0.12 0.03,-0.04 0.04,-0.07 0.06,-0.11 0.22,0.14 0.15,0.06 0.35,-0.04 0.13,-0.06 0.15,-0.02 0.15,-0.23l0.23 0c0,0.29 0.14,0.2 0.14,0.14 0,-0.34 0.08,-0.27 -0.44,-0.27 -0.09,0 -0.06,0.12 -0.06,0.21z"></path> <path class="fil1" d="M3.12 2.24c0,0.13 0.18,0 0.21,-0.02 0.02,0.04 0.03,0.07 0.06,0.11 0.03,0.05 0.04,0.06 0.05,0.12 -0.03,0.01 -0.09,0.04 -0.11,0.06 -0.06,0.05 -0.02,0.06 -0.02,0.28 0,0.04 -0.07,0.14 0.13,0.2 -0.01,0.07 -0.07,0.15 -0.11,0.23 -0.22,-0.15 -0.16,-0.05 -0.35,0.03 -0.14,0.07 -0.15,0.03 -0.15,0.23l-0.23 0c0,-0.28 -0.13,-0.19 -0.13,-0.13 0,0.34 -0.08,0.27 0.44,0.27 0.08,0 0.06,-0.12 0.06,-0.21 0.07,-0.04 0.16,-0.08 0.21,-0.14 0.05,0.04 0.11,0.08 0.19,0.1 0.05,-0.05 0.23,-0.34 0.23,-0.4 0,-0.06 -0.03,-0.05 -0.07,-0.08 -0.03,-0.02 -0.05,-0.03 -0.09,-0.04l0 -0.27c0.26,-0.06 0.14,-0.18 0.06,-0.32 -0.05,-0.07 -0.07,-0.15 -0.13,-0.19 -0.07,0.01 -0.25,0.1 -0.25,0.17z"></path> <path class="fil1" d="M2.47 2.74c0,-0.36 0.5,-0.36 0.5,0 0,0.3 -0.5,0.3 -0.5,0zm-0.14 -0.02c0,0.5 0.77,0.5 0.77,0 0,-0.49 -0.77,-0.51 -0.77,0z"></path> </g> </g> </g> </svg>