<svg xmlns="http://www.w3.org/2000/svg" xmlns:xlink="http://www.w3.org/1999/xlink" xml:space="preserve" width="91px" height="91px" style="shape-rendering:geometricPrecision; text-rendering:geometricPrecision; image-rendering:optimizeQuality; fill-rule:evenodd; clip-rule:evenodd" viewBox="0 0 5.38 5.38"> <defs> <style type="text/css"> .fil1 {fill:#083264} .fil0 {fill:white} </style> </defs> <g id="Layer_x0020_1"> <metadata id="CorelCorpID_0Corel-Layer"></metadata> <g id="_1754031057328"> <circle class="fil0" cx="2.69" cy="2.69" r="2.69"></circle> <g> <path class="fil1" d="M1.92 1.8l0.04 0c0.02,0.04 0.02,0.09 0.02,0.14 0.05,-0.02 0.1,-0.09 0.16,-0.08l0.02 0.04c-0.04,0.05 -0.14,0.09 -0.18,0.13l0 0.23c0.05,-0.02 0.15,-0.08 0.2,-0.11l0.01 -0.21c0.03,-0.05 0.06,-0.02 0.06,0.03 0,0.04 0,0.08 0,0.13 0.04,-0.02 0.1,-0.07 0.14,-0.05 0.02,0.03 0.01,0.05 -0.02,0.07 -0.01,0 -0.03,0.01 -0.04,0.02l-0.04 0.03c0.01,0.01 0.19,0.07 0.14,0.12 -0.06,0.03 -0.17,-0.09 -0.22,-0.08 -0.02,0 -0.18,0.1 -0.2,0.11 0.03,0.02 0.18,0.12 0.21,0.12 0.05,0 0.15,-0.12 0.21,-0.09 0.03,0.05 -0.01,0.06 -0.05,0.08 -0.04,0.02 -0.05,0.04 -0.09,0.04 0.01,0.02 0,0.01 0.02,0.03l0.06 0.03c0.05,0.03 0.05,0.11 -0.05,0.05 -0.03,-0.02 -0.04,-0.02 -0.07,-0.03l0 0.18c-0.09,0.01 -0.06,-0.08 -0.07,-0.23l-0.2 -0.11c-0.01,0.05 0,0.1 0,0.14 -0.01,0.12 -0.01,0.11 0.03,0.11 0.03,0.04 0.17,0.08 0.14,0.13 -0.03,0.04 -0.13,-0.04 -0.17,-0.06 0,0.04 0.01,0.15 -0.04,0.14 -0.05,-0.01 -0.03,-0.1 -0.04,-0.14 -0.06,0.02 -0.1,0.07 -0.15,0.07 -0.02,-0.01 -0.02,0 -0.03,-0.03 0.03,-0.05 0.14,-0.1 0.18,-0.13l0 -0.23c-0.03,0.01 -0.17,0.09 -0.2,0.12 0,0.05 0,0.17 -0.01,0.22l-0.06 -0.01 0 -0.17c-0.06,0.02 -0.09,0.06 -0.14,0.05 -0.02,-0.03 -0.01,-0.05 0.02,-0.07 0.03,-0.02 0.05,-0.02 0.08,-0.06 -0.04,-0.01 -0.18,-0.06 -0.14,-0.11 0.05,-0.05 0.17,0.08 0.22,0.08 0.01,0 0.18,-0.1 0.19,-0.12 -0.01,-0.02 -0.18,-0.12 -0.21,-0.11 -0.06,0.01 -0.14,0.11 -0.2,0.08 -0.01,-0.06 0.09,-0.1 0.14,-0.12 -0.05,-0.06 -0.14,-0.05 -0.1,-0.12 0.05,-0.01 0.08,0.03 0.13,0.05 0.01,-0.04 -0.01,-0.23 0.06,-0.18 0.03,0.02 0.01,0.18 0.02,0.23 0.04,0.02 0.16,0.1 0.2,0.11l0.01 -0.24c-0.06,-0.03 -0.14,-0.07 -0.19,-0.12l0.02 -0.04c0.06,0 0.1,0.06 0.16,0.08 0,-0.05 0,-0.1 0.02,-0.14zm-0.53 1.55c-0.02,0.04 0.01,0.1 0.03,0.12 0.02,0.03 0.1,0.05 0.14,0.02 0.04,-0.01 0.06,-0.03 0.07,-0.09 0,-0.05 -0.01,-0.09 -0.04,-0.11 -0.08,-0.06 -0.17,-0.02 -0.2,0.06zm2.51 -0.08c-0.05,0.02 -0.05,0.01 -0.07,0.05 -0.06,0.12 0.05,0.22 0.15,0.18 0.05,-0.02 0.09,-0.09 0.06,-0.16 -0.02,-0.06 -0.07,-0.09 -0.14,-0.07zm-2.58 0.06c0.03,-0.05 0.06,-0.11 0.12,-0.13 0.09,-0.03 0.14,0.02 0.2,0.03 0.01,0.02 0.04,0.06 0.05,0.1 0.03,0.06 0,0.08 0,0.13 -0.04,0.04 -0.04,0.07 -0.1,0.09 -0.04,0.03 -0.1,0.03 -0.15,0.01 -0.09,-0.03 -0.13,-0.1 -0.12,-0.23zm0.53 0.21c0.03,-0.11 0.05,-0.22 0,-0.3 -0.02,-0.07 -0.06,-0.1 -0.1,-0.14l-0.04 -0.04c-0.06,-0.01 -0.1,-0.04 -0.18,-0.05 -0.18,-0.01 -0.37,0.14 -0.37,0.26l-0.02 0.04c0.01,0.12 -0.01,0.17 0.06,0.28 0.04,0.07 0.11,0.12 0.19,0.15 0.14,0.04 0.29,0 0.39,-0.1 0.03,-0.03 0.04,-0.05 0.07,-0.1zm2.21 -0.01c-0.18,0.12 -0.31,-0.02 -0.32,-0.12 -0.02,-0.14 0.11,-0.25 0.28,-0.2 0.02,0.02 0.05,0.04 0.08,0.08 0.03,0.05 0.03,0.09 0.02,0.15 0,0 -0.03,0.04 -0.03,0.05 -0.01,0.01 -0.01,0.01 -0.02,0.02 -0.01,0.02 -0.01,0.01 -0.01,0.02zm-0.3 -0.47c-0.07,0.03 -0.06,0.04 -0.1,0.07 -0.01,0.02 -0.01,0.01 -0.02,0.02 -0.09,0.11 -0.11,0.31 -0.01,0.44 0.18,0.27 0.51,0.13 0.52,0.09 0,0 0,0 0,0 0.03,-0.01 0.04,-0.02 0.05,-0.04 0.01,-0.01 0.03,-0.04 0.04,-0.05 0.04,-0.05 0.04,-0.08 0.06,-0.13 0.02,-0.18 -0.05,-0.32 -0.15,-0.38 -0.06,-0.04 -0.11,-0.06 -0.19,-0.07 -0.06,0 -0.19,0.01 -0.2,0.05zm-0.3 0.38l0 -0.08c0.02,-0.23 0.17,-0.41 0.4,-0.45 0.12,-0.02 0.24,0.01 0.33,0.07 0.08,0.05 0.17,0.14 0.19,0.24 0.03,0.04 0.03,0.16 0.03,0.22l0.38 0c0,-0.06 0.01,-0.14 -0.01,-0.19 -0.03,-0.08 -0.06,-0.09 -0.1,-0.11 -0.02,-0.04 0,-0.12 -0.01,-0.17 -0.04,0 -0.07,0.01 -0.11,-0.02 -0.02,-0.02 -0.04,-0.04 -0.04,-0.08 -0.01,-0.1 0.06,-0.11 0.14,-0.11l-0.01 -0.03c-0.01,-0.08 -0.05,-0.11 -0.11,-0.17 -0.06,-0.06 -0.1,-0.05 -0.19,-0.08 -0.03,-0.01 -0.01,0 -0.03,-0.03 -0.03,-0.04 -0.18,-0.26 -0.21,-0.27 -0.01,-0.04 -0.03,-0.04 -0.06,-0.09 -0.08,-0.1 -0.15,-0.24 -0.25,-0.24l-0.52 -0.01 0 1.6 0.18 0zm0.05 -1.41l0 -0.07c0.07,0 0.26,-0.01 0.3,0.02 0,0 0.02,0.03 0.02,0.03 0.04,0.04 0.09,0.13 0.12,0.14 0,0.04 0.06,0.1 0.09,0.15 0.01,0 0.01,0.01 0.02,0.01l0.1 0.15 -0.65 0 0 -0.41c0,-0.01 0,-0.01 0,-0.02zm0.03 0.65c-0.01,0 -0.02,-0.02 -0.02,-0.04 0,-0.07 0.1,-0.05 0.2,-0.05 0.08,0 0.08,0.1 0,0.1l-0.11 0c-0.03,0 -0.05,0.01 -0.07,-0.01zm-0.03 -0.65c0,-0.04 -0.01,-0.07 -0.01,-0.1l-0.12 0 0 1.43 -0.03 0.05c-0.03,0.04 0.01,-0.03 -0.01,0.01l0.12 0 0 -0.06 0.05 -1.33zm-2.43 1.14c0.02,-0.04 0.07,-0.11 0.1,-0.14 0.11,-0.09 0.2,-0.13 0.35,-0.12l0.15 0.03c0.03,0.01 0.02,0 0.04,0.02 0.06,0.01 0.16,0.12 0.19,0.17 0.06,0.1 0.08,0.19 0.07,0.31l1.2 0c-0.02,-0.22 -0.01,-0.5 -0.01,-0.73 0,-0.24 0,-0.47 0,-0.71 0,-0.34 -0.01,-0.37 -0.35,-0.37l-1.8 0c-0.12,0 -0.23,0 -0.28,0.08 -0.06,0.11 -0.03,0.53 -0.03,0.68 0,0.25 0,0.49 0,0.73 -0.01,0.02 -0.02,0.02 -0.04,0.04 -0.01,0 -0.01,0 -0.02,0.01 0,0 0,0 0,0.01l-0.02 0.02c-0.01,0.01 -0.02,0.02 -0.02,0.03 -0.03,0.06 -0.02,0.14 -0.02,0.21l0.44 0c0,-0.08 0.01,-0.21 0.05,-0.27z"></path> </g> </g> </g> </svg>