<svg xmlns="http://www.w3.org/2000/svg" xmlns:xlink="http://www.w3.org/1999/xlink" xml:space="preserve" width="91px" height="91px" style="shape-rendering:geometricPrecision; text-rendering:geometricPrecision; image-rendering:optimizeQuality; fill-rule:evenodd; clip-rule:evenodd" viewBox="0 0 5.41 5.41"> <defs> <style type="text/css"> .fil1 {fill:#083264} .fil0 {fill:white} </style> </defs> <g id="Layer_x0020_1"> <metadata id="CorelCorpID_0Corel-Layer"></metadata> <g id="_1718004230416"> <circle class="fil0" cx="2.71" cy="2.71" r="2.71"></circle> <path class="fil1" d="M3.79 3.77l-0.63 -0.26 0.01 -0.25 0.62 0.26 0 0.25 0 0zm-1.01 -0.29l0.04 0.25 0.21 -0.51 -0.28 0.08 0.1 0.11 -0.07 0.07 0 0zm-0.18 0.24l0.04 -0.24 -0.08 -0.07 0.1 -0.1 -0.26 -0.08 0.2 0.49zm-0.51 -1.51l0 0 0 0c0,0 0,0 0,0 0,-0.01 0.01,-0.02 0.02,-0.02l0.01 0c0.09,-0.05 0.24,-0.08 0.42,-0.09 0.03,0.06 0.09,0.1 0.16,0.13 0.07,-0.03 0.12,-0.07 0.16,-0.13 0.16,0.01 0.31,0.04 0.41,0.09l0.02 0c0,0 0,0 0,0 0.01,0 0.01,0.01 0.01,0.02 0,0 0,0 0,0 0,0 0,0 0,0 0,0 0,0 0,0l0 0 0.01 0 -0.01 0.01 0 0.05 0 0.07c0.01,0 0.02,0 0.03,0.01 0.01,0 0.01,0.01 0.02,0.03 0.01,0.01 0.01,0.02 0.01,0.04 0,0.01 0,0.02 0,0.03 0,0.01 0,0.02 0,0.03l0 0c0,0.02 0,0.03 -0.01,0.05 0,0.02 -0.01,0.04 -0.01,0.05l0 0c-0.02,0.04 -0.03,0.06 -0.05,0.09 -0.02,0.02 -0.04,0.03 -0.06,0.04l0 0.01c-0.01,0.01 -0.01,0.02 -0.01,0.02 -0.02,0.08 -0.04,0.14 -0.09,0.2 -0.01,0.02 -0.02,0.03 -0.03,0.04 -0.01,0.01 -0.02,0.02 -0.03,0.03 0,0 0,0 0,0 0,0 0,0 0,0l0 0.14c0.01,-0.01 0.01,-0.01 0.02,-0.01 0.01,0 0.01,0 0.02,0.01l0.74 0.3c0.02,0 0.03,0.02 0.03,0.04 0,0 0,0 0,0l0 0.28c0.03,0.05 0.05,0.1 0.06,0.15 0.01,0.08 0.02,0.05 0.02,0.13 0,0.02 -0.02,0.04 -0.05,0.04l-2.41 0c0,0 0,0 0,0 -0.02,0 -0.04,-0.02 -0.04,-0.04 -0.01,-0.07 0,-0.04 0.01,-0.12 0.01,-0.05 0.03,-0.1 0.06,-0.15l0 -0.29 0 0c0,0 0,0 0,0 0,-0.02 0.01,-0.04 0.03,-0.04l0.75 -0.3 0 0c0.01,0 0.01,-0.01 0.01,-0.01l0 -0.13c0,0 0,0 0,0 0,-0.01 0,-0.01 0,-0.02l-0.01 -0.01c-0.01,-0.01 -0.02,-0.02 -0.03,-0.03l0 0c-0.02,-0.03 -0.05,-0.07 -0.06,-0.1 -0.02,-0.04 -0.03,-0.08 -0.05,-0.13l-0.01 -0.02c-0.01,-0.01 -0.03,-0.01 -0.05,-0.03 -0.02,-0.01 -0.03,-0.04 -0.04,-0.06 -0.01,-0.02 -0.02,-0.04 -0.03,-0.06 0,-0.02 -0.01,-0.04 -0.01,-0.06 0,-0.01 0,-0.02 0,-0.04 0,-0.01 0,-0.02 0,-0.03 0,-0.02 0.01,-0.03 0.02,-0.05l0 0c0,-0.01 0.01,-0.02 0.02,-0.02 0.01,-0.01 0.02,-0.01 0.02,-0.01l0.01 -0.06 -0.01 -0.06 0 -0.01zm1.6 1.33c0.03,0 0.06,0.03 0.06,0.07 0,0.03 -0.03,0.06 -0.06,0.06 -0.04,0 -0.07,-0.03 -0.07,-0.06 0,0 0,0 0,-0.01 0,0 0,0 0,0 0,-0.03 0.03,-0.06 0.07,-0.06 0,0 0,0 0,0l0 0zm-2.03 0.06c0.04,0.01 0.07,0.03 0.07,0.07 0,0.04 -0.03,0.07 -0.07,0.07 -0.04,0 -0.07,-0.03 -0.07,-0.07 0,-0.04 0.03,-0.06 0.07,-0.07 0,0 0,0 0,0 0,-0.03 0.03,-0.06 0.06,-0.06 0.01,0 0.01,0 0.01,0l-0.07 0.06zm0.59 -0.33l0.01 0.24 -0.64 0.26 0 -0.25 0.63 -0.25zm0.76 -0.21c-0.01,0 -0.03,0.01 -0.05,0.02 0,0.01 -0.01,0.01 -0.02,0.02 -0.04,0.01 -0.08,0.03 -0.12,0.04 -0.04,0.01 -0.08,0.01 -0.11,0.01 -0.01,0 -0.01,0 -0.01,0 -0.03,0 -0.07,0 -0.1,-0.01l0 0c-0.03,-0.01 -0.06,-0.02 -0.09,-0.03 -0.03,-0.01 -0.05,-0.02 -0.07,-0.03 -0.02,-0.01 -0.04,-0.02 -0.06,-0.03l0 0.11 0.32 0.1 0.31 -0.09 0 -0.11 0 0zm-0.92 -0.96l0 -0.12 -0.1 -0.11c-0.14,-0.16 -0.11,-0.15 0.04,-0.19 0.22,-0.06 0.37,-0.2 0.5,-0.28 0.14,-0.1 0.19,-0.1 0.34,0 0.13,0.08 0.27,0.22 0.49,0.28 0.16,0.04 0.18,0.03 0.04,0.19l-0.1 0.11 0 0.12c-0.13,-0.04 -0.26,-0.08 -0.4,-0.1 0.01,-0.04 0.02,-0.09 0.02,-0.14 0,-0.02 0,-0.03 -0.01,-0.04 -0.06,0 -0.13,-0.02 -0.21,-0.07l0 0c-0.06,0.04 -0.13,0.07 -0.2,0.07 0,0 -0.01,0 -0.02,0 0,0.01 0,0.02 0,0.03 0,0.05 0.01,0.1 0.02,0.15 -0.14,0.02 -0.28,0.06 -0.41,0.11l0 -0.01zm0.55 0.11l-0.02 0.11c0,0.01 -0.01,0.02 -0.01,0.02 0,0 -0.01,0 -0.01,0 0,0 0,0 0,-0.01l-0.47 0.07 0 0c-0.01,0 -0.02,0 -0.02,0.01 -0.01,0.01 -0.01,0.01 -0.01,0.02 0,0.01 0,0.02 0,0.03 0,0 0,0.01 0,0.02 0,0.02 0.01,0.03 0.01,0.05 0.01,0.02 0.01,0.03 0.02,0.05 0.01,0.01 0.02,0.03 0.03,0.04 0,0 0.01,0.01 0.01,0.01 0,0 0.01,0 0.01,0l0 0c0,-0.01 0,-0.01 0.01,-0.01 0,0 0.01,0.01 0.01,0.01 0.01,0 0.02,0.01 0.02,0.02l0 0 0.01 0.03 0.01 0.02c0.02,0.08 0.05,0.15 0.1,0.2l0 0c0.02,0.03 0.04,0.05 0.07,0.07 0.03,0.02 0.06,0.04 0.09,0.06l0 0c0.01,0 0.01,0 0.02,0.01l0.02 0.01 0 0c0.02,0 0.05,0.01 0.08,0.02 0.03,0 0.05,0.01 0.08,0.01 0,0 0,0 0,0 0.03,0 0.06,-0.01 0.09,-0.01 0.03,-0.01 0.06,-0.02 0.09,-0.03l0.02 -0.01 0 0c0.03,-0.01 0.06,-0.03 0.09,-0.06 0.03,-0.02 0.06,-0.04 0.08,-0.07 0.02,-0.02 0.04,-0.05 0.05,-0.08 0.01,-0.03 0.02,-0.06 0.03,-0.09l0 -0.02c0.01,-0.01 0.01,-0.03 0.02,-0.05 0,0 0.01,-0.01 0.01,-0.02l0 0c0.01,0 0.02,0 0.02,0 0.01,0 0.01,0 0.01,0l0 0c0.01,0 0.02,-0.01 0.02,-0.02 0.02,-0.02 0.03,-0.04 0.04,-0.06 0.01,-0.01 0.01,-0.03 0.01,-0.05 0.01,-0.01 0.01,-0.03 0.01,-0.04l0 0c0,-0.01 0,-0.01 0,-0.02 0,-0.01 0,-0.01 0,-0.02 0,-0.01 0,-0.01 0,-0.02l0 0c-0.01,-0.01 -0.01,-0.01 -0.02,-0.01 0,0 0,0 0,0 0,0 -0.01,0 -0.01,0l-0.02 0.01c-0.02,0.01 -0.04,0.02 -0.06,0.03 0,0 0,0 0,0 -0.01,0 -0.02,-0.01 -0.02,-0.01 0,0 0,0 0,0 0,0 0,0 0,-0.01l-0.01 -0.11c-0.28,0.12 -0.68,0.11 -0.92,0l0.41 -0.1z"></path> </g> </g> </svg>