<svg xmlns="http://www.w3.org/2000/svg" xmlns:xlink="http://www.w3.org/1999/xlink" xml:space="preserve" width="91px" height="91px" style="shape-rendering:geometricPrecision; text-rendering:geometricPrecision; image-rendering:optimizeQuality; fill-rule:evenodd; clip-rule:evenodd" viewBox="0 0 5.46 5.46"> <defs> <style type="text/css"> .fil1 {fill:#083264} .fil0 {fill:white} </style> </defs> <g id="Layer_x0020_1"> <metadata id="CorelCorpID_0Corel-Layer"></metadata> <g id="_1718689290128"> <circle class="fil0" cx="2.73" cy="2.73" r="2.73"></circle> <path class="fil1" d="M3.27 4.11c-0.08,0 -0.07,-0.11 0,-0.11 0.08,0 0.08,0.11 0,0.11zm0.73 -0.56c0,-0.07 0.11,-0.08 0.11,0 0,0.02 0,0.03 -0.02,0.04 -0.04,0.04 -0.09,0 -0.09,-0.04zm-1.95 -0.82c0,-0.21 0.12,-0.38 0.29,-0.46 0.08,-0.04 0.2,-0.06 0.29,-0.04 0.03,0 0.04,0 0.04,0.02l0 0.96c0,0.04 -0.1,0.03 -0.13,0.03 -0.07,0 -0.15,-0.03 -0.2,-0.05 -0.16,-0.08 -0.29,-0.25 -0.29,-0.46zm1.95 0c0,-0.07 0.11,-0.09 0.11,0.01 0,0.05 -0.11,0.07 -0.11,-0.01zm-2.38 -0.76c0,-0.03 0.14,-0.16 0.17,-0.18 0.01,0.02 0.25,0.27 0.28,0.27 0.05,0 0.05,-0.02 0.1,-0.04 0.03,-0.02 0.05,-0.03 0.09,-0.04 0.03,-0.01 0.06,-0.02 0.1,-0.03 0.03,-0.01 0.07,-0.02 0.07,-0.07l0 -0.35 0.24 0 0 0.58c-0.13,0 -0.19,-0.04 -0.38,0.05 -0.38,0.18 -0.5,0.69 -0.18,1.01 0.05,0.05 0.11,0.1 0.18,0.13 0.19,0.08 0.25,0.05 0.38,0.05l0 0.58 -0.24 0 0 -0.36c0,-0.06 -0.08,-0.05 -0.17,-0.09 -0.08,-0.03 -0.14,-0.08 -0.19,-0.08 -0.04,0 -0.24,0.23 -0.29,0.27 -0.02,-0.03 -0.06,-0.06 -0.08,-0.09 -0.03,-0.02 -0.07,-0.06 -0.08,-0.09 0.03,-0.05 0.27,-0.25 0.27,-0.28 0,-0.03 -0.07,-0.13 -0.09,-0.19 -0.09,-0.2 0.06,-0.17 -0.45,-0.17l0 -0.24 0.34 0c0.09,0 0.06,-0.06 0.11,-0.17 0.09,-0.23 0.15,-0.14 -0.04,-0.33 -0.04,-0.03 -0.12,-0.11 -0.14,-0.14zm2.38 -0.05c0,-0.1 0.11,-0.07 0.11,-0.02 0,0.11 -0.11,0.06 -0.11,0.02zm-0.78 -0.51c0,-0.08 0.11,-0.08 0.11,0 0,0.07 -0.11,0.07 -0.11,0zm-0.12 -0.02c0,0.09 0.04,0.16 0.11,0.18l0 0.34 -0.42 0 0 -0.43c0,-0.04 -0.03,-0.07 -0.07,-0.07 -0.45,0 -0.41,-0.04 -0.41,0.17 0,0.09 0,0.17 0,0.26 -0.03,0.01 -0.08,0.02 -0.12,0.04 -0.03,0.01 -0.07,0.03 -0.1,0.05 -0.06,-0.04 -0.26,-0.28 -0.29,-0.28 -0.06,0 -0.04,0.01 -0.11,0.07 -0.28,0.28 -0.27,0.22 -0.09,0.4 0.04,0.04 0.12,0.12 0.14,0.15l-0.04 0.1c-0.01,0.03 -0.04,0.09 -0.04,0.12 -0.08,0 -0.16,0 -0.24,0 -0.23,0 -0.19,-0.06 -0.19,0.42 0,0.08 0.1,0.06 0.18,0.06 0.09,0 0.17,0 0.25,0 0.01,0.07 0.08,0.2 0.08,0.22 -0.02,0.03 -0.1,0.11 -0.14,0.14 -0.18,0.19 -0.19,0.13 0.09,0.4 0.11,0.12 0.09,0.1 0.26,-0.06 0.03,-0.03 0.1,-0.11 0.14,-0.14 0.12,0.07 0.15,0.06 0.22,0.09 0,0.09 0,0.17 0,0.26 0,0.21 -0.04,0.17 0.41,0.17 0.04,0 0.07,-0.03 0.07,-0.07l0 -0.43 0.42 0 0 0.34c-0.07,0.02 -0.11,0.09 -0.11,0.18 0,0.09 0.07,0.16 0.19,0.16 0.14,0 0.23,-0.21 0.09,-0.32 -0.02,-0.01 -0.02,-0.02 -0.05,-0.02l0 -0.39c0,-0.05 -0.02,-0.07 -0.06,-0.07l-0.48 0 0 -0.26 0.79 0c0.02,0 0.3,0.29 0.31,0.31 -0.01,0.07 -0.03,0.12 0.04,0.19 0.17,0.17 0.41,-0.08 0.25,-0.24 -0.05,-0.05 -0.07,-0.05 -0.15,-0.05 -0.02,0 -0.04,0 -0.05,0.01 -0.03,-0.03 -0.22,-0.22 -0.27,-0.27 -0.03,-0.03 -0.05,-0.07 -0.11,-0.07l-0.81 0 0 -0.26 1.1 0c0.02,0.07 0.09,0.12 0.18,0.12 0.09,0 0.16,-0.08 0.16,-0.19 0,-0.15 -0.22,-0.24 -0.32,-0.09 -0.01,0.02 -0.02,0.04 -0.04,0.04l-1.08 0 0 -0.26 0.82 0c0.05,0 0.08,-0.04 0.1,-0.07 0.06,-0.05 0.24,-0.23 0.27,-0.27 0.04,0.01 0.04,0.02 0.09,0.02 0.09,0 0.16,-0.08 0.16,-0.19 0,-0.14 -0.18,-0.22 -0.3,-0.12 -0.09,0.09 -0.04,0.19 -0.04,0.21l-0.22 0.23c-0.02,0.02 -0.07,0.07 -0.09,0.07l-0.79 0 0 -0.26 0.48 0c0.08,0 0.06,-0.1 0.06,-0.2 0,-0.09 0,-0.18 0,-0.26 0.03,0 0.06,-0.03 0.08,-0.06 0.09,-0.11 0.03,-0.28 -0.15,-0.28 -0.08,0 -0.16,0.08 -0.16,0.16z"></path> </g> </g> </svg>