<svg xmlns="http://www.w3.org/2000/svg" xmlns:xlink="http://www.w3.org/1999/xlink" xml:space="preserve" width="91px" height="91px" style="shape-rendering:geometricPrecision; text-rendering:geometricPrecision; image-rendering:optimizeQuality; fill-rule:evenodd; clip-rule:evenodd" viewBox="0 0 51.38 51.38"> <defs> <style type="text/css"> .fil1 {fill:#083264} .fil0 {fill:white} </style> </defs> <g id="Layer_x0020_1"> <metadata id="CorelCorpID_0Corel-Layer"></metadata> <g id="_1718036640480"> <circle class="fil0" cx="25.69" cy="25.69" r="25.69"></circle> <path class="fil1" d="M20.3 21.36l0.04 1.6c-0.28,0.18 -0.35,0.07 -0.63,0.26 -0.59,0.4 -0.17,1.94 -0.02,2.36 0.5,1.36 1.09,0.89 1.31,1.25 0.1,0.17 0.3,2.07 2.36,3.61 0.46,0.35 1.06,0.75 1.63,0.92 0.52,0.15 0.96,0.16 1.45,-0.01 0.22,-0.07 0.39,-0.18 0.58,-0.27 1.49,-0.74 2.64,-2.05 3.17,-3.65 0.05,-0.12 0.15,-0.56 0.22,-0.64 0.12,-0.17 0.31,-0.06 0.64,-0.2 0.19,-0.08 0.35,-0.24 0.45,-0.41 0.11,-0.2 0.17,-0.38 0.23,-0.62 0.12,-0.44 0.53,-1.86 0.02,-2.28 -0.23,-0.19 -0.52,-0.18 -0.78,-0.35 0,-0.26 0.14,-0.72 0.14,-1.3 0,-0.82 -0.23,-1.62 -0.56,-2.13l-0.42 -0.57c-1.07,-1.2 -2.14,-1.74 -3.72,-2 -0.58,-0.1 -1.66,-0.31 -2.11,0.14 -0.14,0.13 -0.1,0.22 -0.2,0.38 -0.09,0.15 -0.2,0.2 -0.39,0.22 -0.21,0.02 -0.35,0.02 -0.54,0.04 -0.45,0.06 -0.99,0.21 -1.35,0.43 -0.51,0.31 -0.85,0.66 -1.11,1.24 -0.22,0.49 -0.41,1.27 -0.41,1.98zm8.29 -5.76c0,0.26 0.58,0.47 0.94,0.69 0.36,0.22 0.68,0.42 0.99,0.68 1.38,1.13 1.96,2.3 2.21,4 0.05,0.33 -0.03,0.83 0.18,1.08 0.81,0.98 0.81,1.45 0.72,2.65 -0.03,0.45 -0.06,0.48 0.24,0.48 0.39,0 1.63,-0.76 1.99,-1.09l0.58 -0.54c0.08,-0.08 0.11,-0.13 0.19,-0.22 0.31,-0.35 0.66,-0.97 0.85,-1.43 0.16,-0.38 0.28,-1.01 0.44,-1.1 0.21,-0.11 0.7,0.03 0.96,-0.57 0.23,-0.51 0.7,-2.27 0.18,-2.66 -0.1,-0.07 -0.19,-0.11 -0.34,-0.14 -0.19,-0.04 -0.23,-0.02 -0.38,-0.13 0.31,-1.35 0.14,-2.68 -0.74,-3.73 -0.06,-0.07 -0.07,-0.09 -0.14,-0.16 -0.95,-0.99 -1.77,-1.38 -3.11,-1.7 -0.28,-0.07 -0.63,-0.13 -0.99,-0.14l-0.21 0c-0.3,0.01 -0.6,0.07 -0.82,0.2 -0.32,0.17 -0.17,0.51 -0.49,0.6l-0.95 0.11c-0.16,0.03 -0.3,0.07 -0.43,0.12 -0.65,0.24 -1.11,0.6 -1.45,1.23 -0.19,0.36 -0.42,1.24 -0.42,1.77zm-15.65 0.27l0 0.88c0.01,0.13 0.03,0.13 0.03,0.28 0.02,0.54 -0.36,0.24 -0.69,0.6 -0.37,0.41 -0.05,1.79 0.09,2.15 0.47,1.22 0.89,0.75 1.16,1.12 0.12,0.16 0.14,0.37 0.21,0.57 0.13,0.36 0.29,0.76 0.47,1.07 0.73,1.23 1.62,1.94 2.89,2.5 0.24,0.11 0.29,0.14 0.64,0.14 0.07,-0.29 0.07,-0.24 0.03,-0.58 -0.1,-0.91 -0.08,-1.42 0.45,-2.22 0.17,-0.25 0.25,-0.27 0.32,-0.39 0.17,-0.29 0.08,-0.91 0.13,-1.3 0.16,-1.24 0.48,-2.35 1.35,-3.26 0.06,-0.07 0.12,-0.13 0.19,-0.19 0.57,-0.47 1.1,-0.79 1.84,-0.99 0.58,-0.16 0.82,-0.06 0.75,-0.62 -0.04,-0.26 -0.06,-0.4 -0.11,-0.61 -0.19,-0.76 -0.59,-1.32 -1.07,-1.8 -0.63,-0.63 -1.39,-1.08 -2.25,-1.32 -0.64,-0.19 -2.16,-0.55 -2.71,-0.11 -0.32,0.26 -0.11,0.52 -0.53,0.59 -0.53,0.09 -1.1,0.03 -1.78,0.44 -1.08,0.64 -1.41,1.75 -1.41,3.05zm3.34 11.28c0,0.71 0.35,1.06 0.74,1.45 0.32,0.31 0.12,0.32 -0.53,1.32l-0.44 0.69c-0.06,0.13 -0.04,0.16 -0.18,0.19 -0.13,-0.08 -0.08,-0.08 -0.13,-0.25 -0.02,-0.11 -0.05,-0.17 -0.09,-0.28l-1.17 -3.53c-0.04,-0.1 -0.06,-0.18 -0.1,-0.28 -0.06,-0.16 -0.07,-0.14 -0.15,-0.26 -0.19,0.02 -0.68,0.21 -0.87,0.28 -0.15,0.06 -0.3,0.11 -0.43,0.16 -0.16,0.06 -0.28,0.1 -0.45,0.16 -0.23,0.08 -1.47,0.55 -1.7,0.68 -1.11,0.63 -1.8,1.56 -1.8,2.95l0 0.79c0.02,0.33 0.08,0.63 0.27,0.88 0.18,0.23 0.56,0.41 0.96,0.41l6.92 0c0.56,0 0.96,-0.25 1.59,-0.46l1.33 -0.44c0.12,-0.06 0.07,-0.06 0.18,-0.09 0,-0.25 -0.18,-0.44 -0.35,-0.7 -0.15,-0.23 -0.29,-0.43 -0.44,-0.66 -0.15,-0.23 -0.84,-1.16 -0.84,-1.37 0,-0.16 1.03,-0.75 0.55,-1.13 -0.33,-0.26 -0.69,-0.74 -0.84,-1.13 -0.1,-0.24 -0.15,-0.36 -0.46,-0.36 -0.73,0 -1.57,0.29 -1.57,0.98zm15.92 0.82c0,0.16 0.03,0.17 0.11,0.27 0.13,0.15 0.16,0.22 0.34,0.35 0.29,0.22 0.19,0.26 -0.22,0.87 -0.15,0.22 -0.27,0.42 -0.42,0.64l-0.41 0.65c-0.52,0.87 -0.81,0.7 1.05,1.31 0.27,0.09 0.49,0.17 0.76,0.26 0.23,0.08 0.56,0.19 0.84,0.19l6.92 0c0.7,0 1.23,-0.48 1.23,-1.13l0 -1.08c-0.02,-0.35 -0.06,-0.7 -0.18,-1.03 -0.18,-0.49 -0.52,-0.99 -0.93,-1.31 -0.8,-0.62 -1.41,-0.78 -2.31,-1.14 -0.17,-0.06 -1.55,-0.59 -1.7,-0.59 -0.24,0 -0.28,0.28 -0.34,0.45 -0.2,0.62 -1.28,3.75 -1.36,4.12 -0.18,-0.01 -0.14,-0.06 -0.34,-0.37 -0.1,-0.15 -0.19,-0.28 -0.29,-0.43 -0.2,-0.3 -0.38,-0.57 -0.57,-0.87 -0.12,-0.2 -0.18,-0.25 -0.02,-0.47 0.24,-0.32 0.77,-0.7 0.77,-1.4 0,-0.86 -0.77,-1.09 -1.53,-1.09 -0.52,0 -0.32,0.58 -1.03,1.35 -0.08,0.09 -0.37,0.33 -0.37,0.45zm-13.74 4.85l14.04 0c1.92,0 3.5,1.57 3.5,3.49l0 0c0,1.92 -1.58,3.49 -3.5,3.49l-14.04 0c-1.93,0 -3.5,-1.57 -3.5,-3.49l0 0c0,-1.92 1.57,-3.49 3.5,-3.49z"></path> </g> </g> </svg>