<svg xmlns="http://www.w3.org/2000/svg" xmlns:xlink="http://www.w3.org/1999/xlink" xml:space="preserve" width="91px" height="91px" style="shape-rendering:geometricPrecision; text-rendering:geometricPrecision; image-rendering:optimizeQuality; fill-rule:evenodd; clip-rule:evenodd" viewBox="0 0 4.95 4.95"> <defs> <style type="text/css"> .fil1 {fill:#083264} .fil0 {fill:white} </style> </defs> <g id="Layer_x0020_1"> <metadata id="CorelCorpID_0Corel-Layer"></metadata> <g id="_1718310618720"> <circle class="fil0" cx="2.48" cy="2.48" r="2.48"></circle> <g> <path class="fil1" d="M2.81 2.51l0 1.28c0,0.01 0.01,0.01 0.01,0.03 0.02,0.01 0.03,0.01 0.06,0.01l0.62 0c0.06,0 0.09,-0.01 0.09,-0.07l0 -0.65c0,-0.05 -0.04,-0.01 -0.05,0l-0.25 0.22c-0.03,0.03 -0.19,0.04 -0.24,0.04 -0.07,0.01 -0.07,-0.01 -0.02,-0.18 0.05,-0.15 0.04,-0.09 0.15,-0.2 0.02,-0.02 0.02,-0.02 0.04,-0.03l0.3 -0.27c0.08,-0.08 0.07,-0.02 0.07,-0.18 0,-0.03 -0.01,-0.06 -0.05,-0.06l-0.7 0c-0.02,0 -0.03,0.03 -0.03,0.06z"></path> <path class="fil1" d="M1.79 2.19c0,-0.07 0.08,0.03 0.15,0.03 0.14,0 0.13,-0.06 0.17,-0.06 0.06,0 -0.03,0.11 -0.15,0.11 -0.05,0 -0.17,-0.04 -0.17,-0.08zm-0.41 -0.3c0,0.06 0,0.09 0.05,0.14 0.03,0.02 0.07,0.04 0.12,0.04 0.01,0.03 0,0.04 0.01,0.08 0.01,0.16 0.17,0.31 0.34,0.31 0.16,0 0.27,0.01 0.38,-0.13 0.02,-0.03 0.04,-0.06 0.05,-0.08 0.08,-0.19 -0.02,-0.17 0.09,-0.19 0.18,-0.04 0.14,-0.31 -0.03,-0.31l-0.86 0c-0.08,0 -0.15,0.07 -0.15,0.14z"></path> <path class="fil1" d="M1.82 1.25c0,0.09 0.09,0.13 0.03,0.17 -0.02,-0.01 -0.02,-0.02 -0.03,-0.04 -0.01,-0.03 -0.04,-0.07 -0.04,-0.1 0,-0.03 0.02,-0.1 -0.13,-0.01 -0.06,0.04 -0.15,0.13 -0.18,0.21 -0.02,0.05 -0.01,0.05 -0.08,0.06 -0.1,0.01 -0.11,0.17 0.04,0.17l1.05 0c0.13,0 0.14,-0.11 0.08,-0.16 -0.03,-0.02 -0.05,-0.01 -0.09,-0.01 -0.03,-0.06 -0.07,-0.15 -0.12,-0.2 -0.05,-0.03 -0.09,-0.06 -0.15,-0.08 -0.07,-0.03 -0.06,-0.02 -0.07,0.03l-0.04 0.1c-0.01,0.02 -0.02,0.03 -0.05,0.03 -0.01,-0.07 0.05,-0.1 0.05,-0.18 0,-0.06 -0.05,-0.12 -0.11,-0.12l-0.05 0c-0.05,0 -0.11,0.07 -0.11,0.13z"></path> <path class="fil1" d="M1.13 3.34l0 0.43c0,0.1 0.22,0.06 0.25,0.05 0.02,-0.07 0.01,-0.41 0.01,-0.53 0,-0.04 -0.01,-0.04 0.02,-0.06 0.02,0.02 0.02,0.02 0.02,0.07l0 0.42c0,0.15 -0.04,0.11 0.44,0.11 0.02,0 0.04,0 0.05,-0.01 0.02,-0.05 0.01,-0.06 0.01,-0.12 0,-0.02 -0.11,-0.09 -0.17,-0.17 -0.02,-0.01 -0.03,-0.02 -0.04,-0.04 -0.02,-0.02 -0.02,-0.03 -0.04,-0.05 -0.1,-0.16 -0.16,-0.36 -0.22,-0.55 -0.01,-0.04 -0.01,-0.04 -0.03,-0.06 -0.11,0.01 -0.3,0.3 -0.3,0.51z"></path> <path class="fil1" d="M2.55 2.51l0 1.26c0,0.08 0.1,0.06 0.16,0.06 0.03,0 0.06,0 0.06,-0.03l0 -1.32c0,-0.04 -0.08,-0.03 -0.16,-0.03 -0.03,0 -0.06,0.02 -0.06,0.06z"></path> <path class="fil1" d="M1.97 3.7c0,0.1 -0.01,0.13 0.07,0.13 0.09,0 0.4,0.01 0.47,0 0.01,-0.04 0,-0.77 0,-0.95 0,-0.03 0.01,-0.04 -0.03,-0.04 -0.03,0 -0.04,0.07 -0.05,0.1 -0.1,0.28 -0.17,0.54 -0.41,0.71 -0.02,0.02 -0.05,0.03 -0.05,0.05z"></path> <path class="fil1" d="M3.23 3.16c0,-0.03 0.01,-0.03 0.03,-0.05l0.24 -0.21c0.05,-0.04 0.06,-0.07 0.11,-0.07 0.01,0.03 0.02,0.03 -0.07,0.1l-0.25 0.21c-0.02,0.03 -0.02,0.03 -0.06,0.02zm-0.12 -0.05c0.04,0.05 0.14,0.15 0.16,0.18l0.34 -0.3c0.01,-0.01 0.02,-0.01 0.03,-0.02 0.01,-0.01 0.01,-0.02 0.03,-0.03 0.06,-0.05 0.08,-0.05 -0.02,-0.15 -0.03,-0.03 -0.04,-0.06 -0.08,-0.08l-0.46 0.4z"></path> <path class="fil1" d="M2.17 3.12c-0.05,-0.01 -0.05,-0.04 -0.08,-0.05 0,0.04 -0.01,0.08 -0.03,0.11 0,0 -0.01,0 -0.01,0l-0.02 0.03c0.01,0.02 0.01,0 0.02,0.02 0.06,0.06 0.04,0.18 0.04,0.29 0.02,-0.01 0.01,0 0.04,-0.03 0.14,-0.16 0.2,-0.41 0.27,-0.62 0.01,-0.02 0.02,-0.04 0.02,-0.05 0.01,-0.03 0,-0.04 -0.02,-0.05 -0.09,-0.06 -0.09,0.01 -0.15,0.16 -0.02,0.06 -0.05,0.15 -0.08,0.19z"></path> <path class="fil1" d="M1.81 3.51c0,-0.09 -0.03,-0.27 0.06,-0.3l0 -0.01c-0.06,-0.02 -0.06,-0.09 -0.06,-0.14 -0.03,0.02 -0.05,0.05 -0.08,0.06 -0.03,-0.02 -0.05,-0.09 -0.07,-0.14 -0.01,-0.03 -0.06,-0.22 -0.09,-0.23 -0.02,-0.01 -0.06,0.01 -0.08,0.03 -0.03,0.02 0.01,0.08 0.03,0.15 0.05,0.15 0.1,0.34 0.19,0.46l0.07 0.1c0,0 0.01,0.01 0.01,0.01 0.01,0.01 0,0.01 0.02,0.01z"></path> <path class="fil1" d="M1.97 2.51c-0.07,0 -0.12,-0.01 -0.18,-0.01l0 0.17c0,0.15 0.24,0.22 0.32,0.05 0.03,-0.05 0.02,-0.15 0.02,-0.22 -0.03,-0.01 -0.04,0 -0.07,0.01 -0.04,0 -0.06,0 -0.09,0z"></path> <path class="fil1" d="M1.85 3.33l0 0.22c0,0.03 0.02,0.03 0.05,0.06 0.01,0.01 0.03,0.02 0.05,0.04 0.13,-0.09 0.1,-0.07 0.1,-0.3 0,-0.17 -0.2,-0.15 -0.2,-0.02z"></path> <path class="fil1" d="M1.63 2.74c0,0.04 0.09,0.25 0.11,0.31 0.03,-0.01 0.06,-0.06 0.09,-0.09 0.03,-0.03 0.07,-0.07 0.09,-0.1 -0.14,-0.01 -0.14,-0.15 -0.2,-0.15 -0.02,0 -0.09,0 -0.09,0.03z"></path> <path class="fil1" d="M1.98 2.86c0.01,0.03 0.15,0.18 0.18,0.19 0.02,-0.04 0.11,-0.28 0.11,-0.31 0,-0.02 -0.04,-0.03 -0.07,-0.03 -0.07,0 -0.03,0.07 -0.14,0.13 -0.02,0.01 -0.04,0.02 -0.08,0.02z"></path> <path class="fil1" d="M1.85 3.02c0,0.05 -0.01,0.09 0.02,0.13 0.04,0.04 0.18,0.08 0.18,-0.13 0,-0.01 -0.09,-0.11 -0.1,-0.12 -0.02,0.03 -0.1,0.09 -0.1,0.12z"></path> <path class="fil1" d="M3.62 2.68c0.02,0.03 0.13,0.16 0.14,0.16 0.04,0 0.06,-0.02 0.06,-0.05 0,-0.03 -0.08,-0.1 -0.1,-0.12 -0.03,-0.05 -0.06,-0.06 -0.1,0.01z"></path> <path class="fil1" d="M3.05 3.32c0.06,0 0.11,-0.01 0.17,-0.01 -0.01,-0.02 -0.11,-0.14 -0.14,-0.15 0,0.03 0,0.06 -0.01,0.08 -0.01,0.03 -0.02,0.05 -0.02,0.08z"></path> </g> </g> </g> </svg>