<svg xmlns="http://www.w3.org/2000/svg" xmlns:xlink="http://www.w3.org/1999/xlink" xml:space="preserve" width="91px" height="91px" style="shape-rendering:geometricPrecision; text-rendering:geometricPrecision; image-rendering:optimizeQuality; fill-rule:evenodd; clip-rule:evenodd" viewBox="0 0 5.39 5.39"> <defs> <style type="text/css"> .fil1 {fill:#083264} .fil0 {fill:white} </style> </defs> <g id="Layer_x0020_1"> <metadata id="CorelCorpID_0Corel-Layer"></metadata> <g id="_1718063904784"> <circle class="fil0" cx="2.69" cy="2.69" r="2.69"></circle> <path class="fil1" d="M2.75 3.69c0.01,-0.17 0.03,-0.21 -0.14,-0.21 -0.33,0 -0.62,0.04 -0.88,-0.15 -0.25,-0.19 -0.43,-0.58 -0.24,-0.98 0.32,-0.68 1.15,-0.34 1.25,-0.47 0.02,-0.03 0.02,-0.12 0.01,-0.16 -0.01,-0.14 -0.18,-0.09 -0.28,-0.22 -0.07,-0.09 -0.06,-0.14 -0.08,-0.19 -0.01,-0.02 0,0 -0.02,-0.02l-0.02 -0.02c-0.07,0.01 -0.16,0 -0.24,0 -0.21,0 0.02,0.19 -0.36,0.34 -0.13,0.06 -0.22,0.08 -0.36,-0.01 -0.1,-0.06 -0.12,0.02 -0.26,0.16 -0.08,0.06 -0.04,0.08 0,0.15 0.1,0.17 -0.03,0.43 -0.12,0.51 -0.03,0.03 -0.08,0.06 -0.15,0.07 -0.09,0.03 -0.09,0.05 -0.08,0.15 0,0.06 -0.02,0.18 0.01,0.22 0.06,0.07 0.23,-0.03 0.36,0.35 0.07,0.21 -0.08,0.3 -0.06,0.37 0,0.02 0.19,0.22 0.24,0.23 0.06,0 0.17,-0.14 0.36,-0.06 0.14,0.06 0.21,0.08 0.28,0.19 0.09,0.17 -0.05,0.18 0.29,0.18 0.21,0 0.07,-0.07 0.22,-0.25 0.1,-0.11 0.21,-0.06 0.27,-0.18zm0.5 -0.16c0.17,-0.04 0.21,0.22 0.06,0.25 -0.17,0.04 -0.23,-0.21 -0.06,-0.25zm-0.3 -0.11l0.02 0.03c0.02,0.01 0.02,0.01 0.03,0.03 0.08,0.08 -0.03,0.07 0.01,0.23 0.07,0.34 0.57,0.27 0.54,-0.08 0,-0.08 -0.04,-0.11 -0.05,-0.15 -0.1,-0.05 -0.08,-0.12 -0.31,-0.09 -0.02,-0.03 -0.04,-0.05 -0.06,-0.08 -0.1,-0.09 -0.09,-0.15 -0.26,-0.15 -0.19,0 -0.38,0 -0.57,0 -0.13,0 -0.1,0.13 -0.09,0.16 0.03,0.06 0.16,0.04 0.24,0.04 0.09,0 0.19,0 0.28,0 0.11,0 0.18,-0.02 0.22,0.06zm0.34 -1.84c0.17,-0.04 0.21,0.22 0.06,0.25 -0.18,0.04 -0.23,-0.22 -0.06,-0.25zm-0.22 0.28c-0.03,0.01 -0.12,0.12 -0.15,0.16 -0.06,0.05 -0.21,0.03 -0.3,0.03 -0.1,0 -0.21,-0.01 -0.32,-0.01 -0.14,0.01 -0.11,0.16 -0.07,0.19 0.04,0.03 0.55,0.02 0.64,0.02 0.14,0 0.14,-0.04 0.21,-0.11l0.16 -0.17c0.32,0.06 0.46,-0.3 0.24,-0.48 -0.15,-0.13 -0.39,-0.04 -0.44,0.15 -0.02,0.11 0.01,0.13 0.03,0.22zm0.49 1.05c-0.02,-0.18 0.24,-0.2 0.26,-0.03 0.01,0.17 -0.25,0.18 -0.26,0.03zm-0.13 -0.12l-1.15 0c-0.07,0 -0.08,0.03 -0.08,0.1 0,0.13 0.1,0.1 0.22,0.1l1.01 0c0.04,0.1 0.15,0.2 0.3,0.17 0.13,-0.02 0.23,-0.13 0.23,-0.26 0.01,-0.26 -0.35,-0.44 -0.53,-0.11zm0.86 -0.74c0.18,-0.06 0.24,0.2 0.09,0.25 -0.17,0.04 -0.25,-0.19 -0.09,-0.25zm-0.21 0.02c-0.55,0.01 -0.44,-0.07 -0.69,0.18 -0.23,0.22 -0.11,0.17 -0.71,0.17 -0.09,0 -0.19,0 -0.29,0 -0.1,0 -0.19,-0.03 -0.19,0.09 0,0.13 0.06,0.11 0.18,0.11 0.19,0 0.76,0.01 0.87,0 0.08,-0.01 0.14,-0.08 0.18,-0.12 0.21,-0.22 0.17,-0.23 0.36,-0.23 0.09,0 0.19,0 0.29,0.01 0.04,0.06 0.05,0.09 0.11,0.13 0.16,0.11 0.42,0 0.42,-0.23 0.01,-0.14 -0.1,-0.25 -0.21,-0.28 -0.08,-0.02 -0.16,0 -0.21,0.04 -0.07,0.04 -0.09,0.1 -0.11,0.13z"></path> </g> </g> </svg>