<svg xmlns="http://www.w3.org/2000/svg" xmlns:xlink="http://www.w3.org/1999/xlink" xml:space="preserve" width="91px" height="91px" style="shape-rendering:geometricPrecision; text-rendering:geometricPrecision; image-rendering:optimizeQuality; fill-rule:evenodd; clip-rule:evenodd" viewBox="0 0 203.64 203.64"> <defs> <style type="text/css"> .fil1 {fill:#083264} .fil0 {fill:white} </style> </defs> <g id="Layer_x0020_1"> <metadata id="CorelCorpID_0Corel-Layer"></metadata> <g id="_1718034771024"> <circle class="fil0" cx="101.82" cy="101.82" r="101.82"></circle> <path class="fil1" d="M112.05 107.83l9.8 -0.07 -0.27 2.9c-1.75,0.46 -4.24,0.3 -6.23,0.31 -3.03,0.01 -3.23,-0.23 -3.3,-3.14zm-9.95 -57.81c-1.12,0.86 -0.65,1.58 0.21,3.12 1.98,3.51 4.58,1.96 2.58,-1.57 -0.6,-1.07 -1.36,-2.65 -2.79,-1.55zm13.37 -1.95c0,1.61 -0.12,2.02 0.44,3.4 3.13,0.59 2.64,-1.84 2.4,-4.96 -1.61,-1.02 -2.84,-1.01 -2.84,1.56zm22.79 38.76c-2.96,1.52 2.23,4.55 3.57,4.04 3.27,-1.24 -2.17,-4.75 -3.57,-4.04zm2.16 -26.45c-0.86,0.43 -2.45,0.82 -2.9,1.89 -1.32,3.14 4.01,1.81 5,-0.09 0.95,-1.84 -0.84,-2.44 -2.1,-1.8zm-45.98 26.48c-5.64,2.26 -2.94,4.52 -1.17,3.98 0.61,-0.18 2.8,-1.57 2.95,-1.82 0.93,-1.52 -0.41,-2.72 -1.78,-2.16zm-1.43 -10.59c0.23,-1.77 -0.18,-2.19 -1.89,-2.3 -1.31,-0.09 -3.13,-0.19 -3.59,0.83 -1.32,2.94 4.1,2.49 5.48,1.47zm39.17 -26.09c-0.6,-0.36 -0.98,-0.48 -1.97,-0.44 -0.51,0.54 -3.24,4.1 -1.34,5.1 1.45,0.77 2.05,-0.47 2.55,-1.35 0.73,-1.29 1.31,-1.68 0.76,-3.31zm-40.45 10.12c-2.53,1.92 3.03,4.44 4.1,3.8 2.7,-1.6 -2.65,-4.91 -4.1,-3.8zm49.41 16.44l2.46 0.28 0.67 -0.05c3.27,-0.03 2.98,-2.78 0.35,-3 -3.05,-0.26 -4.5,0.03 -3.48,2.77zm-85.54 50.06c2.33,-1.25 9.66,-6.18 11.58,-6.63l16.22 27.25 -11.47 6.99 -12.34 -20.67c-1.08,-1.84 -3.36,-5.19 -3.99,-6.94zm27.78 14.58c-2.04,-3.54 -10.43,-17.06 -11.37,-19.21 1.06,-1 6.16,-3.76 7.56,-4.56 1.25,-0.72 6.72,-4.15 7.55,-4.2 0.91,-0.05 16.06,4.62 18.42,5.29 2.71,0.78 6.66,1.68 9.24,2.72 3.41,1.38 3.3,5.71 0.53,7.36 -2.33,1.38 -6.73,-0.54 -9.22,-1.31 -5.26,-1.63 -8.22,-3.44 -8.26,0.07 1.56,1.59 14.35,5.21 16.91,4.64 3.09,-0.69 4.56,-2.56 5.42,-5.55 0.47,-1.61 -0.4,-0.8 3.24,-2.4l19.47 -8.45c6.7,-2.67 5.94,2.28 5.12,3.45 -0.73,1.04 -17.11,13.25 -18.93,14.64 -2.23,1.7 -4,3.06 -6.27,4.69 -11.86,8.53 -12.12,7.64 -23.12,2.63 -2.01,-0.92 -5.93,-3.14 -8.23,-3.09 -2.92,0.06 -5.59,2.45 -8.06,3.28zm1.76 2.72c1.01,-0.81 5.16,-3.04 6.61,-2.98 1.31,0.05 5.43,2.2 6.81,2.84 4.12,1.91 9.35,5.24 14.64,3.65 6.91,-2.09 27.11,-18.65 34.04,-23.81 1.76,-1.31 3.92,-2.8 4.2,-5.37 0.32,-2.86 -1.06,-5.44 -3.29,-6.14 -4.8,-1.52 -21,7.56 -28.14,10.14 -2.01,-1.98 -0.95,-2.78 -4.87,-4.03l-20.84 -6.07c-8.01,-2.37 -6.24,-3.04 -12.93,0.77 -3.3,1.87 -7.85,4.95 -11.11,6.33 -2.26,-4.02 -2.12,-3.55 -6.44,-0.95l-7.91 4.71c-1.87,1.11 -3.29,1.55 -3.74,2.72 -0.49,1.28 7.69,14.14 8.84,16.05 1.71,2.82 3.18,5.31 4.87,8.09 5.84,9.63 3.1,9.64 13.58,3.34 10.93,-6.56 7.54,-4.02 5.68,-9.29zm21.92 -44.26l19.8 -0.04c-0.05,5.98 -0.2,4.99 -9.84,4.99 -8.65,0 -9.96,1.19 -9.96,-4.95zm8.54 -16.18l2.67 0.03 0.01 13.1 -2.57 0.05 -0.11 -13.18zm-2.99 -3.07c-1.04,0.11 -1.48,-0.03 -2.08,-0.44 -0.44,-2.29 2.1,-2.76 2.08,0.44zm10.45 -0.19l-1.79 0.33c0.03,-1.24 -0.06,-2.59 1.32,-2.29 0.6,0.14 1.2,0.68 0.8,1.58l-0.33 0.38zm3.98 13.62l-0.14 2.79 -5.63 -0.23 0.02 -12.91c9.03,-0.05 4.82,-10.92 -0.92,-7.69 -1.49,0.84 -2.08,2.24 -2.06,4.63l-2.68 0.08c-0.21,-8.95 -10.63,-5.04 -7.78,0.79 0.87,1.76 2.12,2.01 4.74,2.25l0.02 13.05 -5.47 0.04c-0.68,-5.29 -0.47,-7.82 -3.11,-11.84 -2.05,-3.12 -4.25,-5.75 -4.01,-11.01 0.82,-18.08 29.19,-20.36 33.46,-2.81 2.58,10.59 -6.15,12.69 -6.44,22.86zm-18.06 13.86c0,0 0,0 0,0z"></path> </g> </g> </svg>