<svg xmlns="http://www.w3.org/2000/svg" xmlns:xlink="http://www.w3.org/1999/xlink" xml:space="preserve" width="91px" height="91px" style="shape-rendering:geometricPrecision; text-rendering:geometricPrecision; image-rendering:optimizeQuality; fill-rule:evenodd; clip-rule:evenodd" viewBox="0 0 5.41 5.41"> <defs> <style type="text/css"> .fil1 {fill:#083264} .fil0 {fill:white} </style> </defs> <g id="Layer_x0020_1"> <metadata id="CorelCorpID_0Corel-Layer"></metadata> <g id="_1718451251280"> <circle class="fil0" cx="2.71" cy="2.71" r="2.71"></circle> <path class="fil1" d="M2.56 1.33c0.01,0.01 -0.01,0.08 -0.01,0.1 0,0.02 -0.01,0.08 -0.02,0.09 -0.01,0.02 -0.04,0.06 -0.05,0.07 -0.06,0.07 -0.16,0.11 -0.26,0.1 -0.08,-0.01 -0.12,-0.04 -0.17,-0.08 -0.02,-0.02 -0.04,-0.04 -0.07,-0.05 -0.03,-0.03 -0.03,-0.04 -0.09,-0.03 0,0 -0.01,0.01 -0.01,0.01 -0.03,0.01 -0.08,0.07 -0.1,0.08 -0.01,0.02 -0.03,0.05 -0.03,0.08 0.01,0.02 0.01,0.03 0.02,0.04 0.03,0.03 0.1,0.12 0.11,0.15 0.03,0.05 0.04,0.1 0.04,0.17 -0.02,0.12 -0.09,0.2 -0.18,0.24 -0.09,0.04 -0.22,0.03 -0.26,0.06 -0.03,0.02 -0.03,0.05 -0.03,0.07l0 0.05 0.77 0c0,-0.04 0.01,-0.07 0.01,-0.11 0.01,-0.03 0.02,-0.06 0.03,-0.09 0.18,-0.38 0.71,-0.38 0.89,0 0.02,0.04 0.03,0.09 0.04,0.14 0,0.02 0,0.04 0,0.06l0.78 0 0 -0.06c-0.01,-0.01 -0.01,-0.02 -0.02,-0.04 -0.02,-0.04 -0.05,-0.04 -0.1,-0.04 -0.06,-0.01 -0.13,-0.02 -0.18,-0.04 -0.16,-0.07 -0.22,-0.26 -0.14,-0.41 0.03,-0.05 0.12,-0.15 0.13,-0.18 0.01,-0.03 -0.01,-0.06 -0.02,-0.08 -0.01,-0.01 -0.07,-0.07 -0.08,-0.08 -0.01,0 -0.03,-0.01 -0.03,-0.02 -0.02,0 -0.04,-0.01 -0.06,0 -0.01,0.01 -0.11,0.08 -0.13,0.09 -0.09,0.08 -0.21,0.1 -0.33,0.03 -0.06,-0.03 -0.11,-0.08 -0.13,-0.15 -0.01,-0.02 -0.03,-0.1 -0.02,-0.12 -0.01,-0.01 -0.01,-0.09 -0.02,-0.11 -0.01,-0.02 -0.03,-0.03 -0.05,-0.04l-0.02 -0.01 -0.12 0c-0.01,0 -0.02,0.01 -0.04,0.01 -0.01,0.01 -0.01,0.01 -0.02,0.02 -0.03,0.03 -0.02,0.06 -0.03,0.08zm0.84 1.24c-0.09,0.01 -0.16,0.06 -0.2,0.11 -0.05,0.06 -0.07,0.12 -0.07,0.23 0.01,0.01 0.01,0.02 0.01,0.03 0.01,0.04 0.03,0.08 0.05,0.12 0.01,0 0.01,0.01 0.02,0.02 0.03,0.03 0.1,0.08 0.15,0.08l0.14 0c0.03,0 0.03,0 0.06,-0.01 0.06,-0.02 0.11,-0.07 0.14,-0.12 0.03,-0.06 0.04,-0.09 0.04,-0.1 0.01,-0.06 0.01,-0.1 -0.01,-0.16 -0.02,-0.04 -0.04,-0.07 -0.06,-0.1 -0.03,-0.03 -0.06,-0.06 -0.1,-0.08 -0.05,-0.02 -0.09,-0.03 -0.15,-0.03l-0.02 0.01zm-1.12 0.24c0,-0.01 -0.02,-0.04 -0.02,-0.05 0,-0.02 -0.01,-0.03 -0.02,-0.05 -0.05,-0.08 -0.13,-0.13 -0.23,-0.14 -0.15,-0.02 -0.27,0.08 -0.31,0.17 -0.08,0.16 0,0.33 0.13,0.4 0.05,0.02 0.05,0.02 0.1,0.02 0.04,0 0.08,0 0.12,0 0.02,0 0.03,0 0.05,-0.01 0.09,-0.04 0.16,-0.13 0.18,-0.23 0.01,-0.06 0,-0.09 0,-0.11zm0.3 -0.04c-0.05,0.02 -0.1,0.07 -0.12,0.1 -0.11,0.16 -0.05,0.37 0.11,0.45 0.04,0.02 0.04,0.02 0.08,0.02 0.04,0 0.08,0 0.12,0 0.03,0 0.05,0 0.08,-0.02 0.03,-0.01 0.05,-0.03 0.07,-0.05 0.06,-0.05 0.1,-0.14 0.09,-0.23 0,-0.05 -0.01,-0.09 -0.01,-0.1 -0.01,0 -0.02,-0.04 -0.03,-0.05 -0.01,-0.02 -0.02,-0.03 -0.04,-0.05 -0.05,-0.06 -0.13,-0.1 -0.22,-0.1 -0.03,0 -0.05,0.01 -0.07,0.01 -0.02,0.01 -0.05,0.01 -0.06,0.02zm0.65 0.47c-0.05,0.01 -0.08,0.03 -0.12,0.05 -0.02,0.02 -0.08,0.07 -0.08,0.09 0.01,0.01 0.02,0.01 0.03,0.02 0.07,0.05 0.14,0.12 0.17,0.22 0.01,0.06 0.01,0.12 0.01,0.19l0 0.18c0,0 0,0 0,0 0,0.01 0,0.01 0,0.01 0.02,0 0.07,0.01 0.09,0.01 0.09,0.01 0.18,0.01 0.27,-0.01 0.1,-0.01 0.18,-0.03 0.27,-0.07l0.02 -0.01c0.01,0 0.01,0 0.01,0 0,-0.12 0,-0.23 0,-0.34 0,-0.06 0,-0.1 -0.02,-0.15 -0.03,-0.07 -0.09,-0.14 -0.17,-0.17 -0.05,-0.02 -0.09,-0.02 -0.14,-0.02 -0.07,0 -0.28,-0.01 -0.34,0zm-1.06 0.76c0.01,-0.02 0,-0.17 0,-0.21 0,-0.07 0,-0.12 0.02,-0.19 0.02,-0.05 0.05,-0.09 0.08,-0.13 0.03,-0.03 0.08,-0.07 0.12,-0.09 0,-0.01 -0.03,-0.04 -0.04,-0.05 -0.1,-0.1 -0.17,-0.09 -0.31,-0.09 -0.06,0 -0.11,0 -0.17,0 -0.06,0 -0.1,0 -0.15,0.01 -0.12,0.05 -0.2,0.16 -0.2,0.29l0 0.37c0,0.01 0,0.01 0.01,0.01l0.05 0.03c0.08,0.02 0.15,0.04 0.23,0.05 0.1,0.02 0.28,0.02 0.36,0zm0.59 0.19c0.01,0 0.1,-0.01 0.12,-0.01 0.06,-0.01 0.14,-0.02 0.2,-0.05 0.03,-0.01 0.06,-0.02 0.09,-0.03 0,-0.04 0,-0.08 0,-0.12 0,-0.04 0,-0.08 0,-0.12 0,-0.07 0,-0.16 -0.02,-0.23 -0.02,-0.08 -0.09,-0.15 -0.16,-0.19 -0.02,-0.01 -0.07,-0.02 -0.1,-0.02 -0.02,-0.01 -0.29,0 -0.33,0 -0.1,0 -0.18,0.04 -0.23,0.09 -0.03,0.03 -0.05,0.06 -0.06,0.11 -0.02,0.05 -0.02,0.09 -0.02,0.15 0,0.05 0,0.11 0,0.16 0,0.04 0,0.14 0,0.17 0.1,0.05 0.23,0.08 0.35,0.09 0.01,0 0.05,0 0.06,0l0.1 0z"></path> </g> </g> </svg>