<svg xmlns="http://www.w3.org/2000/svg" xmlns:xlink="http://www.w3.org/1999/xlink" id="Layer_1" x="0px" y="0px" viewBox="0 0 91 91" style="enable-background:new 0 0 91 91;" xml:space="preserve"> <style type="text/css"> .st0{fill-rule:evenodd;clip-rule:evenodd;fill:#FFFFFF;} .st1{fill-rule:evenodd;clip-rule:evenodd;fill:#0B2852;} </style> <g> <circle class="st0" cx="45.5" cy="45.5" r="45.5"></circle> <path class="st1" d="M73.05,73.76l-18.64,0.01c0.28-1.57,5.72-11.11,6.32-13.25c-0.99-0.19-1.91-0.65-2.91-0.57 c-0.57,0.96-1.08,2.22-1.58,3.23c-0.48,0.97-1.1,2.24-1.57,3.22c-4.94,10.38-3,8.82-19.9,8.82c-3.07,0-6.23,0.44-7.78-1.76 c-0.69-0.98-0.87-2.55-0.5-3.93c0.5-1.83,1.11-1.7,2.29-2.52c1.05-0.73,1.95-5.83,3.2-6.41c1.5-0.7,2.85,0.42,2.55,1.98 c-0.22,1.16-1.1,2.46-1.38,3.81l7.95-0.72c2.38-0.14,1.7-0.22,3.65-4.74c0.64-1.49,1.12-2.61,1.73-4.07 c2.23-5.24,4.11-11.19,10.39-12.19c7.35-1.18,11.88,3.19,13.33,9.18c0.42,1.72,0.5,3.06,0.79,4.85 C71.48,61.58,73.05,72.07,73.05,73.76L73.05,73.76z M41.3,61.44c0.42-0.49,1.11-2.44,0.88-3.11l-4.72-7.42 c-1.44-2.25-1.43-3.7-4.34-2.39l-11.29,5.03c-3.28,1.44-4.72,1.57-3.41,3.53c0.98,1.47,5.8,9.41,6.38,9.8l1.65-1.55 c-0.2-0.92-4.51-7.27-5.31-8.64c0.54-0.49,12.44-5.77,13.25-5.92C35.61,52.24,40.29,60.3,41.3,61.44L41.3,61.44z M59.68,24.11 c-0.63-2.48-2.8-5.03-4.58-6.2c-10.32-6.8-21.26,3.26-17.48,14.19c-0.75,0.73-2.14,1.14-3.11,2.14l0.66,1.87 c1.39,0.16,3.49-0.91,4.84-1.17c0.85,9.23,14.49,12.61,19.31,3.08c2.31-4.57,0.18-8.14,0.1-9.18c1.11-0.64,2.49-0.47,2.59-2.31 C62.11,24.68,60.97,24.45,59.68,24.11L59.68,24.11z M58.39,26.32c-0.53,0.4-16.92,5.61-18.04,5.68c-0.17-0.26-0.04-0.01-0.24-0.45 l-0.43-1.45c-2.2-8.93,7.54-15.34,14.29-9.89c0.84,0.68,1.84,1.64,2.48,2.71C57.29,24.37,57.15,25.42,58.39,26.32z"></path> </g> </svg>