<svg xmlns="http://www.w3.org/2000/svg" xmlns:xlink="http://www.w3.org/1999/xlink" xml:space="preserve" width="91px" height="91px" style="shape-rendering:geometricPrecision; text-rendering:geometricPrecision; image-rendering:optimizeQuality; fill-rule:evenodd; clip-rule:evenodd" viewBox="0 0 4.95 4.95"> <defs> <style type="text/css"> .fil1 {fill:#083264} .fil0 {fill:white} </style> </defs> <g id="Layer_x0020_1"> <metadata id="CorelCorpID_0Corel-Layer"></metadata> <g id="_1718023666816"> <circle class="fil0" cx="2.48" cy="2.48" r="2.48"></circle> <g> <path class="fil1" d="M2.49 3.37l0 -1.17c0,-0.01 0.01,-0.02 0.03,-0.02 0.16,0 0.37,-0.03 0.43,0.15l0.15 0.84c0.02,0.09 0.03,0.11 0.03,0.2 0,0.04 -0.08,0.03 -0.14,0.03l-0.49 0c0,-0.02 -0.01,-0.02 -0.01,-0.03zm-1.08 0.17c0,0.02 0,0.03 0,0.05l0 0.2c0,0.02 0,0.02 0,0.04 0.03,0 0.03,0.01 0.06,0.01l2.09 0c0.03,0 0.03,-0.01 0.06,-0.01 0,-0.02 0,-0.02 0,-0.04l0 -0.2c0,-0.02 0,-0.03 0,-0.05 -0.04,-0.01 -0.27,0.01 -0.29,-0.01 -0.01,-0.01 -0.01,-0.08 -0.01,-0.14l-0.12 -0.64c-0.04,-0.17 -0.06,-0.35 -0.1,-0.52 -0.03,-0.17 -0.18,-0.25 -0.35,-0.25l-0.47 0c-0.1,0 -0.17,0.03 -0.23,0.07 -0.06,0.04 -0.1,0.1 -0.12,0.18l-0.14 0.77c-0.02,0.09 -0.03,0.18 -0.05,0.26 -0.01,0.04 -0.01,0.08 -0.02,0.13l-0.01 0.14c-0.02,0.03 -0.21,-0.01 -0.3,0.01z"></path> <path class="fil1" d="M3.05 1.97c0.02,0.04 0.16,0.18 0.17,0.18 0.03,0 0.09,-0.07 0.12,-0.1 0.05,-0.04 0.35,-0.33 0.35,-0.36 0,-0.02 -0.1,-0.11 -0.13,-0.14 -0.02,-0.03 -0.02,-0.02 -0.05,-0.04 -0.04,0.03 -0.44,0.42 -0.46,0.46z"></path> <path class="fil1" d="M2.32 1.12c0,0.03 0,0.03 0,0.06l0 0.55c0,0.08 0.06,0.06 0.21,0.06 0.03,0 0.05,0 0.05,-0.03l0 -0.62c0,-0.01 -0.01,-0.02 -0.02,-0.02 -0.05,0 -0.21,-0.01 -0.24,0z"></path> <path class="fil1" d="M1.73 2.15c0.02,0 0.16,-0.15 0.17,-0.18 -0.02,-0.04 -0.42,-0.43 -0.45,-0.46 -0.03,0.01 -0.03,0.01 -0.05,0.03l-0.12 0.12c-0.03,0.04 0,0.06 0.03,0.09l0.33 0.33c0.02,0.02 0.06,0.07 0.09,0.07z"></path> <path class="fil1" d="M3.4 2.53c0,0.08 0.03,0.18 0.04,0.25 0.08,0 0.25,-0.04 0.33,-0.06l0.24 -0.05c0.03,0 0.05,-0.01 0.08,-0.02 0,-0.06 -0.02,-0.13 -0.03,-0.19 -0.01,-0.04 -0.01,-0.04 -0.02,-0.06l-0.6 0.12c-0.03,0 -0.02,0.01 -0.04,0.01z"></path> <path class="fil1" d="M0.86 2.65l0.61 0.13c0.03,0 0.01,0 0.04,0 0.02,-0.07 0.05,-0.17 0.05,-0.25 -0.02,0 -0.02,-0.01 -0.04,-0.01l-0.12 -0.03c-0.05,-0.01 -0.1,-0.02 -0.16,-0.03 -0.06,-0.01 -0.29,-0.06 -0.32,-0.06 -0.03,0.04 -0.06,0.2 -0.06,0.25z"></path> </g> </g> </g> </svg>