<svg xmlns="http://www.w3.org/2000/svg" xmlns:xlink="http://www.w3.org/1999/xlink" id="Layer_1" x="0px" y="0px" viewBox="0 0 91 91" style="enable-background:new 0 0 91 91;" xml:space="preserve"> <style type="text/css"> .st0{fill-rule:evenodd;clip-rule:evenodd;fill:#FFFFFF;} .st1{fill-rule:evenodd;clip-rule:evenodd;fill:#0B2852;} </style> <g> <ellipse transform="matrix(0.9239 -0.3827 0.3827 0.9239 -13.9486 20.8756)" class="st0" cx="45.5" cy="45.5" rx="45.5" ry="45.5"></ellipse> <path class="st1" d="M26.51,18.39l10.88,0.07l0,5.82c-3.6,2.15-5.14,2.08-8.71,6.1c-2.64,2.97-3.98,5.56-5.23,9.87l-5.95,0.07 c-1.25-0.37-1.03-1.84-3.16-1.84c-1.45,0-2.7,0.96-2.86,2.43c-0.19,1.71,0.82,2.92,2.14,3.19c2.96,0.59,2.29-1.65,4.37-1.65 l4.97,0.02l0,5.98L12.39,48.4c-1.99-2.96-5.48-1.78-5.57,1c-0.07,2.33,3.1,4.78,5.58,1.26l10.96-0.04 c1.65,2.92,1.74,8.21,9.2,13.44c1.5,1.05,3.16,1.56,4.79,2.62l0.05,5.94l-11.04,0.05c-3.15-3.97-5.61-0.71-5.69,0.83 c-0.17,3.29,3.93,4.26,5.58,1.24l13.18-0.02l0.06-7.24c1.51-0.07,3.93,0.64,6.02,0.65c2.24,0,4.46-0.71,6.02-0.65l0.03,7.18 l13.22,0.06c1.68,3.1,5.75,2,5.58-1.23c-0.09-1.62-2.68-4.75-5.61-0.87l-11.04,0.01l-0.07-5.92c3.55-2.19,5.15-2.07,8.82-6.24 c4.37-4.96,4.37-8.39,5.22-9.84l10.96-0.02c2.41,3.5,5.5,1.21,5.58-1c0.1-2.92-3.51-4.27-5.58-1.26l-10.64,0.01l0-5.93l5.52-0.08 c1.29,0.46,1.28,1.92,3.41,1.79c1.6-0.1,2.68-1.27,2.59-3.03c-0.08-1.55-1.15-2.55-2.63-2.64c-2.35-0.13-2.08,1.45-3.37,1.83 l-5.95-0.01c-1.26-4.35-2.48-6.74-5.11-9.78c-3.44-3.98-5.28-4.12-8.82-6.23l-0.01-5.77l11.23-0.12c1.48,2.98,5.35,1.93,5.5-0.89 c0.17-3.29-3.97-4.26-5.58-1.23c-2.55,0.03-11.52-0.32-13.28,0.16l-0.03,7.09c-2.1-0.21-3.82-0.67-6.21-0.64 c-2.1,0.02-4.29,0.71-5.77,0.64l-0.05-7.19c-3.78-0.21-9.23-0.05-13.21-0.06c-1.71-3.07-5.75-2.01-5.58,1.23 c0.07,1.38,1.18,2.51,2.47,2.65C25.32,20.4,25.37,19.05,26.51,18.39L26.51,18.39z M39.63,42.87c0.01-2.36-0.02-3.95,1.27-5.63 c2.32-3.03,6.88-3.04,9.2,0c1.38,1.82,1.13,3.05,1.31,5.58c1.12,0.82,1.74,0.16,1.89,1.69l-0.08,10.42 c-2.8,1.58-12.58,1.59-15.49,0l0.03-11.21L39.63,42.87L39.63,42.87z M41.54,42.63c-0.23-7.74,8.18-7.63,7.9-0.03L41.54,42.63 L41.54,42.63z M44.06,53.52c-0.01-1.06,0.08-1.97,0.2-3c0.21-1.83,0.16-1.21-0.52-2.31c-0.96-1.56,0.26-3.15,1.76-3.15 c1.74,0,2.65,1.72,1.66,3.29c-0.63,1-0.32-0.05-0.47,1.05l0.26,4.16L44.06,53.52L44.06,53.52z M29.72,45.5 c0-8.8,7.17-15.78,15.78-15.79c8.71,0,15.78,7.1,15.78,15.79c0,8.61-7,15.73-15.54,15.73C36.49,61.23,29.71,54.09,29.72,45.5z"></path> </g> </svg>