<svg xmlns="http://www.w3.org/2000/svg" xmlns:xlink="http://www.w3.org/1999/xlink" xml:space="preserve" width="91px" height="91px" style="shape-rendering:geometricPrecision; text-rendering:geometricPrecision; image-rendering:optimizeQuality; fill-rule:evenodd; clip-rule:evenodd" viewBox="0 0 153.49 153.49"> <defs> <style type="text/css"> .fil1 {fill:#083264} .fil0 {fill:white} </style> </defs> <g id="Layer_x0020_1"> <metadata id="CorelCorpID_0Corel-Layer"></metadata> <g id="_1718320295888"> <circle class="fil0" cx="76.75" cy="76.75" r="76.75"></circle> <path class="fil1" d="M80.45 64.54c0,-0.98 0.87,-1.85 1.85,-1.85 2.79,0 6.56,3.98 8.03,6.45 2.11,3.54 3.25,7.35 3.25,12.4 0,1.96 -2.62,2.14 -3.41,1.06 -0.9,-1.23 0.56,-8.77 -5.72,-14.65 -1.89,-1.77 -4,-1.36 -4,-3.41zm-35.69 -16.16c0,1.61 0.72,1.81 1.98,3.07l4.55 4.55c1.26,1.26 1.46,1.98 3.07,1.98 1.49,0 2.26,-1.9 1.35,-3.21l-5.69 -5.76c-0.66,-0.65 -2.2,-2.48 -3.24,-2.48 -1.03,0 -2.02,0.8 -2.02,1.85zm53.03 7.07c0,1.38 1.05,2.19 1.85,2.19 1.3,0 2.1,-1.18 2.82,-1.89l4.71 -4.72c0.86,-0.86 2.06,-1.64 2.06,-2.99 0,-1.35 -1.01,-1.85 -2.18,-1.85 -1.19,0 -4.11,3.35 -5.01,4.25 -0.92,0.92 -4.25,3.83 -4.25,5.01zm6.9 22.05c0,1.37 0.81,2.19 2.19,2.19l10.77 0c1.34,0 2.07,-0.83 2.19,-1.73l0 -0.57c-0.12,-0.91 -0.85,-1.74 -2.19,-1.74l-10.77 0c-1.15,0 -2.19,0.78 -2.19,1.85zm-29.96 -40.73l0 10.77c0,2.93 4.04,2.93 4.04,0l0 -10.77c0,-1.34 -0.83,-2.07 -1.74,-2.19l-0.57 0c-0.9,0.12 -1.73,0.85 -1.73,2.19zm-41.08 40.73c0,1.38 0.74,2.19 2.19,2.19l10.77 0c2.94,0 2.94,-4.04 0,-4.04l-10.77 0c-1.17,0 -2.19,0.71 -2.19,1.85zm7.58 40.57l0 0.84 71.03 0c0,-6.8 -5.06,-11.44 -12.12,-11.44l-46.79 0c-6.9,0 -12.12,4.88 -12.12,10.6zm12.96 -38.04l0 23.23c0,0.39 0.12,0.5 0.5,0.5l44.11 0c0.39,0 0.5,-0.11 0.5,-0.5l0 -23.23c0,-4.07 -0.42,-7.22 -1.45,-10.33 -1.78,-5.37 -6,-10.31 -11.24,-12.5 -2.56,-1.06 -4.23,-1.52 -7.05,-1.87 -0.51,-0.07 -0.94,-0.02 -1.44,-0.07 -2.21,-0.24 -4.49,-0.01 -6.66,0.46 -2.93,0.63 -5.85,1.84 -8.21,3.58 -6.75,4.95 -9.06,12.11 -9.06,20.73z"></path> </g> </g> </svg>