<svg xmlns="http://www.w3.org/2000/svg" xmlns:xlink="http://www.w3.org/1999/xlink" xml:space="preserve" width="91px" height="91px" style="shape-rendering:geometricPrecision; text-rendering:geometricPrecision; image-rendering:optimizeQuality; fill-rule:evenodd; clip-rule:evenodd" viewBox="0 0 4.95 4.95"> <defs> <style type="text/css"> .fil1 {fill:#083264} .fil0 {fill:white} </style> </defs> <g id="Layer_x0020_1"> <metadata id="CorelCorpID_0Corel-Layer"></metadata> <g id="_1718646411456"> <circle class="fil0" cx="2.48" cy="2.48" r="2.48"></circle> <path class="fil1" d="M2.33 3.5l0.28 0c0,0.13 -0.16,0.19 -0.25,0.08 -0.02,-0.03 -0.01,-0.05 -0.03,-0.08zm0.53 -1.96c0,0.05 0.02,0.08 0.06,0.1 0.03,0.02 0.07,0.02 0.1,0.04 0.04,0.03 0.08,0.05 0.12,0.09 0.05,0.05 0.05,0.04 0.1,0.11 0.02,0.03 0.04,0.06 0.05,0.1 0.11,0.26 0.01,0.42 0.01,0.46 0,0.09 0.12,0.15 0.19,0.06 0.01,-0.02 0.02,-0.06 0.03,-0.08 0.09,-0.38 -0.09,-0.75 -0.43,-0.92 -0.06,-0.03 -0.14,-0.07 -0.19,-0.02 -0.02,0.01 -0.04,0.04 -0.04,0.06zm-1.45 0.67c0,0.07 0.02,0.34 0.13,0.34 0.08,0 0.12,-0.06 0.1,-0.13 -0.03,-0.17 -0.05,-0.25 0.02,-0.44 0.05,-0.13 0.15,-0.22 0.27,-0.29 0.03,-0.02 0.07,-0.03 0.1,-0.05 0.11,-0.05 0.05,-0.19 -0.04,-0.19 -0.07,0 -0.21,0.09 -0.27,0.14 -0.19,0.14 -0.31,0.38 -0.31,0.62zm1.61 -0.99c0,0.09 0.1,0.1 0.17,0.14 0.08,0.03 0.13,0.07 0.2,0.12l0.08 0.07c0.05,0.06 0.12,0.15 0.15,0.22 0.22,0.39 0.06,0.75 0.06,0.79 0,0.03 0.02,0.07 0.04,0.08 0.06,0.04 0.13,0.03 0.16,-0.06 0.03,-0.12 0.05,-0.23 0.05,-0.34l0 -0.05c0,-0.16 -0.04,-0.33 -0.11,-0.48 -0.02,-0.03 -0.03,-0.05 -0.04,-0.08 -0.09,-0.16 -0.28,-0.33 -0.45,-0.42 -0.04,-0.03 -0.17,-0.09 -0.21,-0.09 -0.06,0 -0.1,0.04 -0.1,0.1zm-2 0.96l0 0 0 0.02c0,0.13 0,0.17 0.03,0.31 0.02,0.08 0.05,0.16 0.14,0.15 0.03,0 0.06,-0.03 0.08,-0.06 0.02,-0.07 -0.05,-0.16 -0.05,-0.36 0,-0.22 0.04,-0.33 0.13,-0.5 0.01,-0.02 0.01,-0.02 0.02,-0.04 0.01,-0.02 0.02,-0.03 0.04,-0.06 0.06,-0.08 0.2,-0.2 0.28,-0.25l0.14 -0.07c0.04,-0.01 0.11,-0.03 0.11,-0.1 0,-0.06 -0.05,-0.1 -0.1,-0.1 -0.04,0 -0.14,0.04 -0.17,0.06 -0.05,0.02 -0.11,0.05 -0.15,0.08 -0.2,0.15 -0.32,0.29 -0.42,0.53l-0.03 0.08c-0.01,0.04 -0.01,0.06 -0.02,0.09 -0.02,0.06 -0.03,0.15 -0.03,0.22zm2.18 1.12l-1.45 0c-0.11,0 -0.01,-0.09 0.01,-0.11 0.07,-0.07 0.12,-0.17 0.16,-0.25 0.01,-0.03 0.02,-0.07 0.03,-0.1 0.02,-0.03 0.03,-0.07 0.03,-0.1 0.06,-0.3 -0.04,-0.49 0.13,-0.69 0.18,-0.23 0.51,-0.23 0.7,-0.04 0.06,0.05 0.1,0.13 0.12,0.21 0.05,0.16 -0.05,0.54 0.2,0.89l0.12 0.15c0,0.04 -0.02,0.04 -0.05,0.04zm-0.89 -1.61c-0.05,0.01 -0.16,0.06 -0.2,0.09 -0.12,0.08 -0.21,0.19 -0.26,0.33 -0.12,0.3 0.07,0.57 -0.24,0.95 -0.06,0.08 -0.11,0.09 -0.11,0.22 0,0.12 0.1,0.2 0.21,0.22 0.11,0.01 0.3,0 0.42,0 0.02,0.06 0.01,0.11 0.07,0.19 0.19,0.27 0.61,0.14 0.61,-0.19l0.37 0c0.16,0 0.27,-0.09 0.27,-0.24 0,-0.12 -0.09,-0.16 -0.17,-0.28 -0.02,-0.03 -0.03,-0.06 -0.05,-0.09 -0.01,-0.02 -0.02,-0.04 -0.02,-0.05 -0.12,-0.3 -0.01,-0.51 -0.1,-0.72 -0.08,-0.21 -0.24,-0.37 -0.47,-0.43 0,-0.13 0.03,-0.26 -0.06,-0.33 -0.09,-0.07 -0.23,-0.03 -0.26,0.08 -0.02,0.06 -0.01,0.18 -0.01,0.25z"></path> </g> </g> </svg>