<svg xmlns="http://www.w3.org/2000/svg" xmlns:xlink="http://www.w3.org/1999/xlink" id="Layer_1" x="0px" y="0px" viewBox="0 0 91 91" style="enable-background:new 0 0 91 91;" xml:space="preserve"> <style type="text/css"> .st0{fill-rule:evenodd;clip-rule:evenodd;fill:#FFFFFF;} .st1{fill-rule:evenodd;clip-rule:evenodd;fill:#0B2852;} </style> <g> <circle class="st0" cx="45.5" cy="45.5" r="45.5"></circle> <path class="st1" d="M52.71,45.25c-0.55-0.24-2.64-2.31-3.3-2.69c-0.39,0.19-3.51,3.47-4.34,4.27c-0.34,0.33-1.13,1.26-1.53,1.41 c-0.64-0.43-5.36-5.45-5.88-5.68c-0.76,0.53-2.49,2.16-3.24,2.73c-0.54,0.4-7.14,3.17-8.18,3.89c-1.29,0.88-1.79,1.97-2.64,3.4 l-8.99,15.06c0.68,0.09,6.65,0.02,7.91,0.03l23.98-0.01c3.61-0.02,2.57-0.17,2.93,1.04c0.29,0.97,0.96,1.75,1.81,2.2 c1.06,0.57,2.11,0.47,3.47,0.47l16.01-0.01c1.3,0,2.54,0.14,3.58-0.43c2.22-1.22,2.05-2.91,2.05-5.91l0-11.91 c0-1.27-0.22-2.2-0.97-3.05c-0.27-0.31-0.67-0.62-1.15-0.85c-0.57-0.28-0.29-0.43-0.54-1.49c-1.21-5.23-5.77-8.94-11.26-8.78 c-3.73,0.11-7.04,2.18-8.94,5.06C53.3,44.32,53.02,45.02,52.71,45.25L52.71,45.25z M42.82,11.08c3.53-0.35,8.47,1.17,10.83,3.76 c2.92,3.19,3.62,6.93,3.25,11.47c-0.36,4.45-1.22,8.28-3.28,11.45c-1.76,2.7-4.66,5.25-9.26,5.4c-2.53,0.08-4.36-0.2-6.27-1.15 c-1.64-0.81-2.86-1.95-3.97-3.37c-2.21-2.82-3.26-6.65-3.78-10.94c-0.59-4.94-0.03-8.85,2.39-12.03 C35.18,12.43,38.89,11.46,42.82,11.08L42.82,11.08z M55.63,50.1c-0.16-1.06,0.35-2.52,0.71-3.26c2.43-5.02,9.48-5.61,12.7-0.97 c1.53,2.21,1.22,3.72,1.33,6.68l2.39,0.02L72.74,67.6c-1.46,0.13-3.37,0-4.9,0.01c-2.11,0.02-14.19,0.08-14.61-0.06 c-0.09-0.33-0.13-14.24-0.01-14.99l14.05-0.02c0.1-1.51,0.14-3.33-0.51-4.46c-1.5-2.6-4.55-2.93-6.53-1.29 c-0.52,0.43-0.79,0.82-1.11,1.39c-0.36,0.66-0.32,1.11-0.5,1.93L55.63,50.1L55.63,50.1z M61.77,65.29 c-0.04-0.7-0.01-1.43-0.01-2.13c0.01-1.47,0.06-0.91-0.53-1.67c-0.8-1.03-0.37-2.41,0.48-3.02c2.39-1.72,4.84,2.03,2.48,3.52 l-0.01,3.29C63.81,65.39,62.14,65.39,61.77,65.29z"></path> </g> </svg>