<svg xmlns="http://www.w3.org/2000/svg" xmlns:xlink="http://www.w3.org/1999/xlink" id="Layer_1" x="0px" y="0px" viewBox="0 0 91 91" style="enable-background:new 0 0 91 91;" xml:space="preserve"> <style type="text/css"> .st0{fill-rule:evenodd;clip-rule:evenodd;fill:#FFFFFF;} .st1{fill-rule:evenodd;clip-rule:evenodd;fill:#0B2852;} </style> <g> <ellipse transform="matrix(0.9239 -0.3827 0.3827 0.9239 -13.9486 20.8756)" class="st0" cx="45.5" cy="45.5" rx="45.5" ry="45.5"></ellipse> <path class="st1" d="M20.97,34.87c0,2.86,0.38,5.47,1.03,8.05c0.26,1.02,1.27,3.35,1.93,4.38c0.85,1.34,1.04,2.11,2.55,3.79 l1.5,1.66c0.26,0.36,0.41,0.67,0.66,0.99l3.49,4.37c0.29,0.34,0.38,0.65,0.69,0.96l1.41,1.74c0.51,0.68,1.08,1.55,1.72,2.16 c0.69,0.66-0.09,0.12,1.07,1.38l2.01,2.81c0.02,0.03,0.08,0.1,0.1,0.13c0.57,0.67,0.43,0.12,0.53,0.77 c-0.14,0.11-0.01,0.07-0.32,0.18c-0.33,0.11-1.77,0.31-3.03,0.75c-0.48,0.17-1.01,0.45-1.52,0.59c-0.78,0.22-0.76,0.4-1.34,0.75 c-0.69,0.42-1.85,1.29-2.19,2.02c-0.94,1.97-0.05,3.81,1.68,4.87c2.54,1.56,1.79,0.87,3.55,1.74c0.46,0.23,2.78,0.76,3.38,0.8 c2.14,0.14,1.44,0.22,4.1,0.22c1.91,0,4.62,0.09,6.42-0.43c1.63-0.48,0.72-0.07,2.48-0.77c1.61-0.64,2.48-0.6,4.32-2.18 c3.74-3.22,0.77-6.21-2.93-7.43c-0.49-0.16-1.11-0.41-1.5-0.5c-0.56-0.13-1.95-0.1-1.5-0.92L62.21,53.8 c0.54-0.89,0.88-1.08,1.44-1.73c0.29-0.34,0.38-0.53,0.67-0.86c1.13-1.31,2.47-3.35,3.2-4.89l0.89-2.29 c0.41-1.05,0.52-0.86,0.86-2.38c0.64-2.85,1.18-7.3,0.32-10.34c-0.21-0.73-0.28-1.68-0.5-2.42c-0.13-0.43-0.13-0.77-0.29-1.15 c-0.34-0.81-0.94-2.61-1.33-3.24c-0.33-0.55-0.77-1.26-1.09-1.82c-3.1-5.61-11.37-11.47-18.3-11.63 c-8.09-0.18-14.2,1.29-19.97,7.01c-1.79,1.78-1.24,1.17-2.71,3.27c-0.67,0.96-1.75,2.56-2.22,3.77c-1.07,2.81-1.63,3.76-1.98,6.96 C21.11,33,20.97,33.97,20.97,34.87L20.97,34.87z M33.29,46.95c-0.54-0.42-1.87-2.07-2.13-2.64c-0.56-1.22-0.47-0.51-1.51-3.21 c-0.15-0.4-0.23-0.7-0.4-1.11c-0.2-0.46-0.11-0.77-0.24-1.3c-0.41-1.66-0.47-4.02-0.14-5.79c0.28-1.49,0.86-3.61,1.47-4.78 c0.6-1.15,1.58-2.87,2.47-3.73c0.35-0.34,0.46-0.54,0.78-0.87c0.29-0.3,0.53-0.43,0.83-0.7c2.84-2.62,6.83-4.13,11.45-4.06 c3.84,0.06,6.35,1.09,9.46,3.13c1.04,0.68,2.48,2.13,3.19,3.02c0.27,0.34,0.37,0.57,0.67,0.97c2.58,3.4,3.76,9.22,2.53,13.57 c-0.24,0.84-0.41,1.71-0.75,2.43c-0.44,0.92-2.68,5.32-3.85,5.39c-0.24-0.33-0.56-0.98-0.79-1.42c-0.72-1.38-2.24-2.38-3.57-3.1 c-4.04-2.2-14.45-2.41-17.73,1.44c-0.35,0.41-0.76,0.86-0.97,1.27c-0.15,0.29-0.23,0.52-0.36,0.82L33.29,46.95L33.29,46.95z M45.39,25.6c1.83,0,4.08,0.77,5.12,2.04c1.31,1.61,2.08,2.75,2.11,5.01l-0.66,2.93c-1.07,2.41-3.5,4.21-6.33,4.22 c-5.9,0.03-8.6-5.88-6.62-10.02c0.57-1.2,1.12-1.55,1.48-2.02c0.14-0.18,0.03-0.08,0.2-0.28c0.07-0.08,0.17-0.18,0.25-0.24 l1.59-0.99C43.26,25.88,44.38,25.6,45.39,25.6L45.39,25.6z M44.57,78.41c-2.87,0-5.28-0.42-7.84-1.44 c-2.12-0.84-5.05-2.79-2.27-4.85c1.68-1.24,3.88-1.85,5.94-2.18c0.15-0.02,0.34-0.08,0.54-0.06c0.4,0.04,0.19,0,0.37,0.13 l3.08,3.83c0.29,0.44,0.6,1.02,1.12,1.16c0.55-0.39,1.53-1.89,2.02-2.47l1.93-2.4c2.42-0.14,9.12,2.51,5.82,5.46 c-1.2,1.07-2.99,1.61-4.39,2.07c-0.45,0.15-0.89,0.13-1.36,0.28c-0.58,0.19-0.72,0.12-1.42,0.21 C46.64,78.34,46.14,78.41,44.57,78.41z"></path> </g> </svg>