<svg xmlns="http://www.w3.org/2000/svg" xmlns:xlink="http://www.w3.org/1999/xlink" xml:space="preserve" width="91px" height="91px" style="shape-rendering:geometricPrecision; text-rendering:geometricPrecision; image-rendering:optimizeQuality; fill-rule:evenodd; clip-rule:evenodd" viewBox="0 0 5.43 5.43"> <defs> <style type="text/css"> .fil1 {fill:#083264} .fil0 {fill:white} </style> </defs> <g id="Layer_x0020_1"> <metadata id="CorelCorpID_0Corel-Layer"></metadata> <g id="_1718316328736"> <circle class="fil0" cx="2.72" cy="2.72" r="2.72"></circle> <path class="fil1" d="M2.95 2.99l-1.23 0c-0.12,0 -0.11,-0.18 -0.01,-0.18l1.26 0c0.02,0 0.05,0.02 0.06,0.03 0.04,0.06 0.01,0.15 -0.08,0.15zm-1.06 -1.68c0,0.11 -0.02,0.22 0.08,0.22l0.75 0c0.03,0 0.06,-0.02 0.06,-0.06l0 -0.19c0,-0.03 -0.03,-0.06 -0.06,-0.06l-0.76 0c-0.05,0 -0.07,0.04 -0.07,0.09zm1.6 2.26c0,-0.09 -0.03,-0.26 0.07,-0.26 0.13,0 0.1,0.1 0.11,0.23 0,0.03 0,0.03 0.03,0.07 0.03,0.03 0.16,0.2 0.16,0.24 0,0.03 -0.01,0.06 -0.03,0.07 -0.04,0.04 -0.1,0.03 -0.14,-0.02 -0.01,-0.03 -0.03,-0.05 -0.04,-0.07 -0.03,-0.04 -0.07,-0.08 -0.09,-0.12 -0.03,-0.04 -0.07,-0.08 -0.07,-0.14zm0.06 0.64l-0.01 0c-0.22,0 -0.42,-0.17 -0.51,-0.36 -0.05,-0.11 -0.06,-0.18 -0.06,-0.3 0,-0.05 0.01,-0.09 0.02,-0.13 0.09,-0.34 0.48,-0.56 0.83,-0.4 0.2,0.1 0.36,0.31 0.36,0.54 0,0.11 -0.01,0.2 -0.06,0.29 -0.01,0.04 -0.03,0.07 -0.05,0.1 -0.02,0.03 -0.04,0.05 -0.07,0.08 -0.13,0.13 -0.25,0.18 -0.45,0.18zm-0.6 -1.58l-1.23 0c-0.02,0 -0.04,-0.01 -0.06,-0.02 -0.06,-0.06 -0.01,-0.15 0.05,-0.15l1.26 0c0.09,0 0.11,0.17 -0.02,0.17zm0 -0.35l-1.23 0c-0.12,0 -0.11,-0.18 -0.01,-0.18l1.26 0c0.02,0 0.05,0.02 0.06,0.03 0.04,0.06 0.01,0.15 -0.08,0.15zm-1.7 -0.67l0 2.34c0,0.12 0.12,0.24 0.27,0.25 0.16,0 0.35,0 0.51,0 0.35,0 0.69,0 1.04,0 -0.04,-0.06 -0.15,-0.12 -0.23,-0.35 -0.05,-0.14 -0.06,-0.3 -0.03,-0.44 0.01,-0.02 0.02,-0.04 0.02,-0.06l-1.11 0c-0.02,0 -0.04,-0.01 -0.06,-0.03 -0.06,-0.06 -0.02,-0.14 0.05,-0.15l0.51 0c0.23,0 0.46,0 0.69,0 0.09,-0.14 0.2,-0.25 0.35,-0.31 0.06,-0.02 0.08,-0.03 0.13,-0.05 0.02,0 0.04,0 0.04,-0.02l0 -1.16c0,-0.15 -0.12,-0.27 -0.29,-0.27l-0.18 0c0,0.11 0.01,0.18 -0.06,0.26 -0.02,0.04 -0.1,0.09 -0.16,0.09l-0.81 0c-0.09,0 -0.21,-0.11 -0.21,-0.24l0 -0.11c-0.14,0 -0.29,-0.02 -0.38,0.07 -0.04,0.05 -0.09,0.11 -0.09,0.18z"></path> </g> </g> </svg>