<svg xmlns="http://www.w3.org/2000/svg" xmlns:xlink="http://www.w3.org/1999/xlink" xml:space="preserve" width="91px" height="91px" style="shape-rendering:geometricPrecision; text-rendering:geometricPrecision; image-rendering:optimizeQuality; fill-rule:evenodd; clip-rule:evenodd" viewBox="0 0 24.94 24.94"> <defs> <style type="text/css"> .fil1 {fill:#083264} .fil0 {fill:white} </style> </defs> <g id="Layer_x0020_1"> <metadata id="CorelCorpID_0Corel-Layer"></metadata> <g id="_1718185668704"> <circle class="fil0" cx="12.47" cy="12.47" r="12.47"></circle> <g> <path class="fil1" d="M7.84 19.3l0.01 -0.02c0,0 0.01,0 0.01,0.01 0.02,0.04 0.49,0.02 0.5,0.02 0.14,-0.01 -0.05,-0.05 0.13,-0.05 0.13,-0.03 0.24,-0.24 0.27,-0.37 0.04,-0.13 0.02,-1.72 0.02,-1.94l0 -1.96c0,-0.32 0.09,-0.31 0.22,-0.44l-0.18 -0.66c-0.1,-0.36 -0.18,-1.15 -0.19,-1.48 0,-0.14 0,-0.28 0,-0.42 -0.01,-0.11 -0.04,-0.3 -0.02,-0.39 -0.03,-0.04 -0.02,-0.04 -0.01,-0.07 0.1,-0.05 0.43,-0.07 0.5,-0.13 -0.02,-0.05 -0.35,-0.5 -0.42,-0.6 -0.06,-0.09 -0.11,-0.12 -0.12,-0.23 -0.01,-0.11 -0.03,-0.21 -0.04,-0.31l-0.1 -0.59c-0.01,-0.11 -0.03,-0.18 -0.04,-0.3l-0.04 -0.17c-0.08,-0.01 -0.5,0.07 -0.63,0.09 -0.26,0.06 -0.34,0.05 -0.51,0.22 -0.07,0.06 -0.11,0.13 -0.15,0.22 -0.02,0.08 -0.06,0.2 -0.08,0.28 -0.06,0.25 -0.13,0.47 -0.2,0.7 -0.08,0.28 -0.18,0.72 -0.27,1 -0.05,0.17 -0.03,0.5 -0.03,0.7 0,0.11 -0.02,0.22 -0.02,0.34 0,0.36 -0.03,0.72 -0.01,1.07 0.04,0.59 0.94,0.82 1.23,0.18 0.1,-0.22 0.04,-0.75 0.06,-1.03 0,-0.07 0.02,-0.07 0.02,-0.15 0,-0.23 -0.02,-0.7 0.03,-0.88 0.02,-0.08 0.13,-0.51 0.16,-0.55 0.07,0.08 0.12,0.25 0.15,0.37 0.03,0.15 0,0.79 0,0.99 0,0.17 -0.02,0.3 -0.02,0.47 0,0.46 0.04,0.89 -0.3,1.21l-0.28 0.21 0 3.78c0,0.21 -0.01,0.4 0.06,0.57 0.11,0.24 0.27,0.27 0.29,0.31z"></path> <path class="fil1" d="M16.59 9.64c-0.03,0.18 -0.06,0.36 -0.09,0.52 -0.02,0.11 -0.05,0.45 -0.09,0.52 -0.07,0.12 -0.48,0.65 -0.49,0.72l0.13 0.05c0.09,0.02 0.25,0.03 0.36,0.08 0.02,0.1 -0.02,0.41 -0.03,0.55 -0.01,0.17 0,0.38 -0.01,0.56 -0.02,0.16 -0.05,0.35 -0.06,0.52l-0.08 0.46c0,0 -0.01,0.01 -0.01,0.01 0.03,0.13 -0.21,0.82 -0.22,0.92l0.02 0.01c0.14,0.13 0.2,0.11 0.19,0.43l0 3.28c0,0.47 -0.05,0.65 0.22,0.93 0.04,0.04 0.05,0.05 0.1,0.06 0.09,-0.02 0.06,0.02 0.09,0.05l0.44 0c0.04,0 0.03,0.01 0.06,-0.01 0.06,-0.03 -0.05,-0.01 0.06,-0.03 0.1,0.01 0.25,-0.22 0.29,-0.32 0.04,-0.11 0.04,-0.13 0.04,-0.27 0,-0.6 0.02,-4 -0.01,-4.05 -0.03,-0.05 -0.56,-0.23 -0.56,-0.92 0,-0.35 -0.06,-1.77 -0.02,-1.95 0.02,-0.09 0.07,-0.25 0.12,-0.32l0.01 -0.02c0.02,-0.02 0,0 0.02,-0.02l0.03 0.05c0,0.02 0.01,0.04 0.01,0.05l0.15 0.58 0.01 0.88c0,0.2 0.02,0.38 0.02,0.57 0,0.32 0.01,0.64 0.38,0.8 0.3,0.12 0.59,0.03 0.78,-0.21 0.04,-0.05 0,-0.02 0.05,-0.05l0 -2.46c-0.04,-0.04 -0.03,-0.05 -0.04,-0.11l-0.09 -0.3c-0.03,-0.08 -0.04,-0.14 -0.07,-0.21 -0.02,-0.06 -0.03,-0.14 -0.05,-0.21 -0.09,-0.25 -0.15,-0.56 -0.23,-0.83 -0.09,-0.25 -0.12,-0.48 -0.47,-0.6l-0.88 -0.16c-0.02,0.07 -0.03,0.14 -0.05,0.22l-0.03 0.23z"></path> <path class="fil1" d="M12.74 11.05l0.07 0.05c0.55,0.43 1.11,0.76 1.76,1.04l0.71 0.25c0.01,0.11 0.01,0.3 0,0.4l-0.1 0.67c-0.12,0.67 -0.3,1.11 -0.61,1.7 -0.04,0.07 -0.1,0.16 -0.15,0.24 -0.08,0.15 -0.22,0.3 -0.32,0.44 -0.13,0.15 -0.67,0.71 -0.8,0.73 -0.03,0.03 -0.04,0.05 -0.08,0.07l-0.25 0.16c-0.12,0.08 -0.23,0.14 -0.35,0.2 -0.09,0.05 -0.11,0.07 -0.2,0.02 -0.68,-0.36 -1.16,-0.72 -1.64,-1.35 -0.4,-0.51 -0.54,-0.87 -0.75,-1.44 -0.08,-0.2 -0.13,-0.42 -0.18,-0.64 -0.01,-0.05 -0.04,-0.18 -0.05,-0.22 -0.03,-0.23 -0.11,-0.79 -0.09,-0.98 0.14,-0.05 0.28,-0.09 0.41,-0.14 0.6,-0.2 1.28,-0.56 1.78,-0.93 0.11,-0.08 0.2,-0.14 0.3,-0.23 0.05,-0.04 0.26,-0.22 0.3,-0.24 0.05,0.02 0.08,0.06 0.13,0.1 0.04,0.04 0.07,0.05 0.11,0.1zm-3.69 0.85c0.05,0.11 0.04,0.3 0.04,0.42 0,0.26 0.07,1.05 0.12,1.27 0.07,0.25 0.11,0.51 0.19,0.75l0.26 0.68c0.17,0.4 0.44,0.82 0.71,1.15 0.36,0.47 0.98,0.99 1.52,1.28 0.06,0.03 0.58,0.3 0.63,0.29 0.04,-0.01 0.26,-0.12 0.32,-0.15 1.06,-0.52 1.82,-1.26 2.37,-2.3l0.18 -0.32c-0.01,-0.04 0.03,-0.12 0.05,-0.15 0.03,-0.11 0.08,-0.22 0.11,-0.32 0.09,-0.22 0.23,-0.79 0.26,-1.02 0.01,-0.07 0.03,-0.11 0.04,-0.18 0.03,-0.26 0.07,-0.74 0.07,-0.99 0,-0.07 0,-0.15 0,-0.22 0,-0.04 0.01,-0.07 0.01,-0.11 0,-0.02 0,-0.03 0,-0.05 -0.01,-0.06 -0.01,-0.04 -0.16,-0.08 -0.04,-0.01 -0.09,-0.02 -0.13,-0.03l-0.26 -0.07c-0.08,-0.02 -0.17,-0.04 -0.26,-0.07 -0.66,-0.26 -0.94,-0.39 -1.53,-0.8 -0.2,-0.12 -0.6,-0.43 -0.75,-0.58l-0.34 -0.32c-0.05,0.04 -0.13,0.12 -0.17,0.17 -0.58,0.58 -1.48,1.16 -2.23,1.45 -0.17,0.06 -0.33,0.11 -0.51,0.16l-0.54 0.14z"></path> <path class="fil1" d="M9.96 12.54c-0.03,0.15 0.03,0.54 0.06,0.71 0.02,0.07 0.02,0.11 0.03,0.18 0.03,0.25 0.14,0.54 0.21,0.77 0.06,0.2 0.26,0.64 0.35,0.8 0.11,0.18 0.18,0.31 0.31,0.48 0.17,0.23 0.21,0.25 0.35,0.42 0.07,0.08 0.13,0.13 0.2,0.2 0.18,0.17 0.45,0.37 0.66,0.5 0.08,0.05 0.17,0.1 0.25,0.14 0.17,0.09 0.13,0.08 0.13,-0.13l0 -2.34c0,-1.03 0.02,-2.08 0,-3.11 -0.05,0 -0.11,0.06 -0.15,0.09l-1.03 0.7c-0.44,0.25 -0.61,0.3 -1.01,0.47 -0.12,0.06 -0.24,0.08 -0.36,0.12z"></path> <path class="fil1" d="M12.12 8.02c0.25,0.05 0.55,0.08 0.79,-0.01 0,0 0.01,-0.01 0.01,-0.01l0.09 -0.04c0.06,-0.03 0.09,-0.04 0.14,-0.07l0.25 -0.19 0.04 -0.06c0.26,-0.32 0.35,-0.7 0.26,-1.1 -0.01,-0.06 -0.04,-0.13 -0.06,-0.19 -0.02,-0.03 -0.08,-0.14 -0.08,-0.17 -0.04,-0.02 -0.06,-0.06 -0.09,-0.1 -0.03,-0.04 -0.05,-0.06 -0.09,-0.1 -0.06,-0.07 -0.12,-0.12 -0.21,-0.18 -0.16,-0.1 -0.33,-0.18 -0.59,-0.18 -0.47,-0.01 -0.76,0.11 -1.06,0.47 -0.1,0.12 -0.19,0.33 -0.23,0.52 -0.03,0.19 -0.01,0.5 0.06,0.67 0.11,0.27 0.28,0.47 0.51,0.61 0.05,0.03 0.09,0.05 0.13,0.07 0.04,0.02 0.11,0.03 0.13,0.06z"></path> <path class="fil1" d="M9.03 6.62c-0.11,0.04 -0.15,-0.01 -0.44,0.13 -0.65,0.32 -0.84,1.34 -0.2,1.88 0.62,0.52 1.51,0.29 1.82,-0.48 0.06,-0.14 0.07,-0.32 0.06,-0.51 -0.02,-0.42 -0.38,-0.83 -0.75,-0.96 -0.11,-0.03 -0.38,-0.09 -0.49,-0.06z"></path> <path class="fil1" d="M15.27 6.78c-0.02,0.03 -0.16,0.11 -0.26,0.23 -0.07,0.08 -0.15,0.22 -0.19,0.33 -0.21,0.56 -0.03,1.04 0.44,1.38 0.08,0.07 0.22,0.12 0.34,0.15 0.15,0.04 0.3,0.03 0.47,0.03 0.02,-0.03 -0.01,-0.01 0.05,-0.03 0.03,0 0.04,0 0.07,-0.01 0.05,-0.02 0.08,-0.03 0.13,-0.05 0.23,-0.09 0.44,-0.28 0.55,-0.49 0.14,-0.26 0.19,-0.57 0.1,-0.88 -0.03,-0.08 -0.08,-0.18 -0.1,-0.25 -0.1,-0.1 -0.11,-0.23 -0.44,-0.43 -0.07,-0.04 -0.14,-0.06 -0.21,-0.09 -0.18,-0.09 -0.52,-0.07 -0.75,0.02 -0.04,0.01 -0.17,0.08 -0.2,0.09z"></path> <path class="fil1" d="M13.3 8.73l-0.05 0.33c-0.03,0.14 -0.16,0.83 -0.13,0.89 0.29,0.28 0.66,0.53 1.01,0.76 0.24,0.14 0.99,0.54 1.24,0.55 -0.01,-0.12 -0.06,-0.33 -0.1,-0.44 -0.04,-0.12 -0.08,-0.27 -0.12,-0.39 -0.02,-0.06 -0.03,-0.15 -0.05,-0.21 -0.01,-0.06 -0.04,-0.12 -0.06,-0.19 -0.03,-0.14 -0.08,-0.27 -0.11,-0.4 -0.03,-0.14 -0.18,-0.67 -0.24,-0.77 -0.24,-0.41 -0.58,-0.3 -0.65,-0.37 -0.12,0 -0.53,-0.11 -0.68,-0.11 -0.02,0.05 -0.05,0.27 -0.06,0.35z"></path> <path class="fil1" d="M10.76 8.53c-0.01,0.03 -0.07,0.02 -0.11,0.04 -0.04,0.01 -0.05,0.03 -0.1,0.04 -0.05,0.06 -0.11,0.07 -0.19,0.18 -0.15,0.2 -0.22,0.71 -0.28,0.77 0.01,0.07 -0.18,0.67 -0.21,0.79 -0.02,0.09 -0.21,0.75 -0.22,0.77 -0.01,0.06 -0.02,0.09 -0.01,0.16 0.06,-0.01 0.05,-0.01 0.09,-0.03l0.23 -0.09c0.42,-0.15 0.81,-0.38 1.18,-0.62 0.1,-0.07 0.16,-0.12 0.26,-0.19 0.13,-0.09 0.44,-0.36 0.49,-0.4l-0.18 -1.18c-0.01,-0.08 -0.04,-0.34 -0.07,-0.39 -0.12,0 -0.31,0.06 -0.44,0.07 -0.15,0.02 -0.28,0.07 -0.44,0.08z"></path> <path class="fil1" d="M15.45 15.75c-0.06,0.14 -0.34,0.53 -0.43,0.65 -0.31,0.4 -0.3,0.25 -0.3,0.52l0 1.35c0,0.28 0.02,0.52 -0.07,0.76 -0.01,0.05 -0.07,0.15 -0.07,0.19 0.03,0.13 0.12,0.09 0.37,0.09 0.03,0 0.12,0.01 0.15,0 0.12,-0.01 -0.02,-0.07 0.12,-0.04 0.04,-0.01 0.05,-0.02 0.08,-0.05 0.22,-0.21 0.23,-0.33 0.23,-0.63 0,-0.41 0.01,-2.9 -0.01,-2.95 -0.03,0.02 -0.01,0.01 -0.07,0.11z"></path> <path class="fil1" d="M9.8 19.27c0.07,0 0.03,0.04 0.13,0.04l0.33 0c0.15,0.01 0.09,-0.02 0.16,-0.03 0.06,-0.01 0,-0.05 -0.04,-0.18 -0.03,-0.06 -0.06,-0.15 -0.07,-0.21 -0.04,-0.15 -0.02,-1.7 -0.02,-2.01 0,-0.15 0,-0.13 -0.07,-0.21 -0.23,-0.25 -0.5,-0.62 -0.67,-0.91 -0.02,-0.04 -0.02,-0.08 -0.06,-0.1 -0.03,0.06 -0.01,2.54 -0.01,2.95 0,0.2 0,0.28 0.08,0.42 0.03,0.07 0.16,0.25 0.24,0.24z"></path> <path class="fil1" d="M11.1 19.27l0.06 -0.01c0,0.08 -0.03,0.05 0.23,0.05 0.1,0 0.19,0 0.29,0 0.03,0 0.07,-0.08 0.15,-0.08 0.08,-0.02 0.14,-0.1 0.19,-0.18 0.02,-0.04 0.04,-0.07 0.06,-0.12 0.02,-0.04 0.03,-0.11 0.05,-0.13l0 -0.72 -0.37 -0.19c-0.12,-0.07 -0.24,-0.14 -0.35,-0.21 -0.12,-0.08 -0.24,-0.15 -0.34,-0.23 -0.06,-0.05 -0.28,-0.23 -0.33,-0.24 -0.01,0.4 0,0.81 0,1.21 0,0.23 -0.02,0.37 0.06,0.55 0.04,0.09 0.19,0.3 0.3,0.3z"></path> <path class="fil1" d="M12.94 18.03c-0.08,0.08 -0.06,-0.01 -0.06,0.27 0,0.25 -0.03,0.44 0.05,0.63 0.02,0.07 0.08,0.18 0.14,0.21 0.04,0.01 0.06,0.04 0.12,0.08 0.02,0.01 0.02,0.01 0.04,0.03 0,0 0.06,0.05 0.07,0.05 0,0 0,0 0.01,0 0,0 0,0.01 0.01,0.01 0.02,0.01 0.01,0 0.03,0l0.46 0c0.08,-0.01 -0.01,0.01 0.04,-0.02 0.04,-0.03 -0.05,-0.03 0.06,-0.02 0.06,0 0.14,-0.08 0.17,-0.12 0.21,-0.22 0.18,-0.46 0.18,-0.73 0,-0.39 0.02,-0.82 0,-1.21 -0.06,0.01 -0.11,0.07 -0.16,0.12 -0.22,0.17 -0.55,0.39 -0.8,0.53 -0.14,0.07 -0.21,0.12 -0.36,0.17z"></path> <path class="fil1" d="M9.21 11.06c0,-0.05 0.02,-0.1 0.04,-0.15 0.01,-0.03 0.01,-0.05 0.02,-0.07 0.01,-0.06 -0.01,-0.05 0.02,-0.06 0.02,-0.14 0.08,-0.27 0.1,-0.38 0.01,-0.14 -0.03,-0.29 -0.04,-0.41 -0.05,-0.7 -0.11,-0.33 0.06,-0.75 -0.07,-0.14 -0.18,-0.08 -0.29,-0.08 -0.06,0 -0.14,-0.03 -0.19,0 -0.05,0.02 -0.07,0.07 -0.04,0.13 0.05,0.15 0.09,0.11 0.07,0.3 -0.02,0.12 -0.03,0.25 -0.04,0.36 -0.02,0.24 -0.07,0.46 -0.09,0.71 -0.01,0.06 0.1,0.19 0.14,0.24 0.03,0.06 0.13,0.21 0.17,0.24 0.03,-0.02 0,0 0.02,-0.03l0.05 -0.05z"></path> <path class="fil1" d="M16.08 9.14c-0.25,0.03 -0.36,-0.01 -0.4,0.02 -0.12,0.07 -0.06,0.09 0.01,0.28 0.03,0.09 0.01,0.17 -0.01,0.27 -0.02,0.18 -0.04,0.35 -0.06,0.53 -0.02,0.21 0.02,0.26 0.08,0.48 0.04,0.14 0.08,0.33 0.17,0.42 0.04,-0.01 0.11,-0.14 0.14,-0.18 0.18,-0.28 0.18,-0.23 0.14,-0.48 -0.02,-0.1 -0.02,-0.2 -0.04,-0.29 -0.03,-0.2 -0.03,-0.4 -0.06,-0.6 -0.03,-0.13 0,-0.14 0.05,-0.25 0.08,-0.18 -0.01,-0.12 -0.02,-0.2 0,0 0,0 0,0z"></path> <path class="fil1" d="M12.77 9.54c0.01,-0.11 -0.12,-0.78 -0.08,-0.88 0.03,-0.08 0.09,-0.14 0.09,-0.25 -0.13,-0.12 -0.06,-0.06 -0.29,-0.06 -0.19,-0.01 -0.17,-0.05 -0.28,0.07 0,0.01 0.01,0.04 0.02,0.05 0.11,0.27 0.12,0.14 0.06,0.5 -0.01,0.1 -0.01,0.21 -0.03,0.32 -0.01,0.09 -0.02,0.2 -0.03,0.29 0.06,-0.01 0.07,-0.04 0.14,-0.12 0.05,-0.04 0.08,-0.07 0.13,-0.12 0.08,0.04 0.19,0.21 0.26,0.24l0.01 -0.04z"></path> </g> </g> </g> </svg>