<svg xmlns="http://www.w3.org/2000/svg" xmlns:xlink="http://www.w3.org/1999/xlink" xml:space="preserve" width="91px" height="91px" style="shape-rendering:geometricPrecision; text-rendering:geometricPrecision; image-rendering:optimizeQuality; fill-rule:evenodd; clip-rule:evenodd" viewBox="0 0 53.55 53.55"> <defs> <style type="text/css"> .fil1 {fill:#083264} .fil0 {fill:white} </style> </defs> <g id="Layer_x0020_1"> <metadata id="CorelCorpID_0Corel-Layer"></metadata> <g id="_1718181872016"> <circle class="fil0" cx="26.77" cy="26.77" r="26.77"></circle> <path class="fil1" d="M32.44 28.57c-0.08,0.18 -0.24,0.42 -0.36,0.61l-1.06 1.72c-1.42,2.25 -2.81,4.67 -4.24,6.88l1.73 -9.16 -9.1 -0.02 5.72 -11.95 4.1 0.01 -3.27 9.17 8.17 0c-0.16,0.28 -1.62,2.7 -1.69,2.74zm5.64 -11.26l-0.09 -0.09c-0.58,-0.59 -0.74,-0.89 -1.54,-1.54 -1.1,-0.89 -1.68,-1.39 -3.24,-2.16 -2.21,-1.09 -4.5,-1.51 -7.24,-1.45 -1.33,0.17 -1.22,0.07 -2.69,0.4 -1.85,0.42 -3.84,1.4 -5.33,2.52 -0.75,0.57 -1.65,1.34 -2.22,2.06 -0.65,0.8 -0.88,1.01 -1.51,2.04 -0.79,1.27 -1.44,2.8 -1.81,4.46 -0.4,1.84 -0.48,3.83 -0.14,5.72 0.43,2.39 1.42,4.72 2.86,6.51 0.56,0.69 1.22,1.48 1.9,2.03l1.33 1.04c0.55,0.41 1.28,0.83 1.98,1.18 3.15,1.55 6.92,1.9 10.54,0.88 0.8,-0.22 1.54,-0.52 2.26,-0.85 0.36,-0.17 0.71,-0.37 1.02,-0.55 2.98,-1.7 5.24,-4.46 6.45,-7.67 0.59,-1.59 0.92,-3.54 0.88,-5.39 -0.04,-1.89 -0.42,-3.58 -1.07,-5.2 -0.54,-1.37 -1.28,-2.58 -2.18,-3.71 -0.03,-0.04 -0.07,-0.09 -0.09,-0.11 0,-0.01 -0.04,-0.06 -0.04,-0.06 -0.05,-0.07 -0.01,0.03 -0.03,-0.06z"></path> </g> </g> </svg>