<svg xmlns="http://www.w3.org/2000/svg" xmlns:xlink="http://www.w3.org/1999/xlink" xml:space="preserve" width="91px" height="91px" style="shape-rendering:geometricPrecision; text-rendering:geometricPrecision; image-rendering:optimizeQuality; fill-rule:evenodd; clip-rule:evenodd" viewBox="0 0 78.79 78.79"> <defs> <style type="text/css"> .fil1 {fill:#083264} .fil0 {fill:white} </style> </defs> <g id="Layer_x0020_1"> <metadata id="CorelCorpID_0Corel-Layer"></metadata> <g id="_1718159110048"> <circle class="fil0" cx="39.4" cy="39.4" r="39.4"></circle> <g> <path class="fil1" d="M28.23 23.5c-3.45,0 -3.24,-0.84 -4.82,-0.84 -0.65,0 -1.02,0.74 -1.02,1.43l0 20.9c0,2.66 1,4.5 2.16,6.05 0.91,1.22 1.87,2.11 2.98,3.1 2.51,2.24 4.76,3.35 7.42,4.94 0.44,0.26 0.95,0.48 1.4,0.71 3.31,1.65 2.74,1.68 6.04,0.03 2.64,-1.32 5.32,-2.88 7.67,-4.68 0.21,-0.16 0.31,-0.28 0.55,-0.46l1.62 -1.43c2.29,-2.28 4.17,-4.44 4.17,-8.26l0 -20.9c0,-1.28 -0.69,-1.43 -1.44,-1.43 -0.27,0 -1,0.35 -1.32,0.45 -1.43,0.45 -2.67,0.34 -3.13,0.51 -0.25,0.1 -0.39,0.21 -0.53,0.4 -0.64,0.87 -0.02,1.93 1.01,1.93 0.78,0 2.47,-0.18 2.96,-0.42l0 17.77c0,2.67 0.1,3.29 -0.88,5.13 -0.48,0.89 -1.89,2.64 -2.68,3.24l-1.59 1.36c-0.56,0.45 -1.13,0.85 -1.71,1.26 -1.69,1.2 -3.75,2.34 -5.61,3.27 -2.43,1.22 -1.73,1.22 -4.11,0.03 -0.33,-0.16 -0.61,-0.3 -0.96,-0.48l-1.92 -1.05c-2.07,-1.18 -3.4,-2.16 -5.23,-3.64 -0.32,-0.26 -0.5,-0.48 -0.81,-0.72 -0.85,-0.65 -2.22,-2.32 -2.73,-3.27 -0.97,-1.81 -0.87,-2.41 -0.87,-5.05l0 -17.85c0.52,0.25 2.22,0.42 3.04,0.42 2.98,0 5.32,-1.15 7.24,-2.65 0.53,-0.42 1.53,-1.5 1.92,-2.07 0.99,-1.46 0.15,-1.11 3.78,-1.11 0.35,0 0.82,1.19 1.55,1.92 0.3,0.31 0.54,0.54 0.84,0.85 1.49,1.5 2.42,-0.12 2.31,-0.78 -0.12,-0.7 -1.43,-1.47 -2.27,-2.98 -0.27,-0.5 -0.64,-1.38 -1.33,-1.38l-5.07 0c-1.08,0 -0.97,1.79 -3.4,3.79 -1.16,0.95 -3.16,1.96 -5.23,1.96z"></path> <path class="fil0" d="M37.63 35.93c0.57,0.57 1.18,1.25 1.77,1.75 1.52,-1.31 2.79,-3.54 4.02,-2.3 0.93,0.92 -0.1,1.81 -0.55,2.26 -0.57,0.57 -1.25,1.18 -1.75,1.76 1.32,1.53 3.54,2.79 2.3,4.03 -0.92,0.92 -1.81,-0.1 -2.26,-0.55 -0.57,-0.57 -1.18,-1.25 -1.76,-1.76 -1.53,1.32 -2.79,3.55 -4.03,2.31 -1.24,-1.24 0.99,-2.5 2.31,-4.03 -0.51,-0.58 -1.19,-1.19 -1.76,-1.76 -0.45,-0.45 -1.47,-1.34 -0.55,-2.26 0.93,-0.93 1.81,0.1 2.26,0.55zm-6.38 -3.8l0 12.77c0,0.64 1.23,1.83 1.55,2.11 0.64,0.55 1.28,1.1 2.02,1.62 0.47,0.33 4.17,2.73 4.58,2.73 0.48,0 8.14,-4.6 8.14,-6.46l0 -12.77c-0.14,-0.24 -0.19,-0.18 -0.53,-0.26 -2.44,-0.56 -4.78,-1.63 -6.75,-3.14 -0.31,-0.24 -0.57,-0.5 -0.86,-0.65l-1.75 1.29c-1.75,1.17 -3.79,2.03 -5.87,2.5 -0.33,0.08 -0.38,0.02 -0.53,0.26z"></path> <path class="fil1" d="M31.25 32.13c0.15,-0.24 0.2,-0.18 0.53,-0.26 2.08,-0.47 4.12,-1.33 5.87,-2.5l1.75 -1.29c0.29,0.15 0.55,0.41 0.86,0.65 1.97,1.51 4.31,2.58 6.75,3.14 0.34,0.08 0.39,0.02 0.53,0.26l0 12.77c0,1.86 -7.66,6.46 -8.14,6.46 -0.41,0 -4.11,-2.4 -4.58,-2.73 -0.74,-0.52 -1.38,-1.07 -2.02,-1.62 -0.32,-0.28 -1.55,-1.47 -1.55,-2.11l0 -12.77zm-2.43 -0.68l0 13.62c0,3.57 9.88,8.88 10.49,8.88 0.56,0 1.98,-0.82 2.57,-1.15 0.29,-0.17 0.5,-0.31 0.79,-0.48 2.14,-1.28 7.3,-4.62 7.3,-7.25l0 -13.62c0,-1.76 -1.02,-1.61 -2.26,-1.88 -1.13,-0.24 -1.37,-0.36 -2.34,-0.71 -1.71,-0.6 -3.73,-1.94 -5.06,-3.22 -1.13,-1.09 -2.27,0.46 -2.86,0.91 -1.11,0.84 -2.65,1.82 -3.96,2.29 -0.26,0.09 -0.45,0.18 -0.74,0.28 -0.54,0.18 -1.13,0.34 -1.66,0.45 -0.46,0.1 -1.34,0.2 -1.64,0.39 -0.46,0.3 -0.63,0.78 -0.63,1.49z"></path> <path class="fil1" d="M37.68 39.4c-1.32,1.53 -3.55,2.79 -2.31,4.03 1.24,1.24 2.5,-0.99 4.03,-2.31 0.58,0.51 1.19,1.19 1.76,1.76 0.45,0.45 1.34,1.47 2.26,0.55 1.24,-1.24 -0.98,-2.5 -2.3,-4.03 0.5,-0.58 1.18,-1.19 1.75,-1.76 0.45,-0.45 1.48,-1.34 0.55,-2.26 -1.23,-1.24 -2.5,0.99 -4.02,2.3 -0.59,-0.5 -1.2,-1.18 -1.77,-1.75 -0.45,-0.45 -1.33,-1.48 -2.26,-0.55 -0.92,0.92 0.1,1.81 0.55,2.26 0.57,0.57 1.25,1.18 1.76,1.76z"></path> </g> </g> </g> </svg>