<svg xmlns="http://www.w3.org/2000/svg" xmlns:xlink="http://www.w3.org/1999/xlink" xml:space="preserve" width="91px" height="91px" style="shape-rendering:geometricPrecision; text-rendering:geometricPrecision; image-rendering:optimizeQuality; fill-rule:evenodd; clip-rule:evenodd" viewBox="0 0 51.38 51.38"> <defs> <style type="text/css"> .fil1 {fill:#083264} .fil0 {fill:white} </style> </defs> <g id="Layer_x0020_1"> <metadata id="CorelCorpID_0Corel-Layer"></metadata> <g id="_1718115923120"> <circle class="fil0" cx="25.69" cy="25.69" r="25.69"></circle> <path class="fil1" d="M23.99 32.13c-0.31,-0.23 -0.44,-0.33 -0.67,-0.6 -1.61,-1.93 -0.26,-5.04 2.38,-5.03 2.21,0 3.66,2.25 2.84,4.25 -0.2,0.5 -0.68,1.14 -1.13,1.38 -0.03,0.73 0.12,1.65 -0.19,2.25 -0.68,1.27 -2.41,1.23 -3.04,0.01 -0.32,-0.61 -0.16,-1.52 -0.19,-2.26zm-11.34 -4.25c0.03,0.05 0.8,0.02 0.93,0.02 0.25,0 0.73,0.03 0.95,-0.01 0.03,-0.07 0.05,-1.76 0.03,-1.88l-0.01 -0.13c-0.46,-0.01 -0.94,0 -1.4,0 -0.52,0 -0.8,0.01 -1.09,0.31 -0.6,0.63 -0.11,1.67 0.59,1.69zm-3.79 5.35c0.05,0.08 0.57,0.05 0.68,0.05 0.64,0 4.82,0.03 5,-0.02l0 -2.01c-0.2,-0.04 -4.63,-0.01 -5.48,-0.01l-0.14 0.01c-0.01,0.01 -0.01,0.01 -0.02,0.02 -0.44,0 -0.85,0.49 -0.86,0.96 -0.01,0.28 0.1,0.51 0.24,0.68 0.09,0.11 0.35,0.33 0.58,0.32zm33.75 -1.93c-0.09,-0.11 -0.51,-0.06 -0.65,-0.06 -0.72,0 -4.82,-0.03 -5.09,0.01 -0.04,0.14 -0.03,1.84 -0.01,2.01 0.24,0.05 4.53,0.01 5.33,0.02 0.06,0 0.13,0 0.18,0 0.18,-0.01 0.13,-0.03 0.15,-0.05 0.2,0.01 0.47,-0.19 0.56,-0.3 0.31,-0.36 0.35,-0.88 0.06,-1.27 -0.09,-0.13 -0.31,-0.34 -0.53,-0.36zm-3.63 4.59c0,-0.01 0.01,-0.01 0.01,-0.01 0.09,-0.08 0.11,-0.07 0.21,-0.14 0.51,-0.39 0.53,-1.14 0.06,-1.57 -0.3,-0.26 -0.6,-0.25 -1.08,-0.25 -0.37,0 -0.99,-0.03 -1.33,0.02 0.06,0.21 0.01,1.69 -0.01,1.99 0.31,0.03 1.24,0.01 1.67,0.01 0.14,0 0.4,-0.06 0.47,-0.05zm-2.11 -8.01c0.19,0.03 1.64,0.03 1.87,0 1.14,-0.13 1.13,-1.88 -0.03,-2l-1.87 0c0.03,0.66 0.02,1.32 0.03,2zm-22.34 6.06c-0.12,-0.03 -1.67,-0.03 -1.86,-0.01 -1.2,0.13 -1.14,1.92 0.02,2 0.53,0.04 1.32,0.02 1.86,0 0,-0.65 -0.01,-1.33 -0.02,-1.99zm22.34 -3.37c0.2,0.02 3.43,0 3.72,0 0.56,0 1.31,0.05 1.85,0 1.14,-0.09 1.2,-1.84 0.05,-2 -0.23,-0.03 -5.5,-0.02 -5.62,0l0 2zm-22.34 0l0 -2.01c-1.24,-0.01 -2.5,0 -3.74,0 -0.56,0 -1.33,-0.04 -1.86,0.01 -0.49,0.04 -0.88,0.47 -0.89,0.99 0,0.53 0.37,0.94 0.85,1.01 0.22,0.03 5.6,0 5.64,0zm10.89 -3.06c-1.9,0.27 -2.38,2.6 -1.08,3.66 0.65,0.53 0.64,0.12 0.64,1.41 0,0.32 -0.05,1.08 0.06,1.33 0.12,0.29 0.49,0.52 0.89,0.38 0.39,-0.15 0.46,-0.42 0.46,-0.92 0,-0.46 0,-0.91 0,-1.37 0,-0.83 0.71,-0.48 1.18,-1.56 0.68,-1.55 -0.56,-3.15 -2.15,-2.93zm-1.21 -15.88c-1.95,0.33 -3.4,1.25 -4.39,2.93 -0.43,0.75 -0.8,1.81 -0.8,2.85 0.01,1.23 -0.02,2.46 0.01,3.68 0.3,0 0.61,-0.06 0.95,-0.06 0.35,0 0.71,0.01 1.06,0 0.01,-1 0,-2.01 0,-3.01 0,-1.02 0.09,-1.71 0.54,-2.46 0.37,-0.61 0.89,-1.15 1.54,-1.49 0.91,-0.46 1.42,-0.47 2.56,-0.47 1.1,0 1.7,0 2.56,0.46 0.64,0.34 1.19,0.87 1.55,1.48 0.46,0.78 0.56,1.4 0.56,2.46 0,1.01 -0.01,2.02 0,3.03 0.34,0.02 0.71,0 1.04,0 0.37,0 0.63,0.04 0.97,0.07 0.02,-0.52 -0.03,-3.99 0,-4.08l-0.03 -0.11c-0.01,-0.01 -0.01,-0.07 -0.01,-0.09 -0.28,-2.53 -2.28,-4.66 -4.84,-5.14 -0.68,-0.13 -2.55,-0.13 -3.27,-0.05zm10.76 12.08c-0.09,-0.05 -0.23,-0.24 -0.29,-0.31 -0.56,-0.61 -1.39,-1.08 -2.21,-1.27l-0.47 -0.1 -11.18 0c-0.75,0 -1.39,-0.04 -2.09,0.15 -1.19,0.33 -2.02,1.08 -2.55,1.92 -0.76,1.19 -0.65,2.25 -0.65,3.83l0 6.71c0,0.77 -0.03,1.37 0.19,2.06 0.36,1.15 1.11,1.99 1.97,2.49 1.24,0.73 2.28,0.61 3.87,0.61 2.98,0 5.96,0 8.94,0 0.74,0 1.42,0.03 2.09,-0.15 1.6,-0.42 2.91,-1.72 3.21,-3.49 0.12,-0.64 0.07,-1.5 0.07,-2.18l0 -6.71c0,-0.76 0.03,-1.38 -0.17,-2.07 -0.12,-0.43 -0.29,-0.8 -0.52,-1.16 -0.07,-0.11 -0.19,-0.23 -0.21,-0.33z"></path> </g> </g> </svg>