<svg xmlns="http://www.w3.org/2000/svg" xmlns:xlink="http://www.w3.org/1999/xlink" id="Layer_1" x="0px" y="0px" viewBox="0 0 91 91" style="enable-background:new 0 0 91 91;" xml:space="preserve"> <style type="text/css"> .st0{fill-rule:evenodd;clip-rule:evenodd;fill:#FFFFFF;} .st1{fill-rule:evenodd;clip-rule:evenodd;fill:#0B2852;} </style> <g> <ellipse transform="matrix(0.7071 -0.7071 0.7071 0.7071 -18.8468 45.5)" class="st0" cx="45.5" cy="45.5" rx="45.5" ry="45.5"></ellipse> <path class="st1" d="M29.77,42.75c-0.09,0.18-0.06,0.42-0.05,0.62c0,0.23,0,0.47,0,0.71c0,1.55,0.03,2.3,0.18,3.87 c0.19,2.14,0.73,4.64,1.42,6.65c0.28,0.81,0.76,2.17,1.13,2.92c0.14,0.29,0.29,0.6,0.44,0.9c2.25,4.26,5.04,7.29,9.13,9.82 l1.26,0.72c0.45,0.2,2.14,1.09,2.35,1.09c0.33,0.01,3.11-1.52,3.56-1.79c2.7-1.59,3.89-2.79,5.89-4.93 c1.38-1.48,2.31-3.16,3.27-4.86c0.95-1.69,1.73-4.01,2.21-5.93c0.74-2.93,0.97-5.39,1-8.39c0-0.23,0.01-0.47,0.02-0.7 c0.04-1.01,0.06-0.63-1.28-0.99c-0.78-0.2-1.66-0.37-2.41-0.67c-1.45-0.56-1.64-0.57-3.26-1.39c-0.65-0.33-1.42-0.7-2.05-1.1 c-1.53-0.97-2.29-1.47-3.67-2.53c-1.02-0.78-1.61-1.3-2.46-2.15c-0.21-0.21-0.58-0.64-0.82-0.78c-0.24,0.16-0.6,0.57-0.78,0.75 c-1.24,1.24-2,1.77-3.31,2.83c-0.28,0.23-0.63,0.41-0.92,0.62c-1,0.74-2.72,1.73-3.88,2.32c-1.55,0.8-3.93,1.67-5.7,2.05 L29.77,42.75L29.77,42.75z M44.27,26.6c0.23,1.09,0.71,0.42,0.38,2.47l-0.32,2.92c0.3-0.04,0.29-0.14,0.66-0.51 c0.21-0.21,0.35-0.37,0.63-0.6c0.33,0.17,0.87,0.96,1.22,1.11c0.05-0.08,0.03-0.01,0.05-0.14c0.02-0.15,0.01-0.03,0-0.15 c-0.03-0.7-0.24-1.77-0.31-2.53c-0.04-0.43-0.18-1.11-0.07-1.42c0.14-0.42,0.42-0.73,0.42-1.24c-0.64-0.53-0.31-0.25-1.43-0.28 C44.62,26.21,44.8,25.98,44.27,26.6L44.27,26.6z M29.93,39.23c-0.2-0.12-0.26-0.29-0.39-0.48c-1-1.46-1.16-1.35-0.89-2.85 l0.48-4.21c0.04-0.55-0.85-1.33-0.19-1.67c0.21-0.11,0.46-0.04,0.73-0.02c0.53,0.02,1.17-0.18,1.38,0.22 c0.19,0.36-0.22,0.79-0.32,1.14c-0.16,0.57,0.09,1.67,0.15,2.17c0.19,1.55,0.33,1.87-0.09,3.41c-0.13,0.49-0.47,1.88-0.75,2.19 C29.95,39.24,30.08,39.14,29.93,39.23L29.93,39.23z M60.09,30.31c0.49-0.55,0.73-0.26,1.53-0.31c0.35-0.02,0.5-0.15,0.74,0.07 c0.58,0.53-0.43,0.87-0.23,1.98c0.09,0.51,0.14,1.09,0.2,1.59c0.04,0.3,0.03,0.66,0.07,0.9c0.11,0.78,0.31,1.67,0.32,2.43 c0,0.41-0.11,0.43-0.28,0.69c-0.24,0.36-0.88,1.44-1.08,1.6c-0.26-0.09-0.44-0.58-0.51-0.86c-0.11-0.44-0.73-2.51-0.73-2.83 l0.38-3.09C60.73,30.74,60.13,31.06,60.09,30.31L60.09,30.31z M52.99,76.6c-1.5,1.58-5.6,0.94-5.62-2.06 c-0.01-0.85-0.07-2.17,0.02-2.98c0.25-0.18,0.53-0.27,0.85-0.42c1.56-0.72,3.44-1.99,4.78-3.03c0.26-0.2,0.49-0.51,0.8-0.56 c0.09,1.8,0.01,3.82,0.01,5.64C53.83,74.47,53.95,75.59,52.99,76.6L52.99,76.6z M40.43,77.37c-1.16,0-2.16-0.33-2.74-1.63 c-0.37-0.83-0.28-1.48-0.28-2.54c0-1.85-0.06-3.79,0-5.64c0.21,0.03,1.28,0.9,1.53,1.11c0.44,0.37,1.04,0.74,1.55,1.07 c0.55,0.34,1.08,0.66,1.66,0.97c0.56,0.3,1.29,0.59,1.72,0.9c0.04,0.72,0.08,2.93-0.07,3.49C43.24,77.16,42.17,77.37,40.43,77.37 L40.43,77.37z M35.85,77.24c-1.68,0.1-3.03,0.55-3.97-1.18c-0.37-0.67-0.34-1.07-0.34-1.96c0-1.92-0.09-13.5,0.06-13.75 c0.1,0.05,0.88,1.47,0.99,1.62c0.85,1.18,1.35,1.94,2.34,3.03c0.33,0.36,0.38,0.3,0.38,0.97c-0.01,1.42-0.07,8.66,0.06,9.36 c0.13,0.71,0.63,1.65,0.63,1.68c0.07,0.32,0.01,0.17-0.09,0.2C35.89,77.21,35.87,77.23,35.85,77.24L35.85,77.24z M55.32,76.94 c0-0.17,0.46-1.02,0.6-2.02c0.09-0.62,0-7.73,0.01-9.21c0-0.45,0.58-0.91,1.08-1.53c0.77-0.96,1.58-2.05,2.19-3.13 c0.1-0.17,0.36-0.76,0.49-0.8c0.1,0.23,0.04,11.81,0.04,13.72c0,1.18,0,1.76-0.78,2.65c-0.48,0.55-1.25,0.74-1.95,0.74 C55.84,77.37,55.45,77.53,55.32,76.94L55.32,76.94z M58.97,39.82c-0.89-0.04-3.5-1.32-4.32-1.77l-2.79-1.7 c-0.5-0.33-3.12-2.32-3.33-2.62c-0.15-0.2,0-0.96,0.06-1.24c0.16-0.85,0.27-1.72,0.44-2.57l0.42-2.52c0.2-0.85-0.09-1.08,0.52-1 l3.77,0.71c1.89,0.44,2.29,1.63,2.72,3.25c0.21,0.77,0.45,1.56,0.66,2.36L57.76,35c0.11,0.41,0.22,0.79,0.32,1.24 C58.31,37.29,58.94,38.92,58.97,39.82L58.97,39.82z M32.26,39.89c-0.08-0.51,2-7.5,2.41-9c0.5-1.82,0.6-2.68,2.15-3.55 c0.6-0.34,1.61-0.32,2.34-0.53c0.41-0.11,2.05-0.41,2.42-0.4c0.18,0.27,0.59,2.97,0.66,3.56c0.08,0.63,0.2,1.23,0.3,1.82 c0.05,0.28,0.04,0.68,0.13,0.98c0.09,0.34,0.12,0.58,0.09,0.97c-0.23,0.14-0.36,0.28-0.6,0.48c-2.02,1.64-2.99,2.45-5.56,3.85 c-0.49,0.27-0.95,0.44-1.37,0.69C34.92,38.92,32.61,39.88,32.26,39.89L32.26,39.89z M35.19,23.84c0-1.97-0.42-2.92-1.45-4.06 c-0.81-0.9-2.4-1.59-3.68-1.63c-0.68-0.02-1.66,0.21-2.19,0.42c-1.29,0.52-2.11,1.38-2.75,2.56c-1,1.85-0.52,4.46,0.85,5.96 c0.37,0.41,0.99,0.88,1.5,1.13c0.5,0.25,1.39,0.58,2.07,0.6C32.68,28.93,35.19,26.54,35.19,23.84L35.19,23.84z M61.37,28.83 c4.35,0,6.79-5.02,4.3-8.45c-1.93-2.66-5.73-3.01-8.12-0.61c-1.35,1.36-2.09,3.81-1.05,5.94c0.46,0.94,0.97,1.57,1.81,2.16 c0.37,0.26,0.79,0.53,1.32,0.67C60.26,28.7,60.6,28.83,61.37,28.83L61.37,28.83z M44.69,13.55c0.71-0.15,2.02-0.03,2.71,0.15 c0.18,0.05,0.03,0.01,0.14,0.05l0.85,0.41c2.29,1.17,3.56,4.08,2.73,6.71c-0.27,0.85-0.5,1.29-0.99,1.9 c-3.44,4.25-9.64,1.72-10.17-2.65c-0.21-1.74,0.27-3.41,1.14-4.46C42.15,14.38,43.03,13.91,44.69,13.55L44.69,13.55z M33.75,45.85 l1.7-0.6c0.57-0.25,1.07-0.4,1.67-0.66c0.56-0.25,0.96-0.47,1.54-0.75c0.56-0.27,1.03-0.51,1.51-0.8c1.81-1.11,2.43-1.48,4.17-2.75 c0.37-0.27,0.98-0.92,1.33-0.93l0,25.59c0,0.98,0.09,0.77-1.01,0.2c-1.11-0.57-2.62-1.72-3.52-2.5c-3.28-2.87-4.89-5.96-6.23-9.9 C34.42,51.33,33.65,47.41,33.75,45.85L33.75,45.85z M68.77,75.67c-0.66,1.89-3.63,2.4-4.84,1.17c-1.27-1.29-1.01-2.17-1.01-4.34 V57.2c0-1.49-0.24-1.41-0.93-1.98l-0.07-0.07c0.07-0.45,0.36-1.12,0.47-1.6c0.07-0.31,0.13-0.47,0.21-0.81 c0.06-0.24,0.1-0.53,0.17-0.81c0.26-1.04,0.48-2.23,0.61-3.35c0.15-1.27,0.29-2.4,0.29-3.74l0.17-3.78 c-0.38-0.15-1.45-0.32-2.03-0.48l-0.28-0.1c0.05-0.2,1.83-2.72,2.11-3.1c0.39-0.53,0.32-0.6,0.41-1.31l0.99-5.93 c0.64,0,1.93,0.34,2.57,0.49c0.68,0.16,2.15,0.02,3.03,1.35c0.5,0.76,0.93,2.65,1.25,3.75c0.1,0.35,0.18,0.63,0.28,0.99 c0.05,0.19,0.07,0.34,0.12,0.56c1.83,6.32,1.3,8.58,1.3,15.63c-0.22,0.1-0.02-0.06-0.21,0.19c-0.89,1.18-2.27,1.61-3.61,1.06 c-1.65-0.68-1.84-2-1.84-3.68l-0.11-5.38c-0.01-0.48-0.01-0.94-0.01-1.41c0-0.33-0.62-2.59-0.83-3.12c0-0.01-0.02-0.02-0.02-0.05 c0-0.03-0.01-0.03-0.02-0.05c-0.12,0.08-0.01-0.02-0.12,0.1c-0.01,0.01-0.02,0.03-0.03,0.04c-0.76,0.94-0.61,2.82-0.62,3.79 c0,2.22,0.12,4.63,0.13,6.85c0.02,3.19,2.49,4.06,2.62,4.29c0.13,0.22,0.05,15.04,0.05,17.41C68.98,73.93,69.06,74.85,68.77,75.67 L68.77,75.67z M25.45,77.37c-1.39,0-2.21,0.04-2.91-1.51c-0.36-0.79-0.27-1.68-0.27-2.65V61.42c0-1.85-0.11-4.06,0.01-5.87 c2.98-1.7,2.71-3.71,2.71-6.68c0-0.78,0.06-1.43,0.06-2.24c0-0.83,0.17-4.04,0-4.61c-0.09-0.29-0.17-0.58-0.29-0.84 c-0.08-0.19-0.24-0.69-0.45-0.74l-0.73,2.59c-0.26,1.01-0.11,2.88-0.13,4.12c-0.01,0.37-0.08,0.34-0.09,0.7 c-0.04,1.31,0.16,3.84-0.3,4.78c-0.8,1.63-2.69,2.35-4.44,1.22c-0.61-0.39-1.21-1.2-1.26-2.15c-0.09-1.75,0.06-3.35,0.06-5 c0-0.59,0.07-1.08,0.06-1.6c0.03-3.62,0.43-4.14,1.43-7.84c0.32-1.06,0.66-2.12,0.94-3.27c0.53-2.21,1.12-2.99,3.42-3.34 c0.65-0.1,2.42-0.51,2.95-0.46l0.96,5.97c0.19,0.83-0.02,0.62,0.45,1.27c0.24,0.33,2.1,2.8,2.1,3.13 c-0.69,0.23-1.68,0.25-2.32,0.51c-0.09,0.58,0.1,1.24,0.13,1.79c0.04,0.66,0.05,1.32,0.05,1.99c0,1.26,0.19,2.5,0.3,3.71 c0.05,0.54,0.14,1.22,0.26,1.71c0.12,0.52,0.19,1.17,0.3,1.73c0.13,0.65,0.69,2.27,0.88,3.16c-0.01,0.01-0.03,0.01-0.04,0.03 l-0.36,0.29c-0.18,0.14-0.23,0.2-0.36,0.41c-0.28,0.47-0.28,0.58-0.28,1.25l0,15.24c0,0.73,0.09,2.42-0.07,2.99 C27.76,76.92,26.79,77.37,25.45,77.37L25.45,77.37z M32.59,45.07c0.33-0.12,0.65-0.19,0.98-0.3c2.12-0.68,4.23-1.55,6.15-2.69 c1.37-0.81,3.29-2.04,4.5-3.05c0.27-0.22,1.18-1.02,1.39-1.12c0.27,0.13,0.5,0.38,0.72,0.57c1.93,1.61,4.56,3.35,6.85,4.48 c1.25,0.62,2.15,1.03,3.53,1.48c0.28,0.09,1.53,0.46,1.77,0.6l0.1,0.64c0,1.32-0.11,1.29-0.15,2.11c-0.02,0.45-0.12,1.59-0.24,1.97 c-0.17,0.51-0.23,1.21-0.39,1.78c-0.35,1.22-0.53,2-1.03,3.26c-0.11,0.27-0.22,0.47-0.33,0.75c-0.5,1.36-1.13,2.31-1.83,3.5 c-1.4,2.37-4.13,4.97-6.49,6.44c-0.41,0.26-0.89,0.55-1.37,0.81c-0.82,0.44-1.03,0.64-1.48,0.41c-2.45-1.25-3.21-1.86-5.13-3.51 c-1.69-1.46-2.64-2.87-3.87-4.71c-0.74-1.11-2.31-4.63-2.59-5.96c-0.13-0.64-0.27-1.18-0.42-1.78c-0.08-0.3-0.07-0.64-0.16-0.95 C32.91,49.13,32.53,45.8,32.59,45.07z"></path> </g> </svg>