<svg xmlns="http://www.w3.org/2000/svg" xmlns:xlink="http://www.w3.org/1999/xlink" xml:space="preserve" width="91px" height="91px" style="shape-rendering:geometricPrecision; text-rendering:geometricPrecision; image-rendering:optimizeQuality; fill-rule:evenodd; clip-rule:evenodd" viewBox="0 0 60.39 60.39"> <defs> <style type="text/css"> .fil1 {fill:#083264} .fil0 {fill:white} </style> </defs> <g id="Layer_x0020_1"> <metadata id="CorelCorpID_0Corel-Layer"></metadata> <g id="_1718680372192"> <circle class="fil0" cx="30.2" cy="30.2" r="30.2"></circle> <path class="fil1" d="M23.09 14.64c0,1.69 1.51,1.34 2.59,1.34l11.78 -0.01c0.8,-0.01 0.58,0.03 1.64,1.1l4.16 4.21c0.06,0.07 0.05,0.06 0.11,0.11 0.06,0.06 0.05,0.05 0.11,0.11 0.41,0.4 0.94,0.71 0.94,1.14l0 21.78 -20.3 0c-0.62,0 -1.03,0.55 -1.03,1.33 0,0.46 0.57,1.04 1.03,1.04l21.63 0c0.46,0 1.04,-0.58 1.04,-1.04l0 -24c0,-0.67 -3.25,-3.65 -3.87,-4.27 -0.63,-0.63 -3.61,-3.88 -4.28,-3.88l-14.52 0c-0.49,0 -1.03,0.55 -1.03,1.04zm6 6.67c-0.59,-0.16 -0.35,-0.59 -1.41,-0.59 -0.54,0 -1.04,0.51 -1.04,1.33 0,0.51 1.71,2.22 2.22,2.22 0.8,0 0.99,-0.28 1.65,-0.94l2.3 -2.3c0.66,-0.66 0.94,-0.86 0.94,-1.65 0,-0.54 -0.93,-1.63 -2.07,-0.66l-2.59 2.59zm-2.45 15.85c0,1.16 0.75,1.16 1.26,1.92 -0.51,0.77 -1.26,0.77 -1.26,1.93 0,0.54 0.52,1.04 1.33,1.04 0.61,0 1.28,-0.98 1.71,-1.26l1.02 1.05c0.63,0.45 1.87,0.24 1.87,-1.13 0,-0.59 -0.92,-1.22 -1.19,-1.63 0.5,-0.74 1.19,-0.8 1.19,-1.92 0,-0.44 -0.92,-1.91 -2.37,-0.37l-0.52 0.59c-0.77,-0.51 -0.86,-1.26 -2,-1.26 -0.46,0 -1.04,0.58 -1.04,1.04zm2.37 -6.89c-0.06,-0.42 0.35,-1.19 1.13,-1.24 0.65,-0.05 1.18,0.52 1.22,1.11 0.05,0.65 -0.52,1.18 -1.1,1.22 -0.66,0.05 -1.16,-0.5 -1.25,-1.09zm-2.37 -0.37c0,0.89 0.06,1.63 0.66,2.38 2.22,2.81 5.75,1.14 6.23,-0.9l8 0c0.53,0 0.81,0.07 1.16,-0.17 0.23,-0.17 0.54,-0.51 0.54,-0.87l0 -2.66c0,-0.54 -0.51,-1.04 -1.33,-1.04 -0.49,0 -1.04,0.55 -1.04,1.04l0 1.33 -1.18 0 0 -1.33c0,-0.54 -0.52,-1.04 -1.34,-1.04 -0.49,0 -1.03,0.55 -1.03,1.04l0 1.33 -3.78 0c-0.25,-1.09 -1.69,-2.37 -3.04,-2.37l-0.59 0c-1.59,0 -3.26,1.67 -3.26,3.26zm-8.29 -11.48c-0.07,-0.42 0.35,-1.19 1.12,-1.24 0.66,-0.05 1.19,0.52 1.23,1.11 0.06,0.97 -1.15,1.63 -1.95,0.91 -0.2,-0.18 -0.37,-0.56 -0.4,-0.78zm-2.37 -0.37c0,1.29 0.08,1.66 0.91,2.71 0.56,0.7 1.32,0.87 1.87,1.09l0.1 0.05c-1.94,0 -2.79,-0.28 -3.94,1.54 -0.69,1.11 -1.32,2.88 -1.32,4.53 0,1.11 1.91,1.53 2.33,0.25l0.25 -1.52c0.14,-0.55 0.73,-2.43 1.2,-2.43l4.3 0c0.46,0 1.05,1.85 1.18,2.37 0.18,0.69 0.19,1.25 0.26,1.52 0.29,1.15 2.34,1.29 2.34,-0.48 0,-1.68 -1.16,-4.88 -2.65,-5.58 -0.63,-0.3 -1.7,-0.2 -2.61,-0.2l0.1 -0.05c0.7,-0.27 1.31,-0.42 1.84,-1.05 2.34,-2.8 -0.03,-6.01 -2.31,-6.01l-0.6 0c-1.58,0 -3.25,1.67 -3.25,3.26zm2.37 14.59c-0.04,-0.22 0.19,-0.74 0.31,-0.87 0.72,-0.73 1.97,-0.29 2.04,0.74 0.1,1.42 -2.11,1.74 -2.35,0.13zm-2.37 -0.37c0,1.29 0.08,1.66 0.91,2.71 0.25,0.32 0.96,0.79 1.37,0.93l0.6 0.21c-1.94,0 -2.79,-0.28 -3.94,1.54 -0.69,1.11 -1.32,2.88 -1.32,4.54 0,1.1 1.91,1.53 2.33,0.24 0.06,-0.18 0.07,-0.62 0.1,-0.79 0.12,-0.78 0.81,-3.16 1.35,-3.16l4.3 0c0.53,0 1.23,2.34 1.34,3.11 0.02,0.18 0.05,0.6 0.1,0.79 0.29,1.14 2.34,1.28 2.34,-0.49 0,-1.68 -1.16,-4.87 -2.65,-5.58 -0.63,-0.3 -1.7,-0.2 -2.61,-0.2l0.1 -0.04c0.05,-0.02 0.12,-0.05 0.16,-0.06 1.46,-0.48 2.63,-1.66 2.63,-3.16l0 -0.59c0,-1.59 -1.68,-3.26 -3.26,-3.26l-0.6 0c-1.58,0 -3.25,1.67 -3.25,3.26z"></path> </g> </g> </svg>