<svg xmlns="http://www.w3.org/2000/svg" xmlns:xlink="http://www.w3.org/1999/xlink" id="Layer_1" x="0px" y="0px" viewBox="0 0 91 91" style="enable-background:new 0 0 91 91;" xml:space="preserve"> <style type="text/css"> .st0{fill-rule:evenodd;clip-rule:evenodd;fill:#FFFFFF;} .st1{fill-rule:evenodd;clip-rule:evenodd;fill:#0B2852;} </style> <g> <circle class="st0" cx="45.5" cy="45.5" r="45.5"></circle> <path class="st1" d="M27.59,43.33c-0.98-7.95,5.36-15.97,13.95-16.71c8.78-0.75,16.07,6.1,16.63,13.98 c1.03,14.49-16.06,21.64-25.36,12.82C30.27,51.01,28.21,48.36,27.59,43.33L27.59,43.33z M37.46,31.43 c-0.05,0.01-0.13-0.03-0.16,0.04l-0.36,0.22c-1.42,0.98-2.06,1.33-3.17,2.65c-3.16,3.75-3.66,9.86-1.31,13.13 c0.82-0.22,8.66-6.41,8.7-6.55l0-10.69C39.76,30.4,38.47,30.9,37.46,31.43L37.46,31.43z M48.67,52.23l0.53-0.26 c0.71-0.4,1.61-0.91,1.92-1.66l-6.52-4.83l0.03,8.13C45.75,53.57,48.04,52.8,48.67,52.23L48.67,52.23z M34.58,50.27 c0.59,1.45,4.5,3.11,6.56,3.38l-0.06-8.21L34.58,50.27L34.58,50.27z M44.59,41.1c1.32,0.9,7.95,6.16,8.82,6.38 c0.22-0.8,0.71-1.6,0.99-2.68c0.8-3.1,0.26-6.18-1.24-8.83c-1.18-2.09-4.87-5.62-8.57-5.7L44.59,41.1L44.59,41.1z M20.8,29.02 l-0.26,0.53c-1.11,1.44-2.43,5.51-2.78,7.73c-1.04,6.68-0.1,11.54,2.95,17.37c1.01,1.94,2.62,3.66,4.05,6.56 c1.18,2.39,2.09,5.12,2.53,8.06c0.79,5.36-0.89,5.28,5.33,5.28c2.69,0,20.01,0.18,21.13-0.14l0.54-0.29 c0.72-1.41,0.53-1.48,0.53-3.21c-0.02-4.52-0.72-3.3,8.12-3.42c6.82-0.09,5.4-6.84,5.53-10.15c1.33-0.35,2.79,0.23,4.45-1.97 l0.27-0.53c0.93-1.85,0.37-3.19-0.53-4.89c-0.56-1.07-4.12-7.99-4.22-8.75c-0.27-2.01-0.26-3.85-0.82-5.73 c-1.92-6.44-5.35-11.56-11.09-15.15C44.03,12.53,27.68,16.8,20.8,29.02z"></path> </g> </svg>