<svg xmlns="http://www.w3.org/2000/svg" xmlns:xlink="http://www.w3.org/1999/xlink" id="Layer_1" x="0px" y="0px" viewBox="0 0 91 91" style="enable-background:new 0 0 91 91;" xml:space="preserve"> <style type="text/css"> .st0{fill-rule:evenodd;clip-rule:evenodd;fill:#FFFFFF;} .st1{fill-rule:evenodd;clip-rule:evenodd;fill:#0B2852;} </style> <g> <circle class="st0" cx="45.5" cy="45.5" r="45.5"></circle> <path class="st1" d="M72.13,28.18c-0.45-0.38-4.06,0.25-6.41,0.17c-7.29-0.26-14.2-4.2-18.33-9.97c-1.45-2.03-1.47-3.56-3.29-0.71 c-4.56,7.13-12.68,11.07-21.35,10.67c-4.01-0.19-4.37-1.5-4.06,2.1c0.76,8.9,3.37,17.64,7.13,24.84 c3.07,5.89,7.8,11.92,12.69,15.52c1.35,1,2.61,1.91,4.22,2.84c2.41,1.39,2.36,1.75,4.78,0.42c3.26-1.78,5.73-3.68,8.25-6.07 c4.65-4.4,8.37-10.12,11.39-16.85c1.34-3,2.75-7.2,3.51-10.58C71.05,38.84,73.11,29.21,72.13,28.18L72.13,28.18z M41.76,54.78 c-0.65,6.83-9.56,5.54-9.91,0.59c-0.18-2.5,0.14-1.19-0.94-2.83c-1.02-1.54-0.7-4.41-0.67-6.58c0.05-3.54,2.14-3.73,2.68-4.71 c0.39-0.71,1.29-4.49,1.65-5.61c1.44-4.55,5.78-3.84,10.95-3.84c5.06,0,9.45-0.75,10.98,3.74c0.41,1.2,1.28,5.05,1.72,5.8 c0.31,0.52,1.29,0.96,1.85,1.85c1.18,1.91,1.01,7.96-0.02,9.48c-1.07,1.58-0.82,0.31-0.95,2.73c-0.06,1.1-0.41,1.85-1.03,2.55 c-1.57,1.76-8.26,3.2-8.83-3.18L41.76,54.78L41.76,54.78z M33.39,52.74c-1.5-0.82-1.58-1.83-1.58-3.83c0-1.57-0.26-3.54,0.44-4.8 c1.1-2,1.5,0.12,2.4-3.11c2.15-7.68,1.88-7.64,8.5-7.6c11.76,0.07,10.76-1.4,13.39,8.04c0.67,2.42,1.45,0.95,2.35,2.9 c0.54,1.16,0.32,3.54,0.32,4.97c0,3.3-1.31,2.7-1.61,3.8c-0.46,1.7,0.69,2.75-1.21,4.15c-0.94,0.69-3.38,0.69-4.35,0.02 c-1.41-0.98-1.14-2.1-1.24-4.09l-10.61,0.03c-0.18,3.09-0.08,4.59-3.72,4.53C33.03,57.68,33.5,55.4,33.39,52.74L33.39,52.74z M35.89,42.61c0.19-1.53,1.22-5.59,2.08-6.53c1.55-1.69,4.99-1.09,7.54-1.09c2.6,0,6.03-0.54,7.57,1.06 c0.88,0.92,1.99,5.15,2.1,6.6L35.89,42.61L35.89,42.61z M40.73,51.29l0.08-1.96c1.94-0.07,3.93,0,5.87-0.01 c4.01-0.03,3.79-0.41,3.65,1.88C49,51.52,42.51,51.36,40.73,51.29L40.73,51.29z M54.22,44.65c2.15-1.12,3.51,2.14,1.49,3.09 C53.78,48.65,51.94,45.84,54.22,44.65L54.22,44.65z M35.24,44.69c1.93-1.28,3.5,1.82,1.73,2.94C35.22,48.74,32.9,46.24,35.24,44.69 z"></path> </g> </svg>