<svg id="Layer_1" data-name="Layer 1" xmlns="http://www.w3.org/2000/svg" viewBox="0 0 99.98 100"><defs><style>.cls-1{fill:#083264;}.cls-2{fill:#f5f5f5;}.cls-3{fill:#5687b7;}.cls-4{fill:#6c6c6c;}.cls-5{fill:#d0d0d0;}.cls-6{fill:#214e7c;}</style></defs><path d="M70.84,34.63a1.33,1.33,0,0,0-2,.11c-.46.48-.67.36-1.09,0a7.4,7.4,0,0,0-4.84-2.18c-5.38,0-9,4-8.62,8.78a8.09,8.09,0,0,0,8.89,7.21,8,8,0,0,0,6.9-9.6,2,2,0,0,1,.67-2.16A1.37,1.37,0,0,0,70.84,34.63ZM62.65,45.72a5.19,5.19,0,0,1-2.8-9.78,5.31,5.31,0,0,1,5.77.66c.5.42.68.71.08,1.23-.82.71-1.56,1.5-2.3,2.28-.35.38-.58.45-.9,0a14.24,14.24,0,0,0-1.19-1.5,1.35,1.35,0,0,0-2-.24,1.29,1.29,0,0,0-.24,2c.83,1.11,1.68,2.19,2.58,3.24a1.37,1.37,0,0,0,2.26,0c1.11-1.08,2.18-2.2,3.39-3.43A5.11,5.11,0,0,1,62.65,45.72Z" transform="translate(-0.01 0)"/><path d="M70.85,15.13a1.29,1.29,0,0,0-2,0c-.5.53-.75.44-1.25,0a7.9,7.9,0,0,0-9.62-.9A8,8,0,0,0,62.22,29a8,8,0,0,0,7.92-9.22c-.21-1.11-.31-1.93.69-2.71A1.23,1.23,0,0,0,70.85,15.13Zm-7.79,11A5.18,5.18,0,0,1,60.88,16a5.09,5.09,0,0,1,4.88,1.21c.34.29.54.52.08.93-.88.79-1.69,1.65-2.51,2.5-.3.31-.5.35-.77,0A17.56,17.56,0,0,0,61.29,19a1.4,1.4,0,1,0-2.2,1.73c.84,1.1,1.69,2.19,2.58,3.24A1.42,1.42,0,0,0,64,24c1.1-1.09,2.18-2.2,3.39-3.4A5.1,5.1,0,0,1,63.06,26.13Z" transform="translate(-0.01 0)"/><path d="M88,40.51c0,.89-.63,1.43-1.79,1.43H80.4c-2,0-3.9,0-5.86,0-1.12,0-1.7-.51-1.68-1.42s.62-1.4,1.72-1.4H86.2C87.3,39.12,87.93,39.64,88,40.51Z" transform="translate(-0.01 0)"/><path d="M88,21c0,.89-.66,1.44-1.81,1.44H74.63c-1.15,0-1.79-.54-1.78-1.45s.6-1.37,1.74-1.38H86.11C87.29,19.62,87.94,20.12,88,21Z" transform="translate(-0.01 0)"/><path class="cls-1" d="M99.63,35.26c-1.19-2.48-2.35-5-3.56-7.46a3.81,3.81,0,0,1-.38-1.75c0-4.79,0-9.58,0-14.37a2.79,2.79,0,0,0-.87-2.15Q90.48,5.24,86.19.87A2.79,2.79,0,0,0,84.05,0Q66.33,0,48.63,0c-1.76,0-2.11.35-2.11,2.12q0,14.27,0,28.54t0,28.53c0,.34,0,.68,0,1a1.35,1.35,0,0,0,1.3,1.31,6.74,6.74,0,0,0,.9,0q19.49,0,39,0c.92,0,1.28.13,1.22,1.16-.11,1.68,0,3.37,0,5.06a7.89,7.89,0,0,0,.3,2.6A5.54,5.54,0,0,0,100,68.58q0-15.93,0-31.87A3.34,3.34,0,0,0,99.63,35.26ZM96.35,35h-3.9l1.86-4.27C95,32.22,95.67,33.54,96.35,35ZM86.14,5.31l4.28,4.23c-1.11,0-2.36,0-3.61,0-.41,0-.69,0-.68-.57C86.17,7.7,86.14,6.43,86.14,5.31Zm3.68,28.58a10,10,0,0,0-1,4.56c0,6.44,0,12.88,0,19.32,0,.71-.11,1-.91,1q-18.87,0-37.73,0c-.76,0-.93-.19-.93-.94,0-9,0-18,0-27s0-17.94,0-26.91c0-.82.17-1.05,1-1q16,0,32,0c.76,0,1,.15,1,1-.06,2.25,0,4.51,0,6.77,0,1.37.45,1.79,1.84,1.8,2.29,0,4.59,0,6.88,0,.66,0,.85.17.85.84,0,4.38,0,8.77,0,13.15a3.07,3.07,0,0,1-.3,1.26C91.65,29.7,90.81,31.83,89.82,33.89Z" transform="translate(-0.01 0)"/><path d="M48.07,81.29c0-1.13-.5-1.63-1.62-1.64-3,0-6.06,0-9.09,0-1.16,0-1.66.53-1.68,1.68s0,2.57,0,3.85.53,1.66,1.67,1.67c1.49,0,3,0,4.45,0s3,0,4.55,0c1.19,0,1.69-.46,1.72-1.62C48.1,83.91,48.1,82.6,48.07,81.29ZM44.64,84c-.93-.05-1.88,0-2.82,0S40,84,39.1,84c-.62,0-.63-.31-.6-.76s-.11-.82.55-.82c1.88,0,3.76,0,5.65,0,.66,0,.53.44.55.82S45.27,84.07,44.64,84Z" transform="translate(-0.01 0)"/><path class="cls-1" d="M54.06,85.47c0-.24,0-.48-.05-.71a27.15,27.15,0,0,0-21.22-23.3,2.16,2.16,0,0,0-2.26.65c-.94,1-2,1.86-2.9,2.83-.39.39-.62.44-1,0-1-1-2.1-2-3.13-3a1.88,1.88,0,0,0-1.84-.53A27.2,27.2,0,0,0,0,87.46a7.9,7.9,0,0,0,2.47,6A16.27,16.27,0,0,0,8.2,96.94,52.38,52.38,0,0,0,26.35,100a72.38,72.38,0,0,0,10.07-.63,36,36,0,0,0,11.41-3.23C53.88,93.05,54.67,89.74,54.06,85.47ZM29.78,66.76a12.14,12.14,0,0,0,1.67-1.61,1.75,1.75,0,0,1,2.29-.55c.87.34,2.16.33,2.53,1s-.64,1.55-1,2.35-1,1.85-1.49,2.86c-1.38-1.09-2.65-2.13-4-3.12C29.29,67.35,29.35,67.12,29.78,66.76Zm-3,2.74c1.12-.46,1.45.89,2.25,1.23.31.14.65.36.42.87-.15.31-.3.48-.67.47-.57,0-1.14,0-1.71,0s-1.15,0-1.72,0c-.33,0-.47-.19-.57-.46a.54.54,0,0,1,.17-.71A9.57,9.57,0,0,1,26.77,69.5Zm-8.52-4.14c1-.31,2-.65,3.06-1a.77.77,0,0,1,.83.18c.81.81,1.64,1.59,2.46,2.39l.3.33-.46.39c-1.15.92-2.32,1.82-3.46,2.76-.42.36-.62.32-.87-.18-.68-1.38-1.4-2.74-2.14-4.1C17.74,65.74,17.75,65.51,18.25,65.36ZM49.07,92a19.19,19.19,0,0,1-7.58,3.4A58.61,58.61,0,0,1,11,94.93a17.86,17.86,0,0,1-5.46-2.57,6,6,0,0,1-2.73-5.49c.32-8.06,5.51-16.61,12.32-20l3.24,6.16c.88,1.66,1.51,1.79,3,.68.29-.22.54-.76,1-.49s.33.8.24,1.29c-.91,5-1.8,10-2.71,15a2.06,2.06,0,0,0,.81,2.2c1.76,1.41,3.45,2.91,5.19,4.37,1,.84,1.47.85,2.47,0,1.78-1.49,3.54-3,5.32-4.51a1.88,1.88,0,0,0,.67-2c-.93-5-1.82-10-2.72-15,0-.23-.06-.46-.09-.7a.84.84,0,0,1,.32-.71c.29-.24.44.15.66.26a3.92,3.92,0,0,1,.32.25c1.41,1.12,2.11,1,2.93-.58,1-1.85,2-3.69,2.9-5.55.28-.56.47-.76,1.09-.36a24.17,24.17,0,0,1,11.6,20.58A5.11,5.11,0,0,1,49.07,92Z" transform="translate(-0.01 0)"/><path class="cls-1" d="M42.75,21.87l-9.85-3.6a15.64,15.64,0,0,0-5.81-1.12,12.56,12.56,0,0,0-3.4.4c-4.35,1.31-8.57,3-12.81,4.57a2.22,2.22,0,0,0-1.07,3.43c1.23,2.05,2.5,4.07,3.76,6.1a4.18,4.18,0,0,1,.63,1.68,37.92,37.92,0,0,0,.77,4,1.65,1.65,0,0,1,0,1.2,12.35,12.35,0,0,0-1,6.51,12.67,12.67,0,0,0,8.39,11,12.46,12.46,0,0,0,13.78-2.66A12.65,12.65,0,0,0,39.77,40a6.39,6.39,0,0,1-.3-3.82c.55-1.77.44-3.71,1.62-5.34s2-3.24,3-4.87C45.32,24,44.85,22.64,42.75,21.87ZM28.14,25.21a1,1,0,0,1-1,1,1,1,0,0,1-1-1,.94.94,0,0,1,1-1A1,1,0,0,1,28.14,25.21Zm-1,28.92A10.42,10.42,0,0,1,17.39,40c.28-.72.53-.88,1.26-.5a18.66,18.66,0,0,0,7.6,2.47,17.34,17.34,0,0,0,9.07-2.33c1.14-.59,1.15-.56,1.59.66A10.41,10.41,0,0,1,27.1,54.13Z" transform="translate(-0.01 0)"/><path class="cls-2" d="M70.84,34.63a1.33,1.33,0,0,0-2,.11c-.46.48-.67.36-1.09,0a7.4,7.4,0,0,0-4.84-2.18c-5.38,0-9,4-8.62,8.78a8.09,8.09,0,0,0,8.89,7.21,8,8,0,0,0,6.9-9.6,2,2,0,0,1,.67-2.16A1.37,1.37,0,0,0,70.84,34.63ZM62.65,45.72a5.19,5.19,0,0,1-2.8-9.78,5.31,5.31,0,0,1,5.77.66c.5.42.68.71.08,1.23-.82.71-1.56,1.5-2.3,2.28-.35.38-.58.45-.9,0a14.24,14.24,0,0,0-1.19-1.5,1.35,1.35,0,0,0-2-.24,1.29,1.29,0,0,0-.24,2c.83,1.11,1.68,2.19,2.58,3.24a1.37,1.37,0,0,0,2.26,0c1.11-1.08,2.18-2.2,3.39-3.43A5.11,5.11,0,0,1,62.65,45.72Z" transform="translate(-0.01 0)"/><path class="cls-2" d="M70.85,15.13a1.29,1.29,0,0,0-2,0c-.5.53-.75.44-1.25,0a7.9,7.9,0,0,0-9.62-.9A8,8,0,0,0,62.22,29a8,8,0,0,0,7.92-9.22c-.21-1.11-.31-1.93.69-2.71A1.23,1.23,0,0,0,70.85,15.13Zm-7.79,11A5.18,5.18,0,0,1,60.88,16a5.09,5.09,0,0,1,4.88,1.21c.34.29.54.52.08.93-.88.79-1.69,1.65-2.51,2.5-.3.31-.5.35-.77,0A17.56,17.56,0,0,0,61.29,19a1.4,1.4,0,1,0-2.2,1.73c.84,1.1,1.69,2.19,2.58,3.24A1.42,1.42,0,0,0,64,24c1.1-1.09,2.18-2.2,3.39-3.4A5.1,5.1,0,0,1,63.06,26.13Z" transform="translate(-0.01 0)"/><path class="cls-2" d="M88,40.51c0,.89-.63,1.43-1.79,1.43H80.4c-2,0-3.9,0-5.86,0-1.12,0-1.7-.51-1.68-1.42s.62-1.4,1.72-1.4H86.2C87.3,39.12,87.93,39.64,88,40.51Z" transform="translate(-0.01 0)"/><path class="cls-2" d="M72.85,21c0-.9.6-1.37,1.74-1.38H86.11c1.18,0,1.83.51,1.85,1.39s-.66,1.44-1.81,1.44H74.63C73.48,22.44,72.84,21.9,72.85,21Z" transform="translate(-0.01 0)"/><path class="cls-3" d="M97.15,50.81c0,4,0,8.1,0,12.14,0,.73-.14,1-.93,1a26.14,26.14,0,0,0-3.54,0c-.82,0-1-.24-1-1,0-7.62,0-15.24,0-22.86,0-.51,0-1,0-1.52s.15-.7.68-.69c1.32,0,2.63.05,4,0,.68,0,.83.21.82.85C97.14,42.72,97.15,46.77,97.15,50.81Z" transform="translate(-0.01 0)"/><path class="cls-4" d="M97.15,68.13c0,1.69-.73,2.78-2,3.09A2.74,2.74,0,0,1,92,69.83a5.52,5.52,0,0,1-.31-2.67c0-.31.21-.4.47-.4,1.49,0,3,0,4.45,0C97.16,66.78,97.16,66.84,97.15,68.13Z" transform="translate(-0.01 0)"/><path class="cls-5" d="M48.07,81.29c0-1.13-.5-1.63-1.62-1.64-3,0-6.06,0-9.09,0-1.16,0-1.66.53-1.68,1.68s0,2.57,0,3.85.53,1.66,1.67,1.67c1.49,0,3,0,4.45,0s3,0,4.55,0c1.19,0,1.69-.46,1.72-1.62C48.1,83.91,48.1,82.6,48.07,81.29ZM44.64,84c-.93-.05-1.88,0-2.82,0S40,84,39.1,84c-.62,0-.63-.31-.6-.76s-.11-.82.55-.82c1.88,0,3.76,0,5.65,0,.66,0,.53.44.55.82S45.27,84.07,44.64,84Z" transform="translate(-0.01 0)"/><path class="cls-3" d="M27.12,74.9c1.68,0,1.69,0,2,1.62.75,4.14,1.48,8.28,2.24,12.41a1.26,1.26,0,0,1-.51,1.39c-1,.84-2.07,1.72-3.08,2.62-.45.41-.77.47-1.26,0a36.53,36.53,0,0,0-3-2.55,1.43,1.43,0,0,1-.59-1.62c.78-4.23,1.56-8.47,2.26-12.71.16-1,.5-1.37,1.46-1.19A2.88,2.88,0,0,0,27.12,74.9Z" transform="translate(-0.01 0)"/><path class="cls-3" d="M41,24.22c-2.91-1-5.83-2.07-8.72-3.18a12.35,12.35,0,0,0-7.71-.76c-3.93,1.06-7.67,2.71-11.52,4-.65.22-.28.55-.1.84.93,1.52,1.89,3,2.79,4.57a1.46,1.46,0,0,0,1.45.81c3.3,0,6.61,0,9.91,0s6.74,0,10.11,0a1.3,1.3,0,0,0,1.3-.72c.92-1.56,1.87-3.12,2.87-4.64C41.72,24.58,41.54,24.43,41,24.22Zm-13.83,2a1,1,0,0,1-1-1,.94.94,0,0,1,1-1,1,1,0,1,1,0,2Z" transform="translate(-0.01 0)"/><path class="cls-6" d="M27.07,33.38c3,0,6,0,9,0,.79,0,1,.15.93,1a2.31,2.31,0,0,1-1.78,2.11c-1.57.61-3,1.57-4.6,2.06A11.45,11.45,0,0,1,22.17,38c-1.35-.62-2.68-1.27-4-1.91a3,3,0,0,1-1-2.52c.17-.36.53-.19.8-.19C21,33.37,24,33.38,27.07,33.38Z" transform="translate(-0.01 0)"/><path class="cls-1" d="M70.84,34.63a1.33,1.33,0,0,0-2,.11c-.46.48-.67.36-1.09,0a7.4,7.4,0,0,0-4.84-2.18c-5.38,0-9,4-8.62,8.78a8.09,8.09,0,0,0,8.89,7.21,8,8,0,0,0,6.9-9.6,2,2,0,0,1,.67-2.16A1.37,1.37,0,0,0,70.84,34.63ZM62.65,45.72a5.19,5.19,0,0,1-2.8-9.78,5.31,5.31,0,0,1,5.77.66c.5.42.68.71.08,1.23-.82.71-1.56,1.5-2.3,2.28-.35.38-.58.45-.9,0a14.24,14.24,0,0,0-1.19-1.5,1.35,1.35,0,0,0-2-.24,1.29,1.29,0,0,0-.24,2c.83,1.11,1.68,2.19,2.58,3.24a1.37,1.37,0,0,0,2.26,0c1.11-1.08,2.18-2.2,3.39-3.43A5.11,5.11,0,0,1,62.65,45.72Z" transform="translate(-0.01 0)"/><path class="cls-1" d="M70.85,15.13a1.29,1.29,0,0,0-2,0c-.5.53-.75.44-1.25,0a7.9,7.9,0,0,0-9.62-.9A8,8,0,0,0,62.22,29a8,8,0,0,0,7.92-9.22c-.21-1.11-.31-1.93.69-2.71A1.23,1.23,0,0,0,70.85,15.13Zm-7.79,11A5.18,5.18,0,0,1,60.88,16a5.09,5.09,0,0,1,4.88,1.21c.34.29.54.52.08.93-.88.79-1.69,1.65-2.51,2.5-.3.31-.5.35-.77,0A17.56,17.56,0,0,0,61.29,19a1.4,1.4,0,1,0-2.2,1.73c.84,1.1,1.69,2.19,2.58,3.24A1.42,1.42,0,0,0,64,24c1.1-1.09,2.18-2.2,3.39-3.4A5.1,5.1,0,0,1,63.06,26.13Z" transform="translate(-0.01 0)"/><path class="cls-1" d="M88,21c0,.89-.66,1.44-1.81,1.44H74.63c-1.15,0-1.79-.54-1.78-1.45s.6-1.37,1.74-1.38H86.11C87.29,19.62,87.94,20.12,88,21Z" transform="translate(-0.01 0)"/><path class="cls-1" d="M88,40.51c0,.89-.63,1.43-1.79,1.43H80.4c-2,0-3.9,0-5.86,0-1.12,0-1.7-.51-1.68-1.42s.62-1.4,1.72-1.4H86.2C87.3,39.12,87.93,39.64,88,40.51Z" transform="translate(-0.01 0)"/><path class="cls-1" d="M48.07,81.29c0-1.13-.5-1.63-1.62-1.64-3,0-6.06,0-9.09,0-1.16,0-1.66.53-1.68,1.68s0,2.57,0,3.85.53,1.66,1.67,1.67c1.49,0,3,0,4.45,0s3,0,4.55,0c1.19,0,1.69-.46,1.72-1.62C48.1,83.91,48.1,82.6,48.07,81.29ZM44.64,84c-.93-.05-1.88,0-2.82,0S40,84,39.1,84c-.62,0-.63-.31-.6-.76s-.11-.82.55-.82c1.88,0,3.76,0,5.65,0,.66,0,.53.44.55.82S45.27,84.07,44.64,84Z" transform="translate(-0.01 0)"/><path class="cls-1" d="M27.12,21.33A3.9,3.9,0,0,0,27,29.12a3.9,3.9,0,0,0,.09-7.79Zm0,4.91a1,1,0,0,1-1-1,.94.94,0,0,1,1-1,1,1,0,1,1,0,2Z" transform="translate(-0.01 0)"/></svg>