<svg xmlns="http://www.w3.org/2000/svg" xmlns:xlink="http://www.w3.org/1999/xlink" id="Layer_1" x="0px" y="0px" viewBox="0 0 91 91" style="enable-background:new 0 0 91 91;" xml:space="preserve"> <style type="text/css"> .st0{fill-rule:evenodd;clip-rule:evenodd;fill:#FFFFFF;} .st1{fill-rule:evenodd;clip-rule:evenodd;fill:#0B2852;} </style> <g> <circle class="st0" cx="45.5" cy="45.5" r="45.5"></circle> <path class="st1" d="M31.1,41.29c-1.15-2-0.59-2.69-1.5-3.03l-1.92-0.76l0.01-3.73c0.61-0.34,1.39-0.52,2.03-0.81 c0.43-0.2,0.36-0.38,0.51-0.88c0.1-0.33,0.22-0.69,0.37-1.04c0.14-0.34,0.28-0.65,0.46-0.99c0.78-1.46-0.11-1.12-0.59-3l2.62-2.64 c0.57,0.1,1.49,0.63,2.01,0.84c0.5,0.2,0.96-0.27,1.95-0.7c1.14-0.49,1.76-0.4,1.98-0.88c1.1-2.37-0.03-2.06,2.63-2.06 c2.29,0,1.83-0.36,2.47,1.33c0.4,1.06,0.22,0.95,0.81,1.11c3.3,0.87,2.24,1.71,4.02,0.9c0.37-0.17,0.96-0.49,1.33-0.55 c0.45,0.41,0.88,0.86,1.34,1.32c0.38,0.38,1.03,0.93,1.29,1.34c-0.14,0.63-0.73,1.52-0.87,2.03c-0.12,0.42,0.59,1.52,0.76,1.93 c0.54,1.25,0.31,1.7,0.91,1.94c0.64,0.26,1.39,0.46,1.99,0.78c0.04,0.7,0.13,3.22-0.05,3.7c-0.22,0.29-1.59,0.67-2.01,0.86 c-0.46,0.21-0.41,0.82-0.85,1.91c-0.21,0.51-0.9,1.5-0.73,2c0.19,0.55,0.72,1.38,0.84,1.96c-0.16,0.24-2.27,2.39-2.63,2.64 c-0.58-0.06-1.49-0.67-2.05-0.85c-0.41-0.13-0.58,0.1-0.95,0.3c-0.29,0.16-0.63,0.32-0.95,0.44c-1.04,0.41-1.75,0.44-1.96,0.9 c-0.18,0.39-0.61,1.92-0.87,1.98l-0.15,0.04c-0.09,0.02-0.15,0.02-0.25,0.02c-0.13,0.01-0.3,0-0.44,0c-0.74,0-2.27,0.05-2.85-0.04 c-0.31-0.46-0.57-1.5-0.82-2.02c-0.2-0.43-0.48-0.37-0.94-0.51c-0.37-0.11-0.69-0.23-1.02-0.37c-0.34-0.15-0.67-0.29-1-0.48 c-0.38-0.22-0.49-0.41-0.96-0.22c-0.44,0.18-1.53,0.78-2.03,0.82l-2.58-2.65c0.24-1.09,1.21-1.97,0.76-2.59l-0.09-0.24 C31.14,41.34,31.12,41.31,31.1,41.29L31.1,41.29z M49.85,49.51c0.03-0.01,0.08-0.04,0.1-0.02l0.22-0.11 c3.29-1.36,6.72-1.63,10.33-0.8c0.86,0.2,2.79,0.93,2.97,0.93c0.16-3.78-0.01-7.82,0.02-11.64c0.01-1.36,0.09-11.07-0.05-11.6 c-1.32-0.12-3.14-0.01-4.52-0.01c-1.59-0.01-2.91,0.18-3.84-0.79c-0.96-1.01-0.73-2.31-0.74-3.84c-0.01-1.41,0.09-3.1-0.01-4.47 c-2.2-0.15-4.9-0.01-7.16-0.01H22.38c-1.16,0-2.3-0.19-2.46,1.05c-0.11,0.86-0.02,2.58-0.01,3.52l0,17.71 c-0.08,10.69,0,21.3,0,31.96c0,1.17-0.09,2.16,1.25,2.22c2.27,0.1,4.78-0.02,7.08-0.01c2.36,0.01,4.73,0.03,7.08,0 c2.32-0.02,4.75,0.08,7.05-0.01c-0.08-0.29-1.2-2.08-1.73-3.89c-0.12-0.42-0.24-1.07-0.39-1.4c-0.67-0.11-6.88-0.04-8.12-0.04 c-1.35,0-2.71,0.01-4.06,0.01c-1.2,0-3.02,0.32-3.13-0.95c-0.13-1.45,1.66-1.17,2.88-1.17c1.35,0,2.71,0,4.06,0 c2.69,0,5.38,0,8.07,0c0.01-0.83-0.04-1.6,0-2.46c0.02-0.56,0.26-1.72,0.21-2.13c-0.96-0.01-13.93,0.09-14.45-0.06 c-0.5-0.14-0.92-0.68-0.72-1.32c0.19-0.59,0.68-0.72,1.37-0.72c2.16-0.01,13.53,0.1,14.4-0.03c0.36-0.71,1.2-3.15,1.94-3.86 l0.17-0.29l0.22-0.44l-15.18,0c-0.87,0-2.2,0.18-2.67-0.31c-0.65-0.68-0.17-1.71,0.68-1.77c0.9-0.06,2.09,0,3.02,0 c4.03,0.02,8.07,0.02,12.09,0c1.01,0,2.02,0,3.02,0c1.34,0,0.74,0.09,2.07-0.99C47.12,50.98,48.47,50.12,49.85,49.51L49.85,49.51z M44.25,32.44c-0.22-0.17-0.32-0.34-0.6-0.54c-0.23-0.17-0.63-0.32-0.77-0.43c-0.33-0.25-0.16-1.18-1.24-1.14 c-1.03,0.04-0.71,0.88-1.18,1.18c-0.3,0.19-0.44,0.17-0.77,0.45c-1.47,1.27-1.16,3.08-0.04,3.93c1.12,0.85,3.33,0.73,3.14,1.56 c-0.26,0.41-0.93,0.56-1.56,0.39c-0.67-0.18-0.6-0.68-0.92-1.06c-0.73-0.86-2.27-0.16-1.66,1.31c0.62,1.52,1.81,1.43,2.02,1.95 c0.1,0.26,0.22,0.97,1.14,0.88c0.67-0.06,0.76-0.47,0.96-1.04c1.12-0.52,2.1-0.93,2.13-2.44c0.05-2.69-2.82-2.7-3.68-3.04 c-0.81-0.32-0.3-1.06,0.51-1.06c1.37,0.01,0.98,2.15,2.79,0.89l0.15-0.31c0.14-0.52-0.01-0.8-0.24-1.22 c-0.02-0.02-0.05-0.04-0.06-0.05L44.25,32.44L44.25,32.44z M44.25,72.52c-0.49-0.5-1.37-2.66-1.63-3.49 c-0.44-1.42-0.66-2.92-0.62-4.55c0.04-1.55,0.29-3.06,0.76-4.41c0.27-0.76,1.19-2.92,1.74-3.45c0.09-0.36,0.04-0.18,0.18-0.28 c1.24-1.96,3.91-4.13,6.61-5.15c3.27-1.23,6.8-1.34,10.1-0.16c5.37,1.91,9.93,7.2,9.73,14.07c-0.2,6.94-4.79,11.84-10.21,13.59 c-6.98,2.25-13.55-1.34-16.49-5.86c-0.02-0.02-0.05-0.07-0.06-0.05l-0.08-0.15C44.27,72.59,44.26,72.55,44.25,72.52L44.25,72.52z M53.81,58.01c0.4-1.2,1.58-2.09,3.03-1.97c1.27,0.1,2.55,1.25,2.57,2.46L59.4,60.4l-5.67,0.01 C53.63,59.62,53.71,58.77,53.81,58.01L53.81,58.01z M55.98,63.25c2.21-0.67,4.03,2.31,2.21,3.97c-0.5,0.45-0.39,0.28-0.39,1.16 c0,0.96,0.18,1.94-0.65,2.38c-0.9,0.48-1.76-0.18-1.81-1.08c-0.03-0.49,0-1.07,0-1.57c0-0.78-0.16-0.59-0.52-0.99 C53.58,65.76,54.26,63.78,55.98,63.25L55.98,63.25z M63.29,24.19c-0.05-0.39-4.47-4.62-5.06-5.22c-0.3-0.31-1.42-1.55-1.79-1.65 c-0.03,1.14-0.01,2.32,0,3.46c0.03,4.09-0.71,3.38,3.44,3.43C60.9,24.22,62.29,24.27,63.29,24.19L63.29,24.19z M40.64,28.99 c-2.09,0.4-3.26,1.25-4.22,2.46c-0.98,1.23-1.72,3.09-1.38,5.28c0.53,3.38,3.78,6.15,7.73,5.55c3.34-0.5,6.21-3.72,5.57-7.74 C47.82,31.23,44.5,28.25,40.64,28.99L40.64,28.99z M49.33,60.51l1.45-0.12l0.04-1.77c0.03-0.59,0.13-0.5,0.14-0.5 c0.06-1.6,1.34-3.07,2.14-3.68c2.59-2.01,6.31-1.38,8.14,1.26c1.16,1.67,0.9,2.49,1.03,4.76c2.66,0.02,2.29,0.05,2.31,3.43 c0.01,2.16,0.08,6.5,0,8.56c-0.04,1.06-0.66,1.19-1.68,1.18l-11.32,0c-2.96-0.02-3,0.38-3.02-2.65l0-8.55 C48.54,61.53,48.5,60.76,49.33,60.51z"></path> </g> </svg>