<svg xmlns="http://www.w3.org/2000/svg" xmlns:xlink="http://www.w3.org/1999/xlink" xml:space="preserve" width="91px" height="91px" style="shape-rendering:geometricPrecision; text-rendering:geometricPrecision; image-rendering:optimizeQuality; fill-rule:evenodd; clip-rule:evenodd" viewBox="0 0 6.15 6.15"> <defs> <style type="text/css"> .fil1 {fill:#083264} .fil0 {fill:white} </style> </defs> <g id="Layer_x0020_1"> <metadata id="CorelCorpID_0Corel-Layer"></metadata> <g id="_1718376514176"> <circle class="fil0" cx="3.07" cy="3.07" r="3.07"></circle> <path class="fil1" d="M1.34 3.21c0.01,0.01 0.01,0.01 0.01,0.02 0,0.01 0,0.02 0,0.03 0,0.01 0,0.03 0.01,0.05 0.01,0.14 0.04,0.12 0.16,0.13 0.07,0.01 0.07,0.07 0.09,0.12 0.01,0.03 0.02,0.06 0.03,0.08 0.03,0.07 0.03,0.08 0.07,0.14 0.01,0.02 0.03,0.04 0.02,0.08 -0.01,0.03 -0.07,0.09 -0.09,0.12 0,0.01 0,0.03 0,0.05 0,0.02 0.05,0.07 0.06,0.09 0.03,0.04 0.11,0.13 0.14,0.16 0.1,0.09 0.12,0.12 0.23,0.19 0.09,0.07 0.12,-0.01 0.2,-0.06 0.03,-0.01 0.06,0 0.08,0.01 0.07,0.04 0.14,0.07 0.21,0.1 0.06,0.02 0.12,0.02 0.13,0.08 0.01,0.04 0.01,0.15 0.05,0.15 0,0 0.01,0.01 0.03,0.01l0.62 0c0.01,0 0,-0.01 0.02,-0.01 0.04,0 0.04,-0.12 0.05,-0.15 0.01,-0.06 0.07,-0.06 0.12,-0.08 0.01,-0.01 0.03,-0.01 0.04,-0.02 0.05,-0.02 0.13,-0.05 0.18,-0.08 0.02,-0.01 0.04,-0.02 0.07,-0.01 0.06,0.03 0.1,0.11 0.17,0.08 0.05,-0.01 0.23,-0.17 0.28,-0.23 0.01,-0.01 0.02,-0.01 0.03,-0.02 0.06,-0.06 0.09,-0.11 0.14,-0.17 0.08,-0.11 -0.08,-0.15 -0.07,-0.25 0,-0.01 0.01,-0.02 0.01,-0.03 0.06,-0.11 0.09,-0.17 0.12,-0.29 0.01,-0.02 0.03,-0.04 0.05,-0.05 0.06,-0.02 0.13,0 0.16,-0.04 0.02,-0.03 0.02,-0.05 0.03,-0.08 0,-0.02 0,-0.05 0.01,-0.07 0,0 0,-0.01 0,-0.01 0,-0.01 0,-0.01 0,-0.01l0 -0.33 -0.38 0 -0.02 0.06c0,0.02 -0.03,0.11 -0.03,0.13l0.27 0c0,0.07 -0.02,0.08 -0.08,0.09 -0.15,0.02 -0.11,0.04 -0.15,0.2 -0.01,0.03 -0.01,0.05 -0.02,0.08 0,0.01 -0.01,0.05 -0.02,0.06 0,0.02 -0.07,0.16 -0.09,0.2l-0.04 0.06c-0.01,0.02 -0.07,0.1 -0.07,0.11 -0.02,0.04 0,0.06 0.01,0.08 0.06,0.09 0.09,0.1 0.01,0.18 -0.02,0.03 -0.07,0.09 -0.12,0.06 -0.07,-0.04 -0.11,-0.11 -0.19,-0.04 -0.08,0.06 -0.22,0.13 -0.31,0.17 -0.12,0.04 -0.11,0.03 -0.23,0.06l-0.08 0.01c-0.07,0.02 -0.05,0.11 -0.07,0.17 -0.01,0.04 -0.05,0.05 -0.09,0.05 -0.03,0 -0.06,0.01 -0.09,0 -0.06,-0.02 -0.05,-0.08 -0.06,-0.13 -0.03,-0.08 -0.04,-0.08 -0.1,-0.09l-0.16 -0.04c-0.13,-0.03 -0.22,-0.08 -0.33,-0.14l-0.12 -0.08c-0.05,-0.03 -0.09,0.01 -0.13,0.04 -0.05,0.03 -0.07,0.05 -0.13,-0.01 -0.04,-0.04 -0.08,-0.07 -0.07,-0.11 0.02,-0.07 0.12,-0.12 0.06,-0.2 -0.05,-0.07 -0.08,-0.11 -0.12,-0.18l-0.05 -0.11 -0.05 -0.16c-0.02,-0.05 -0.04,-0.18 -0.05,-0.2 0,-0.01 -0.02,-0.02 -0.02,-0.02 -0.01,-0.01 -0.06,-0.02 -0.08,-0.02 -0.06,-0.02 -0.1,0 -0.1,-0.09l0.28 0c0,-0.01 -0.04,-0.16 -0.05,-0.19l-0.39 0 0 0.3zm1.68 -1.39l0.02 0.02c0.04,0.01 0.06,0.01 0.08,-0.01 0.04,-0.04 -0.02,-0.12 -0.07,-0.09 -0.03,0.02 -0.03,0.04 -0.03,0.08zm0.09 2.14c0,0 0,0 0,0 -0.01,0 -0.01,0 -0.01,0 0,0 0,0 0,0 -0.08,-0.03 -0.11,0.06 -0.06,0.09 0.01,0.01 0.03,0.01 0.05,0.01 0.01,0 0.02,-0.01 0.03,-0.02 0.03,-0.04 0,-0.07 -0.01,-0.08zm0.99 -1.71c-0.02,0 -0.03,0 -0.04,0.02 -0.03,0.03 -0.01,0.09 0.05,0.09 0.08,-0.01 0.06,-0.13 -0.01,-0.11zm-2.08 0c-0.07,0.03 -0.02,0.13 0.05,0.1 0.06,-0.02 0.02,-0.13 -0.05,-0.1zm1.01 0.73c0,0.03 0.03,0.02 0.02,0.06 -0.02,0.07 -0.04,0.09 -0.01,0.13 0.01,0.01 0.02,0.04 0.03,0.04 0.01,0 0.01,0 0.02,-0.01 0,0 0,-0.01 0.01,-0.01 0.04,-0.07 0.03,-0.04 0.02,-0.08 -0.01,-0.03 -0.02,-0.05 -0.02,-0.07 -0.01,-0.05 0.02,-0.04 0.01,-0.07 -0.02,0 -0.02,-0.02 -0.03,-0.03 -0.02,0.01 -0.03,0.03 -0.05,0.04zm-0.14 -0.33c0,0.01 -0.02,0.05 0.02,0.07 0.02,0.02 0.01,0.01 0.03,0.06 0.02,0.04 0.05,0.07 0.09,0.08 0,0 0.01,0 0.01,0.01l0.01 0c0.04,0 0.06,0.01 0.12,-0.04 0.04,-0.03 0.05,-0.08 0.06,-0.1 0.01,-0.01 0.05,-0.02 0.03,-0.08 -0.01,0 -0.01,0 -0.01,-0.01l0 -0.03c0.01,-0.09 -0.02,-0.14 -0.1,-0.18 -0.01,0 -0.02,0 -0.03,-0.01 -0.02,0 -0.02,-0.01 -0.07,-0.01 -0.02,0.01 -0.04,0.02 -0.05,0.03 -0.04,0.02 -0.06,0 -0.1,0.06 -0.03,0.06 0,0.1 -0.01,0.15zm0.03 0.25l-0.01 0.01c-0.05,0.03 -0.11,0.05 -0.17,0.09l-0.05 0.04c0,0.01 -0.01,0.02 -0.02,0.03 0,0.02 -0.01,0.03 -0.01,0.04 0,0.01 -0.01,0.03 -0.01,0.04 0,0.02 0.01,0.02 0.02,0.03 0.1,0.12 0.24,0.18 0.4,0.18 0.18,0 0.3,-0.06 0.41,-0.18 0.02,-0.02 0.02,-0.02 0.01,-0.07 -0.01,-0.02 -0.02,-0.05 -0.03,-0.07 0,0 0,0 0,0l-0.03 -0.02c-0.01,-0.01 -0.02,-0.02 -0.03,-0.02 -0.02,-0.02 -0.04,-0.03 -0.06,-0.04l-0.07 -0.04c-0.02,-0.01 -0.05,-0.03 -0.07,-0.03 -0.01,0.02 -0.02,0.1 -0.02,0.11 0,0.02 -0.01,0.14 -0.03,0.16l-0.05 0.08c-0.01,0 -0.01,0 -0.01,0.01 -0.01,0.01 0,0 -0.02,0.01 -0.01,-0.01 -0.02,-0.02 -0.03,-0.04 -0.05,-0.07 -0.04,-0.05 -0.06,-0.13 -0.01,-0.04 -0.01,-0.08 -0.01,-0.12 -0.01,-0.02 -0.01,-0.03 -0.01,-0.06 -0.01,-0.03 -0.01,-0.02 -0.04,-0.01zm-0.37 0.21c-0.07,-0.13 -0.07,-0.34 -0.02,-0.46 0.06,-0.13 0.13,-0.23 0.27,-0.3 0.03,-0.02 0.06,-0.03 0.09,-0.04 0.18,-0.06 0.41,-0.02 0.55,0.1 0.05,0.04 0.07,0.07 0.11,0.12l0.02 0.03c0.04,0.03 0.07,0.17 0.08,0.21 0.02,0.09 0,0.19 -0.02,0.28 -0.01,0.01 -0.02,0.03 -0.03,0.05 -0.04,0.08 -0.08,0.15 -0.16,0.21 -0.09,0.07 -0.2,0.12 -0.32,0.13 -0.1,0.01 -0.18,-0.01 -0.26,-0.04 -0.1,-0.03 -0.2,-0.11 -0.25,-0.19 -0.02,-0.02 -0.06,-0.08 -0.06,-0.1zm0.19 0.4c0.02,0 0.05,0.02 0.07,0.03 0.02,0.01 0.05,0.01 0.07,0.02 0.11,0.03 0.24,0.03 0.34,0.01 0.07,-0.01 0.03,-0.01 0.07,-0.02 0.11,-0.03 0.23,-0.11 0.3,-0.18 0.07,-0.07 0.11,-0.13 0.15,-0.23 0.02,-0.03 0.04,-0.1 0.05,-0.15 0,-0.03 0,0 0.01,-0.08l0 -0.14 -0.03 -0.12c-0.06,-0.21 -0.2,-0.36 -0.4,-0.46 -0.02,0 -0.05,-0.02 -0.07,-0.02 -0.03,-0.01 -0.08,-0.03 -0.14,-0.03 -0.08,-0.01 -0.24,0 -0.31,0.03 -0.07,0.03 -0.08,0.02 -0.17,0.08 -0.07,0.04 -0.09,0.07 -0.14,0.12 -0.03,0.03 -0.06,0.06 -0.08,0.1 -0.02,0.04 -0.04,0.07 -0.06,0.11 -0.05,0.13 -0.07,0.3 -0.04,0.44 0.04,0.14 0.09,0.24 0.19,0.34 0.05,0.05 0.1,0.1 0.16,0.13 0.01,0.01 0.02,0.01 0.03,0.02zm-0.5 -1.4l0.12 -0.05c0.12,-0.06 0.21,-0.11 0.33,-0.19 0.09,-0.05 0.21,-0.15 0.29,-0.21 0.01,-0.01 0.08,-0.08 0.09,-0.08 0.02,0.01 0.08,0.07 0.1,0.08 0.01,0.01 0.05,0.04 0.06,0.05 0.02,0.01 0.06,0.03 0.06,0.05 0.01,0 0.03,0.02 0.04,0.03l0.12 0.08c0.07,0.05 0.14,0.08 0.21,0.12 0.06,0.04 0.15,0.07 0.22,0.11l0.08 0.03c0.01,0 0,0 0.01,0.01 0.01,-0.01 0.03,0.01 0.05,0.01 0.02,0 0.03,0.01 0.05,0.02 0.02,0 0.15,0.04 0.16,0.05 0,0.07 0,0.13 -0.01,0.2l-0.01 0.14 -0.06 0.3c-0.01,0.02 -0.02,0.07 -0.03,0.09 -0.06,0.19 -0.11,0.3 -0.21,0.48 -0.12,0.19 -0.27,0.36 -0.44,0.5 -0.02,0.01 -0.12,0.09 -0.14,0.09 -0.02,0.02 -0.19,0.11 -0.23,0.13 -0.02,0.01 -0.02,0.02 -0.05,0 -0.08,-0.04 -0.1,-0.05 -0.18,-0.1 -0.03,-0.01 -0.06,-0.03 -0.09,-0.05 -0.02,-0.01 -0.15,-0.11 -0.16,-0.13 -0.04,-0.01 -0.25,-0.24 -0.26,-0.27 -0.02,-0.02 -0.1,-0.14 -0.11,-0.15 -0.05,-0.08 -0.09,-0.17 -0.13,-0.25 -0.02,-0.04 -0.1,-0.24 -0.1,-0.28 -0.01,-0.01 -0.02,-0.07 -0.03,-0.08 0,-0.03 -0.01,-0.06 -0.01,-0.08 -0.01,-0.02 -0.01,-0.03 -0.01,-0.04 -0.01,-0.04 -0.02,-0.1 -0.02,-0.13 -0.02,-0.09 -0.04,-0.28 -0.04,-0.37 0.03,-0.01 0.06,-0.02 0.09,-0.03 0.01,0 0.03,-0.01 0.04,-0.01l0.08 -0.03c0.01,0 0.03,0 0.04,-0.01l0.08 -0.03zm0.8 -0.69l-0.13 0.11c-0.09,0.08 -0.25,0.19 -0.34,0.25 -0.03,0.02 -0.05,0.03 -0.08,0.05l-0.07 0.04c-0.03,0.01 -0.05,0.02 -0.08,0.04 -0.08,0.04 -0.25,0.11 -0.34,0.13 -0.03,0.01 -0.05,0.02 -0.09,0.03 -0.03,0.01 -0.06,0.01 -0.09,0.02 -0.01,0.01 -0.01,0.01 -0.03,0.01 -0.01,0 -0.01,0 -0.02,0.01 -0.01,0.02 0.02,0.34 0.02,0.41 0.01,0.03 0.02,0.06 0.02,0.11l0.02 0.11c0.01,0.04 0.03,0.12 0.03,0.14 0.01,0.04 0.04,0.13 0.05,0.17 0,0.01 0.01,0.02 0.01,0.03 0.05,0.14 0.11,0.29 0.19,0.42 0.07,0.1 0.14,0.2 0.22,0.29 0.15,0.16 0.29,0.28 0.48,0.39 0.03,0.02 0.07,0.04 0.11,0.06 0.02,0.01 0.03,0.02 0.05,0.03 0.01,0.01 0.02,0.01 0.04,0.02 0.03,0.02 0.06,0.03 0.09,0.02l0.11 -0.06c0.08,-0.04 0.21,-0.11 0.27,-0.16 0.22,-0.16 0.4,-0.34 0.54,-0.58 0.02,-0.02 0.03,-0.04 0.04,-0.05 0.01,-0.02 0.05,-0.1 0.06,-0.11l0.06 -0.15c0.04,-0.08 0.11,-0.3 0.12,-0.39l0.02 -0.06c0,-0.01 0,-0.01 0,-0.02 0,-0.02 0.03,-0.14 0.03,-0.19 0,-0.02 0,-0.02 0.01,-0.03 0,-0.02 0,-0.03 0,-0.04 0,-0.02 0,-0.02 0,-0.03 0.01,-0.06 0.01,-0.11 0.01,-0.17 0,-0.03 0.01,-0.14 0,-0.17l-0.29 -0.07 -0.19 -0.08c-0.02,-0.01 -0.04,-0.02 -0.06,-0.03l-0.06 -0.03c-0.17,-0.09 -0.39,-0.23 -0.53,-0.35l-0.08 -0.08c-0.03,-0.02 -0.07,-0.08 -0.09,-0.08 -0.01,0 -0.03,0.03 -0.03,0.04z"></path> </g> </g> </svg>