<svg xmlns="http://www.w3.org/2000/svg" xmlns:xlink="http://www.w3.org/1999/xlink" xml:space="preserve" width="91px" height="91px" style="shape-rendering:geometricPrecision; text-rendering:geometricPrecision; image-rendering:optimizeQuality; fill-rule:evenodd; clip-rule:evenodd" viewBox="0 0 29 29"> <defs> <style type="text/css"> .fil1 {fill:#083264} .fil0 {fill:white} </style> </defs> <g id="Layer_x0020_1"> <metadata id="CorelCorpID_0Corel-Layer"></metadata> <g id="_1754026148704"> <circle class="fil0" cx="14.5" cy="14.5" r="14.5"></circle> <g> <path class="fil1" d="M14.14 7.57l-1.07 2.19c-0.44,0.9 -0.29,2.57 -0.53,2.69 -0.09,-0.14 0.15,-1.84 0.2,-2.21 0.04,-0.23 0.19,-0.38 0.21,-0.59 0.13,-0.12 0.28,-0.5 0.37,-0.67 0.07,-0.15 0.3,-0.58 0.32,-0.74 0.13,-0.12 0.29,-0.51 0.37,-0.68 0.17,-0.36 0.21,-0.45 0.6,-0.23l0.04 -0.62c-0.06,-0.1 -0.07,-0.18 -0.23,-0.18 -0.18,0.01 -0.24,0.18 -0.34,0.31 -0.02,0.03 -0.05,0.07 -0.06,0.11 -0.1,0.16 -0.22,0.33 -0.3,0.52 -0.03,0.02 -0.01,0 -0.05,0.06l-1.01 1.71c-0.27,0.15 -0.53,1.37 -0.63,1.78 -0.14,0.56 -0.41,1.42 -0.47,1.97 -0.12,1.13 -0.17,2.28 -0.28,3.42 -0.02,0.24 -0.03,0.3 -0.16,0.45 -0.2,0.22 -0.29,0.18 -0.3,0.3 -0.2,0.11 -0.15,0.09 -0.31,0.23 -0.1,0.09 -0.15,0.13 -0.27,0.23 -0.16,0.14 -0.42,0.3 -0.52,0.49 -0.16,0.03 -0.13,0.07 -0.27,0.18 -0.1,0.08 -0.17,0.09 -0.22,0.22 -0.14,0.05 -0.49,0.37 -0.61,0.49 0.12,0.2 0.16,0.21 0.3,0.37 0.13,0.15 0.11,0.19 0.31,0.31 0.02,0.14 0.07,0.14 0.16,0.25l1.07 1.23c0.07,0.08 0.35,0.44 0.43,0.45 0.05,0.09 0.08,0.14 0.14,0.21l0.28 0.33c0.05,0.05 0.11,0.1 0.16,0.15 0.15,-0.15 0.26,-0.42 0.34,-0.65 0.23,-0.18 0.61,-1.44 1.13,-1.86 0.14,-0.11 0.18,-0.15 0.33,-0.29 0.21,-0.21 0.39,-0.37 0.58,-0.64 0.49,-0.69 0.45,-0.96 0.55,-1.9 0.04,-0.38 0.07,-0.75 0.11,-1.13 0.03,-0.39 0,-0.86 0.03,-1.2 -0.28,-0.4 -0.1,-3.35 -0.21,-4.08l0.11 -0.26c0.03,-0.09 0.05,-0.17 0.07,-0.27 0.04,-0.18 0.08,-0.36 0.11,-0.55 0,-0.17 0.06,-0.71 -0.17,-0.76 -0.23,0.02 -0.3,0.41 -0.38,0.6 -0.11,0.24 -0.24,0.51 -0.31,0.77 -0.26,0.27 -0.39,1.67 -0.46,2.18 -0.05,0.36 -0.04,0.64 -0.15,0.75 -0.1,-0.09 -0.06,-0.1 -0.04,-0.25 0.01,-0.11 0.03,-0.2 0.04,-0.31 0.03,-0.2 0.06,-0.42 0.08,-0.61 0.18,-1.41 0.04,-0.93 0.57,-2.19 0.06,-0.16 0.14,-0.33 0.2,-0.48 0.03,-0.09 0.06,-0.16 0.1,-0.25 0.05,-0.11 0.06,-0.12 0.07,-0.22 0.08,-0.04 0.02,-0.01 0.08,-0.05 0.18,-0.1 0.07,-0.01 0.27,-0.09 0.05,-0.02 0.07,-0.22 0.09,-0.28 0.04,-0.19 0.11,-0.58 -0.04,-0.73 -0.04,-0.16 -0.1,-0.23 -0.3,-0.22 -0.09,0.08 -0.1,0.11 -0.13,0.24z"></path> <path class="fil1" d="M16.65 10.71c-0.04,0.27 0.04,0.69 0.05,0.98 0.02,0.22 0.17,0.82 -0.02,0.93l0 -0.01c0.01,0 0.02,0.02 0.02,0.03 0.01,0 0.02,0.01 0.03,0.02 0.01,0.01 0.02,0.02 0.02,0.03 0.1,0.08 -0.1,0.03 0.15,0.07 0.04,0.01 0.22,0 0.27,0l0 0.23 -0.61 0 0 0.61 -0.23 0c0,-0.52 0.03,-0.34 -0.11,-0.46 0.02,0.04 0.09,-0.03 -0.08,0.11 -0.09,0.07 0,0.02 -0.15,0.08l0 -0.04c0,0 0,-0.01 0,-0.02l-0.13 -0.35c0,-0.02 -0.01,-0.02 -0.01,-0.04 -0.01,-0.03 -0.01,-0.03 -0.02,-0.04 0.05,0.18 0.06,0.14 0.02,0.32 -0.04,-0.13 -0.02,-0.24 -0.02,-0.4l-0.08 -0.06c-0.04,-0.06 -0.03,-0.25 -0.03,-0.32l-0.31 0 0 -0.62 -0.34 0 -0.11 1.8c-0.02,0.26 -0.07,0.23 -0.12,0.27 0,-0.43 0.06,-0.85 0.03,-1.15l-0.19 2.12c0.03,0.16 0.02,1.7 0.03,2.02 0,0.48 -0.03,1.52 0.28,1.8 0.14,0.38 0.68,1 0.91,1.18 0.08,0.09 0.19,0.15 0.3,0.26 0.09,0.1 0.14,0.27 0.21,0.32 0.1,0.32 0.3,0.67 0.46,1 0.09,0.19 0.32,0.78 0.47,0.91 0.02,0.24 0.07,0.2 0.2,0.07 0.1,-0.09 0.17,-0.18 0.26,-0.28l0.5 -0.52c0,0 0.01,-0.01 0.02,-0.01 0.09,-0.21 0.17,-0.18 0.28,-0.34 0.1,-0.09 0.15,-0.14 0.23,-0.25 0.07,-0.09 0.12,-0.12 0.21,-0.22l1.01 -1.08c0.13,-0.12 0.23,-0.25 0.33,-0.38 -0.09,-0.08 -0.05,-0.04 -0.11,-0.14 -0.1,-0.02 -0.19,-0.17 -0.36,-0.3 -0.14,-0.12 -0.25,-0.18 -0.34,-0.34 -0.15,-0.08 -0.24,-0.18 -0.38,-0.32l-1.12 -1.03c-0.31,-0.27 -0.25,-0.54 -0.27,-1.13l-0.11 -2.72c-0.02,-0.47 -0.66,-3.46 -0.75,-3.53 -0.01,0.01 -0.04,0.04 -0.04,0.03 -0.01,-0.02 -0.05,0 -0.07,0.01l-0.15 -0.18c-0.03,0.12 -0.01,0.02 -0.06,0.14l-0.03 0.08c-0.03,0.2 0.16,0.23 0.16,1.07 -0.14,-0.11 -0.11,0.07 -0.11,-0.45l0.01 0.24z"></path> <path class="fil1" d="M15.23 7.27c0.09,0.15 0.12,0.18 0.21,0.37l1.12 2.55c0.05,0.14 0.02,0.41 0.09,0.52l-0.01 -0.24c0,0.52 -0.03,0.34 0.11,0.45 0,-0.84 -0.19,-0.87 -0.16,-1.07l0.03 -0.08c0.05,-0.12 0.03,-0.02 0.06,-0.14l0.15 0.18c0.02,-0.01 0.06,-0.03 0.07,-0.01 0,0.01 0.03,-0.02 0.04,-0.03 -0.1,-0.27 -0.27,-0.53 -0.41,-0.77 -0.15,-0.25 -0.28,-0.5 -0.42,-0.73 -0.11,-0.2 -0.77,-1.39 -0.85,-1.45 -0.05,-0.15 -0.07,-0.17 -0.14,-0.27 -0.19,-0.02 -0.16,-0.04 -0.27,0.07 -0.12,0.23 -0.02,0.32 -0.06,0.53 0.03,0.04 0.01,-0.02 0.05,0.09 0.02,0.07 0.01,0.05 0.03,0.12 0.11,-0.04 0.21,-0.07 0.36,-0.09zm-0.12 1.39c0.23,0.27 0.26,0.47 0.41,0.92 0.12,0.34 0.26,0.67 0.37,1.01 0.03,0.09 0.27,2.05 0.25,2.36 0,0.12 0.02,-0.04 0,0.08 -0.02,0.08 0,0.04 -0.04,0.09 -0.13,-0.1 -0.16,-0.96 -0.17,-1.17 -0.04,-0.35 -0.06,-0.91 -0.13,-1.23 -0.04,-0.22 -0.64,-1.81 -0.72,-1.95 -0.22,0.02 -0.27,0.14 -0.32,0.35 -0.05,0.27 0.01,0.58 0.06,0.86 0.05,0.26 0.16,0.59 0.17,0.83 0.01,0.54 -0.07,1.32 -0.12,1.87 0.03,0.3 -0.03,0.72 -0.03,1.15 0.05,-0.04 0.1,-0.01 0.12,-0.27l0.11 -1.8 0.34 0 0 0.62 0.31 0c0,0.07 -0.01,0.26 0.03,0.32l0.08 0.06c0,0.16 -0.02,0.27 0.02,0.4 0.04,-0.18 0.03,-0.14 -0.02,-0.32 0.01,0.01 0.01,0.01 0.02,0.04 0,0.02 0.01,0.02 0.01,0.04l0.13 0.35c0,0.01 0,0.02 0,0.02l0 0.04c0.15,-0.06 0.06,-0.01 0.15,-0.08 0.17,-0.14 0.1,-0.07 0.08,-0.11 0.14,0.12 0.11,-0.06 0.11,0.46l0.23 0 0 -0.61 0.61 0 0 -0.23c-0.05,0 -0.23,0.01 -0.27,0 -0.25,-0.04 -0.05,0.01 -0.15,-0.07 0,-0.01 -0.01,-0.02 -0.02,-0.03 -0.01,-0.01 -0.02,-0.02 -0.03,-0.02 0,-0.01 -0.01,-0.03 -0.02,-0.03l0 0.01c-0.07,-0.23 -0.16,-1.63 -0.19,-2.04 -0.02,-0.34 -0.05,-0.35 -0.16,-0.62 -0.11,-0.27 -0.83,-1.98 -0.92,-2.06 -0.06,-0.18 -0.13,-0.38 -0.23,-0.49 -0.51,-0.01 -0.41,0.74 -0.33,1.09l0.06 0.17 0.2 -0.01z"></path> </g> </g> </g> </svg>