<svg xmlns="http://www.w3.org/2000/svg" xmlns:xlink="http://www.w3.org/1999/xlink" id="Layer_1" x="0px" y="0px" viewBox="0 0 91 91" style="enable-background:new 0 0 91 91;" xml:space="preserve"> <style type="text/css"> .st0{fill-rule:evenodd;clip-rule:evenodd;fill:#FFFFFF;} .st1{fill-rule:evenodd;clip-rule:evenodd;fill:#0B2852;} </style> <g> <circle class="st0" cx="45.5" cy="45.5" r="45.5"></circle> <path class="st1" d="M43.82,16.14c-4.82,1.17-9,6.1-7.36,12.4c1.2,4.59,6.14,8.71,12.23,7.19c4.69-1.17,8.82-6.11,7.37-12.19 C54.89,18.7,49.96,14.65,43.82,16.14L43.82,16.14z M24.42,30.53l1.14,2.03c-0.8,1.3-4.54,3.53-5.89,8.24l3.18,1.17 c1.02-1.36,2.18-5.02,4.89-6.16c0.39,0.77,0.74,1.48,1.41,2.05l3.93-7.63L24.42,30.53L24.42,30.53z M37.38,68.55 c1.19,1.84,4.4,5.47,4.97,6.63l0.76-1c0.14-0.31,0.26-0.79,0.37-1.13c4.66,0.77,5.17,1.11,10.08,0.23l-0.79-3.42 c-3.32,0.34-4.25,0.75-7.7-0.14l0.77-2.47C43.77,67.38,38.78,67.83,37.38,68.55L37.38,68.55z M60.9,31.5 c1.74,1.34,4.11,3.43,4.92,6l-2.22,0.8c0.26,0.72,5.35,5.12,6.32,5.63c0.58-1.1,1.47-6.66,1.74-8.33l-2.52,0.68 c-0.74-3.04-4.28-6.5-6.27-7.64L60.9,31.5L60.9,31.5z M11.58,64.7l20.54,0L21.95,46.85C21.31,47.44,11.86,63.74,11.58,64.7 L11.58,64.7z M63.79,64.78l10.42,0c0.58-0.59,5.21-8.58,5.22-9.06c0.01-0.51-4.65-8.51-5.22-9.07l-10.32-0.03 c-0.66,0.86-5.15,8.67-5.15,9.1C58.74,56.22,63.19,63.67,63.79,64.78z"></path> </g> </svg>