<svg xmlns="http://www.w3.org/2000/svg" xmlns:xlink="http://www.w3.org/1999/xlink" id="Layer_1" x="0px" y="0px" viewBox="0 0 91 91" style="enable-background:new 0 0 91 91;" xml:space="preserve"> <style type="text/css"> .st0{fill-rule:evenodd;clip-rule:evenodd;fill:#FFFFFF;} .st1{fill-rule:evenodd;clip-rule:evenodd;fill:#0B2852;} </style> <g> <circle class="st0" cx="45.5" cy="45.5" r="45.5"></circle> <path class="st1" d="M10.2,43.5v4.21c0.06,0.15,0.35,3.11,0.44,3.66c0.97,5.74,2.86,9.94,6.06,14.59c0.8,1.17,2.71,3.41,3.83,4.5 l1.57,1.44c0.21,0.16,0.37,0.33,0.58,0.5c2.32,1.89,4.73,3.6,7.61,4.87c1.98,0.87,3.84,1.59,6.07,2.18 c1.13,0.3,2.28,0.54,3.42,0.73c0.5,0.08,3.6,0.4,3.72,0.45h4.14c0.18-0.08,3.08-0.35,3.66-0.45c5.55-0.95,10.25-2.88,14.73-6.07 c0.69-0.49,2.97-2.27,3.45-2.79c0.58-0.63,1.09-0.92,2.04-2.05c1.16-1.37,1.62-1.78,2.79-3.45c3.08-4.36,5.19-9.35,6.05-14.76 c0.09-0.55,0.39-3.61,0.44-3.73v-3.94c-0.06-0.14-0.38-3.15-0.47-3.7c-0.2-1.17-0.44-2.28-0.73-3.41c-0.54-2.11-1.39-4.19-2.26-6 c-1.73-3.63-3.42-5.83-5.87-8.63c-0.64-0.73-1.3-1.43-2.03-2.06L67.2,17.7c-1.77-1.43-4.13-2.84-6.33-3.93 c-2.85-1.42-6.22-2.44-9.43-2.97c-0.51-0.08-3.51-0.39-3.64-0.45h-4.5c-0.22,0.09-3.09,0.37-3.7,0.48 c-1.15,0.2-2.33,0.43-3.42,0.74c-2.15,0.59-4.18,1.32-6.02,2.23c-2.9,1.44-6.3,3.64-8.65,5.92c-1.09,1.06-3.11,3.15-3.93,4.32 c-1.4,2-2.96,4.12-3.93,6.4c-1,2.35-1.55,3.39-2.25,6c-0.31,1.14-0.56,2.24-0.75,3.41C10.54,40.41,10.28,43.33,10.2,43.5L10.2,43.5 z M33.88,75.12c-2.78-0.74-7.47-3.77-9.7-5.79c-0.65-0.58-1.76-1.61-2.29-2.23c-0.18-0.22-0.22-0.29-0.43-0.5 c-0.18-0.18-0.24-0.29-0.39-0.47c-9.78-11.24-10.23-28.08-0.92-40.1c0.25-0.33,0.52-0.68,0.79-1.01l0.84-0.96 c0.84-1.03,2.18-2.22,3.25-3.13c4.08-3.48,9.87-6.14,15.6-7c0.98-0.15,0.7-0.08,1.26-0.6c0.22-0.21,0.74-0.54,1.1-0.69 c1.86-0.79,3.99-1.08,5.63,0.18c1.49,1.14,0.13,0.82,2.43,1.22c2.12,0.37,3.79,0.89,5.72,1.53c3.05,1.02,6.74,3.2,9.17,5.32 c0.32,0.28,0.68,0.62,1,0.87c0.66,0.51,1.2,1.21,1.81,1.78l0.86,0.93c3.56,4.15,5.97,8.73,7.27,14.46 c1.96,8.6-0.21,17.18-4.15,23.39c-1.36,2.15-4.18,5.7-6.31,7.32c-0.85,0.64-1.65,1.36-2.53,1.99c-0.68,0.48-1.43,0.95-2.19,1.39 c-1.42,0.81-3.33,1.84-4.92,2.3c-0.17-0.94-0.41-1.75-0.88-2.56c-0.72-1.23-0.36-0.39-0.31-1.66c0.02-0.37-0.01-0.78-0.05-1.15 c-0.08-0.89-0.33-1.08-0.52-1.74c0.96-0.61,0.4-1.34,0.09-2.15c2.3-0.08,2.09,0.24,2.14-2.08l0.96-0.13c0.26-0.05,0.13,0,0.27-0.09 c0.25-0.25,0.6-4.86,0.35-5.68c-0.09-0.29-0.2-0.28-0.38-0.46l1.12-0.86c0.35-0.46,0.13-0.73,0.7-1.24 c0.52-0.46,0.36-0.81,0.35-1.63c-0.01-0.66,0.01-1.32,0-1.97l0.59-0.19c0.15-0.77,0.08-2.1,0.09-2.94c0.15-0.31,0.14-0.02,0.35-0.3 c0.18-0.24,0.41-1.01,0.47-1.28c-0.41-0.39-0.85-0.63-1.09-1.29c0.13-0.22,0.42-0.43,0.64-0.56c-0.1-0.43-0.54-1.16-0.54-1.59 c0.01-0.38,0.2-0.39,0.13-0.93c-0.05-0.41-0.1-0.46-0.01-0.92c0.34-1.88-0.8-1.54-1.78-2.38c0.63-0.42,1.55-0.32,0.84-1.44 c-1.6-2.55-0.54-1.34-0.84-2.88c-0.34-1.74-1-3.31-1.83-4.85c-1.71-3.2-3.39-2.83-4.35-3.6l0.24-0.65 c-0.16-0.12-0.39-0.16-0.6-0.24c-0.73-0.28-0.04-0.1-0.38-0.34c-0.3-0.1-1-0.19-1.37-0.27c-0.69-0.15-0.83-0.27-1.21,0.23 l-0.06-0.1c-0.19-0.4,0.04,0.12-0.05-0.1c-0.02-0.06-0.03-0.1-0.05-0.16c-0.04-0.14-0.08-0.27-0.11-0.39 c-0.2-0.68-0.4-1.44-1.12-1.68c0.14-0.91,0.03-1.9,0.47-2.6c0.17-0.27,0.42-0.66,0.51-1.01c0.14-0.56-0.11-0.71-0.11-1.23 c0-1.2,0.99-3.44-1.23-4.32c0.02-0.01,0.04-0.01,0.06-0.01l0.33-0.07c-0.1-0.14-0.61-0.53-0.86-0.69c-0.3-0.18-0.67-0.34-1.09-0.42 c-0.85-0.15-1.93,0.1-2.69,0.34c-0.4,0.13-0.74,0.3-1.06,0.51c-0.72,0.49-1.76,1.65-2.08,2.41c0.48-0.03,0.79-0.28,1.27,0.02 c0.08,0.25-0.19,1.51-0.25,1.9c-0.26,1.58,0.22,0.52,0.03,1.9c-0.1,0.75,0.37,1.12,0.47,1.82c0.1,0.7,0.26,1.13,0.51,1.69 c-0.01,0.01-0.03,0.03-0.04,0.03c-0.01,0-0.03,0.02-0.04,0.03c-0.01,0.01-0.07,0.04-0.08,0.05c-1.4,0.8-0.8,1.1-1.47,1.93 c-0.15-0.22-0.15-0.4-0.45-0.45c-0.21-0.04-0.59,0.06-0.81,0.1c-0.53,0.1-0.99,0.2-1.52,0.28l-0.13,0.21 c-0.11,0.13,0.19,0.01-0.21,0.13c-0.3,0.1-0.32,0.02-0.56,0.19c0.1,0.28,0.23,0.43,0.31,0.66c-0.44,0.19-1.06,0.56-1.47,0.81 c-2.38,1.45-1.84,1.14-2.93,3.89c-0.23,0.59-0.48,1.02-0.77,1.53c-0.27,0.48-0.61,0.91-0.89,1.4c-0.93,1.6,1.07,1.54,1.95,1.89 c-0.76,0.56-1.58,0.02-2.2-0.2c-0.99,2.71-0.48,1.58,0.6,2.49c-0.38,0.42-1.43,0.56-1.53,1.16c-0.06,0.34-0.07,0.96,0.12,1.21 c0.24,0.32,0.55,0.24,0.87,0.41l-1.06,0.18c0.32,0.83,1.03,1.12,1.29,1.65c-0.83-0.02-1.03-0.5-1.73-0.37 c-0.03,1.07-0.15,1.88,0.72,1.96c0.2,0.02,0.44,0.02,0.65,0.04c-0.16,0.29-0.35,0.4-0.57,0.6c-0.15,0.13-0.42,0.39-0.55,0.53 c-0.35,0.37-0.38,1.14-0.41,1.74c-0.06,1.34,0.15,1.2,0.21,2.01c0.05,0.67,0,1.44,0.02,2.16l0.63,0.14 c-0.05,1.02-0.64,2.81-0.56,3.73c0.21,0.19,0.24,0.22,0.51,0.41c0.72,0.49,0.15,0.77,1.23,1.42c0.04,0.97-0.22,5-0.24,6.49 c-0.01,0.58-0.07,0.39,0.27,0.64c0,0.97,0.12,1.23-0.48,1.42c-0.05-0.32,0-0.48-0.23-0.69l-0.09,1.09 c1.05,0.02,0.51,0.01,0.99,0.22c0.27,0.12,0.83,0.08,1.03-0.04c0.17-0.33,0.03-1.72,0.11-2.26l0.33,0 c0.13,0.45,0.16,2.43,0.21,3.06c0.08,1.01,0.23,2,0.3,3.02c0.03,0.5,0.09,0.9,0.35,1.3c0.66,1.01,0.39,0.63-0.28,2.29 C34.08,74.23,34.02,74.73,33.88,75.12L33.88,75.12z M40.73,77.1c0.07-0.62,0.19-0.95,0.18-1.61c-0.01-0.55-0.06-1.12-0.03-1.65 c0.16-2.47,1.97-1.81,1.44-5c-0.22-1.36,0.92-0.88,1.35-1.86c0.2-0.45,0.13-1.04-0.01-1.48c-0.1-0.31-0.45-0.96-0.48-1.17 c-0.09-0.55,1.65-1.29,1.5-3.41c-0.03-0.48-0.32-1.04-0.29-1.34c0.02-0.29,0.78-2,0.95-2.29c0.14,0.56-0.09,0.45,0.36,1.51 c0.16,0.39,0.5,0.87,0.61,1.19c0.26,0.73-0.29,1.33,0.72,2.94c0.88,1.41,0.76,0.73,0.34,2.57c-0.51,2.25,0.28,2.06,1.01,2.38 c0.1,0.4,0.01,2.05,0.06,2.65c0.09,1.13,0.34,1.26,0.79,1.95c0.67,1.01,0.1,2.34,0.71,4.65c-1.34,0.26-3.21,0.29-4.64,0.29 C43.67,77.44,42.21,77.17,40.73,77.1L40.73,77.1z M29.28,44.78c-0.38-0.19-1.06-0.79-1.48-1.1c-2.7-1.98-5.96-4.53-8.67-6.62 l-1.41-1.14c4.11-0.05,8.3,0.03,12.42,0l0.47-0.01c-0.13,0.49-0.36,0.83-0.47,1.27c-0.18,0.72,0.12,0.74,0.22,1.22 c-0.42,0.48-0.71,0.48-0.66,1.36c0.04,0.7-0.02,1.24,0,1.89c0.01,0.55-0.58,0.3-0.51,1.36C29.22,43.51,29.42,44.38,29.28,44.78 L29.28,44.78z M61.18,39.72c0.02-0.45,0.27-0.63,0.22-1.09c-0.11-1.07-1.04-0.93-1.12-2.71l13.08,0c-0.1,0.14-0.02,0.04-0.13,0.15 c-0.02,0.02-0.07,0.06-0.08,0.08c-0.63,0.55-4.34,3.17-5.45,4.02c-0.35,0.27-5.36,4.01-5.64,4.12c-0.05-0.1,0-2.35,0.05-2.68 C62.24,40.69,61.97,40.14,61.18,39.72L61.18,39.72z M22.21,63.7c0.22-0.62,0.57-1.27,0.84-1.9l4.2-9.58 c0.29-0.66,0.56-1.27,0.86-1.94l0.75-1.69c0.14-0.22,0.03-0.07,0.16-0.18c0.07,0.66,0.24,1.12,0.25,1.82c0,0.7,0,1.41,0,2.1 l0.53,0.05c-0.06,0.63-0.55,2.88-0.41,3.35c0.21,0.71,0.76,0.61,0.95,0.99c0.23,0.48-0.08,0.31,0.75,1.11 c-0.01,0.01-0.03,0.03-0.03,0.04c-0.01,0.01-0.03,0.03-0.04,0.04C30.7,58.21,22.28,63.67,22.21,63.7L22.21,63.7z M61.45,52.42 c0.61,0.01,0.51,0.02,0.62-0.62c0.07-0.4,0.06-0.79,0.23-0.99c0.19,0.53,0.52,1.04,0.77,1.59c1.17,2.66,2.35,5.54,3.52,8.11 l1.37,3.19l-1.62-1.07c-0.54-0.37-1.06-0.71-1.59-1.06l-4.05-2.69c-0.59-0.39-1.08-0.57-1.02-1.03c0.06-0.48,0.62-0.29,0.85-1.07 c0.26-0.86,0.86-0.96,0.95-1.73C61.52,54.45,61.46,53.07,61.45,52.42L61.45,52.42z M53.77,45.23c1.03-0.47,0.79-0.95,0.96-2.11 c0.16-1.06,0.1-1.88,0.16-2.94c0.22,0.22,0.56,0.88,0.75,1.21c0.8,1.42,0.64,2.72,1.15,4.52c0.35,1.23,0.36,0.77,0.64,1.3 c0.26,0.49,0.26,2,0.52,2.34c0.39,0.51,0.28-0.44,0.66,2.14c-1.57,1.05-0.56,1.13-1.98,2.5c-0.23,0.22-0.6,0.51-0.57,0.92 c0.47,0.18,0.52,0.07,0.97,0.01c-0.04,0.49-0.03,1.1-0.13,1.56c-0.08,0.39-0.15,0.24-0.32,0.54c-0.21,0.35,0.01,0.39-0.43,0.33 c0.22-0.86,0.46-0.97-0.13-1.75c-0.28-0.37-0.83-0.65-1.3-1.21c0.36-0.04,0.85-0.08,1.21-0.18c0.46-0.13,0.57-0.15,0.61-0.67 c0.06-0.8-0.01-1.75,0.01-2.58c0.19-0.03,0.43-0.07,0.57-0.15c0.13-0.54-0.3-2.17-0.46-2.73c-0.15-0.52-0.27-0.7-0.82-0.79 c-1.54-0.23-1.62,0.43-1.7-0.55C54.06,45.99,53.89,45.88,53.77,45.23L53.77,45.23z M68.33,62.34c-0.24-0.42-0.96-1.77-0.91-2.32 c0.06-0.65-0.05-0.75-0.27-1.3l-2.41-5.84c-0.43-1.04-0.45-0.12-0.83-0.82c-0.21-0.4-0.31-0.74-0.49-1.16 c-0.28-0.65-1.34-1.02-0.84-2.29c0.29-0.73,1.41-1.12,2.18-0.49c1.09,0.9,0.15,2.01-0.03,2.36c0.23,0.17,0.27,0.41,0.5,0.6 c0.22-0.11,1.39-0.74,1.26,0.01c-0.06,0.36-1.12,0.59-1.45,0.69c0.14,0.81,0.72,1.88,1.03,2.65c0.27,0.67,1.88,4.79,2.14,5.03 c0.58,0.53,0.33,0.2,0.68,1.11c0.17,0.44,0.39,0.87,0.47,1.3C69.12,62.06,68.61,62.28,68.33,62.34L68.33,62.34z M33.77,45.83 c0.05-0.88,0.58-1.13,0.97-1.55c0.54-0.58,0.42-1.09,0.7-1.88c0.28-0.79-0.04-1.36,0.07-2.24c0.06-0.51,0.21-0.51,0.5-0.78 c0.17-0.15,0.45-0.39,0.72-0.54c-0.04,1.47-0.59,4.21-0.22,5.32c0.24,0.72,0.37,0.67,1.16,0.72l-0.21,1.69 c-0.95-0.09-2.07-0.45-2.42,0.09c-0.08,0.13-0.24,0.48-0.25,0.6c-0.05-0.46,0.07-0.69-0.09-1.2 C34.34,45.83,34.17,45.92,33.77,45.83L33.77,45.83z M50.49,24.37c-0.26-0.59-0.35-0.9-0.69-1.4c-0.17-0.26-0.34-0.32-0.33-0.7 c0.02-1.32,0.43-1.42,0.76-2.31c0.32-0.85-0.02-1.04,0.05-1.88l0.17,0.23c0.35,0.61,2.95,6.83,3,7.06 c-0.52-0.08-0.22-0.19-0.56-0.46C52.69,24.76,50.84,24.45,50.49,24.37L50.49,24.37z M33.19,51.66c0.04-0.46,0.15-0.92,0.27-1.35 c0.15-0.52,0.2-0.74,0.78-0.78c-0.13,2.02-0.61,3.05,1.65,3.13c-0.05,0.38-0.29,2.04-0.5,2.31c-0.25,0.32-1.19,0.49-0.38,1.88 c0.23,0.4,0.19,0.59-0.18,1.33c-0.06-0.48,0.08-1.11-0.24-1.46c-0.36,0.39-0.2,1.02-0.52,1.47l-0.04-1.78l-0.39-0.17l-0.15-1.7 l0.28-0.11c0.05-0.01,0.17-0.03,0.24-0.04c0.02-0.46-0.04-1.21-0.12-1.65C33.79,52.13,33.59,51.9,33.19,51.66L33.19,51.66z M39.26,24.34c0.11-0.44,1.4-3.39,1.66-3.65c0.48,0.87,0.57,1.22,0.76,2.37c-0.17,0.17-0.28,0.19-0.48,0.42 C40.63,24.18,41.06,24.08,39.26,24.34L39.26,24.34z M63.46,48.22c1.21-0.57,2.1,1.3,0.85,1.96c-0.63,0.33-1.2-0.1-1.39-0.5 C62.64,49.08,62.89,48.49,63.46,48.22L63.46,48.22z M34.52,68.83l-0.24-2.99c0.35,0.74,1.02,0.99,1.07,1.34 C35.49,68.08,35.05,68.52,34.52,68.83L34.52,68.83z M55.04,46.67c-0.13-0.25-0.29-0.91-0.15-1.17c0.08-0.15,0.19-0.17,0.33-0.39 c0.07-0.11,0.16-0.36,0.28-0.43l0.54,2.01L55.04,46.67L55.04,46.67z M37.87,59.74c0.17-0.1,0.28-0.33,0.61-0.53 c0.84-0.49,2.26-0.49,2.95-0.1c-0.66,0.09-1.34,0.09-2,0.2C38.45,59.46,38.06,59.71,37.87,59.74z"></path> </g> </svg>