<svg xmlns="http://www.w3.org/2000/svg" xmlns:xlink="http://www.w3.org/1999/xlink" xml:space="preserve" width="91px" height="91px" style="shape-rendering:geometricPrecision; text-rendering:geometricPrecision; image-rendering:optimizeQuality; fill-rule:evenodd; clip-rule:evenodd" viewBox="0 0 4.98 4.98"> <defs> <style type="text/css"> .fil1 {fill:#083264} .fil0 {fill:white} </style> </defs> <g id="Layer_x0020_1"> <metadata id="CorelCorpID_0Corel-Layer"></metadata> <g id="_1718646407584"> <circle class="fil0" cx="2.49" cy="2.49" r="2.49"></circle> <path class="fil1" d="M2.8 3.41c0.03,0.01 0.08,0.03 0.13,0.03 0,0.09 0,0.16 0.01,0.24 0.02,0.19 -0.06,0.18 0.23,0.18 0.09,0 0.06,-0.11 0.07,-0.19 0.01,-0.07 0.01,-0.13 0.01,-0.23 0.06,0 0.09,-0.01 0.13,-0.03 0,-0.08 -0.02,-0.23 -0.06,-0.28 -0.08,-0.13 -0.37,-0.12 -0.46,-0.01 -0.04,0.06 -0.06,0.2 -0.06,0.29zm-1.1 -0.59c0,0.12 0.15,0.25 0.3,0.15 0.1,-0.07 0.13,-0.34 -0.13,-0.34 -0.09,0 -0.17,0.11 -0.17,0.19zm0 -1.51c0,0.21 0.37,0.3 0.37,-0.03 0,-0.14 -0.2,-0.21 -0.31,-0.11 -0.02,0.03 -0.06,0.1 -0.06,0.14zm1.8 0.76c0,0.23 0.37,0.23 0.37,0 0,-0.06 -0.01,-0.1 -0.05,-0.14 -0.12,-0.12 -0.32,-0.04 -0.32,0.14zm-1.2 0c0,0.23 0.38,0.23 0.38,0 0,-0.26 -0.38,-0.26 -0.38,0zm-1.19 0c0,0.23 0.37,0.23 0.37,0 0,-0.26 -0.37,-0.26 -0.37,0zm1.8 0.72c0,0.11 0.04,0.21 0.19,0.21 0.21,0 0.28,-0.37 -0.03,-0.37 -0.08,0 -0.16,0.08 -0.16,0.16zm0 -1.51c0,0.42 0.55,0.16 0.32,-0.1 -0.11,-0.12 -0.32,-0.04 -0.32,0.1zm-1.18 0.65c0,0.1 0.01,0.15 0.01,0.23 0.01,0.22 -0.02,0.19 0.24,0.19 0.08,0 0.05,-0.1 0.06,-0.18 0.01,-0.08 0.02,-0.14 0.02,-0.24 0.05,0 0.08,-0.01 0.12,-0.03 0,-0.05 -0.02,-0.2 -0.04,-0.24 -0.06,-0.14 -0.19,-0.12 -0.33,-0.12 -0.11,0 -0.17,0.09 -0.19,0.18 0,0.01 -0.01,0.15 -0.01,0.15 0.01,0.05 0.05,0.06 0.12,0.06zm1.2 0c0,0.1 0.01,0.15 0.01,0.23 0.01,0.22 -0.02,0.19 0.23,0.19 0.09,0 0.06,-0.1 0.07,-0.18 0.01,-0.08 0.01,-0.14 0.01,-0.24 0.06,0 0.09,-0.01 0.13,-0.03 0,-0.4 -0.17,-0.36 -0.38,-0.36 -0.1,0 -0.17,0.09 -0.18,0.18 -0.03,0.19 -0.02,0.2 0.11,0.21zm-1.33 1.48c0.03,0.01 0.09,0.03 0.13,0.03 0,0.09 0,0.16 0.01,0.24 0.02,0.19 -0.05,0.18 0.24,0.18 0.08,0 0.06,-0.11 0.06,-0.19 0,-0.08 0.02,-0.13 0.02,-0.23 0.07,0 0.11,-0.01 0.12,-0.07 0,-0.02 -0.02,-0.16 -0.03,-0.18 -0.06,-0.21 -0.4,-0.19 -0.49,-0.07 -0.04,0.06 -0.06,0.2 -0.06,0.29zm0.61 -0.75c0.05,0.01 0.05,0.02 0.11,0.02l0.01 0.25c0.01,0.21 0.05,0.18 0.21,0.18 0.14,0 0.1,-0.16 0.11,-0.31 0,-0.07 0.01,-0.05 0.01,-0.12 0.06,0 0.06,-0.01 0.11,-0.02 0,-0.09 -0.01,-0.19 -0.03,-0.25 -0.07,-0.17 -0.42,-0.17 -0.49,-0.01 -0.03,0.06 -0.04,0.17 -0.04,0.26zm-1.2 -0.03c0,0.06 0.04,0.05 0.11,0.05l0.02 0.25c0,0.21 0.05,0.18 0.2,0.18 0.06,0 0.08,-0.01 0.09,-0.05 0.01,-0.01 0.02,-0.1 0.02,-0.12 0,-0.04 0,-0.09 0,-0.14 0,-0.07 0.01,-0.05 0.01,-0.12 0.07,0 0.07,-0.01 0.11,-0.02 0,-0.38 -0.11,-0.37 -0.35,-0.37 -0.07,0 -0.14,0.05 -0.17,0.1 -0.03,0.06 -0.04,0.16 -0.04,0.24zm2.4 0c0,0.06 0.03,0.05 0.11,0.05 0,0.07 0.01,0.05 0.01,0.12 0.02,0.32 -0.03,0.31 0.24,0.31 0.08,0 0.07,-0.1 0.07,-0.18 0,-0.11 0.02,-0.15 0.02,-0.25 0.06,0 0.06,-0.01 0.11,-0.02 0,-0.35 -0.07,-0.37 -0.36,-0.37 -0.17,0 -0.2,0.2 -0.2,0.34z"></path> </g> </g> </svg>