<svg xmlns="http://www.w3.org/2000/svg" xmlns:xlink="http://www.w3.org/1999/xlink" xml:space="preserve" width="91px" height="91px" style="shape-rendering:geometricPrecision; text-rendering:geometricPrecision; image-rendering:optimizeQuality; fill-rule:evenodd; clip-rule:evenodd" viewBox="0 0 5.56 5.56"> <defs> <style type="text/css"> .fil1 {fill:#083264} .fil0 {fill:white} </style> </defs> <g id="Layer_x0020_1"> <metadata id="CorelCorpID_0Corel-Layer"></metadata> <g id="_1718266173680"> <circle class="fil0" cx="2.78" cy="2.78" r="2.78"></circle> <path id="work-experience-icon.svg" class="fil1" d="M3.45 1.52l0.14 0.01c0.06,0 0.11,0.06 0.11,0.13l-0.01 0.12c0.07,0.03 0.13,0.06 0.18,0.09l0.1 -0.09c0.05,-0.04 0.12,-0.04 0.17,0.01l0.09 0.11c0.04,0.04 0.04,0.12 -0.01,0.16l-0.11 0.1c0.03,0.05 0.05,0.11 0.06,0.17l0.15 0.01c0.07,0.01 0.12,0.06 0.11,0.13l0 0.14c-0.01,0.06 -0.06,0.11 -0.13,0.11l-0.15 -0.01c-0.02,0.06 -0.04,0.11 -0.08,0.16l0.1 0.12c0.05,0.04 0.04,0.12 -0.01,0.16l-0.1 0.1c-0.05,0.04 -0.12,0.04 -0.17,-0.01l-0.09 -0.11c-0.05,0.03 -0.11,0.06 -0.18,0.07l0 -0.36c0.13,-0.06 0.23,-0.18 0.23,-0.33 0.01,-0.22 -0.15,-0.4 -0.36,-0.41 -0.13,0 -0.24,0.05 -0.32,0.14l-0.43 0c0.03,-0.06 0.06,-0.12 0.1,-0.18l-0.07 -0.07c-0.05,-0.05 -0.04,-0.13 0.01,-0.17l0.1 -0.09c0.05,-0.05 0.12,-0.04 0.17,0.01l0.07 0.08c0.06,-0.03 0.13,-0.06 0.2,-0.07l0.01 -0.11c0,-0.07 0.06,-0.12 0.12,-0.12zm-1.11 1.67l-0.17 0c0,0 -0.01,0 -0.01,0l0 0.36c0,0 0.01,0.01 0.01,0.01l0.17 0c0.01,0 0.01,-0.01 0.01,-0.01l0 -0.36c0,0 0,0 -0.01,0zm-1.09 -0.75l0.6 0 0 -0.17c0,-0.05 0.05,-0.09 0.1,-0.09l0.62 0c0.05,0 0.09,0.04 0.09,0.09l0 0.17 0.6 0c0.07,0 0.13,0.05 0.13,0.12l0 0.32c-0.15,0.1 -0.3,0.18 -0.45,0.25 -0.16,0.07 -0.32,0.12 -0.48,0.16l0 -0.12c0,-0.06 -0.05,-0.11 -0.11,-0.11l-0.19 0c-0.06,0 -0.1,0.05 -0.1,0.11l0 0.12c-0.17,-0.04 -0.32,-0.09 -0.47,-0.16 -0.16,-0.07 -0.32,-0.16 -0.47,-0.26l0 -0.31c0,-0.07 0.06,-0.12 0.13,-0.12l0 0zm2.14 0.62l0 0.84c0,0 0,0 0,0 0,0.04 -0.01,0.07 -0.04,0.09 -0.02,0.03 -0.05,0.04 -0.09,0.04l-2.01 0c-0.03,0 -0.06,-0.01 -0.09,-0.04 -0.02,-0.02 -0.04,-0.05 -0.04,-0.09l0 -0.85c0.13,0.08 0.26,0.15 0.4,0.22 0.17,0.07 0.35,0.13 0.54,0.17l0 0.14c0,0.05 0.04,0.1 0.1,0.1l0.19 0c0.06,0 0.11,-0.05 0.11,-0.1l0 -0.14c0.19,-0.03 0.37,-0.1 0.55,-0.17 0.13,-0.06 0.26,-0.13 0.38,-0.21zm-1.37 0.09c-0.01,0 -0.02,0 -0.02,0.01l0 0.12 0.51 0 0 -0.12c0,-0.01 -0.01,-0.01 -0.01,-0.01l-0.48 0z"></path> </g> </g> </svg>