<svg xmlns="http://www.w3.org/2000/svg" xmlns:xlink="http://www.w3.org/1999/xlink" xml:space="preserve" width="91px" height="91px" style="shape-rendering:geometricPrecision; text-rendering:geometricPrecision; image-rendering:optimizeQuality; fill-rule:evenodd; clip-rule:evenodd" viewBox="0 0 43.06 43.06"> <defs> <style type="text/css"> .fil1 {fill:#083264} .fil0 {fill:white} </style> </defs> <g id="Layer_x0020_1"> <metadata id="CorelCorpID_0Corel-Layer"></metadata> <g id="_1718515193600"> <circle class="fil0" cx="21.53" cy="21.53" r="21.53"></circle> <path class="fil1" d="M13.3 19.31l0 -4.53c1.61,0 3.54,-0.45 4.7,-0.93 2.37,-0.98 2.66,-1.66 3.52,-2.12l1.63 1.15c0.61,0.4 1.23,0.69 1.9,0.97 1.15,0.48 3.09,0.93 4.7,0.93 0,4.59 0.37,8.92 -2.22,12.57 -1.06,1.51 -2.53,2.65 -4.19,3.49 -1.91,0.96 -1.72,0.96 -3.57,0.03 -1.27,-0.64 -1.73,-1 -2.71,-1.83 -0.94,-0.79 -0.39,-0.38 -0.96,-0.97 -1.97,-2.02 -2.8,-5.83 -2.8,-8.76zm7.12 3.33c-1.07,-0.71 -1.44,-1.94 -2.5,-1.94 -0.55,0 -0.65,0.62 -0.65,1.02 0,0.3 2.5,2.95 3.05,2.95 0.62,0 1.19,-0.77 1.55,-1.13l2.68 -2.68c0.73,-0.73 1.23,-0.92 1.23,-1.82 0,-0.3 -0.48,-0.65 -0.84,-0.65 -0.54,0 -1.9,1.58 -2.33,2.01 -0.54,0.54 -1.84,1.71 -2.19,2.24zm0.94 -12.94l0.31 0c0.26,0.09 0.59,0.39 1.25,0.91 1.74,1.38 3.7,2.23 6.01,2.41 2.64,0.21 2.39,-0.1 2.48,1.76 0.02,0.42 0.09,0.45 0.1,0.93 0.03,2.83 -0.02,5.4 -0.6,8.09 -0.3,1.42 -1.1,3.27 -1.9,4.39 -0.79,1.1 -0.55,0.68 -1.08,1.32 -0.16,0.19 -0.14,0.22 -0.33,0.41l-1.75 1.39c-0.86,0.57 -3.38,2.05 -4.23,2.05 -0.74,0 -2.82,-1.01 -3.53,-1.46l-1.85 -1.3c-0.17,-0.14 -0.25,-0.25 -0.43,-0.39 -0.77,-0.62 -0.32,-0.31 -0.78,-0.8 -0.13,-0.15 -0.23,-0.22 -0.37,-0.37 -0.15,-0.17 -0.22,-0.31 -0.34,-0.48 -2.47,-3.52 -2.78,-6.73 -2.78,-11.83l0.1 -2.04c0.02,-0.78 -0.08,-1.34 0.59,-1.53 1.21,-0.35 4.04,0.46 7.95,-2.59 0.62,-0.48 0.92,-0.78 1.18,-0.87z"></path> </g> </g> </svg>