<svg xmlns="http://www.w3.org/2000/svg" xmlns:xlink="http://www.w3.org/1999/xlink" xml:space="preserve" width="91px" height="91px" style="shape-rendering:geometricPrecision; text-rendering:geometricPrecision; image-rendering:optimizeQuality; fill-rule:evenodd; clip-rule:evenodd" viewBox="0 0 5.77 5.77"> <defs> <style type="text/css"> .fil1 {fill:#083264} .fil0 {fill:white} </style> </defs> <g id="Layer_x0020_1"> <metadata id="CorelCorpID_0Corel-Layer"></metadata> <g id="_1718306420592"> <circle class="fil0" cx="2.89" cy="2.89" r="2.89"></circle> <g id="technology-icon.svg"> <g> <path class="fil1" d="M3.81 3.84c-0.01,-0.02 -0.01,-0.03 -0.01,-0.05 0,-0.02 0,-0.04 0.01,-0.05 0,-0.02 0.01,-0.03 0.03,-0.04l0 0c0,-0.01 0.01,-0.02 0.02,-0.02 0,0 0.01,-0.01 0.01,-0.01l0 -0.2 -0.21 0c-0.01,0.04 -0.03,0.08 -0.06,0.11 -0.04,0.04 -0.09,0.07 -0.15,0.07l-0.13 0 0 0.56 0.38 0c0,-0.01 0,-0.01 0,-0.01 0.01,-0.01 0.01,-0.02 0.02,-0.02 0.01,-0.01 0.02,-0.02 0.04,-0.03 0.02,-0.01 0.03,-0.01 0.05,-0.01 0.02,0 0.03,0 0.05,0.01 0.01,0.01 0.03,0.02 0.04,0.03 0.01,0.01 0.02,0.02 0.03,0.04 0,0.02 0.01,0.03 0.01,0.05 0,0.02 -0.01,0.03 -0.01,0.05 -0.01,0.01 -0.02,0.03 -0.03,0.04 -0.01,0.01 -0.03,0.02 -0.04,0.03 -0.02,0 -0.03,0.01 -0.05,0.01 -0.02,0 -0.03,-0.01 -0.05,-0.01l0 0c-0.02,-0.01 -0.03,-0.02 -0.04,-0.03 -0.01,-0.01 -0.02,-0.02 -0.02,-0.02 0,-0.01 -0.01,-0.01 -0.01,-0.02l-0.43 0c-0.01,0 -0.03,-0.01 -0.04,-0.02 -0.01,-0.01 -0.01,-0.02 -0.01,-0.04l0 0 0 -0.61 -0.28 0 0 0.5c0,0.01 0.01,0.01 0.01,0.01 0.01,0.01 0.02,0.01 0.02,0.02 0.01,0.01 0.02,0.02 0.03,0.04 0.01,0.02 0.01,0.03 0.01,0.05 0,0.02 0,0.03 -0.01,0.05l0 0c-0.01,0.01 -0.02,0.03 -0.03,0.04 -0.01,0.01 -0.02,0.02 -0.04,0.03 -0.02,0 -0.03,0.01 -0.05,0.01 -0.02,0 -0.03,-0.01 -0.05,-0.01 -0.02,-0.01 -0.03,-0.02 -0.04,-0.03 -0.01,-0.01 -0.02,-0.03 -0.03,-0.04 -0.01,-0.02 -0.01,-0.03 -0.01,-0.05 0,-0.02 0,-0.03 0.01,-0.05l0 0c0.01,-0.02 0.02,-0.03 0.03,-0.04 0.01,-0.01 0.01,-0.01 0.02,-0.02l0 0c0,0 0.01,0 0.01,-0.01l0 0 0 -0.5 -0.37 0 0 0.26c0,0.02 -0.01,0.03 -0.02,0.04 -0.01,0.01 -0.02,0.02 -0.04,0.02l-0.26 0c0,0 -0.01,0 -0.01,0.01 0,0.01 -0.01,0.01 -0.01,0.02l0 0c-0.02,0.01 -0.03,0.02 -0.05,0.03 -0.01,0 -0.03,0.01 -0.05,0.01 -0.01,0 -0.03,-0.01 -0.04,-0.01l-0.01 0c-0.01,-0.01 -0.03,-0.02 -0.04,-0.03 -0.01,-0.01 -0.02,-0.03 -0.03,-0.04 0,-0.02 -0.01,-0.03 -0.01,-0.05 0,-0.02 0.01,-0.04 0.01,-0.05 0.01,-0.02 0.02,-0.03 0.03,-0.04 0.01,-0.01 0.03,-0.02 0.05,-0.03l0 0c0.01,-0.01 0.03,-0.01 0.04,-0.01 0.02,0 0.04,0 0.05,0.01 0.02,0.01 0.03,0.01 0.04,0.03l0.01 0c0,0 0.01,0.01 0.01,0.02 0.01,0 0.01,0.01 0.01,0.01l0.21 0 0 -0.21c-0.05,-0.01 -0.08,-0.03 -0.11,-0.06 -0.04,-0.03 -0.06,-0.08 -0.06,-0.14l0 -0.14 -0.61 0 0 0.38c0,0 0,0 0.01,0 0,0.01 0.01,0.01 0.02,0.02 0.01,0.01 0.02,0.02 0.02,0.04 0.01,0.02 0.01,0.03 0.01,0.05 0,0.02 0,0.03 -0.01,0.05 0,0.02 -0.01,0.03 -0.02,0.04 -0.02,0.01 -0.03,0.02 -0.05,0.03 -0.01,0.01 -0.03,0.01 -0.05,0.01 -0.01,0 -0.03,0 -0.05,-0.01 -0.01,-0.01 -0.03,-0.02 -0.04,-0.03 -0.01,-0.01 -0.02,-0.02 -0.03,-0.04 0,-0.02 -0.01,-0.03 -0.01,-0.05 0,-0.02 0.01,-0.03 0.01,-0.05l0 0c0.01,-0.02 0.02,-0.03 0.03,-0.04 0.01,-0.01 0.02,-0.02 0.03,-0.02 0,0 0.01,-0.01 0.01,-0.01l0 -0.43c0,-0.01 0.01,-0.03 0.02,-0.04 0.01,-0.01 0.02,-0.01 0.04,-0.01l0 0 0.67 0 0 -0.28 -0.56 0c0,0 -0.01,0.01 -0.01,0.01 0,0.01 -0.01,0.02 -0.01,0.02 -0.02,0.01 -0.03,0.02 -0.05,0.03 -0.01,0.01 -0.03,0.01 -0.05,0.01 -0.01,0 -0.03,0 -0.04,-0.01l-0.01 0c-0.01,-0.01 -0.03,-0.02 -0.04,-0.03 -0.01,-0.01 -0.02,-0.02 -0.03,-0.04 0,-0.02 0,-0.03 0,-0.05 0,-0.02 0,-0.03 0,-0.05 0.01,-0.02 0.02,-0.03 0.03,-0.04 0.01,-0.01 0.03,-0.02 0.04,-0.03 0.02,-0.01 0.04,-0.01 0.05,-0.01 0.02,0 0.04,0 0.05,0.01l0 0c0.02,0.01 0.03,0.02 0.05,0.03 0,0.01 0.01,0.01 0.01,0.02l0 0c0.01,0 0.01,0.01 0.01,0.01l0 0 0.56 0 0 -0.34c0,-0.01 0,-0.02 0,-0.03l-0.32 0c-0.01,0 -0.03,-0.01 -0.04,-0.02 -0.01,-0.01 -0.01,-0.02 -0.01,-0.04l0 -0.26c-0.01,0 -0.01,-0.01 -0.02,-0.01 0,0 -0.01,-0.01 -0.01,-0.01l-0.01 0c-0.01,-0.02 -0.02,-0.03 -0.02,-0.05 -0.01,-0.01 -0.01,-0.03 -0.01,-0.05 0,-0.01 0,-0.03 0.01,-0.04l0 -0.01c0,-0.01 0.01,-0.03 0.02,-0.04 0.02,-0.01 0.03,-0.02 0.05,-0.03 0.01,0 0.03,0 0.05,0 0.01,0 0.03,0 0.04,0 0.02,0.01 0.04,0.02 0.05,0.03 0.01,0.01 0.02,0.03 0.02,0.05l0 0c0.01,0.01 0.01,0.03 0.01,0.04 0,0.02 0,0.04 -0.01,0.05 0,0.02 -0.01,0.03 -0.02,0.04l0 0.01c-0.01,0 -0.02,0.01 -0.03,0.01 0,0.01 0,0.01 -0.01,0.01l0 0.21 0.31 0 0 0c0.01,-0.01 0.01,-0.01 0.01,-0.01 0.04,-0.04 0.09,-0.06 0.15,-0.06l0.12 0 0 -0.67 -0.37 0c-0.01,0 -0.01,0 -0.01,0.01 0,0 -0.01,0.01 -0.01,0.02 -0.02,0.01 -0.03,0.02 -0.05,0.02 -0.01,0.01 -0.03,0.01 -0.05,0.01 -0.01,0 -0.03,0 -0.05,-0.01 -0.01,0 -0.03,-0.01 -0.04,-0.02 -0.01,-0.02 -0.02,-0.03 -0.03,-0.05 0,-0.01 -0.01,-0.03 -0.01,-0.05 0,-0.01 0.01,-0.03 0.01,-0.05 0.01,-0.01 0.02,-0.03 0.03,-0.04 0.01,-0.01 0.03,-0.02 0.04,-0.03 0.02,0 0.04,-0.01 0.05,-0.01 0.02,0 0.04,0.01 0.05,0.01l0 0c0.02,0.01 0.03,0.02 0.05,0.03 0,0.01 0.01,0.02 0.01,0.03 0.01,0 0.01,0.01 0.01,0.01l0.43 0c0.01,0 0.03,0.01 0.04,0.02 0.01,0.01 0.02,0.02 0.02,0.04l0 0 0 0.73 0.28 0 0 -0.62c-0.01,0 -0.01,0 -0.02,-0.01 0,0 -0.01,-0.01 -0.02,-0.01 -0.01,-0.02 -0.02,-0.03 -0.03,-0.05 0,-0.01 -0.01,-0.03 -0.01,-0.05 0,-0.01 0.01,-0.03 0.01,-0.04l0 -0.01c0.01,-0.01 0.02,-0.03 0.03,-0.04 0.01,-0.01 0.03,-0.02 0.04,-0.03 0.02,0 0.04,0 0.05,0 0.02,0 0.04,0 0.05,0 0.02,0.01 0.03,0.02 0.04,0.03 0.02,0.01 0.03,0.03 0.03,0.04 0.01,0.02 0.01,0.04 0.01,0.05 0,0.02 0,0.04 -0.01,0.05l0 0c0,0.02 -0.01,0.03 -0.03,0.05 0,0 -0.01,0.01 -0.02,0.01l0 0c0,0.01 -0.01,0.01 -0.01,0.01l0 0 0 0.62 0.37 0 0 -0.38c0,-0.01 0.01,-0.03 0.02,-0.04 0.01,-0.01 0.02,-0.01 0.04,-0.01l0.26 0c0.01,-0.01 0.01,-0.01 0.01,-0.02 0.01,0 0.01,-0.01 0.02,-0.01l0 -0.01c0.01,-0.01 0.02,-0.02 0.04,-0.02 0.02,-0.01 0.03,-0.01 0.05,-0.01 0.02,0 0.03,0 0.05,0.01l0 0c0.01,0 0.03,0.01 0.04,0.02 0.01,0.02 0.02,0.03 0.03,0.05 0,0.01 0.01,0.03 0.01,0.05 0,0.01 -0.01,0.03 -0.01,0.04 -0.01,0.02 -0.02,0.04 -0.03,0.05 -0.01,0.01 -0.03,0.02 -0.04,0.02l0 0c-0.02,0.01 -0.03,0.01 -0.05,0.01 -0.02,0 -0.04,0 -0.05,-0.01 -0.02,0 -0.03,-0.01 -0.04,-0.02l0 0c-0.01,-0.01 -0.02,-0.02 -0.02,-0.03 0,0 -0.01,0 -0.01,-0.01l-0.2 0 0 0.32c0.04,0.01 0.08,0.03 0.11,0.06 0.04,0.04 0.06,0.09 0.06,0.15l0 0.02 0.57 0 0 -0.37c-0.01,-0.01 -0.01,-0.01 -0.01,-0.01 -0.01,0 -0.02,-0.01 -0.02,-0.02 -0.01,-0.01 -0.02,-0.02 -0.03,-0.04 -0.01,-0.01 -0.01,-0.03 -0.01,-0.05 0,-0.01 0,-0.03 0.01,-0.05 0.01,-0.01 0.02,-0.03 0.03,-0.04 0.01,-0.01 0.02,-0.02 0.04,-0.03 0.02,0 0.03,-0.01 0.05,-0.01 0.02,0 0.03,0.01 0.05,0.01 0.01,0.01 0.03,0.02 0.04,0.03 0.01,0.01 0.02,0.03 0.03,0.04 0,0.02 0.01,0.04 0.01,0.05 0,0.02 0,0.04 -0.01,0.05l0 0c-0.01,0.02 -0.02,0.03 -0.03,0.04 -0.01,0.01 -0.02,0.02 -0.02,0.02 -0.01,0.01 -0.01,0.01 -0.02,0.01l0 0.43c0,0.01 -0.01,0.03 -0.02,0.04 -0.01,0.01 -0.02,0.02 -0.04,0.02l0 0 -0.62 0 0 0.28 0.51 0c0.01,-0.01 0.01,-0.01 0.01,-0.02 0.01,0 0.01,-0.01 0.02,-0.02 0.01,-0.01 0.02,-0.02 0.04,-0.03 0.02,0 0.03,-0.01 0.05,-0.01 0.02,0 0.03,0.01 0.05,0.01l0 0c0.01,0.01 0.03,0.02 0.04,0.03 0.01,0.01 0.02,0.03 0.03,0.04 0,0.02 0.01,0.04 0.01,0.05 0,0.02 -0.01,0.04 -0.01,0.05 -0.01,0.02 -0.02,0.03 -0.03,0.04 -0.01,0.02 -0.03,0.03 -0.04,0.03 -0.02,0.01 -0.03,0.01 -0.05,0.01 -0.02,0 -0.03,0 -0.05,-0.01l0 0c-0.02,0 -0.03,-0.01 -0.04,-0.03 -0.01,0 -0.01,-0.01 -0.02,-0.02l0 0c0,0 0,-0.01 -0.01,-0.01l0 0 -0.51 0 0 0.37 0.27 0c0.02,0 0.03,0.01 0.04,0.02 0.01,0.01 0.02,0.02 0.02,0.04l0 0.26c0,0.01 0,0.01 0.01,0.01 0.01,0.01 0.01,0.01 0.02,0.02l0 0c0.01,0.01 0.02,0.02 0.03,0.04 0,0.02 0.01,0.03 0.01,0.05 0,0.02 -0.01,0.03 -0.01,0.05l0 0c-0.01,0.01 -0.02,0.03 -0.03,0.04 -0.01,0.01 -0.03,0.02 -0.04,0.03 -0.02,0 -0.03,0.01 -0.05,0.01 -0.02,0 -0.04,-0.01 -0.05,-0.01 -0.02,-0.01 -0.03,-0.02 -0.04,-0.03 -0.02,-0.01 -0.03,-0.03 -0.03,-0.04l0 0 0 0zm-1.12 -1.17l0.44 0c0.04,0 0.07,0.03 0.07,0.07l0 0.41c0,0.03 -0.03,0.06 -0.07,0.06l-0.44 0c-0.04,0 -0.06,-0.03 -0.06,-0.06l0 -0.41c0,-0.04 0.02,-0.07 0.06,-0.07l0 0zm0.76 -0.32l-1.08 0c-0.02,0 -0.05,0.01 -0.06,0.03 -0.02,0.01 -0.03,0.04 -0.03,0.07l0 0.99c0,0.03 0.01,0.05 0.03,0.07 0.01,0.02 0.04,0.03 0.06,0.03l1.08 0c0.02,0 0.05,-0.01 0.06,-0.03 0.02,-0.02 0.03,-0.04 0.03,-0.07l0 -0.99c0,-0.03 -0.01,-0.06 -0.03,-0.07 -0.01,-0.02 -0.04,-0.03 -0.06,-0.03l0 0z"></path> </g> </g> </g> </g> </svg>