<svg xmlns="http://www.w3.org/2000/svg" id="Layer_1" data-name="Layer 1" viewBox="0 0 91 91"><defs><style>.cls-1{fill:#fff;}.cls-2{fill:#083264;}</style></defs><circle class="cls-1" cx="45.5" cy="45.5" r="45.5"></circle><path class="cls-2" d="M59.79,20.42a5.44,5.44,0,0,1-4-2.91,1,1,0,0,0-1.72,0,20.22,20.22,0,0,1-4,2.93,1.05,1.05,0,0,0-.51,1.65,6.9,6.9,0,0,0,.69.92,2.51,2.51,0,0,1,.83,2.41c0,.49,0,.85,0,1.21,0,.95.68,1.51,1.51,1.12a5.17,5.17,0,0,1,4.72,0,1,1,0,0,0,1.51-1,5.43,5.43,0,0,1,1.5-4.63A1,1,0,0,0,59.79,20.42Zm-2.3,1.89a2.85,2.85,0,0,0-.76,2.85c-2-.34-2-.34-3.39,0-.14-.1-.08-.26-.06-.38a2.64,2.64,0,0,0-.74-2.37c-.28-.27-.29-.48.17-.55a2.59,2.59,0,0,0,2-1.47c.18-.34.38-.32.54,0a2.63,2.63,0,0,0,2.07,1.48C57.59,21.94,57.73,22.08,57.49,22.31Z" transform="translate(0.04 0)"></path><path class="cls-2" d="M50.78,63.63a1.07,1.07,0,0,0-1.16-1.17q-2.34,0-4.68,0a1.06,1.06,0,0,0-1.19,1.15c0,1.75-.06,3.5,0,5.25a3.51,3.51,0,0,0,7-.19c0-.79,0-1.59,0-2.38S50.8,64.52,50.78,63.63Zm-2.16,3.26c0,.6,0,1.2,0,1.79a1.35,1.35,0,1,1-2.69,0c0-1.24,0-2.49,0-3.74,0-.28.1-.37.38-.37.65,0,1.29,0,1.94,0,.32,0,.41.09.4.41C48.6,65.64,48.62,66.26,48.62,66.89Zm2.16-3.26a1.07,1.07,0,0,0-1.16-1.17q-2.34,0-4.68,0a1.06,1.06,0,0,0-1.19,1.15c0,1.75-.06,3.5,0,5.25a3.51,3.51,0,0,0,7-.19c0-.79,0-1.59,0-2.38S50.8,64.52,50.78,63.63Zm-2.16,3.26c0,.6,0,1.2,0,1.79a1.35,1.35,0,1,1-2.69,0c0-1.24,0-2.49,0-3.74,0-.28.1-.37.38-.37.65,0,1.29,0,1.94,0,.32,0,.41.09.4.41C48.6,65.64,48.62,66.26,48.62,66.89Zm2.16-3.26a1.07,1.07,0,0,0-1.16-1.17q-2.34,0-4.68,0a1.06,1.06,0,0,0-1.19,1.15c0,1.75-.06,3.5,0,5.25a3.51,3.51,0,0,0,7-.19c0-.79,0-1.59,0-2.38S50.8,64.52,50.78,63.63Zm-2.16,3.26c0,.6,0,1.2,0,1.79a1.35,1.35,0,1,1-2.69,0c0-1.24,0-2.49,0-3.74,0-.28.1-.37.38-.37.65,0,1.29,0,1.94,0,.32,0,.41.09.4.41C48.6,65.64,48.62,66.26,48.62,66.89Zm17.57-.43c0-1,0-1.92,0-2.78a1.11,1.11,0,0,0-1.26-1.23c-1.51,0-3,0-4.54,0a1.1,1.1,0,0,0-1.23,1.25c0,1.7,0,3.41,0,5.11a3.5,3.5,0,0,0,7,.48A25.28,25.28,0,0,0,66.19,66.46ZM64,66.8c0,.57,0,1.15,0,1.72a1.43,1.43,0,0,1-1.36,1.55,1.4,1.4,0,0,1-1.35-1.54V66.87c0-.6,0-1.2,0-1.79,0-.4.12-.49.49-.47.71,0,1.65-.23,2.09.13S64,66.08,64,66.8Zm2.17-.34c0-1,0-1.92,0-2.78a1.11,1.11,0,0,0-1.26-1.23c-1.51,0-3,0-4.54,0a1.1,1.1,0,0,0-1.23,1.25c0,1.7,0,3.41,0,5.11a3.5,3.5,0,0,0,7,.48A25.28,25.28,0,0,0,66.19,66.46ZM64,66.8c0,.57,0,1.15,0,1.72a1.43,1.43,0,0,1-1.36,1.55,1.4,1.4,0,0,1-1.35-1.54V66.87c0-.6,0-1.2,0-1.79,0-.4.12-.49.49-.47.71,0,1.65-.23,2.09.13S64,66.08,64,66.8ZM50.78,63.63a1.07,1.07,0,0,0-1.16-1.17q-2.34,0-4.68,0a1.06,1.06,0,0,0-1.19,1.15c0,1.75-.06,3.5,0,5.25a3.51,3.51,0,0,0,7-.19c0-.79,0-1.59,0-2.38S50.8,64.52,50.78,63.63Zm-2.16,3.26c0,.6,0,1.2,0,1.79a1.35,1.35,0,1,1-2.69,0c0-1.24,0-2.49,0-3.74,0-.28.1-.37.38-.37.65,0,1.29,0,1.94,0,.32,0,.41.09.4.41C48.6,65.64,48.62,66.26,48.62,66.89Zm2.16-3.26a1.07,1.07,0,0,0-1.16-1.17q-2.34,0-4.68,0a1.06,1.06,0,0,0-1.19,1.15c0,1.75-.06,3.5,0,5.25a3.51,3.51,0,0,0,7-.19c0-.79,0-1.59,0-2.38S50.8,64.52,50.78,63.63Zm-2.16,3.26c0,.6,0,1.2,0,1.79a1.35,1.35,0,1,1-2.69,0c0-1.24,0-2.49,0-3.74,0-.28.1-.37.38-.37.65,0,1.29,0,1.94,0,.32,0,.41.09.4.41C48.6,65.64,48.62,66.26,48.62,66.89Zm17.57-.43c0-1,0-1.92,0-2.78a1.11,1.11,0,0,0-1.26-1.23c-1.51,0-3,0-4.54,0a1.1,1.1,0,0,0-1.23,1.25c0,1.7,0,3.41,0,5.11a3.5,3.5,0,0,0,7,.48A25.28,25.28,0,0,0,66.19,66.46ZM64,66.8c0,.57,0,1.15,0,1.72a1.43,1.43,0,0,1-1.36,1.55,1.4,1.4,0,0,1-1.35-1.54V66.87c0-.6,0-1.2,0-1.79,0-.4.12-.49.49-.47.71,0,1.65-.23,2.09.13S64,66.08,64,66.8Zm2.17-.34c0-1,0-1.92,0-2.78a1.11,1.11,0,0,0-1.26-1.23c-1.51,0-3,0-4.54,0a1.1,1.1,0,0,0-1.23,1.25c0,1.7,0,3.41,0,5.11a3.5,3.5,0,0,0,7,.48A25.28,25.28,0,0,0,66.19,66.46ZM64,66.8c0,.57,0,1.15,0,1.72a1.43,1.43,0,0,1-1.36,1.55,1.4,1.4,0,0,1-1.35-1.54V66.87c0-.6,0-1.2,0-1.79,0-.4.12-.49.49-.47.71,0,1.65-.23,2.09.13S64,66.08,64,66.8ZM50.78,63.63a1.07,1.07,0,0,0-1.16-1.17q-2.34,0-4.68,0a1.06,1.06,0,0,0-1.19,1.15c0,1.75-.06,3.5,0,5.25a3.51,3.51,0,0,0,7-.19c0-.79,0-1.59,0-2.38S50.8,64.52,50.78,63.63Zm-2.16,3.26c0,.6,0,1.2,0,1.79a1.35,1.35,0,1,1-2.69,0c0-1.24,0-2.49,0-3.74,0-.28.1-.37.38-.37.65,0,1.29,0,1.94,0,.32,0,.41.09.4.41C48.6,65.64,48.62,66.26,48.62,66.89Zm31.1-8.5a2.66,2.66,0,0,0-2.12-2.87L62.05,49.89a.68.68,0,0,1-.56-.76c0-1.18,0-2.36,0-3.54a1.45,1.45,0,0,1,.18-.76,40.63,40.63,0,0,0,3.85-10,2.24,2.24,0,0,1,.54-1A8.89,8.89,0,0,0,68.12,30a1,1,0,0,1,.23-.51c1.33-1,1.81-2.56,2.37-4a5.23,5.23,0,0,0-2.66-6.86,66.92,66.92,0,0,0-10.29-4.07,8.22,8.22,0,0,0-4.61-.27A65.93,65.93,0,0,0,41.9,18.62a4.9,4.9,0,0,0-3.07,4.3,8.8,8.8,0,0,0,2.47,6.33,1.94,1.94,0,0,1,.53.82,8.42,8.42,0,0,0,2,3.69,2.65,2.65,0,0,1,.58,1.13,31,31,0,0,0,2.64,7.51A11.5,11.5,0,0,1,48.44,49a.85.85,0,0,1-.66.91c-5.1,1.83-10.19,3.69-15.28,5.54-1.83.67-2.3,1.35-2.3,3.32,0,2.31,0,4.62,0,6.93,0,.52-.15.64-.65.63-1.39,0-2.79,0-4.18,0a4.35,4.35,0,0,1-4.64-4.65c0-3.58,0-7.17,0-10.75,0-.6.15-.75.74-.75,4.79,0,9.58,0,14.37,0,1,0,1.39-.35,1.39-1.37V17.67c0-1-.35-1.4-1.37-1.4H12.54c-1,0-1.37.36-1.37,1.33q0,15.63,0,31.25c0,1,.36,1.36,1.41,1.36,1.75,0,3.51,0,5.27,0,.6,0,.74.17.74.76,0,3.78,0,7.55,0,11.33A6.41,6.41,0,0,0,24,68.4a21.33,21.33,0,0,0,2.88.1l3.23.06a28.67,28.67,0,0,1,.08,3.21v.37a3.86,3.86,0,0,0,4.12,4.09H75.58c2.44,0,4.11-1.48,4.14-3.84C79.77,67.73,79.75,63.06,79.72,58.39ZM14,48.06c-.56,0-.7-.15-.7-.71q0-14.1,0-28.21c0-.63.2-.72.76-.71,6.76,0,13.52,0,20.27,0,.61,0,.75.14.74.74,0,4.69,0,9.38,0,14.07s0,9.38,0,14.07c0,.56-.07.76-.71.76Q24.19,48,14,48.06ZM64.26,53c-.85,1.48-1.68,2.93-2.5,4.39a.49.49,0,0,1-.44.3L57,58c.27-.46.49-.83.71-1.18l2.86-4.65c.15-.23.22-.5.64-.33C62.22,52.28,63.22,52.61,64.26,53ZM41.66,25.82c-.11-.39-.29-.76-.43-1.14a3.06,3.06,0,0,1,1.54-4.07A60.66,60.66,0,0,1,54,16.32a4.85,4.85,0,0,1,2.56.14A63.81,63.81,0,0,1,67,20.53a3.11,3.11,0,0,1,1.65,4.21c-.16.43-.32.85-.49,1.28a3.82,3.82,0,0,1-3.84,2.66c-3.15,0-6.3,0-9.45,0s-6.06,0-9.09,0A4,4,0,0,1,41.66,25.82Zm4.83,7.5a7.29,7.29,0,0,1-2-2.47h21a7,7,0,0,1-2,2.49,12.93,12.93,0,0,1-8.29,2.8A13,13,0,0,1,46.49,33.32Zm.74,3.51a.28.28,0,0,1,.05-.36,17,17,0,0,0,14.91.23c.13-.06.25-.24.44-.11s0,.3,0,.44a28.15,28.15,0,0,1-3.75,8.12,8,8,0,0,1-1.9,2,3.23,3.23,0,0,1-4,0,10.66,10.66,0,0,1-3-3.7A33.67,33.67,0,0,1,47.23,36.83Zm-1.16,16c.89-.3,1.76-.62,2.63-1,.26-.1.38-.07.52.16,1.19,2,2.4,3.91,3.68,6-1.54-.13-2.92-.25-4.31-.35-.27,0-.36-.19-.47-.38-.74-1.31-1.48-2.63-2.24-3.93C45.7,53.07,45.73,53,46.07,52.84ZM37.82,71.27c0,.77,0,1.54,0,2.31,0,.35-.06.51-.47.5-1.08,0-2.16,0-3.24,0a1.62,1.62,0,0,1-1.74-1.64c-.05-1.17,0-2.35,0-3.53,0-.34.14-.39.43-.39,1.54,0,3.08,0,4.62,0,.37,0,.42.15.42.46C37.81,69.73,37.82,70.5,37.82,71.27ZM53.9,73.54c0,.39-.1.54-.52.54q-6.42,0-12.85,0c-.45,0-.56-.14-.55-.58,0-2.14,0-4.28,0-6.42V60.8c0-.89-.42-1.39-1.11-1.37s-1.05.51-1.06,1.36c0,1.64,0,3.28,0,4.91,0,.48-.08.67-.62.65-1.44,0-2.88,0-4.33,0-.4,0-.53-.12-.53-.53q0-3.64,0-7.28a.89.89,0,0,1,.71-1q5-1.77,10-3.63c.45-.16.62-.06.83.32.87,1.58,1.79,3.12,2.66,4.7a1.45,1.45,0,0,0,1.24.83c1.85.15,3.69.35,5.53.49.42,0,.57.13.57.58Q53.87,67.18,53.9,73.54Zm.71-16.88c-1.09-1.75-2.17-3.51-3.25-5.26-.88-1.42-.91-1.55-.72-3.41a6.43,6.43,0,0,0,4.29,2,6.29,6.29,0,0,0,4.35-2,4.66,4.66,0,0,1-.71,3.48c-1.25,1.83-2.36,3.77-3.53,5.66C54.75,57.07,54.72,56.83,54.61,56.66Zm16.82,2.86A1.06,1.06,0,0,0,70,60.62c0,1.93,0,3.85,0,5.77v.72c0,2.07,0,4.14,0,6.2,0,.58-.12.78-.74.78q-6.24,0-12.48,0c-.59,0-.7-.19-.7-.73q0-6.21,0-12.41c0-.54.15-.68.66-.71,1.8-.13,3.59-.34,5.39-.47a1.48,1.48,0,0,0,1.29-.87c.88-1.57,1.79-3.12,2.66-4.7.21-.36.36-.45.78-.29Q71.88,55.77,77,57.58a.75.75,0,0,1,.6.77c0,2.52,0,5,0,7.57,0,.3-.08.43-.41.43-1.53,0-3.07,0-4.61,0-.45,0-.43-.23-.43-.54V60.76A1.18,1.18,0,0,0,71.43,59.52ZM77.56,72.2a1.69,1.69,0,0,1-1.89,1.87c-1,0-2,0-3,0-.47,0-.57-.14-.55-.57,0-.74,0-1.49,0-2.23s0-1.54,0-2.31c0-.4.13-.48.49-.47,1.49,0,3,0,4.47,0,.43,0,.52.13.51.53C77.54,70.08,77.58,71.14,77.56,72.2ZM66.19,66.46c0-1,0-1.92,0-2.78a1.11,1.11,0,0,0-1.26-1.23c-1.51,0-3,0-4.54,0a1.1,1.1,0,0,0-1.23,1.25c0,1.7,0,3.41,0,5.11a3.5,3.5,0,0,0,7,.48A25.28,25.28,0,0,0,66.19,66.46ZM64,66.8c0,.57,0,1.15,0,1.72a1.43,1.43,0,0,1-1.36,1.55,1.4,1.4,0,0,1-1.35-1.54V66.87c0-.6,0-1.2,0-1.79,0-.4.12-.49.49-.47.71,0,1.65-.23,2.09.13S64,66.08,64,66.8ZM50.78,63.63a1.07,1.07,0,0,0-1.16-1.17q-2.34,0-4.68,0a1.06,1.06,0,0,0-1.19,1.15c0,1.75-.06,3.5,0,5.25a3.51,3.51,0,0,0,7-.19c0-.79,0-1.59,0-2.38S50.8,64.52,50.78,63.63Zm-2.16,3.26c0,.6,0,1.2,0,1.79a1.35,1.35,0,1,1-2.69,0c0-1.24,0-2.49,0-3.74,0-.28.1-.37.38-.37.65,0,1.29,0,1.94,0,.32,0,.41.09.4.41C48.6,65.64,48.62,66.26,48.62,66.89ZM26.65,23c1.65,0,3.31,0,5,0a1.08,1.08,0,1,0,0-2.16c-.81,0-1.63,0-2.45,0s-1.63,0-2.44,0A1.08,1.08,0,0,0,25.52,22,1.06,1.06,0,0,0,26.65,23Zm0,13.26c1.65,0,3.31,0,5,0a1.08,1.08,0,1,0-.05-2.15c-.82,0-1.63,0-2.45,0s-1.63,0-2.44,0a1.08,1.08,0,1,0,0,2.15Zm4.95,7.14c-1.65,0-3.31,0-5,0a1.08,1.08,0,1,0,0,2.15c.79,0,1.58,0,2.37,0s1.68,0,2.52,0a1.06,1.06,0,0,0,1.16-1A1.07,1.07,0,0,0,31.61,43.44ZM26.7,41.67c1.61,0,3.21,0,4.82,0a1.09,1.09,0,0,0,1.22-1.11,1.1,1.1,0,0,0-1.21-1.05H29.15c-.81,0-1.63,0-2.44,0a1.08,1.08,0,1,0,0,2.15Zm0-9.32c.79,0,1.58,0,2.37,0s1.68,0,2.52,0a1.06,1.06,0,0,0,1.16-1.09,1,1,0,0,0-1.13-1.06c-1.65,0-3.31,0-5,0a1,1,0,0,0-1.12,1.06A1.06,1.06,0,0,0,26.69,32.35Zm0-5.38c.81,0,1.63,0,2.45,0s1.67,0,2.51,0a1.08,1.08,0,1,0,0-2.15c-1.68,0-3.35,0-5,0a1.08,1.08,0,1,0,0,2.15ZM23,30a1.06,1.06,0,0,0-1.29.32c-1.09,1.08-2.2,2.15-3.26,3.26-.36.38-.56.43-.94,0a1,1,0,0,0-1.53,0,1.09,1.09,0,0,0,.06,1.6c.34.37.7.73,1.07,1.07a1.08,1.08,0,0,0,1.75,0c1.47-1.45,2.92-2.92,4.38-4.38a1.12,1.12,0,0,0,.41-.89A1,1,0,0,0,23,30Zm-5.88-3.08a1.12,1.12,0,0,0,1.76,0c1.45-1.44,2.88-2.89,4.32-4.33a1.36,1.36,0,0,0,.45-.68,1.12,1.12,0,0,0-.6-1.18,1.08,1.08,0,0,0-1.31.26C20.7,22,19.64,23,18.6,24.11c-.38.4-.64.68-1.14.09a1,1,0,0,0-1.48,0,1.06,1.06,0,0,0,0,1.49C16.34,26.12,16.73,26.5,17.13,26.89Zm4.54,12.77c-1.05,1-2.09,2.05-3.11,3.11-.38.4-.63.6-1.1.06a1,1,0,0,0-1.48,0,1.08,1.08,0,0,0,0,1.55c.39.42.82.81,1.22,1.22a1,1,0,0,0,.69.32,1.3,1.3,0,0,0,1-.41c1.44-1.45,2.89-2.89,4.32-4.34a1.09,1.09,0,1,0-1.53-1.51Zm29.11,24a1.07,1.07,0,0,0-1.16-1.17q-2.34,0-4.68,0a1.06,1.06,0,0,0-1.19,1.15c0,1.75-.06,3.5,0,5.25a3.51,3.51,0,0,0,7-.19c0-.79,0-1.59,0-2.38S50.8,64.52,50.78,63.63Zm-2.16,3.26c0,.6,0,1.2,0,1.79a1.35,1.35,0,1,1-2.69,0c0-1.24,0-2.49,0-3.74,0-.28.1-.37.38-.37.65,0,1.29,0,1.94,0,.32,0,.41.09.4.41C48.6,65.64,48.62,66.26,48.62,66.89Zm17.57-.43c0-1,0-1.92,0-2.78a1.11,1.11,0,0,0-1.26-1.23c-1.51,0-3,0-4.54,0a1.1,1.1,0,0,0-1.23,1.25c0,1.7,0,3.41,0,5.11a3.5,3.5,0,0,0,7,.48A25.28,25.28,0,0,0,66.19,66.46ZM64,66.8c0,.57,0,1.15,0,1.72a1.43,1.43,0,0,1-1.36,1.55,1.4,1.4,0,0,1-1.35-1.54V66.87c0-.6,0-1.2,0-1.79,0-.4.12-.49.49-.47.71,0,1.65-.23,2.09.13S64,66.08,64,66.8Zm2.17-.34c0-1,0-1.92,0-2.78a1.11,1.11,0,0,0-1.26-1.23c-1.51,0-3,0-4.54,0a1.1,1.1,0,0,0-1.23,1.25c0,1.7,0,3.41,0,5.11a3.5,3.5,0,0,0,7,.48A25.28,25.28,0,0,0,66.19,66.46ZM64,66.8c0,.57,0,1.15,0,1.72a1.43,1.43,0,0,1-1.36,1.55,1.4,1.4,0,0,1-1.35-1.54V66.87c0-.6,0-1.2,0-1.79,0-.4.12-.49.49-.47.71,0,1.65-.23,2.09.13S64,66.08,64,66.8ZM50.78,63.63a1.07,1.07,0,0,0-1.16-1.17q-2.34,0-4.68,0a1.06,1.06,0,0,0-1.19,1.15c0,1.75-.06,3.5,0,5.25a3.51,3.51,0,0,0,7-.19c0-.79,0-1.59,0-2.38S50.8,64.52,50.78,63.63Zm-2.16,3.26c0,.6,0,1.2,0,1.79a1.35,1.35,0,1,1-2.69,0c0-1.24,0-2.49,0-3.74,0-.28.1-.37.38-.37.65,0,1.29,0,1.94,0,.32,0,.41.09.4.41C48.6,65.64,48.62,66.26,48.62,66.89Zm2.16-3.26a1.07,1.07,0,0,0-1.16-1.17q-2.34,0-4.68,0a1.06,1.06,0,0,0-1.19,1.15c0,1.75-.06,3.5,0,5.25a3.51,3.51,0,0,0,7-.19c0-.79,0-1.59,0-2.38S50.8,64.52,50.78,63.63Zm-2.16,3.26c0,.6,0,1.2,0,1.79a1.35,1.35,0,1,1-2.69,0c0-1.24,0-2.49,0-3.74,0-.28.1-.37.38-.37.65,0,1.29,0,1.94,0,.32,0,.41.09.4.41C48.6,65.64,48.62,66.26,48.62,66.89Zm2.16-3.26a1.07,1.07,0,0,0-1.16-1.17q-2.34,0-4.68,0a1.06,1.06,0,0,0-1.19,1.15c0,1.75-.06,3.5,0,5.25a3.51,3.51,0,0,0,7-.19c0-.79,0-1.59,0-2.38S50.8,64.52,50.78,63.63Zm-2.16,3.26c0,.6,0,1.2,0,1.79a1.35,1.35,0,1,1-2.69,0c0-1.24,0-2.49,0-3.74,0-.28.1-.37.38-.37.65,0,1.29,0,1.94,0,.32,0,.41.09.4.41C48.6,65.64,48.62,66.26,48.62,66.89Zm2.16-3.26a1.07,1.07,0,0,0-1.16-1.17q-2.34,0-4.68,0a1.06,1.06,0,0,0-1.19,1.15c0,1.75-.06,3.5,0,5.25a3.51,3.51,0,0,0,7-.19c0-.79,0-1.59,0-2.38S50.8,64.52,50.78,63.63Zm-2.16,3.26c0,.6,0,1.2,0,1.79a1.35,1.35,0,1,1-2.69,0c0-1.24,0-2.49,0-3.74,0-.28.1-.37.38-.37.65,0,1.29,0,1.94,0,.32,0,.41.09.4.41C48.6,65.64,48.62,66.26,48.62,66.89Zm2.16-3.26a1.07,1.07,0,0,0-1.16-1.17q-2.34,0-4.68,0a1.06,1.06,0,0,0-1.19,1.15c0,1.75-.06,3.5,0,5.25a3.51,3.51,0,0,0,7-.19c0-.79,0-1.59,0-2.38S50.8,64.52,50.78,63.63Zm-2.16,3.26c0,.6,0,1.2,0,1.79a1.35,1.35,0,1,1-2.69,0c0-1.24,0-2.49,0-3.74,0-.28.1-.37.38-.37.65,0,1.29,0,1.94,0,.32,0,.41.09.4.41C48.6,65.64,48.62,66.26,48.62,66.89Z" transform="translate(0.04 0)"></path><path class="cls-2" d="M59.79,20.42a5.44,5.44,0,0,1-4-2.91,1,1,0,0,0-1.72,0,20.22,20.22,0,0,1-4,2.93,1.05,1.05,0,0,0-.51,1.65,6.9,6.9,0,0,0,.69.92,2.51,2.51,0,0,1,.83,2.41c0,.49,0,.85,0,1.21,0,.95.68,1.51,1.51,1.12a5.17,5.17,0,0,1,4.72,0,1,1,0,0,0,1.51-1,5.43,5.43,0,0,1,1.5-4.63A1,1,0,0,0,59.79,20.42Zm-2.3,1.89a2.85,2.85,0,0,0-.76,2.85c-2-.34-2-.34-3.39,0-.14-.1-.08-.26-.06-.38a2.64,2.64,0,0,0-.74-2.37c-.28-.27-.29-.48.17-.55a2.59,2.59,0,0,0,2-1.47c.18-.34.38-.32.54,0a2.63,2.63,0,0,0,2.07,1.48C57.59,21.94,57.73,22.08,57.49,22.31Z" transform="translate(0.04 0)"></path><path class="cls-2" d="M50.78,63.63a1.07,1.07,0,0,0-1.16-1.17q-2.34,0-4.68,0a1.06,1.06,0,0,0-1.19,1.15c0,1.75-.06,3.5,0,5.25a3.51,3.51,0,0,0,7-.19c0-.79,0-1.59,0-2.38S50.8,64.52,50.78,63.63Zm-2.16,3.26c0,.6,0,1.2,0,1.79a1.35,1.35,0,1,1-2.69,0c0-1.24,0-2.49,0-3.74,0-.28.1-.37.38-.37.65,0,1.29,0,1.94,0,.32,0,.41.09.4.41C48.6,65.64,48.62,66.26,48.62,66.89Zm2.16-3.26a1.07,1.07,0,0,0-1.16-1.17q-2.34,0-4.68,0a1.06,1.06,0,0,0-1.19,1.15c0,1.75-.06,3.5,0,5.25a3.51,3.51,0,0,0,7-.19c0-.79,0-1.59,0-2.38S50.8,64.52,50.78,63.63Zm-2.16,3.26c0,.6,0,1.2,0,1.79a1.35,1.35,0,1,1-2.69,0c0-1.24,0-2.49,0-3.74,0-.28.1-.37.38-.37.65,0,1.29,0,1.94,0,.32,0,.41.09.4.41C48.6,65.64,48.62,66.26,48.62,66.89Zm2.16-3.26a1.07,1.07,0,0,0-1.16-1.17q-2.34,0-4.68,0a1.06,1.06,0,0,0-1.19,1.15c0,1.75-.06,3.5,0,5.25a3.51,3.51,0,0,0,7-.19c0-.79,0-1.59,0-2.38S50.8,64.52,50.78,63.63Zm-2.16,3.26c0,.6,0,1.2,0,1.79a1.35,1.35,0,1,1-2.69,0c0-1.24,0-2.49,0-3.74,0-.28.1-.37.38-.37.65,0,1.29,0,1.94,0,.32,0,.41.09.4.41C48.6,65.64,48.62,66.26,48.62,66.89Zm17.57-.43c0-1,0-1.92,0-2.78a1.11,1.11,0,0,0-1.26-1.23c-1.51,0-3,0-4.54,0a1.1,1.1,0,0,0-1.23,1.25c0,1.7,0,3.41,0,5.11a3.5,3.5,0,0,0,7,.48A25.28,25.28,0,0,0,66.19,66.46ZM64,66.8c0,.57,0,1.15,0,1.72a1.43,1.43,0,0,1-1.36,1.55,1.4,1.4,0,0,1-1.35-1.54V66.87c0-.6,0-1.2,0-1.79,0-.4.12-.49.49-.47.71,0,1.65-.23,2.09.13S64,66.08,64,66.8Zm2.17-.34c0-1,0-1.92,0-2.78a1.11,1.11,0,0,0-1.26-1.23c-1.51,0-3,0-4.54,0a1.1,1.1,0,0,0-1.23,1.25c0,1.7,0,3.41,0,5.11a3.5,3.5,0,0,0,7,.48A25.28,25.28,0,0,0,66.19,66.46ZM64,66.8c0,.57,0,1.15,0,1.72a1.43,1.43,0,0,1-1.36,1.55,1.4,1.4,0,0,1-1.35-1.54V66.87c0-.6,0-1.2,0-1.79,0-.4.12-.49.49-.47.71,0,1.65-.23,2.09.13S64,66.08,64,66.8ZM50.78,63.63a1.07,1.07,0,0,0-1.16-1.17q-2.34,0-4.68,0a1.06,1.06,0,0,0-1.19,1.15c0,1.75-.06,3.5,0,5.25a3.51,3.51,0,0,0,7-.19c0-.79,0-1.59,0-2.38S50.8,64.52,50.78,63.63Zm-2.16,3.26c0,.6,0,1.2,0,1.79a1.35,1.35,0,1,1-2.69,0c0-1.24,0-2.49,0-3.74,0-.28.1-.37.38-.37.65,0,1.29,0,1.94,0,.32,0,.41.09.4.41C48.6,65.64,48.62,66.26,48.62,66.89Zm2.16-3.26a1.07,1.07,0,0,0-1.16-1.17q-2.34,0-4.68,0a1.06,1.06,0,0,0-1.19,1.15c0,1.75-.06,3.5,0,5.25a3.51,3.51,0,0,0,7-.19c0-.79,0-1.59,0-2.38S50.8,64.52,50.78,63.63Zm-2.16,3.26c0,.6,0,1.2,0,1.79a1.35,1.35,0,1,1-2.69,0c0-1.24,0-2.49,0-3.74,0-.28.1-.37.38-.37.65,0,1.29,0,1.94,0,.32,0,.41.09.4.41C48.6,65.64,48.62,66.26,48.62,66.89Zm17.57-.43c0-1,0-1.92,0-2.78a1.11,1.11,0,0,0-1.26-1.23c-1.51,0-3,0-4.54,0a1.1,1.1,0,0,0-1.23,1.25c0,1.7,0,3.41,0,5.11a3.5,3.5,0,0,0,7,.48A25.28,25.28,0,0,0,66.19,66.46ZM64,66.8c0,.57,0,1.15,0,1.72a1.43,1.43,0,0,1-1.36,1.55,1.4,1.4,0,0,1-1.35-1.54V66.87c0-.6,0-1.2,0-1.79,0-.4.12-.49.49-.47.71,0,1.65-.23,2.09.13S64,66.08,64,66.8Zm2.17-.34c0-1,0-1.92,0-2.78a1.11,1.11,0,0,0-1.26-1.23c-1.51,0-3,0-4.54,0a1.1,1.1,0,0,0-1.23,1.25c0,1.7,0,3.41,0,5.11a3.5,3.5,0,0,0,7,.48A25.28,25.28,0,0,0,66.19,66.46ZM64,66.8c0,.57,0,1.15,0,1.72a1.43,1.43,0,0,1-1.36,1.55,1.4,1.4,0,0,1-1.35-1.54V66.87c0-.6,0-1.2,0-1.79,0-.4.12-.49.49-.47.71,0,1.65-.23,2.09.13S64,66.08,64,66.8ZM50.78,63.63a1.07,1.07,0,0,0-1.16-1.17q-2.34,0-4.68,0a1.06,1.06,0,0,0-1.19,1.15c0,1.75-.06,3.5,0,5.25a3.51,3.51,0,0,0,7-.19c0-.79,0-1.59,0-2.38S50.8,64.52,50.78,63.63Zm-2.16,3.26c0,.6,0,1.2,0,1.79a1.35,1.35,0,1,1-2.69,0c0-1.24,0-2.49,0-3.74,0-.28.1-.37.38-.37.65,0,1.29,0,1.94,0,.32,0,.41.09.4.41C48.6,65.64,48.62,66.26,48.62,66.89Zm31.1-8.5a2.66,2.66,0,0,0-2.12-2.87L62.05,49.89a.68.68,0,0,1-.56-.76c0-1.18,0-2.36,0-3.54a1.45,1.45,0,0,1,.18-.76,40.63,40.63,0,0,0,3.85-10,2.24,2.24,0,0,1,.54-1A8.89,8.89,0,0,0,68.12,30a1,1,0,0,1,.23-.51c1.33-1,1.81-2.56,2.37-4a5.23,5.23,0,0,0-2.66-6.86,66.92,66.92,0,0,0-10.29-4.07,8.22,8.22,0,0,0-4.61-.27A65.93,65.93,0,0,0,41.9,18.62a4.9,4.9,0,0,0-3.07,4.3,8.8,8.8,0,0,0,2.47,6.33,1.94,1.94,0,0,1,.53.82,8.42,8.42,0,0,0,2,3.69,2.65,2.65,0,0,1,.58,1.13,31,31,0,0,0,2.64,7.51A11.5,11.5,0,0,1,48.44,49a.85.85,0,0,1-.66.91c-5.1,1.83-10.19,3.69-15.28,5.54-1.83.67-2.3,1.35-2.3,3.32,0,2.31,0,4.62,0,6.93,0,.52-.15.64-.65.63-1.39,0-2.79,0-4.18,0a4.35,4.35,0,0,1-4.64-4.65c0-3.58,0-7.17,0-10.75,0-.6.15-.75.74-.75,4.79,0,9.58,0,14.37,0,1,0,1.39-.35,1.39-1.37V17.67c0-1-.35-1.4-1.37-1.4H12.54c-1,0-1.37.36-1.37,1.33q0,15.63,0,31.25c0,1,.36,1.36,1.41,1.36,1.75,0,3.51,0,5.27,0,.6,0,.74.17.74.76,0,3.78,0,7.55,0,11.33A6.41,6.41,0,0,0,24,68.4a21.33,21.33,0,0,0,2.88.1l3.23.06a28.67,28.67,0,0,1,.08,3.21v.37a3.86,3.86,0,0,0,4.12,4.09H75.58c2.44,0,4.11-1.48,4.14-3.84C79.77,67.73,79.75,63.06,79.72,58.39ZM14,48.06c-.56,0-.7-.15-.7-.71q0-14.1,0-28.21c0-.63.2-.72.76-.71,6.76,0,13.52,0,20.27,0,.61,0,.75.14.74.74,0,4.69,0,9.38,0,14.07s0,9.38,0,14.07c0,.56-.07.76-.71.76Q24.19,48,14,48.06ZM64.26,53c-.85,1.48-1.68,2.93-2.5,4.39a.49.49,0,0,1-.44.3L57,58c.27-.46.49-.83.71-1.18l2.86-4.65c.15-.23.22-.5.64-.33C62.22,52.28,63.22,52.61,64.26,53ZM41.66,25.82c-.11-.39-.29-.76-.43-1.14a3.06,3.06,0,0,1,1.54-4.07A60.66,60.66,0,0,1,54,16.32a4.85,4.85,0,0,1,2.56.14A63.81,63.81,0,0,1,67,20.53a3.11,3.11,0,0,1,1.65,4.21c-.16.43-.32.85-.49,1.28a3.82,3.82,0,0,1-3.84,2.66c-3.15,0-6.3,0-9.45,0s-6.06,0-9.09,0A4,4,0,0,1,41.66,25.82Zm4.83,7.5a7.29,7.29,0,0,1-2-2.47h21a7,7,0,0,1-2,2.49,12.93,12.93,0,0,1-8.29,2.8A13,13,0,0,1,46.49,33.32Zm.74,3.51a.28.28,0,0,1,.05-.36,17,17,0,0,0,14.91.23c.13-.06.25-.24.44-.11s0,.3,0,.44a28.15,28.15,0,0,1-3.75,8.12,8,8,0,0,1-1.9,2,3.23,3.23,0,0,1-4,0,10.66,10.66,0,0,1-3-3.7A33.67,33.67,0,0,1,47.23,36.83Zm-1.16,16c.89-.3,1.76-.62,2.63-1,.26-.1.38-.07.52.16,1.19,2,2.4,3.91,3.68,6-1.54-.13-2.92-.25-4.31-.35-.27,0-.36-.19-.47-.38-.74-1.31-1.48-2.63-2.24-3.93C45.7,53.07,45.73,53,46.07,52.84ZM37.82,71.27c0,.77,0,1.54,0,2.31,0,.35-.06.51-.47.5-1.08,0-2.16,0-3.24,0a1.62,1.62,0,0,1-1.74-1.64c-.05-1.17,0-2.35,0-3.53,0-.34.14-.39.43-.39,1.54,0,3.08,0,4.62,0,.37,0,.42.15.42.46C37.81,69.73,37.82,70.5,37.82,71.27ZM53.9,73.54c0,.39-.1.54-.52.54q-6.42,0-12.85,0c-.45,0-.56-.14-.55-.58,0-2.14,0-4.28,0-6.42V60.8c0-.89-.42-1.39-1.11-1.37s-1.05.51-1.06,1.36c0,1.64,0,3.28,0,4.91,0,.48-.08.67-.62.65-1.44,0-2.88,0-4.33,0-.4,0-.53-.12-.53-.53q0-3.64,0-7.28a.89.89,0,0,1,.71-1q5-1.77,10-3.63c.45-.16.62-.06.83.32.87,1.58,1.79,3.12,2.66,4.7a1.45,1.45,0,0,0,1.24.83c1.85.15,3.69.35,5.53.49.42,0,.57.13.57.58Q53.87,67.18,53.9,73.54Zm.71-16.88c-1.09-1.75-2.17-3.51-3.25-5.26-.88-1.42-.91-1.55-.72-3.41a6.43,6.43,0,0,0,4.29,2,6.29,6.29,0,0,0,4.35-2,4.66,4.66,0,0,1-.71,3.48c-1.25,1.83-2.36,3.77-3.53,5.66C54.75,57.07,54.72,56.83,54.61,56.66Zm16.82,2.86A1.06,1.06,0,0,0,70,60.62c0,1.93,0,3.85,0,5.77v.72c0,2.07,0,4.14,0,6.2,0,.58-.12.78-.74.78q-6.24,0-12.48,0c-.59,0-.7-.19-.7-.73q0-6.21,0-12.41c0-.54.15-.68.66-.71,1.8-.13,3.59-.34,5.39-.47a1.48,1.48,0,0,0,1.29-.87c.88-1.57,1.79-3.12,2.66-4.7.21-.36.36-.45.78-.29Q71.88,55.77,77,57.58a.75.75,0,0,1,.6.77c0,2.52,0,5,0,7.57,0,.3-.08.43-.41.43-1.53,0-3.07,0-4.61,0-.45,0-.43-.23-.43-.54V60.76A1.18,1.18,0,0,0,71.43,59.52ZM77.56,72.2a1.69,1.69,0,0,1-1.89,1.87c-1,0-2,0-3,0-.47,0-.57-.14-.55-.57,0-.74,0-1.49,0-2.23s0-1.54,0-2.31c0-.4.13-.48.49-.47,1.49,0,3,0,4.47,0,.43,0,.52.13.51.53C77.54,70.08,77.58,71.14,77.56,72.2ZM66.19,66.46c0-1,0-1.92,0-2.78a1.11,1.11,0,0,0-1.26-1.23c-1.51,0-3,0-4.54,0a1.1,1.1,0,0,0-1.23,1.25c0,1.7,0,3.41,0,5.11a3.5,3.5,0,0,0,7,.48A25.28,25.28,0,0,0,66.19,66.46ZM64,66.8c0,.57,0,1.15,0,1.72a1.43,1.43,0,0,1-1.36,1.55,1.4,1.4,0,0,1-1.35-1.54V66.87c0-.6,0-1.2,0-1.79,0-.4.12-.49.49-.47.71,0,1.65-.23,2.09.13S64,66.08,64,66.8ZM50.78,63.63a1.07,1.07,0,0,0-1.16-1.17q-2.34,0-4.68,0a1.06,1.06,0,0,0-1.19,1.15c0,1.75-.06,3.5,0,5.25a3.51,3.51,0,0,0,7-.19c0-.79,0-1.59,0-2.38S50.8,64.52,50.78,63.63Zm-2.16,3.26c0,.6,0,1.2,0,1.79a1.35,1.35,0,1,1-2.69,0c0-1.24,0-2.49,0-3.74,0-.28.1-.37.38-.37.65,0,1.29,0,1.94,0,.32,0,.41.09.4.41C48.6,65.64,48.62,66.26,48.62,66.89ZM26.65,23c1.65,0,3.31,0,5,0a1.08,1.08,0,1,0,0-2.16c-.81,0-1.63,0-2.45,0s-1.63,0-2.44,0A1.08,1.08,0,0,0,25.52,22,1.06,1.06,0,0,0,26.65,23Zm0,13.26c1.65,0,3.31,0,5,0a1.08,1.08,0,1,0-.05-2.15c-.82,0-1.63,0-2.45,0s-1.63,0-2.44,0a1.08,1.08,0,1,0,0,2.15Zm4.95,7.14c-1.65,0-3.31,0-5,0a1.08,1.08,0,1,0,0,2.15c.79,0,1.58,0,2.37,0s1.68,0,2.52,0a1.06,1.06,0,0,0,1.16-1A1.07,1.07,0,0,0,31.61,43.44ZM26.7,41.67c1.61,0,3.21,0,4.82,0a1.09,1.09,0,0,0,1.22-1.11,1.1,1.1,0,0,0-1.21-1.05H29.15c-.81,0-1.63,0-2.44,0a1.08,1.08,0,1,0,0,2.15Zm0-9.32c.79,0,1.58,0,2.37,0s1.68,0,2.52,0a1.06,1.06,0,0,0,1.16-1.09,1,1,0,0,0-1.13-1.06c-1.65,0-3.31,0-5,0a1,1,0,0,0-1.12,1.06A1.06,1.06,0,0,0,26.69,32.35Zm0-5.38c.81,0,1.63,0,2.45,0s1.67,0,2.51,0a1.08,1.08,0,1,0,0-2.15c-1.68,0-3.35,0-5,0a1.08,1.08,0,1,0,0,2.15ZM23,30a1.06,1.06,0,0,0-1.29.32c-1.09,1.08-2.2,2.15-3.26,3.26-.36.38-.56.43-.94,0a1,1,0,0,0-1.53,0,1.09,1.09,0,0,0,.06,1.6c.34.37.7.73,1.07,1.07a1.08,1.08,0,0,0,1.75,0c1.47-1.45,2.92-2.92,4.38-4.38a1.12,1.12,0,0,0,.41-.89A1,1,0,0,0,23,30Zm-5.88-3.08a1.12,1.12,0,0,0,1.76,0c1.45-1.44,2.88-2.89,4.32-4.33a1.36,1.36,0,0,0,.45-.68,1.12,1.12,0,0,0-.6-1.18,1.08,1.08,0,0,0-1.31.26C20.7,22,19.64,23,18.6,24.11c-.38.4-.64.68-1.14.09a1,1,0,0,0-1.48,0,1.06,1.06,0,0,0,0,1.49C16.34,26.12,16.73,26.5,17.13,26.89Zm4.54,12.77c-1.05,1-2.09,2.05-3.11,3.11-.38.4-.63.6-1.1.06a1,1,0,0,0-1.48,0,1.08,1.08,0,0,0,0,1.55c.39.42.82.81,1.22,1.22a1,1,0,0,0,.69.32,1.3,1.3,0,0,0,1-.41c1.44-1.45,2.89-2.89,4.32-4.34a1.09,1.09,0,1,0-1.53-1.51Zm29.11,24a1.07,1.07,0,0,0-1.16-1.17q-2.34,0-4.68,0a1.06,1.06,0,0,0-1.19,1.15c0,1.75-.06,3.5,0,5.25a3.51,3.51,0,0,0,7-.19c0-.79,0-1.59,0-2.38S50.8,64.52,50.78,63.63Zm-2.16,3.26c0,.6,0,1.2,0,1.79a1.35,1.35,0,1,1-2.69,0c0-1.24,0-2.49,0-3.74,0-.28.1-.37.38-.37.65,0,1.29,0,1.94,0,.32,0,.41.09.4.41C48.6,65.64,48.62,66.26,48.62,66.89Zm17.57-.43c0-1,0-1.92,0-2.78a1.11,1.11,0,0,0-1.26-1.23c-1.51,0-3,0-4.54,0a1.1,1.1,0,0,0-1.23,1.25c0,1.7,0,3.41,0,5.11a3.5,3.5,0,0,0,7,.48A25.28,25.28,0,0,0,66.19,66.46ZM64,66.8c0,.57,0,1.15,0,1.72a1.43,1.43,0,0,1-1.36,1.55,1.4,1.4,0,0,1-1.35-1.54V66.87c0-.6,0-1.2,0-1.79,0-.4.12-.49.49-.47.71,0,1.65-.23,2.09.13S64,66.08,64,66.8Zm2.17-.34c0-1,0-1.92,0-2.78a1.11,1.11,0,0,0-1.26-1.23c-1.51,0-3,0-4.54,0a1.1,1.1,0,0,0-1.23,1.25c0,1.7,0,3.41,0,5.11a3.5,3.5,0,0,0,7,.48A25.28,25.28,0,0,0,66.19,66.46ZM64,66.8c0,.57,0,1.15,0,1.72a1.43,1.43,0,0,1-1.36,1.55,1.4,1.4,0,0,1-1.35-1.54V66.87c0-.6,0-1.2,0-1.79,0-.4.12-.49.49-.47.71,0,1.65-.23,2.09.13S64,66.08,64,66.8ZM50.78,63.63a1.07,1.07,0,0,0-1.16-1.17q-2.34,0-4.68,0a1.06,1.06,0,0,0-1.19,1.15c0,1.75-.06,3.5,0,5.25a3.51,3.51,0,0,0,7-.19c0-.79,0-1.59,0-2.38S50.8,64.52,50.78,63.63Zm-2.16,3.26c0,.6,0,1.2,0,1.79a1.35,1.35,0,1,1-2.69,0c0-1.24,0-2.49,0-3.74,0-.28.1-.37.38-.37.65,0,1.29,0,1.94,0,.32,0,.41.09.4.41C48.6,65.64,48.62,66.26,48.62,66.89Zm2.16-3.26a1.07,1.07,0,0,0-1.16-1.17q-2.34,0-4.68,0a1.06,1.06,0,0,0-1.19,1.15c0,1.75-.06,3.5,0,5.25a3.51,3.51,0,0,0,7-.19c0-.79,0-1.59,0-2.38S50.8,64.52,50.78,63.63Zm-2.16,3.26c0,.6,0,1.2,0,1.79a1.35,1.35,0,1,1-2.69,0c0-1.24,0-2.49,0-3.74,0-.28.1-.37.38-.37.65,0,1.29,0,1.94,0,.32,0,.41.09.4.41C48.6,65.64,48.62,66.26,48.62,66.89Zm2.16-3.26a1.07,1.07,0,0,0-1.16-1.17q-2.34,0-4.68,0a1.06,1.06,0,0,0-1.19,1.15c0,1.75-.06,3.5,0,5.25a3.51,3.51,0,0,0,7-.19c0-.79,0-1.59,0-2.38S50.8,64.52,50.78,63.63Zm-2.16,3.26c0,.6,0,1.2,0,1.79a1.35,1.35,0,1,1-2.69,0c0-1.24,0-2.49,0-3.74,0-.28.1-.37.38-.37.65,0,1.29,0,1.94,0,.32,0,.41.09.4.41C48.6,65.64,48.62,66.26,48.62,66.89Zm2.16-3.26a1.07,1.07,0,0,0-1.16-1.17q-2.34,0-4.68,0a1.06,1.06,0,0,0-1.19,1.15c0,1.75-.06,3.5,0,5.25a3.51,3.51,0,0,0,7-.19c0-.79,0-1.59,0-2.38S50.8,64.52,50.78,63.63Zm-2.16,3.26c0,.6,0,1.2,0,1.79a1.35,1.35,0,1,1-2.69,0c0-1.24,0-2.49,0-3.74,0-.28.1-.37.38-.37.65,0,1.29,0,1.94,0,.32,0,.41.09.4.41C48.6,65.64,48.62,66.26,48.62,66.89Zm2.16-3.26a1.07,1.07,0,0,0-1.16-1.17q-2.34,0-4.68,0a1.06,1.06,0,0,0-1.19,1.15c0,1.75-.06,3.5,0,5.25a3.51,3.51,0,0,0,7-.19c0-.79,0-1.59,0-2.38S50.8,64.52,50.78,63.63Zm-2.16,3.26c0,.6,0,1.2,0,1.79a1.35,1.35,0,1,1-2.69,0c0-1.24,0-2.49,0-3.74,0-.28.1-.37.38-.37.65,0,1.29,0,1.94,0,.32,0,.41.09.4.41C48.6,65.64,48.62,66.26,48.62,66.89Z" transform="translate(0.04 0)"></path><path class="cls-2" d="M23.36,39.53a1.09,1.09,0,0,1-.16,1.64c-1.43,1.45-2.88,2.89-4.32,4.34a1.3,1.3,0,0,1-1,.41,1,1,0,0,1-.69-.32c-.4-.41-.83-.8-1.22-1.22a1.08,1.08,0,0,1,0-1.55,1,1,0,0,1,1.48,0c.47.54.72.34,1.1-.06,1-1.06,2.06-2.08,3.11-3.11A1.1,1.1,0,0,1,23.36,39.53Z" transform="translate(0.04 0)"></path><path class="cls-2" d="M16,25.71a1.06,1.06,0,0,1,0-1.49,1,1,0,0,1,1.48,0c.5.59.76.31,1.14-.09,1-1.08,2.1-2.11,3.15-3.17a1.08,1.08,0,0,1,1.31-.26,1.12,1.12,0,0,1,.6,1.18,1.36,1.36,0,0,1-.45.68c-1.44,1.44-2.87,2.89-4.32,4.33a1.12,1.12,0,0,1-1.76,0C16.73,26.5,16.34,26.12,16,25.71Z" transform="translate(0.04 0)"></path><path class="cls-2" d="M23.66,30.92a1.12,1.12,0,0,1-.41.89c-1.46,1.46-2.91,2.93-4.38,4.38a1.08,1.08,0,0,1-1.75,0c-.37-.34-.73-.7-1.07-1.07a1.09,1.09,0,0,1-.06-1.6,1,1,0,0,1,1.53,0c.38.41.58.36.94,0,1.06-1.11,2.17-2.18,3.26-3.26A1.06,1.06,0,0,1,23,30,1,1,0,0,1,23.66,30.92Z" transform="translate(0.04 0)"></path><path class="cls-2" d="M32.74,25.92a1.06,1.06,0,0,1-1.13,1c-.84,0-1.68,0-2.51,0s-1.64,0-2.45,0a1.08,1.08,0,1,1,0-2.15c1.68,0,3.35,0,5,0A1.06,1.06,0,0,1,32.74,25.92Z" transform="translate(0.04 0)"></path><path class="cls-2" d="M31.61,30.2a1,1,0,0,1,1.13,1.06,1.06,1.06,0,0,1-1.16,1.09c-.84,0-1.68,0-2.52,0s-1.58,0-2.37,0a1.06,1.06,0,0,1-1.16-1.09,1,1,0,0,1,1.12-1.06C28.3,30.18,30,30.18,31.61,30.2Z" transform="translate(0.04 0)"></path><path class="cls-2" d="M32.74,40.56a1.09,1.09,0,0,1-1.22,1.11c-1.61,0-3.21,0-4.82,0a1.08,1.08,0,1,1,0-2.15c.81,0,1.63,0,2.44,0h2.38A1.1,1.1,0,0,1,32.74,40.56Z" transform="translate(0.04 0)"></path><path class="cls-2" d="M32.74,44.58a1.06,1.06,0,0,1-1.16,1c-.84,0-1.68,0-2.52,0s-1.58,0-2.37,0a1.08,1.08,0,1,1,0-2.15c1.65,0,3.31,0,5,0A1.07,1.07,0,0,1,32.74,44.58Z" transform="translate(0.04 0)"></path><path class="cls-2" d="M32.74,35.15a1.07,1.07,0,0,1-1.12,1.15c-1.65,0-3.31,0-5,0a1.08,1.08,0,1,1,0-2.15c.81,0,1.63,0,2.44,0s1.63,0,2.45,0A1.07,1.07,0,0,1,32.74,35.15Z" transform="translate(0.04 0)"></path><path class="cls-2" d="M25.52,22a1.08,1.08,0,0,1,1.17-1.09c.81,0,1.63,0,2.44,0s1.64,0,2.45,0a1.08,1.08,0,1,1,0,2.16c-1.65,0-3.31,0-5,0A1.06,1.06,0,0,1,25.52,22Z" transform="translate(0.04 0)"></path><path class="cls-2" d="M50.78,63.63a1.07,1.07,0,0,0-1.16-1.17q-2.34,0-4.68,0a1.06,1.06,0,0,0-1.19,1.15c0,1.75-.06,3.5,0,5.25a3.51,3.51,0,0,0,7-.19c0-.79,0-1.59,0-2.38S50.8,64.52,50.78,63.63Zm-2.16,3.26c0,.6,0,1.2,0,1.79a1.35,1.35,0,1,1-2.69,0c0-1.24,0-2.49,0-3.74,0-.28.1-.37.38-.37.65,0,1.29,0,1.94,0,.32,0,.41.09.4.41C48.6,65.64,48.62,66.26,48.62,66.89Z" transform="translate(0.04 0)"></path><path class="cls-2" d="M66.19,66.46c0-1,0-1.92,0-2.78a1.11,1.11,0,0,0-1.26-1.23c-1.51,0-3,0-4.54,0a1.1,1.1,0,0,0-1.23,1.25c0,1.7,0,3.41,0,5.11a3.5,3.5,0,0,0,7,.48A25.28,25.28,0,0,0,66.19,66.46ZM64,66.8c0,.57,0,1.15,0,1.72a1.43,1.43,0,0,1-1.36,1.55,1.4,1.4,0,0,1-1.35-1.54V66.87c0-.6,0-1.2,0-1.79,0-.4.12-.49.49-.47.71,0,1.65-.23,2.09.13S64,66.08,64,66.8Z" transform="translate(0.04 0)"></path><path class="cls-2" d="M59.79,20.42a5.44,5.44,0,0,1-4-2.91,1,1,0,0,0-1.72,0,20.22,20.22,0,0,1-4,2.93,1.05,1.05,0,0,0-.51,1.65,6.9,6.9,0,0,0,.69.92,2.51,2.51,0,0,1,.83,2.41c0,.49,0,.85,0,1.21,0,.95.68,1.51,1.51,1.12a5.17,5.17,0,0,1,4.72,0,1,1,0,0,0,1.51-1,5.43,5.43,0,0,1,1.5-4.63A1,1,0,0,0,59.79,20.42Zm-2.3,1.89a2.85,2.85,0,0,0-.76,2.85c-2-.34-2-.34-3.39,0-.14-.1-.08-.26-.06-.38a2.64,2.64,0,0,0-.74-2.37c-.28-.27-.29-.48.17-.55a2.59,2.59,0,0,0,2-1.47c.18-.34.38-.32.54,0a2.63,2.63,0,0,0,2.07,1.48C57.59,21.94,57.73,22.08,57.49,22.31Z" transform="translate(0.04 0)"></path><path class="cls-2" d="M23.66,30.92a1.12,1.12,0,0,1-.41.89c-1.46,1.46-2.91,2.93-4.38,4.38a1.08,1.08,0,0,1-1.75,0c-.37-.34-.73-.7-1.07-1.07a1.09,1.09,0,0,1-.06-1.6,1,1,0,0,1,1.53,0c.38.41.58.36.94,0,1.06-1.11,2.17-2.18,3.26-3.26A1.06,1.06,0,0,1,23,30,1,1,0,0,1,23.66,30.92Z" transform="translate(0.04 0)"></path><path class="cls-2" d="M23.66,21.86a1.36,1.36,0,0,1-.45.68c-1.44,1.44-2.87,2.89-4.32,4.33a1.12,1.12,0,0,1-1.76,0c-.4-.39-.79-.77-1.16-1.18a1.06,1.06,0,0,1,0-1.49,1,1,0,0,1,1.48,0c.5.59.76.31,1.14-.09,1-1.08,2.1-2.11,3.15-3.17a1.08,1.08,0,0,1,1.31-.26A1.12,1.12,0,0,1,23.66,21.86Z" transform="translate(0.04 0)"></path><path class="cls-2" d="M23.2,41.17c-1.43,1.45-2.88,2.89-4.32,4.34a1.3,1.3,0,0,1-1,.41,1,1,0,0,1-.69-.32c-.4-.41-.83-.8-1.22-1.22a1.08,1.08,0,0,1,0-1.55,1,1,0,0,1,1.48,0c.47.54.72.34,1.1-.06,1-1.06,2.06-2.08,3.11-3.11a1.09,1.09,0,1,1,1.53,1.51Z" transform="translate(0.04 0)"></path><path class="cls-2" d="M32.74,25.92a1.06,1.06,0,0,1-1.13,1c-.84,0-1.68,0-2.51,0s-1.64,0-2.45,0a1.08,1.08,0,1,1,0-2.15c1.68,0,3.35,0,5,0A1.06,1.06,0,0,1,32.74,25.92Z" transform="translate(0.04 0)"></path><path class="cls-2" d="M32.74,31.26a1.06,1.06,0,0,1-1.16,1.09c-.84,0-1.68,0-2.52,0s-1.58,0-2.37,0a1.06,1.06,0,0,1-1.16-1.09,1,1,0,0,1,1.12-1.06c1.65,0,3.31,0,5,0A1,1,0,0,1,32.74,31.26Z" transform="translate(0.04 0)"></path><path class="cls-2" d="M31.62,36.3c-1.65,0-3.31,0-5,0a1.08,1.08,0,1,1,0-2.15c.81,0,1.63,0,2.44,0s1.63,0,2.45,0a1.08,1.08,0,1,1,.05,2.15Z" transform="translate(0.04 0)"></path><path class="cls-2" d="M32.74,44.58a1.06,1.06,0,0,1-1.16,1c-.84,0-1.68,0-2.52,0s-1.58,0-2.37,0a1.08,1.08,0,1,1,0-2.15c1.65,0,3.31,0,5,0A1.07,1.07,0,0,1,32.74,44.58Z" transform="translate(0.04 0)"></path><path class="cls-2" d="M32.74,22a1.08,1.08,0,0,1-1.13,1.06c-1.65,0-3.31,0-5,0A1.06,1.06,0,0,1,25.52,22a1.08,1.08,0,0,1,1.17-1.09c.81,0,1.63,0,2.44,0s1.64,0,2.45,0A1.08,1.08,0,0,1,32.74,22Z" transform="translate(0.04 0)"></path><path class="cls-2" d="M32.74,40.56a1.09,1.09,0,0,1-1.22,1.11c-1.61,0-3.21,0-4.82,0a1.08,1.08,0,1,1,0-2.15c.81,0,1.63,0,2.44,0h2.38A1.1,1.1,0,0,1,32.74,40.56Z" transform="translate(0.04 0)"></path><path class="cls-2" d="M50.78,63.63a1.07,1.07,0,0,0-1.16-1.17q-2.34,0-4.68,0a1.06,1.06,0,0,0-1.19,1.15c0,1.75-.06,3.5,0,5.25a3.51,3.51,0,0,0,7-.19c0-.79,0-1.59,0-2.38S50.8,64.52,50.78,63.63Zm-2.16,3.26c0,.6,0,1.2,0,1.79a1.35,1.35,0,1,1-2.69,0c0-1.24,0-2.49,0-3.74,0-.28.1-.37.38-.37.65,0,1.29,0,1.94,0,.32,0,.41.09.4.41C48.6,65.64,48.62,66.26,48.62,66.89Z" transform="translate(0.04 0)"></path><path class="cls-2" d="M66.19,66.46c0-1,0-1.92,0-2.78a1.11,1.11,0,0,0-1.26-1.23c-1.51,0-3,0-4.54,0a1.1,1.1,0,0,0-1.23,1.25c0,1.7,0,3.41,0,5.11a3.5,3.5,0,0,0,7,.48A25.28,25.28,0,0,0,66.19,66.46ZM64,66.8c0,.57,0,1.15,0,1.72a1.43,1.43,0,0,1-1.36,1.55,1.4,1.4,0,0,1-1.35-1.54V66.87c0-.6,0-1.2,0-1.79,0-.4.12-.49.49-.47.71,0,1.65-.23,2.09.13S64,66.08,64,66.8Z" transform="translate(0.04 0)"></path><path class="cls-2" d="M59.79,20.42a5.44,5.44,0,0,1-4-2.91,1,1,0,0,0-1.72,0,20.22,20.22,0,0,1-4,2.93,1.05,1.05,0,0,0-.51,1.65,6.9,6.9,0,0,0,.69.92,2.51,2.51,0,0,1,.83,2.41c0,.49,0,.85,0,1.21,0,.95.68,1.51,1.51,1.12a5.17,5.17,0,0,1,4.72,0,1,1,0,0,0,1.51-1,5.43,5.43,0,0,1,1.5-4.63A1,1,0,0,0,59.79,20.42Zm-2.3,1.89a2.85,2.85,0,0,0-.76,2.85c-2-.34-2-.34-3.39,0-.14-.1-.08-.26-.06-.38a2.64,2.64,0,0,0-.74-2.37c-.28-.27-.29-.48.17-.55a2.59,2.59,0,0,0,2-1.47c.18-.34.38-.32.54,0a2.63,2.63,0,0,0,2.07,1.48C57.59,21.94,57.73,22.08,57.49,22.31Z" transform="translate(0.04 0)"></path></svg>