<svg xmlns="http://www.w3.org/2000/svg" xmlns:xlink="http://www.w3.org/1999/xlink" xml:space="preserve" width="91px" height="91px" style="shape-rendering:geometricPrecision; text-rendering:geometricPrecision; image-rendering:optimizeQuality; fill-rule:evenodd; clip-rule:evenodd" viewBox="0 0 73.65 73.65"> <defs> <style type="text/css"> .fil1 {fill:#083264} .fil0 {fill:white} </style> </defs> <g id="Layer_x0020_1"> <metadata id="CorelCorpID_0Corel-Layer"></metadata> <g id="_1755491151200"> <circle class="fil0" cx="36.82" cy="36.82" r="36.82"></circle> <path class="fil1" d="M32.09 35.09c1.06,0 0.15,-1.43 1.68,-3.07 0.38,-0.42 0.82,-0.75 1.32,-1.05 1.51,-0.9 1.86,-0.87 3.24,-0.15 0.78,0.4 1.75,1.22 2.14,1.97 0.62,1.2 0.47,1.77 0.47,3.24 0,2.03 -1.01,3.8 -2.45,4.82 -1.43,1.02 -1.85,1.03 -3.27,0.04 -2.57,-1.8 -2.11,-4.3 -2.89,-4.3 -1.28,0 -0.51,1.68 -0.23,2.36 0.29,0.72 0.79,1.27 0.86,1.51l-2.29 0.63c-0.04,-1.41 -1.93,-4.46 -0.39,-9.08 0.48,-1.44 1.05,-2.25 2.1,-3.27 0.8,-0.77 2.39,-1.52 3.82,-1.64l0 2.06c-2.18,0.51 -4.58,2.64 -4.72,5.16 -0.03,0.37 0.25,0.77 0.61,0.77zm-12.96 -3.09c0,0.31 0.29,0.56 0.63,0.56 0.5,0 0.57,-0.38 0.7,-0.73 0.53,-1.36 1.62,-3.4 2.6,-4.51 0.22,-0.25 0.45,-0.52 0.65,-0.77 0.17,-0.22 0.63,-0.59 0.63,-0.87 0,-0.57 -0.67,-1.08 -1.47,-0.05 -0.15,0.21 -0.16,0.21 -0.33,0.39 -0.15,0.16 -0.17,0.22 -0.31,0.39 -0.89,1.02 -1.65,2.29 -2.26,3.51 -0.18,0.35 -0.84,1.72 -0.84,2.08zm15.33 15.1l0 9.48c0,0.19 0.28,0.47 0.47,0.48l3.8 0c0.19,-0.01 0.47,-0.29 0.47,-0.48l0 -3.63c0,-0.63 -1.18,-0.63 -1.18,0l0 2.92 -2.38 0 0 -8.06 2.38 0 0 2.61c0,0.63 1.18,0.63 1.18,0l0 -3.32c0,-0.19 -0.28,-0.48 -0.47,-0.48l-3.8 0c-0.19,0 -0.47,0.29 -0.47,0.48zm0.16 -26.95c0.4,0 1.3,-0.12 1.52,-0.3 0.15,-0.13 0.56,-0.97 0.61,-1.2l0.16 0c0.05,0.23 0.46,1.07 0.61,1.2 0.22,0.18 1.12,0.3 1.52,0.3 -0.25,0.37 -1.02,0.85 -1.02,1.26 0,0.58 0.14,0.87 0.15,1.35 -1.53,-0.81 -1.15,-0.81 -2.68,0 0.01,-0.5 0.15,-0.73 0.15,-1.43 0,-0.25 -0.85,-0.92 -1.02,-1.18zm2.2 -3.56l0.01 0c0.77,0.01 0.92,1.4 1.45,2.11 0.19,0.26 0.32,0.17 0.72,0.23 1.59,0.21 1.94,0.1 1.94,0.98 0,0.24 -1.21,1.32 -1.45,1.56 -0.49,0.49 0.11,1.16 0.11,2.39 0,0.73 -0.63,0.78 -1.21,0.41l-1.56 -0.77c-0.37,0 -1.7,0.99 -2.13,0.99 -1,0 -0.58,-1.11 -0.44,-1.94 0.18,-1.08 0.31,-0.67 -0.89,-1.87 -0.62,-0.62 -0.65,-0.45 -0.65,-1.09 0,-0.47 0.78,-0.5 1.25,-0.56 1.68,-0.24 1.19,0.11 2.02,-1.54 0.2,-0.4 0.3,-0.89 0.83,-0.9zm-10.74 5.85c0.47,0 1.27,-0.09 1.52,-0.3 0.16,-0.13 0.56,-0.96 0.62,-1.2l0.15 0c0.06,0.23 0.46,1.07 0.61,1.21 0.26,0.24 1.06,0.29 1.53,0.29 -0.25,0.37 -0.75,0.69 -0.97,1.02 -0.26,0.39 0.09,1.04 0.1,1.59 -1.53,-0.81 -1.16,-0.81 -2.69,0 0,-0.53 0.16,-0.64 0.16,-1.42 0,-0.25 -0.86,-0.93 -1.03,-1.19zm-0.55 3.79c0,1.21 1.61,0.11 1.71,0.05 0.23,-0.11 0.89,-0.48 1.05,-0.48 0.46,0 1.49,0.99 2.3,0.99 0.92,0 0.15,-2.09 0.15,-2.77 0,-0.31 1.66,-1.29 1.66,-1.98 0,-0.63 -0.55,-0.6 -1.05,-0.68 -0.54,-0.09 -0.95,-0.18 -1.55,-0.18 -0.23,-0.44 -0.38,-0.83 -0.61,-1.3 -0.2,-0.42 -0.35,-1 -0.9,-1 -0.65,0 -0.86,1.06 -1.39,2.01 -0.21,0.38 -0.37,0.28 -1.25,0.41 -0.65,0.09 -2.33,0.18 -1.09,1.4 0.31,0.3 0.56,0.56 0.87,0.87 0.88,0.86 0.1,0.62 0.1,2.66zm17.62 -3.79c0.47,0 1.27,-0.05 1.53,-0.29 0.15,-0.14 0.55,-0.98 0.61,-1.21l0.15 0c0.06,0.23 0.46,1.07 0.61,1.21 0.26,0.24 1.06,0.29 1.53,0.29 -0.33,0.5 -1.03,0.77 -1.03,1.34 0,0.56 0.16,0.76 0.16,1.27 -1.53,-0.81 -1.16,-0.81 -2.69,0 0.01,-0.47 0.16,-0.58 0.16,-1.42 0,-0.25 -0.85,-0.93 -1.03,-1.19zm0.71 -1.26c-0.47,0 -2.6,0.13 -2.6,0.71l0 0.31c0,0.34 1.66,1.6 1.66,1.82 0,0.77 -0.56,2.14 -0.2,2.57 0.59,0.73 2.1,-0.79 2.65,-0.79 0.48,0 2.76,1.92 2.76,0.43 0,-2 -0.78,-1.8 0.1,-2.66 0.72,-0.71 1.6,-1.34 1.15,-1.9 -0.25,-0.32 -1.46,-0.4 -2.06,-0.48 -0.64,-0.08 -0.46,-0.1 -1.11,-1.41 -0.2,-0.4 -0.31,-0.9 -0.84,-0.9 -0.68,0 -0.97,1.29 -1.51,2.3zm-15.64 30.98l2.37 0 0 3.71 -2.37 0 0 -3.71zm3.01 4.9l-3.73 0c-0.23,-0.01 -0.41,-0.26 -0.45,-0.42l-0.02 -2.35c-1.27,-0.67 -2.46,-1.71 -3.46,-2.71l-1.15 -1.22c-1.21,-1.37 -1.89,-2.65 -2.66,-4.21 -0.68,-1.37 -1.21,-3.17 -1.47,-4.7 -0.25,-1.5 -0.27,-2.03 -0.27,-3.52 0,-0.69 0.08,-3.59 0.72,-3.87 0.36,-0.16 0.86,0.08 0.86,0.47 0,0.44 -0.14,0.99 -0.2,1.46 -0.16,1.13 -0.12,1.98 -0.12,3.13 0,3.32 1.52,7.19 3.59,9.84 0.73,0.93 1.73,1.99 2.63,2.75 0.51,0.42 0.99,0.8 1.53,1.16 0,-0.64 -0.21,-1.9 0.47,-1.9l3.72 0c0.37,0 0.55,0.19 0.55,0.55l0 4.98c0,0.37 -0.18,0.55 -0.54,0.56zm11.84 -4.9l2.37 0 0 3.71 -2.37 0 0 -3.71zm3.09 4.9l-3.73 0c-0.36,-0.01 -0.54,-0.19 -0.54,-0.56l0 -4.98c0,-0.36 0.18,-0.55 0.55,-0.55l3.72 0c0.14,0 0.32,0.16 0.38,0.25 0.2,0.3 0.09,1.25 0.09,1.65 0.54,-0.36 1.02,-0.74 1.53,-1.16 0.83,-0.7 1.98,-1.88 2.63,-2.75 0.77,-1.03 1.53,-2.14 2.02,-3.35 1.37,-3.39 1.57,-4.32 1.57,-8.31 0,-3.56 -1.85,-7.71 -4.14,-10.41 -0.26,-0.31 -0.84,-0.82 -0.84,-1.21 0,-0.39 0.65,-1 1.34,-0.08 0.38,0.51 0.94,1.1 1.55,1.93 2.84,3.93 3.89,9.01 3.07,13.99 -0.19,1.15 -0.31,1.44 -0.62,2.47 -0.65,2.2 -1.85,4.3 -3.22,6.02 -0.5,0.63 -0.91,1.05 -1.47,1.61 -0.6,0.6 -2.69,2.48 -3.42,2.67 0,0.55 0,1.11 0,1.66 0,0.19 0.1,1.1 -0.47,1.11zm-17.71 -21.74c0,2.43 0.45,3.65 1,5.88 0.43,1.75 1.27,1.12 2.81,0.7 0.32,-0.09 0.56,-0.15 0.89,-0.22 0.28,-0.06 0.73,-0.1 0.91,-0.19 0.41,0.6 0.32,-0.05 0.32,1.74 0,1.14 -0.5,1.11 -1.59,1.33 -0.98,0.21 -4.06,0.79 -4.7,1.23 -1.23,0.84 -1.06,2.01 -1.06,3.29 0,0.2 0.22,0.47 0.63,0.47 0.69,0 0.55,-0.61 0.55,-1.27 0.02,-1.78 0.93,-1.69 3.41,-2.2 1.69,-0.35 3.35,-0.42 3.83,-1.78 0.17,-0.48 0.12,-1.18 0.12,-1.79 0.92,0.5 1.6,0.5 2.52,0 0,1.08 -0.16,2.13 0.93,2.79 0.46,0.28 2.34,0.64 2.95,0.76 0.57,0.12 2.6,0.5 2.95,0.78 1.21,1 -0.26,2.71 1.24,2.71 0.65,0 0.47,-1.19 0.47,-1.82 0,-0.85 -0.51,-1.54 -1.01,-1.91 -0.55,-0.41 -1.48,-0.55 -2.29,-0.72 -0.76,-0.16 -1.6,-0.36 -2.4,-0.52 -1.8,-0.36 -1.65,-0.26 -1.65,-2.62 0,-0.19 0.2,-0.3 0.32,-0.47 0.5,0.04 1.31,0.26 1.75,0.38 0.31,0.07 0.6,0.16 0.86,0.24 0.6,0.18 1.6,0.7 1.94,-0.73 0.15,-0.61 0.28,-1.13 0.43,-1.71 0.47,-1.9 0.63,-2.25 0.63,-4.35 0,-1.05 -0.48,-3.93 -0.99,-4.38 -0.36,-0.32 -0.99,-0.13 -0.99,0.43 0,0.36 0.22,0.83 0.31,1.12 0.21,0.66 0.47,2.4 0.47,3.07 0,0.81 -0.27,2.4 -0.46,3.16 -0.1,0.39 -0.18,0.73 -0.29,1.14 -0.09,0.37 -0.26,0.86 -0.27,1.23 -0.36,-0.17 -1.8,-0.59 -2.29,-0.63 0.18,-0.34 0.39,-0.63 0.6,-0.98 0.8,-1.33 0.91,-2.93 0.91,-4.55 0,-1.72 -0.57,-2.91 -1.45,-3.78 -0.92,-0.91 -1.96,-1.68 -3.3,-1.99l0 -2.06c1.18,0.1 2.41,0.62 3.2,1.15 0.45,0.32 0.75,0.62 1.13,1.01 0.98,1.01 2.58,-0.37 -1.22,-2.5 -0.85,-0.48 -2.44,-0.92 -3.74,-0.92 -5.17,0 -8.38,4.54 -8.38,9.48z"></path> </g> </g> </svg>