<svg xmlns="http://www.w3.org/2000/svg" xmlns:xlink="http://www.w3.org/1999/xlink" xml:space="preserve" width="91px" height="91px" style="shape-rendering:geometricPrecision; text-rendering:geometricPrecision; image-rendering:optimizeQuality; fill-rule:evenodd; clip-rule:evenodd" viewBox="0 0 4.98 4.98"> <defs> <style type="text/css"> .fil1 {fill:#083264} .fil0 {fill:white} </style> </defs> <g id="Layer_x0020_1"> <metadata id="CorelCorpID_0Corel-Layer"></metadata> <g id="_1718315887440"> <circle class="fil0" cx="2.49" cy="2.49" r="2.49"></circle> <g> <path class="fil1" d="M2.56 1.18c0.17,0.1 0.34,0.19 0.53,0.25 0.11,0.04 0.23,0.06 0.35,0.06 0.02,0 0.05,0 0.07,0l0.15 -0.01 0.01 0.15c0.02,0.55 -0.06,1.03 -0.25,1.41 -0.2,0.39 -0.49,0.67 -0.88,0.82l-0.1 0c-0.37,-0.14 -0.67,-0.41 -0.87,-0.81 -0.18,-0.38 -0.27,-0.86 -0.26,-1.44l0 -0.15 0.15 0.01c0.03,0 0.06,0 0.09,0 0.13,0 0.26,-0.01 0.39,-0.05 0.16,-0.05 0.32,-0.13 0.46,-0.24l0.08 -0.06 0.08 0.06zm-0.07 0.31c0.32,0.2 0.61,0.3 0.86,0.27 0.05,0.89 -0.28,1.56 -0.86,1.78 -0.56,-0.21 -0.89,-0.86 -0.86,-1.79 0.29,0.02 0.58,-0.05 0.86,-0.26l0 0z"></path> <path class="fil1" d="M2.14 2.23l0.06 0 0 -0.04c0,0 0,-0.01 0,-0.01 0,-0.07 0.03,-0.15 0.08,-0.21 0.06,-0.05 0.13,-0.09 0.21,-0.09 0.08,0 0.15,0.04 0.21,0.09 0.05,0.06 0.08,0.14 0.08,0.21 0,0.01 0,0.01 0,0.01l0 0.04 0.07 0c0,0 0,0 0,0 0.02,0 0.04,0.02 0.04,0.05l0 0.6c0,0.02 -0.02,0.04 -0.04,0.04 0,0 0,0 0,0l-0.71 0c-0.03,0 -0.05,-0.02 -0.05,-0.04l0 -0.6c0,-0.03 0.02,-0.05 0.05,-0.05l0 0zm0.25 0.34c0.02,0.01 0.03,0.02 0.04,0.03 0.03,-0.05 0.07,-0.1 0.1,-0.15 0.11,-0.12 0.06,-0.1 0.21,-0.1l-0.02 0.02c-0.05,0.06 -0.1,0.12 -0.14,0.18 -0.05,0.08 -0.09,0.15 -0.14,0.23l-0.01 0.02 -0.01 -0.02c-0.02,-0.05 -0.05,-0.09 -0.08,-0.13 -0.02,-0.03 -0.06,-0.06 -0.09,-0.09 0.01,-0.06 0.1,-0.03 0.14,0.01l0 0zm-0.1 -0.34l0.4 0 0 -0.04c0,0 0,0 0,-0.01 0,-0.05 -0.02,-0.1 -0.06,-0.14 -0.03,-0.04 -0.09,-0.07 -0.14,-0.07 -0.05,0 -0.1,0.03 -0.14,0.07 -0.04,0.04 -0.06,0.09 -0.06,0.15 0,0 0,0 0,0l0 0.04 0 0z"></path> </g> </g> </g> </svg>