<svg xmlns="http://www.w3.org/2000/svg" id="Layer_1" data-name="Layer 1" viewBox="0 0 91 91"><defs><style>.cls-1{fill:#fff;}.cls-2{fill:#083264;}</style></defs><circle class="cls-1" cx="45.5" cy="45.5" r="45.5"></circle><path class="cls-2" d="M56.29,22.86c.94-.76,1.88-1.51,2.76-2.33a2.05,2.05,0,0,0-.15-3.34A51.18,51.18,0,0,0,52,13.62l-1-.59a1.51,1.51,0,0,0-.88-.48c0-.08-.08-.11-.16-.07C47.26,11.06,44.6,9.67,42,8.2a2.63,2.63,0,0,0-3.29.24,7.74,7.74,0,0,0-2.07,1.09,10.21,10.21,0,0,0-2.45,1.28l-1.3.67c-3.37,1.66-6.71,3.39-10,5.26-2.13.93-2.4,2.59-.67,4.09a12.18,12.18,0,0,0,2.06,1.69c1.13.64,1.25,1.86,1.77,2.82.34.63-.7.92-.93,1.48a2.84,2.84,0,0,0-.35,1.54c-.21,2.35-.56,4.73,1.92,6.3.27.17.32.71.45,1.08a18,18,0,0,0,5.28,8.09,11.88,11.88,0,0,0,16.11,0A18.23,18.23,0,0,0,53.34,37c.46-1.09.5-2.46,1.88-3,.24-.09.38-.49.49-.78a9.84,9.84,0,0,0,.38-5.53A2.24,2.24,0,0,0,54.89,26,4.72,4.72,0,0,1,56.29,22.86ZM37.46,20.21,36.89,19c0-1.15,0-2.31,0-3.46a1,1,0,0,1,.13-.68,1,1,0,0,1,.73-.31,4,4,0,0,0,2.54-1.22l.15-.17c.25.18.33.59.74.57a.85.85,0,0,0,.17.2l.08,0a.81.81,0,0,0,.33.12c.76.28,1.84.35,2.19.89s.08,1.64.13,2.48A7.53,7.53,0,0,1,43.58,20l-.11.12-.22.26h0l-.15.18c-.17,0-.26.07-.27.22l0,0a.36.36,0,0,0,0,.09c-2.35,1.85-2.87,1.79-5.35-.64a0,0,0,0,0,0,0Zm7.73,12.14a17.53,17.53,0,0,1-11.79-.76L33,31.34c-2.36-1.34-4.51-2.9-5.7-5.47-.12-.25-.91-.89.21-1h0a53.06,53.06,0,0,0,13,1.41,64.17,64.17,0,0,0,13.4-1.38l-.14.15L54,24.9C52.53,29.08,49.16,31.13,45.19,32.35Z"></path><path class="cls-2" d="M37.7,51.18c0-.41,0-.81,0-1.21,0-.77.3-1.17,1.11-1.15q1.68,0,3.36,0c.83,0,1.13.4,1.13,1.15v1.21c0,3.27.16,2.76-2.8,2.8S37.71,54.39,37.7,51.18Z"></path><polygon class="cls-2" points="58.91 77.25 58.91 77.26 58.91 77.25 58.91 77.25"></polygon><path class="cls-2" d="M58.28,67.92a53.54,53.54,0,0,1-5-8.54l-1.93-3.86a1.64,1.64,0,0,0-.49-1.07h0c-.16-.39-.33-.79-.49-1.19A2.8,2.8,0,0,1,49.8,52c-.23-.77-.46-1.54-.78-2.58l-.64,1.2c-.27.45-.75.78-.77,1.37l-.63,1-4.15,7c-.12-.81-.21-1.34-.27-1.87-.3-3-.29-3-3.25-2.81-.61,0-.83.19-.92.81a18.38,18.38,0,0,1-.48,3.56L31.28,48.51c0-.21-.05-.41-.31-.47-.09-.2-.19-.39-.29-.59s-.15-.62-.5-.75-.23-.38-.32-.59a1.13,1.13,0,0,0-.46-.86C29,44,28.18,44.06,27.22,44.5a.94.94,0,0,0-.82.2,5.09,5.09,0,0,0-2.67.88,1.76,1.76,0,0,0-1.12.51A18.44,18.44,0,0,0,11.94,59c-.82,3.35-.7,6.83-1.15,10.23-.37,1.12.24,1.21,1,1.21h34c4.43,0,8.86,0,13.29,0,.28,0,.66.18.93,0l.07,0a.2.2,0,0,0,.07-.06h0l0,0a.41.41,0,0,0,.05-.09l0,0s0-.09,0-.14A7.62,7.62,0,0,1,58.28,67.92ZM20.06,49.83c1.24-.71,2.45-1.46,3.67-2.18.27-.11.58-.16.71-.48l.37-.28c.53,0,1.07-.19,1.58.09,1.15,2,1.14,2.07-.87,3.22q-2,1.14-3.92,2.29a1.28,1.28,0,0,1-2-.55C19.08,51.05,19.1,50.38,20.06,49.83Z"></path><path class="cls-2" d="M84.28,58c-.07,6.22-3,10.71-8,12.68a13.8,13.8,0,0,1-17.05-5.44,29.58,29.58,0,0,1-2.58-4.55l-.48-.84a1.37,1.37,0,0,1-.49-1.07,1.9,1.9,0,0,1-.53-1.09h0c-.18-.27-.36-.54-.55-.8s-.31-.69-.52-1c-.8-1.92-1.6-3.84-2.38-5.77a8.15,8.15,0,0,1-.63-2.32,2,2,0,0,1,1.12-2.34,2.42,2.42,0,0,1,2.95.48,10.19,10.19,0,0,1,1.7,2.56c.74,1.43,1.47,2.86,2.22,4.28.19.36.26,1,.85.86s.38-.73.38-1.13c0-6.12,0-12.25,0-18.37,0-.52-.16-1.08.2-1.56a2.47,2.47,0,0,1,2.63-2,2.65,2.65,0,0,1,2.35,2.8c0,3.67,0,7.34,0,11,0,1.39,0,2.77,0,4.16,0,.42-.17,1,.49,1.07s.59-.65.59-1.09c0-5.24,0-10.48,0-15.72,0-.71,0-1.43,0-2.15a2.63,2.63,0,1,1,5.25.12c0,5.73,0,11.46,0,17.19,0,.36,0,.72,0,1.08s.13.54.45.57.54-.26.55-.61c0-.85,0-1.7,0-2.55V35.06c0-1.94,1-3.14,2.52-3.16S78,33.12,78,35.12c0,4.43,0,8.87,0,13.3,0,.44-.25,1.17.46,1.2s.57-.75.57-1.23c0-3,0-6.09,0-9.13,0-2,1-3.25,2.57-3.28s2.67,1.21,2.67,3.18C84.31,45.43,84.35,51.7,84.28,58Z"></path><path class="cls-2" d="M84.28,58c-.07,6.22-3,10.71-8,12.68a13.8,13.8,0,0,1-17.05-5.44,29.58,29.58,0,0,1-2.58-4.55,4.32,4.32,0,0,0,1.09-3.3c-.07-.93.48-1.38,1.4-1.42a15,15,0,0,0,2-.08c.72-.12,1-.63.49-1.11a3.66,3.66,0,0,1-1-3.4c0-.16,0-.32,0-.48s0-.31,0-.47c.27-3.1.1-6.21.16-9.31a3.89,3.89,0,0,1,.71-2.51c.63-.83.4-1.86.2-2.9A2.17,2.17,0,0,0,61.48,37a5.61,5.61,0,0,1-.14,1.73c-.1.29-.26.64-.62.6s-.29-.49-.29-.76c0-2-.13-4,.09-6a2.47,2.47,0,0,1,2.63-2,2.65,2.65,0,0,1,2.35,2.8c0,3.67,0,7.34,0,11,0,1.39,0,2.77,0,4.16,0,.42-.17,1,.49,1.07s.59-.65.59-1.09c0-5.24,0-10.48,0-15.72,0-.71,0-1.43,0-2.15a2.63,2.63,0,1,1,5.25.12c0,5.73,0,11.46,0,17.19,0,.36,0,.72,0,1.08s.13.54.45.57.54-.26.55-.61c0-.85,0-1.7,0-2.55V35.06c0-1.94,1-3.14,2.52-3.16S78,33.12,78,35.12c0,4.43,0,8.87,0,13.3,0,.44-.25,1.17.46,1.2s.57-.75.57-1.23c0-3,0-6.09,0-9.13,0-2,1-3.25,2.57-3.28s2.67,1.21,2.67,3.18C84.31,45.43,84.35,51.7,84.28,58Z"></path><path class="cls-2" d="M58.28,67.92a53.54,53.54,0,0,1-5-8.54l-1.93-3.86c-.35-.27-.26-.75-.49-1.07h0c-.63-.39-.82.22-1.17.49-.63.51-1,.4-1.42-.4,1.46.39,1.81.17,2.1-1.28A2.8,2.8,0,0,1,49.8,52c-.38-.56-.53-1.35-1.42-1.38-.27.45-.75.78-.77,1.37a1,1,0,0,1-.63,1l-4.15,7c-.12-.81-.21-1.34-.27-1.87-.3-3-.29-3-3.25-2.81-.61,0-.83.19-.92.81a18.38,18.38,0,0,1-.48,3.56L31.28,48.51c-.19-.09-.36-.21-.31-.47s-.19-.39-.29-.59c-.44-.06-.3-.52-.5-.75s-.23-.38-.32-.59c-.55-.07-.35-.55-.46-.86C29,44,28.18,44.06,27.22,44.5c-.28,0-.47.47-.82.2a5.09,5.09,0,0,0-2.67.88,1.76,1.76,0,0,1-1.12.51A18.44,18.44,0,0,0,11.94,59c-.82,3.35-.7,6.83-1.15,10.23-.37,1.12.24,1.21,1,1.21h34c4.43,0,8.86,0,13.29,0,.28,0,.66.18.93,0l.07,0a.2.2,0,0,0,.07-.06h0l0,0a.41.41,0,0,0,.05-.09l0,0s0-.09,0-.14A7.62,7.62,0,0,1,58.28,67.92ZM20.06,49.83c1.24-.71,2.45-1.46,3.67-2.18.27-.11.58-.16.71-.48l.37-.28c.53,0,1.07-.19,1.58.09,1.15,2,1.14,2.07-.87,3.22q-2,1.14-3.92,2.29a1.28,1.28,0,0,1-2-.55C19.08,51.05,19.1,50.38,20.06,49.83Z"></path><path class="cls-2" d="M55.71,33.17c-.11.29-.25.69-.49.78-1.38.55-1.42,1.92-1.88,3a18.23,18.23,0,0,1-4.81,6.85,11.88,11.88,0,0,1-16.11,0,18,18,0,0,1-5.28-8.09c-.13-.37-.18-.91-.45-1.08-2.48-1.57-2.13-3.95-1.92-6.3.23-.15.5-.19.73-.34,1.55-1,1.54-1,2.57.61a13.5,13.5,0,0,0,2.61,2.62c.64.58,1.47.21,2.27.09l.45.25a17.53,17.53,0,0,0,11.79.76c4-1.22,7.34-3.27,8.85-7.45l-.31.18.14-.15h0a1.66,1.66,0,0,1,.21-.16c1.07-.16.46.84.81,1.18a2.24,2.24,0,0,1,1.2,1.69A9.84,9.84,0,0,1,55.71,33.17Z"></path><path class="cls-2" d="M59.05,20.53c-.88.82-1.82,1.57-2.76,2.33A4.72,4.72,0,0,0,54.89,26c-.43-.22,0-1.12-.85-1.05l-.31.18.14-.15a64.17,64.17,0,0,1-13.4,1.38,53.06,53.06,0,0,1-13-1.41h0c.3-.7,1-.81,1.64-1a24.26,24.26,0,0,1,5.18-.24c1.77,0,1.8,0,1.94-1.74a1.71,1.71,0,0,1,.88-1.66.85.85,0,0,1,.33-.07h0a0,0,0,0,1,0,0c2.48,2.43,3,2.49,5.35.64a.36.36,0,0,1,0-.09l0,0a.8.8,0,0,1,.21.13,1.32,1.32,0,0,0,1.25.61H52c.65,0,1.36,0,1.36-.91s.52-2-.7-2.59A2.85,2.85,0,0,1,52,13.62a51.18,51.18,0,0,1,6.95,3.57A2.05,2.05,0,0,1,59.05,20.53Z"></path><path class="cls-2" d="M37.48,20.2a0,0,0,0,1,0,0,2.12,2.12,0,0,0-.86,1.95c.06,1.89,0,1.85-1.94,1.9a31,31,0,0,0-5.61.21c-.58.13-1,.58-1.57.6h0c-1.12.09-.33.73-.21,1,1.19,2.57,3.34,4.13,5.7,5.47l.45.25q-1,.15-1.95.27a1.58,1.58,0,0,1-1.55-.78c-.85-1.15-2.15-1.9-2.81-3.25-.4-.82-.95,0-1.07.2-.32.72-.72.63-1.25.33a2.84,2.84,0,0,1,.35-1.54c.23-.56,1.27-.85.93-1.48-.52-1-.64-2.18-1.77-2.82a12.18,12.18,0,0,1-2.06-1.69c-1.73-1.5-1.46-3.16.67-4.09.65.15,1.29.41,1.92-.09a.84.84,0,0,1,1,.05c1.63.93,3.41.44,5.13.49.84,0,1-.64,1-1.31-.24-3,.78-3,3.53-2.91,1,0,1.51.62,1.54,1.64a1.47,1.47,0,0,1,0,.21,1,1,0,0,0-.13.68c.06,1.15,0,2.31,0,3.46l.57,1.25Z"></path><path class="cls-2" d="M50.81,21.92c-2.28,0-4.55-.06-6.83,0-.9,0-1.28-.17-1.16-1.08a.36.36,0,0,1,0-.09l0,0c0-.15.1-.22.27-.22l.15-.18h0a.32.32,0,0,0,.22-.26l.11-.12a7.53,7.53,0,0,0,.48-2.59c-.05-.84.26-1.88-.13-2.48s-1.43-.61-2.19-.89a.81.81,0,0,1-.33-.12l-.08,0a.85.85,0,0,1-.17-.2c-.41,0-.49-.39-.74-.57l-.15.17-.2-.25a1.71,1.71,0,0,0-1.48-.42c-1.29,0-2.57,0-3.86,0-.78,0-1.63-.08-1.86-1.11l1.3-.67c3.75-.09,7.5,0,11.25,0a7.24,7.24,0,0,1,2.64.92,10.63,10.63,0,0,0,1.84.76c.08,0,.13,0,.16.07.15.43.54.39.88.48l1,.59c-.51,1.07-.23,2.2-.23,3.3,0,.65.57.71,1.09.7.74,0,1,.35,1,1.07C53.8,22.53,54.22,21.88,50.81,21.92Z"></path><path class="cls-2" d="M62.39,55.66c-.08.66-.63.66-1.13.66h-.14c-.93.08-2-.38-2.73.21s-.21,1.69-.25,2.57-.89,1.12-1.46,1.56l-.48-.84a1.33,1.33,0,0,0,.52-1.29c-.07-.6.3-1.41-.36-1.72s-.6.8-1.18.85h0c-.18-.27-.36-.54-.55-.8s-.31-.69-.52-1c-.8-1.92-1.6-3.84-2.38-5.77a8.15,8.15,0,0,1-.63-2.32,2,2,0,0,1,1.12-2.34,2.42,2.42,0,0,1,2.95.48,10.19,10.19,0,0,1,1.7,2.56c.74,1.43,1.47,2.86,2.22,4.28.19.36.26,1,.85.86s.38-.73.38-1.13c0-6.12,0-12.25,0-18.37,0-.52-.16-1.08.2-1.56v6.59c.67,0,.55-.48.56-.79,0-.9,0-1.79,0-2.69,0-.43,0-.84.62-.81a.68.68,0,0,1,.7.81c-.23,1.25.77,2.8-.93,3.72-.17.1-.12.67-.12,1q0,3.9,0,7.79c0,1.65-.45,3.26-.22,4.93.08.57.12.9.69,1.08C62.61,54.44,62.46,55.1,62.39,55.66Z"></path><path class="cls-2" d="M40.42,13.12l-.15.17a4,4,0,0,1-2.54,1.22,1,1,0,0,0-.73.31,1,1,0,0,0-.13.68c.06,1.15,0,2.31,0,3.46-.57-1.32-.24-2.72-.22-4.07S36.24,13.26,35,13.3c-3,.08-2.74-.26-2.66,2.65,0,1.26-.34,1.8-1.67,1.69-1.15-.1-2.32,0-3.48,0-.45,0-.92.05-1.25-.34-.49-.58-.77-.69-1.39,0s-1.2-.1-1.68-.58c3.27-1.87,6.61-3.6,10-5.26a2.82,2.82,0,0,0,2.3.78c1.37-.06,2.75,0,4.12,0A.93.93,0,0,1,40.42,13.12Z"></path><path class="cls-2" d="M40.49,54c-3.08,0-2.78.41-2.79-2.8,0-.41,0-.81,0-1.21,0-.77.3-1.17,1.11-1.15q1.68,0,3.36,0c.83,0,1.13.4,1.13,1.15v1.21C43.3,54.45,43.45,53.94,40.49,54Z"></path><path class="cls-2" d="M49.9,12.48a1.62,1.62,0,0,1-1-.16c-2.44-1.39-5.12-1.17-7.78-1.16-2.08,0-4.17,0-6.25,0-.29,0-.52,0-.66-.32a10.21,10.21,0,0,1,2.45-1.28,3.46,3.46,0,0,1,1.15.08c.45.18,1,.35,1.35-.06s-.44-.67-.43-1.11A2.63,2.63,0,0,1,42,8.2C44.6,9.67,47.26,11.06,49.9,12.48Z"></path><path class="cls-2" d="M11.83,70.43c-.8,0-1.41-.09-1-1.21C10.66,70.14,11,70.4,11.83,70.43Z"></path><path class="cls-2" d="M60,70.44c-.27.14-.65,0-.93,0-4.43,0-8.86,0-13.29,0H12.13q23.49,0,47,0C59.38,70.39,59.75,70.57,60,70.44Z"></path><path class="cls-2" d="M57.05,59.49c0,.73-.48.44-.85.33a1.37,1.37,0,0,1-.49-1.07c-.12-.39-.13-.84-.53-1.09.53-.35,0-1.76,1.32-1.34.36.11.55.25.55.62C57.05,57.79,57.06,58.64,57.05,59.49Z"></path><path class="cls-2" d="M50.87,54.44c-.63,0-.73.55-1,.92-.57.72-1.26.15-1.78,0s-.39-.81-.08-1.26c.13-.2.42-.44.52-.29,1.19,1.82,1.32-.08,1.87-.51C50.54,53.65,50.71,54.05,50.87,54.44Z"></path><path class="cls-2" d="M39.78,9.6c-.13.41-.47.46-.84.5a3.87,3.87,0,0,1-2.32-.57,7.74,7.74,0,0,1,2.07-1.09l.66.44C39.6,9.06,39.92,9.2,39.78,9.6Z"></path><path class="cls-2" d="M49.8,52a6.41,6.41,0,0,1-1.42-1.38l.64-1.2C49.34,50.48,49.57,51.25,49.8,52Z"></path><polygon class="cls-2" points="58.91 77.25 58.91 77.26 58.91 77.25 58.91 77.25"></polygon><polygon class="cls-2" points="58.91 77.25 58.91 77.26 58.91 77.25 58.91 77.25"></polygon><path class="cls-2" d="M55.71,58.75a1.9,1.9,0,0,1-.53-1.09C56.17,57.62,55.83,58.24,55.71,58.75Z"></path><path class="cls-2" d="M47,53.05l.63-1C48,52.71,47.7,53,47,53.05Z"></path><path class="cls-2" d="M29.86,46.11c-.19,0-.21.51-.47.24s-.22-.74,0-1.1A1.13,1.13,0,0,1,29.86,46.11Z"></path><path class="cls-2" d="M51.36,55.52c-1,0-.26-.75-.49-1.07A1.64,1.64,0,0,1,51.36,55.52Z"></path><path class="cls-2" d="M23.73,45.58c-.22.52-.47,1-1.12.51A1.76,1.76,0,0,1,23.73,45.58Z"></path><path class="cls-2" d="M27.22,44.5c-.41.16-.19.77-.52.85s-.27-.39-.3-.65A.94.94,0,0,1,27.22,44.5Z"></path><path class="cls-2" d="M30.68,47.45c-1.08.37-.46-.41-.5-.75C30.53,46.83,30.6,47.15,30.68,47.45Z"></path><path class="cls-2" d="M50.94,13c-.47.17-1,.45-.88-.48A1.51,1.51,0,0,1,50.94,13Z"></path><path class="cls-2" d="M54.62,56.86c-.24-.3-.31-.69-.52-1A1.45,1.45,0,0,1,54.62,56.86Z"></path><path class="cls-2" d="M31.28,48.51c-.24-.06-.5.26-.7,0,0,0,.26-.3.39-.46C31.23,48.1,31.27,48.3,31.28,48.51Z"></path><polygon class="cls-2" points="58.91 77.25 58.91 77.26 58.91 77.25 58.91 77.25"></polygon><polygon class="cls-2" points="58.91 77.25 58.91 77.26 58.91 77.25 58.91 77.25"></polygon><path class="cls-2" d="M24.44,47.17c-.13.32-.44.37-.71.48A1.39,1.39,0,0,1,24.44,47.17Z"></path><path class="cls-2" d="M26.39,47c-.51-.28-1.05-.09-1.58-.09A1.79,1.79,0,0,1,26.39,47Z"></path><path class="cls-2" d="M24.44,47.17c-.13.32-.44.37-.71.48C23.72,47.11,23.82,46.76,24.44,47.17Z"></path><path class="cls-2" d="M26.39,47c-.51-.28-1.05-.09-1.58-.09A1.1,1.1,0,0,1,26.39,47Z"></path><path class="cls-2" d="M54,24.9l-.31.18.14-.15h0Z"></path><path class="cls-2" d="M41.27,33.63a3.23,3.23,0,0,1-1.79,0A3,3,0,0,1,41.27,33.63Z"></path><path class="cls-2" d="M37.46,20.21a0,0,0,0,1,0,0,0,0,0,0,0,0,0Zm3.7-6.52a.85.85,0,0,0,.17.2l.08,0a.81.81,0,0,0,.33.12C41.57,13.9,41.46,13.64,41.16,13.69Zm2.31,6.45-.22.26h0l-.15.18a.69.69,0,0,0,.49-.56Zm-.69.64a.36.36,0,0,0,0,.09V20.8Z"></path><path class="cls-2" d="M43.4,14.11c-.18,0-.38,0-.43-.21s.18-.26.35-.28.37,0,.42.2S43.56,14.07,43.4,14.11Z"></path><path class="cls-2" d="M44,20.43c-.19.37-.54.32-.87.15l.15-.18h0l.22-.26.11-.12C43.77,20.11,44.05,20.23,44,20.43Z"></path><path class="cls-2" d="M41.74,14.06a.81.81,0,0,1-.33-.12l-.08,0a.85.85,0,0,1-.17-.2c.08-.17.24-.36.38-.23S41.68,13.86,41.74,14.06Z"></path><path class="cls-2" d="M59.72,54c.38,0,.51.3.54.63s-.09.54-.42.58-.61-.11-.61-.51A.62.62,0,0,1,59.72,54Z"></path><path class="cls-2" d="M60.75,51.45a1.73,1.73,0,0,1-.12-1.31C61,50.48,60.78,50.83,60.75,51.45Z"></path><path class="cls-2" d="M27.67,14.88a9.35,9.35,0,0,1,1.08-.77c.39-.2.76-.86,1.19-.48.26.22.23.91.15,1.35s-.66.48-1.1.49A1.25,1.25,0,0,1,27.67,14.88Z"></path><path class="cls-2" d="M42.62,53.34V49.68h.1v3.67Z"></path><path class="cls-2" d="M41.92,53.59H39.14v-.13H42Z"></path><path class="cls-2" d="M41.79,49.48a1.26,1.26,0,0,1-1.18,0A1.29,1.29,0,0,1,41.79,49.48Z"></path><path class="cls-2" d="M39,49.48a1.22,1.22,0,0,1,1-.07A.89.89,0,0,1,39,49.48Z"></path></svg>