<svg xmlns="http://www.w3.org/2000/svg" id="Layer_1" data-name="Layer 1" viewBox="0 0 91 91"><defs><style>.cls-1{fill:#fff;}.cls-2{fill:#083264;}</style></defs><circle class="cls-1" cx="45.5" cy="45.5" r="45.5"></circle><path class="cls-2" d="M51.36,28.82A.71.71,0,0,1,51.2,28a.76.76,0,0,1,.76-.44.74.74,0,0,1,.5.26c.58.57,1.17,1.13,1.73,1.7a.77.77,0,1,1-1.06,1.1C52.53,30,52,29.41,51.36,28.82Z" transform="translate(0.04 0)"></path><path class="cls-2" d="M62.36,25c0-.41,0-.83,0-1.24a.76.76,0,1,1,1.52,0q0,1.26,0,2.52a.76.76,0,0,1-.77.79.77.77,0,0,1-.75-.82C62.36,25.86,62.36,25.45,62.36,25Z" transform="translate(0.04 0)"></path><path class="cls-2" d="M71.85,30.43a.69.69,0,0,1,.09-.8c.64-.66,1.29-1.32,2-1.95a.68.68,0,0,1,1,.05.66.66,0,0,1,.1.95c-.65.71-1.36,1.38-2,2.06a.54.54,0,0,1-.34.13A.8.8,0,0,1,71.85,30.43Z" transform="translate(0.04 0)"></path><path class="cls-2" d="M54.74,51.22q-2.91-.63-5.84-1.16a2.49,2.49,0,0,0-2.62,1.26,2.88,2.88,0,0,0,2.47,4.42c.77,0,1.53,0,2.3,0s1.68,0,2.52,0a2.71,2.71,0,0,0,2.59-2A1.88,1.88,0,0,0,54.74,51.22Zm-.11,2.36a1.18,1.18,0,0,1-1.07.6h-5a1.24,1.24,0,0,1-1.19-1.47,1.18,1.18,0,0,1,1.47-1.14l5.32,1.07C54.73,52.75,54.91,53.11,54.63,53.58ZM80.8,52.42a2.81,2.81,0,0,0-3.18-2.35c-1.9.36-3.8.75-5.69,1.15a1.94,1.94,0,0,0-1.49,2.27A2.78,2.78,0,0,0,73,55.72c.84,0,1.69,0,2.53,0v0c.94,0,1.88.06,2.81,0A2.83,2.83,0,0,0,80.8,52.42ZM78.1,54.2c-.83,0-1.66,0-2.48,0H73.23a1.21,1.21,0,0,1-1.14-.63c-.28-.48-.15-.8.39-.91l3.87-.78c.5-.1,1-.21,1.5-.29a1.15,1.15,0,0,1,1.42,1.09A1.24,1.24,0,0,1,78.1,54.2Zm2.7-1.78a2.81,2.81,0,0,0-3.18-2.35c-1.9.36-3.8.75-5.69,1.15a1.94,1.94,0,0,0-1.49,2.27A2.78,2.78,0,0,0,73,55.72c.84,0,1.69,0,2.53,0v0c.94,0,1.88.06,2.81,0A2.83,2.83,0,0,0,80.8,52.42ZM78.1,54.2c-.83,0-1.66,0-2.48,0H73.23a1.21,1.21,0,0,1-1.14-.63c-.28-.48-.15-.8.39-.91l3.87-.78c.5-.1,1-.21,1.5-.29a1.15,1.15,0,0,1,1.42,1.09A1.24,1.24,0,0,1,78.1,54.2Zm-23.36-3q-2.91-.63-5.84-1.16a2.49,2.49,0,0,0-2.62,1.26,2.88,2.88,0,0,0,2.47,4.42c.77,0,1.53,0,2.3,0s1.68,0,2.52,0a2.71,2.71,0,0,0,2.59-2A1.88,1.88,0,0,0,54.74,51.22Zm-.11,2.36a1.18,1.18,0,0,1-1.07.6h-5a1.24,1.24,0,0,1-1.19-1.47,1.18,1.18,0,0,1,1.47-1.14l5.32,1.07C54.73,52.75,54.91,53.11,54.63,53.58Zm.11-2.36q-2.91-.63-5.84-1.16a2.49,2.49,0,0,0-2.62,1.26,2.88,2.88,0,0,0,2.47,4.42c.77,0,1.53,0,2.3,0s1.68,0,2.52,0a2.71,2.71,0,0,0,2.59-2A1.88,1.88,0,0,0,54.74,51.22Zm-.11,2.36a1.18,1.18,0,0,1-1.07.6h-5a1.24,1.24,0,0,1-1.19-1.47,1.18,1.18,0,0,1,1.47-1.14l5.32,1.07C54.73,52.75,54.91,53.11,54.63,53.58ZM80.8,52.42a2.81,2.81,0,0,0-3.18-2.35c-1.9.36-3.8.75-5.69,1.15a1.94,1.94,0,0,0-1.49,2.27A2.78,2.78,0,0,0,73,55.72c.84,0,1.69,0,2.53,0v0c.94,0,1.88.06,2.81,0A2.83,2.83,0,0,0,80.8,52.42ZM78.1,54.2c-.83,0-1.66,0-2.48,0H73.23a1.21,1.21,0,0,1-1.14-.63c-.28-.48-.15-.8.39-.91l3.87-.78c.5-.1,1-.21,1.5-.29a1.15,1.15,0,0,1,1.42,1.09A1.24,1.24,0,0,1,78.1,54.2Zm2.7-1.78a2.81,2.81,0,0,0-3.18-2.35c-1.9.36-3.8.75-5.69,1.15a1.94,1.94,0,0,0-1.49,2.27A2.78,2.78,0,0,0,73,55.72c.84,0,1.69,0,2.53,0v0c.94,0,1.88.06,2.81,0A2.83,2.83,0,0,0,80.8,52.42ZM78.1,54.2c-.83,0-1.66,0-2.48,0H73.23a1.21,1.21,0,0,1-1.14-.63c-.28-.48-.15-.8.39-.91l3.87-.78c.5-.1,1-.21,1.5-.29a1.15,1.15,0,0,1,1.42,1.09A1.24,1.24,0,0,1,78.1,54.2Zm-23.36-3q-2.91-.63-5.84-1.16a2.49,2.49,0,0,0-2.62,1.26,2.88,2.88,0,0,0,2.47,4.42c.77,0,1.53,0,2.3,0s1.68,0,2.52,0a2.71,2.71,0,0,0,2.59-2A1.88,1.88,0,0,0,54.74,51.22Zm-.11,2.36a1.18,1.18,0,0,1-1.07.6h-5a1.24,1.24,0,0,1-1.19-1.47,1.18,1.18,0,0,1,1.47-1.14l5.32,1.07C54.73,52.75,54.91,53.11,54.63,53.58Zm.11-2.36q-2.91-.63-5.84-1.16a2.49,2.49,0,0,0-2.62,1.26,2.88,2.88,0,0,0,2.47,4.42c.77,0,1.53,0,2.3,0s1.68,0,2.52,0a2.71,2.71,0,0,0,2.59-2A1.88,1.88,0,0,0,54.74,51.22Zm-.11,2.36a1.18,1.18,0,0,1-1.07.6h-5a1.24,1.24,0,0,1-1.19-1.47,1.18,1.18,0,0,1,1.47-1.14l5.32,1.07C54.73,52.75,54.91,53.11,54.63,53.58ZM80.8,52.42a2.81,2.81,0,0,0-3.18-2.35c-1.9.36-3.8.75-5.69,1.15a1.94,1.94,0,0,0-1.49,2.27A2.78,2.78,0,0,0,73,55.72c.84,0,1.69,0,2.53,0v0c.94,0,1.88.06,2.81,0A2.83,2.83,0,0,0,80.8,52.42ZM78.1,54.2c-.83,0-1.66,0-2.48,0H73.23a1.21,1.21,0,0,1-1.14-.63c-.28-.48-.15-.8.39-.91l3.87-.78c.5-.1,1-.21,1.5-.29a1.15,1.15,0,0,1,1.42,1.09A1.24,1.24,0,0,1,78.1,54.2Zm2.7-1.78a2.81,2.81,0,0,0-3.18-2.35c-1.9.36-3.8.75-5.69,1.15a1.94,1.94,0,0,0-1.49,2.27A2.78,2.78,0,0,0,73,55.72c.84,0,1.69,0,2.53,0v0c.94,0,1.88.06,2.81,0A2.83,2.83,0,0,0,80.8,52.42ZM78.1,54.2c-.83,0-1.66,0-2.48,0H73.23a1.21,1.21,0,0,1-1.14-.63c-.28-.48-.15-.8.39-.91l3.87-.78c.5-.1,1-.21,1.5-.29a1.15,1.15,0,0,1,1.42,1.09A1.24,1.24,0,0,1,78.1,54.2Zm-23.36-3q-2.91-.63-5.84-1.16a2.49,2.49,0,0,0-2.62,1.26,2.88,2.88,0,0,0,2.47,4.42c.77,0,1.53,0,2.3,0s1.68,0,2.52,0a2.71,2.71,0,0,0,2.59-2A1.88,1.88,0,0,0,54.74,51.22Zm-.11,2.36a1.18,1.18,0,0,1-1.07.6h-5a1.24,1.24,0,0,1-1.19-1.47,1.18,1.18,0,0,1,1.47-1.14l5.32,1.07C54.73,52.75,54.91,53.11,54.63,53.58Zm.11-2.36q-2.91-.63-5.84-1.16a2.49,2.49,0,0,0-2.62,1.26,2.88,2.88,0,0,0,2.47,4.42c.77,0,1.53,0,2.3,0s1.68,0,2.52,0a2.71,2.71,0,0,0,2.59-2A1.88,1.88,0,0,0,54.74,51.22Zm-.11,2.36a1.18,1.18,0,0,1-1.07.6h-5a1.24,1.24,0,0,1-1.19-1.47,1.18,1.18,0,0,1,1.47-1.14l5.32,1.07C54.73,52.75,54.91,53.11,54.63,53.58ZM80.8,52.42a2.81,2.81,0,0,0-3.18-2.35c-1.9.36-3.8.75-5.69,1.15a1.94,1.94,0,0,0-1.49,2.27A2.78,2.78,0,0,0,73,55.72c.84,0,1.69,0,2.53,0v0c.94,0,1.88.06,2.81,0A2.83,2.83,0,0,0,80.8,52.42ZM78.1,54.2c-.83,0-1.66,0-2.48,0H73.23a1.21,1.21,0,0,1-1.14-.63c-.28-.48-.15-.8.39-.91l3.87-.78c.5-.1,1-.21,1.5-.29a1.15,1.15,0,0,1,1.42,1.09A1.24,1.24,0,0,1,78.1,54.2Zm2.7-1.78a2.81,2.81,0,0,0-3.18-2.35c-1.9.36-3.8.75-5.69,1.15a1.94,1.94,0,0,0-1.49,2.27A2.78,2.78,0,0,0,73,55.72c.84,0,1.69,0,2.53,0v0c.94,0,1.88.06,2.81,0A2.83,2.83,0,0,0,80.8,52.42ZM78.1,54.2c-.83,0-1.66,0-2.48,0H73.23a1.21,1.21,0,0,1-1.14-.63c-.28-.48-.15-.8.39-.91l3.87-.78c.5-.1,1-.21,1.5-.29a1.15,1.15,0,0,1,1.42,1.09A1.24,1.24,0,0,1,78.1,54.2Zm-23.36-3q-2.91-.63-5.84-1.16a2.49,2.49,0,0,0-2.62,1.26,2.88,2.88,0,0,0,2.47,4.42c.77,0,1.53,0,2.3,0s1.68,0,2.52,0a2.71,2.71,0,0,0,2.59-2A1.88,1.88,0,0,0,54.74,51.22Zm-.11,2.36a1.18,1.18,0,0,1-1.07.6h-5a1.24,1.24,0,0,1-1.19-1.47,1.18,1.18,0,0,1,1.47-1.14l5.32,1.07C54.73,52.75,54.91,53.11,54.63,53.58Zm30.64-12c0-.75-.25-1-1-1-1.42,0-2.84,0-4.25,0-.54,0-1,.08-1.18.77-.13-.64-.25-1.16-.34-1.68a5.16,5.16,0,0,0-4-4.44,12.45,12.45,0,0,0-3-.14c-.28,0-.41,0-.38-.36s0-.82,0-1.24c0-.63-.27-.9-.9-.9H67.59c-.71,0-.71,0-.72-.73s-.25-.92-.84-.92q-2.91,0-5.82,0c-.55,0-.8.3-.82.85a2.62,2.62,0,0,0,0,.28c.07.4,0,.56-.5.54-1,0-2,0-3,0a.74.74,0,0,0-.83.83c0,.46,0,.92,0,1.38,0,.23-.08.29-.3.29h-2A5.13,5.13,0,0,0,47.92,39c-.18.76-.33,1.52-.51,2.38a.91.91,0,0,0-1-.79H41.91c-.69,0-.94.26-.94,1q0,1.34,0,2.67c0,.64.23.89.85,1,1.38.21,2.76.46,4.15.63.49.07.45.26.37.62s-.22.26-.36.34a5.5,5.5,0,0,0-2.73,3.89,40.21,40.21,0,0,0-.45,4.89c-.09,2.16,0,4.33,0,6.49a2.56,2.56,0,0,0,2.73,2.72c1.3,0,2.61,0,3.91,0a2.65,2.65,0,0,0,2.93-2.94c0-.43.1-.52.52-.52H73.19c.72,0,.72,0,.73.71a2.57,2.57,0,0,0,2.72,2.73h4a2.59,2.59,0,0,0,2.85-2.83c0-3.29,0-6.58-.3-9.87-.22-2.29-1-4.15-3.08-5.31a.68.68,0,0,1-.27-.71c0-.18.27-.15.43-.17l4.19-.67c.61-.1.8-.34.8-1Q85.29,42.91,85.27,41.57ZM45.84,44.3l-3.12-.51c-.17,0-.26-.09-.23-.27a.27.27,0,0,0,0-.09c0-.43-.13-1,.08-1.25s.79-.07,1.21-.08,1.15,0,1.72,0c.25,0,.36,0,.35.33C45.83,43,45.84,43.65,45.84,44.3ZM67.12,34.1h2.29c.16,0,.21,0,.22.22.09.76.09.76-.68.76h-.66c-.39,0-.77,0-1.15,0s-.3-.23-.26-.4S66.64,34.1,67.12,34.1Zm-6.2-1.31c0-.25,0-.37.33-.36H65c.24,0,.34,0,.33.31,0,.69,0,1.37,0,2,0,.26-.1.28-.3.28H61.27c-.25,0-.37,0-.36-.32C60.94,34.09,60.93,33.44,60.92,32.79Zm-4.3,1.47c0-.21.16-.16.28-.16h2.19c.52,0,.25.37.29.58s0,.44-.31.4-.74,0-1.1,0h-.72C56.62,35.07,56.5,34.9,56.62,34.26ZM48,45.57c.46-2,.89-4.1,1.34-6.14a3.64,3.64,0,0,1,3.67-2.81h20a3.63,3.63,0,0,1,3.89,3.12c.43,2,.83,4,1.26,6,.1.44-.11.42-.41.42H63.09v-.07c-4.89,0-9.77,0-14.66,0C48,46.06,48,46,48,45.57Zm19,14.23h-4c-1.56,0-3.11,0-4.67,0-.34,0-.45-.09-.42-.42s-.12-.88.07-1.11.75-.09,1.14-.09c2.86,0,5.72,0,8.59,0,.36,0,.45.09.44.45C68.24,59.8,68.25,59.8,67.07,59.8Zm14.45-8.67c.24,1.69.37,3.39.44,5.09C82,58.13,82,60,82,62c0,.94-.36,1.29-1.3,1.29H76.75a1.28,1.28,0,0,1-1.31-1.77c.06-.2.19-.13.3-.14H77c.56,0,.9-.3.9-.76s-.33-.77-.89-.77c-2.28,0-4.55,0-6.83,0-.36,0-.47-.08-.45-.45,0-.58,0-1.17,0-1.76s-.28-.94-.93-.94H57.43c-.66,0-.93.27-.94.93s0,1.11,0,1.67-.07.56-.53.55c-2.16,0-4.33,0-6.49,0h-.38a.75.75,0,0,0-.77.74.75.75,0,0,0,.75.77c.48,0,1,0,1.44,0,.1,0,.24-.07.3.12a1.29,1.29,0,0,1-1.24,1.79H45.41a1,1,0,0,1-1.12-1.09c0-2.16,0-4.33,0-6.49a31.57,31.57,0,0,1,.46-4.75,4,4,0,0,1,3.79-3.25c1,0,2.07,0,3.1,0H77.24A4.1,4.1,0,0,1,81.52,51.13Zm2.24-8.76a1.92,1.92,0,0,0,0,.24c0,1.17,0,1.17-1.15,1.33-.63.1-1.26.19-1.88.31-.29,0-.35,0-.34-.31,0-.51,0-1,0-1.53,0-.28.11-.34.36-.33.45,0,.89,0,1.34,0s.92,0,1.38,0C83.7,42.07,83.79,42.14,83.76,42.37ZM70.44,53.49A2.78,2.78,0,0,0,73,55.72c.84,0,1.69,0,2.53,0v0c.94,0,1.88.06,2.81,0a2.84,2.84,0,1,0-.73-5.63c-1.9.36-3.8.75-5.69,1.15A1.94,1.94,0,0,0,70.44,53.49Zm2-.83,3.87-.78c.5-.1,1-.21,1.5-.29a1.15,1.15,0,0,1,1.42,1.09A1.24,1.24,0,0,1,78.1,54.2c-.83,0-1.66,0-2.48,0H73.23a1.21,1.21,0,0,1-1.14-.63C71.81,53.09,71.94,52.77,72.48,52.66ZM54.74,51.22q-2.91-.63-5.84-1.16a2.49,2.49,0,0,0-2.62,1.26,2.88,2.88,0,0,0,2.47,4.42c.77,0,1.53,0,2.3,0s1.68,0,2.52,0a2.71,2.71,0,0,0,2.59-2A1.88,1.88,0,0,0,54.74,51.22Zm-.11,2.36a1.18,1.18,0,0,1-1.07.6h-5a1.24,1.24,0,0,1-1.19-1.47,1.18,1.18,0,0,1,1.47-1.14l5.32,1.07C54.73,52.75,54.91,53.11,54.63,53.58Zm.11-2.36q-2.91-.63-5.84-1.16a2.49,2.49,0,0,0-2.62,1.26,2.88,2.88,0,0,0,2.47,4.42c.77,0,1.53,0,2.3,0s1.68,0,2.52,0a2.71,2.71,0,0,0,2.59-2A1.88,1.88,0,0,0,54.74,51.22Zm-.11,2.36a1.18,1.18,0,0,1-1.07.6h-5a1.24,1.24,0,0,1-1.19-1.47,1.18,1.18,0,0,1,1.47-1.14l5.32,1.07C54.73,52.75,54.91,53.11,54.63,53.58ZM80.8,52.42a2.81,2.81,0,0,0-3.18-2.35c-1.9.36-3.8.75-5.69,1.15a1.94,1.94,0,0,0-1.49,2.27A2.78,2.78,0,0,0,73,55.72c.84,0,1.69,0,2.53,0v0c.94,0,1.88.06,2.81,0A2.83,2.83,0,0,0,80.8,52.42ZM78.1,54.2c-.83,0-1.66,0-2.48,0H73.23a1.21,1.21,0,0,1-1.14-.63c-.28-.48-.15-.8.39-.91l3.87-.78c.5-.1,1-.21,1.5-.29a1.15,1.15,0,0,1,1.42,1.09A1.24,1.24,0,0,1,78.1,54.2Zm2.7-1.78a2.81,2.81,0,0,0-3.18-2.35c-1.9.36-3.8.75-5.69,1.15a1.94,1.94,0,0,0-1.49,2.27A2.78,2.78,0,0,0,73,55.72c.84,0,1.69,0,2.53,0v0c.94,0,1.88.06,2.81,0A2.83,2.83,0,0,0,80.8,52.42ZM78.1,54.2c-.83,0-1.66,0-2.48,0H73.23a1.21,1.21,0,0,1-1.14-.63c-.28-.48-.15-.8.39-.91l3.87-.78c.5-.1,1-.21,1.5-.29a1.15,1.15,0,0,1,1.42,1.09A1.24,1.24,0,0,1,78.1,54.2Zm-23.36-3q-2.91-.63-5.84-1.16a2.49,2.49,0,0,0-2.62,1.26,2.88,2.88,0,0,0,2.47,4.42c.77,0,1.53,0,2.3,0s1.68,0,2.52,0a2.71,2.71,0,0,0,2.59-2A1.88,1.88,0,0,0,54.74,51.22Zm-.11,2.36a1.18,1.18,0,0,1-1.07.6h-5a1.24,1.24,0,0,1-1.19-1.47,1.18,1.18,0,0,1,1.47-1.14l5.32,1.07C54.73,52.75,54.91,53.11,54.63,53.58Zm.11-2.36q-2.91-.63-5.84-1.16a2.49,2.49,0,0,0-2.62,1.26,2.88,2.88,0,0,0,2.47,4.42c.77,0,1.53,0,2.3,0s1.68,0,2.52,0a2.71,2.71,0,0,0,2.59-2A1.88,1.88,0,0,0,54.74,51.22Zm-.11,2.36a1.18,1.18,0,0,1-1.07.6h-5a1.24,1.24,0,0,1-1.19-1.47,1.18,1.18,0,0,1,1.47-1.14l5.32,1.07C54.73,52.75,54.91,53.11,54.63,53.58ZM80.8,52.42a2.81,2.81,0,0,0-3.18-2.35c-1.9.36-3.8.75-5.69,1.15a1.94,1.94,0,0,0-1.49,2.27A2.78,2.78,0,0,0,73,55.72c.84,0,1.69,0,2.53,0v0c.94,0,1.88.06,2.81,0A2.83,2.83,0,0,0,80.8,52.42ZM78.1,54.2c-.83,0-1.66,0-2.48,0H73.23a1.21,1.21,0,0,1-1.14-.63c-.28-.48-.15-.8.39-.91l3.87-.78c.5-.1,1-.21,1.5-.29a1.15,1.15,0,0,1,1.42,1.09A1.24,1.24,0,0,1,78.1,54.2Zm2.7-1.78a2.81,2.81,0,0,0-3.18-2.35c-1.9.36-3.8.75-5.69,1.15a1.94,1.94,0,0,0-1.49,2.27A2.78,2.78,0,0,0,73,55.72c.84,0,1.69,0,2.53,0v0c.94,0,1.88.06,2.81,0A2.83,2.83,0,0,0,80.8,52.42ZM78.1,54.2c-.83,0-1.66,0-2.48,0H73.23a1.21,1.21,0,0,1-1.14-.63c-.28-.48-.15-.8.39-.91l3.87-.78c.5-.1,1-.21,1.5-.29a1.15,1.15,0,0,1,1.42,1.09A1.24,1.24,0,0,1,78.1,54.2Zm-23.36-3q-2.91-.63-5.84-1.16a2.49,2.49,0,0,0-2.62,1.26,2.88,2.88,0,0,0,2.47,4.42c.77,0,1.53,0,2.3,0s1.68,0,2.52,0a2.71,2.71,0,0,0,2.59-2A1.88,1.88,0,0,0,54.74,51.22Zm-.11,2.36a1.18,1.18,0,0,1-1.07.6h-5a1.24,1.24,0,0,1-1.19-1.47,1.18,1.18,0,0,1,1.47-1.14l5.32,1.07C54.73,52.75,54.91,53.11,54.63,53.58Zm.11-2.36q-2.91-.63-5.84-1.16a2.49,2.49,0,0,0-2.62,1.26,2.88,2.88,0,0,0,2.47,4.42c.77,0,1.53,0,2.3,0s1.68,0,2.52,0a2.71,2.71,0,0,0,2.59-2A1.88,1.88,0,0,0,54.74,51.22Zm-.11,2.36a1.18,1.18,0,0,1-1.07.6h-5a1.24,1.24,0,0,1-1.19-1.47,1.18,1.18,0,0,1,1.47-1.14l5.32,1.07C54.73,52.75,54.91,53.11,54.63,53.58ZM80.8,52.42a2.81,2.81,0,0,0-3.18-2.35c-1.9.36-3.8.75-5.69,1.15a1.94,1.94,0,0,0-1.49,2.27A2.78,2.78,0,0,0,73,55.72c.84,0,1.69,0,2.53,0v0c.94,0,1.88.06,2.81,0A2.83,2.83,0,0,0,80.8,52.42ZM78.1,54.2c-.83,0-1.66,0-2.48,0H73.23a1.21,1.21,0,0,1-1.14-.63c-.28-.48-.15-.8.39-.91l3.87-.78c.5-.1,1-.21,1.5-.29a1.15,1.15,0,0,1,1.42,1.09A1.24,1.24,0,0,1,78.1,54.2Zm2.7-1.78a2.81,2.81,0,0,0-3.18-2.35c-1.9.36-3.8.75-5.69,1.15a1.94,1.94,0,0,0-1.49,2.27A2.78,2.78,0,0,0,73,55.72c.84,0,1.69,0,2.53,0v0c.94,0,1.88.06,2.81,0A2.83,2.83,0,0,0,80.8,52.42ZM78.1,54.2c-.83,0-1.66,0-2.48,0H73.23a1.21,1.21,0,0,1-1.14-.63c-.28-.48-.15-.8.39-.91l3.87-.78c.5-.1,1-.21,1.5-.29a1.15,1.15,0,0,1,1.42,1.09A1.24,1.24,0,0,1,78.1,54.2Zm-23.36-3q-2.91-.63-5.84-1.16a2.49,2.49,0,0,0-2.62,1.26,2.88,2.88,0,0,0,2.47,4.42c.77,0,1.53,0,2.3,0s1.68,0,2.52,0a2.71,2.71,0,0,0,2.59-2A1.88,1.88,0,0,0,54.74,51.22Zm-.11,2.36a1.18,1.18,0,0,1-1.07.6h-5a1.24,1.24,0,0,1-1.19-1.47,1.18,1.18,0,0,1,1.47-1.14l5.32,1.07C54.73,52.75,54.91,53.11,54.63,53.58Z" transform="translate(0.04 0)"></path><path class="cls-2" d="M54.74,51.22q-2.91-.63-5.84-1.16a2.49,2.49,0,0,0-2.62,1.26,2.88,2.88,0,0,0,2.47,4.42c.77,0,1.53,0,2.3,0s1.68,0,2.52,0a2.71,2.71,0,0,0,2.59-2A1.88,1.88,0,0,0,54.74,51.22Zm-.11,2.36a1.18,1.18,0,0,1-1.07.6h-5a1.24,1.24,0,0,1-1.19-1.47,1.18,1.18,0,0,1,1.47-1.14l5.32,1.07C54.73,52.75,54.91,53.11,54.63,53.58ZM80.8,52.42a2.81,2.81,0,0,0-3.18-2.35c-1.9.36-3.8.75-5.69,1.15a1.94,1.94,0,0,0-1.49,2.27A2.78,2.78,0,0,0,73,55.72c.84,0,1.69,0,2.53,0v0c.94,0,1.88.06,2.81,0A2.83,2.83,0,0,0,80.8,52.42ZM78.1,54.2c-.83,0-1.66,0-2.48,0H73.23a1.21,1.21,0,0,1-1.14-.63c-.28-.48-.15-.8.39-.91l3.87-.78c.5-.1,1-.21,1.5-.29a1.15,1.15,0,0,1,1.42,1.09A1.24,1.24,0,0,1,78.1,54.2Zm2.7-1.78a2.81,2.81,0,0,0-3.18-2.35c-1.9.36-3.8.75-5.69,1.15a1.94,1.94,0,0,0-1.49,2.27A2.78,2.78,0,0,0,73,55.72c.84,0,1.69,0,2.53,0v0c.94,0,1.88.06,2.81,0A2.83,2.83,0,0,0,80.8,52.42ZM78.1,54.2c-.83,0-1.66,0-2.48,0H73.23a1.21,1.21,0,0,1-1.14-.63c-.28-.48-.15-.8.39-.91l3.87-.78c.5-.1,1-.21,1.5-.29a1.15,1.15,0,0,1,1.42,1.09A1.24,1.24,0,0,1,78.1,54.2Zm-23.36-3q-2.91-.63-5.84-1.16a2.49,2.49,0,0,0-2.62,1.26,2.88,2.88,0,0,0,2.47,4.42c.77,0,1.53,0,2.3,0s1.68,0,2.52,0a2.71,2.71,0,0,0,2.59-2A1.88,1.88,0,0,0,54.74,51.22Zm-.11,2.36a1.18,1.18,0,0,1-1.07.6h-5a1.24,1.24,0,0,1-1.19-1.47,1.18,1.18,0,0,1,1.47-1.14l5.32,1.07C54.73,52.75,54.91,53.11,54.63,53.58Zm.11-2.36q-2.91-.63-5.84-1.16a2.49,2.49,0,0,0-2.62,1.26,2.88,2.88,0,0,0,2.47,4.42c.77,0,1.53,0,2.3,0s1.68,0,2.52,0a2.71,2.71,0,0,0,2.59-2A1.88,1.88,0,0,0,54.74,51.22Zm-.11,2.36a1.18,1.18,0,0,1-1.07.6h-5a1.24,1.24,0,0,1-1.19-1.47,1.18,1.18,0,0,1,1.47-1.14l5.32,1.07C54.73,52.75,54.91,53.11,54.63,53.58ZM80.8,52.42a2.81,2.81,0,0,0-3.18-2.35c-1.9.36-3.8.75-5.69,1.15a1.94,1.94,0,0,0-1.49,2.27A2.78,2.78,0,0,0,73,55.72c.84,0,1.69,0,2.53,0v0c.94,0,1.88.06,2.81,0A2.83,2.83,0,0,0,80.8,52.42ZM78.1,54.2c-.83,0-1.66,0-2.48,0H73.23a1.21,1.21,0,0,1-1.14-.63c-.28-.48-.15-.8.39-.91l3.87-.78c.5-.1,1-.21,1.5-.29a1.15,1.15,0,0,1,1.42,1.09A1.24,1.24,0,0,1,78.1,54.2Zm2.7-1.78a2.81,2.81,0,0,0-3.18-2.35c-1.9.36-3.8.75-5.69,1.15a1.94,1.94,0,0,0-1.49,2.27A2.78,2.78,0,0,0,73,55.72c.84,0,1.69,0,2.53,0v0c.94,0,1.88.06,2.81,0A2.83,2.83,0,0,0,80.8,52.42ZM78.1,54.2c-.83,0-1.66,0-2.48,0H73.23a1.21,1.21,0,0,1-1.14-.63c-.28-.48-.15-.8.39-.91l3.87-.78c.5-.1,1-.21,1.5-.29a1.15,1.15,0,0,1,1.42,1.09A1.24,1.24,0,0,1,78.1,54.2Zm-23.36-3q-2.91-.63-5.84-1.16a2.49,2.49,0,0,0-2.62,1.26,2.88,2.88,0,0,0,2.47,4.42c.77,0,1.53,0,2.3,0s1.68,0,2.52,0a2.71,2.71,0,0,0,2.59-2A1.88,1.88,0,0,0,54.74,51.22Zm-.11,2.36a1.18,1.18,0,0,1-1.07.6h-5a1.24,1.24,0,0,1-1.19-1.47,1.18,1.18,0,0,1,1.47-1.14l5.32,1.07C54.73,52.75,54.91,53.11,54.63,53.58Zm.11-2.36q-2.91-.63-5.84-1.16a2.49,2.49,0,0,0-2.62,1.26,2.88,2.88,0,0,0,2.47,4.42c.77,0,1.53,0,2.3,0s1.68,0,2.52,0a2.71,2.71,0,0,0,2.59-2A1.88,1.88,0,0,0,54.74,51.22Zm-.11,2.36a1.18,1.18,0,0,1-1.07.6h-5a1.24,1.24,0,0,1-1.19-1.47,1.18,1.18,0,0,1,1.47-1.14l5.32,1.07C54.73,52.75,54.91,53.11,54.63,53.58ZM80.8,52.42a2.81,2.81,0,0,0-3.18-2.35c-1.9.36-3.8.75-5.69,1.15a1.94,1.94,0,0,0-1.49,2.27A2.78,2.78,0,0,0,73,55.72c.84,0,1.69,0,2.53,0v0c.94,0,1.88.06,2.81,0A2.83,2.83,0,0,0,80.8,52.42ZM78.1,54.2c-.83,0-1.66,0-2.48,0H73.23a1.21,1.21,0,0,1-1.14-.63c-.28-.48-.15-.8.39-.91l3.87-.78c.5-.1,1-.21,1.5-.29a1.15,1.15,0,0,1,1.42,1.09A1.24,1.24,0,0,1,78.1,54.2Zm2.7-1.78a2.81,2.81,0,0,0-3.18-2.35c-1.9.36-3.8.75-5.69,1.15a1.94,1.94,0,0,0-1.49,2.27A2.78,2.78,0,0,0,73,55.72c.84,0,1.69,0,2.53,0v0c.94,0,1.88.06,2.81,0A2.83,2.83,0,0,0,80.8,52.42ZM78.1,54.2c-.83,0-1.66,0-2.48,0H73.23a1.21,1.21,0,0,1-1.14-.63c-.28-.48-.15-.8.39-.91l3.87-.78c.5-.1,1-.21,1.5-.29a1.15,1.15,0,0,1,1.42,1.09A1.24,1.24,0,0,1,78.1,54.2Zm-23.36-3q-2.91-.63-5.84-1.16a2.49,2.49,0,0,0-2.62,1.26,2.88,2.88,0,0,0,2.47,4.42c.77,0,1.53,0,2.3,0s1.68,0,2.52,0a2.71,2.71,0,0,0,2.59-2A1.88,1.88,0,0,0,54.74,51.22Zm-.11,2.36a1.18,1.18,0,0,1-1.07.6h-5a1.24,1.24,0,0,1-1.19-1.47,1.18,1.18,0,0,1,1.47-1.14l5.32,1.07C54.73,52.75,54.91,53.11,54.63,53.58Zm.11-2.36q-2.91-.63-5.84-1.16a2.49,2.49,0,0,0-2.62,1.26,2.88,2.88,0,0,0,2.47,4.42c.77,0,1.53,0,2.3,0s1.68,0,2.52,0a2.71,2.71,0,0,0,2.59-2A1.88,1.88,0,0,0,54.74,51.22Zm-.11,2.36a1.18,1.18,0,0,1-1.07.6h-5a1.24,1.24,0,0,1-1.19-1.47,1.18,1.18,0,0,1,1.47-1.14l5.32,1.07C54.73,52.75,54.91,53.11,54.63,53.58ZM80.8,52.42a2.81,2.81,0,0,0-3.18-2.35c-1.9.36-3.8.75-5.69,1.15a1.94,1.94,0,0,0-1.49,2.27A2.78,2.78,0,0,0,73,55.72c.84,0,1.69,0,2.53,0v0c.94,0,1.88.06,2.81,0A2.83,2.83,0,0,0,80.8,52.42ZM78.1,54.2c-.83,0-1.66,0-2.48,0H73.23a1.21,1.21,0,0,1-1.14-.63c-.28-.48-.15-.8.39-.91l3.87-.78c.5-.1,1-.21,1.5-.29a1.15,1.15,0,0,1,1.42,1.09A1.24,1.24,0,0,1,78.1,54.2Zm2.7-1.78a2.81,2.81,0,0,0-3.18-2.35c-1.9.36-3.8.75-5.69,1.15a1.94,1.94,0,0,0-1.49,2.27A2.78,2.78,0,0,0,73,55.72c.84,0,1.69,0,2.53,0v0c.94,0,1.88.06,2.81,0A2.83,2.83,0,0,0,80.8,52.42ZM78.1,54.2c-.83,0-1.66,0-2.48,0H73.23a1.21,1.21,0,0,1-1.14-.63c-.28-.48-.15-.8.39-.91l3.87-.78c.5-.1,1-.21,1.5-.29a1.15,1.15,0,0,1,1.42,1.09A1.24,1.24,0,0,1,78.1,54.2Zm-23.36-3q-2.91-.63-5.84-1.16a2.49,2.49,0,0,0-2.62,1.26,2.88,2.88,0,0,0,2.47,4.42c.77,0,1.53,0,2.3,0s1.68,0,2.52,0a2.71,2.71,0,0,0,2.59-2A1.88,1.88,0,0,0,54.74,51.22Zm-.11,2.36a1.18,1.18,0,0,1-1.07.6h-5a1.24,1.24,0,0,1-1.19-1.47,1.18,1.18,0,0,1,1.47-1.14l5.32,1.07C54.73,52.75,54.91,53.11,54.63,53.58Zm30.64-12c0-.75-.25-1-1-1-1.42,0-2.84,0-4.25,0-.54,0-1,.08-1.18.77-.13-.64-.25-1.16-.34-1.68a5.16,5.16,0,0,0-4-4.44,12.45,12.45,0,0,0-3-.14c-.28,0-.41,0-.38-.36s0-.82,0-1.24c0-.63-.27-.9-.9-.9H67.59c-.71,0-.71,0-.72-.73s-.25-.92-.84-.92q-2.91,0-5.82,0c-.55,0-.8.3-.82.85a2.62,2.62,0,0,0,0,.28c.07.4,0,.56-.5.54-1,0-2,0-3,0a.74.74,0,0,0-.83.83c0,.46,0,.92,0,1.38,0,.23-.08.29-.3.29h-2A5.13,5.13,0,0,0,47.92,39c-.18.76-.33,1.52-.51,2.38a.91.91,0,0,0-1-.79H41.91c-.69,0-.94.26-.94,1q0,1.34,0,2.67c0,.64.23.89.85,1,1.38.21,2.76.46,4.15.63.49.07.45.26.37.62s-.22.26-.36.34a5.5,5.5,0,0,0-2.73,3.89,40.21,40.21,0,0,0-.45,4.89c-.09,2.16,0,4.33,0,6.49a2.56,2.56,0,0,0,2.73,2.72c1.3,0,2.61,0,3.91,0a2.65,2.65,0,0,0,2.93-2.94c0-.43.1-.52.52-.52H73.19c.72,0,.72,0,.73.71a2.57,2.57,0,0,0,2.72,2.73h4a2.59,2.59,0,0,0,2.85-2.83c0-3.29,0-6.58-.3-9.87-.22-2.29-1-4.15-3.08-5.31a.68.68,0,0,1-.27-.71c0-.18.27-.15.43-.17l4.19-.67c.61-.1.8-.34.8-1Q85.29,42.91,85.27,41.57ZM45.84,44.3l-3.12-.51c-.17,0-.26-.09-.23-.27a.27.27,0,0,0,0-.09c0-.43-.13-1,.08-1.25s.79-.07,1.21-.08,1.15,0,1.72,0c.25,0,.36,0,.35.33C45.83,43,45.84,43.65,45.84,44.3ZM67.12,34.1h2.29c.16,0,.21,0,.22.22.09.76.09.76-.68.76h-.66c-.39,0-.77,0-1.15,0s-.3-.23-.26-.4S66.64,34.1,67.12,34.1Zm-6.2-1.31c0-.25,0-.37.33-.36H65c.24,0,.34,0,.33.31,0,.69,0,1.37,0,2,0,.26-.1.28-.3.28H61.27c-.25,0-.37,0-.36-.32C60.94,34.09,60.93,33.44,60.92,32.79Zm-4.3,1.47c0-.21.16-.16.28-.16h2.19c.52,0,.25.37.29.58s0,.44-.31.4-.74,0-1.1,0h-.72C56.62,35.07,56.5,34.9,56.62,34.26ZM48,45.57c.46-2,.89-4.1,1.34-6.14a3.64,3.64,0,0,1,3.67-2.81h20a3.63,3.63,0,0,1,3.89,3.12c.43,2,.83,4,1.26,6,.1.44-.11.42-.41.42H63.09v-.07c-4.89,0-9.77,0-14.66,0C48,46.06,48,46,48,45.57Zm19,14.23h-4c-1.56,0-3.11,0-4.67,0-.34,0-.45-.09-.42-.42s-.12-.88.07-1.11.75-.09,1.14-.09c2.86,0,5.72,0,8.59,0,.36,0,.45.09.44.45C68.24,59.8,68.25,59.8,67.07,59.8Zm14.45-8.67c.24,1.69.37,3.39.44,5.09C82,58.13,82,60,82,62c0,.94-.36,1.29-1.3,1.29H76.75a1.28,1.28,0,0,1-1.31-1.77c.06-.2.19-.13.3-.14H77c.56,0,.9-.3.9-.76s-.33-.77-.89-.77c-2.28,0-4.55,0-6.83,0-.36,0-.47-.08-.45-.45,0-.58,0-1.17,0-1.76s-.28-.94-.93-.94H57.43c-.66,0-.93.27-.94.93s0,1.11,0,1.67-.07.56-.53.55c-2.16,0-4.33,0-6.49,0h-.38a.75.75,0,0,0-.77.74.75.75,0,0,0,.75.77c.48,0,1,0,1.44,0,.1,0,.24-.07.3.12a1.29,1.29,0,0,1-1.24,1.79H45.41a1,1,0,0,1-1.12-1.09c0-2.16,0-4.33,0-6.49a31.57,31.57,0,0,1,.46-4.75,4,4,0,0,1,3.79-3.25c1,0,2.07,0,3.1,0H77.24A4.1,4.1,0,0,1,81.52,51.13Zm2.24-8.76a1.92,1.92,0,0,0,0,.24c0,1.17,0,1.17-1.15,1.33-.63.1-1.26.19-1.88.31-.29,0-.35,0-.34-.31,0-.51,0-1,0-1.53,0-.28.11-.34.36-.33.45,0,.89,0,1.34,0s.92,0,1.38,0C83.7,42.07,83.79,42.14,83.76,42.37ZM70.44,53.49A2.78,2.78,0,0,0,73,55.72c.84,0,1.69,0,2.53,0v0c.94,0,1.88.06,2.81,0a2.84,2.84,0,1,0-.73-5.63c-1.9.36-3.8.75-5.69,1.15A1.94,1.94,0,0,0,70.44,53.49Zm2-.83,3.87-.78c.5-.1,1-.21,1.5-.29a1.15,1.15,0,0,1,1.42,1.09A1.24,1.24,0,0,1,78.1,54.2c-.83,0-1.66,0-2.48,0H73.23a1.21,1.21,0,0,1-1.14-.63C71.81,53.09,71.94,52.77,72.48,52.66ZM54.74,51.22q-2.91-.63-5.84-1.16a2.49,2.49,0,0,0-2.62,1.26,2.88,2.88,0,0,0,2.47,4.42c.77,0,1.53,0,2.3,0s1.68,0,2.52,0a2.71,2.71,0,0,0,2.59-2A1.88,1.88,0,0,0,54.74,51.22Zm-.11,2.36a1.18,1.18,0,0,1-1.07.6h-5a1.24,1.24,0,0,1-1.19-1.47,1.18,1.18,0,0,1,1.47-1.14l5.32,1.07C54.73,52.75,54.91,53.11,54.63,53.58Zm.11-2.36q-2.91-.63-5.84-1.16a2.49,2.49,0,0,0-2.62,1.26,2.88,2.88,0,0,0,2.47,4.42c.77,0,1.53,0,2.3,0s1.68,0,2.52,0a2.71,2.71,0,0,0,2.59-2A1.88,1.88,0,0,0,54.74,51.22Zm-.11,2.36a1.18,1.18,0,0,1-1.07.6h-5a1.24,1.24,0,0,1-1.19-1.47,1.18,1.18,0,0,1,1.47-1.14l5.32,1.07C54.73,52.75,54.91,53.11,54.63,53.58ZM80.8,52.42a2.81,2.81,0,0,0-3.18-2.35c-1.9.36-3.8.75-5.69,1.15a1.94,1.94,0,0,0-1.49,2.27A2.78,2.78,0,0,0,73,55.72c.84,0,1.69,0,2.53,0v0c.94,0,1.88.06,2.81,0A2.83,2.83,0,0,0,80.8,52.42ZM78.1,54.2c-.83,0-1.66,0-2.48,0H73.23a1.21,1.21,0,0,1-1.14-.63c-.28-.48-.15-.8.39-.91l3.87-.78c.5-.1,1-.21,1.5-.29a1.15,1.15,0,0,1,1.42,1.09A1.24,1.24,0,0,1,78.1,54.2Zm2.7-1.78a2.81,2.81,0,0,0-3.18-2.35c-1.9.36-3.8.75-5.69,1.15a1.94,1.94,0,0,0-1.49,2.27A2.78,2.78,0,0,0,73,55.72c.84,0,1.69,0,2.53,0v0c.94,0,1.88.06,2.81,0A2.83,2.83,0,0,0,80.8,52.42ZM78.1,54.2c-.83,0-1.66,0-2.48,0H73.23a1.21,1.21,0,0,1-1.14-.63c-.28-.48-.15-.8.39-.91l3.87-.78c.5-.1,1-.21,1.5-.29a1.15,1.15,0,0,1,1.42,1.09A1.24,1.24,0,0,1,78.1,54.2Zm-23.36-3q-2.91-.63-5.84-1.16a2.49,2.49,0,0,0-2.62,1.26,2.88,2.88,0,0,0,2.47,4.42c.77,0,1.53,0,2.3,0s1.68,0,2.52,0a2.71,2.71,0,0,0,2.59-2A1.88,1.88,0,0,0,54.74,51.22Zm-.11,2.36a1.18,1.18,0,0,1-1.07.6h-5a1.24,1.24,0,0,1-1.19-1.47,1.18,1.18,0,0,1,1.47-1.14l5.32,1.07C54.73,52.75,54.91,53.11,54.63,53.58Zm.11-2.36q-2.91-.63-5.84-1.16a2.49,2.49,0,0,0-2.62,1.26,2.88,2.88,0,0,0,2.47,4.42c.77,0,1.53,0,2.3,0s1.68,0,2.52,0a2.71,2.71,0,0,0,2.59-2A1.88,1.88,0,0,0,54.74,51.22Zm-.11,2.36a1.18,1.18,0,0,1-1.07.6h-5a1.24,1.24,0,0,1-1.19-1.47,1.18,1.18,0,0,1,1.47-1.14l5.32,1.07C54.73,52.75,54.91,53.11,54.63,53.58ZM80.8,52.42a2.81,2.81,0,0,0-3.18-2.35c-1.9.36-3.8.75-5.69,1.15a1.94,1.94,0,0,0-1.49,2.27A2.78,2.78,0,0,0,73,55.72c.84,0,1.69,0,2.53,0v0c.94,0,1.88.06,2.81,0A2.83,2.83,0,0,0,80.8,52.42ZM78.1,54.2c-.83,0-1.66,0-2.48,0H73.23a1.21,1.21,0,0,1-1.14-.63c-.28-.48-.15-.8.39-.91l3.87-.78c.5-.1,1-.21,1.5-.29a1.15,1.15,0,0,1,1.42,1.09A1.24,1.24,0,0,1,78.1,54.2Zm2.7-1.78a2.81,2.81,0,0,0-3.18-2.35c-1.9.36-3.8.75-5.69,1.15a1.94,1.94,0,0,0-1.49,2.27A2.78,2.78,0,0,0,73,55.72c.84,0,1.69,0,2.53,0v0c.94,0,1.88.06,2.81,0A2.83,2.83,0,0,0,80.8,52.42ZM78.1,54.2c-.83,0-1.66,0-2.48,0H73.23a1.21,1.21,0,0,1-1.14-.63c-.28-.48-.15-.8.39-.91l3.87-.78c.5-.1,1-.21,1.5-.29a1.15,1.15,0,0,1,1.42,1.09A1.24,1.24,0,0,1,78.1,54.2Zm-23.36-3q-2.91-.63-5.84-1.16a2.49,2.49,0,0,0-2.62,1.26,2.88,2.88,0,0,0,2.47,4.42c.77,0,1.53,0,2.3,0s1.68,0,2.52,0a2.71,2.71,0,0,0,2.59-2A1.88,1.88,0,0,0,54.74,51.22Zm-.11,2.36a1.18,1.18,0,0,1-1.07.6h-5a1.24,1.24,0,0,1-1.19-1.47,1.18,1.18,0,0,1,1.47-1.14l5.32,1.07C54.73,52.75,54.91,53.11,54.63,53.58Zm.11-2.36q-2.91-.63-5.84-1.16a2.49,2.49,0,0,0-2.62,1.26,2.88,2.88,0,0,0,2.47,4.42c.77,0,1.53,0,2.3,0s1.68,0,2.52,0a2.71,2.71,0,0,0,2.59-2A1.88,1.88,0,0,0,54.74,51.22Zm-.11,2.36a1.18,1.18,0,0,1-1.07.6h-5a1.24,1.24,0,0,1-1.19-1.47,1.18,1.18,0,0,1,1.47-1.14l5.32,1.07C54.73,52.75,54.91,53.11,54.63,53.58ZM80.8,52.42a2.81,2.81,0,0,0-3.18-2.35c-1.9.36-3.8.75-5.69,1.15a1.94,1.94,0,0,0-1.49,2.27A2.78,2.78,0,0,0,73,55.72c.84,0,1.69,0,2.53,0v0c.94,0,1.88.06,2.81,0A2.83,2.83,0,0,0,80.8,52.42ZM78.1,54.2c-.83,0-1.66,0-2.48,0H73.23a1.21,1.21,0,0,1-1.14-.63c-.28-.48-.15-.8.39-.91l3.87-.78c.5-.1,1-.21,1.5-.29a1.15,1.15,0,0,1,1.42,1.09A1.24,1.24,0,0,1,78.1,54.2Zm2.7-1.78a2.81,2.81,0,0,0-3.18-2.35c-1.9.36-3.8.75-5.69,1.15a1.94,1.94,0,0,0-1.49,2.27A2.78,2.78,0,0,0,73,55.72c.84,0,1.69,0,2.53,0v0c.94,0,1.88.06,2.81,0A2.83,2.83,0,0,0,80.8,52.42ZM78.1,54.2c-.83,0-1.66,0-2.48,0H73.23a1.21,1.21,0,0,1-1.14-.63c-.28-.48-.15-.8.39-.91l3.87-.78c.5-.1,1-.21,1.5-.29a1.15,1.15,0,0,1,1.42,1.09A1.24,1.24,0,0,1,78.1,54.2Zm-23.36-3q-2.91-.63-5.84-1.16a2.49,2.49,0,0,0-2.62,1.26,2.88,2.88,0,0,0,2.47,4.42c.77,0,1.53,0,2.3,0s1.68,0,2.52,0a2.71,2.71,0,0,0,2.59-2A1.88,1.88,0,0,0,54.74,51.22Zm-.11,2.36a1.18,1.18,0,0,1-1.07.6h-5a1.24,1.24,0,0,1-1.19-1.47,1.18,1.18,0,0,1,1.47-1.14l5.32,1.07C54.73,52.75,54.91,53.11,54.63,53.58Z" transform="translate(0.04 0)"></path><path class="cls-2" d="M63.89,26.3a.76.76,0,0,1-.77.79.77.77,0,0,1-.75-.82c0-.41,0-.82,0-1.23s0-.83,0-1.24a.76.76,0,1,1,1.52,0Q63.91,25,63.89,26.3Z" transform="translate(0.04 0)"></path><path class="cls-2" d="M54.26,30.65a.76.76,0,0,1-1.13-.08c-.6-.58-1.18-1.16-1.77-1.75A.71.71,0,0,1,51.2,28a.76.76,0,0,1,.76-.44.74.74,0,0,1,.5.26c.58.57,1.17,1.13,1.73,1.7A.76.76,0,0,1,54.26,30.65Z" transform="translate(0.04 0)"></path><path class="cls-2" d="M75,28.68c-.65.71-1.36,1.38-2,2.06a.54.54,0,0,1-.34.13.8.8,0,0,1-.75-.44.69.69,0,0,1,.09-.8c.64-.66,1.29-1.32,2-1.95a.68.68,0,0,1,1,.05A.66.66,0,0,1,75,28.68Z" transform="translate(0.04 0)"></path><path class="cls-2" d="M54.74,51.22q-2.91-.63-5.84-1.16a2.49,2.49,0,0,0-2.62,1.26,2.88,2.88,0,0,0,2.47,4.42c.77,0,1.53,0,2.3,0s1.68,0,2.52,0a2.71,2.71,0,0,0,2.59-2A1.88,1.88,0,0,0,54.74,51.22Zm-.11,2.36a1.18,1.18,0,0,1-1.07.6h-5a1.24,1.24,0,0,1-1.19-1.47,1.18,1.18,0,0,1,1.47-1.14l5.32,1.07C54.73,52.75,54.91,53.11,54.63,53.58Z" transform="translate(0.04 0)"></path><path class="cls-2" d="M80.8,52.42a2.81,2.81,0,0,0-3.18-2.35c-1.9.36-3.8.75-5.69,1.15a1.94,1.94,0,0,0-1.49,2.27A2.78,2.78,0,0,0,73,55.72c.84,0,1.69,0,2.53,0v0c.94,0,1.88.06,2.81,0A2.83,2.83,0,0,0,80.8,52.42ZM78.1,54.2c-.83,0-1.66,0-2.48,0H73.23a1.21,1.21,0,0,1-1.14-.63c-.28-.48-.15-.8.39-.91l3.87-.78c.5-.1,1-.21,1.5-.29a1.15,1.15,0,0,1,1.42,1.09A1.24,1.24,0,0,1,78.1,54.2Z" transform="translate(0.04 0)"></path><path class="cls-2" d="M80.8,52.42a2.81,2.81,0,0,0-3.18-2.35c-1.9.36-3.8.75-5.69,1.15a1.94,1.94,0,0,0-1.49,2.27A2.78,2.78,0,0,0,73,55.72c.84,0,1.69,0,2.53,0v0c.94,0,1.88.06,2.81,0A2.83,2.83,0,0,0,80.8,52.42ZM78.1,54.2c-.83,0-1.66,0-2.48,0H73.23a1.21,1.21,0,0,1-1.14-.63c-.28-.48-.15-.8.39-.91l3.87-.78c.5-.1,1-.21,1.5-.29a1.15,1.15,0,0,1,1.42,1.09A1.24,1.24,0,0,1,78.1,54.2Z" transform="translate(0.04 0)"></path><path class="cls-2" d="M54.74,51.22q-2.91-.63-5.84-1.16a2.49,2.49,0,0,0-2.62,1.26,2.88,2.88,0,0,0,2.47,4.42c.77,0,1.53,0,2.3,0s1.68,0,2.52,0a2.71,2.71,0,0,0,2.59-2A1.88,1.88,0,0,0,54.74,51.22Zm-.11,2.36a1.18,1.18,0,0,1-1.07.6h-5a1.24,1.24,0,0,1-1.19-1.47,1.18,1.18,0,0,1,1.47-1.14l5.32,1.07C54.73,52.75,54.91,53.11,54.63,53.58Z" transform="translate(0.04 0)"></path><path class="cls-2" d="M11.79,52.46A.45.45,0,0,1,12.2,52a3.39,3.39,0,0,1,.45,0H22.93a3.39,3.39,0,0,1,.45,0,.43.43,0,0,1,.41.43.46.46,0,0,1-.34.53A1.63,1.63,0,0,1,23,53H12.62a1.6,1.6,0,0,1-.44,0A.46.46,0,0,1,11.79,52.46Z" transform="translate(0.04 0)"></path><path class="cls-2" d="M11.79,46.24a.44.44,0,0,1,.37-.51,2,2,0,0,1,.49,0H32a.46.46,0,0,1,.46.49.48.48,0,0,1-.45.51,2.67,2.67,0,0,1-.4,0h-19a2.26,2.26,0,0,1-.45,0A.43.43,0,0,1,11.79,46.24Z" transform="translate(0.04 0)"></path><path class="cls-2" d="M32.49,62a.48.48,0,0,1-.31.51,1.25,1.25,0,0,1-.54.06h-19a3.24,3.24,0,0,1-.44,0,.44.44,0,0,1-.42-.47.46.46,0,0,1,.42-.53,3.38,3.38,0,0,1,.45,0q9.48,0,19,0a2.69,2.69,0,0,1,.49,0A.44.44,0,0,1,32.49,62Z" transform="translate(0.04 0)"></path><path class="cls-2" d="M32.49,55.76a.45.45,0,0,1-.43.46,4,4,0,0,1-.49,0H12.23a.43.43,0,0,1-.44-.44.48.48,0,0,1,.39-.55,2.23,2.23,0,0,1,.45,0h19a2.13,2.13,0,0,1,.44,0A.48.48,0,0,1,32.49,55.76Z" transform="translate(0.04 0)"></path><path class="cls-2" d="M11.79,43a.45.45,0,0,1,.39-.5,3.38,3.38,0,0,1,.45,0h19a3.38,3.38,0,0,1,.45,0,.45.45,0,0,1,.43.46.48.48,0,0,1-.38.52,2.07,2.07,0,0,1-.5,0h-19a3.38,3.38,0,0,1-.45,0A.44.44,0,0,1,11.79,43Z" transform="translate(0.04 0)"></path><path class="cls-2" d="M32.49,59.26a.46.46,0,0,1-.42.48,2.69,2.69,0,0,1-.49,0H20.4l-.5,0a.42.42,0,0,1-.38-.45.46.46,0,0,1,.32-.5,1.24,1.24,0,0,1,.54-.06H31.65a2.27,2.27,0,0,1,.45,0A.46.46,0,0,1,32.49,59.26Z" transform="translate(0.04 0)"></path><path class="cls-2" d="M32.49,49.39a.46.46,0,0,1-.41.44,3.38,3.38,0,0,1-.45,0H19.8a.46.46,0,0,1-.48-.48.49.49,0,0,1,.44-.52,1.37,1.37,0,0,1,.29,0H31.74a1.09,1.09,0,0,1,.4,0A.47.47,0,0,1,32.49,49.39Z" transform="translate(0.04 0)"></path><path class="cls-2" d="M32.49,33.13c0-.84-.35-1.19-1.18-1.19H13c-.85,0-1.19.34-1.19,1.18,0,1.44,0,2.89,0,4.34,0,.95.32,1.26,1.26,1.26H31.32c.81,0,1.17-.35,1.17-1.15C32.5,36.09,32.49,34.61,32.49,33.13Zm-1.38,4.58h-9c-3,0-6,0-8.93,0-.38,0-.48-.1-.47-.47,0-1.32,0-2.63,0-4,0-.3.07-.39.39-.39q9,0,18.07,0c.28,0,.37.08.37.36q0,2,0,4C31.55,37.67,31.42,37.72,31.11,37.71Z" transform="translate(0.04 0)"></path><path class="cls-2" d="M35.62,26.19q-.9,0-1.8,0c-.23,0-.32-.07-.31-.31,0-.45,0-.9,0-1.35s-.16-.59-.53-.58-.49.24-.49.58,0,.93,0,1.39c0,.22,0,.33-.29.33q-1.12,0-2.25,0c-.22,0-.29-.07-.28-.29,0-.5,0-1,0-1.49a.49.49,0,0,0-.5-.52c-.33,0-.39.26-.39.53,0,.48,0,1,0,1.45,0,.21,0,.32-.29.32q-1.12,0-2.25,0c-.22,0-.28-.07-.27-.29,0-.46,0-.93,0-1.4s-.15-.59-.51-.61-.52.24-.51.59,0,.93,0,1.4c0,.24-.08.31-.31.31-.74,0-1.47,0-2.2,0-.29,0-.33-.12-.32-.36,0-.45,0-.89,0-1.34S22,24,21.61,24s-.51.26-.5.61,0,.93,0,1.4c0,.21-.05.29-.27.29-.67,0-1.34,0-2,0-.22,0-.29-.07-.28-.29,0-.41,0-.83,0-1.25s0-.74-.51-.76-.53.36-.53.74,0,.83,0,1.25c0,.24-.06.31-.31.31-.73,0-1.46,0-2.2,0-.28,0-.32-.11-.31-.35,0-.47,0-.94,0-1.4a.49.49,0,0,0-.52-.55c-.34,0-.5.22-.49.56s0,1,0,1.45c0,.2,0,.29-.27.29q-1.12,0-2.25,0c-.25,0-.31-.09-.3-.32,0-.46,0-.93,0-1.4a.51.51,0,0,0-.54-.58c-.35,0-.48.24-.48.57v.65c0,1.07,0,1.07-1.09,1.07s-1.67.45-1.67,1.7V65.51c0,1.24.44,1.68,1.68,1.68H35c1.35,0,1.75-.4,1.75-1.75V28.06a5.06,5.06,0,0,1,0-.55C36.84,26.66,36.49,26.22,35.62,26.19Zm.53,1.73V65.29c0,.74-.13.88-.86.88H9.06c-.73,0-.75,0-.75-.76V27.89c0-.75,0-.75.76-.75,1,0,1,0,1,1,0,.35,0,.7,0,1.05a.48.48,0,0,0,.52.54c.36,0,.5-.21.5-.54,0-.57,0-1.14,0-1.7,0-.27.06-.38.36-.38.71,0,1.43,0,2.15,0,.27,0,.33.1.33.34,0,.55,0,1.1,0,1.65,0,.36.12.63.54.62s.49-.28.49-.61c0-.55,0-1.1,0-1.65,0-.24,0-.36.32-.36.73,0,1.46,0,2.19,0,.25,0,.31.08.31.31,0,.55,0,1.1,0,1.65a.71.71,0,0,0,.08.43.47.47,0,0,0,.48.22c.23,0,.21-.22.21-.39,0-.61,0-1.23,0-1.84,0-.26,0-.39.34-.39.72,0,1.43,0,2.15,0,.27,0,.34.08.33.34,0,.55,0,1.1,0,1.65,0,.36.11.63.52.62s.5-.27.49-.61c0-.56,0-1.13,0-1.7,0-.23.06-.31.31-.3h2.19c.24,0,.32.06.32.3,0,.5,0,1,0,1.5s0,.79.5.81.52-.4.52-.77,0-1,0-1.5c0-.26.07-.35.33-.34.64,0,1.27,0,1.9,0,.31,0,.35.12.34.38,0,.55,0,1.1,0,1.65,0,.35.13.59.52.59s.5-.24.49-.59c0-.55,0-1.1,0-1.65,0-.27.05-.38.35-.38.71,0,1.43,0,2.15,0,.28,0,.33.11.32.35q0,.82,0,1.65c0,.36.13.63.55.62s.48-.28.48-.61c0-.55,0-1.1,0-1.65,0-.24,0-.37.32-.36.57,0,1.13,0,1.7,0,.35,0,.49.15.48.48Z" transform="translate(0.04 0)"></path><path class="cls-2" d="M11.79,52.46A.45.45,0,0,1,12.2,52a3.39,3.39,0,0,1,.45,0H22.93a3.39,3.39,0,0,1,.45,0,.43.43,0,0,1,.41.43.46.46,0,0,1-.34.53A1.63,1.63,0,0,1,23,53H12.62a1.6,1.6,0,0,1-.44,0A.46.46,0,0,1,11.79,52.46Z" transform="translate(0.04 0)"></path><path class="cls-2" d="M11.79,46.24a.44.44,0,0,1,.37-.51,2,2,0,0,1,.49,0H32a.46.46,0,0,1,.46.49.48.48,0,0,1-.45.51,2.67,2.67,0,0,1-.4,0h-19a2.26,2.26,0,0,1-.45,0A.43.43,0,0,1,11.79,46.24Z" transform="translate(0.04 0)"></path><path class="cls-2" d="M32.49,62a.48.48,0,0,1-.31.51,1.25,1.25,0,0,1-.54.06h-19a3.24,3.24,0,0,1-.44,0,.44.44,0,0,1-.42-.47.46.46,0,0,1,.42-.53,3.38,3.38,0,0,1,.45,0q9.48,0,19,0a2.69,2.69,0,0,1,.49,0A.44.44,0,0,1,32.49,62Z" transform="translate(0.04 0)"></path><path class="cls-2" d="M32.49,55.76a.45.45,0,0,1-.43.46,4,4,0,0,1-.49,0H12.23a.43.43,0,0,1-.44-.44.48.48,0,0,1,.39-.55,2.23,2.23,0,0,1,.45,0h19a2.13,2.13,0,0,1,.44,0A.48.48,0,0,1,32.49,55.76Z" transform="translate(0.04 0)"></path><path class="cls-2" d="M11.79,43a.45.45,0,0,1,.39-.5,3.38,3.38,0,0,1,.45,0h19a3.38,3.38,0,0,1,.45,0,.45.45,0,0,1,.43.46.48.48,0,0,1-.38.52,2.07,2.07,0,0,1-.5,0h-19a3.38,3.38,0,0,1-.45,0A.44.44,0,0,1,11.79,43Z" transform="translate(0.04 0)"></path><path class="cls-2" d="M32.49,59.26a.46.46,0,0,1-.42.48,2.69,2.69,0,0,1-.49,0H20.4l-.5,0a.42.42,0,0,1-.38-.45.46.46,0,0,1,.32-.5,1.24,1.24,0,0,1,.54-.06H31.65a2.27,2.27,0,0,1,.45,0A.46.46,0,0,1,32.49,59.26Z" transform="translate(0.04 0)"></path><path class="cls-2" d="M32.49,49.39a.46.46,0,0,1-.41.44,3.38,3.38,0,0,1-.45,0H19.8a.46.46,0,0,1-.48-.48.49.49,0,0,1,.44-.52,1.37,1.37,0,0,1,.29,0H31.74a1.09,1.09,0,0,1,.4,0A.47.47,0,0,1,32.49,49.39Z" transform="translate(0.04 0)"></path><path class="cls-2" d="M32.49,33.13c0-.84-.35-1.19-1.18-1.19H13c-.85,0-1.19.34-1.19,1.18,0,1.44,0,2.89,0,4.34,0,.95.32,1.26,1.26,1.26H31.32c.81,0,1.17-.35,1.17-1.15C32.5,36.09,32.49,34.61,32.49,33.13Zm-1.38,4.58h-9c-3,0-6,0-8.93,0-.38,0-.48-.1-.47-.47,0-1.32,0-2.63,0-4,0-.3.07-.39.39-.39q9,0,18.07,0c.28,0,.37.08.37.36q0,2,0,4C31.55,37.67,31.42,37.72,31.11,37.71Z" transform="translate(0.04 0)"></path><path class="cls-2" d="M35.62,26.19q-.9,0-1.8,0c-.23,0-.32-.07-.31-.31,0-.45,0-.9,0-1.35s-.16-.59-.53-.58-.49.24-.49.58,0,.93,0,1.39c0,.22,0,.33-.29.33q-1.12,0-2.25,0c-.22,0-.29-.07-.28-.29,0-.5,0-1,0-1.49a.49.49,0,0,0-.5-.52c-.33,0-.39.26-.39.53,0,.48,0,1,0,1.45,0,.21,0,.32-.29.32q-1.12,0-2.25,0c-.22,0-.28-.07-.27-.29,0-.46,0-.93,0-1.4s-.15-.59-.51-.61-.52.24-.51.59,0,.93,0,1.4c0,.24-.08.31-.31.31-.74,0-1.47,0-2.2,0-.29,0-.33-.12-.32-.36,0-.45,0-.89,0-1.34S22,24,21.61,24s-.51.26-.5.61,0,.93,0,1.4c0,.21-.05.29-.27.29-.67,0-1.34,0-2,0-.22,0-.29-.07-.28-.29,0-.41,0-.83,0-1.25s0-.74-.51-.76-.53.36-.53.74,0,.83,0,1.25c0,.24-.06.31-.31.31-.73,0-1.46,0-2.2,0-.28,0-.32-.11-.31-.35,0-.47,0-.94,0-1.4a.49.49,0,0,0-.52-.55c-.34,0-.5.22-.49.56s0,1,0,1.45c0,.2,0,.29-.27.29q-1.12,0-2.25,0c-.25,0-.31-.09-.3-.32,0-.46,0-.93,0-1.4a.51.51,0,0,0-.54-.58c-.35,0-.48.24-.48.57v.65c0,1.07,0,1.07-1.09,1.07s-1.67.45-1.67,1.7V65.51c0,1.24.44,1.68,1.68,1.68H35c1.35,0,1.75-.4,1.75-1.75V28.06a5.06,5.06,0,0,1,0-.55C36.84,26.66,36.49,26.22,35.62,26.19Zm.53,1.73V65.29c0,.74-.13.88-.86.88H9.06c-.73,0-.75,0-.75-.76V27.89c0-.75,0-.75.76-.75,1,0,1,0,1,1,0,.35,0,.7,0,1.05a.48.48,0,0,0,.52.54c.36,0,.5-.21.5-.54,0-.57,0-1.14,0-1.7,0-.27.06-.38.36-.38.71,0,1.43,0,2.15,0,.27,0,.33.1.33.34,0,.55,0,1.1,0,1.65,0,.36.12.63.54.62s.49-.28.49-.61c0-.55,0-1.1,0-1.65,0-.24,0-.36.32-.36.73,0,1.46,0,2.19,0,.25,0,.31.08.31.31,0,.55,0,1.1,0,1.65a.71.71,0,0,0,.08.43.47.47,0,0,0,.48.22c.23,0,.21-.22.21-.39,0-.61,0-1.23,0-1.84,0-.26,0-.39.34-.39.72,0,1.43,0,2.15,0,.27,0,.34.08.33.34,0,.55,0,1.1,0,1.65,0,.36.11.63.52.62s.5-.27.49-.61c0-.56,0-1.13,0-1.7,0-.23.06-.31.31-.3h2.19c.24,0,.32.06.32.3,0,.5,0,1,0,1.5s0,.79.5.81.52-.4.52-.77,0-1,0-1.5c0-.26.07-.35.33-.34.64,0,1.27,0,1.9,0,.31,0,.35.12.34.38,0,.55,0,1.1,0,1.65,0,.35.13.59.52.59s.5-.24.49-.59c0-.55,0-1.1,0-1.65,0-.27.05-.38.35-.38.71,0,1.43,0,2.15,0,.28,0,.33.11.32.35q0,.82,0,1.65c0,.36.13.63.55.62s.48-.28.48-.61c0-.55,0-1.1,0-1.65,0-.24,0-.37.32-.36.57,0,1.13,0,1.7,0,.35,0,.49.15.48.48Z" transform="translate(0.04 0)"></path><path class="cls-2" d="M11.79,52.46A.45.45,0,0,1,12.2,52a3.39,3.39,0,0,1,.45,0H22.93a3.39,3.39,0,0,1,.45,0,.43.43,0,0,1,.41.43.46.46,0,0,1-.34.53A1.63,1.63,0,0,1,23,53H12.62a1.6,1.6,0,0,1-.44,0A.46.46,0,0,1,11.79,52.46Z" transform="translate(0.04 0)"></path><path class="cls-2" d="M11.79,46.24a.44.44,0,0,1,.37-.51,2,2,0,0,1,.49,0H32a.46.46,0,0,1,.46.49.48.48,0,0,1-.45.51,2.67,2.67,0,0,1-.4,0h-19a2.26,2.26,0,0,1-.45,0A.43.43,0,0,1,11.79,46.24Z" transform="translate(0.04 0)"></path><path class="cls-2" d="M32.49,62a.48.48,0,0,1-.31.51,1.25,1.25,0,0,1-.54.06h-19a3.24,3.24,0,0,1-.44,0,.44.44,0,0,1-.42-.47.46.46,0,0,1,.42-.53,3.38,3.38,0,0,1,.45,0q9.48,0,19,0a2.69,2.69,0,0,1,.49,0A.44.44,0,0,1,32.49,62Z" transform="translate(0.04 0)"></path><path class="cls-2" d="M32.49,55.76a.45.45,0,0,1-.43.46,4,4,0,0,1-.49,0H12.23a.43.43,0,0,1-.44-.44.48.48,0,0,1,.39-.55,2.23,2.23,0,0,1,.45,0h19a2.13,2.13,0,0,1,.44,0A.48.48,0,0,1,32.49,55.76Z" transform="translate(0.04 0)"></path><path class="cls-2" d="M11.79,43a.45.45,0,0,1,.39-.5,3.38,3.38,0,0,1,.45,0h19a3.38,3.38,0,0,1,.45,0,.45.45,0,0,1,.43.46.48.48,0,0,1-.38.52,2.07,2.07,0,0,1-.5,0h-19a3.38,3.38,0,0,1-.45,0A.44.44,0,0,1,11.79,43Z" transform="translate(0.04 0)"></path><path class="cls-2" d="M32.49,59.26a.46.46,0,0,1-.42.48,2.69,2.69,0,0,1-.49,0H20.4l-.5,0a.42.42,0,0,1-.38-.45.46.46,0,0,1,.32-.5,1.24,1.24,0,0,1,.54-.06H31.65a2.27,2.27,0,0,1,.45,0A.46.46,0,0,1,32.49,59.26Z" transform="translate(0.04 0)"></path><path class="cls-2" d="M32.49,49.39a.46.46,0,0,1-.41.44,3.38,3.38,0,0,1-.45,0H19.8a.46.46,0,0,1-.48-.48.49.49,0,0,1,.44-.52,1.37,1.37,0,0,1,.29,0H31.74a1.09,1.09,0,0,1,.4,0A.47.47,0,0,1,32.49,49.39Z" transform="translate(0.04 0)"></path><path class="cls-2" d="M32.49,33.13c0-.84-.35-1.19-1.18-1.19H13c-.85,0-1.19.34-1.19,1.18,0,1.44,0,2.89,0,4.34,0,.95.32,1.26,1.26,1.26H31.32c.81,0,1.17-.35,1.17-1.15C32.5,36.09,32.49,34.61,32.49,33.13Zm-1.38,4.58h-9c-3,0-6,0-8.93,0-.38,0-.48-.1-.47-.47,0-1.32,0-2.63,0-4,0-.3.07-.39.39-.39q9,0,18.07,0c.28,0,.37.08.37.36q0,2,0,4C31.55,37.67,31.42,37.72,31.11,37.71Z" transform="translate(0.04 0)"></path><path class="cls-2" d="M32.49,33.13c0-.84-.35-1.19-1.18-1.19H13c-.85,0-1.19.34-1.19,1.18,0,1.44,0,2.89,0,4.34,0,.95.32,1.26,1.26,1.26H31.32c.81,0,1.17-.35,1.17-1.15C32.5,36.09,32.49,34.61,32.49,33.13Zm-1.38,4.58h-9c-3,0-6,0-8.93,0-.38,0-.48-.1-.47-.47,0-1.32,0-2.63,0-4,0-.3.07-.39.39-.39q9,0,18.07,0c.28,0,.37.08.37.36q0,2,0,4C31.55,37.67,31.42,37.72,31.11,37.71Z" transform="translate(0.04 0)"></path><path class="cls-2" d="M32.18,62.53a1.25,1.25,0,0,1-.54.06h-19a3.24,3.24,0,0,1-.44,0,.44.44,0,0,1-.42-.47.46.46,0,0,1,.42-.53,3.38,3.38,0,0,1,.45,0q9.48,0,19,0a2.69,2.69,0,0,1,.49,0,.44.44,0,0,1,.36.43A.48.48,0,0,1,32.18,62.53Z" transform="translate(0.04 0)"></path><path class="cls-2" d="M32.49,43a.48.48,0,0,1-.38.52,2.07,2.07,0,0,1-.5,0h-19a3.38,3.38,0,0,1-.45,0,.44.44,0,0,1-.39-.49.45.45,0,0,1,.39-.5,3.38,3.38,0,0,1,.45,0h19a3.38,3.38,0,0,1,.45,0A.45.45,0,0,1,32.49,43Z" transform="translate(0.04 0)"></path><path class="cls-2" d="M32.49,46.2a.48.48,0,0,1-.45.51,2.67,2.67,0,0,1-.4,0h-19a2.26,2.26,0,0,1-.45,0,.43.43,0,0,1-.37-.46.44.44,0,0,1,.37-.51,2,2,0,0,1,.49,0H32A.46.46,0,0,1,32.49,46.2Z" transform="translate(0.04 0)"></path><path class="cls-2" d="M32.49,55.76a.45.45,0,0,1-.43.46,4,4,0,0,1-.49,0H12.23a.43.43,0,0,1-.44-.44.48.48,0,0,1,.39-.55,2.23,2.23,0,0,1,.45,0h19a2.13,2.13,0,0,1,.44,0A.48.48,0,0,1,32.49,55.76Z" transform="translate(0.04 0)"></path><path class="cls-2" d="M32.49,59.26a.46.46,0,0,1-.42.48,2.69,2.69,0,0,1-.49,0H20.4l-.5,0a.42.42,0,0,1-.38-.45.46.46,0,0,1,.32-.5,1.24,1.24,0,0,1,.54-.06H31.65a2.27,2.27,0,0,1,.45,0A.46.46,0,0,1,32.49,59.26Z" transform="translate(0.04 0)"></path><path class="cls-2" d="M32.49,49.39a.46.46,0,0,1-.41.44,3.38,3.38,0,0,1-.45,0H19.8a.46.46,0,0,1-.48-.48.49.49,0,0,1,.44-.52,1.37,1.37,0,0,1,.29,0H31.74a1.09,1.09,0,0,1,.4,0A.47.47,0,0,1,32.49,49.39Z" transform="translate(0.04 0)"></path><path class="cls-2" d="M23.45,52.94A1.63,1.63,0,0,1,23,53H12.62a1.6,1.6,0,0,1-.44,0,.5.5,0,0,1,0-1,3.39,3.39,0,0,1,.45,0H22.93a3.39,3.39,0,0,1,.45,0,.43.43,0,0,1,.41.43A.46.46,0,0,1,23.45,52.94Z" transform="translate(0.04 0)"></path></svg>