<svg xmlns="http://www.w3.org/2000/svg" id="Layer_1" data-name="Layer 1" viewBox="0 0 91 91"><defs><style>.cls-1{fill:#fff;}.cls-2{fill:#083264;}</style></defs><circle class="cls-1" cx="45.5" cy="45.5" r="45.5"></circle><path class="cls-2" d="M13.62,61.54c0-.11.05-.23-.11-.26a.31.31,0,0,1,.07.26v.31a.26.26,0,0,1-.07.22c.12,0,.14-.15.12-.27A2.26,2.26,0,0,1,13.62,61.54ZM33,9.46a5.31,5.31,0,0,0-3.09,4.1c-.42,2.41-.81,4.82-1.21,7.24-.15.85-.15.86-1,.86H23.23a2.46,2.46,0,0,0-1.55.46,2.27,2.27,0,0,0,.55,4c1.67.69,3.38,1.28,5.07,1.92.83.31.84.33.86,1.24a35.8,35.8,0,0,0,.16,5.28.9.9,0,0,1-.54,1.06c-1.45.84-2.88,1.72-4.31,2.58S20.36,40,18.82,41a2.3,2.3,0,0,0-.18,4l.38.27c.57.4.58.41.16,1a28.22,28.22,0,0,0-5.36,11.89c-.17.88-.14,1.79-.31,2.67.23-.09.13-.3.15-.46A27.52,27.52,0,0,1,19.19,46.5c.7-.92.7-.92-.23-1.55C17.3,43.84,17.33,42.07,19,41c2.88-1.73,5.76-3.47,8.66-5.17a1.29,1.29,0,0,0,.8-1.57,31,31,0,0,1-.15-5.54.67.67,0,0,0-.51-.76c-1.78-.63-3.55-1.3-5.31-2a2.13,2.13,0,0,1,.79-4.18q2.41,0,4.83,0c.29,0,.52,0,.59-.4.37-2.39.83-4.77,1.17-7.17.37-2.62,1.65-4.4,4.3-5,0,0,0-.07.08-.1A9.22,9.22,0,0,0,33,9.46Zm7.46,66.63q-8.27-8.25-16.51-16.51a2.19,2.19,0,0,1-.47-3c1-2,2-4,3-6,.17-.35.14-.52-.2-.73-.78-.49-1.56-1-2.3-1.54-.4-.29-.59-.24-.89.13a23.11,23.11,0,0,0-5.31,14.54c-.05,3.75,0,7.5,0,11.25,0,1.54-.52,2.38-1.65,2.66s-1.89-.25-2.59-1.54a2.64,2.64,0,0,0,.43,1,2.37,2.37,0,0,0,2.58.52,2,2,0,0,0,1.37-1.72,4.84,4.84,0,0,0,0-.85c0-3.44,0-6.89,0-10.33a26.92,26.92,0,0,1,.29-4.21,22.93,22.93,0,0,1,4.8-11c.34-.44.64-.52,1.09-.18s1.06.72,1.6,1.07c.72.49.73.51.35,1.27-.92,1.85-1.86,3.7-2.78,5.56a2.39,2.39,0,0,0,.54,3.22c5.48,5.47,11,10.92,16.4,16.44a2.55,2.55,0,0,0,1.47.71A2.79,2.79,0,0,1,40.42,76.09ZM45.65,9.77c-.91.32-1.84.59-2.75.93a2.38,2.38,0,0,1-1.6,0A30.6,30.6,0,0,0,36,9.13l5.83,1.92a.75.75,0,0,0,.51,0l5.84-1.92A10.64,10.64,0,0,0,45.65,9.77ZM81.11,60.19a12.75,12.75,0,0,0-3.91-7.06,13.76,13.76,0,0,0-9.55-3.93,1,1,0,0,1-1-.55,21.09,21.09,0,0,0-1.41-2.08c-.77-1-.79-.86.2-1.56a2.3,2.3,0,0,0-.14-4.07c-.88-.55-1.78-1.07-2.67-1.6-2.09-1.27-4.2-2.52-6.29-3.78-.31-.19-.59-.37-.52-.82A34,34,0,0,0,56,29.12a1,1,0,0,1,.79-1.1c1.72-.61,3.44-1.24,5.14-1.93a2.27,2.27,0,0,0,1.3-3,2.24,2.24,0,0,0-2.16-1.38c-1.52,0-3,0-4.56,0-.85,0-.86,0-1-.85q-.57-3.52-1.17-7a5.08,5.08,0,0,0-4.59-4.63.44.44,0,0,0,.15.1,5.16,5.16,0,0,1,4.24,4.4c.44,2.56.88,5.12,1.28,7.69.07.43.21.53.62.53,1.68,0,3.35,0,5,0a2.1,2.1,0,0,1,2.16,2.36A2.21,2.21,0,0,1,61.65,26c-1.77.66-3.53,1.34-5.31,2a.63.63,0,0,0-.49.71,28,28,0,0,1-.1,5A2,2,0,0,0,57,36.16c2.82,1.58,5.56,3.29,8.33,5a2.11,2.11,0,0,1,.13,3.7,6.33,6.33,0,0,1-.72.47c-.34.18-.43.33-.13.67a20.57,20.57,0,0,1,2.12,3,.66.66,0,0,0,.68.38A12.15,12.15,0,0,1,70,49.6,13.73,13.73,0,0,1,81.22,64.23c0,.24,0,.47-.07.7l0,.22,0,.2c0,.09,0,.19,0,.28s0,.14,0,.21L81,66l-.12.53c0,.06,0,.12,0,.18a.65.65,0,0,1,0,.13l0,.13-.09.29-.12.36c0,.16-.11.32-.17.48l-.09.22a1.67,1.67,0,0,1-.08.2l-.1.24A2.56,2.56,0,0,0,80,69c0,.07-.07.15-.11.22l-.12.23-.12.24-.13.23a2.26,2.26,0,0,1-.16.26,4,4,0,0,1-.27.44l-.12.19-.18.26-.07.09-.2.28-.16.21-.18.21L78,72l-.14.15-.12.14-.16.18a1.14,1.14,0,0,1-.11.11,3.7,3.7,0,0,1-.28.28l-.13.14h0a.86.86,0,0,1-.14.13,2.73,2.73,0,0,1-.25.23l-.1.09-.25.21-.1.09c-.31.25-.63.49-.95.71l-.27.17a5.84,5.84,0,0,1-.53.33l-.27.16-.6.31-.31.15-.66.29-.3.12-.2.07-.13,0-.13,0-.16,0-.16.05-.14,0-.25.07-.26.07-.2,0-.24,0h0l-.25,0-.12,0-.38.07-.27,0-.4,0h0l-.4,0h-.18l-.24,0h-.81a13.81,13.81,0,0,1-13-9.61c-.14-.44-.27-.89-.42-1.41l-.57.58q-4.81,4.82-9.64,9.64a2.78,2.78,0,0,1-1.28.77A2.51,2.51,0,0,0,44,76.14c3-3.17,6.18-6.23,9.28-9.33.59-.58.59-.58.83.17a14.12,14.12,0,0,0,3.69,6.1c3.62,3.55,8,4.52,12.8,3.61a13,13,0,0,0,7.71-4.8A13.79,13.79,0,0,0,81.11,60.19Z" transform="translate(0.04 0)"></path><path class="cls-2" d="M70,49.6a12.15,12.15,0,0,0-2.62-.22A.66.66,0,0,1,66.7,49a20.57,20.57,0,0,0-2.12-3c-.3-.34-.21-.49.13-.67a6.33,6.33,0,0,0,.72-.47,2.11,2.11,0,0,0-.13-3.7c-2.77-1.68-5.51-3.39-8.33-5a2,2,0,0,1-1.22-2.42,28,28,0,0,0,.1-5,.63.63,0,0,1,.49-.71c1.78-.63,3.54-1.31,5.31-2a2.21,2.21,0,0,0,1.6-1.84,2.1,2.1,0,0,0-2.16-2.36c-1.68,0-3.35,0-5,0-.41,0-.55-.1-.62-.53-.4-2.57-.84-5.13-1.28-7.69a5.16,5.16,0,0,0-4.24-4.4.44.44,0,0,1-.15-.1H48.19l-5.84,1.92a.74.74,0,0,1-.51,0L36,9.13H34.29s0,.09-.08.1c-2.65.64-3.93,2.42-4.3,5-.34,2.4-.8,4.78-1.17,7.17-.07.43-.3.4-.59.4q-2.41,0-4.83,0A2.13,2.13,0,0,0,22.53,26c1.76.68,3.53,1.35,5.31,2a.67.67,0,0,1,.51.76,31,31,0,0,0,.15,5.54,1.29,1.29,0,0,1-.8,1.57C24.8,37.57,21.92,39.31,19,41c-1.71,1-1.74,2.8-.08,3.91.93.63.93.63.23,1.55a27.52,27.52,0,0,0-5.53,13.79c0,.16.08.37-.15.46v.53c.16,0,.13.15.11.26a2.26,2.26,0,0,0,0,.26c0,.12,0,.22-.12.27V75.31c.7,1.29,1.55,1.79,2.59,1.54s1.65-1.12,1.65-2.66c0-3.75,0-7.5,0-11.25A23.11,23.11,0,0,1,23.07,48.4c.3-.37.49-.42.89-.13.74.55,1.52,1,2.3,1.54.34.21.37.38.2.73-1,2-2,4-3,6a2.19,2.19,0,0,0,.47,3q8.25,8.25,16.51,16.51a2.79,2.79,0,0,0,1.25.77h0a3.13,3.13,0,0,0,.81,0,2.78,2.78,0,0,0,1.28-.77q4.83-4.81,9.64-9.64l.57-.58c.15.52.28,1,.42,1.41a13.81,13.81,0,0,0,13,9.61h.81l.24,0h.18l.4,0h0l.4,0,.27,0,.38-.07.12,0,.25,0h0l.24,0,.2,0,.26-.07.25-.07.14,0,.16-.05.16,0,.13,0,.13,0,.2-.07.3-.12.66-.29.31-.15.6-.31.27-.16a5.84,5.84,0,0,0,.53-.33l.27-.17c.32-.22.64-.46.95-.71l.1-.09.25-.21.1-.09a2.73,2.73,0,0,0,.25-.23.86.86,0,0,0,.14-.13h0l.13-.14a3.7,3.7,0,0,0,.28-.28,1.14,1.14,0,0,0,.11-.11l.16-.18.12-.14L78,72l.15-.19.18-.21.16-.21.2-.28.07-.09.18-.26.12-.19a4,4,0,0,0,.27-.44,2.26,2.26,0,0,0,.16-.26l.13-.23.12-.24.12-.23c0-.07.07-.15.11-.22a2.56,2.56,0,0,1,.11-.24l.1-.24a1.67,1.67,0,0,0,.08-.2l.09-.22c.06-.16.12-.32.17-.48l.12-.36.09-.29,0-.13a.65.65,0,0,0,0-.13c0-.06,0-.12,0-.18L81,66l0-.15c0-.07,0-.14,0-.21s0-.19,0-.28l0-.2,0-.22c0-.23,0-.46.07-.7A13.73,13.73,0,0,0,70,49.6Zm-37.58-25c.4-2,.73-4,1.07-6,.24-1.41.45-2.82.69-4.24a1.06,1.06,0,0,1,1.56-.94c1.8.58,3.6,1.16,5.38,1.78a2.84,2.84,0,0,0,2,0c1.72-.6,3.46-1.16,5.19-1.74,1.07-.35,1.56,0,1.74,1.09.52,3.17,1.06,6.34,1.58,9.51.06.35.4.76.19,1s-.66.3-1,.43A62.85,62.85,0,0,1,44,28a6.31,6.31,0,0,1-1.71.23,13.68,13.68,0,0,1-4.84-1.11c-1.57-.56-3.12-1.19-4.68-1.76C32.34,25.19,32.33,25.06,32.42,24.65ZM49.59,38.31a9.54,9.54,0,0,1-17-5.75c0-.9,0-1.8,0-2.74,3.16,1,6.12,2.62,9.53,2.62s6.36-1.56,9.48-2.6C51.8,32.89,51.58,35.79,49.59,38.31Zm-11,30q-5.22-5.22-10.44-10.43a.71.71,0,0,1-.18-1c1.08-2.09,2.12-4.2,3.17-6.31a2.14,2.14,0,0,0-.84-3.12l-6.49-4.33c2-1.23,4-2.39,6-3.59.33-.2.46-.14.65.16a13.3,13.3,0,0,0,4.62,4.54.83.83,0,0,1,.41.63l2.4,15.47c.44,2.81.88,5.61,1.32,8.44C38.9,68.68,38.78,68.46,38.61,68.3ZM44.2,46.58q-.62,4-1.24,7.9c-.24,1.56-.49,3.13-.73,4.7,0,.11,0,.26-.2.39-.6-3.83-1.19-7.62-1.78-11.4-.09-.59-.17-1.18-.28-1.76,0-.3,0-.39.34-.35a11.49,11.49,0,0,0,3.56,0C44.42,46,44.23,46.35,44.2,46.58Zm11.31,9.84a8.23,8.23,0,0,0-1,2.35,3.7,3.7,0,0,1-1.09,1.75c-2.63,2.6-5.24,5.23-7.86,7.85l-.52.5c1-6.23,1.92-12.3,2.87-18.36.29-1.83.58-3.66.84-5.49a1.11,1.11,0,0,1,.57-.88,13.19,13.19,0,0,0,4.43-4.36c.23-.36.36-.48.78-.22,1.93,1.19,3.87,2.34,5.88,3.55l-2.28,1.52-4.23,2.82A2.15,2.15,0,0,0,53,50.58c.82,1.65,1.64,3.3,2.48,5A.77.77,0,0,1,55.51,56.42Zm2.16-6.27c.11-.58,1-.83,1.63-1.23s1-.93,1.42-.83.8.82,1.16,1.29c.64.87.63.86-.35,1.35a14.65,14.65,0,0,0-2.36,1.45c-.12.1-.24.18-.38.28a.92.92,0,0,1-.14-.14c-.06-.09-.1-.2-.15-.29C58.19,51.39,57.57,50.7,57.67,50.15Zm2.08,7.47A9.49,9.49,0,0,1,72,54.74c.49.26.51.4.12.79-1.47,1.45-2.92,2.91-4.38,4.37v2.91a.82.82,0,0,1-.86.87H64l-4.49,4.5A9.37,9.37,0,0,1,59.75,57.62Zm14.82,11.9-.29.31h0a4.68,4.68,0,0,1-.39.38l-.11.1-.14.12-.16.14-.12.09-.18.14-.36.26-.16.1-.14.09-.28.17-.14.08a9.48,9.48,0,0,1-1,.48l-.27.1a2,2,0,0,1-.26.09l-.28.09-.26.08-.21,0-.21,0-.17,0-.12,0A9.48,9.48,0,0,1,63.92,72l-.48-.23a6.14,6.14,0,0,1-.89-.53L67.76,66h0V64.48a.8.8,0,0,1,.79-.8h1.54c1.82-1.83,3.65-3.65,5.48-5.48C77.62,60.93,77.73,66,74.57,69.52Z" transform="translate(0.04 0)"></path><path class="cls-2" d="M41.67,76.86a2.55,2.55,0,0,1-1.47-.71c-5.42-5.52-10.92-11-16.4-16.44a2.39,2.39,0,0,1-.54-3.22c.92-1.86,1.86-3.71,2.78-5.56.38-.76.37-.78-.35-1.27-.54-.35-1.08-.69-1.6-1.07s-.75-.26-1.09.18a22.93,22.93,0,0,0-4.8,11,26.92,26.92,0,0,0-.29,4.21c0,3.44,0,6.89,0,10.33a4.84,4.84,0,0,1,0,.85,2,2,0,0,1-1.37,1.72,2.37,2.37,0,0,1-2.58-.52,2.64,2.64,0,0,1-.43-1c.7,1.29,1.55,1.79,2.59,1.54s1.65-1.12,1.65-2.66c0-3.75,0-7.5,0-11.25A23.11,23.11,0,0,1,23.07,48.4c.3-.37.49-.42.89-.13.74.55,1.52,1,2.3,1.54.34.21.37.38.2.73-1,2-2,4-3,6a2.19,2.19,0,0,0,.47,3q8.25,8.25,16.51,16.51A2.79,2.79,0,0,0,41.67,76.86Z" transform="translate(0.04 0)"></path><path class="cls-2" d="M78.32,71.89a13,13,0,0,1-7.71,4.8c-4.81.91-9.18-.06-12.8-3.61A14.12,14.12,0,0,1,54.12,67c-.24-.75-.24-.75-.83-.17C50.19,69.91,47,73,44,76.14a2.51,2.51,0,0,1-1.52.73,2.78,2.78,0,0,0,1.28-.77q4.83-4.81,9.64-9.64l.57-.58c.15.52.28,1,.42,1.41A13.75,13.75,0,1,0,70,49.6a12.15,12.15,0,0,0-2.62-.22A.66.66,0,0,1,66.7,49a20.57,20.57,0,0,0-2.12-3c-.3-.34-.21-.49.13-.67a6.33,6.33,0,0,0,.72-.47,2.11,2.11,0,0,0-.13-3.7c-2.77-1.68-5.51-3.39-8.33-5a2,2,0,0,1-1.22-2.42,28,28,0,0,0,.1-5,.63.63,0,0,1,.49-.71c1.78-.63,3.54-1.31,5.31-2a2.21,2.21,0,0,0,1.6-1.84,2.1,2.1,0,0,0-2.16-2.36c-1.68,0-3.35,0-5,0-.41,0-.55-.1-.62-.53-.4-2.57-.84-5.13-1.28-7.69a5.16,5.16,0,0,0-4.24-4.4.44.44,0,0,1-.15-.1,5.08,5.08,0,0,1,4.59,4.63q.6,3.53,1.17,7c.14.85.15.85,1,.85,1.52,0,3,0,4.56,0a2.24,2.24,0,0,1,2.16,1.38,2.27,2.27,0,0,1-1.3,3c-1.7.69-3.42,1.32-5.14,1.93a1,1,0,0,0-.79,1.1,34,34,0,0,1-.17,5.62c-.07.45.21.63.52.82,2.09,1.26,4.2,2.51,6.29,3.78.89.53,1.79,1,2.67,1.6A2.3,2.3,0,0,1,65.47,45c-1,.7-1,.54-.2,1.56a21.09,21.09,0,0,1,1.41,2.08,1,1,0,0,0,1,.55,13.76,13.76,0,0,1,9.55,3.93,12.75,12.75,0,0,1,3.91,7.06A13.79,13.79,0,0,1,78.32,71.89Z" transform="translate(0.04 0)"></path><path class="cls-2" d="M34.29,9.13s0,.09-.08.1c-2.65.64-3.93,2.42-4.3,5-.34,2.4-.8,4.78-1.17,7.17-.07.43-.3.4-.59.4q-2.41,0-4.83,0A2.13,2.13,0,0,0,22.53,26c1.76.68,3.53,1.35,5.31,2a.67.67,0,0,1,.51.76,31,31,0,0,0,.15,5.54,1.29,1.29,0,0,1-.8,1.57C24.8,37.57,21.92,39.31,19,41c-1.71,1-1.74,2.8-.08,3.91.93.63.93.63.23,1.55a27.52,27.52,0,0,0-5.53,13.79c0,.16.08.37-.15.46.17-.88.14-1.79.31-2.67a28.22,28.22,0,0,1,5.36-11.89c.42-.55.41-.56-.16-1L18.64,45a2.3,2.3,0,0,1,.18-4c1.54-1,3.1-1.86,4.65-2.79s2.86-1.74,4.31-2.58a.9.9,0,0,0,.54-1.06,35.8,35.8,0,0,1-.16-5.28c0-.91,0-.93-.86-1.24-1.69-.64-3.4-1.23-5.07-1.92a2.27,2.27,0,0,1-.55-4,2.46,2.46,0,0,1,1.55-.46h4.43c.85,0,.85,0,1-.86.4-2.42.79-4.83,1.21-7.24A5.31,5.31,0,0,1,33,9.46,9.22,9.22,0,0,1,34.29,9.13Z" transform="translate(0.04 0)"></path><path class="cls-2" d="M48.19,9.13l-5.84,1.92a.74.74,0,0,1-.51,0L36,9.13A30.6,30.6,0,0,1,41.3,10.7a2.38,2.38,0,0,0,1.6,0c.91-.34,1.84-.61,2.75-.93A10.64,10.64,0,0,1,48.19,9.13Z" transform="translate(0.04 0)"></path><path class="cls-2" d="M13.62,61.54a.07.07,0,0,1,0,.05s0,0-.07-.05v-.26C13.67,61.31,13.64,61.43,13.62,61.54Z" transform="translate(0.04 0)"></path><path class="cls-2" d="M13.63,61.8s0,.05-.05.05,0,0-.07,0v-.27h.11A2.26,2.26,0,0,0,13.63,61.8Z" transform="translate(0.04 0)"></path><path class="cls-2" d="M13.51,62.07v-.26h.12C13.65,61.92,13.63,62,13.51,62.07Z" transform="translate(0.04 0)"></path><path class="cls-2" d="M72.14,55.53c-1.47,1.45-2.92,2.91-4.38,4.37V58.76a.83.83,0,1,0-1.65,0c0,.61,0,1.22,0,1.83,0,.07,0,.16,0,.22l-3.37-3.38c-.44-.44-.93-.49-1.29-.13s-.33.85.13,1.31l2,2L64.94,62h-2.1a.83.83,0,1,0,0,1.65H64l-4.49,4.5a9.37,9.37,0,0,1,.26-10.56A9.49,9.49,0,0,1,72,54.74C72.51,55,72.53,55.14,72.14,55.53Z" transform="translate(0.04 0)"></path><path class="cls-2" d="M73.72,70.26l.16-.05-.11.1-.14.12-.16.14-.12.09-.18.14-.36.26-.16.1-.14.09-.28.17-.14.08a9.48,9.48,0,0,1-1,.48l-.27.1a2,2,0,0,1-.26.09l-.28.09-.26.08-.21,0-.21,0-.17,0-.12,0A9.48,9.48,0,0,1,63.92,72l-.48-.23a6.14,6.14,0,0,1-.89-.53L67.76,66v2.65a.83.83,0,0,0,.73.8.84.84,0,0,0,.9-.65,1.88,1.88,0,0,0,0-.34V66.55l.07,0c0,.06.09.14.15.2L72.89,70A.83.83,0,0,0,73.72,70.26Z" transform="translate(0.04 0)"></path><path class="cls-2" d="M74.57,69.52l-.29.31s0-.09,0-.14a.8.8,0,0,0-.24-.84l-3.3-3.3a1,1,0,0,0-.21-.14.35.35,0,0,0,0-.08h.25c.62,0,1.24,0,1.86,0a.83.83,0,0,0,0-1.65H70.09c1.82-1.83,3.65-3.65,5.48-5.48C77.62,60.93,77.73,66,74.57,69.52Z" transform="translate(0.04 0)"></path><path class="cls-2" d="M79.32,59.63c0-.27,0-.55,0-.82a7.42,7.42,0,0,0-7.23-6.69c-2.86,0-5.73,0-8.59,0a6.61,6.61,0,0,0-2.15.37,7.43,7.43,0,0,0-5.12,7.12v4c0,1.35,0,2.7,0,4a8.27,8.27,0,0,0,.07,1.11,7.43,7.43,0,0,0,7.44,6.42h8.11a7.53,7.53,0,0,0,1.71-.19,7.61,7.61,0,0,0,2.18-.88h0A7.38,7.38,0,0,0,78,72.05h0a7.54,7.54,0,0,0,1.32-4.3C79.33,65,79.32,62.33,79.32,59.63Zm-12.42,4H62.82a.83.83,0,1,1,0-1.65h2.1l-1.37-1.37-2-2c-.46-.46-.5-.94-.13-1.31s.85-.31,1.29.13l3.37,3.38c.08-.06,0-.15,0-.22,0-.61,0-1.22,0-1.83a.83.83,0,1,1,1.65,0v4.05A.82.82,0,0,1,66.9,63.68Zm7.38,6.15h0a.69.69,0,0,1-.39.38l-.16.05a.83.83,0,0,1-.83-.28l-3.26-3.27c-.06-.06-.1-.14-.15-.2l-.07,0v1.92a1.88,1.88,0,0,1,0,.34.84.84,0,0,1-.9.65.83.83,0,0,1-.73-.8V66h0V64.48a.8.8,0,0,1,.79-.8h4.18a.83.83,0,0,1,0,1.65c-.62,0-1.24,0-1.86,0h-.25a.35.35,0,0,1,0,.08,1,1,0,0,1,.21.14l3.3,3.3a.8.8,0,0,1,.24.84s0,.1,0,.14Z" transform="translate(0.04 0)"></path><path class="cls-2" d="M79.32,59.63c0-.27,0-.55,0-.82a7.42,7.42,0,0,0-7.23-6.69c-2.86,0-5.73,0-8.59,0a6.61,6.61,0,0,0-2.15.37,7.43,7.43,0,0,0-5.12,7.12v4c0,1.35,0,2.7,0,4a8.27,8.27,0,0,0,.07,1.11,7.43,7.43,0,0,0,7.44,6.42h8.11a7.53,7.53,0,0,0,1.71-.19,7.61,7.61,0,0,0,2.18-.88h0A7.38,7.38,0,0,0,78,72.05h0a7.54,7.54,0,0,0,1.32-4.3C79.33,65,79.32,62.33,79.32,59.63Zm-12.42,4H62.82a.83.83,0,1,1,0-1.65h2.1l-1.37-1.37-2-2c-.46-.46-.5-.94-.13-1.31s.85-.31,1.29.13l3.37,3.38c.08-.06,0-.15,0-.22,0-.61,0-1.22,0-1.83a.83.83,0,1,1,1.65,0v4.05A.82.82,0,0,1,66.9,63.68Zm7.38,6.15h0a.69.69,0,0,1-.39.38l-.16.05a.83.83,0,0,1-.83-.28l-3.26-3.27c-.06-.06-.1-.14-.15-.2l-.07,0v1.92a1.88,1.88,0,0,1,0,.34.84.84,0,0,1-.9.65.83.83,0,0,1-.73-.8V66h0V64.48a.8.8,0,0,1,.79-.8h4.18a.83.83,0,0,1,0,1.65c-.62,0-1.24,0-1.86,0h-.25a.35.35,0,0,1,0,.08,1,1,0,0,1,.21.14l3.3,3.3a.8.8,0,0,1,.24.84s0,.1,0,.14Z" transform="translate(0.04 0)"></path></svg>