<svg xmlns="http://www.w3.org/2000/svg" id="Layer_1" data-name="Layer 1" viewBox="0 0 91 91"><defs><style>.cls-1{fill:#fff;}.cls-2{fill:#083264;}</style></defs><circle class="cls-1" cx="45.5" cy="45.5" r="45.5"></circle><path class="cls-2" d="M37.62,31.89c0-.39.07-1.41-1.12-1.4s-1,1.07-1.07,1.87,0,1.72,1,1.76S37.66,33.23,37.62,31.89Zm0,0c0-.39.07-1.41-1.12-1.4s-1,1.07-1.07,1.87,0,1.72,1,1.76S37.66,33.23,37.62,31.89Zm38.23,7.83c-1,0-2,.14-1.76-1.43A1,1,0,0,0,73,37.07a.93.93,0,0,0-1,1.11c.27,1.67-.79,1.58-1.89,1.53-.76,0-1.53,0-2.3,0-.94.06-1.67,0-1.52-1.27.08-.66-.1-1.32-.94-1.35s-1.25.63-1.15,1.38c.15,1.31-.62,1.29-1.51,1.24-.56,0-1.12,0-1.68,0-1.22,0-2.8.49-2.48-1.78.08-.5-.45-.86-1-.85s-1,.22-.93.66c.21,2.54-1.58,2-3,2q-4.56.07-4.63,4.68c0,.9,0,1.81,0,2.94-1.16-.38-2-.64-2.87-.93-1.69-.58-2.58-2-1.58-3.42,2.39-3.37,3.76-7.46,7.19-10.11,2.37-1.84,2.72-5.26.54-7.12A4,4,0,0,1,50.8,22a20.58,20.58,0,0,0,0-2.72A14.31,14.31,0,0,0,22.21,21c0,1.52,0,2.78-1.49,4-2.29,1.86-1.73,5.48.74,7.22.45.32,1.14.54,1.31,1,1.21,3.08,3.35,5.62,4.86,8.51,1.14,2.19.2,4.12-2.08,4.89-1.91.64-3.85,1.2-5.73,1.92-5,1.87-7.88,5.5-8.27,10.78-.29,3.88-.14,7.81-.06,11.71a3.37,3.37,0,0,0,3.61,3.52c14,0,28,0,42.07,0a3.18,3.18,0,0,0,3.36-2.3c.35-1.29,1-1.35,2.08-1.34,4.6,0,9.21,0,13.81,0,3.7,0,5.17-1.5,5.18-5.23q0-10,0-20.09C81.6,40.92,80.47,39.75,75.85,39.72Zm-29.7,9.19C45,49.94,44,50.77,43,51.69c-2.64,2.61-2.63,2.63-5.22-.48C40.44,50.09,41.93,46.15,46.15,48.91Zm-9.79.72c-.34.24-.65,0-.94-.22-1.52-1-3-2-4.59-2.88C30,46,30,45.37,30.16,44.45c4.09,1.67,8,1.29,12.26.77C40.4,46.69,38.39,48.17,36.36,49.63Zm-.15,6.92c-1.15.29-1.69-.31-1.75-1.39a2,2,0,0,1,1.64-2.09c.83-.08,1.63.89,1.7,1.94S37.52,56.83,36.21,56.55ZM31,9.72a12.18,12.18,0,0,1,14.23,2.43,11.73,11.73,0,0,1,3.41,9c0,.77,0,1.39,0,2,.07,1.23-1,1.36-1.74,1.82-.89.61-1-.45-1.28-.85a4.53,4.53,0,0,0-7.58.42c-1.13,1.8-2.6,1.81-3.84,0a4.23,4.23,0,0,0-6.82-.46c-.35.38-.42,1.45-1.3.88-.7-.45-1.67-.6-1.84-1.77A13.12,13.12,0,0,1,31,9.72ZM26.47,35.79c-1.87-3-2.34-5.07-2-9.08A4.22,4.22,0,0,1,27,28.83c1.65,2.92,5.27,3,7.23.21,1.14-1.59,2.78-1.59,3.82,0,2.08,3.2,6.18,3.13,8-.22A4.8,4.8,0,0,1,48.4,26.7C49.25,31,48.53,32.75,45,35c-.82.53-1.64,1.05-2.45,1.59-1.26.8-2.35,1.55-3.78,0-.93-1-2.38-.66-3.34.4a2.52,2.52,0,0,0-.13,3.45c.88,1.16,2.32,1.55,3.31.65,1.91-1.71,4.67-1.65,6.69-3.25a32.35,32.35,0,0,1-2.61,3.77c-2.91,3.19-10.78,2.52-13.18-1.08C28.46,39,27.46,37.38,26.47,35.79ZM31.06,53.5c-1.59-1.54-3.24-3-4.92-4.56,1.76-1.17,3.09-1.33,4.43-.09A11.23,11.23,0,0,0,32.31,50c2.42,1.55,2.39,1.52.25,3.48C32,54,31.66,54.09,31.06,53.5Zm6.8,18.92a13.29,13.29,0,0,0-1.67,0c-3.72,0-3.73,0-3.09-3.75.46-2.74.93-5.49,1.4-8.23.17-1,.28-1.81,1.72-1.77s1.4.73,1.55,1.69c.55,3.37,1,6.75,1.8,10.07C40,72.19,39.5,72.65,37.86,72.42Zm18.92,0c-4.53,0-9.06,0-13.59,0-.85,0-1.19-.24-1.34-1.13-.71-4.33-1.54-8.64-2.27-13-.18-1-.29-2.05,1.35-2.16,1.35-.1,2-1.43,2.89-2.28,1.26-1.19,2.45-2.47,3.7-3.69.32-.32.57-.92,1.16-.65s.33.86.33,1.31c0,5,0,9.91,0,14.86,0,3.75,1.41,5.15,5.19,5.17h4.38C58.46,72.28,57.68,72.41,56.78,72.41Zm22.67-6.73c0,2.56-.5,3-3.07,3H65.31c-3.76,0-7.52,0-11.28,0-2.35,0-2.86-.5-2.87-2.78,0-5.29,0-10.59,0-15.88,0-1.29.32-1.62,1.62-1.61q12.52.09,25.06,0c1.47,0,1.7.51,1.68,1.79C79.42,55.38,79.47,60.53,79.45,65.68Zm-43-31.56c1.12.05,1.24-.89,1.2-2.23,0-.39.07-1.41-1.12-1.4s-1,1.07-1.07,1.87S35.44,34.08,36.42,34.12Zm1.2-2.23c0-.39.07-1.41-1.12-1.4s-1,1.07-1.07,1.87,0,1.72,1,1.76S37.66,33.23,37.62,31.89Zm0,0c0-.39.07-1.41-1.12-1.4s-1,1.07-1.07,1.87,0,1.72,1,1.76S37.66,33.23,37.62,31.89Z" transform="translate(0.04 0)"></path><path class="cls-2" d="M37.62,31.89c0-.39.07-1.41-1.12-1.4s-1,1.07-1.07,1.87,0,1.72,1,1.76S37.66,33.23,37.62,31.89Zm0,0c0-.39.07-1.41-1.12-1.4s-1,1.07-1.07,1.87,0,1.72,1,1.76S37.66,33.23,37.62,31.89Zm38.23,7.83c-1,0-2,.14-1.76-1.43A1,1,0,0,0,73,37.07a.93.93,0,0,0-1,1.11c.27,1.67-.79,1.58-1.89,1.53-.76,0-1.53,0-2.3,0-.94.06-1.67,0-1.52-1.27.08-.66-.1-1.32-.94-1.35s-1.25.63-1.15,1.38c.15,1.31-.62,1.29-1.51,1.24-.56,0-1.12,0-1.68,0-1.22,0-2.8.49-2.48-1.78.08-.5-.45-.86-1-.85s-1,.22-.93.66c.21,2.54-1.58,2-3,2q-4.56.07-4.63,4.68c0,.9,0,1.81,0,2.94-1.16-.38-2-.64-2.87-.93-1.69-.58-2.58-2-1.58-3.42,2.39-3.37,3.76-7.46,7.19-10.11,2.37-1.84,2.72-5.26.54-7.12A4,4,0,0,1,50.8,22a20.58,20.58,0,0,0,0-2.72A14.31,14.31,0,0,0,22.21,21c0,1.52,0,2.78-1.49,4-2.29,1.86-1.73,5.48.74,7.22.45.32,1.14.54,1.31,1,1.21,3.08,3.35,5.62,4.86,8.51,1.14,2.19.2,4.12-2.08,4.89-1.91.64-3.85,1.2-5.73,1.92-5,1.87-7.88,5.5-8.27,10.78-.29,3.88-.14,7.81-.06,11.71a3.37,3.37,0,0,0,3.61,3.52c14,0,28,0,42.07,0a3.18,3.18,0,0,0,3.36-2.3c.35-1.29,1-1.35,2.08-1.34,4.6,0,9.21,0,13.81,0,3.7,0,5.17-1.5,5.18-5.23q0-10,0-20.09C81.6,40.92,80.47,39.75,75.85,39.72Zm-29.7,9.19C45,49.94,44,50.77,43,51.69c-2.64,2.61-2.63,2.63-5.22-.48C40.44,50.09,41.93,46.15,46.15,48.91Zm-9.79.72c-.34.24-.65,0-.94-.22-1.52-1-3-2-4.59-2.88C30,46,30,45.37,30.16,44.45c4.09,1.67,8,1.29,12.26.77C40.4,46.69,38.39,48.17,36.36,49.63Zm-.15,6.92c-1.15.29-1.69-.31-1.75-1.39a2,2,0,0,1,1.64-2.09c.83-.08,1.63.89,1.7,1.94S37.52,56.83,36.21,56.55ZM31,9.72a12.18,12.18,0,0,1,14.23,2.43,11.73,11.73,0,0,1,3.41,9c0,.77,0,1.39,0,2,.07,1.23-1,1.36-1.74,1.82-.89.61-1-.45-1.28-.85a4.53,4.53,0,0,0-7.58.42c-1.13,1.8-2.6,1.81-3.84,0a4.23,4.23,0,0,0-6.82-.46c-.35.38-.42,1.45-1.3.88-.7-.45-1.67-.6-1.84-1.77A13.12,13.12,0,0,1,31,9.72ZM26.47,35.79c-1.87-3-2.34-5.07-2-9.08A4.22,4.22,0,0,1,27,28.83c1.65,2.92,5.27,3,7.23.21,1.14-1.59,2.78-1.59,3.82,0,2.08,3.2,6.18,3.13,8-.22A4.8,4.8,0,0,1,48.4,26.7C49.25,31,48.53,32.75,45,35c-.82.53-1.64,1.05-2.45,1.59-1.26.8-2.35,1.55-3.78,0-.93-1-2.38-.66-3.34.4a2.52,2.52,0,0,0-.13,3.45c.88,1.16,2.32,1.55,3.31.65,1.91-1.71,4.67-1.65,6.69-3.25a32.35,32.35,0,0,1-2.61,3.77c-2.91,3.19-10.78,2.52-13.18-1.08C28.46,39,27.46,37.38,26.47,35.79ZM31.06,53.5c-1.59-1.54-3.24-3-4.92-4.56,1.76-1.17,3.09-1.33,4.43-.09A11.23,11.23,0,0,0,32.31,50c2.42,1.55,2.39,1.52.25,3.48C32,54,31.66,54.09,31.06,53.5Zm6.8,18.92a13.29,13.29,0,0,0-1.67,0c-3.72,0-3.73,0-3.09-3.75.46-2.74.93-5.49,1.4-8.23.17-1,.28-1.81,1.72-1.77s1.4.73,1.55,1.69c.55,3.37,1,6.75,1.8,10.07C40,72.19,39.5,72.65,37.86,72.42Zm18.92,0c-4.53,0-9.06,0-13.59,0-.85,0-1.19-.24-1.34-1.13-.71-4.33-1.54-8.64-2.27-13-.18-1-.29-2.05,1.35-2.16,1.35-.1,2-1.43,2.89-2.28,1.26-1.19,2.45-2.47,3.7-3.69.32-.32.57-.92,1.16-.65s.33.86.33,1.31c0,5,0,9.91,0,14.86,0,3.75,1.41,5.15,5.19,5.17h4.38C58.46,72.28,57.68,72.41,56.78,72.41Zm22.67-6.73c0,2.56-.5,3-3.07,3H65.31c-3.76,0-7.52,0-11.28,0-2.35,0-2.86-.5-2.87-2.78,0-5.29,0-10.59,0-15.88,0-1.29.32-1.62,1.62-1.61q12.52.09,25.06,0c1.47,0,1.7.51,1.68,1.79C79.42,55.38,79.47,60.53,79.45,65.68Zm-43-31.56c1.12.05,1.24-.89,1.2-2.23,0-.39.07-1.41-1.12-1.4s-1,1.07-1.07,1.87S35.44,34.08,36.42,34.12Zm1.2-2.23c0-.39.07-1.41-1.12-1.4s-1,1.07-1.07,1.87,0,1.72,1,1.76S37.66,33.23,37.62,31.89Zm0,0c0-.39.07-1.41-1.12-1.4s-1,1.07-1.07,1.87,0,1.72,1,1.76S37.66,33.23,37.62,31.89Z" transform="translate(0.04 0)"></path><path class="cls-2" d="M36.42,34.12c-1,0-1-1-1-1.76s-.16-1.87,1.07-1.87,1.09,1,1.12,1.4C37.66,33.23,37.54,34.17,36.42,34.12Z" transform="translate(0.04 0)"></path><path class="cls-2" d="M36.42,34.12c-1,0-1-1-1-1.76s-.16-1.87,1.07-1.87,1.09,1,1.12,1.4C37.66,33.23,37.54,34.17,36.42,34.12Z" transform="translate(0.04 0)"></path><path class="cls-2" d="M69.46,56a1.49,1.49,0,0,1-.54.91c-1.38,1.37-2.77,2.72-4.11,4.13-.61.64-1.11.77-1.74,0S61.94,60,61.38,59.39c-.24-.25-.38-.57-.06-.87a.6.6,0,0,1,.88,0l.1.1c.6.47,1,1.54,1.78,1.33.63-.17,1.09-1,1.63-1.53.87-.87,1.74-1.73,2.6-2.61a.68.68,0,0,1,.88-.2C69.33,55.74,69.4,56,69.46,56Z" transform="translate(0.04 0)"></path><path class="cls-2" d="M72.76,53.65a1.3,1.3,0,0,0-1.21-1.33,10.45,10.45,0,0,1-5.31-2.56,1.21,1.21,0,0,0-1.87,0,10.85,10.85,0,0,1-5.43,2.63,1.18,1.18,0,0,0-1.1,1.1c-.88,5.63.86,11,6.17,14a2.23,2.23,0,0,0,2.51,0C70.84,65,72.9,61.16,73,55.87,72.93,55.35,72.84,54.5,72.76,53.65ZM66.34,66.26a1.68,1.68,0,0,1-2.06,0,12,12,0,0,1-5.45-11.87,1.11,1.11,0,0,1,1-1.11A11.06,11.06,0,0,0,64.69,51c.44-.36.68-.44,1.17,0a10.85,10.85,0,0,0,5,2.39,1,1,0,0,1,.92,1c0,.62.08,1.24.12,1.83A11.43,11.43,0,0,1,66.34,66.26Z" transform="translate(0.04 0)"></path><path class="cls-2" d="M69.46,56a1.49,1.49,0,0,1-.54.91c-1.38,1.37-2.77,2.72-4.11,4.13-.61.64-1.11.77-1.74,0S61.94,60,61.38,59.39c-.24-.25-.38-.57-.06-.87a.6.6,0,0,1,.88,0l.1.1c.6.47,1,1.54,1.78,1.33.63-.17,1.09-1,1.63-1.53.87-.87,1.74-1.73,2.6-2.61a.68.68,0,0,1,.88-.2C69.33,55.74,69.4,56,69.46,56Z" transform="translate(0.04 0)"></path><path class="cls-2" d="M72.76,53.65a1.3,1.3,0,0,0-1.21-1.33,10.45,10.45,0,0,1-5.31-2.56,1.21,1.21,0,0,0-1.87,0,10.85,10.85,0,0,1-5.43,2.63,1.18,1.18,0,0,0-1.1,1.1c-.88,5.63.86,11,6.17,14a2.23,2.23,0,0,0,2.51,0C70.84,65,72.9,61.16,73,55.87,72.93,55.35,72.84,54.5,72.76,53.65ZM66.34,66.26a1.68,1.68,0,0,1-2.06,0,12,12,0,0,1-5.45-11.87,1.11,1.11,0,0,1,1-1.11A11.06,11.06,0,0,0,64.69,51c.44-.36.68-.44,1.17,0a10.85,10.85,0,0,0,5,2.39,1,1,0,0,1,.92,1c0,.62.08,1.24.12,1.83A11.43,11.43,0,0,1,66.34,66.26Z" transform="translate(0.04 0)"></path><path class="cls-2" d="M69.46,56a1.49,1.49,0,0,1-.54.91c-1.38,1.37-2.77,2.72-4.11,4.13-.61.64-1.11.77-1.74,0S61.94,60,61.38,59.39c-.24-.25-.38-.57-.06-.87a.6.6,0,0,1,.88,0l.1.1c.6.47,1,1.54,1.78,1.33.63-.17,1.09-1,1.63-1.53.87-.87,1.74-1.73,2.6-2.61a.68.68,0,0,1,.88-.2C69.33,55.74,69.4,56,69.46,56Z" transform="translate(0.04 0)"></path><path class="cls-2" d="M72.76,53.65a1.3,1.3,0,0,0-1.21-1.33,10.45,10.45,0,0,1-5.31-2.56,1.21,1.21,0,0,0-1.87,0,10.85,10.85,0,0,1-5.43,2.63,1.18,1.18,0,0,0-1.1,1.1c-.88,5.63.86,11,6.17,14a2.23,2.23,0,0,0,2.51,0C70.84,65,72.9,61.16,73,55.87,72.93,55.35,72.84,54.5,72.76,53.65ZM66.34,66.26a1.68,1.68,0,0,1-2.06,0,12,12,0,0,1-5.45-11.87,1.11,1.11,0,0,1,1-1.11A11.06,11.06,0,0,0,64.69,51c.44-.36.68-.44,1.17,0a10.85,10.85,0,0,0,5,2.39,1,1,0,0,1,.92,1c0,.62.08,1.24.12,1.83A11.43,11.43,0,0,1,66.34,66.26Z" transform="translate(0.04 0)"></path><path class="cls-2" d="M69.46,56a1.49,1.49,0,0,1-.54.91c-1.38,1.37-2.77,2.72-4.11,4.13-.61.64-1.11.77-1.74,0S61.94,60,61.38,59.39c-.24-.25-.38-.57-.06-.87a.6.6,0,0,1,.88,0l.1.1c.6.47,1,1.54,1.78,1.33.63-.17,1.09-1,1.63-1.53.87-.87,1.74-1.73,2.6-2.61a.68.68,0,0,1,.88-.2C69.33,55.74,69.4,56,69.46,56Z" transform="translate(0.04 0)"></path><path class="cls-2" d="M72.76,53.65a1.3,1.3,0,0,0-1.21-1.33,10.45,10.45,0,0,1-5.31-2.56,1.21,1.21,0,0,0-1.87,0,10.85,10.85,0,0,1-5.43,2.63,1.18,1.18,0,0,0-1.1,1.1c-.88,5.63.86,11,6.17,14a2.23,2.23,0,0,0,2.51,0C70.84,65,72.9,61.16,73,55.87,72.93,55.35,72.84,54.5,72.76,53.65ZM66.34,66.26a1.68,1.68,0,0,1-2.06,0,12,12,0,0,1-5.45-11.87,1.11,1.11,0,0,1,1-1.11A11.06,11.06,0,0,0,64.69,51c.44-.36.68-.44,1.17,0a10.85,10.85,0,0,0,5,2.39,1,1,0,0,1,.92,1c0,.62.08,1.24.12,1.83A11.43,11.43,0,0,1,66.34,66.26Z" transform="translate(0.04 0)"></path><path class="cls-2" d="M69.46,56a1.49,1.49,0,0,1-.54.91c-1.38,1.37-2.77,2.72-4.11,4.13-.61.64-1.11.77-1.74,0S61.94,60,61.38,59.39c-.24-.25-.38-.57-.06-.87a.6.6,0,0,1,.88,0l.1.1c.6.47,1,1.54,1.78,1.33.63-.17,1.09-1,1.63-1.53.87-.87,1.74-1.73,2.6-2.61a.68.68,0,0,1,.88-.2C69.33,55.74,69.4,56,69.46,56Z" transform="translate(0.04 0)"></path><path class="cls-2" d="M69.46,56a1.49,1.49,0,0,1-.54.91c-1.38,1.37-2.77,2.72-4.11,4.13-.61.64-1.11.77-1.74,0S61.94,60,61.38,59.39c-.24-.25-.38-.57-.06-.87a.6.6,0,0,1,.88,0l.1.1c.6.47,1,1.54,1.78,1.33.63-.17,1.09-1,1.63-1.53.87-.87,1.74-1.73,2.6-2.61a.68.68,0,0,1,.88-.2C69.33,55.74,69.4,56,69.46,56Z" transform="translate(0.04 0)"></path></svg>