<svg xmlns="http://www.w3.org/2000/svg" id="Layer_1" data-name="Layer 1" viewBox="0 0 91 91"><defs><style>.cls-1{fill:#fff;}.cls-2{fill:#083264;}</style></defs><circle class="cls-1" cx="45.5" cy="45.5" r="45.5"></circle><path class="cls-2" d="M47.24,42.92c0-.75,0-1.51,0-2.26,0-.16,0-.21-.2-.21-.45,0-.91,0-1.37,0-.19,0-.23.07-.23.25q0,2.2,0,4.41c0,.16,0,.23.21.23.46,0,.93,0,1.39,0,.17,0,.2-.06.2-.21C47.23,44.39,47.24,43.66,47.24,42.92Zm0,3.31c0-.13,0-.18-.17-.17h-1c-.65,0-.65,0-.64.65,0,.28-.1.65,0,.81s.54,0,.78,0h.8c.13,0,.17,0,.17-.18Q47.22,46.82,47.24,46.23Zm0,0c0-.13,0-.18-.17-.17h-1c-.65,0-.65,0-.64.65,0,.28-.1.65,0,.81s.54,0,.78,0h.8c.13,0,.17,0,.17-.18Q47.22,46.82,47.24,46.23Zm0-3.31c0-.75,0-1.51,0-2.26,0-.16,0-.21-.2-.21-.45,0-.91,0-1.37,0-.19,0-.23.07-.23.25q0,2.2,0,4.41c0,.16,0,.23.21.23.46,0,.93,0,1.39,0,.17,0,.2-.06.2-.21C47.23,44.39,47.24,43.66,47.24,42.92Zm0,0c0-.75,0-1.51,0-2.26,0-.16,0-.21-.2-.21-.45,0-.91,0-1.37,0-.19,0-.23.07-.23.25q0,2.2,0,4.41c0,.16,0,.23.21.23.46,0,.93,0,1.39,0,.17,0,.2-.06.2-.21C47.23,44.39,47.24,43.66,47.24,42.92Zm0,3.31c0-.13,0-.18-.17-.17h-1c-.65,0-.65,0-.64.65,0,.28-.1.65,0,.81s.54,0,.78,0h.8c.13,0,.17,0,.17-.18Q47.22,46.82,47.24,46.23Zm0,0c0-.13,0-.18-.17-.17h-1c-.65,0-.65,0-.64.65,0,.28-.1.65,0,.81s.54,0,.78,0h.8c.13,0,.17,0,.17-.18Q47.22,46.82,47.24,46.23Zm0-3.31c0-.75,0-1.51,0-2.26,0-.16,0-.21-.2-.21-.45,0-.91,0-1.37,0-.19,0-.23.07-.23.25q0,2.2,0,4.41c0,.16,0,.23.21.23.46,0,.93,0,1.39,0,.17,0,.2-.06.2-.21C47.23,44.39,47.24,43.66,47.24,42.92Zm0,0c0-.75,0-1.51,0-2.26,0-.16,0-.21-.2-.21-.45,0-.91,0-1.37,0-.19,0-.23.07-.23.25q0,2.2,0,4.41c0,.16,0,.23.21.23.46,0,.93,0,1.39,0,.17,0,.2-.06.2-.21C47.23,44.39,47.24,43.66,47.24,42.92Zm0,3.31c0-.13,0-.18-.17-.17h-1c-.65,0-.65,0-.64.65,0,.28-.1.65,0,.81s.54,0,.78,0h.8c.13,0,.17,0,.17-.18Q47.22,46.82,47.24,46.23Zm0,0c0-.13,0-.18-.17-.17h-1c-.65,0-.65,0-.64.65,0,.28-.1.65,0,.81s.54,0,.78,0h.8c.13,0,.17,0,.17-.18Q47.22,46.82,47.24,46.23Zm0-3.31c0-.75,0-1.51,0-2.26,0-.16,0-.21-.2-.21-.45,0-.91,0-1.37,0-.19,0-.23.07-.23.25q0,2.2,0,4.41c0,.16,0,.23.21.23.46,0,.93,0,1.39,0,.17,0,.2-.06.2-.21C47.23,44.39,47.24,43.66,47.24,42.92Zm0,0c0-.75,0-1.51,0-2.26,0-.16,0-.21-.2-.21-.45,0-.91,0-1.37,0-.19,0-.23.07-.23.25q0,2.2,0,4.41c0,.16,0,.23.21.23.46,0,.93,0,1.39,0,.17,0,.2-.06.2-.21C47.23,44.39,47.24,43.66,47.24,42.92Zm0,3.31c0-.13,0-.18-.17-.17h-1c-.65,0-.65,0-.64.65,0,.28-.1.65,0,.81s.54,0,.78,0h.8c.13,0,.17,0,.17-.18Q47.22,46.82,47.24,46.23Zm0,0c0-.13,0-.18-.17-.17h-1c-.65,0-.65,0-.64.65,0,.28-.1.65,0,.81s.54,0,.78,0h.8c.13,0,.17,0,.17-.18Q47.22,46.82,47.24,46.23Zm0-3.31c0-.75,0-1.51,0-2.26,0-.16,0-.21-.2-.21-.45,0-.91,0-1.37,0-.19,0-.23.07-.23.25q0,2.2,0,4.41c0,.16,0,.23.21.23.46,0,.93,0,1.39,0,.17,0,.2-.06.2-.21C47.23,44.39,47.24,43.66,47.24,42.92Zm0,0c0-.75,0-1.51,0-2.26,0-.16,0-.21-.2-.21-.45,0-.91,0-1.37,0-.19,0-.23.07-.23.25q0,2.2,0,4.41c0,.16,0,.23.21.23.46,0,.93,0,1.39,0,.17,0,.2-.06.2-.21C47.23,44.39,47.24,43.66,47.24,42.92Zm0,3.31c0-.13,0-.18-.17-.17h-1c-.65,0-.65,0-.64.65,0,.28-.1.65,0,.81s.54,0,.78,0h.8c.13,0,.17,0,.17-.18Q47.22,46.82,47.24,46.23Zm-.17-.17h-1c-.65,0-.65,0-.64.65,0,.28-.1.65,0,.81s.54,0,.78,0h.8c.13,0,.17,0,.17-.18q0-.59,0-1.17C47.24,46.1,47.21,46.05,47.07,46.06Zm.17-3.14c0-.75,0-1.51,0-2.26,0-.16,0-.21-.2-.21-.45,0-.91,0-1.37,0-.19,0-.23.07-.23.25q0,2.2,0,4.41c0,.16,0,.23.21.23.46,0,.93,0,1.39,0,.17,0,.2-.06.2-.21C47.23,44.39,47.24,43.66,47.24,42.92Zm-.3-9.79A11.43,11.43,0,0,0,35,44.58,11.41,11.41,0,0,0,46.14,55.91a11.4,11.4,0,0,0,.8-22.78Zm7,17.27a9.2,9.2,0,0,1-3.63,2.85A10,10,0,0,1,48,54a10.44,10.44,0,0,1-2.43.09,8.82,8.82,0,0,1-2.67-.63A9.74,9.74,0,0,1,40.38,52a8.59,8.59,0,0,1-1.91-2.12,1.39,1.39,0,0,0,1,.22H53.34a1.23,1.23,0,0,0,1-.39A1.58,1.58,0,0,1,53.94,50.4ZM40.66,48.28c1.89-3.29,3.79-6.57,5.7-9.88l5.7,9.88ZM55.31,48a9.71,9.71,0,0,1-.79,1.58c0,.05,0,.12-.12.11a1.09,1.09,0,0,0-.06-1.09c-.61-1-1.22-2.07-1.82-3.11s-1-1.81-1.54-2.71l-1.8-3.09L47.62,37c-.15-.27-.3-.54-.46-.8a.9.9,0,0,0-1.59,0c-.53.87-1,1.75-1.53,2.62S43,40.61,42.45,41.53s-.93,1.64-1.4,2.45L39.1,47.34c-.24.43-.5.86-.74,1.3-.13.25-.31.5-.14.82a8.77,8.77,0,0,1-1.12-2.57,9.54,9.54,0,0,1,.52-6.25,9.61,9.61,0,0,1,9.05-5.72,9.66,9.66,0,0,1,3.43.76A9.32,9.32,0,0,1,53.41,38a9.45,9.45,0,0,1,2.29,4.31A9.57,9.57,0,0,1,56,44.85,9.69,9.69,0,0,1,55.31,48Zm-8.24-1.94h-1c-.65,0-.65,0-.64.65,0,.28-.1.65,0,.81s.54,0,.78,0h.8c.13,0,.17,0,.17-.18q0-.59,0-1.17C47.24,46.1,47.21,46.05,47.07,46.06Zm.17-3.14c0-.75,0-1.51,0-2.26,0-.16,0-.21-.2-.21-.45,0-.91,0-1.37,0-.19,0-.23.07-.23.25q0,2.2,0,4.41c0,.16,0,.23.21.23.46,0,.93,0,1.39,0,.17,0,.2-.06.2-.21C47.23,44.39,47.24,43.66,47.24,42.92Zm0,0c0-.75,0-1.51,0-2.26,0-.16,0-.21-.2-.21-.45,0-.91,0-1.37,0-.19,0-.23.07-.23.25q0,2.2,0,4.41c0,.16,0,.23.21.23.46,0,.93,0,1.39,0,.17,0,.2-.06.2-.21C47.23,44.39,47.24,43.66,47.24,42.92Zm0,3.31c0-.13,0-.18-.17-.17h-1c-.65,0-.65,0-.64.65,0,.28-.1.65,0,.81s.54,0,.78,0h.8c.13,0,.17,0,.17-.18Q47.22,46.82,47.24,46.23Zm0,0c0-.13,0-.18-.17-.17h-1c-.65,0-.65,0-.64.65,0,.28-.1.65,0,.81s.54,0,.78,0h.8c.13,0,.17,0,.17-.18Q47.22,46.82,47.24,46.23Zm0-3.31c0-.75,0-1.51,0-2.26,0-.16,0-.21-.2-.21-.45,0-.91,0-1.37,0-.19,0-.23.07-.23.25q0,2.2,0,4.41c0,.16,0,.23.21.23.46,0,.93,0,1.39,0,.17,0,.2-.06.2-.21C47.23,44.39,47.24,43.66,47.24,42.92Zm0,0c0-.75,0-1.51,0-2.26,0-.16,0-.21-.2-.21-.45,0-.91,0-1.37,0-.19,0-.23.07-.23.25q0,2.2,0,4.41c0,.16,0,.23.21.23.46,0,.93,0,1.39,0,.17,0,.2-.06.2-.21C47.23,44.39,47.24,43.66,47.24,42.92Zm0,3.31c0-.13,0-.18-.17-.17h-1c-.65,0-.65,0-.64.65,0,.28-.1.65,0,.81s.54,0,.78,0h.8c.13,0,.17,0,.17-.18Q47.22,46.82,47.24,46.23Zm0,0c0-.13,0-.18-.17-.17h-1c-.65,0-.65,0-.64.65,0,.28-.1.65,0,.81s.54,0,.78,0h.8c.13,0,.17,0,.17-.18Q47.22,46.82,47.24,46.23Zm0-3.31c0-.75,0-1.51,0-2.26,0-.16,0-.21-.2-.21-.45,0-.91,0-1.37,0-.19,0-.23.07-.23.25q0,2.2,0,4.41c0,.16,0,.23.21.23.46,0,.93,0,1.39,0,.17,0,.2-.06.2-.21C47.23,44.39,47.24,43.66,47.24,42.92Zm0,0c0-.75,0-1.51,0-2.26,0-.16,0-.21-.2-.21-.45,0-.91,0-1.37,0-.19,0-.23.07-.23.25q0,2.2,0,4.41c0,.16,0,.23.21.23.46,0,.93,0,1.39,0,.17,0,.2-.06.2-.21C47.23,44.39,47.24,43.66,47.24,42.92Zm0,3.31c0-.13,0-.18-.17-.17h-1c-.65,0-.65,0-.64.65,0,.28-.1.65,0,.81s.54,0,.78,0h.8c.13,0,.17,0,.17-.18Q47.22,46.82,47.24,46.23Zm0,0c0-.13,0-.18-.17-.17h-1c-.65,0-.65,0-.64.65,0,.28-.1.65,0,.81s.54,0,.78,0h.8c.13,0,.17,0,.17-.18Q47.22,46.82,47.24,46.23Zm0-3.31c0-.75,0-1.51,0-2.26,0-.16,0-.21-.2-.21-.45,0-.91,0-1.37,0-.19,0-.23.07-.23.25q0,2.2,0,4.41c0,.16,0,.23.21.23.46,0,.93,0,1.39,0,.17,0,.2-.06.2-.21C47.23,44.39,47.24,43.66,47.24,42.92Zm0,0c0-.75,0-1.51,0-2.26,0-.16,0-.21-.2-.21-.45,0-.91,0-1.37,0-.19,0-.23.07-.23.25q0,2.2,0,4.41c0,.16,0,.23.21.23.46,0,.93,0,1.39,0,.17,0,.2-.06.2-.21C47.23,44.39,47.24,43.66,47.24,42.92Zm0,3.31c0-.13,0-.18-.17-.17h-1c-.65,0-.65,0-.64.65,0,.28-.1.65,0,.81s.54,0,.78,0h.8c.13,0,.17,0,.17-.18Q47.22,46.82,47.24,46.23Zm0,0c0-.13,0-.18-.17-.17h-1c-.65,0-.65,0-.64.65,0,.28-.1.65,0,.81s.54,0,.78,0h.8c.13,0,.17,0,.17-.18Q47.22,46.82,47.24,46.23Zm0-3.31c0-.75,0-1.51,0-2.26,0-.16,0-.21-.2-.21-.45,0-.91,0-1.37,0-.19,0-.23.07-.23.25q0,2.2,0,4.41c0,.16,0,.23.21.23.46,0,.93,0,1.39,0,.17,0,.2-.06.2-.21C47.23,44.39,47.24,43.66,47.24,42.92Zm0,0c0-.75,0-1.51,0-2.26,0-.16,0-.21-.2-.21-.45,0-.91,0-1.37,0-.19,0-.23.07-.23.25q0,2.2,0,4.41c0,.16,0,.23.21.23.46,0,.93,0,1.39,0,.17,0,.2-.06.2-.21C47.23,44.39,47.24,43.66,47.24,42.92Zm0,3.31c0-.13,0-.18-.17-.17h-1c-.65,0-.65,0-.64.65,0,.28-.1.65,0,.81s.54,0,.78,0h.8c.13,0,.17,0,.17-.18Q47.22,46.82,47.24,46.23Zm0,0c0-.13,0-.18-.17-.17h-1c-.65,0-.65,0-.64.65,0,.28-.1.65,0,.81s.54,0,.78,0h.8c.13,0,.17,0,.17-.18Q47.22,46.82,47.24,46.23Zm0-3.31c0-.75,0-1.51,0-2.26,0-.16,0-.21-.2-.21-.45,0-.91,0-1.37,0-.19,0-.23.07-.23.25q0,2.2,0,4.41c0,.16,0,.23.21.23.46,0,.93,0,1.39,0,.17,0,.2-.06.2-.21C47.23,44.39,47.24,43.66,47.24,42.92Z" transform="translate(0 0)"></path><path class="cls-2" d="M64.78,44.06c0-.64-.09-1.27-.13-1.91a1.17,1.17,0,0,0-.89-1.24l-.57-.17-2.85-.94c-.08,0-.14,0-.17-.15a10.74,10.74,0,0,0-.78-1.81c0-.07-.07-.13,0-.22s.22-.48.33-.71L61,34.27a.88.88,0,0,0,0-1c-.4-.53-.83-1-1.28-1.52a24.25,24.25,0,0,0-2.14-1.92,1.19,1.19,0,0,0-1.49-.16C55,30.26,54,30.77,53,31.3c-.08,0-.14.08-.24,0a10.21,10.21,0,0,0-1.85-.74.26.26,0,0,1-.17-.18c-.36-1-.73-2.05-1.1-3.08-.17-.46-.28-1-.86-1.09a7.74,7.74,0,0,0-1.18-.12,22.52,22.52,0,0,0-3.85.17,1,1,0,0,0-.84.68c-.38,1.18-.78,2.36-1.16,3.54a.34.34,0,0,1-.22.23,10.43,10.43,0,0,0-1.71.75.36.36,0,0,1-.36,0l-3.27-1.56a.8.8,0,0,0-.5-.11.71.71,0,0,0-.58.18,19.43,19.43,0,0,0-1.92,1.7,16.11,16.11,0,0,0-1.42,1.56.9.9,0,0,0-.15,1.07c.58,1.08,1.17,2.16,1.77,3.23,0,.08.08.13,0,.22A12.07,12.07,0,0,0,32.49,40a.46.46,0,0,1-.34.32l-3.32,1.06a.91.91,0,0,0-.69.67,12.79,12.79,0,0,0-.22,1.85,16,16,0,0,0,.28,3.38.83.83,0,0,0,.6.71l3.42,1.12a.6.6,0,0,1,.46.45,9,9,0,0,0,.65,1.49.45.45,0,0,1,0,.45c-.53,1.09-1,2.19-1.56,3.28a.91.91,0,0,0,.08,1,16.72,16.72,0,0,0,1.22,1.43,18.49,18.49,0,0,0,2.08,1.87,1.14,1.14,0,0,0,1.54.21c1-.54,2.06-1,3.08-1.58a.34.34,0,0,1,.35,0,11.56,11.56,0,0,0,1.8.7.2.2,0,0,1,.16.13c.4,1.16.82,2.31,1.22,3.47a.94.94,0,0,0,.76.72,10.46,10.46,0,0,0,1.47.15A19.78,19.78,0,0,0,49,62.75a1.09,1.09,0,0,0,1-.82c.35-1.13.71-2.26,1.07-3.39a.38.38,0,0,1,.26-.26A9.41,9.41,0,0,0,53,57.55a.43.43,0,0,1,.41,0l3.3,1.57a.92.92,0,0,0,1,0,11.58,11.58,0,0,0,1.14-1c.39-.37.76-.76,1.14-1.14a14.81,14.81,0,0,0,1.25-1.48,1,1,0,0,0,.08-1.17c-.55-1-1.08-2.12-1.62-3.19a.39.39,0,0,1,0-.38,10,10,0,0,0,.67-1.67.37.37,0,0,1,.27-.29c1.15-.4,2.29-.82,3.43-1.23a.93.93,0,0,0,.66-.67,4.69,4.69,0,0,0,.12-1.12C64.75,45.21,64.8,44.64,64.78,44.06ZM63,45.48a3.75,3.75,0,0,0,0,.47c0,.11-.07.1-.14.12-1.12.4-2.24.83-3.37,1.21a1,1,0,0,0-.69.73,9.39,9.39,0,0,1-.86,2.21,1.43,1.43,0,0,0,0,1.55c.52.95,1,1.93,1.49,2.9,0,0,.08.08,0,.16a14.71,14.71,0,0,1-1.66,1.78c-.22.18-.4.39-.62.57a.2.2,0,0,1-.26,0l-3.28-1.55a.94.94,0,0,0-.89,0,13.22,13.22,0,0,1-2.48,1.06,1,1,0,0,0-.67.68c-.36,1.13-.75,2.24-1.11,3.37,0,.12-.09.2-.21.21a16.88,16.88,0,0,1-2.36.11c-.25,0-.51,0-.77,0a.24.24,0,0,1-.27-.2c-.38-1.1-.77-2.19-1.16-3.28a1.09,1.09,0,0,0-.79-.75,12.64,12.64,0,0,1-2.51-1,.82.82,0,0,0-.79,0l-3.24,1.63c-.14.07-.24.08-.34,0A24.48,24.48,0,0,1,34,55.59a.73.73,0,0,1-.15-1c.45-.87.82-1.79,1.27-2.66a1.19,1.19,0,0,0,0-1.28,11.3,11.3,0,0,1-1-2.35,1,1,0,0,0-.68-.65c-1.12-.37-2.24-.73-3.37-1.07-.32-.1-.24-.38-.26-.57a11.92,11.92,0,0,1-.12-1.8c0-.37.07-.75.11-1.12,0-.14.12-.13.21-.16l3.27-1.06a1.09,1.09,0,0,0,.73-.73A16,16,0,0,1,35,38.6a3.09,3.09,0,0,0,.36-.64c0-.08,0-.16,0-.25a2.35,2.35,0,0,0-.47-1.07c-.42-.83-.89-1.64-1.35-2.44a.25.25,0,0,1,0-.35,19.37,19.37,0,0,1,1.7-1.69c.12-.12.26-.22.39-.34s.15,0,.23,0l2.05,1c.39.18.76.38,1.15.55a1.13,1.13,0,0,0,1.07,0,11.11,11.11,0,0,1,2.35-1,1,1,0,0,0,.73-.74c.37-1.13.75-2.26,1.11-3.4,0-.11.07-.12.16-.13A18,18,0,0,1,47,27.91a5.79,5.79,0,0,0,.83.06c.13,0,.13.1.16.18.4,1.11.78,2.24,1.19,3.35a1.06,1.06,0,0,0,.81.69,10.36,10.36,0,0,1,2.27.91,1.12,1.12,0,0,0,1.23,0c.8-.44,1.64-.83,2.46-1.24.18-.09.36-.17.54-.28a.28.28,0,0,1,.36.05A18.37,18.37,0,0,1,59,33.73a.27.27,0,0,1,.05.34c-.51,1-1,2.1-1.5,3.16a1.06,1.06,0,0,0,0,1.06,10.31,10.31,0,0,1,1,2.26,1.16,1.16,0,0,0,.86.87c1.11.33,2.2.7,3.3,1.06.24.07.16.31.17.44A18.25,18.25,0,0,1,63,45.48Z" transform="translate(0 0)"></path><path class="cls-2" d="M65.32,65.94a2.7,2.7,0,0,1-1.36,3c-1.38.78-2.78,1.52-4.17,2.28l-5.27,2.9q-2.15,1.16-4.27,2.33l-2.83,1.54-.3.16c0-.11.09-.13.16-.17l8.26-4.51c2.7-1.47,5.39-3,8.1-4.42a2.88,2.88,0,0,0,1.63-2.21,2.77,2.77,0,0,0-1.33-2.65,2.66,2.66,0,0,0-2.7,0c-1.66.89-3.31,1.81-5,2.71-1.3.71-2.6,1.43-3.91,2.13-.16.09-.31.17-.46.27a.8.8,0,0,0-.28,1.08.75.75,0,0,0,1.07.32c.69-.32,1.34-.7,2-1.06l4.41-2.42L62,65.57a1.12,1.12,0,0,1,1.34.17,1.14,1.14,0,0,1,.09,1.36,1.24,1.24,0,0,1-.45.37l-2.57,1.41c-1.28.69-2.54,1.39-3.81,2.09-1.52.82-3,1.66-4.54,2.48-1.68.9-3.34,1.83-5,2.74a.85.85,0,0,1-.54.1L41,75.52c-2.18-.3-4.36-.62-6.54-.91-1-.14-2-.3-3.08-.43a14.6,14.6,0,0,0-1.62,0H28.35c-.35,0-.4,0-.4-.41V65.61c0-.44,0-.47.48-.47,1,0,2.07,0,3.11,0a2.76,2.76,0,0,1,1,.23q2.63,1.08,5.27,2.11a1.86,1.86,0,0,0,.74.13h9.3a1,1,0,0,1,1,1.09,1,1,0,0,1-1,1H41.26a1.78,1.78,0,0,0-.56.06.81.81,0,0,0,0,1.57,1.48,1.48,0,0,0,.47.06c2.15,0,4.31,0,6.46,0A2.76,2.76,0,0,0,50.18,70a2.57,2.57,0,0,0,0-2.72A2.53,2.53,0,0,0,48,66c-3,0-6,0-9,0a2.2,2.2,0,0,1-.84-.16c-1.79-.73-3.59-1.44-5.38-2.16A1.94,1.94,0,0,0,32,63.5H28.43c-.44,0-.48,0-.48-.47V60.34c0-.72-.32-1-1.05-1H18a1.05,1.05,0,0,0-1.08.52.13.13,0,0,1-.14.08c.17-.29.33-.59.71-.65l.27,0h9.3a.93.93,0,0,1,1,1c0,1,0,2,0,3,0,.23.07.27.28.27,1.11,0,2.22,0,3.33,0a4,4,0,0,1,1.64.36l4.13,1.67.52.22a3.08,3.08,0,0,0,1.31.24q4.35,0,8.71,0a2.64,2.64,0,0,1,2.32,1.4,2.52,2.52,0,0,1,.38,1.32A2.67,2.67,0,0,1,50,70.4a2.87,2.87,0,0,1-1.62,1,3.19,3.19,0,0,1-.62.08c-2.26,0-4.52,0-6.78,0a.91.91,0,0,1-.94-.61.94.94,0,0,1,1-1.24c2.26,0,4.52,0,6.78,0a1,1,0,0,0,1-1,1.09,1.09,0,0,0-1-1c-2.93,0-5.86,0-8.79,0a4.76,4.76,0,0,1-1.88-.4l-5.08-2.05a.71.71,0,0,0-.21,0H28.25c-.17,0-.23,0-.23.23q0,4.2,0,8.4c0,.21.07.23.26.23h2.63a16.35,16.35,0,0,1,2.09.26l1.41.19,1.82.26,1.36.18,1.84.27c.47.07,1,.12,1.42.18l1.74.24,1.4.21,1.84.27a5.53,5.53,0,0,0,.9.11,1.89,1.89,0,0,0,.58-.27l2.16-1.2L52,73.39l3-1.66,3.57-2,4.5-2.47a1,1,0,0,0,.42-1.08,1,1,0,0,0-.86-.72,1.31,1.31,0,0,0-.74.2c-.89.51-1.8,1-2.69,1.48q-2,1.08-4,2.18c-.84.45-1.69.91-2.54,1.35a.85.85,0,0,1-1.22-.42.87.87,0,0,1,.41-1.16l3.63-2,3.59-2c.72-.39,1.41-.81,2.14-1.17A2.8,2.8,0,0,1,65.32,65.94Z" transform="translate(0 0)"></path><path class="cls-2" d="M74.23,31.16a1.18,1.18,0,0,1-1.19.63c-3,0-6.05,0-9.07,0a.93.93,0,0,1-1-1q0-1.47,0-2.94c0-.24-.07-.28-.29-.28-1.09,0-2.19,0-3.28,0a3.66,3.66,0,0,1-1.57-.3c-1.49-.61-3-1.19-4.48-1.82a4.42,4.42,0,0,0-1.83-.35q-4.06,0-8.12,0a3,3,0,0,1-1.93-.57,2.71,2.71,0,0,1-1.08-2,2.67,2.67,0,0,1,.89-2.27A2.45,2.45,0,0,1,43,19.57c1.45,0,2.9,0,4.34,0,1,0,1.91,0,2.87,0a.89.89,0,0,1,.78.65,1,1,0,0,1-.34,1,1.2,1.2,0,0,1-.64.19c-2.26,0-4.52,0-6.78,0a1,1,0,0,0-1,1,1,1,0,0,0,1,.95c3,0,5.95,0,8.93,0a3.82,3.82,0,0,1,1.5.33c1.37.56,2.75,1.09,4.12,1.64.19.08.4.14.58.23a2.83,2.83,0,0,0,1.46.28c1,0,1.94,0,2.91,0,.19,0,.27,0,.27-.25q0-4.18,0-8.37c0-.21-.06-.24-.25-.24-.88,0-1.75,0-2.63,0a13.59,13.59,0,0,1-1.8-.21c-.59-.08-1.18-.15-1.77-.24l-1.78-.26c-.46-.07-.93-.12-1.39-.18l-1.84-.27-1.38-.18c-.61-.09-1.21-.19-1.82-.27s-.93-.12-1.39-.18l-1.78-.26a2,2,0,0,0-1.47.17c-1.06.65-2.18,1.2-3.26,1.79l-5,2.77-2.73,1.47-4.43,2.44a1.58,1.58,0,0,0-.63.48,1,1,0,0,0,.56,1.49,1.37,1.37,0,0,0,1-.22c.54-.31,1.09-.61,1.64-.91l4.09-2.24c1.1-.6,2.21-1.19,3.3-1.8a.89.89,0,0,1,1.35.87.82.82,0,0,1-.42.66c-.77.44-1.56.86-2.34,1.29l-3.66,2c-.9.5-1.81,1-2.72,1.47a4.92,4.92,0,0,1-1.36.62,2.72,2.72,0,0,1-2.5-.66,2.94,2.94,0,0,1-.86-1.47,2.89,2.89,0,0,1,1-2.81c.69-.46,1.45-.82,2.17-1.22,1.31-.74,2.63-1.45,4-2.17l2.62-1.43,3.92-2.15L42,13.91,43.6,13a2.33,2.33,0,0,1,.33-.14c0,.07,0,.1-.09.12-1.66.86-3.28,1.79-4.92,2.67l-5,2.73-5,2.74c-.62.34-1.25.67-1.87,1a2.73,2.73,0,0,0-1.28,2.9A2.76,2.76,0,0,0,28,27.22a3.14,3.14,0,0,0,2-.48c2.66-1.47,5.34-2.92,8-4.39a8.69,8.69,0,0,0,1.07-.61.76.76,0,0,0,.31-.86.77.77,0,0,0-.64-.59.92.92,0,0,0-.64.15c-.85.45-1.69.92-2.53,1.38l-3.52,1.91L29.2,25.34a1.32,1.32,0,0,1-1.09.19,1,1,0,0,1-.71-.85,1,1,0,0,1,.51-1.07c.59-.35,1.2-.67,1.81-1l5.13-2.81L40,17c1.26-.69,2.52-1.37,3.78-2.08a1.46,1.46,0,0,1,1-.19c3.24.47,6.49.92,9.73,1.37l5.13.72a3.24,3.24,0,0,0,.44,0h2.64c.33,0,.39.05.39.39v8.23c0,.32-.06.38-.38.38H59.2a1.43,1.43,0,0,1-.54-.13l-5.35-2.14a2.71,2.71,0,0,0-1-.2h-9a1.18,1.18,0,0,1-.94-.35,1.05,1.05,0,0,1,.65-1.76,2.17,2.17,0,0,1,.36,0h6.42a1.34,1.34,0,0,0,.65-.12.83.83,0,0,0,.41-.88.81.81,0,0,0-.75-.63c-2.41,0-4.82,0-7.23,0a2.68,2.68,0,0,0-2.44,2.52,2.74,2.74,0,0,0,1.82,2.74,2.37,2.37,0,0,0,.79.12c1.5,0,3,0,4.48,0s2.95,0,4.42,0a2.6,2.6,0,0,1,1,.18c1.79.73,3.58,1.44,5.38,2.16a1.89,1.89,0,0,0,.7.13c1.11,0,2.23,0,3.34,0,.69,0,.69,0,.69.68v2.38a1.71,1.71,0,0,0,0,.45.82.82,0,0,0,.78.68H73a1.14,1.14,0,0,0,1.14-.49A.11.11,0,0,1,74.23,31.16Z" transform="translate(0 0)"></path><path class="cls-2" d="M71.82,17.7a2.52,2.52,0,1,0-5,.38,2.47,2.47,0,0,0,2.81,2.21A2.5,2.5,0,0,0,71.82,17.7Zm-2.53.8a.69.69,0,0,1-.72-.69.72.72,0,0,1,.75-.71.74.74,0,0,1,.71.68A.73.73,0,0,1,69.29,18.5Z" transform="translate(0 0)"></path><path class="cls-2" d="M73.45,12.9H63.76c-.11.12-.28.08-.4.19A1.08,1.08,0,0,0,63,14c0,.31,0,.63,0,.95,0,.15,0,.21-.2.21-.94,0-1.88,0-2.82,0-.6,0-1.19-.17-1.79-.25l-1.38-.19L55,14.43l-1.39-.19L51.75,14c-.45-.07-.9-.12-1.36-.18l-1.84-.27-1.33-.18-1.39-.18c-.52-.07-1-.18-1.56-.21-.05,0-.1,0-.11-.06h-.23a2.33,2.33,0,0,0-.33.14L42,13.91l-2.65,1.43-3.92,2.15-2.62,1.43c-1.32.72-2.64,1.43-4,2.17-.72.4-1.48.76-2.17,1.22a2.89,2.89,0,0,0-1,2.81,2.94,2.94,0,0,0,.86,1.47,2.72,2.72,0,0,0,2.5.66,4.92,4.92,0,0,0,1.36-.62c.91-.5,1.82-1,2.72-1.47l3.66-2c.78-.43,1.57-.85,2.34-1.29a.82.82,0,0,0,.42-.66.89.89,0,0,0-1.35-.87c-1.09.61-2.2,1.2-3.3,1.8l-4.09,2.24c-.55.3-1.1.6-1.64.91a1.37,1.37,0,0,1-1,.22A1,1,0,0,1,27.6,24a1.58,1.58,0,0,1,.63-.48l4.43-2.44,2.73-1.47,5-2.77c1.08-.59,2.2-1.14,3.26-1.79a2,2,0,0,1,1.47-.17l1.78.26c.46.06.93.11,1.39.18s1.21.18,1.82.27l1.38.18,1.84.27c.46.06.93.11,1.39.18l1.78.26c.59.09,1.18.16,1.77.24a13.59,13.59,0,0,0,1.8.21c.88,0,1.75,0,2.63,0,.19,0,.25,0,.25.24q0,4.18,0,8.37c0,.23-.08.25-.27.25-1,0-1.94,0-2.91,0a2.83,2.83,0,0,1-1.46-.28c-.18-.09-.39-.15-.58-.23-1.37-.55-2.75-1.08-4.12-1.64a3.82,3.82,0,0,0-1.5-.33c-3,0-6,0-8.93,0a1,1,0,0,1-1-.95,1,1,0,0,1,1-1c2.26,0,4.52,0,6.78,0a1.2,1.2,0,0,0,.64-.19,1,1,0,0,0,.34-1,.89.89,0,0,0-.78-.65c-1,0-1.91,0-2.87,0-1.44,0-2.89,0-4.34,0a2.45,2.45,0,0,0-1.69.71,2.67,2.67,0,0,0-.89,2.27,2.71,2.71,0,0,0,1.08,2,3,3,0,0,0,1.93.57q4.05,0,8.12,0a4.42,4.42,0,0,1,1.83.35c1.49.63,3,1.21,4.48,1.82a3.66,3.66,0,0,0,1.57.3c1.09,0,2.19,0,3.28,0,.22,0,.29,0,.29.28q0,1.47,0,2.94a.93.93,0,0,0,1,1c3,0,6,0,9.07,0a1.18,1.18,0,0,0,1.19-.63V13.57A1.12,1.12,0,0,0,73.45,12.9Zm-8.63,9.47V15c0-.2,0-.27.25-.27H72.2c.2,0,.24,0,.24.25q0,7.38,0,14.75c0,.22-.08.25-.27.25H65.07c-.22,0-.25-.06-.25-.26Z" transform="translate(0 0)"></path><path class="cls-2" d="M24.22,73a2.5,2.5,0,0,0-5,.17,2.47,2.47,0,0,0,2.46,2.57A2.51,2.51,0,0,0,24.22,73Zm-2.5.91a.7.7,0,1,1,0-1.4.68.68,0,0,1,.71.69A.69.69,0,0,1,21.72,73.9Z" transform="translate(0 0)"></path><path class="cls-2" d="M65.32,65.94a2.8,2.8,0,0,0-4-1.95c-.73.36-1.42.78-2.14,1.17l-3.59,2-3.63,2a.87.87,0,0,0-.41,1.16.85.85,0,0,0,1.22.42c.85-.44,1.7-.9,2.54-1.35q2-1.1,4-2.18c.89-.5,1.8-1,2.69-1.48a1.31,1.31,0,0,1,.74-.2,1,1,0,0,1,.86.72,1,1,0,0,1-.42,1.08l-4.5,2.47-3.57,2-3,1.66-2.55,1.38L47.31,76a1.89,1.89,0,0,1-.58.27,5.53,5.53,0,0,1-.9-.11L44,75.86l-1.4-.21-1.74-.24c-.47-.06-1-.11-1.42-.18L37.59,75l-1.36-.18-1.82-.26L33,74.33a16.35,16.35,0,0,0-2.09-.26H28.28c-.19,0-.26,0-.26-.23q0-4.2,0-8.4c0-.19.06-.23.23-.23h3.59a.71.71,0,0,1,.21,0l5.08,2.05a4.76,4.76,0,0,0,1.88.4c2.93,0,5.86,0,8.79,0a1.09,1.09,0,0,1,1,1,1,1,0,0,1-1,1c-2.26,0-4.52,0-6.78,0a.94.94,0,0,0-1,1.24.91.91,0,0,0,.94.61c2.26,0,4.52,0,6.78,0a3.19,3.19,0,0,0,.62-.08,2.87,2.87,0,0,0,1.62-1,2.67,2.67,0,0,0,.61-1.79,2.52,2.52,0,0,0-.38-1.32,2.64,2.64,0,0,0-2.32-1.4q-4.36,0-8.71,0a3.08,3.08,0,0,1-1.31-.24l-.52-.22-4.13-1.67a4,4,0,0,0-1.64-.36c-1.11,0-2.22,0-3.33,0-.21,0-.28,0-.28-.27,0-1,0-2,0-3a.93.93,0,0,0-1-1h-9.3l-.27,0c-.38.06-.54.36-.71.65V77.43a1.24,1.24,0,0,0,.73.67h9.8A1.06,1.06,0,0,0,28,76.89c0-.28,0-.56,0-.84,0-.13,0-.2.18-.2.93,0,1.87,0,2.8,0,.61,0,1.21.17,1.81.26.45.06.89.11,1.33.18l1.87.27,1.77.23,1.81.27,1.36.18,1.84.27,1.38.18c.61.08,1.21.19,1.81.27a3.69,3.69,0,0,1,.81.12h.33l.3-.16,2.83-1.54q2.13-1.17,4.27-2.33l5.27-2.9c1.39-.76,2.79-1.5,4.17-2.28A2.7,2.7,0,0,0,65.32,65.94ZM26.24,76c0,.24-.06.32-.31.32q-3.55,0-7.12,0c-.26,0-.25-.13-.25-.31V61.33c0-.24.05-.32.31-.32q3.52,0,7.05,0c.27,0,.32.09.32.33Q26.23,68.68,26.24,76Z" transform="translate(0 0)"></path><path class="cls-2" d="M47.24,42.92c0-.75,0-1.51,0-2.26,0-.16,0-.21-.2-.21-.45,0-.91,0-1.37,0-.19,0-.23.07-.23.25q0,2.2,0,4.41c0,.16,0,.23.21.23.46,0,.93,0,1.39,0,.17,0,.2-.06.2-.21C47.23,44.39,47.24,43.66,47.24,42.92Zm0,3.31c0-.13,0-.18-.17-.17h-1c-.65,0-.65,0-.64.65,0,.28-.1.65,0,.81s.54,0,.78,0h.8c.13,0,.17,0,.17-.18Q47.22,46.82,47.24,46.23Zm0,0c0-.13,0-.18-.17-.17h-1c-.65,0-.65,0-.64.65,0,.28-.1.65,0,.81s.54,0,.78,0h.8c.13,0,.17,0,.17-.18Q47.22,46.82,47.24,46.23Zm0-3.31c0-.75,0-1.51,0-2.26,0-.16,0-.21-.2-.21-.45,0-.91,0-1.37,0-.19,0-.23.07-.23.25q0,2.2,0,4.41c0,.16,0,.23.21.23.46,0,.93,0,1.39,0,.17,0,.2-.06.2-.21C47.23,44.39,47.24,43.66,47.24,42.92Zm0,0c0-.75,0-1.51,0-2.26,0-.16,0-.21-.2-.21-.45,0-.91,0-1.37,0-.19,0-.23.07-.23.25q0,2.2,0,4.41c0,.16,0,.23.21.23.46,0,.93,0,1.39,0,.17,0,.2-.06.2-.21C47.23,44.39,47.24,43.66,47.24,42.92Zm0,3.31c0-.13,0-.18-.17-.17h-1c-.65,0-.65,0-.64.65,0,.28-.1.65,0,.81s.54,0,.78,0h.8c.13,0,.17,0,.17-.18Q47.22,46.82,47.24,46.23Zm0,0c0-.13,0-.18-.17-.17h-1c-.65,0-.65,0-.64.65,0,.28-.1.65,0,.81s.54,0,.78,0h.8c.13,0,.17,0,.17-.18Q47.22,46.82,47.24,46.23Zm0-3.31c0-.75,0-1.51,0-2.26,0-.16,0-.21-.2-.21-.45,0-.91,0-1.37,0-.19,0-.23.07-.23.25q0,2.2,0,4.41c0,.16,0,.23.21.23.46,0,.93,0,1.39,0,.17,0,.2-.06.2-.21C47.23,44.39,47.24,43.66,47.24,42.92Zm0,0c0-.75,0-1.51,0-2.26,0-.16,0-.21-.2-.21-.45,0-.91,0-1.37,0-.19,0-.23.07-.23.25q0,2.2,0,4.41c0,.16,0,.23.21.23.46,0,.93,0,1.39,0,.17,0,.2-.06.2-.21C47.23,44.39,47.24,43.66,47.24,42.92Zm0,3.31c0-.13,0-.18-.17-.17h-1c-.65,0-.65,0-.64.65,0,.28-.1.65,0,.81s.54,0,.78,0h.8c.13,0,.17,0,.17-.18Q47.22,46.82,47.24,46.23Zm0,0c0-.13,0-.18-.17-.17h-1c-.65,0-.65,0-.64.65,0,.28-.1.65,0,.81s.54,0,.78,0h.8c.13,0,.17,0,.17-.18Q47.22,46.82,47.24,46.23Zm0-3.31c0-.75,0-1.51,0-2.26,0-.16,0-.21-.2-.21-.45,0-.91,0-1.37,0-.19,0-.23.07-.23.25q0,2.2,0,4.41c0,.16,0,.23.21.23.46,0,.93,0,1.39,0,.17,0,.2-.06.2-.21C47.23,44.39,47.24,43.66,47.24,42.92Zm0,0c0-.75,0-1.51,0-2.26,0-.16,0-.21-.2-.21-.45,0-.91,0-1.37,0-.19,0-.23.07-.23.25q0,2.2,0,4.41c0,.16,0,.23.21.23.46,0,.93,0,1.39,0,.17,0,.2-.06.2-.21C47.23,44.39,47.24,43.66,47.24,42.92Zm0,3.31c0-.13,0-.18-.17-.17h-1c-.65,0-.65,0-.64.65,0,.28-.1.65,0,.81s.54,0,.78,0h.8c.13,0,.17,0,.17-.18Q47.22,46.82,47.24,46.23Zm0,0c0-.13,0-.18-.17-.17h-1c-.65,0-.65,0-.64.65,0,.28-.1.65,0,.81s.54,0,.78,0h.8c.13,0,.17,0,.17-.18Q47.22,46.82,47.24,46.23Zm0-3.31c0-.75,0-1.51,0-2.26,0-.16,0-.21-.2-.21-.45,0-.91,0-1.37,0-.19,0-.23.07-.23.25q0,2.2,0,4.41c0,.16,0,.23.21.23.46,0,.93,0,1.39,0,.17,0,.2-.06.2-.21C47.23,44.39,47.24,43.66,47.24,42.92Zm0,0c0-.75,0-1.51,0-2.26,0-.16,0-.21-.2-.21-.45,0-.91,0-1.37,0-.19,0-.23.07-.23.25q0,2.2,0,4.41c0,.16,0,.23.21.23.46,0,.93,0,1.39,0,.17,0,.2-.06.2-.21C47.23,44.39,47.24,43.66,47.24,42.92Zm0,3.31c0-.13,0-.18-.17-.17h-1c-.65,0-.65,0-.64.65,0,.28-.1.65,0,.81s.54,0,.78,0h.8c.13,0,.17,0,.17-.18Q47.22,46.82,47.24,46.23Zm-.17-.17h-1c-.65,0-.65,0-.64.65,0,.28-.1.65,0,.81s.54,0,.78,0h.8c.13,0,.17,0,.17-.18q0-.59,0-1.17C47.24,46.1,47.21,46.05,47.07,46.06Zm.17-3.14c0-.75,0-1.51,0-2.26,0-.16,0-.21-.2-.21-.45,0-.91,0-1.37,0-.19,0-.23.07-.23.25q0,2.2,0,4.41c0,.16,0,.23.21.23.46,0,.93,0,1.39,0,.17,0,.2-.06.2-.21C47.23,44.39,47.24,43.66,47.24,42.92Zm-.3-9.79A11.43,11.43,0,0,0,35,44.58,11.41,11.41,0,0,0,46.14,55.91a11.4,11.4,0,0,0,.8-22.78Zm7,17.27a9.2,9.2,0,0,1-3.63,2.85A10,10,0,0,1,48,54a10.44,10.44,0,0,1-2.43.09,8.82,8.82,0,0,1-2.67-.63A9.74,9.74,0,0,1,40.38,52a8.59,8.59,0,0,1-1.91-2.12,1.39,1.39,0,0,0,1,.22H53.34a1.23,1.23,0,0,0,1-.39A1.58,1.58,0,0,1,53.94,50.4ZM40.66,48.28c1.89-3.29,3.79-6.57,5.7-9.88l5.7,9.88ZM55.31,48a9.71,9.71,0,0,1-.79,1.58c0,.05,0,.12-.12.11a1.09,1.09,0,0,0-.06-1.09c-.61-1-1.22-2.07-1.82-3.11s-1-1.81-1.54-2.71l-1.8-3.09L47.62,37c-.15-.27-.3-.54-.46-.8a.9.9,0,0,0-1.59,0c-.53.87-1,1.75-1.53,2.62S43,40.61,42.45,41.53s-.93,1.64-1.4,2.45L39.1,47.34c-.24.43-.5.86-.74,1.3-.13.25-.31.5-.14.82a8.77,8.77,0,0,1-1.12-2.57,9.54,9.54,0,0,1,.52-6.25,9.61,9.61,0,0,1,9.05-5.72,9.66,9.66,0,0,1,3.43.76A9.32,9.32,0,0,1,53.41,38a9.45,9.45,0,0,1,2.29,4.31A9.57,9.57,0,0,1,56,44.85,9.69,9.69,0,0,1,55.31,48Zm-8.24-1.94h-1c-.65,0-.65,0-.64.65,0,.28-.1.65,0,.81s.54,0,.78,0h.8c.13,0,.17,0,.17-.18q0-.59,0-1.17C47.24,46.1,47.21,46.05,47.07,46.06Zm.17-3.14c0-.75,0-1.51,0-2.26,0-.16,0-.21-.2-.21-.45,0-.91,0-1.37,0-.19,0-.23.07-.23.25q0,2.2,0,4.41c0,.16,0,.23.21.23.46,0,.93,0,1.39,0,.17,0,.2-.06.2-.21C47.23,44.39,47.24,43.66,47.24,42.92Zm0,0c0-.75,0-1.51,0-2.26,0-.16,0-.21-.2-.21-.45,0-.91,0-1.37,0-.19,0-.23.07-.23.25q0,2.2,0,4.41c0,.16,0,.23.21.23.46,0,.93,0,1.39,0,.17,0,.2-.06.2-.21C47.23,44.39,47.24,43.66,47.24,42.92Zm0,3.31c0-.13,0-.18-.17-.17h-1c-.65,0-.65,0-.64.65,0,.28-.1.65,0,.81s.54,0,.78,0h.8c.13,0,.17,0,.17-.18Q47.22,46.82,47.24,46.23Zm0,0c0-.13,0-.18-.17-.17h-1c-.65,0-.65,0-.64.65,0,.28-.1.65,0,.81s.54,0,.78,0h.8c.13,0,.17,0,.17-.18Q47.22,46.82,47.24,46.23Zm0-3.31c0-.75,0-1.51,0-2.26,0-.16,0-.21-.2-.21-.45,0-.91,0-1.37,0-.19,0-.23.07-.23.25q0,2.2,0,4.41c0,.16,0,.23.21.23.46,0,.93,0,1.39,0,.17,0,.2-.06.2-.21C47.23,44.39,47.24,43.66,47.24,42.92Zm0,0c0-.75,0-1.51,0-2.26,0-.16,0-.21-.2-.21-.45,0-.91,0-1.37,0-.19,0-.23.07-.23.25q0,2.2,0,4.41c0,.16,0,.23.21.23.46,0,.93,0,1.39,0,.17,0,.2-.06.2-.21C47.23,44.39,47.24,43.66,47.24,42.92Zm0,3.31c0-.13,0-.18-.17-.17h-1c-.65,0-.65,0-.64.65,0,.28-.1.65,0,.81s.54,0,.78,0h.8c.13,0,.17,0,.17-.18Q47.22,46.82,47.24,46.23Zm0,0c0-.13,0-.18-.17-.17h-1c-.65,0-.65,0-.64.65,0,.28-.1.65,0,.81s.54,0,.78,0h.8c.13,0,.17,0,.17-.18Q47.22,46.82,47.24,46.23Zm0-3.31c0-.75,0-1.51,0-2.26,0-.16,0-.21-.2-.21-.45,0-.91,0-1.37,0-.19,0-.23.07-.23.25q0,2.2,0,4.41c0,.16,0,.23.21.23.46,0,.93,0,1.39,0,.17,0,.2-.06.2-.21C47.23,44.39,47.24,43.66,47.24,42.92Zm0,0c0-.75,0-1.51,0-2.26,0-.16,0-.21-.2-.21-.45,0-.91,0-1.37,0-.19,0-.23.07-.23.25q0,2.2,0,4.41c0,.16,0,.23.21.23.46,0,.93,0,1.39,0,.17,0,.2-.06.2-.21C47.23,44.39,47.24,43.66,47.24,42.92Zm0,3.31c0-.13,0-.18-.17-.17h-1c-.65,0-.65,0-.64.65,0,.28-.1.65,0,.81s.54,0,.78,0h.8c.13,0,.17,0,.17-.18Q47.22,46.82,47.24,46.23Zm0,0c0-.13,0-.18-.17-.17h-1c-.65,0-.65,0-.64.65,0,.28-.1.65,0,.81s.54,0,.78,0h.8c.13,0,.17,0,.17-.18Q47.22,46.82,47.24,46.23Zm0-3.31c0-.75,0-1.51,0-2.26,0-.16,0-.21-.2-.21-.45,0-.91,0-1.37,0-.19,0-.23.07-.23.25q0,2.2,0,4.41c0,.16,0,.23.21.23.46,0,.93,0,1.39,0,.17,0,.2-.06.2-.21C47.23,44.39,47.24,43.66,47.24,42.92Zm0,0c0-.75,0-1.51,0-2.26,0-.16,0-.21-.2-.21-.45,0-.91,0-1.37,0-.19,0-.23.07-.23.25q0,2.2,0,4.41c0,.16,0,.23.21.23.46,0,.93,0,1.39,0,.17,0,.2-.06.2-.21C47.23,44.39,47.24,43.66,47.24,42.92Zm0,3.31c0-.13,0-.18-.17-.17h-1c-.65,0-.65,0-.64.65,0,.28-.1.65,0,.81s.54,0,.78,0h.8c.13,0,.17,0,.17-.18Q47.22,46.82,47.24,46.23Zm0,0c0-.13,0-.18-.17-.17h-1c-.65,0-.65,0-.64.65,0,.28-.1.65,0,.81s.54,0,.78,0h.8c.13,0,.17,0,.17-.18Q47.22,46.82,47.24,46.23Zm0-3.31c0-.75,0-1.51,0-2.26,0-.16,0-.21-.2-.21-.45,0-.91,0-1.37,0-.19,0-.23.07-.23.25q0,2.2,0,4.41c0,.16,0,.23.21.23.46,0,.93,0,1.39,0,.17,0,.2-.06.2-.21C47.23,44.39,47.24,43.66,47.24,42.92Zm0,0c0-.75,0-1.51,0-2.26,0-.16,0-.21-.2-.21-.45,0-.91,0-1.37,0-.19,0-.23.07-.23.25q0,2.2,0,4.41c0,.16,0,.23.21.23.46,0,.93,0,1.39,0,.17,0,.2-.06.2-.21C47.23,44.39,47.24,43.66,47.24,42.92Zm0,3.31c0-.13,0-.18-.17-.17h-1c-.65,0-.65,0-.64.65,0,.28-.1.65,0,.81s.54,0,.78,0h.8c.13,0,.17,0,.17-.18Q47.22,46.82,47.24,46.23Zm0,0c0-.13,0-.18-.17-.17h-1c-.65,0-.65,0-.64.65,0,.28-.1.65,0,.81s.54,0,.78,0h.8c.13,0,.17,0,.17-.18Q47.22,46.82,47.24,46.23Zm0-3.31c0-.75,0-1.51,0-2.26,0-.16,0-.21-.2-.21-.45,0-.91,0-1.37,0-.19,0-.23.07-.23.25q0,2.2,0,4.41c0,.16,0,.23.21.23.46,0,.93,0,1.39,0,.17,0,.2-.06.2-.21C47.23,44.39,47.24,43.66,47.24,42.92Z" transform="translate(0 0)"></path><path class="cls-2" d="M64.78,44.06c0-.64-.09-1.27-.13-1.91a1.17,1.17,0,0,0-.89-1.24l-.57-.17-2.85-.94c-.08,0-.14,0-.17-.15a10.74,10.74,0,0,0-.78-1.81c0-.07-.07-.13,0-.22s.22-.48.33-.71L61,34.27a.88.88,0,0,0,0-1c-.4-.53-.83-1-1.28-1.52a24.25,24.25,0,0,0-2.14-1.92,1.19,1.19,0,0,0-1.49-.16C55,30.26,54,30.77,53,31.3c-.08,0-.14.08-.24,0a10.21,10.21,0,0,0-1.85-.74.26.26,0,0,1-.17-.18c-.36-1-.73-2.05-1.1-3.08-.17-.46-.28-1-.86-1.09a7.74,7.74,0,0,0-1.18-.12,22.52,22.52,0,0,0-3.85.17,1,1,0,0,0-.84.68c-.38,1.18-.78,2.36-1.16,3.54a.34.34,0,0,1-.22.23,10.43,10.43,0,0,0-1.71.75.36.36,0,0,1-.36,0l-3.27-1.56a.8.8,0,0,0-.5-.11.71.71,0,0,0-.58.18,19.43,19.43,0,0,0-1.92,1.7,16.11,16.11,0,0,0-1.42,1.56.9.9,0,0,0-.15,1.07c.58,1.08,1.17,2.16,1.77,3.23,0,.08.08.13,0,.22A12.07,12.07,0,0,0,32.49,40a.46.46,0,0,1-.34.32l-3.32,1.06a.91.91,0,0,0-.69.67,12.79,12.79,0,0,0-.22,1.85,16,16,0,0,0,.28,3.38.83.83,0,0,0,.6.71l3.42,1.12a.6.6,0,0,1,.46.45,9,9,0,0,0,.65,1.49.45.45,0,0,1,0,.45c-.53,1.09-1,2.19-1.56,3.28a.91.91,0,0,0,.08,1,16.72,16.72,0,0,0,1.22,1.43,18.49,18.49,0,0,0,2.08,1.87,1.14,1.14,0,0,0,1.54.21c1-.54,2.06-1,3.08-1.58a.34.34,0,0,1,.35,0,11.56,11.56,0,0,0,1.8.7.2.2,0,0,1,.16.13c.4,1.16.82,2.31,1.22,3.47a.94.94,0,0,0,.76.72,10.46,10.46,0,0,0,1.47.15A19.78,19.78,0,0,0,49,62.75a1.09,1.09,0,0,0,1-.82c.35-1.13.71-2.26,1.07-3.39a.38.38,0,0,1,.26-.26A9.41,9.41,0,0,0,53,57.55a.43.43,0,0,1,.41,0l3.3,1.57a.92.92,0,0,0,1,0,11.58,11.58,0,0,0,1.14-1c.39-.37.76-.76,1.14-1.14a14.81,14.81,0,0,0,1.25-1.48,1,1,0,0,0,.08-1.17c-.55-1-1.08-2.12-1.62-3.19a.39.39,0,0,1,0-.38,10,10,0,0,0,.67-1.67.37.37,0,0,1,.27-.29c1.15-.4,2.29-.82,3.43-1.23a.93.93,0,0,0,.66-.67,4.69,4.69,0,0,0,.12-1.12C64.75,45.21,64.8,44.64,64.78,44.06ZM63,45.48a3.75,3.75,0,0,0,0,.47c0,.11-.07.1-.14.12-1.12.4-2.24.83-3.37,1.21a1,1,0,0,0-.69.73,9.39,9.39,0,0,1-.86,2.21,1.43,1.43,0,0,0,0,1.55c.52.95,1,1.93,1.49,2.9,0,0,.08.08,0,.16a14.71,14.71,0,0,1-1.66,1.78c-.22.18-.4.39-.62.57a.2.2,0,0,1-.26,0l-3.28-1.55a.94.94,0,0,0-.89,0,13.22,13.22,0,0,1-2.48,1.06,1,1,0,0,0-.67.68c-.36,1.13-.75,2.24-1.11,3.37,0,.12-.09.2-.21.21a16.88,16.88,0,0,1-2.36.11c-.25,0-.51,0-.77,0a.24.24,0,0,1-.27-.2c-.38-1.1-.77-2.19-1.16-3.28a1.09,1.09,0,0,0-.79-.75,12.64,12.64,0,0,1-2.51-1,.82.82,0,0,0-.79,0l-3.24,1.63c-.14.07-.24.08-.34,0A24.48,24.48,0,0,1,34,55.59a.73.73,0,0,1-.15-1c.45-.87.82-1.79,1.27-2.66a1.19,1.19,0,0,0,0-1.28,11.3,11.3,0,0,1-1-2.35,1,1,0,0,0-.68-.65c-1.12-.37-2.24-.73-3.37-1.07-.32-.1-.24-.38-.26-.57a11.92,11.92,0,0,1-.12-1.8c0-.37.07-.75.11-1.12,0-.14.12-.13.21-.16l3.27-1.06a1.09,1.09,0,0,0,.73-.73A16,16,0,0,1,35,38.6a3.09,3.09,0,0,0,.36-.64c0-.08,0-.16,0-.25a2.35,2.35,0,0,0-.47-1.07c-.42-.83-.89-1.64-1.35-2.44a.25.25,0,0,1,0-.35,19.37,19.37,0,0,1,1.7-1.69c.12-.12.26-.22.39-.34s.15,0,.23,0l2.05,1c.39.18.76.38,1.15.55a1.13,1.13,0,0,0,1.07,0,11.11,11.11,0,0,1,2.35-1,1,1,0,0,0,.73-.74c.37-1.13.75-2.26,1.11-3.4,0-.11.07-.12.16-.13A18,18,0,0,1,47,27.91a5.79,5.79,0,0,0,.83.06c.13,0,.13.1.16.18.4,1.11.78,2.24,1.19,3.35a1.06,1.06,0,0,0,.81.69,10.36,10.36,0,0,1,2.27.91,1.12,1.12,0,0,0,1.23,0c.8-.44,1.64-.83,2.46-1.24.18-.09.36-.17.54-.28a.28.28,0,0,1,.36.05A18.37,18.37,0,0,1,59,33.73a.27.27,0,0,1,.05.34c-.51,1-1,2.1-1.5,3.16a1.06,1.06,0,0,0,0,1.06,10.31,10.31,0,0,1,1,2.26,1.16,1.16,0,0,0,.86.87c1.11.33,2.2.7,3.3,1.06.24.07.16.31.17.44A18.25,18.25,0,0,1,63,45.48Z" transform="translate(0 0)"></path><path class="cls-2" d="M71.82,17.7a2.52,2.52,0,1,0-5,.38,2.47,2.47,0,0,0,2.81,2.21A2.5,2.5,0,0,0,71.82,17.7Zm-2.53.8a.69.69,0,0,1-.72-.69.72.72,0,0,1,.75-.71.74.74,0,0,1,.71.68A.73.73,0,0,1,69.29,18.5Z" transform="translate(0 0)"></path><path class="cls-2" d="M24.22,73a2.5,2.5,0,0,0-5,.17,2.47,2.47,0,0,0,2.46,2.57A2.51,2.51,0,0,0,24.22,73Zm-2.5.91a.7.7,0,1,1,0-1.4.68.68,0,0,1,.71.69A.69.69,0,0,1,21.72,73.9Z" transform="translate(0 0)"></path><path class="cls-2" d="M47.24,42.92c0-.75,0-1.51,0-2.26,0-.16,0-.21-.2-.21-.45,0-.91,0-1.37,0-.19,0-.23.07-.23.25q0,2.2,0,4.41c0,.16,0,.23.21.23.46,0,.93,0,1.39,0,.17,0,.2-.06.2-.21C47.23,44.39,47.24,43.66,47.24,42.92Zm0,3.31c0-.13,0-.18-.17-.17h-1c-.65,0-.65,0-.64.65,0,.28-.1.65,0,.81s.54,0,.78,0h.8c.13,0,.17,0,.17-.18Q47.22,46.82,47.24,46.23Zm0,0c0-.13,0-.18-.17-.17h-1c-.65,0-.65,0-.64.65,0,.28-.1.65,0,.81s.54,0,.78,0h.8c.13,0,.17,0,.17-.18Q47.22,46.82,47.24,46.23Zm0-3.31c0-.75,0-1.51,0-2.26,0-.16,0-.21-.2-.21-.45,0-.91,0-1.37,0-.19,0-.23.07-.23.25q0,2.2,0,4.41c0,.16,0,.23.21.23.46,0,.93,0,1.39,0,.17,0,.2-.06.2-.21C47.23,44.39,47.24,43.66,47.24,42.92Zm0,0c0-.75,0-1.51,0-2.26,0-.16,0-.21-.2-.21-.45,0-.91,0-1.37,0-.19,0-.23.07-.23.25q0,2.2,0,4.41c0,.16,0,.23.21.23.46,0,.93,0,1.39,0,.17,0,.2-.06.2-.21C47.23,44.39,47.24,43.66,47.24,42.92Zm0,3.31c0-.13,0-.18-.17-.17h-1c-.65,0-.65,0-.64.65,0,.28-.1.65,0,.81s.54,0,.78,0h.8c.13,0,.17,0,.17-.18Q47.22,46.82,47.24,46.23Zm0,0c0-.13,0-.18-.17-.17h-1c-.65,0-.65,0-.64.65,0,.28-.1.65,0,.81s.54,0,.78,0h.8c.13,0,.17,0,.17-.18Q47.22,46.82,47.24,46.23Zm0-3.31c0-.75,0-1.51,0-2.26,0-.16,0-.21-.2-.21-.45,0-.91,0-1.37,0-.19,0-.23.07-.23.25q0,2.2,0,4.41c0,.16,0,.23.21.23.46,0,.93,0,1.39,0,.17,0,.2-.06.2-.21C47.23,44.39,47.24,43.66,47.24,42.92Zm0,0c0-.75,0-1.51,0-2.26,0-.16,0-.21-.2-.21-.45,0-.91,0-1.37,0-.19,0-.23.07-.23.25q0,2.2,0,4.41c0,.16,0,.23.21.23.46,0,.93,0,1.39,0,.17,0,.2-.06.2-.21C47.23,44.39,47.24,43.66,47.24,42.92Zm0,3.31c0-.13,0-.18-.17-.17h-1c-.65,0-.65,0-.64.65,0,.28-.1.65,0,.81s.54,0,.78,0h.8c.13,0,.17,0,.17-.18Q47.22,46.82,47.24,46.23Zm0,0c0-.13,0-.18-.17-.17h-1c-.65,0-.65,0-.64.65,0,.28-.1.65,0,.81s.54,0,.78,0h.8c.13,0,.17,0,.17-.18Q47.22,46.82,47.24,46.23Zm0-3.31c0-.75,0-1.51,0-2.26,0-.16,0-.21-.2-.21-.45,0-.91,0-1.37,0-.19,0-.23.07-.23.25q0,2.2,0,4.41c0,.16,0,.23.21.23.46,0,.93,0,1.39,0,.17,0,.2-.06.2-.21C47.23,44.39,47.24,43.66,47.24,42.92Zm0,0c0-.75,0-1.51,0-2.26,0-.16,0-.21-.2-.21-.45,0-.91,0-1.37,0-.19,0-.23.07-.23.25q0,2.2,0,4.41c0,.16,0,.23.21.23.46,0,.93,0,1.39,0,.17,0,.2-.06.2-.21C47.23,44.39,47.24,43.66,47.24,42.92Zm0,3.31c0-.13,0-.18-.17-.17h-1c-.65,0-.65,0-.64.65,0,.28-.1.65,0,.81s.54,0,.78,0h.8c.13,0,.17,0,.17-.18Q47.22,46.82,47.24,46.23Zm0,0c0-.13,0-.18-.17-.17h-1c-.65,0-.65,0-.64.65,0,.28-.1.65,0,.81s.54,0,.78,0h.8c.13,0,.17,0,.17-.18Q47.22,46.82,47.24,46.23Zm0-3.31c0-.75,0-1.51,0-2.26,0-.16,0-.21-.2-.21-.45,0-.91,0-1.37,0-.19,0-.23.07-.23.25q0,2.2,0,4.41c0,.16,0,.23.21.23.46,0,.93,0,1.39,0,.17,0,.2-.06.2-.21C47.23,44.39,47.24,43.66,47.24,42.92Zm0,0c0-.75,0-1.51,0-2.26,0-.16,0-.21-.2-.21-.45,0-.91,0-1.37,0-.19,0-.23.07-.23.25q0,2.2,0,4.41c0,.16,0,.23.21.23.46,0,.93,0,1.39,0,.17,0,.2-.06.2-.21C47.23,44.39,47.24,43.66,47.24,42.92Zm0,3.31c0-.13,0-.18-.17-.17h-1c-.65,0-.65,0-.64.65,0,.28-.1.65,0,.81s.54,0,.78,0h.8c.13,0,.17,0,.17-.18Q47.22,46.82,47.24,46.23Zm-.17-.17h-1c-.65,0-.65,0-.64.65,0,.28-.1.65,0,.81s.54,0,.78,0h.8c.13,0,.17,0,.17-.18q0-.59,0-1.17C47.24,46.1,47.21,46.05,47.07,46.06Zm.17-3.14c0-.75,0-1.51,0-2.26,0-.16,0-.21-.2-.21-.45,0-.91,0-1.37,0-.19,0-.23.07-.23.25q0,2.2,0,4.41c0,.16,0,.23.21.23.46,0,.93,0,1.39,0,.17,0,.2-.06.2-.21C47.23,44.39,47.24,43.66,47.24,42.92Zm-.3-9.79A11.43,11.43,0,0,0,35,44.58,11.41,11.41,0,0,0,46.14,55.91a11.4,11.4,0,0,0,.8-22.78Zm7,17.27a9.2,9.2,0,0,1-3.63,2.85A10,10,0,0,1,48,54a10.44,10.44,0,0,1-2.43.09,8.82,8.82,0,0,1-2.67-.63A9.74,9.74,0,0,1,40.38,52a8.59,8.59,0,0,1-1.91-2.12,1.39,1.39,0,0,0,1,.22H53.34a1.23,1.23,0,0,0,1-.39A1.58,1.58,0,0,1,53.94,50.4ZM40.66,48.28c1.89-3.29,3.79-6.57,5.7-9.88l5.7,9.88ZM55.31,48a9.71,9.71,0,0,1-.79,1.58c0,.05,0,.12-.12.11a1.09,1.09,0,0,0-.06-1.09c-.61-1-1.22-2.07-1.82-3.11s-1-1.81-1.54-2.71l-1.8-3.09L47.62,37c-.15-.27-.3-.54-.46-.8a.9.9,0,0,0-1.59,0c-.53.87-1,1.75-1.53,2.62S43,40.61,42.45,41.53s-.93,1.64-1.4,2.45L39.1,47.34c-.24.43-.5.86-.74,1.3-.13.25-.31.5-.14.82a8.77,8.77,0,0,1-1.12-2.57,9.54,9.54,0,0,1,.52-6.25,9.61,9.61,0,0,1,9.05-5.72,9.66,9.66,0,0,1,3.43.76A9.32,9.32,0,0,1,53.41,38a9.45,9.45,0,0,1,2.29,4.31A9.57,9.57,0,0,1,56,44.85,9.69,9.69,0,0,1,55.31,48Zm-8.24-1.94h-1c-.65,0-.65,0-.64.65,0,.28-.1.65,0,.81s.54,0,.78,0h.8c.13,0,.17,0,.17-.18q0-.59,0-1.17C47.24,46.1,47.21,46.05,47.07,46.06Zm.17-3.14c0-.75,0-1.51,0-2.26,0-.16,0-.21-.2-.21-.45,0-.91,0-1.37,0-.19,0-.23.07-.23.25q0,2.2,0,4.41c0,.16,0,.23.21.23.46,0,.93,0,1.39,0,.17,0,.2-.06.2-.21C47.23,44.39,47.24,43.66,47.24,42.92Zm0,0c0-.75,0-1.51,0-2.26,0-.16,0-.21-.2-.21-.45,0-.91,0-1.37,0-.19,0-.23.07-.23.25q0,2.2,0,4.41c0,.16,0,.23.21.23.46,0,.93,0,1.39,0,.17,0,.2-.06.2-.21C47.23,44.39,47.24,43.66,47.24,42.92Zm0,3.31c0-.13,0-.18-.17-.17h-1c-.65,0-.65,0-.64.65,0,.28-.1.65,0,.81s.54,0,.78,0h.8c.13,0,.17,0,.17-.18Q47.22,46.82,47.24,46.23Zm0,0c0-.13,0-.18-.17-.17h-1c-.65,0-.65,0-.64.65,0,.28-.1.65,0,.81s.54,0,.78,0h.8c.13,0,.17,0,.17-.18Q47.22,46.82,47.24,46.23Zm0-3.31c0-.75,0-1.51,0-2.26,0-.16,0-.21-.2-.21-.45,0-.91,0-1.37,0-.19,0-.23.07-.23.25q0,2.2,0,4.41c0,.16,0,.23.21.23.46,0,.93,0,1.39,0,.17,0,.2-.06.2-.21C47.23,44.39,47.24,43.66,47.24,42.92Zm0,0c0-.75,0-1.51,0-2.26,0-.16,0-.21-.2-.21-.45,0-.91,0-1.37,0-.19,0-.23.07-.23.25q0,2.2,0,4.41c0,.16,0,.23.21.23.46,0,.93,0,1.39,0,.17,0,.2-.06.2-.21C47.23,44.39,47.24,43.66,47.24,42.92Zm0,3.31c0-.13,0-.18-.17-.17h-1c-.65,0-.65,0-.64.65,0,.28-.1.65,0,.81s.54,0,.78,0h.8c.13,0,.17,0,.17-.18Q47.22,46.82,47.24,46.23Zm0,0c0-.13,0-.18-.17-.17h-1c-.65,0-.65,0-.64.65,0,.28-.1.65,0,.81s.54,0,.78,0h.8c.13,0,.17,0,.17-.18Q47.22,46.82,47.24,46.23Zm0-3.31c0-.75,0-1.51,0-2.26,0-.16,0-.21-.2-.21-.45,0-.91,0-1.37,0-.19,0-.23.07-.23.25q0,2.2,0,4.41c0,.16,0,.23.21.23.46,0,.93,0,1.39,0,.17,0,.2-.06.2-.21C47.23,44.39,47.24,43.66,47.24,42.92Zm0,0c0-.75,0-1.51,0-2.26,0-.16,0-.21-.2-.21-.45,0-.91,0-1.37,0-.19,0-.23.07-.23.25q0,2.2,0,4.41c0,.16,0,.23.21.23.46,0,.93,0,1.39,0,.17,0,.2-.06.2-.21C47.23,44.39,47.24,43.66,47.24,42.92Zm0,3.31c0-.13,0-.18-.17-.17h-1c-.65,0-.65,0-.64.65,0,.28-.1.65,0,.81s.54,0,.78,0h.8c.13,0,.17,0,.17-.18Q47.22,46.82,47.24,46.23Zm0,0c0-.13,0-.18-.17-.17h-1c-.65,0-.65,0-.64.65,0,.28-.1.65,0,.81s.54,0,.78,0h.8c.13,0,.17,0,.17-.18Q47.22,46.82,47.24,46.23Zm0-3.31c0-.75,0-1.51,0-2.26,0-.16,0-.21-.2-.21-.45,0-.91,0-1.37,0-.19,0-.23.07-.23.25q0,2.2,0,4.41c0,.16,0,.23.21.23.46,0,.93,0,1.39,0,.17,0,.2-.06.2-.21C47.23,44.39,47.24,43.66,47.24,42.92Zm0,0c0-.75,0-1.51,0-2.26,0-.16,0-.21-.2-.21-.45,0-.91,0-1.37,0-.19,0-.23.07-.23.25q0,2.2,0,4.41c0,.16,0,.23.21.23.46,0,.93,0,1.39,0,.17,0,.2-.06.2-.21C47.23,44.39,47.24,43.66,47.24,42.92Zm0,3.31c0-.13,0-.18-.17-.17h-1c-.65,0-.65,0-.64.65,0,.28-.1.65,0,.81s.54,0,.78,0h.8c.13,0,.17,0,.17-.18Q47.22,46.82,47.24,46.23Zm0,0c0-.13,0-.18-.17-.17h-1c-.65,0-.65,0-.64.65,0,.28-.1.65,0,.81s.54,0,.78,0h.8c.13,0,.17,0,.17-.18Q47.22,46.82,47.24,46.23Zm0-3.31c0-.75,0-1.51,0-2.26,0-.16,0-.21-.2-.21-.45,0-.91,0-1.37,0-.19,0-.23.07-.23.25q0,2.2,0,4.41c0,.16,0,.23.21.23.46,0,.93,0,1.39,0,.17,0,.2-.06.2-.21C47.23,44.39,47.24,43.66,47.24,42.92Zm0,0c0-.75,0-1.51,0-2.26,0-.16,0-.21-.2-.21-.45,0-.91,0-1.37,0-.19,0-.23.07-.23.25q0,2.2,0,4.41c0,.16,0,.23.21.23.46,0,.93,0,1.39,0,.17,0,.2-.06.2-.21C47.23,44.39,47.24,43.66,47.24,42.92Zm0,3.31c0-.13,0-.18-.17-.17h-1c-.65,0-.65,0-.64.65,0,.28-.1.65,0,.81s.54,0,.78,0h.8c.13,0,.17,0,.17-.18Q47.22,46.82,47.24,46.23Zm0,0c0-.13,0-.18-.17-.17h-1c-.65,0-.65,0-.64.65,0,.28-.1.65,0,.81s.54,0,.78,0h.8c.13,0,.17,0,.17-.18Q47.22,46.82,47.24,46.23Zm0-3.31c0-.75,0-1.51,0-2.26,0-.16,0-.21-.2-.21-.45,0-.91,0-1.37,0-.19,0-.23.07-.23.25q0,2.2,0,4.41c0,.16,0,.23.21.23.46,0,.93,0,1.39,0,.17,0,.2-.06.2-.21C47.23,44.39,47.24,43.66,47.24,42.92Z" transform="translate(0 0)"></path><path class="cls-2" d="M71.82,17.7a2.52,2.52,0,1,0-5,.38,2.47,2.47,0,0,0,2.81,2.21A2.5,2.5,0,0,0,71.82,17.7Zm-2.53.8a.69.69,0,0,1-.72-.69.72.72,0,0,1,.75-.71.74.74,0,0,1,.71.68A.73.73,0,0,1,69.29,18.5Z" transform="translate(0 0)"></path><path class="cls-2" d="M24.22,73a2.5,2.5,0,0,0-5,.17,2.47,2.47,0,0,0,2.46,2.57A2.51,2.51,0,0,0,24.22,73Zm-2.5.91a.7.7,0,1,1,0-1.4.68.68,0,0,1,.71.69A.69.69,0,0,1,21.72,73.9Z" transform="translate(0 0)"></path><path class="cls-2" d="M47.24,42.92c0-.75,0-1.51,0-2.26,0-.16,0-.21-.2-.21-.45,0-.91,0-1.37,0-.19,0-.23.07-.23.25q0,2.2,0,4.41c0,.16,0,.23.21.23.46,0,.93,0,1.39,0,.17,0,.2-.06.2-.21C47.23,44.39,47.24,43.66,47.24,42.92Zm0,3.31c0-.13,0-.18-.17-.17h-1c-.65,0-.65,0-.64.65,0,.28-.1.65,0,.81s.54,0,.78,0h.8c.13,0,.17,0,.17-.18Q47.22,46.82,47.24,46.23Zm0,0c0-.13,0-.18-.17-.17h-1c-.65,0-.65,0-.64.65,0,.28-.1.65,0,.81s.54,0,.78,0h.8c.13,0,.17,0,.17-.18Q47.22,46.82,47.24,46.23Zm0-3.31c0-.75,0-1.51,0-2.26,0-.16,0-.21-.2-.21-.45,0-.91,0-1.37,0-.19,0-.23.07-.23.25q0,2.2,0,4.41c0,.16,0,.23.21.23.46,0,.93,0,1.39,0,.17,0,.2-.06.2-.21C47.23,44.39,47.24,43.66,47.24,42.92Zm0,0c0-.75,0-1.51,0-2.26,0-.16,0-.21-.2-.21-.45,0-.91,0-1.37,0-.19,0-.23.07-.23.25q0,2.2,0,4.41c0,.16,0,.23.21.23.46,0,.93,0,1.39,0,.17,0,.2-.06.2-.21C47.23,44.39,47.24,43.66,47.24,42.92Zm0,3.31c0-.13,0-.18-.17-.17h-1c-.65,0-.65,0-.64.65,0,.28-.1.65,0,.81s.54,0,.78,0h.8c.13,0,.17,0,.17-.18Q47.22,46.82,47.24,46.23Zm0,0c0-.13,0-.18-.17-.17h-1c-.65,0-.65,0-.64.65,0,.28-.1.65,0,.81s.54,0,.78,0h.8c.13,0,.17,0,.17-.18Q47.22,46.82,47.24,46.23Zm0-3.31c0-.75,0-1.51,0-2.26,0-.16,0-.21-.2-.21-.45,0-.91,0-1.37,0-.19,0-.23.07-.23.25q0,2.2,0,4.41c0,.16,0,.23.21.23.46,0,.93,0,1.39,0,.17,0,.2-.06.2-.21C47.23,44.39,47.24,43.66,47.24,42.92Zm0,0c0-.75,0-1.51,0-2.26,0-.16,0-.21-.2-.21-.45,0-.91,0-1.37,0-.19,0-.23.07-.23.25q0,2.2,0,4.41c0,.16,0,.23.21.23.46,0,.93,0,1.39,0,.17,0,.2-.06.2-.21C47.23,44.39,47.24,43.66,47.24,42.92Zm0,3.31c0-.13,0-.18-.17-.17h-1c-.65,0-.65,0-.64.65,0,.28-.1.65,0,.81s.54,0,.78,0h.8c.13,0,.17,0,.17-.18Q47.22,46.82,47.24,46.23Zm0,0c0-.13,0-.18-.17-.17h-1c-.65,0-.65,0-.64.65,0,.28-.1.65,0,.81s.54,0,.78,0h.8c.13,0,.17,0,.17-.18Q47.22,46.82,47.24,46.23Zm0-3.31c0-.75,0-1.51,0-2.26,0-.16,0-.21-.2-.21-.45,0-.91,0-1.37,0-.19,0-.23.07-.23.25q0,2.2,0,4.41c0,.16,0,.23.21.23.46,0,.93,0,1.39,0,.17,0,.2-.06.2-.21C47.23,44.39,47.24,43.66,47.24,42.92Zm0,0c0-.75,0-1.51,0-2.26,0-.16,0-.21-.2-.21-.45,0-.91,0-1.37,0-.19,0-.23.07-.23.25q0,2.2,0,4.41c0,.16,0,.23.21.23.46,0,.93,0,1.39,0,.17,0,.2-.06.2-.21C47.23,44.39,47.24,43.66,47.24,42.92Zm0,3.31c0-.13,0-.18-.17-.17h-1c-.65,0-.65,0-.64.65,0,.28-.1.65,0,.81s.54,0,.78,0h.8c.13,0,.17,0,.17-.18Q47.22,46.82,47.24,46.23Zm0,0c0-.13,0-.18-.17-.17h-1c-.65,0-.65,0-.64.65,0,.28-.1.65,0,.81s.54,0,.78,0h.8c.13,0,.17,0,.17-.18Q47.22,46.82,47.24,46.23Zm0-3.31c0-.75,0-1.51,0-2.26,0-.16,0-.21-.2-.21-.45,0-.91,0-1.37,0-.19,0-.23.07-.23.25q0,2.2,0,4.41c0,.16,0,.23.21.23.46,0,.93,0,1.39,0,.17,0,.2-.06.2-.21C47.23,44.39,47.24,43.66,47.24,42.92Zm0,0c0-.75,0-1.51,0-2.26,0-.16,0-.21-.2-.21-.45,0-.91,0-1.37,0-.19,0-.23.07-.23.25q0,2.2,0,4.41c0,.16,0,.23.21.23.46,0,.93,0,1.39,0,.17,0,.2-.06.2-.21C47.23,44.39,47.24,43.66,47.24,42.92Zm0,3.31c0-.13,0-.18-.17-.17h-1c-.65,0-.65,0-.64.65,0,.28-.1.65,0,.81s.54,0,.78,0h.8c.13,0,.17,0,.17-.18Q47.22,46.82,47.24,46.23Zm-.17-.17h-1c-.65,0-.65,0-.64.65,0,.28-.1.65,0,.81s.54,0,.78,0h.8c.13,0,.17,0,.17-.18q0-.59,0-1.17C47.24,46.1,47.21,46.05,47.07,46.06Zm.17-3.14c0-.75,0-1.51,0-2.26,0-.16,0-.21-.2-.21-.45,0-.91,0-1.37,0-.19,0-.23.07-.23.25q0,2.2,0,4.41c0,.16,0,.23.21.23.46,0,.93,0,1.39,0,.17,0,.2-.06.2-.21C47.23,44.39,47.24,43.66,47.24,42.92Zm-.3-9.79A11.43,11.43,0,0,0,35,44.58,11.41,11.41,0,0,0,46.14,55.91a11.4,11.4,0,0,0,.8-22.78Zm7,17.27a9.2,9.2,0,0,1-3.63,2.85A10,10,0,0,1,48,54a10.44,10.44,0,0,1-2.43.09,8.82,8.82,0,0,1-2.67-.63A9.74,9.74,0,0,1,40.38,52a8.59,8.59,0,0,1-1.91-2.12,1.39,1.39,0,0,0,1,.22H53.34a1.23,1.23,0,0,0,1-.39A1.58,1.58,0,0,1,53.94,50.4ZM40.66,48.28c1.89-3.29,3.79-6.57,5.7-9.88l5.7,9.88ZM55.31,48a9.71,9.71,0,0,1-.79,1.58c0,.05,0,.12-.12.11a1.09,1.09,0,0,0-.06-1.09c-.61-1-1.22-2.07-1.82-3.11s-1-1.81-1.54-2.71l-1.8-3.09L47.62,37c-.15-.27-.3-.54-.46-.8a.9.9,0,0,0-1.59,0c-.53.87-1,1.75-1.53,2.62S43,40.61,42.45,41.53s-.93,1.64-1.4,2.45L39.1,47.34c-.24.43-.5.86-.74,1.3-.13.25-.31.5-.14.82a8.77,8.77,0,0,1-1.12-2.57,9.54,9.54,0,0,1,.52-6.25,9.61,9.61,0,0,1,9.05-5.72,9.66,9.66,0,0,1,3.43.76A9.32,9.32,0,0,1,53.41,38a9.45,9.45,0,0,1,2.29,4.31A9.57,9.57,0,0,1,56,44.85,9.69,9.69,0,0,1,55.31,48Zm-8.24-1.94h-1c-.65,0-.65,0-.64.65,0,.28-.1.65,0,.81s.54,0,.78,0h.8c.13,0,.17,0,.17-.18q0-.59,0-1.17C47.24,46.1,47.21,46.05,47.07,46.06Zm.17-3.14c0-.75,0-1.51,0-2.26,0-.16,0-.21-.2-.21-.45,0-.91,0-1.37,0-.19,0-.23.07-.23.25q0,2.2,0,4.41c0,.16,0,.23.21.23.46,0,.93,0,1.39,0,.17,0,.2-.06.2-.21C47.23,44.39,47.24,43.66,47.24,42.92Zm0,0c0-.75,0-1.51,0-2.26,0-.16,0-.21-.2-.21-.45,0-.91,0-1.37,0-.19,0-.23.07-.23.25q0,2.2,0,4.41c0,.16,0,.23.21.23.46,0,.93,0,1.39,0,.17,0,.2-.06.2-.21C47.23,44.39,47.24,43.66,47.24,42.92Zm0,3.31c0-.13,0-.18-.17-.17h-1c-.65,0-.65,0-.64.65,0,.28-.1.65,0,.81s.54,0,.78,0h.8c.13,0,.17,0,.17-.18Q47.22,46.82,47.24,46.23Zm0,0c0-.13,0-.18-.17-.17h-1c-.65,0-.65,0-.64.65,0,.28-.1.65,0,.81s.54,0,.78,0h.8c.13,0,.17,0,.17-.18Q47.22,46.82,47.24,46.23Zm0-3.31c0-.75,0-1.51,0-2.26,0-.16,0-.21-.2-.21-.45,0-.91,0-1.37,0-.19,0-.23.07-.23.25q0,2.2,0,4.41c0,.16,0,.23.21.23.46,0,.93,0,1.39,0,.17,0,.2-.06.2-.21C47.23,44.39,47.24,43.66,47.24,42.92Zm0,0c0-.75,0-1.51,0-2.26,0-.16,0-.21-.2-.21-.45,0-.91,0-1.37,0-.19,0-.23.07-.23.25q0,2.2,0,4.41c0,.16,0,.23.21.23.46,0,.93,0,1.39,0,.17,0,.2-.06.2-.21C47.23,44.39,47.24,43.66,47.24,42.92Zm0,3.31c0-.13,0-.18-.17-.17h-1c-.65,0-.65,0-.64.65,0,.28-.1.65,0,.81s.54,0,.78,0h.8c.13,0,.17,0,.17-.18Q47.22,46.82,47.24,46.23Zm0,0c0-.13,0-.18-.17-.17h-1c-.65,0-.65,0-.64.65,0,.28-.1.65,0,.81s.54,0,.78,0h.8c.13,0,.17,0,.17-.18Q47.22,46.82,47.24,46.23Zm0-3.31c0-.75,0-1.51,0-2.26,0-.16,0-.21-.2-.21-.45,0-.91,0-1.37,0-.19,0-.23.07-.23.25q0,2.2,0,4.41c0,.16,0,.23.21.23.46,0,.93,0,1.39,0,.17,0,.2-.06.2-.21C47.23,44.39,47.24,43.66,47.24,42.92Zm0,0c0-.75,0-1.51,0-2.26,0-.16,0-.21-.2-.21-.45,0-.91,0-1.37,0-.19,0-.23.07-.23.25q0,2.2,0,4.41c0,.16,0,.23.21.23.46,0,.93,0,1.39,0,.17,0,.2-.06.2-.21C47.23,44.39,47.24,43.66,47.24,42.92Zm0,3.31c0-.13,0-.18-.17-.17h-1c-.65,0-.65,0-.64.65,0,.28-.1.65,0,.81s.54,0,.78,0h.8c.13,0,.17,0,.17-.18Q47.22,46.82,47.24,46.23Zm0,0c0-.13,0-.18-.17-.17h-1c-.65,0-.65,0-.64.65,0,.28-.1.65,0,.81s.54,0,.78,0h.8c.13,0,.17,0,.17-.18Q47.22,46.82,47.24,46.23Zm0-3.31c0-.75,0-1.51,0-2.26,0-.16,0-.21-.2-.21-.45,0-.91,0-1.37,0-.19,0-.23.07-.23.25q0,2.2,0,4.41c0,.16,0,.23.21.23.46,0,.93,0,1.39,0,.17,0,.2-.06.2-.21C47.23,44.39,47.24,43.66,47.24,42.92Zm0,0c0-.75,0-1.51,0-2.26,0-.16,0-.21-.2-.21-.45,0-.91,0-1.37,0-.19,0-.23.07-.23.25q0,2.2,0,4.41c0,.16,0,.23.21.23.46,0,.93,0,1.39,0,.17,0,.2-.06.2-.21C47.23,44.39,47.24,43.66,47.24,42.92Zm0,3.31c0-.13,0-.18-.17-.17h-1c-.65,0-.65,0-.64.65,0,.28-.1.65,0,.81s.54,0,.78,0h.8c.13,0,.17,0,.17-.18Q47.22,46.82,47.24,46.23Zm0,0c0-.13,0-.18-.17-.17h-1c-.65,0-.65,0-.64.65,0,.28-.1.65,0,.81s.54,0,.78,0h.8c.13,0,.17,0,.17-.18Q47.22,46.82,47.24,46.23Zm0-3.31c0-.75,0-1.51,0-2.26,0-.16,0-.21-.2-.21-.45,0-.91,0-1.37,0-.19,0-.23.07-.23.25q0,2.2,0,4.41c0,.16,0,.23.21.23.46,0,.93,0,1.39,0,.17,0,.2-.06.2-.21C47.23,44.39,47.24,43.66,47.24,42.92Zm0,0c0-.75,0-1.51,0-2.26,0-.16,0-.21-.2-.21-.45,0-.91,0-1.37,0-.19,0-.23.07-.23.25q0,2.2,0,4.41c0,.16,0,.23.21.23.46,0,.93,0,1.39,0,.17,0,.2-.06.2-.21C47.23,44.39,47.24,43.66,47.24,42.92Zm0,3.31c0-.13,0-.18-.17-.17h-1c-.65,0-.65,0-.64.65,0,.28-.1.65,0,.81s.54,0,.78,0h.8c.13,0,.17,0,.17-.18Q47.22,46.82,47.24,46.23Zm0,0c0-.13,0-.18-.17-.17h-1c-.65,0-.65,0-.64.65,0,.28-.1.65,0,.81s.54,0,.78,0h.8c.13,0,.17,0,.17-.18Q47.22,46.82,47.24,46.23Zm0-3.31c0-.75,0-1.51,0-2.26,0-.16,0-.21-.2-.21-.45,0-.91,0-1.37,0-.19,0-.23.07-.23.25q0,2.2,0,4.41c0,.16,0,.23.21.23.46,0,.93,0,1.39,0,.17,0,.2-.06.2-.21C47.23,44.39,47.24,43.66,47.24,42.92Z" transform="translate(0 0)"></path><polygon class="cls-2" points="54.4 49.69 54.4 49.69 54.39 49.68 54.4 49.69"></polygon><path class="cls-2" d="M47.24,45.13c0,.15,0,.21-.2.21-.46,0-.93,0-1.39,0-.19,0-.21-.07-.21-.23q0-2.2,0-4.41c0-.18,0-.25.23-.25.46,0,.92,0,1.37,0,.16,0,.2,0,.2.21,0,.75,0,1.51,0,2.26S47.23,44.39,47.24,45.13Z" transform="translate(0 0)"></path><path class="cls-2" d="M47.24,46.23q0,.59,0,1.17c0,.14,0,.18-.17.18h-.8c-.24,0-.62.13-.78,0s0-.53,0-.81c0-.65,0-.65.64-.65h1C47.21,46.05,47.24,46.1,47.24,46.23Z" transform="translate(0 0)"></path><path class="cls-2" d="M54.4,49.69l0,0v0Z" transform="translate(0 0)"></path><path class="cls-2" d="M47.24,45.13c0,.15,0,.21-.2.21-.46,0-.93,0-1.39,0-.19,0-.21-.07-.21-.23q0-2.2,0-4.41c0-.18,0-.25.23-.25.46,0,.92,0,1.37,0,.16,0,.2,0,.2.21,0,.75,0,1.51,0,2.26S47.23,44.39,47.24,45.13Z" transform="translate(0 0)"></path><path class="cls-2" d="M47.24,47.4c0,.14,0,.18-.17.18h-.8c-.24,0-.62.13-.78,0s0-.53,0-.81c0-.65,0-.65.64-.65h1c.14,0,.17,0,.17.17Q47.22,46.82,47.24,47.4Z" transform="translate(0 0)"></path></svg>