<svg xmlns="http://www.w3.org/2000/svg" xmlns:xlink="http://www.w3.org/1999/xlink" id="Layer_1" x="0px" y="0px" viewBox="0 0 91 91" style="enable-background:new 0 0 91 91;" xml:space="preserve"> <style type="text/css"> .st0{fill-rule:evenodd;clip-rule:evenodd;fill:#FFFFFF;} .st1{fill-rule:evenodd;clip-rule:evenodd;fill:#0B2852;} </style> <g> <circle class="st0" cx="45.5" cy="45.5" r="45.5"></circle> <path class="st1" d="M51.2,42.61l0,24.5c0,6.96,1.38,5.69,10.15,5.75l12.61,0.01c4.34,0.05,3.52-3.87,3.54-7.56v-22.7 c0-4.83-2.45-4.18-6.61-4.19H59.55C54.71,38.42,51.21,37.21,51.2,42.61L51.2,42.61z M42.77,36.85l-0.01,0.54 c0.63,0.34,0.65,0.21,2.75,0.22c0.48,0,0.96,0,1.44,0.01c0.59,0.01,1.03,0.07,1.48-0.23l-0.28-0.67l-4.64-0.09 c-0.26,0.02-0.09-0.01-0.33,0.05C42.83,36.76,42.98,36.71,42.77,36.85L42.77,36.85z M66.16,22.54c-0.49-0.98-1.3-0.77-2.64-0.76 l-39.63,0c-1.73,0-5.8-0.58-6.51,0.65c-0.48,0.83-0.16,24.89-0.21,28.65c-0.01,1.14-0.15,2.43,0.86,2.76 c1.19,0.38,30.06-0.31,32.09,0.2L50.1,60c-1.23,0.3-22.77,0.1-26.03,0.11c-6.33,0.01-10.66,1.03-10.57-6.87L13.49,27.3 c-0.02-2.98-0.39-5.66,1.27-7.51c1.72-1.92,3.74-1.69,6.97-1.67l34.76,0.01c2.85,0.02,5.82-0.1,8.66,0c2.2,0.07,4.65,1.85,4.63,3.9 c0.51,0.71,0.32,2.98,0.33,3.84c0,1.26-0.02,2.52-0.02,3.78c0,1.68,0.22,6.36-0.09,7.77l-3.74-0.12L66.16,22.54L66.16,22.54z M56.71,64.41c0.56-0.33,11.82-0.33,12.4,0l0.03,0.54c-0.22,0.17-0.05,0.1-0.42,0.2l-11.49,0.04L56.71,64.41L56.71,64.41z M56.73,62.13l-0.03-0.91c1.51-0.14,14.51-0.16,15.34,0.08l-0.03,0.86L56.73,62.13L56.73,62.13z M42.72,30.81 c0.85,0.31,16.73,0.3,18.41,0.1l0.01-0.73c-0.46-0.25-17.21-0.35-18.39-0.06L42.72,30.81L42.72,30.81z M42.74,34.2 c1.1,0.3,18.02,0.17,18.39-0.06l0.02-0.73c-1.59-0.24-17.61-0.23-18.42,0.1L42.74,34.2L42.74,34.2z M56.62,46.21l0.06-2.51 c1.59-0.21,14.52-0.26,15.4,0.12l0,2.31C71.31,46.44,58.1,46.42,56.62,46.21L56.62,46.21z M32.97,66.93 c0.62,0.42,16.9,0.42,17.57,0c-0.06-1.43-1.44-0.02-2.86-1.81c-0.89-1.11-0.82-2.38-0.95-3.89l-9.88-0.05 c-0.18,1.62-0.18,4.16-2.32,4.85C33.56,66.35,33,65.93,32.97,66.93L32.97,66.93z M21.71,42.61l0.03,7.91 c0.72,0.53,0.6,0.5,1.6,0.51l6.68-0.01c1.24,0,1.07,0.18,1.91-0.52l0.09-7.89c0-2.5-0.62-1.92-6.49-1.92 c-0.73,0-2.2-0.07-2.85,0.02C21.66,40.87,21.71,41.5,21.71,42.61L21.71,42.61z M38.12,51.03h6.3c3.06,0,2.46-0.19,2.47-5.54 c0-5.79,1.33-4.77-8.23-4.8c-2.55-0.01-2.06,0.12-2.07,4.98C36.59,49.68,36.08,51.03,38.12,51.03L38.12,51.03z M21.7,34.14 c0,3.29-0.28,2.96,3.63,2.95l10.63,0.01c2.43,0.01,2.29,0,2.3-2.96c0.01-4.18,1.14-3.61-8.24-3.6 C20.95,30.56,21.7,29.57,21.7,34.14L21.7,34.14z M56.69,58.54l-0.01-9.45c1.52-0.18,14.6-0.21,15.38,0.11l-0.04,9.38L56.69,58.54 L56.69,58.54z M18.27,26.8c8.05,0.32,18.81,0.06,27.24,0.11c3.81,0.03,16.82,0.13,19.69-0.07c0.08-0.88,0.03-1.77,0.05-2.62 c0.03-1.69,0.4-1.35-3.88-1.38l-40.53,0c-0.53,0-1.12-0.02-1.64-0.01C18.03,22.88,17.97,23.32,18.27,26.8L18.27,26.8z M41.05,55.97 c-1.58,1.11-0.03,3.04,1.44,2.18C43.83,57.38,42.71,54.8,41.05,55.97L41.05,55.97z M53.43,42.61c0-2.26,1.36-1.73,3.43-1.73 l12.97,0c6.02,0.02,5.42-0.5,5.44,3.36l0,17.11c0.04,6.78,0.77,7.01-2.56,7.01l-13.15,0c-3.72,0.02-6.13,0.71-6.13-1.61V42.61 L53.43,42.61z M62.85,71.22c-0.3-1.35,0.28-1.82,1.61-1.62c0.72,1.05,0.65,1.11-0.12,2.06C63.33,71.71,63.41,71.59,62.85,71.22z"></path> </g> </svg>