<svg xmlns="http://www.w3.org/2000/svg" xmlns:xlink="http://www.w3.org/1999/xlink" id="Layer_1" x="0px" y="0px" viewBox="0 0 45 45" style="enable-background:new 0 0 45 45;" xml:space="preserve"> <style type="text/css"> .st0{fill-rule:evenodd;clip-rule:evenodd;fill:#FFFFFF;} .st1{fill-rule:evenodd;clip-rule:evenodd;fill:#0A2852;} </style> <circle class="st0" cx="22.5" cy="22.5" r="22.5"></circle> <g> <path class="st1" d="M18.06,31.54l18.74-0.01l0.01,1.97l-18.74,0.01L18.06,31.54L18.06,31.54z M8.19,31.54l0.99-0.01l0.01,1.97 L8.2,33.51L8.19,31.54L8.19,31.54z M31.44,27.96c0-0.13,0.28-1.26,0.34-1.36h0.21c0.09,0.3,0.17,0.66,0.25,0.99 c0.07,0.25,0.13,0.31-0.03,0.47C31.7,28.56,31.91,28.29,31.44,27.96L31.44,27.96z M30.64,26.99c0.09-0.04,0.1-0.12,0.11-0.32 c-0.12-0.04-0.05-0.04-0.18-0.01c-0.16,0.04-0.16,0.08-0.18,0.1c-0.3,0.01-0.96,0.42-1.12,0.56c-0.28,0.23-0.66,0.58-0.8,0.88 c-0.06,0.04-0.02-0.01-0.07,0.05c-0.07,0.1-0.01,0-0.04,0.12c-0.33,0.73-0.52,1.26-0.43,2.17l7.89,0.01 c0.06-0.56-0.02-1.18-0.2-1.68c-0.05-0.13-0.15-0.29-0.19-0.41c-0.03-0.1-0.01-0.07-0.06-0.16c-0.01-0.02-0.03-0.05-0.04-0.06 c-0.05-0.07-0.02-0.03-0.08-0.08c-0.1-0.19-0.24-0.28-0.34-0.44c-0.06-0.1-0.12-0.15-0.22-0.22c-0.07-0.04-0.14-0.12-0.21-0.17 c-0.06-0.1-0.14-0.15-0.24-0.18c0-0.01-0.01-0.02-0.02-0.02c0,0-0.15-0.13-0.33-0.18c-0.17-0.05-0.52-0.25-0.71-0.23 c-0.07-0.09-0.03-0.09-0.18-0.06c-0.01,0.03-0.05,0-0.02,0.12c0.04,0.16,0.05,0.1,0.08,0.13c0.03,0.28,0.14,0.58,0.2,0.85 c0.14,0.63-0.03,0.62-0.72,1.31c-0.81,0.82-0.8,0.58-1.82-0.45c-0.22-0.22-0.4-0.3-0.3-0.75C30.49,27.63,30.64,27.17,30.64,26.99 L30.64,26.99z M14.32,25.66c-0.05,0.09,0.06,0.03-0.07,0.09c-0.06,0.12,0,0.04-0.08,0.05l-0.01,0.05c0,0.05,0.01,0.03-0.06,0.04 l0,0.01c-0.02,0.05-0.03,0.07-0.05,0.1c-0.03,0.04-0.03,0.03-0.06,0.06c-0.19,0.34-0.25,0.52-0.24,0.97 c0.01,0.33,0.15,0.69,0.32,0.89l0.08,0.1c0.11,0.15,0.25,0.24,0.39,0.35c0.11,0.04,0.22,0.1,0.31,0.2 c0.17,0.14,0.37,0.25,0.57,0.38c0.2,0.13,0.39,0.27,0.6,0.4l0.3,0.2l0.15,0.1c0.1,0.03,0.13,0.05,0.22,0.13l0.19,0.13 c0.06,0.02,0.07,0.02,0.1,0.05c0.07,0.05,0.01,0.01,0.05,0.07l0.06,3.47l-6.91,0.01c-0.04-0.42-0.01-6.01-0.01-6.91 c0.01-1.28,0.01-0.93,0.41-1.88l0.15-0.19c0.31-0.26,0.41-0.52,1.11-0.76c0.53-0.18,1.17-0.13,1.78-0.13 c1.07,0,1.84-0.09,2.67,0.66c0.09,0.08,0.15,0.17,0.24,0.23l0.1,0.15c0.21,0.33,0.47,0.85,0.44,1.36 c-0.11-0.03-0.59-0.37-0.66-0.45c-0.06-0.02-0.07-0.02-0.11-0.05c-0.05-0.03-0.02-0.02-0.06-0.06c-0.25-0.15-0.64-0.27-1.03-0.22 C14.75,25.33,14.59,25.5,14.32,25.66L14.32,25.66z M22.69,25.45c0.11-0.1,0.16-0.1,0.24-0.25c0.08-0.14,0.09-0.31,0.02-0.46 c-0.12-0.27-0.39-0.33-0.7-0.24l-0.11,0.07c-0.2,0.17-0.43,0.31-0.63,0.46c-0.22,0.15-0.44,0.33-0.65,0.46l-0.19,0.14l-0.39,0.29 l-0.1,0.07l0.01-0.01C20.1,26,20.17,25.95,20.1,26c-0.1,0.07-0.03,0.02-0.08,0.08c-0.12,0.07-0.29,0.19-0.39,0.28 c-0.1,0.04-0.16,0.07-0.24,0.17l-0.03,0.02c-0.06,0.02-0.09,0.02-0.13,0.06c-0.09,0.07-0.05,0.05-0.08,0.11 c-0.07,0.01-0.09,0.04-0.16,0.09c-0.08,0.03-0.08,0.04-0.14,0.08c0,0-0.05,0.04-0.06,0.04c-0.03,0.03-0.03,0.03-0.06,0.06 l-0.07,0.05c-0.11,0.04-0.12,0.04-0.2,0.14c-0.05,0.04-0.19,0.14-0.26,0.19c-0.06,0.03-0.08,0.03-0.12,0.06 c-0.08,0.07-0.05,0.05-0.09,0.11c-0.25,0.06-0.31,0.14-0.56-0.03l-0.1-0.07c-0.23-0.14-0.44-0.31-0.68-0.49 c-0.23-0.17-0.46-0.32-0.69-0.5l-0.1-0.07c-0.32-0.24-0.66-0.18-0.95,0.05l-0.08,0.1c-0.15,0.23-0.18,0.57,0,0.8 c0.05,0.11,0.04,0.1,0.14,0.16c0.33,0.2,0.69,0.43,0.96,0.64c0.07,0.09,0.31,0.24,0.41,0.29l0.02,0c0.04,0.05,0,0.03,0.06,0.06 c0.04,0.03,0.05,0.03,0.11,0.05c0.29,0.21,0.6,0.36,0.88,0.59l0.1,0.07c0.11,0.06,0.13,0.12,0.24,0.07l0.1-0.07l0.2-0.14l0.24-0.18 c0.04-0.05,0.12-0.11,0.19-0.16c0.09-0.04,0,0.03,0.08-0.04c0.09-0.08,0.02-0.02,0.07-0.09c0.06-0.03,0.09-0.06,0.15-0.1l0.1-0.07 c0.06-0.08,0.97-0.78,1.08-0.84c0.07-0.04,0.01,0.01,0.08-0.04c0.1-0.09,0.02-0.02,0.07-0.09c0.34-0.22,0.71-0.58,1.03-0.8 c0.07-0.03,0.01,0.02,0.08-0.04c0.08-0.06,0.03-0.02,0.07-0.08c0.29-0.22,0.67-0.5,0.91-0.7l0.09-0.08l0.2-0.14L22.69,25.45 L22.69,25.45z M10.24,23.62c-0.03,0.07,0.04,0.06-0.03,0.06c0,0.05,0.01,0.03-0.06,0.03c-0.05,0.08-0.15,0.18-0.21,0.26 c-0.66,0.87-0.76,1.5-0.75,2.66c0,0.64,0.03,3.49-0.01,3.91c-0.55,0.05-1.22-0.07-1.7,0.06c-0.06,0.1-0.08,0.07-0.14,0.14 L7.24,30.9c-0.06,0.33-0.02,1.29-0.02,1.69c0.01,0.51-0.07,1.19,0.05,1.63l0.16,0.15c0.05,0.05,0.01,0,0.05,0.07 c0.38,0.12,3.06,0.05,3.71,0.05c1.25-0.01,2.5,0,3.75,0c4.98-0.01,10.08-0.03,15.06,0c0.53,0,7.06,0.04,7.44-0.02 c0.01-0.01,0.02-0.03,0.02-0.02c0,0.01,0.02-0.02,0.02-0.02c0.01,0,0.04-0.02,0.05-0.03c0.1-0.07,0.06-0.01,0.15-0.14 c0-0.01,0.01-0.01,0.01-0.02c0-0.01,0.01-0.01,0.01-0.02c0.03-0.05,0.03-0.04,0.06-0.07c0.07-0.4,0.02-1.23,0.02-1.69 c0-0.54,0.05-1.16-0.05-1.64l-0.04-0.03c0-0.01-0.01-0.01-0.02-0.02l-0.23-0.19l-0.63-0.03c-0.03-0.26,0-0.52-0.01-0.78 c-0.04-0.55-0.25-1.33-0.52-1.78c-0.03-0.03-0.03-0.02-0.07-0.09c-0.04-0.07,0,0-0.03-0.09c-0.13-0.25-0.33-0.47-0.51-0.7 c-0.07-0.04-0.03,0.05-0.08-0.1l-0.17-0.17c-0.15-0.06-0.06-0.01-0.1-0.09l-0.1-0.06c-0.03-0.02-0.07-0.05-0.09-0.06 c-0.05-0.05-0.01-0.01-0.05-0.07c-1.01-0.71-1.58-0.92-3.18-0.93c-0.7-0.01-1.25,0.01-1.86,0.21c-0.79,0.25-0.91,0.47-1.35,0.7 c-0.04,0.08,0.01,0.03-0.09,0.1c-0.02,0.01-0.07,0.04-0.1,0.05l-0.22,0.2c-0.04,0.07-0.02,0.05-0.09,0.09l-0.19,0.22 c-0.02,0.04-0.05,0.09-0.07,0.11c-0.08,0.09-0.01,0.02-0.09,0.07c-0.25,0.48-0.44,0.55-0.7,1.35c-0.26,0.83-0.15,1.16-0.22,1.83 l-8.87-0.01l-0.01-0.25c0.04-0.09-0.02-0.04,0.09-0.08l0.19-0.16l0.1-0.08c0.12-0.06,0.3-0.23,0.4-0.31 c0.07-0.1,0.12-0.13,0.22-0.19c0.04-0.01,0.06-0.03,0.11-0.07l0.08-0.08c0.06-0.04,0.01-0.01,0.08-0.04L19.68,29l0.1-0.07 l0.11-0.08c0.04-0.05-0.02-0.04,0.11-0.07l0.01-0.04l0.19-0.14c0.1-0.06,0.22-0.18,0.31-0.24l0.05-0.07 c0.01-0.01,0.02-0.01,0.02-0.02c0.06-0.05,0.01-0.01,0.08-0.04l0.62-0.49l0.11-0.07l0.19-0.16l0.1-0.08l0.02-0.01l0.03-0.05 c0.01-0.01,0.01-0.02,0.02-0.02c0.01,0,0.02-0.01,0.02-0.02c0.08-0.07-0.01,0,0.08-0.04l0.06-0.06l0.11-0.08l0.2-0.15l0.19-0.15 l0.07-0.05l0.11-0.08l0.01-0.01c0.04-0.06,0-0.03,0.07-0.09c0.07-0.05,0.01,0,0.08-0.04l0.19-0.12c0.05-0.12,0.03-0.09,0.15-0.14 l0.19-0.15l0.13-0.12l0.09-0.07c0.24-0.16,0.46-0.62,0.48-1.03c0.01-0.42-0.17-0.86-0.41-1.07l-0.08-0.08 c-0.04-0.02-0.05-0.03-0.08-0.05c-0.01-0.01-0.03-0.03-0.03-0.04c-0.01-0.02-0.01-0.02-0.02-0.03c-0.31-0.14-0.39-0.26-0.85-0.27 c-0.3,0-0.65,0.1-0.83,0.25l-0.1,0.07c-0.18,0.11-0.37,0.29-0.54,0.37c-0.04,0.06,0.01,0.02-0.07,0.09 c-0.07,0.05-0.01,0.01-0.08,0.04l0,0l-0.1,0.07c-0.12,0.09-1.09,0.8-1.18,0.81c-0.05,0.08,0,0.03-0.07,0.1 c-0.01,0.01-0.06,0.05-0.07,0.06c-0.08,0.06-0.06,0.05-0.16,0.09l-0.16,0.13l-0.11,0.07l-0.17,0.11c-0.13,0.15,0.03,0.04-0.16,0.12 l-0.06,0.05c-0.06,0.08-0.15,0.15-0.24,0.19c-0.14,0.05-0.16,0.14-0.34,0.16c0-0.14,0-0.33-0.02-0.47 c-0.01-0.12-0.05-0.19-0.05-0.34c-0.08-0.08-0.06-0.06-0.07-0.18c-0.01-0.19-0.18-0.55-0.26-0.7c-0.13-0.27-0.27-0.39-0.38-0.59 c-0.06-0.04-0.05-0.02-0.08-0.1l0,0.02l-0.09-0.1l-0.03-0.06c-0.06-0.03-0.05,0.04-0.07-0.03L17,23.62l-0.13-0.11 c-0.08-0.03-0.06-0.02-0.1-0.08c-0.5-0.29-0.48-0.45-1.41-0.68c-0.6-0.15-1.34-0.08-2-0.09c-1.08,0-1.68,0-2.56,0.53 C10.6,23.32,10.41,23.53,10.24,23.62z"></path> <path class="st1" d="M18.55,15.5c-0.01-0.4,0.05-2.18-0.04-2.4c-0.14-0.35-0.49-0.3-0.91-0.31c-0.41,0-0.81,0-1.22,0 c-0.38,0-0.74-0.02-0.79-0.43l-0.01-2.43c0.01-1.16-0.01-1.1,1.35-1.09c0.41,0,0.81,0,1.22,0c2.41,0,4.91,0.03,7.3,0 c0.79-0.01,1.65-0.02,2.43,0c0.45,0.01,0.53,0.28,0.53,0.7c0,0.41,0,0.81,0,1.22c0,0.41,0,0.81,0,1.22c0,0.38,0,0.75-0.4,0.82 l-2.43,0.01c-0.81,0-1.62,0-2.43,0c-0.41,0-0.81,0-1.22,0c-0.6,0-0.6-0.05-0.92,0.29l-2.28,2.29 C18.66,15.46,18.67,15.47,18.55,15.5L18.55,15.5z M15.32,8.09L15.16,8.2c-0.73,0.67-0.54,1.39-0.54,2.62c0,0.52-0.02,1.06,0,1.58 c0.02,0.49,0.27,0.77,0.54,1.04l0.17,0.11c0.52,0.39,1.5,0.16,2.24,0.24l0.01,3.08c0.14,0.07,0.03,0.07,0.2,0.23l0.05,0.06 c0.01,0,0.01,0.02,0.02,0.02c0.48,0.13,0.58-0.08,1.13-0.65c0.81-0.84,1.87-1.82,2.63-2.63c0.13-0.14,0.13-0.12,0.38-0.12l5.72,0 c0.68,0,1.03-0.15,1.37-0.54l0.07-0.1c0.24-0.27,0.27-0.71,0.27-1.16c0-0.48,0-0.96,0-1.45c-0.01-1.05,0.14-1.76-0.55-2.32 c-0.05-0.03-0.06-0.03-0.1-0.06c-0.03-0.02-0.04-0.04-0.06-0.06c-0.38-0.26-0.92-0.22-1.46-0.22H16.81 C16.26,7.87,15.71,7.81,15.32,8.09z"></path> <path class="st1" d="M26.22,20.25c-0.04,0.06-0.01,0.02-0.05,0.06l-0.16,0.15c-0.11,0.39,0.04,0.48,0.07,0.84 c-0.27-0.1-0.67-0.53-0.94-0.7c-0.09-0.04-0.13-0.06-0.17-0.14l-0.09-0.07c-0.32-0.28-0.56-0.19-1.06-0.19 c-0.39,0-0.94,0.03-1.31-0.01l-0.01-2.95l4.93-0.01l0.01,2.96C27.01,20.23,26.61,20.15,26.22,20.25L26.22,20.25z M21.86,16.27 c-0.1,0.09-0.12,0.08-0.17,0.12c-0.03,0.03-0.04,0.05-0.06,0.07c-0.05,0.05,0,0.01-0.06,0.05c-0.11,0.41-0.05,1.65-0.05,2.2 c0,0.49-0.06,1.86,0.05,2.19l0.22,0.22c0.33,0.11,1.23,0.06,1.67,0.05c0.16,0,0.73-0.02,0.84,0.01c0.13,0.04,0.34,0.29,0.5,0.36 c0.06,0.03,0.02,0,0.08,0.04c0.07,0.07,0.03,0.02,0.07,0.09l0.02,0c0.07,0.04,0.01-0.01,0.08,0.04c0.07,0.06,0.03,0.03,0.07,0.09 c0.06,0.03,0.13,0.1,0.18,0.14c0.08,0.04,0-0.03,0.08,0.04c0.1,0.08,0.02,0.01,0.07,0.09c0.06,0.02,0.37,0.28,0.42,0.34 c0.15,0.05,0.07,0.02,0.11,0.08c0.19,0.14,0.32,0.24,0.47,0.37l0.1,0.08l0.02,0.03l0.21,0.12c0.01,0.01,0.02,0.02,0.02,0.02 c0.19,0.03,0.21,0.01,0.37-0.04c0.04-0.06,0-0.02,0.05-0.06l0.16-0.15c0.13-0.58-0.27-1.14-0.28-1.7l0.97-0.03l0.29-0.25 c0.12-0.46,0.05-1.63,0.05-2.2c0-0.56,0.06-1.72-0.05-2.2c-0.01,0-0.02-0.01-0.02-0.02l-0.04-0.04c-0.01,0-0.01-0.01-0.02-0.02 c-0.15-0.15-0.08-0.04-0.21-0.17C27.74,16.23,22.09,16.23,21.86,16.27z"></path> <path class="st1" d="M11.56,17.32l0.15-0.18c0-0.01,0.02-0.01,0.03-0.02l0.07-0.09l0.07-0.08l0.09-0.07l0.08-0.07 c0.04-0.06,0.01-0.03,0.05-0.07c0.01-0.01,0.03-0.03,0.04-0.03c0.06-0.05,0.05-0.03,0.11-0.07c0.23-0.09,0.37-0.22,0.7-0.31 c0.29-0.08,0.6-0.13,0.94-0.09c0.58,0.07,1.08,0.31,1.42,0.64l0.08,0.07l0.07,0.08l0.07,0.08c0.06,0.04,0.03,0.01,0.07,0.05 c0.01,0.01,0.03,0.03,0.03,0.04c0.05,0.06,0.04,0.05,0.07,0.11c0.07,0.2,0.22,0.41,0.31,0.69c0.09,0.28,0.12,0.63,0.09,0.96 c-0.05,0.53-0.32,1.07-0.64,1.41l-0.07,0.08l-0.08,0.07c-0.31,0.3-0.88,0.59-1.41,0.64c-0.35,0.03-0.63,0-0.94-0.08 c-0.31-0.09-0.46-0.23-0.71-0.32c-0.07-0.03-0.06-0.02-0.11-0.07c-0.01-0.01-0.03-0.03-0.04-0.03c-0.04-0.04-0.01-0.01-0.05-0.07 l-0.16-0.13l-0.08-0.09c-0.02-0.03-0.04-0.05-0.07-0.09c-0.01-0.01-0.02-0.02-0.02-0.02l-0.14-0.18c-0.14-0.38-0.41-0.6-0.41-1.39 C11.15,17.93,11.42,17.71,11.56,17.32L11.56,17.32z M11.38,16.11l-0.09,0.09c-0.08,0.04-0.24,0.23-0.32,0.32 c-0.04,0.1,0,0.07-0.11,0.14c-0.88,1.18-0.93,2.83,0,4.1c0.11,0.07,0.06,0.04,0.11,0.14l0.06,0.05l0.09,0.1l0.17,0.17l0.09,0.09 l0.05,0.06c0.1,0.04,0.07,0.01,0.15,0.1c0.56,0.44,1.55,0.8,2.46,0.66c0.48-0.07,0.8-0.17,1.21-0.39c0.33-0.17,0.75-0.49,0.89-0.7 l0.08-0.09c0.23-0.16,0.57-0.86,0.67-1.14c0.18-0.48,0.21-1.09,0.13-1.63c-0.12-0.87-0.77-1.93-1.42-2.28l-0.22-0.15 c-0.2-0.09-0.48-0.27-0.68-0.3c-0.09,0-0.15,0.02-0.15-0.06c-0.53-0.03-0.71-0.27-1.83,0C12.28,15.5,11.62,15.85,11.38,16.11z"></path> <path class="st1" d="M32.61,20.31c0.11,0.05,0.12,0.03,0.2,0.12c0.07,0.03,0.14,0.08,0.2,0.12c0.05,0.02,0.08,0.03,0.12,0.06 c0.09,0.08,0.02,0,0.06,0.09c0.11,0.09,0.19,0.2,0.29,0.32c0.09,0.09,0.1,0.11,0.12,0.22c0.93,1.66-0.92,3.61-2.67,2.67 c-0.11-0.03-0.13-0.04-0.22-0.13c-0.11-0.1-0.24-0.17-0.31-0.29c-0.11-0.05-0.07,0-0.14-0.15c-0.22-0.4-0.38-0.61-0.38-1.17 c-0.01-1.13,0.93-2.01,2.04-1.98C32.16,20.19,32.51,20.31,32.61,20.31L32.61,20.31z M29.92,19.96l-0.1,0.09l-0.07,0.07l-0.09,0.1 c-0.08,0.08-0.14,0.14-0.18,0.23l-0.08,0.11c-0.27,0.36-0.5,1.01-0.49,1.62c0.01,0.6,0.21,1.25,0.49,1.61l0.17,0.24 c0.1,0.14,0.31,0.32,0.43,0.44c0.02,0.01,0.09,0.04,0.11,0.05c0.01,0.01,0.03,0.02,0.04,0.03c0.05,0.04,0.02,0.02,0.05,0.07 c0.85,0.64,2.42,0.68,3.27,0.02l0.1-0.08c0.09-0.04,0.15-0.1,0.23-0.18l0.1-0.08l0.07-0.07l0.09-0.1c0.37-0.35,0.68-1.06,0.74-1.69 c0.06-0.68-0.19-1.55-0.51-1.91c-0.05-0.04-0.03-0.01-0.07-0.06c-0.01-0.01-0.02-0.03-0.03-0.04c-0.01-0.02-0.04-0.07-0.05-0.1 l-0.25-0.26l-0.1-0.09c-0.06-0.06-0.07-0.07-0.13-0.11l-0.19-0.14c-0.43-0.29-1.2-0.58-1.91-0.48c-0.33,0.05-0.66,0.14-0.95,0.26 C30.43,19.57,30.07,19.8,29.92,19.96z"></path> </g> </svg>