<svg xmlns="http://www.w3.org/2000/svg" id="Layer_1" data-name="Layer 1" viewBox="0 0 90 90"><defs><style>.cls-1{fill:#fff;}.cls-2{fill:#083264;}</style></defs><circle class="cls-1" cx="45" cy="45" r="45"></circle><path class="cls-2" d="M59.13,30.82c-.41,3-.46,5.86-1.22,8.54C56.41,44.59,52.75,48,47.74,50A4.74,4.74,0,0,1,44,49.88c-5.13-2.27-8.8-5.89-10-11.49a70.88,70.88,0,0,1-.9-7.45,2.57,2.57,0,0,1,.41.09,4.73,4.73,0,0,0,4.29-.45,15.67,15.67,0,0,1,10.19-2.25,14.31,14.31,0,0,1,6,2A5.18,5.18,0,0,0,59.13,30.82ZM49.28,41.23c-2.12,2.31-4.44,2.23-6.49,0l-1.11.85c2.34,3.16,6.82,3.12,8.66,0-.19-.16-.38-.32-.58-.47S49.44,41.34,49.28,41.23Zm-7.42-7a1.5,1.5,0,1,0-1.53,1.5A1.55,1.55,0,0,0,41.86,34.24Zm9.84-1.49a1.5,1.5,0,0,0-1.48,1.53,1.5,1.5,0,0,0,3,0A1.51,1.51,0,0,0,51.7,32.75Z" transform="translate(0.43)"></path><path class="cls-2" d="M51.78,19.18c1.16-3.1.6-5.58-1.62-7.4a6.69,6.69,0,0,0-7.6-.47c-2.58,1.61-3.27,3.86-2.37,7.83A27.94,27.94,0,0,0,30.4,23c-.07-.05-.15-.08-.15-.11,0-2.75-.48-5.53.3-8.25a9.83,9.83,0,0,1,5.14-6.37c3.65-1.87,7.42-3.14,11.58-2.83A21.71,21.71,0,0,1,57.83,9.2a9.21,9.21,0,0,1,4,7c.22,2.25,0,4.54,0,7A32,32,0,0,0,51.78,19.18Z" transform="translate(0.43)"></path><path class="cls-2" d="M35.59,29.86c-1.89,0-2.94-.81-3.28-2.23-.23-1-.43-1.93-.67-2.88a.74.74,0,0,1,.37-1,26.25,26.25,0,0,1,8.68-3.19,1.38,1.38,0,0,1,1,.29,6.67,6.67,0,0,0,8.76,0,1.2,1.2,0,0,1,.89-.25,29.32,29.32,0,0,1,8.63,3.09.8.8,0,0,1,.48,1.13c-.26.83-.39,1.7-.59,2.55-.51,2.21-2.49,3-4.55,2a26.46,26.46,0,0,0-5-2.1,16.73,16.73,0,0,0-13,1.75A18,18,0,0,1,35.59,29.86Z" transform="translate(0.43)"></path><path class="cls-2" d="M53.52,53.59l2.09.43c0,2.24,0,4.4,0,6.57a3.4,3.4,0,0,1-1.51,3c-2,1.43-4,2.9-6,4.35a3.06,3.06,0,0,1-4,0c-2-1.45-4-2.93-6-4.36a3.32,3.32,0,0,1-1.52-3c.05-1.66,0-3.33,0-5,0-.48,0-.95-.09-1.56l2.1-.47c.07.24.15.44.19.65a5.38,5.38,0,0,0,5.11,4.38c1.49.05,3,.05,4.48,0a5.39,5.39,0,0,0,5.15-4.45C53.45,54,53.47,53.84,53.52,53.59Z" transform="translate(0.43)"></path><path class="cls-2" d="M28.06,75.8V71.7H64.52v4.1Z" transform="translate(0.43)"></path><path class="cls-2" d="M64.46,70.11H47.54c.94-.65,1.85-1.27,2.74-1.9,1.58-1.14,3.14-2.29,4.73-3.42a4.74,4.74,0,0,0,2.1-4.11c0-1.78,0-3.55,0-5.33,0-1.07.36-1.43,1.41-1.44h4.74a1.14,1.14,0,0,1,1.3,1.23q0,7.36,0,14.73A1.31,1.31,0,0,1,64.46,70.11Z" transform="translate(0.43)"></path><path class="cls-2" d="M28,70.08V64.6c0-.16,0-.44.11-.45,1-.25.72-1,.73-1.67,0-1.35,0-2.71,0-4.06a2.48,2.48,0,0,0-1-2.15,1.18,1.18,0,0,1-.28-1.59,1.6,1.6,0,0,1,1.16-.74c1.63-.08,3.27,0,4.91,0,.87,0,1.26.44,1.26,1.33,0,1.84,0,3.67,0,5.5a4.67,4.67,0,0,0,2.07,4c2.07,1.47,4.11,3,6.17,4.45.41.29.86.53,1.38.85Z" transform="translate(0.43)"></path><path class="cls-2" d="M73.48,75.73H66.12V59.28C69.8,60.89,74.07,70.38,73.48,75.73Z" transform="translate(0.43)"></path><path class="cls-2" d="M16.51,64.14h10V75.81H16.51ZM18,67.74h6.88V66.38H18Zm6.89,3.06V69.4H18.06v1.4Zm0,3V72.46H18.07v1.39Z" transform="translate(0.43)"></path><path class="cls-2" d="M50.92,16.46a4.9,4.9,0,0,1-9.78,0,4.78,4.78,0,0,1,5-4.61A4.73,4.73,0,0,1,50.92,16.46Z" transform="translate(0.43)"></path><path class="cls-2" d="M40.08,49.44c4,3.08,7.93,3.07,11.83.09a37.75,37.75,0,0,1,0,4.54,3.65,3.65,0,0,1-3.56,3c-1.46,0-2.93,0-4.39,0a3.82,3.82,0,0,1-3.82-3.48C40,52.34,40.08,51,40.08,49.44Z" transform="translate(0.43)"></path><path class="cls-2" d="M27.37,62.57H15.61c0-1.51,0-3,0-4.43a1,1,0,0,1,1.14-1h9.4a1,1,0,0,1,1.18,1C27.39,59.62,27.37,61.06,27.37,62.57Z" transform="translate(0.43)"></path><path class="cls-2" d="M17.87,55.56c0-2.4,0-4.74,0-7.07a1.33,1.33,0,0,1,1.37-1.4,1.31,1.31,0,0,1,1.38,1.39c0,2.33,0,4.67,0,7.08Z" transform="translate(0.43)"></path><path class="cls-2" d="M31.49,30.88l.7,5.71A2.85,2.85,0,0,1,29.28,34,2.89,2.89,0,0,1,31.49,30.88Z" transform="translate(0.43)"></path><path class="cls-2" d="M59.88,36.56c.24-1.88.47-3.76.71-5.64a2.86,2.86,0,0,1-.71,5.64Z" transform="translate(0.43)"></path></svg>