<svg xmlns="http://www.w3.org/2000/svg" xmlns:xlink="http://www.w3.org/1999/xlink" id="Layer_1" x="0px" y="0px" viewBox="0 0 91 91" style="enable-background:new 0 0 91 91;" xml:space="preserve"> <style type="text/css"> .st0{fill-rule:evenodd;clip-rule:evenodd;fill:#FFFFFF;} .st1{fill-rule:evenodd;clip-rule:evenodd;fill:#0B2852;} </style> <g> <circle class="st0" cx="45.5" cy="45.5" r="45.5"></circle> <path class="st1" d="M28.91,14.86L28.9,27.32c-0.01,4.33,0.48,5.77,2.27,8.84c1.51,2.6,2.94,4.19,4.8,6.43 c1.16,1.4,4.08,4.14,5.58,5.5c1.34,1.22,4.72,4.12,6.22,5.05c1.8-0.6,9.81-8.19,11.54-10.15c2.7-3.05,7.47-8.32,7.47-14.19 l-0.02-14c-0.61,0.28-1.28,0.8-1.91,1.16c-0.73,0.41-1.5,0.78-2.21,1.05c-5.46,2.05-10.86,0.61-14.87-3.18 c-1.73,1.07-3.44,3.65-8.76,4.06c-2.96,0.23-5.52-0.41-8.01-1.75C30.35,15.79,29.47,15.03,28.91,14.86L28.91,14.86z M19.16,69.64 c0.06,0.55,2.61,6.92,2.98,7.53l5.73-3.92c2.47-1.54,3.73-2.59,7.5-2.51c5.62,0.11,12.9,2.52,17.96,0.87 c3.61-1.17,10.1-4.31,13.59-6.14c0.71-0.37,4.44-2.18,4.73-2.71c0.4-0.72,0.13-1.53-0.58-1.7c-0.74-0.17-7.08,2.71-7.12,2.77 c-0.18,0.27-0.1,2.64-2.43,3.32c-0.9,0.26-4.54,0.14-5.8,0.13c-1.98-0.01-3.97,0-5.96,0c-0.89,0-2.11,0.18-2.48-0.44 c-0.64-1.09,0.73-1.22,1.48-1.22c3.69,0.01,8.15,0.25,11.75,0.02c1.9-0.12,2.41-2.59,0.13-3.08c-3.96-0.85-11.43-1.9-15.42-2.25 c-4.82-0.42-6.4-0.1-10.34,1.42C29.83,63.69,20.44,69.16,19.16,69.64L19.16,69.64z M46.43,22.78c6.18-0.93,11.32,3.99,11.95,9.16 c0.77,6.28-3.76,11.48-9.28,12.11c-6.57,0.75-11.33-3.93-12.02-9.32C36.31,28.64,40.42,23.68,46.43,22.78L46.43,22.78z M46.28,24.42c5.54-0.86,9.64,2.97,10.47,7.43c0.98,5.29-2.92,9.74-7.43,10.53c-5.34,0.93-9.84-2.92-10.54-7.35 C37.88,29.48,41.64,25.15,46.28,24.42L46.28,24.42z M45.3,36.34l5.62-5.55c0.61-0.63,2.24-2.88,3.22-1.88 c0.66,0.68-1.5,2.41-2.01,2.92c-8.08,8-6.09,7.61-10.23,3.52c-0.56-0.55-1.11-0.89-0.57-1.76C42.35,32.57,44.22,35.93,45.3,36.34z"></path> </g> </svg>