<svg xmlns="http://www.w3.org/2000/svg" xmlns:xlink="http://www.w3.org/1999/xlink" xml:space="preserve" width="91px" height="91px" style="shape-rendering:geometricPrecision; text-rendering:geometricPrecision; image-rendering:optimizeQuality; fill-rule:evenodd; clip-rule:evenodd" viewBox="0 0 5.76 5.76"> <defs> <style type="text/css"> .fil1 {fill:#083264} .fil0 {fill:white} </style> </defs> <g id="Layer_x0020_1"> <metadata id="CorelCorpID_0Corel-Layer"></metadata> <g id="_1718310618400"> <circle class="fil0" cx="2.88" cy="2.88" r="2.88"></circle> <path class="fil1" d="M2.67 3.39c0,-0.53 0.43,-0.95 0.96,-0.95 0.44,0 0.8,0.28 0.92,0.68l0 -0.51c0,-0.23 -0.19,-0.36 -0.31,-0.37l-0.27 -0.7c-0.06,-0.13 -0.17,-0.24 -0.39,-0.24l-1.46 0c-0.21,0 -0.33,0.11 -0.38,0.24l-0.28 0.7c-0.11,0.01 -0.31,0.14 -0.31,0.37l0 0.89 0.32 0 0 0.22c0,0.34 0.42,0.34 0.42,0l0 -0.22 0.79 0c0,-0.04 -0.01,-0.07 -0.01,-0.11zm-0.71 -1.71c0.03,-0.07 0.07,-0.13 0.16,-0.13l1.47 0c0.09,0 0.13,0.06 0.16,0.13l0.21 0.54 -2.21 0 0.21 -0.54zm2.59 2.45l-0.29 -0.29c0.09,-0.12 0.14,-0.28 0.14,-0.44 0,-0.43 -0.34,-0.77 -0.77,-0.77 -0.42,0 -0.76,0.34 -0.76,0.77 0,0.42 0.34,0.76 0.76,0.76 0.12,0 0.23,-0.03 0.33,-0.07l0.32 0.31c0.07,0.08 0.19,0.08 0.27,0 0.07,-0.07 0.07,-0.19 0,-0.27zm-0.92 -0.35c-0.21,0 -0.38,-0.17 -0.38,-0.38 0,-0.22 0.17,-0.39 0.38,-0.39 0.21,0 0.39,0.17 0.39,0.39 0,0.21 -0.18,0.38 -0.39,0.38zm-1.79 -0.82c-0.14,0 -0.24,-0.1 -0.24,-0.24 0,-0.13 0.1,-0.24 0.24,-0.24 0.13,0 0.24,0.11 0.24,0.24 0,0.13 -0.11,0.24 -0.24,0.24z"></path> </g> </g> </svg>