<svg xmlns="http://www.w3.org/2000/svg" xmlns:xlink="http://www.w3.org/1999/xlink" xml:space="preserve" width="91px" height="91px" style="shape-rendering:geometricPrecision; text-rendering:geometricPrecision; image-rendering:optimizeQuality; fill-rule:evenodd; clip-rule:evenodd" viewBox="0 0 5.76 5.76"> <defs> <style type="text/css"> .fil1 {fill:#083264} .fil0 {fill:white} </style> </defs> <g id="Layer_x0020_1"> <metadata id="CorelCorpID_0Corel-Layer"></metadata> <g id="_1718320298800"> <circle class="fil0" cx="2.88" cy="2.88" r="2.88"></circle> <g> <path class="fil1" d="M3.5 2.76c-0.09,0 -0.15,-0.01 -0.23,-0.04 -0.05,-0.03 -0.09,-0.06 -0.13,-0.1 -0.04,-0.04 -0.07,-0.08 -0.09,-0.13 -0.05,-0.09 -0.06,-0.23 -0.03,-0.33 0.01,-0.06 0.03,-0.1 0.07,-0.16 0.03,-0.04 0.07,-0.08 0.12,-0.11 0.2,-0.13 0.45,-0.11 0.62,0.07 0.01,0 0.01,0.01 0.01,0.01 0.03,0.04 0.05,0.07 0.07,0.11 0.05,0.1 0.06,0.21 0.03,0.31 -0.01,0.05 -0.04,0.12 -0.07,0.16 -0.05,0.08 -0.1,0.12 -0.18,0.16 -0.05,0.03 -0.12,0.05 -0.19,0.05zm0.32 -1c-0.1,0 -0.13,-0.14 -0.04,-0.18 0.1,-0.05 0.19,0.1 0.09,0.16 -0.01,0.01 -0.03,0.02 -0.05,0.02zm-1 -0.08l0 1.49c0,0.08 0.04,0.16 0.08,0.22 0.08,0.1 0.2,0.16 0.33,0.16l0.5 0c0.09,0 0.19,-0.03 0.25,-0.09 0.09,-0.07 0.15,-0.18 0.15,-0.3l0 -1.46c0,-0.14 -0.07,-0.25 -0.17,-0.33 -0.02,-0.01 -0.03,-0.02 -0.06,-0.03 -0.03,-0.02 -0.1,-0.04 -0.15,-0.04l-0.54 0c-0.08,0 -0.19,0.04 -0.25,0.1l-0.01 0.01c-0.07,0.06 -0.13,0.18 -0.13,0.27z"></path> <path class="fil1" d="M1.63 2.9l0 1.48c0,0.02 0.01,0.05 0.02,0.06 0.03,0.04 0.06,0.02 0.11,0 0.02,-0.01 0.04,-0.03 0.06,-0.04 0.11,-0.08 0.19,-0.22 0.19,-0.37l0 -0.78c0,-0.16 -0.11,-0.33 -0.25,-0.4 -0.05,-0.03 -0.08,-0.04 -0.11,0 -0.01,0.01 -0.02,0.03 -0.02,0.05z"></path> <path class="fil1" d="M2.11 3.78c0,0.01 0,0.01 0.01,0.01 0.09,0.04 0.21,0.07 0.31,0.11 0.08,0.03 0.17,0.07 0.26,0.1 0.02,0 0.04,0.01 0.06,0.02 0.07,0.02 0.14,0.05 0.2,0.07l0.17 0.06c0,0.01 0.02,0.01 0.03,0.01 0,-0.07 -0.01,-0.19 0.01,-0.25 0,-0.01 0.01,-0.02 0.01,-0.03 -0.01,0 -0.02,-0.01 -0.03,-0.01l-0.17 -0.06c-0.02,-0.01 -0.04,-0.02 -0.07,-0.03l-0.29 -0.1c-0.14,-0.05 -0.3,-0.12 -0.44,-0.16 -0.01,-0.01 -0.05,-0.02 -0.06,-0.02l0 0.28z"></path> <path class="fil1" d="M3.25 3.97c0,0.07 -0.01,0.17 0.02,0.23 0.02,0.04 0.04,0.07 0.07,0.1 0.07,0.05 0.16,0.05 0.23,0.02 0.08,-0.03 0.14,-0.12 0.14,-0.22 0,-0.11 0.01,-0.22 -0.06,-0.3 -0.03,-0.02 -0.04,-0.03 -0.07,-0.05 -0.08,-0.04 -0.17,-0.03 -0.24,0.02 -0.06,0.05 -0.09,0.12 -0.09,0.2z"></path> <path class="fil1" d="M3.49 2.57c-0.05,0 -0.09,0 -0.14,-0.03 -0.01,0 -0.04,-0.02 -0.06,-0.03 -0.03,-0.03 -0.05,-0.06 -0.07,-0.1 -0.06,-0.12 -0.02,-0.29 0.09,-0.36 0.21,-0.14 0.46,0.02 0.46,0.22 0,0.07 -0.02,0.12 -0.05,0.18 -0.05,0.07 -0.14,0.12 -0.23,0.12zm-0.39 -0.31c0,0.09 0,0.14 0.05,0.22 0.01,0.02 0.04,0.05 0.06,0.07 0.01,0.02 0.03,0.03 0.05,0.04 0.04,0.04 0.13,0.07 0.2,0.07 0.08,0 0.14,-0.01 0.21,-0.05l0.08 -0.06c0,0 0,0 0.01,-0.01 0,-0.01 0.01,-0.01 0.01,-0.01 0.02,-0.02 0.04,-0.06 0.05,-0.09 0.03,-0.06 0.04,-0.09 0.04,-0.16 0,-0.08 -0.02,-0.13 -0.05,-0.18 -0.01,-0.03 -0.04,-0.07 -0.06,-0.09 -0.07,-0.07 -0.16,-0.11 -0.28,-0.11 -0.08,0 -0.16,0.03 -0.21,0.07 -0.02,0.01 -0.03,0.03 -0.05,0.04 -0.01,0.01 -0.05,0.06 -0.06,0.07l-0.03 0.07c0,0.01 -0.01,0.02 -0.01,0.03 -0.01,0.02 -0.01,0.05 -0.01,0.08z"></path> <path class="fil1" d="M3.29 2.27c0,0.06 0.01,0.11 0.05,0.15 0.13,0.12 0.33,0.03 0.33,-0.13 0,-0.08 -0.04,-0.14 -0.11,-0.18 -0.06,-0.03 -0.13,-0.02 -0.19,0.02 -0.02,0.01 -0.03,0.02 -0.04,0.04 -0.01,0.01 -0.02,0.02 -0.02,0.03 -0.01,0.01 -0.02,0.05 -0.02,0.07z"></path> <path class="fil1" d="M3.34 3.7l0.06 -0.02c0.06,-0.02 0.12,-0.01 0.18,0.01 0.01,0 0.02,0 0.03,0.01l0 -0.09 -0.27 0 0 0.09z"></path> </g> </g> </g> </svg>