<svg xmlns="http://www.w3.org/2000/svg" xmlns:xlink="http://www.w3.org/1999/xlink" xml:space="preserve" width="91px" height="91px" style="shape-rendering:geometricPrecision; text-rendering:geometricPrecision; image-rendering:optimizeQuality; fill-rule:evenodd; clip-rule:evenodd" viewBox="0 0 85.85 85.85"> <defs> <style type="text/css"> .fil1 {fill:#083264} .fil0 {fill:white} </style> </defs> <g id="Layer_x0020_1"> <metadata id="CorelCorpID_0Corel-Layer"></metadata> <g id="_1718680420512"> <circle class="fil0" cx="42.92" cy="42.92" r="42.93"></circle> <g> <path class="fil1" d="M20.86 62.52l0 -21.88 4.57 0 0 21.88c0,2.19 -2.44,3.28 -3.93,1.74 -0.38,-0.4 -0.64,-1.01 -0.64,-1.74zm36.52 -15.79l7.61 0 0 12.17 -7.61 0 0 -12.17zm-16.74 2.38c0,-1.18 1.85,-0.86 3.52,-0.86 0.73,0 1.46,0 2.19,0 2.39,0 1.9,0.29 1.9,-4.66 0,-1.93 -0.11,-2.57 1.52,-2.95 0,0.95 0,1.9 0,2.86 0,1.77 0.02,1.3 2.21,3.49 1.54,1.54 0.84,1.26 3.88,1.26l0 9.13c-2.79,0 -2.12,-0.25 -4.08,0.78 -0.29,0.15 -1.44,0.74 -1.72,0.74l-8.56 0c-0.97,0 -0.86,-1.02 -0.86,-1.52l6.09 0 0 -1.52 -6.09 0 0 -1.52 6.09 0 0 -1.52 -6.09 0 0 -1.53 6.09 0 0 -1.52 -6.09 0 0 -0.66zm6.09 -7.14l0 4.76 -5.52 0c-1.04,0 -2.09,1.05 -2.09,2.09l0 9.51c0,1.05 1.05,2.09 2.09,2.09l9.42 0c0.63,0 2.79,-1.52 3.42,-1.52l1.81 0c0,1.51 0.01,1.52 1.52,1.52 0,1.84 0.37,3.92 -1.8,4.48 -0.89,0.23 -11.14,0.09 -12.56,0.09 -5.61,0 -11.22,0 -16.83,0 0.34,-0.52 0.76,-1.13 0.76,-2l0 -42.13 30.43 0 0 24.35c-1.51,0 -1.52,0.01 -1.52,1.52 -2.58,0 -1.61,0.34 -3.92,-1.97 -1,-0.99 -0.65,-0.7 -0.65,-3.55 0,-2.16 0.14,-2.09 -1.71,-2.09 -1.47,0 -2.85,1.39 -2.85,2.85zm-21.3 -21.87l0 19.02 -5.33 0c-0.46,0 -0.76,0.3 -0.76,0.76l0 23.11c0,1.76 1.76,3.52 3.52,3.52l32.52 0c1.76,0 3.52,-1.76 3.52,-3.52l0 -2.57 6.85 0c0.46,0 0.76,-0.3 0.76,-0.76l0 -13.69c0,-0.46 -0.3,-0.76 -0.76,-0.76l-6.85 0 0 -25.11c0,-0.46 -0.3,-0.76 -0.76,-0.76l-31.95 0c-0.46,0 -0.76,0.3 -0.76,0.76z"></path> <path class="fil1" d="M33.89 26.95c2.24,0 4.81,-0.7 6.6,-1.77 2.88,-1.71 0.54,-0.97 5.16,0.85 1.39,0.54 3.05,0.92 4.79,0.92 0,3.3 -1.63,7.21 -3.93,9.58 -0.54,0.56 -1.04,1.14 -1.74,1.68 -0.17,0.14 -0.19,0.18 -0.35,0.31l-2.26 1.84 -4.3 -3.78c-2.34,-2.5 -3.97,-6.13 -3.97,-9.63zm-1.62 -0.76c0,5.68 2.48,10.17 6.74,13.61l2.55 2.11c0.87,0.66 1.28,-0.09 2.47,-1.02 0.95,-0.75 2.45,-2.03 3.34,-2.93 0.19,-0.19 0.19,-0.2 0.35,-0.42 0.17,-0.21 0.24,-0.25 0.41,-0.44 0.25,-0.3 0.48,-0.6 0.71,-0.91 1.87,-2.55 3.21,-5.9 3.21,-10 0,-0.94 -1.1,-0.79 -2.56,-0.86 -1.93,-0.1 -3.59,-0.88 -5.17,-1.68 -2.19,-1.1 -1.5,-1.88 -3.26,-0.66 -0.97,0.68 -2.25,1.35 -3.4,1.74 -0.68,0.23 -2.04,0.56 -2.82,0.6 -1.46,0.07 -2.57,-0.08 -2.57,0.86z"></path> <path class="fil1" d="M42.16 27.99l1.43 0.86c0.79,0.41 1.68,0.75 2.57,0.95 0.24,0.05 0.8,0.03 0.96,0.19 0.34,0.33 -1.02,2.6 -1.38,3.1 -0.78,1.08 -1.86,2.07 -2.9,2.91 -0.23,0.18 -0.47,0.41 -0.68,0.55 -0.54,-0.36 -1.3,-1.14 -1.83,-1.59 -1.06,-0.88 -2.01,-2.01 -2.61,-3.29 -1.09,-2.37 -0.58,-1.48 1.34,-2.12 1,-0.33 1.5,-0.58 2.34,-1.08 0.17,-0.11 0.61,-0.48 0.76,-0.48zm-6.84 1.24c0,1.11 0.99,3.29 1.67,4.32 0.3,0.46 0.53,0.72 0.85,1.14 0.27,0.34 3.63,3.67 4.32,3.67 0.47,0 1.86,-1.29 2.31,-1.69 1.38,-1.23 2.81,-2.63 3.59,-4.4 0.3,-0.68 0.95,-2.22 0.95,-3.14 0,-1.34 -2.51,0.14 -6.02,-2.54 -1.09,-0.83 -1.13,-0.26 -2.39,0.51 -0.56,0.34 -0.99,0.58 -1.64,0.83 -2.02,0.79 -3.64,0.08 -3.64,1.3z"></path> <path class="fil1" d="M32.3 54.74l-1.05 -0.99 -1.09 1.14c0.55,0.38 1.45,1.73 2.11,1.73 0.73,0 1.43,-1.33 2.29,-1.9l0 2.66 -4.57 0 0 -4.56 4.19 0 -1.88 1.92zm-3.83 -2.69l0 6.09c0,0.46 0.3,0.76 0.76,0.76l6.09 0c0.95,0 0.76,-0.97 0.76,-1.9 0,-0.89 0,-1.77 0,-2.66 0,-1.52 -0.08,-1.11 0.73,-1.93 0.4,-0.39 1.09,-0.99 1.36,-1.4l-1.07 -1.02c-0.42,0.27 -0.98,1.06 -1.32,1.28 -0.25,0.15 0,0.07 -0.46,0.04 -0.23,-0.02 -0.44,-0.02 -0.67,-0.02l-4.18 0c-0.96,0 -2,-0.21 -2,0.76z"></path> <path class="fil1" d="M32.3 45.61l-1.05 -0.99 -1.05 1.09c0.27,0.41 1.57,1.78 2.07,1.78 0.73,0 1.43,-1.33 2.29,-1.9l0 2.66 -4.57 0 0 -4.56 4.19 0 -1.88 1.92zm-3.83 -2.69l0 6.09c0,0.46 0.3,0.76 0.76,0.76l6.09 0c0.95,0 0.76,-0.97 0.76,-1.9 0,-0.89 0,-1.77 0,-2.66 0,-1.52 -0.08,-1.11 0.73,-1.93 0.4,-0.39 1.09,-0.99 1.36,-1.4l-1.12 -1.07c-0.14,0.2 -1.14,1.38 -1.49,1.39l-5.09 -0.04c-0.96,0 -2,-0.21 -2,0.76z"></path> </g> </g> </g> </svg>