<svg xmlns="http://www.w3.org/2000/svg" xmlns:xlink="http://www.w3.org/1999/xlink" xml:space="preserve" width="91px" height="91px" style="shape-rendering:geometricPrecision; text-rendering:geometricPrecision; image-rendering:optimizeQuality; fill-rule:evenodd; clip-rule:evenodd" viewBox="0 0 6.34 6.34"> <defs> <style type="text/css"> .fil1 {fill:#083264} .fil0 {fill:white} </style> </defs> <g id="Layer_x0020_1"> <metadata id="CorelCorpID_0Corel-Layer"></metadata> <g id="_1718282670192"> <circle class="fil0" cx="3.17" cy="3.17" r="3.17"></circle> <path class="fil1" d="M2.64 4.57l0.5 0c-0.02,0.2 -0.24,0.29 -0.41,0.16 -0.07,-0.04 -0.08,-0.06 -0.09,-0.16zm0.7 -2.66c0.06,-0.07 0.08,-0.08 0.22,-0.08 0,-0.36 -0.12,-0.28 0.81,-0.28 0.15,0 0.09,0.3 0.09,0.7 0,0.12 -0.11,0.08 -0.23,0.08 -0.02,-0.3 -0.42,-0.3 -0.45,0l-0.22 0 0 -0.28c-0.21,0 -0.17,-0.01 -0.22,-0.14zm0.11 -0.19c-0.31,0.02 -0.31,0.42 0,0.45l0 0.28 0.45 0c0,-0.15 0.01,-0.16 0.08,-0.23 0.13,0.03 0.14,0.06 0.14,0.23 0.54,0 0.45,0.08 0.45,-0.87 0,-0.07 -0.08,-0.14 -0.14,-0.14 -0.94,0 -0.98,-0.09 -0.98,0.28zm-0.95 2.68c0.03,-0.04 0,-0.05 0.08,-0.05l0.62 0c0.08,0 0.05,0.01 0.08,0.05 -0.03,0.05 0,0.06 -0.08,0.06l-0.62 0c-0.08,0 -0.05,-0.01 -0.08,-0.06zm-0.11 -0.22c0.03,-0.05 0,-0.06 0.08,-0.06l0.84 0c0.08,0 0.05,0.02 0.08,0.06 -0.03,0.05 0,0.06 -0.08,0.06l-0.84 0c-0.08,0 -0.05,-0.02 -0.08,-0.06zm0.89 -0.39l0 0.22 -0.28 0 0 -0.56c-0.14,0 -0.15,-0.01 -0.22,-0.08 0.03,-0.14 0.06,-0.14 0.22,-0.14l0 -0.34 0.34 0c0,-0.14 0.01,-0.15 0.08,-0.22 0.14,0.03 0.14,0.06 0.14,0.22l0.34 0c-0.07,0.27 -0.06,0.35 -0.21,0.55 -0.07,0.09 -0.31,0.32 -0.41,0.35zm-1.4 -0.9l0.45 0c0,-0.14 0.01,-0.15 0.08,-0.22 0.14,0.03 0.14,0.06 0.14,0.22l0.34 0 0 0.23c-0.31,0.02 -0.31,0.42 0,0.44l0 0.45 -0.39 0c0,-0.4 -0.1,-0.18 -0.4,-0.55 -0.21,-0.27 -0.17,-0.46 -0.22,-0.57zm0.79 -0.5c0,0.15 0.08,0.21 0.22,0.22l0 0.17 -0.22 0c-0.03,-0.3 -0.43,-0.3 -0.45,0l-0.34 0c0.04,-0.07 0.03,-0.09 0.05,-0.18 0.11,-0.43 0.5,-0.71 0.96,-0.71l0 0.28c-0.14,0.01 -0.22,0.07 -0.22,0.22zm-0.9 0.39c0,0.91 0.62,0.93 0.62,1.18 0,0.13 -0.12,0.03 -0.12,0.25 0,0.1 0.05,0.01 0.11,0.2l0.23 0.39c0.15,0.15 0.48,0.21 0.67,-0.18 0.07,-0.15 0.05,-0.03 0.11,-0.19 0.04,-0.11 -0.01,-0.03 0.05,-0.12 0.05,-0.07 0.06,0 0.06,-0.16 0,-0.12 -0.11,-0.06 -0.11,-0.22 0,-0.1 0.23,-0.2 0.4,-0.42 0.18,-0.22 0.22,-0.43 0.22,-0.73l-0.34 0c-0.02,-0.3 -0.42,-0.3 -0.45,0l-0.22 0 0 -0.28c-0.14,0 -0.15,-0.01 -0.22,-0.08 0.03,-0.14 0.06,-0.14 0.22,-0.14l0 -0.51 -0.22 0c-0.51,0 -1.01,0.5 -1.01,1.01z"></path> </g> </g> </svg>