<svg xmlns="http://www.w3.org/2000/svg" xmlns:xlink="http://www.w3.org/1999/xlink" id="Layer_1" x="0px" y="0px" viewBox="0 0 91 91" style="enable-background:new 0 0 91 91;" xml:space="preserve"> <style type="text/css"> .st0{fill-rule:evenodd;clip-rule:evenodd;fill:#FFFFFF;} .st1{fill-rule:evenodd;clip-rule:evenodd;fill:#0B2852;} </style> <g> <circle class="st0" cx="45.5" cy="45.5" r="45.5"></circle> <path class="st1" d="M21.3,33.17c-0.07,0.58,0.4,4.69,0.49,5.2c0.14,0.78,0.27,1.63,0.45,2.4c0.09,0.36,0.21,0.84,0.26,1.18 c0.05,0.38,0.2,0.75,0.31,1.15l0.64,2.22c0.17,0.65,1.36,3.49,1.63,4.12c0.78,1.88,2,3.79,3.11,5.49c0.99,1.51,1.55,2,2.54,3.22 c0.59,0.73,2.17,2.24,2.89,2.86c0.48,0.43,1,0.87,1.56,1.29c0.3,0.22,1.41,1.15,1.71,1.18c0.03-0.05,0.62-2.23,0.99-3.04 c0.47-1.02,0.73-1.7,1.57-2.52c0.37-0.37,1.09-0.93,1.54-1.18l0.01-34.32c-0.28,0.02-0.9,0.58-1.14,0.79 c-0.39,0.32-0.71,0.58-1.07,0.84l-3.33,2.36c-0.37,0.25-0.79,0.51-1.15,0.75c-0.4,0.26-0.72,0.43-1.18,0.72 c-0.36,0.22-0.82,0.52-1.19,0.71c-1.81,0.93-4.55,2.45-6.39,3.11c-0.49,0.18-0.93,0.35-1.38,0.53L21.3,33.17L21.3,33.17z M56.46,66.82c0.25-0.13,1.35-1.84,1.48-2.04c0.12-0.18,0.19-0.3,0.34-0.5c0.44-0.61,0.34-0.63-0.07-2.09 c-0.06-0.23-0.11-0.46-0.17-0.66l-0.77-2.78c-0.09-0.42,0.93-1.4,0.91-1.69c-0.01-0.09-1.45-1.5-1.71-1.63 c-0.31,0.14-0.85,0.72-1.15,1.01c-0.69,0.67-0.84,0.36,0.21,1.92c0.23,0.34-0.13,1.31-0.26,1.72c-0.24,0.81-0.43,1.71-0.71,2.59 c-0.36,1.14-0.36,1.03,0.05,1.58c0.32,0.44,0.56,0.83,0.9,1.29C55.71,65.84,56.18,66.66,56.46,66.82L56.46,66.82z M15.92,29.15 c0.91-0.35,2.02-0.49,2.99-0.76c1.54-0.42,3-0.98,4.48-1.55c1.73-0.66,5.52-2.51,6.93-3.45l2.6-1.66c1.82-1.17,3.88-2.73,5.53-4.2 c0.66-0.59,1.31-1.14,1.92-1.76c0.73-0.74,0.52-0.71,1.24,0.04c0.6,0.63,1.3,1.2,1.93,1.75c3.28,2.89,7.02,5.4,10.9,7.42 c1.33,0.69,2.75,1.3,4.16,1.9l3.64,1.24c1.2,0.39,1.68,0.48,2.92,0.76c0.12,0.03,0.28,0.08,0.44,0.13 c0.07,0.02,0.18,0.05,0.22,0.07l0.23,0.12c-0.07,1.63-0.18,6.84-0.48,8.25c-0.02,0.1-0.02,0.08-0.05,0.15l-0.05,0.1 c-0.2-0.13-0.1-0.04-0.18-0.32c-0.22-0.71-0.56-1.44-0.95-2.01c-0.35-0.52-0.59-0.53-0.58-1.19l0.09-3.31l-1.72-0.51 c-0.92-0.19-1.7-0.5-2.58-0.78c-0.77-0.24-1.66-0.61-2.38-0.93c-2.4-1.08-3.53-1.61-5.92-2.92c-0.46-0.25-0.96-0.59-1.4-0.84 c-0.47-0.27-0.9-0.54-1.36-0.85l-3.91-2.79l-2.42-1.97c-1.29-1.12-1.03-1.21-1.54-0.76c-1.47,1.27-3.08,2.59-4.59,3.71 c-1.07,0.8-2.84,2.02-3.98,2.66c-0.25,0.14-0.47,0.29-0.72,0.42c-0.26,0.14-0.42,0.23-0.67,0.39c-1.32,0.82-2.98,1.65-4.42,2.28 c-2.12,0.94-2.67,1.1-4.77,1.87c-0.75,0.28-3.03,0.8-3.42,0.99l0.04,2.37c0,0.47,0.09,1,0.11,1.54c0.08,1.98,0.65,5.07,1.05,7 c0.09,0.41,0.23,0.86,0.32,1.26c0.25,1.23,0.82,3.17,1.33,4.37l0.19,0.59c1.58,4.47,4.13,8.58,7.21,12.13 c0.35,0.41,1.98,2.14,2.39,2.47l1.72,1.48c0.57,0.53,1.23,0.98,1.81,1.4c0.59,0.43,1.28,0.95,1.9,1.3 c-0.01,0.36-0.19,1.95-0.45,2.26c-0.8-0.37-1.56-1.01-2.29-1.47c-0.8-0.5-1.4-1.03-2.14-1.6c-2.73-2.12-5.26-4.91-7.23-7.71 c-0.47-0.66-1.06-1.53-1.48-2.25c-0.45-0.76-0.95-1.55-1.32-2.36c-0.19-0.41-0.41-0.84-0.64-1.27c-1.34-2.53-2.79-7-3.34-9.69 l-0.6-3.02c-0.13-1.11-0.39-2.12-0.45-3.27c-0.06-1.13-0.25-2.35-0.26-3.5C15.94,31.63,15.92,30.39,15.92,29.15L15.92,29.15z M48.76,39.45c0,1.5,0.36,3.31,0.35,3.68c-0.26,0.23-0.42,0.45-0.47,0.77c-0.11,0.71,0.04,1.5,0.48,2.01 c0.24,0.29,0.36,0.36,0.86,0.39c1.15,3.16,1.14,3.82,3.97,5.4c2.6,1.45,4.72,0.4,6.81-1.2c0.24-0.19,0.6-0.52,0.76-0.78 c0.18-0.28,0.42-0.77,0.54-1.06l0.9-2.25c0.2-0.21,0.9,0,1.29-1.32c0.23-0.8,0.15-1.59-0.47-1.96c0.14-2.15,0.34-3.69-0.46-5.78 c-0.43-1.13-1.41-2.21-2.45-2.71c-2.51-1.21-3.78-0.76-4.16-1.01c0.29-0.16,0.68-0.01,0.99-0.18c-1.77-0.26-2.28-0.31-4.04,0.62 l-1.02,0.7c-0.25,0.12-0.62,0-1.37,0.35c-0.26,0.12-1.14,0.61-1.29,0.9c-0.16,0.29,0.07,0.16-0.21,0.51 c-0.1,0.12-0.11,0.13-0.2,0.27C48.87,37.8,48.76,38.23,48.76,39.45L48.76,39.45z M75.08,68.26v1.55c-3.15,0-37.28,0.08-37.43-0.05 c-0.04-0.07-0.03,0-0.04-0.12c-0.01-0.09,0-0.12,0.01-0.19c0.07-0.64,0.36-1.87,0.45-2.42c0.18-1.1,0.33-1.7,0.58-2.74 c0.26-1.11,0.64-2.59,1.14-3.62c0.47-0.98,0.89-1.48,1.72-2.06c1.4-0.98,3.11-2.03,4.66-2.87c0.8-0.43,4.69-2.55,5.01-2.61 c0.01,0.01,0.02,0.02,0.03,0.05l0.08,0.19c0.2,0.65,0.8,5.61,1,6.52l0.53,3.42c0.08,0.58,0.04,0.61,0.33,1l1.62,2.3 c0.19,0.27,1.48,2.17,1.7,2.29c0.24-0.13,0.98-1.29,1.12-1.51l2.14-3.08c0.38-0.53,0.14-0.42,0.33-0.96l0.5-3.43 c0.23-1.33,0.81-5.92,1.04-6.79c0.3,0.02,0.97,0.41,1.27,0.57c0.4,0.2,0.77,0.42,1.17,0.61c0.72,0.34,1.74,0.97,2.35,1.27 c0.23,0.11,0.33,0.2,0.57,0.32l2.8,1.65c0.19,0.12,0.38,0.23,0.56,0.34c0.93,0.56,1.89,1.28,2.39,2.11 c0.59,0.99,1.11,2.76,1.42,3.98c0.06,0.25,0.14,0.53,0.18,0.71c0.03,0.14,0.03,0.26,0.04,0.4l0.42,1.67 C74.8,67.03,74.92,68.13,75.08,68.26z"></path> </g> </svg>