<svg xmlns="http://www.w3.org/2000/svg" xmlns:xlink="http://www.w3.org/1999/xlink" xml:space="preserve" width="91px" height="91px" style="shape-rendering:geometricPrecision; text-rendering:geometricPrecision; image-rendering:optimizeQuality; fill-rule:evenodd; clip-rule:evenodd" viewBox="0 0 4.71 4.71"> <defs> <style type="text/css"> .fil1 {fill:#083264} .fil0 {fill:white} </style> </defs> <g id="Layer_x0020_1"> <metadata id="CorelCorpID_0Corel-Layer"></metadata> <g id="_1718119392272"> <circle class="fil0" cx="2.36" cy="2.36" r="2.36"></circle> <path class="fil1" d="M1.74 2.85l0 0zm-0.57 -1.59l0.09 -0.1c0.09,0.07 0.15,0.17 0.25,0.22l0.06 -0.06 0.05 0.3 -0.29 -0.06c0.06,-0.08 0.09,-0.05 -0.01,-0.15 -0.05,-0.04 -0.11,-0.1 -0.15,-0.15zm-0.1 0c0,0.04 0.07,0.09 0.09,0.12 0.04,0.03 0.07,0.08 0.12,0.09 -0.02,0.09 -0.19,0.14 0.02,0.18 0.55,0.09 0.44,0.13 0.36,-0.34 -0.02,-0.12 -0.06,-0.18 -0.15,-0.04 -0.05,-0.03 -0.2,-0.21 -0.24,-0.21 -0.04,0 -0.2,0.17 -0.2,0.2zm2.25 0.22c0.01,0.06 0.03,0.04 0.05,0.08 -0.09,0.01 -0.18,0.04 -0.29,0.04l0.06 -0.27c0.04,0.02 0.02,0.04 0.08,0.04 0.04,0 0.17,-0.17 0.22,-0.2l0.1 0.09 -0.22 0.22zm-0.1 -0.21c-0.05,-0.03 -0.07,-0.08 -0.14,-0.09 -0.03,0.07 -0.04,0.17 -0.06,0.26 -0.06,0.35 -0.11,0.28 0.37,0.21 0.21,-0.03 0.09,-0.08 0.04,-0.16l0.21 -0.23c-0.01,-0.04 -0.17,-0.2 -0.2,-0.2 -0.04,0 -0.2,0.18 -0.22,0.21zm-0.14 1.81c0.12,0 0.18,0.04 0.29,0.04 -0.01,0.06 -0.04,0.03 -0.04,0.08 0,0.04 0.15,0.16 0.2,0.23l-0.08 0.09c-0.05,-0.03 -0.19,-0.21 -0.23,-0.21 -0.04,0 -0.05,0.04 -0.08,0.06 -0.01,-0.04 -0.05,-0.28 -0.06,-0.29zm-0.09 -0.1c0,0.06 0.05,0.52 0.12,0.52 0.03,0 0.07,-0.06 0.11,-0.08l0.22 0.23c0.04,-0.03 0.2,-0.18 0.2,-0.22 0,-0.04 -0.18,-0.19 -0.21,-0.23 0.05,-0.04 0.08,-0.06 0.08,-0.14 -0.09,-0.02 -0.47,-0.1 -0.52,-0.08zm-1.41 0.37c-0.06,-0.01 -0.03,-0.04 -0.07,-0.04 -0.05,0 -0.19,0.18 -0.24,0.22l-0.09 -0.09c0.05,-0.06 0.21,-0.18 0.21,-0.24 0,-0.04 -0.03,-0.04 -0.04,-0.07l0.29 -0.05c-0.02,0.03 -0.06,0.22 -0.06,0.27zm-0.38 -0.25c0,0.04 0.06,0.08 0.08,0.1 -0.05,0.07 -0.13,0.11 -0.21,0.23 0.02,0.05 0.16,0.2 0.2,0.2 0.04,0 0.2,-0.17 0.22,-0.21 0.06,0.04 0.05,0.07 0.13,0.08 0.04,-0.06 0.05,-0.16 0.06,-0.24 0.06,-0.36 0.13,-0.31 -0.37,-0.22 -0.05,0.01 -0.11,0.01 -0.11,0.06zm1.15 -1.15c0.15,0 0.18,0.09 0.22,0.16l-0.42 0c0.01,-0.1 0.1,-0.16 0.2,-0.16zm-0.09 -0.21c0,-0.1 0.19,-0.15 0.19,0.02 0,0.09 -0.11,0.07 -0.16,0.06 -0.01,-0.02 -0.03,-0.07 -0.03,-0.08zm-0.03 0.14c-0.14,0.08 -0.17,0.14 -0.17,0.31 0.12,0.03 0.37,0.01 0.51,0.01 0.14,0 0.09,-0.22 -0.1,-0.32 0.03,-0.04 0.04,-0.03 0.05,-0.08 0.02,-0.04 0.02,-0.07 0,-0.11 -0.04,-0.16 -0.28,-0.17 -0.34,0 -0.03,0.09 0.01,0.13 0.05,0.19zm0.45 0.72c0.05,0 0.12,0.02 0.15,0.04 0.03,0.03 0.06,0.07 0.07,0.12l-0.41 0c0.02,-0.11 0.11,-0.16 0.19,-0.16zm-0.07 -0.19c0,-0.17 0.17,-0.12 0.18,-0.02 0,0.04 -0.04,0.09 -0.08,0.1 -0.04,0 -0.1,-0.03 -0.1,-0.08zm0.41 0.4c-0.03,-0.02 -0.02,0 -0.04,-0.08 -0.03,-0.08 -0.08,-0.16 -0.16,-0.18 0.02,-0.08 0.08,-0.1 0.04,-0.22 -0.05,-0.13 -0.27,-0.17 -0.34,0 -0.04,0.1 0.02,0.16 0.06,0.22 -0.14,0.01 -0.21,0.25 -0.17,0.29 0.08,0.04 0.43,0.01 0.55,0.01 -0.04,0.07 -0.16,0.16 -0.24,0.2 -0.1,0.05 -0.23,0.09 -0.37,0.09 -0.25,0 -0.51,-0.14 -0.61,-0.29 0.19,0 0.42,0.02 0.57,-0.01 0,-0.13 -0.04,-0.26 -0.17,-0.29 0.02,-0.07 0.09,-0.12 0.05,-0.22 -0.03,-0.06 -0.11,-0.12 -0.18,-0.11 -0.08,0 -0.14,0.05 -0.16,0.11 -0.04,0.1 0.01,0.15 0.05,0.22 -0.11,0 -0.17,0.15 -0.18,0.26 -0.08,-0.06 -0.14,-0.26 -0.16,-0.39 -0.03,-0.23 0.07,-0.47 0.21,-0.62 0.33,-0.37 0.99,-0.35 1.27,0.15 0.13,0.23 0.15,0.52 0.02,0.77l-0.04 0.06c-0.01,0.04 -0.01,-0.01 0,0.03zm-1.01 -0.21c0.09,0 0.19,0.05 0.21,0.16l-0.41 0c0.02,-0.11 0.12,-0.16 0.2,-0.16zm-0.08 -0.19l0 -0.04c0,-0.09 0.18,-0.1 0.18,0.02 0.01,0.14 -0.18,0.11 -0.18,0.02zm-0.45 -0.13c0,0.23 0.02,0.41 0.17,0.6 0.34,0.43 0.89,0.47 1.31,0.11 0.03,-0.02 0.03,-0.03 0.05,-0.05 0.18,-0.24 0.22,-0.32 0.22,-0.66 0,-0.11 -0.05,-0.26 -0.09,-0.34 -0.02,-0.03 -0.06,-0.09 -0.08,-0.13l-0.1 -0.11c-0.38,-0.33 -0.82,-0.32 -1.21,0 -0.04,0.03 -0.07,0.08 -0.1,0.11 -0.09,0.12 -0.17,0.31 -0.17,0.47z"></path> </g> </g> </svg>