<svg xmlns="http://www.w3.org/2000/svg" xmlns:xlink="http://www.w3.org/1999/xlink" xml:space="preserve" width="91px" height="91px" style="shape-rendering:geometricPrecision; text-rendering:geometricPrecision; image-rendering:optimizeQuality; fill-rule:evenodd; clip-rule:evenodd" viewBox="0 0 6.17 6.17"> <defs> <style type="text/css"> .fil1 {fill:#083264} .fil0 {fill:white} </style> </defs> <g id="Layer_x0020_1"> <metadata id="CorelCorpID_0Corel-Layer"></metadata> <g id="_1718181830928"> <circle class="fil0" cx="3.09" cy="3.09" r="3.09"></circle> <path class="fil1" d="M2.22 3.05c-0.06,-0.5 0.34,-0.91 0.77,-0.95 0.52,-0.05 0.92,0.33 0.96,0.78 0.04,0.51 -0.34,0.91 -0.79,0.95 -0.5,0.04 -0.89,-0.33 -0.94,-0.78zm0.84 -1.66l0.09 0c0.02,0.02 0.11,0.04 0.14,0.06 0.04,0.02 0.09,0.04 0.13,0.06 0.66,0.31 0.82,0.02 0.93,0.01 0.09,0.58 0.21,1.64 0.07,2.2 -0.04,0.18 -0.12,0.28 -0.22,0.37 -0.35,0.31 -0.7,0.47 -1.08,0.68l-0.02 0.01c-0.06,0 -0.4,-0.2 -0.48,-0.25 -0.16,-0.09 -0.31,-0.18 -0.45,-0.28 -0.12,-0.08 -0.3,-0.22 -0.37,-0.37 -0.11,-0.23 -0.09,-0.53 -0.12,-0.6l0 -0.46c0.02,-0.04 0.08,-1.18 0.14,-1.29 0.07,0.02 0.12,0.06 0.3,0.1 0.12,0.03 0.26,0.04 0.39,0.02 0.16,-0.02 0.31,-0.08 0.44,-0.17l0.11 -0.09z"></path> <path class="fil1" d="M3.01 3.22c0.08,-0.07 0.15,-0.16 0.23,-0.23 0.05,-0.05 0.19,-0.21 0.23,-0.23 0.06,-0.03 0.13,0.02 0.12,0.09 -0.01,0.05 -0.29,0.31 -0.34,0.36l-0.17 0.18c-0.02,0.02 -0.04,0.04 -0.08,0.03 -0.04,-0.01 -0.22,-0.18 -0.26,-0.21 -0.02,-0.03 -0.1,-0.07 -0.1,-0.12 -0.01,-0.07 0.06,-0.12 0.12,-0.08 0.04,0.02 0.18,0.17 0.25,0.21zm-0.03 -0.83c-0.36,0.06 -0.65,0.38 -0.59,0.8 0.05,0.35 0.39,0.66 0.8,0.59 0.34,-0.06 0.65,-0.38 0.59,-0.8 -0.05,-0.34 -0.38,-0.66 -0.8,-0.59z"></path> </g> </g> </svg>