<svg xmlns="http://www.w3.org/2000/svg" xmlns:xlink="http://www.w3.org/1999/xlink" id="Layer_1" x="0px" y="0px" viewBox="0 0 91 91" style="enable-background:new 0 0 91 91;" xml:space="preserve"> <style type="text/css"> .st0{fill-rule:evenodd;clip-rule:evenodd;fill:#FFFFFF;} .st1{fill-rule:evenodd;clip-rule:evenodd;fill:#0B2852;} </style> <g> <circle class="st0" cx="45.5" cy="45.5" r="45.5"></circle> <path class="st1" d="M41.71,38.83c0.37,0.59,0.25,0.64,0.24,1.74l0.01,6.05l1.48,0.04c0.23,0.88,0.21,1.41,0.01,2.29L41.96,49 l-0.04,2.39l-2.39,0.12L39.4,48.9l-4.89-0.03c-0.47-2.3,0.56-3.17,2.5-5.92C39.67,39.16,39.12,38.7,41.71,38.83L41.71,38.83z M36.8,46.75l2.74-0.02l0-3.93c-0.34,0.24-0.13,0.05-0.41,0.35L36.8,46.75L36.8,46.75z M74.39,59.95c0.59-0.41,1.52-0.3,2.37-0.99 c2.18-1.77,1.46-5.63,1.46-9.15c0-3.4,0.68-7.22-1.27-9.14c-0.95-0.93-1.59-0.65-2.45-1.15c-0.41-1.53-0.59-3.04-1.03-4.56 C66.93,12.84,36.17,5.73,21.3,27.04c-4.33,6.21-4.17,10.91-4.78,12.24c-0.5,1.08-1.98-0.04-3.26,2.4 c-0.89,1.71-0.52,8.42-0.52,10.86c0,1.72-0.26,3.79,0.49,5.23c0.66,1.27,2.06,2.36,3.91,1.88c7.34-1.89-4.03-21.32,10.88-34.92 c14.74-13.45,37.42-6.04,42.27,12.32c0.94,3.56,0.83,6.63,0.79,10.45c-0.03,2.11,0.27,9.91-0.23,11.24 c-2.28,6.12-5.23,9.03-11.9,10.8c-8.43,2.25-4.49-0.37-9.22-0.08c-3.62,0.22-6.01,3.72-3.2,6.03c2.13,1.75,6.01,1.92,8.05-0.89 c0.56-0.77,0.87-0.61,1.92-0.82C72.91,70.58,72.29,62.38,74.39,59.95L74.39,59.95z M61.85,51.4l-2.12,0 c-0.22-1.73,0.53-4.16,1.11-5.64c0.39-0.99,0.62-1.49,1.16-2.4c0.29-0.49,1.11-1.62,1.27-2.07l-5.3-0.04l-0.02-2.18l8.19,0 c-0.01,2.81-0.65,1.74-2.58,5.63C62.25,47.36,62.58,48.68,61.85,51.4L61.85,51.4z M25.13,42.5l2.14,0.23l0.47-1.07 c1.25-2.32,4.77,0.31,2.05,2.88c-1.85,1.75-4.9,4.39-4.9,6.8l8.18,0.06l0.13-2.27l-4.59-0.01c0.89-1.96,6.06-4.38,4.27-8.3 C31.69,38.21,25.75,37.44,25.13,42.5L25.13,42.5z M51.01,38.63l1.91,0.07l-3.46,12.89l-1.99-0.02L51.01,38.63L51.01,38.63z M42.56,23.02c-12.75,1.95-20.88,13.06-19.18,25.26c1.55,11.06,11.95,20.89,25.12,18.99c12.4-1.79,20.73-13.15,19.11-25.03 C66.09,31.1,55.67,21.01,42.56,23.02z"></path> </g> </svg>