<svg xmlns="http://www.w3.org/2000/svg" xmlns:xlink="http://www.w3.org/1999/xlink" id="Layer_1" x="0px" y="0px" viewBox="0 0 91 91" style="enable-background:new 0 0 91 91;" xml:space="preserve"> <style type="text/css"> .st0{fill-rule:evenodd;clip-rule:evenodd;fill:#FFFFFF;} .st1{fill-rule:evenodd;clip-rule:evenodd;fill:#0B2852;} </style> <g> <circle class="st0" cx="45.5" cy="45.5" r="45.5"></circle> <path class="st1" d="M33.9,19.84c-1.4,0.53-0.48,2.62-2.66,4.55c-0.87,0.77-3.52,2.05-5.04,2.29c-3.15,0.5-4.53-1.71-5.82-1.26 c-0.32,0.11-3.52,3.23-3.76,3.62c-0.93,1.55,1.49,2.01,1.21,5.58c-0.12,1.52-1.4,4.3-2.13,5.23c-1.46,1.87-4.28,2.04-4.68,2.67 c-0.42,0.65-0.23,2.59-0.23,3.48c-0.01,4.21,0.81,2.26,3.39,3.82c0.95,0.57,1.3,0.98,1.87,1.8c0.77,1.12,1.88,3.89,1.79,5.58 c-0.14,2.73-2.48,3.53-0.72,5.26c1.41,1.38,2.92,3.44,4.15,3.11c0.69-0.19,2.55-2.08,5.61-1.14c1.74,0.53,3.93,1.59,4.76,2.6 c2.93,3.57-0.93,4.66,6.86,4.24c2.92-0.16,0.48-3.81,5.13-5.78c2.46-1.04,3.35-0.98,2.94-4.45c-0.22-1.9-2.99-1.34-5.99-1.32 c-2.35,0.01-4.87,0.18-7.1-0.32c-4.16-0.93-6.83-3.23-8.68-5.86c-2.16-3.08-3.23-7.52-2-11.85c1.11-3.93,3.47-6.58,6.2-8.33 c5.23-3.36,11.07-1.72,16.12-2.12c1.35-0.11,1.46-0.9,1.46-2.24c0.01-3.46-1.29-2.55-3.58-3.83c-1.72-0.96-2.31-2.09-2.93-4.41 c-0.33-1.25-1.22-1.09-2.64-1.08C36.36,19.71,34.83,19.49,33.9,19.84L33.9,19.84z M70.53,34.19c0.63-0.74,1.96-3.94,5.9-3.01 c5.14,1.21,5.1,8.83-0.25,9.8c-3.41,0.62-4.57-1.65-5.65-3.04c-1.68-0.11-3.55-0.03-5.25-0.03c-3.39-0.01-2.58,0.16-6.5,4.05 c-0.72,0.72-1.67,1.98-3.13,2.17c-2.02,0.27-12.3,0.04-15.76,0.04c-2.16,0-3.33,0.39-3.28-2.01c0.05-2.17,1.61-1.7,3.46-1.7 c2.85,0,14.43,0.36,15.4-0.42c1.34-1.08,3.96-4.22,5.27-5.24C62.17,33.69,68.24,34.24,70.53,34.19L70.53,34.19z M58.78,47.17 c1.01-1.79,2.66-3.67,5.76-3.05c2.15,0.43,4.02,2.4,3.95,5.04c-0.07,2.5-1.93,4.43-4.16,4.81c-2.81,0.48-4.8-1.29-5.47-3.09 l-18.27,0c-2.19,0-3.98,0.61-3.98-1.89c0-1.12,0.24-1.7,1.34-1.8L58.78,47.17L58.78,47.17z M52.39,30.32 c-0.33-1.5-0.95-1.93-0.53-3.87c0.74-3.41,5.16-5.17,7.97-2.83c3.95,3.29,1.44,9.8-4.35,8.82l-2.99,3.05 c-1.19,1.25-1.21,1.97-3.83,1.97c-1.62,0-10.81,0.25-11.5-0.27c-0.74-0.55-1.3-3.43,1.33-3.45c1.93-0.01,3.86,0.01,5.79,0.01 c1.55,0,4.32,0.43,5.27-0.51C50.19,32.6,51.83,30.61,52.39,30.32L52.39,30.32z M54.55,58.09c3.25-0.37,5.52,0.7,6.32,3.34 c0.94,3.06-1.02,5.52-3.16,6.24c-3.65,1.24-6.9-1.79-6.61-5.2c0.07-0.87,0.45-1.34,0.53-1.87c0.08-0.46-1.96-2.6-2-2.63 c-0.86-0.73-7.78-0.38-9.57-0.38c-1.71,0-3.31,0.43-3.44-1.45c-0.16-2.18,0.59-2.26,2.57-2.25c3.27,0.02,6.55-0.03,9.81,0 c2.61,0.02,2.98,1.38,4.47,2.88C53.89,57.18,54.25,57.59,54.55,58.09L54.55,58.09z M62.68,46.84c-2.99,1.22-1.29,5.34,1.55,4.42 C67.24,50.29,65.59,45.65,62.68,46.84L62.68,46.84z M74.5,33.83c-2.93,1.04-1.45,5.35,1.48,4.48C78.74,37.5,77.66,32.71,74.5,33.83 L74.5,33.83z M55.63,60.63c-3.2,0.72-1.99,5.27,1.03,4.6C59.39,64.62,58.74,59.93,55.63,60.63L55.63,60.63z M56.33,25.26 c-3.02,0.63-2.26,5.35,1.03,4.6C60.08,29.23,59.36,24.62,56.33,25.26z"></path> </g> </svg>