<svg xmlns="http://www.w3.org/2000/svg" xmlns:xlink="http://www.w3.org/1999/xlink" id="Layer_1" x="0px" y="0px" viewBox="0 0 91 91" style="enable-background:new 0 0 91 91;" xml:space="preserve"> <style type="text/css"> .st0{fill-rule:evenodd;clip-rule:evenodd;fill:#FFFFFF;} .st1{fill-rule:evenodd;clip-rule:evenodd;fill:#0B2852;} </style> <g> <ellipse transform="matrix(0.9239 -0.3827 0.3827 0.9239 -13.9486 20.8756)" class="st0" cx="45.5" cy="45.5" rx="45.5" ry="45.5"></ellipse> <path class="st1" d="M24.14,26.7c-3.24,2.18-3.31,5.4-1.18,7.39c1.03,0.95,1.47,0.35,2.08,1.89c0.77,1.96,1.7,3.18,2.76,4.9 c1.73,2.8,1.78,2.01,1.66,6.14c-4.61,2.12-11.26,2.08-14.13,8.51c-1.43,3.21-1.02,6.35-1.05,10.18c-0.02,3.75-0.84,7.8,3.5,7.91 c7.44,0.19,15.24,0.04,22.71,0c1.81-0.01,15.94,0.16,17.01-0.11c0.75-0.19,1.31-0.72,1.65-1.15c0.71-0.89,0.45-1.28,0.85-2.09 c4.02-0.34,9.53-0.06,13.7-0.05c6.37,0.02,5.32-3.18,5.38-8.28c0.05-4.54,0.04-9.16,0.01-13.7c-0.02-2.25,0.36-4.21-1.07-5.64 c-1.63-1.63-3.13-0.95-5.73-1.23c-0.24-1.06,0.25-2.39-1.03-2.42c-1.31-0.04-0.94,1.43-1.07,2.41l-3.83,0.07 c-1.7,0-1.31-0.35-1.37-1.07c-0.07-0.82,0.18-0.57-0.33-1.1c-0.44-0.49-0.98-0.48-1.37,0.06c-0.33,0.45-0.21,1.35-0.27,2.03 c-1.5,0.08-3.76,0.3-5.02-0.1c-0.21-0.61-0.13-3.52-1.73-1.99c-0.9,0.9,0.37,1.93-0.98,2.15c-0.22,0.04-0.67,0.02-0.91,0.02 c-5.57-0.09-5.3,2.11-5.4,6.91c-1.09-0.1-3.25-0.9-4.26-1.32c-0.23-2.66,0.04-2.77,1.94-5.55l2.92-4.76 c1.22-1.45,3.09-1.97,3.57-4.1c0.63-2.8-0.88-4.11-2.48-5.21c-0.21-5.63,0.19-7.96-2.9-11.96c-1.91-2.47-5.47-4.79-9.91-4.93 c-4.5-0.15-8.44,2.07-10.39,4.46C23.75,19.55,24.42,21.91,24.14,26.7L24.14,26.7z M51.09,49.65c0.83-0.3,24.25-0.22,26.04-0.12 l0.03,11.3c-0.07,7.99,0.81,7.46-5.14,7.46H59.64c-7.56-0.01-8.71,0.99-8.69-3.7C50.96,61.22,50.82,52.69,51.09,49.65L51.09,49.65z M26.15,26.78C24.93,11.68,39.84,9.12,45.96,16.34c2.48,2.92,2.76,5.19,2.77,9.59c0,1.18-1.28,1.89-2.23,2.07 c-1.03-1.45-1.77-2.84-4.31-2.67c-2.2,0.15-2.92,1.32-3.75,3.18l-2.58-0.02c-0.7-1.46-1.58-2.8-3.62-2.9 c-2.29-0.11-2.96,1.31-3.93,2.43C27.45,27.79,26.87,27.28,26.15,26.78L26.15,26.78z M45.72,39.27c-0.36,0.84-1.47,2.5-1.99,3.22 c-0.82,1.14-1.66,1.82-3.06,2.18c-2.03,0.52-2.29-0.14-4.7,0.15c-3.93,0.46-5.82-3.59-8.01-7.29c-1.5-2.54-2.09-4.59-1.8-8.31 c0.42,0.06,0.92,0.43,1.35,0.7c0.83,0.52,0.58,0.33,0.98,1.1c0.41,0.81,1.03,1.64,2.08,2.04c2.53,0.95,4.25-0.42,5.26-2.61 l2.56,0.04c1.12,2.6,3.24,3.85,5.62,2.86c2.72-1.13,1.65-2.43,3.29-3.45c0.34-0.21,0.88-0.6,1.36-0.68 c0.18,1.4,0.13,3.08-0.16,4.34c-0.47,2.01-0.46,1.74-1.97,2.7c-1.38,0.88-4.33,3.18-6.11,3.25c-0.67-1.45-2.75-2.04-4.03-0.63 c-2.13,2.34,1.39,5.62,3.49,3.5c1.1-1.11,0.06-0.63,1.91-1.09C43.51,40.87,44.53,39.54,45.72,39.27L45.72,39.27z M40.39,56.78 c1.54-0.34,1.46,0.12,2.63-1.11l3.76-3.75c0.69-0.69,1.11-1.53,2.2-1.4l0.03,10.13c0.01,2.91-0.61,6.82,1.17,8.52 c1.85,1.77,4.8,0.81,7.71,1.12c0.03,1.89-2.14,1.41-3.69,1.42l-11.6-0.04c-0.61-2.02-0.95-5.12-1.33-7.34 C40.91,62.2,39.97,58.94,40.39,56.78L40.39,56.78z M33.77,71.67c-0.11-0.85,1.76-11.48,2.11-12.62c0.75-0.1,1.82-0.18,2.4,0.09 c0.26,0.6,2.23,11.82,2.17,12.54L33.77,71.67L33.77,71.67z M61.89,55.6c-2.81,0-2.24-1.99-0.38-1.99c1.38,0,5.22-0.17,5.94,0.12 c1.36,0.55,0.27,2.23-0.11,2.98c-1.02,2.02-1.83,3.77-2.83,5.84c-0.38,0.78-0.91,2.48-2.12,1.92c-1.88-0.87,3.02-6.8,3.12-8.88 L61.89,55.6L61.89,55.6z M42.7,46.06c0.03,0.96-0.43,0.95-1.08,1.44c-5.29,3.98-4.08,3.7-7.92,1.17c-0.58-0.39-1.08-0.67-1.62-0.99 c-0.92-0.56-0.66-0.73-0.67-1.97c0.98,0.24,1.55,0.68,2.65,0.92c0.95,0.21,2,0.17,3.06,0.16C42.51,46.72,39.56,46.68,42.7,46.06 L42.7,46.06z M38.72,52.2l0.8-0.81c0.29-0.21,0.56-0.39,0.88-0.61c2.33-1.63,2.55-2.75,5.67-1.21c-0.15,0.73-1.8,2.1-2.34,2.66 c-0.49,0.49-0.84,0.82-1.31,1.31c-0.69,0.72-0.67,0.88-1.4,1.21L38.72,52.2L38.72,52.2z M28.12,49.56c2.6-0.92,1.83-0.92,3.94,0.38 c0.86,0.52,2.76,1.61,3.36,2.26c-0.43,0.99-1.57,1.52-2.13,2.52c-1.05-0.31-3.19-2.88-4.11-3.78c-0.23-0.22-0.49-0.45-0.67-0.65 C28.01,49.72,28.26,50.2,28.12,49.56L28.12,49.56z M35.87,57c-0.27-0.62-0.57-1.49-0.18-2.1c0.15-0.24,1.05-1.19,1.44-1.34 c1.78,1.38,1.72,1.79,1.23,3.48L35.87,57L35.87,57z M36.47,34.37c0-3.18,3.18-1.06,1.58,1.75l-1.27-0.1 c-0.2-0.34-0.31-0.71-0.31-1.27V34.37z"></path> </g> </svg>