<svg xmlns="http://www.w3.org/2000/svg" xmlns:xlink="http://www.w3.org/1999/xlink" xml:space="preserve" width="91px" height="91px" style="shape-rendering:geometricPrecision; text-rendering:geometricPrecision; image-rendering:optimizeQuality; fill-rule:evenodd; clip-rule:evenodd" viewBox="0 0 5.76 5.76"> <defs> <style type="text/css"> .fil1 {fill:#083264} .fil0 {fill:white} </style> </defs> <g id="Layer_x0020_1"> <metadata id="CorelCorpID_0Corel-Layer"></metadata> <g id="_1718115620144"> <circle class="fil0" cx="2.88" cy="2.88" r="2.88"></circle> <path class="fil1" d="M3.37 1.64c-0.06,0 -0.12,0.02 -0.16,0.05 -0.04,0.03 -0.26,0.25 -0.31,0.3 0,0.01 -0.02,0.02 -0.02,0.03 -0.02,-0.01 -0.31,-0.31 -0.34,-0.33 -0.04,-0.03 -0.08,-0.04 -0.13,-0.04 -0.07,0 -0.1,0.03 -0.18,0 -0.08,-0.02 -0.09,-0.07 -0.13,-0.09l-0.58 0.58c0.01,0.01 0.01,0.01 0.02,0.02 0,0 0,0 0,0 0,0 0,0 0,0 0.01,0.01 0,0 0.01,0.01l0.04 0.04c0,0 0,0 0,0 0,0 0,0 0,0l0.02 0.02c0.01,0.01 0.01,0.01 0.01,0.01l-0.01 0.04c0,0.03 0,0.06 0,0.09 0,0.01 0,0.03 0,0.04l0 0.03c0,0.04 0.02,0.09 0.04,0.12 0.02,0.04 0.04,0.06 0.07,0.09 0.03,0.03 0.49,0.49 0.5,0.5 0,-0.04 0.02,-0.09 0.04,-0.13 0.02,-0.03 0.04,-0.04 0.05,-0.05l-0.16 -0.17 0.03 -0.03 0.17 0.17c0.02,-0.01 0.04,-0.02 0.06,-0.03 0.01,0 0.02,0 0.02,-0.01l0 -0.19c0,-0.01 -0.08,-0.09 -0.09,-0.1l0.04 -0.04c0.01,0.01 0.04,0.05 0.05,0.06 0,-0.06 0,-0.12 0,-0.17 0,-0.06 -0.01,-0.15 0.02,-0.2 0,-0.02 0.01,-0.04 0.03,-0.05 0,-0.01 0,-0.01 0.01,-0.01l0.02 -0.02c0.03,-0.03 0.07,-0.05 0.1,-0.05 0.02,0 0.04,0 0.05,0.01 0,-0.01 -0.01,-0.02 -0.02,-0.02 -0.01,-0.01 -0.04,-0.04 -0.05,-0.05l0.04 -0.04 0.1 0.1c0,-0.01 0.01,-0.01 0.01,-0.02 0.04,-0.05 0.09,-0.09 0.17,-0.09 0.04,0 0.09,0.03 0.12,0.06 0.03,0.02 0.04,0.06 0.05,0.09 0.01,0.01 0.01,0.02 0.01,0.04 0.02,0 0.11,-0.06 0.21,0.03 0.03,0.03 0.06,0.07 0.06,0.12 0.01,0.02 0,0.19 0,0.22 0.01,0 0.02,0 0.02,0 0.01,0 0.02,0.01 0.02,0.01 0.02,0 0.03,0.01 0.04,0.01 0.02,0.02 0.06,0.04 0.07,0.06 0,0.01 0.01,0.01 0.01,0.01 0.02,0.03 0.05,0.08 0.05,0.11 0.01,-0.01 0.07,-0.07 0.08,-0.08 0.01,-0.01 0.03,-0.02 0.04,-0.04 0.01,-0.01 0.03,-0.03 0.04,-0.04l0.03 0.04c0,0.01 -0.15,0.15 -0.17,0.17 -0.01,0.01 -0.01,0.01 -0.01,0.03l0 0.17c0.05,0 0.1,-0.03 0.13,-0.06l0.02 -0.01c0.04,-0.05 0.35,-0.35 0.36,-0.37 0.01,-0.01 0.02,-0.02 0.03,-0.03 0.03,-0.05 0.04,-0.12 0.02,-0.18 -0.02,-0.06 -0.01,-0.12 0.03,-0.17 0.02,-0.03 0.05,-0.05 0.07,-0.08l-0.59 -0.58c0,0.01 -0.01,0.02 -0.02,0.03 -0.01,0.01 -0.02,0.01 -0.02,0.02 -0.01,0.01 -0.05,0.05 -0.05,0.05 -0.01,0 -0.08,-0.01 -0.09,-0.01 -0.02,0 -0.03,0 -0.05,0 -0.01,0 -0.01,0 -0.02,0 -0.01,0 -0.02,0 -0.03,0zm-2.16 0.35l0.2 0.19 0.73 -0.74 -0.19 -0.19 -0.74 0.74zm2.41 -0.55l0.73 0.73c0.01,0 0.02,-0.01 0.03,-0.02 0.01,-0.01 0.01,-0.02 0.02,-0.02l0.13 -0.14c0.01,0 0.01,0 0.02,-0.01l-0.74 -0.74 -0.19 0.2zm-1.24 2.75l0 0.33 1.04 0 0 -0.33 -1.04 0c0,0 0,0 0,0zm0.07 -1.21l0.05 0 0 0.44 -0.05 0 0 -0.44zm0.83 0.23l0 -0.57c0,0 0,0 0,0l0.05 0c0,0 0,0 0,0l0 0.57c0,0 0,0 0,0l-0.05 0c0,0 0,0 0,0zm-0.52 -1.01l0 0.11 0.02 0 0 0.84 -0.05 0 0 -0.84 0.03 0c0,-0.04 -0.03,-0.08 -0.06,-0.1 0,0 -0.01,0 -0.01,-0.01 -0.02,-0.01 -0.05,-0.02 -0.07,-0.02 -0.04,0 -0.08,0.03 -0.1,0.05 -0.01,0.01 -0.02,0.02 -0.02,0.04 -0.01,0.01 -0.02,0.03 -0.02,0.05l0 0.63c-0.05,0 -0.09,0.02 -0.13,0.05 -0.01,0 -0.02,0.01 -0.03,0.02 -0.02,0.02 -0.03,0.04 -0.04,0.07 -0.01,0.02 -0.02,0.05 -0.02,0.09l0 0.51c0,0.03 0.01,0.05 0.01,0.07 0.01,0.03 0.03,0.06 0.05,0.08 0.05,0.06 0.11,0.05 0.15,0.14 0.03,0.08 0,0.15 0.02,0.15l0.81 0c0.01,0 0.01,-0.03 0.01,-0.04l0 -0.09c0,-0.01 0,0 0.02,-0.02l0.06 -0.07c0.04,-0.03 0.07,-0.05 0.09,-0.09 0.04,-0.05 0.05,-0.1 0.05,-0.18l0 -0.77c0,-0.04 -0.01,-0.07 -0.02,-0.1 -0.03,-0.09 -0.11,-0.15 -0.2,-0.15l0 -0.23c0,-0.12 -0.13,-0.2 -0.23,-0.12 0,0 -0.01,0.01 -0.02,0.02l-0.01 0.02c-0.01,0.01 -0.02,0.03 -0.02,0.05l0.03 0 0 0.84 -0.06 0 0 -0.84 0.03 0 0 -0.15c0,-0.02 -0.01,-0.05 -0.02,-0.07 -0.02,-0.02 -0.04,-0.04 -0.06,-0.05 -0.08,-0.05 -0.19,0.02 -0.19,0.11z"></path> </g> </g> </svg>