<svg xmlns="http://www.w3.org/2000/svg" xmlns:xlink="http://www.w3.org/1999/xlink" xml:space="preserve" width="91px" height="91px" style="shape-rendering:geometricPrecision; text-rendering:geometricPrecision; image-rendering:optimizeQuality; fill-rule:evenodd; clip-rule:evenodd" viewBox="0 0 42.93 42.93"> <defs> <style type="text/css"> .fil1 {fill:#083264} .fil0 {fill:white} </style> </defs> <g id="Layer_x0020_1"> <metadata id="CorelCorpID_0Corel-Layer"></metadata> <g id="_1718376500544"> <circle class="fil0" cx="21.46" cy="21.46" r="21.46"></circle> <path class="fil1" d="M21.05 29.85c0,-0.26 -0.02,-0.63 0.07,-0.85 0.13,-0.28 0.76,-0.41 0.76,0.43 0,0.32 0.07,0.97 -0.42,0.97 -0.29,0 -0.41,-0.28 -0.41,-0.55zm1.66 -7.97l1.61 0 0 -2.07 -1.61 2.07zm-1.33 -12.21l0.16 0c0.12,0.03 0.25,0.12 0.4,0.27 0.38,0.38 1.06,0.91 1.52,1.23 0.11,0.07 0.13,0.1 0.22,0.16 1.76,1.12 3.45,1.8 5.66,1.8 1.34,0 2.3,-0.58 2.3,0.23l0 6.95c0,1.87 -0.43,3.49 -1,4.81 -0.21,0.48 -0.74,1.43 -1.04,1.85 -1.03,1.42 -1.49,1.84 -2.78,2.98 -0.26,0.23 -0.53,0.42 -0.8,0.63 -0.92,0.69 -2.53,1.71 -3.54,2.22 -0.53,0.26 -0.73,0.44 -0.97,0.46l-0.06 0c-0.14,-0.01 -0.3,-0.08 -0.55,-0.22 -1.85,-1.03 -3.16,-1.72 -4.84,-3.13 -0.93,-0.79 -1.75,-1.61 -2.48,-2.59 -1.5,-2 -2.3,-4.45 -2.3,-7.01l0 -6.95c0,-0.64 0.71,-0.41 0.96,-0.36 0.52,0.1 0.99,0.13 1.58,0.13 1.25,0 2.36,-0.31 3.42,-0.73 1.21,-0.48 2.85,-1.55 3.75,-2.46 0.15,-0.15 0.27,-0.24 0.39,-0.27zm2.66 18.98c0,-0.56 0.55,-0.52 0.71,-0.25 0.11,0.18 0.52,0.96 0.27,1.22 -0.6,0.63 -0.98,-0.96 -0.98,-0.97zm-5.85 1.11c-0.25,0 -0.37,-0.2 -0.37,-0.47 0,-0.14 0.18,-0.48 0.23,-0.6 0.16,-0.4 0.15,-0.46 0.56,-0.46 0.21,0 0.27,0.24 0.27,0.42 0,0.01 -0.25,1.11 -0.69,1.11zm8.34 -2.81c0,-0.21 0.19,-0.42 0.37,-0.42 0.24,0 1.27,0.77 0.9,1.23 -0.42,0.53 -1.27,-0.65 -1.27,-0.81zm-11.1 0.96c-0.24,0 -0.6,-0.35 -0.24,-0.75 0.34,-0.38 0.71,-0.82 1.06,-0.53 0.53,0.44 -0.66,1.28 -0.82,1.28zm13.08 -3.87c0.33,0 0.41,0.09 0.78,0.24 0.8,0.32 0.45,0.82 0,0.82 -0.13,0 -0.77,-0.28 -0.89,-0.35 -0.35,-0.21 -0.14,-0.71 0.11,-0.71zm-14.88 1.06c-0.6,0 -0.49,-0.51 -0.33,-0.65 0.09,-0.09 0.8,-0.41 1.12,-0.41 0.24,0 0.45,0.5 0.11,0.71 -0.12,0.07 -0.77,0.35 -0.9,0.35zm11.06 -6.86c0.24,0 0.41,0.11 0.41,0.37l0 3.27 0.74 0c0.7,0 0.59,0.78 0.09,0.78l-0.83 0c0,1.08 0.16,1.61 -0.41,1.61 -0.52,0 -0.37,-0.81 -0.37,-1.61l-2.53 0c-0.2,0 -0.4,-0.33 -0.26,-0.57l0.44 -0.58c0.14,-0.18 0.28,-0.36 0.42,-0.55 0.09,-0.11 0.15,-0.17 0.23,-0.28l1.74 -2.26c0.08,-0.11 0.14,-0.18 0.33,-0.18zm-10.27 4.1c-0.81,0 -0.36,-0.69 -0.21,-0.94 0.3,-0.51 0.68,-1.36 1.13,-1.36 0.48,0 0.7,0.57 0.98,1.03 0.2,0.33 0.52,0.72 0.45,1 -0.08,0.3 -0.29,0.27 -0.47,0.27 -0.22,0 -0.35,-0.44 -0.5,-0.55 0,1.06 0.63,2.68 1.37,3.42 0.29,0.29 0.03,0.11 0.5,0.5 0.08,0.07 0.11,0.12 0.19,0.18 2.03,1.65 4.93,1.71 6.96,0.17 0.69,-0.52 1.13,-0.99 1.58,-1.74l0.42 -0.86c0.23,-0.34 0.72,-0.18 0.72,0.21 0,0.18 -0.29,0.75 -0.38,0.91 -1.07,1.99 -3.28,3.38 -5.74,3.38 -3.46,0 -6.41,-2.85 -6.41,-6.31 -0.19,0.14 -0.32,0.69 -0.59,0.69zm3.4 -1.75c-0.84,0 -0.24,-1.35 0.13,-1.72 1.14,-1.13 3.47,-0.81 3.47,1.21 0,1.58 -2.39,2.09 -3.09,3.41l2.63 0c0.7,0.05 0.58,0.78 0.13,0.78l-3.31 0c-0.68,0 -0.3,-1.09 0.13,-1.57 0.26,-0.31 0.59,-0.63 0.93,-0.87l1.06 -0.73c0.62,-0.48 1.08,-1.29 0.42,-1.81 -0.71,-0.56 -2.02,-0.28 -2.13,0.88 -0.02,0.26 -0.09,0.42 -0.37,0.42zm10.83 -1.71c-0.56,0 -0.52,-0.54 -0.25,-0.71 0.18,-0.11 0.96,-0.51 1.22,-0.26 0.28,0.26 0.13,0.55 -0.3,0.72 -0.15,0.07 -0.53,0.25 -0.67,0.25zm-15.48 -0.69c0,-0.71 1.09,-0.18 1.36,-0.02 0.26,0.17 0.31,0.71 -0.25,0.71 -0.12,0 -0.86,-0.31 -0.95,-0.38 -0.09,-0.07 -0.16,-0.19 -0.16,-0.31zm2.77 1.11c-0.31,0 -0.42,-0.29 -0.42,-0.32 0,-0.4 0.67,-1.3 0.88,-1.57 1.14,-1.52 3.19,-2.44 5.16,-2.44 2.05,0 3.87,0.98 5.07,2.57 0.66,0.88 1.24,2.28 1.24,3.42 0.14,-0.11 0.34,-0.57 0.43,-0.67 0.31,-0.38 0.82,-0.02 0.67,0.38l-0.79 1.34c-0.37,0.63 -0.85,0.63 -1.2,0.06 -0.21,-0.34 -0.91,-1.37 -0.83,-1.63 0.09,-0.28 0.47,-0.41 0.71,-0.09l0.18 0.24c-0.03,-1.28 -1.05,-2.85 -2.1,-3.67 -2.46,-1.93 -6.18,-1.39 -8.02,1.1 -0.5,0.66 -0.62,1.28 -0.98,1.28zm11.05 -2.9c-0.22,0 -0.46,-0.16 -0.46,-0.37 0,-0.36 0.81,-1.02 0.92,-1.02 0.27,0 0.46,0.19 0.46,0.42 0,0.2 -0.26,0.42 -0.38,0.54 -0.1,0.1 -0.4,0.43 -0.54,0.43zm-10.59 -0.42c0,0.22 -0.16,0.42 -0.37,0.42 -0.24,0 -1.27,-0.77 -0.91,-1.23 0.43,-0.53 1.28,0.65 1.28,0.81zm7.64 -1.56c0,-0.23 0.27,-1.25 0.69,-1.25 0.71,0 0.19,1.1 0.03,1.36 -0.21,0.34 -0.72,0.15 -0.72,-0.11zm-6.22 -0.79c0,-0.15 -0.01,-0.23 0.09,-0.33 0.26,-0.27 0.55,-0.12 0.72,0.31 0.16,0.37 0.25,0.45 0.25,0.81 0,0.24 -0.49,0.47 -0.71,0.11 -0.06,-0.11 -0.35,-0.79 -0.35,-0.9zm3.23 -0.14c0,-0.28 -0.06,-0.96 0.37,-0.96 0.7,0 0.43,1.3 0.38,1.39 -0.13,0.29 -0.75,0.42 -0.75,-0.43z"></path> </g> </g> </svg>