<svg xmlns="http://www.w3.org/2000/svg" xmlns:xlink="http://www.w3.org/1999/xlink" xml:space="preserve" width="91px" height="91px" style="shape-rendering:geometricPrecision; text-rendering:geometricPrecision; image-rendering:optimizeQuality; fill-rule:evenodd; clip-rule:evenodd" viewBox="0 0 6.31 6.31"> <defs> <style type="text/css"> .fil1 {fill:#083264} .fil0 {fill:white} </style> </defs> <g id="Layer_x0020_1"> <metadata id="CorelCorpID_0Corel-Layer"></metadata> <g id="_1718315499120"> <circle class="fil0" cx="3.16" cy="3.16" r="3.16"></circle> <g> <path class="fil1" d="M2.55 3.53c0,0.13 0.18,0.17 0.23,0.07 0.01,-0.03 0.02,-0.09 0.03,-0.13 0.01,-0.05 0.05,-0.23 0.05,-0.26l0 0c0,0.08 -0.01,1.56 0,1.61 0.03,0.15 0.28,0.14 0.28,-0.02l0 -0.96 0.06 0 0 0.98c0,0.16 0.24,0.12 0.25,0.01l0 -1.64c0,0.03 0.07,0.36 0.08,0.4 0.04,0.12 0.23,0.07 0.23,-0.06 0,-0.03 -0.12,-0.46 -0.13,-0.52 -0.01,-0.04 -0.02,-0.1 -0.03,-0.14 -0.02,-0.05 -0.03,-0.06 -0.06,-0.1 -0.07,-0.06 -0.18,-0.04 -0.29,-0.04 -0.01,0.02 -0.02,0.05 -0.03,0.07l-0.13 0c-0.01,-0.09 -0.04,-0.07 -0.2,-0.07 -0.18,0 -0.18,0.21 -0.22,0.35l-0.09 0.34c-0.01,0.02 -0.03,0.09 -0.03,0.11z"></path> <path class="fil1" d="M2.05 3.13c0,0.11 0.17,0.18 0.22,0.06 0.02,-0.02 0.05,-0.21 0.06,-0.25 0,-0.03 0.01,-0.04 0.01,-0.07 0,-0.02 0.01,-0.04 0.01,-0.07l0.01 1.37c0,0.07 -0.01,0.15 0,0.22 0,0.16 0.2,0.14 0.24,0.09 0.05,-0.05 0.03,-0.21 0.03,-0.31 0,-0.15 0,-0.3 0,-0.45 -0.09,-0.02 -0.15,-0.09 -0.15,-0.19 0,-0.04 0.02,-0.1 0.03,-0.14 0.02,-0.04 0.03,-0.08 0.04,-0.12 0.02,-0.09 0.06,-0.25 0.08,-0.34 0.01,-0.06 0.02,-0.11 0.07,-0.18 0.07,-0.09 0.13,-0.09 0.24,-0.09 -0.07,-0.1 -0.09,-0.1 -0.09,-0.25 0,-0.04 0.01,-0.05 0.01,-0.08 -0.13,0 -0.12,-0.02 -0.14,0.06l-0.14 0c0,-0.02 -0.01,-0.04 -0.01,-0.06 -0.17,0 -0.3,-0.04 -0.36,0.13 -0.01,0.05 -0.02,0.1 -0.03,0.15l-0.1 0.39c-0.01,0.02 -0.03,0.1 -0.03,0.13z"></path> <path class="fil1" d="M1.54 2.72c0,0.07 0.05,0.11 0.1,0.12 0.15,0.04 0.15,-0.14 0.17,-0.25 0.01,-0.04 0.04,-0.16 0.04,-0.2l0 1.38c0,0.13 -0.03,0.34 0.12,0.34 0.06,0 0.15,0 0.16,-0.11 0.01,-0.07 0,-0.16 0,-0.23 0,-0.15 0,-0.3 0,-0.45 -0.05,-0.01 -0.07,-0.03 -0.1,-0.06 -0.08,-0.09 -0.05,-0.18 -0.02,-0.27 0.01,-0.05 0.02,-0.09 0.04,-0.13 0.01,-0.04 0.02,-0.09 0.03,-0.13 0.01,-0.04 0.02,-0.09 0.03,-0.13 0.03,-0.11 0.02,-0.17 0.08,-0.25 0.07,-0.09 0.14,-0.09 0.24,-0.09 0,-0.03 -0.01,-0.02 -0.04,-0.07 -0.01,-0.02 -0.03,-0.05 -0.04,-0.08 -0.02,-0.1 0.01,-0.15 0.01,-0.19 -0.13,0 -0.12,-0.01 -0.13,0.03 -0.01,0.02 -0.01,0.03 -0.01,0.04l-0.14 0c0,-0.03 -0.01,-0.04 -0.02,-0.07 -0.05,0 -0.11,0 -0.16,0 -0.18,0 -0.19,0.13 -0.22,0.28 -0.02,0.12 -0.07,0.27 -0.1,0.39 -0.01,0.03 -0.04,0.11 -0.04,0.13z"></path> <path class="fil1" d="M3.47 2.42c0,0.06 -0.01,0.1 -0.03,0.15 -0.03,0.05 -0.06,0.07 -0.06,0.09 0.12,0 0.2,0.01 0.27,0.14 0.02,0.04 0.06,0.26 0.08,0.33 0.03,0.11 0.06,0.22 0.09,0.33 0.06,0.21 -0.12,0.23 -0.12,0.26l0 0.7c0,0.05 0.04,0.1 0.09,0.1 0.08,0 0.09,0 0.14,-0.04 0.02,-0.03 0.02,-0.04 0.02,-0.09l0.01 -1.61c0,0.04 0.02,0.1 0.02,0.14l0.06 0.27c0.04,0.12 0.22,0.05 0.22,-0.04 0,-0.08 -0.04,-0.2 -0.06,-0.29 -0.03,-0.08 -0.05,-0.17 -0.07,-0.26 -0.03,-0.1 -0.02,-0.28 -0.22,-0.27 -0.05,0 -0.11,0 -0.16,0 -0.02,0.08 -0.01,0.06 -0.14,0.06 -0.02,0 -0.02,-0.01 -0.02,-0.02 -0.01,-0.02 -0.01,-0.03 -0.02,-0.04l-0.12 0c0.01,0.03 0.02,0.05 0.02,0.09z"></path> <path class="fil1" d="M3.97 2.01c0,0.07 0,0.1 -0.03,0.16 -0.03,0.05 -0.06,0.07 -0.06,0.09 0.11,0 0.16,-0.01 0.24,0.09 0.06,0.07 0.06,0.14 0.08,0.24 0.02,0.1 0.04,0.18 0.07,0.27 0.01,0.04 0.02,0.08 0.03,0.12 0.03,0.09 0.07,0.17 0,0.26 -0.02,0.03 -0.06,0.06 -0.09,0.07l0 0.67c0,0.14 0.05,0.13 0.14,0.13 0.07,0 0.11,-0.05 0.11,-0.11l0 -1.62c0,0.03 0.04,0.19 0.05,0.23 0.01,0.07 0.02,0.18 0.06,0.22 0.07,0.06 0.24,-0.01 0.19,-0.15l-0.09 -0.33c-0.02,-0.07 -0.04,-0.15 -0.05,-0.23 -0.01,-0.07 -0.05,-0.15 -0.1,-0.18 -0.06,-0.03 -0.19,-0.02 -0.27,-0.02 -0.02,0.09 -0.01,0.07 -0.14,0.07 -0.02,0 -0.03,-0.04 -0.03,-0.07l-0.13 0c0.01,0.04 0.02,0.05 0.02,0.09z"></path> <path class="fil1" d="M2.93 1.62c0,0.08 0.03,0.14 0.06,0.18 0.1,0.09 0.25,0.08 0.33,0 0.06,-0.07 0.09,-0.18 0.05,-0.27 -0.02,-0.03 -0.03,-0.05 -0.05,-0.07 -0.13,-0.15 -0.39,-0.06 -0.39,0.16z"></path> <path class="fil1" d="M3.94 1.62c0,0.22 0.25,0.33 0.39,0.18 0.14,-0.16 0.04,-0.41 -0.16,-0.41 -0.14,0 -0.23,0.12 -0.23,0.23z"></path> <path class="fil1" d="M3.43 2.03c0,0.21 0.24,0.32 0.39,0.17 0.12,-0.12 0.08,-0.32 -0.06,-0.39 -0.09,-0.04 -0.19,-0.02 -0.26,0.05 -0.03,0.03 -0.07,0.1 -0.07,0.17z"></path> <path class="fil1" d="M2.42 2.03c0,0.23 0.27,0.31 0.4,0.16 0.03,-0.03 0.06,-0.1 0.06,-0.16 0,-0.07 -0.03,-0.13 -0.07,-0.17 -0.17,-0.17 -0.39,-0.01 -0.39,0.17z"></path> <path class="fil1" d="M2.93 2.43c0,0.07 0.03,0.13 0.06,0.16 0.06,0.07 0.09,0.08 0.18,0.08 0.07,0 0.12,-0.04 0.15,-0.07 0.15,-0.16 0.01,-0.4 -0.14,-0.4 -0.08,0 -0.13,0 -0.19,0.07 -0.03,0.04 -0.06,0.1 -0.06,0.16z"></path> <path class="fil1" d="M1.92 1.61c0,0.08 0.02,0.14 0.07,0.19 0.16,0.16 0.38,0.01 0.38,-0.15 0,-0.06 0,-0.11 -0.04,-0.17 -0.07,-0.09 -0.17,-0.12 -0.27,-0.07 -0.07,0.03 -0.14,0.12 -0.14,0.2z"></path> <path class="fil1" d="M4.03 4.11c0.07,0 0.12,-0.05 0.12,-0.1l0 -0.69c-0.06,0 -0.08,0 -0.12,-0.03l0 0.82z"></path> <path class="fil1" d="M3.52 4.52c0.07,0 0.12,-0.05 0.12,-0.11l0 -0.67c0,-0.03 -0.03,-0.01 -0.06,-0.02 -0.03,-0.01 -0.04,-0.02 -0.06,-0.02l0 0.82z"></path> <path class="fil1" d="M2.96 2.02c0,0.16 -0.08,0.2 -0.09,0.24 0.06,0 0.02,-0.03 0.12,-0.09 0.13,-0.08 0.28,-0.06 0.39,0.05 0.01,0.01 0.01,0.01 0.02,0.02 0.02,0.02 0.02,0.02 0.04,0.02 0,-0.02 -0.01,-0.03 -0.02,-0.04 -0.02,-0.02 -0.02,-0.03 -0.03,-0.05 -0.04,-0.07 -0.04,-0.08 -0.04,-0.16 0,-0.03 0.01,-0.06 0.02,-0.09l-0.12 0c-0.01,0.02 -0.02,0.05 -0.03,0.07l-0.13 0c0,-0.01 -0.02,-0.05 -0.02,-0.07l-0.12 0c0,0.04 0.01,0.06 0.01,0.1z"></path> <path class="fil1" d="M2.7 3.72l0 0.71c0,0.05 0.04,0.09 0.09,0.09l0 -0.82c-0.04,0 -0.04,0.02 -0.09,0.02z"></path> <path class="fil1" d="M2.19 3.32l0 0.7c0,0.06 0.04,0.09 0.1,0.09l0 -0.82c-0.03,0.01 -0.04,0.03 -0.1,0.03z"></path> </g> </g> </g> </svg>