<svg xmlns="http://www.w3.org/2000/svg" xmlns:xlink="http://www.w3.org/1999/xlink" xml:space="preserve" width="91px" height="91px" style="shape-rendering:geometricPrecision; text-rendering:geometricPrecision; image-rendering:optimizeQuality; fill-rule:evenodd; clip-rule:evenodd" viewBox="0 0 84.05 84.05"> <defs> <style type="text/css"> .fil1 {fill:#083264} .fil0 {fill:white} </style> </defs> <g id="Layer_x0020_1"> <metadata id="CorelCorpID_0Corel-Layer"></metadata> <g id="_1718185664000"> <circle class="fil0" cx="42.02" cy="42.02" r="42.02"></circle> <g> <path class="fil1" d="M41.21 58.44c0,-0.5 -0.04,-1.23 0.15,-1.66 0.25,-0.55 1.48,-0.81 1.48,0.85 0,0.62 0.13,1.89 -0.82,1.89 -0.57,0 -0.81,-0.55 -0.81,-1.08zm0.65 -39.51l0.32 0c0.24,0.06 0.48,0.23 0.77,0.52 0.74,0.76 2.09,1.8 2.99,2.42 0.2,0.14 0.25,0.2 0.42,0.31 3.45,2.19 6.77,3.52 11.09,3.52 2.61,0 4.51,-1.12 4.51,0.45l0 13.62c0,3.66 -0.84,6.82 -1.96,9.41 -0.41,0.95 -1.45,2.81 -2.05,3.63 -2.02,2.77 -2.92,3.59 -5.44,5.83 -0.51,0.46 -1.03,0.82 -1.57,1.23 -1.8,1.35 -4.94,3.36 -6.93,4.34 -1.03,0.51 -1.42,0.87 -1.88,0.9l-0.14 0c-0.27,-0.01 -0.59,-0.14 -1.08,-0.42 -3.6,-2.02 -6.17,-3.36 -9.47,-6.13 -1.83,-1.54 -3.42,-3.16 -4.85,-5.07 -2.94,-3.91 -4.5,-8.72 -4.5,-13.72l0 -13.62c0,-1.25 1.38,-0.79 1.87,-0.7 1.03,0.2 1.95,0.25 3.09,0.25 2.46,0 4.63,-0.59 6.7,-1.42 2.37,-0.94 5.59,-3.03 7.35,-4.83 0.29,-0.29 0.53,-0.46 0.76,-0.52zm5.22 37.16c0,-1.09 1.07,-1 1.38,-0.48 0.22,0.36 1.02,1.88 0.52,2.39 -1.16,1.22 -1.9,-1.89 -1.9,-1.91zm-11.46 2.17c-0.5,0 -0.72,-0.37 -0.72,-0.9 0,-0.29 0.34,-0.95 0.44,-1.19 0.31,-0.77 0.29,-0.89 1.09,-0.89 0.42,0 0.54,0.47 0.54,0.81 0,0.03 -0.49,2.17 -1.35,2.17zm16.33 -5.5c0,-0.4 0.36,-0.81 0.72,-0.81 0.47,0 2.49,1.5 1.77,2.4 -0.84,1.03 -2.49,-1.28 -2.49,-1.59zm-21.74 1.89c-0.47,0 -1.18,-0.69 -0.48,-1.47 0.68,-0.75 1.4,-1.6 2.08,-1.04 1.05,0.86 -1.28,2.51 -1.6,2.51zm25.62 -7.57c0.63,0 0.8,0.17 1.52,0.46 1.56,0.63 0.89,1.61 0.01,1.61 -0.26,0 -1.52,-0.55 -1.75,-0.69 -0.68,-0.41 -0.27,-1.38 0.22,-1.38zm-29.14 2.07c-1.17,0 -0.96,-1.01 -0.65,-1.28 0.19,-0.17 1.58,-0.79 2.18,-0.79 0.49,0 0.9,0.97 0.22,1.38 -0.23,0.14 -1.49,0.69 -1.75,0.69zm21.65 -13.44c0.48,0 0.81,0.21 0.81,0.72l0 6.41 1.44 0c1.37,0 1.15,1.53 0.18,1.53l-1.62 0c0,2.11 0.31,3.16 -0.81,3.16 -1.02,0 -0.72,-1.59 -0.72,-3.16l-4.96 0c-0.39,0 -0.77,-0.64 -0.51,-1.13l0.87 -1.13c0.27,-0.36 0.54,-0.69 0.82,-1.07 0.17,-0.22 0.28,-0.34 0.44,-0.55l3.42 -4.42c0.16,-0.21 0.28,-0.36 0.64,-0.36zm-20.12 8.03c-1.57,0 -0.69,-1.35 -0.4,-1.84 0.6,-0.99 1.33,-2.67 2.21,-2.67 0.95,0 1.39,1.13 1.93,2.03 0.38,0.64 1.01,1.4 0.88,1.94 -0.15,0.6 -0.57,0.54 -0.92,0.54 -0.44,0 -0.68,-0.86 -0.99,-1.08 0,2.09 1.25,5.25 2.68,6.69 0.57,0.57 0.07,0.22 0.99,1 0.16,0.13 0.22,0.22 0.38,0.35 3.96,3.22 9.64,3.33 13.62,0.33 1.35,-1.02 2.21,-1.95 3.08,-3.41l0.84 -1.69c0.45,-0.67 1.41,-0.35 1.41,0.42 0,0.34 -0.58,1.46 -0.75,1.78 -2.09,3.88 -6.43,6.61 -11.25,6.61 -6.76,0 -12.53,-5.58 -12.53,-12.35 -0.38,0.27 -0.64,1.35 -1.18,1.35zm6.68 -3.43c-1.66,0 -0.47,-2.65 0.25,-3.36 2.23,-2.22 6.78,-1.59 6.78,2.37 0,3.1 -4.67,4.08 -6.04,6.67l5.14 0c1.39,0.11 1.15,1.54 0.27,1.54l-6.49 0c-1.34,0 -0.58,-2.15 0.25,-3.09 0.52,-0.59 1.16,-1.22 1.82,-1.69l2.08 -1.45c1.23,-0.93 2.12,-2.51 0.83,-3.53 -1.4,-1.1 -3.96,-0.56 -4.17,1.73 -0.04,0.5 -0.18,0.81 -0.72,0.81zm21.2 -3.34c-1.1,0 -1.01,-1.07 -0.49,-1.39 0.36,-0.21 1.88,-1.01 2.39,-0.51 0.54,0.51 0.25,1.07 -0.59,1.41 -0.3,0.13 -1.04,0.49 -1.31,0.49zm-30.31 -1.35c0,-1.4 2.13,-0.35 2.65,-0.04 0.52,0.32 0.61,1.39 -0.49,1.39 -0.23,0 -1.68,-0.62 -1.86,-0.75 -0.17,-0.12 -0.3,-0.37 -0.3,-0.6zm5.41 2.17c-0.6,0 -0.81,-0.58 -0.81,-0.64 0,-0.76 1.31,-2.54 1.71,-3.07 2.25,-2.96 6.25,-4.77 10.1,-4.77 4.03,0 7.6,1.92 9.94,5.03 1.3,1.73 2.42,4.47 2.42,6.69 0.28,-0.2 0.68,-1.11 0.85,-1.31 0.62,-0.73 1.6,-0.03 1.31,0.76l-1.54 2.61c-0.73,1.23 -1.66,1.24 -2.35,0.13 -0.41,-0.67 -1.79,-2.69 -1.63,-3.2 0.18,-0.54 0.92,-0.8 1.4,-0.18l0.34 0.47c-0.06,-2.51 -2.06,-5.58 -4.1,-7.18 -4.83,-3.78 -12.1,-2.73 -15.72,2.15 -0.96,1.3 -1.21,2.51 -1.92,2.51zm21.65 -5.69c-0.44,0 -0.9,-0.31 -0.9,-0.72 0,-0.7 1.58,-1.98 1.8,-1.98 0.52,0 0.9,0.36 0.9,0.81 0,0.38 -0.51,0.83 -0.74,1.06 -0.19,0.19 -0.79,0.83 -1.06,0.83zm-20.75 -0.81c0,0.44 -0.3,0.81 -0.72,0.81 -0.47,0 -2.49,-1.51 -1.77,-2.4 0.84,-1.03 2.49,1.28 2.49,1.59zm14.98 -3.07c0,-0.44 0.51,-2.43 1.35,-2.43 1.39,0 0.36,2.14 0.05,2.66 -0.4,0.66 -1.4,0.29 -1.4,-0.23zm-12.18 -1.53c0,-0.29 -0.02,-0.45 0.17,-0.64 0.51,-0.54 1.07,-0.25 1.41,0.59 0.31,0.74 0.49,0.89 0.49,1.58 0,0.49 -0.96,0.93 -1.39,0.22 -0.12,-0.2 -0.68,-1.54 -0.68,-1.75zm6.31 -0.27c0,-0.55 -0.11,-1.89 0.72,-1.89 1.38,0 0.84,2.54 0.76,2.73 -0.25,0.56 -1.48,0.82 -1.48,-0.84z"></path> <polygon class="fil1" points="44.46,42.84 47.62,42.84 47.62,38.78 "></polygon> </g> </g> </g> </svg>