<svg xmlns="http://www.w3.org/2000/svg" xmlns:xlink="http://www.w3.org/1999/xlink" id="Layer_1" x="0px" y="0px" viewBox="0 0 91 91" style="enable-background:new 0 0 91 91;" xml:space="preserve"> <style type="text/css"> .st0{fill-rule:evenodd;clip-rule:evenodd;fill:#FFFFFF;} .st1{fill-rule:evenodd;clip-rule:evenodd;fill:#0B2852;} </style> <g> <circle class="st0" cx="45.5" cy="45.5" r="45.5"></circle> <path class="st1" d="M35.59,51.55v6.64c0,1.83,1.32,3.12,3.18,3.12l13.37,0c2.04,0,3.33-1.17,3.33-3.21v-6.64 c0-6.28-5.41-9.26-5.98-9.07c-0.21,0.07-0.77,0.5-1.72,0.8c-1.79,0.58-3.59,0.47-5.3-0.3c-0.26-0.12-0.64-0.37-0.84-0.45 C40.86,42.15,35.59,45.45,35.59,51.55L35.59,51.55z M56.29,50.4c0.16-2.45-1.95-5.16-1.97-5.59c1.18-0.56,0.34,0.02,2.52,0.5 c1.12,0.24,2.23,0.1,3.16-0.25c0.91-0.34,0.89-0.91,2.42,0.31c2.65,2.12,2.89,4.3,2.9,7.73c0,1.53,0.56,5.23-1.73,5.34 c-0.13,0.08,0.13,0.02-0.22,0.1c-0.67,0.15-6.86,0-6.98-0.03L56.29,50.4L56.29,50.4z M11.73,46.97h11.61h-0.1 c2.27,0,2.32-2.92,0-2.95H11.83C9.41,44.02,9.52,46.97,11.73,46.97L11.73,46.97z M45.07,66.12c-1.35,0.42-1.04,1.84-1.04,3.38v8.88 c0,0.75-0.11,1.43,0.29,1.96c0.3,0.4,0.88,0.75,1.62,0.53c1.28-0.37,1.04-2,1.04-3.37v-8.88c0-0.73,0.07-1.46-0.28-1.97 C46.39,66.22,45.79,65.9,45.07,66.12L45.07,66.12z M45.08,10.13c-1.36,0.4-1.06,1.86-1.06,3.36v8.88c0,0.73-0.1,1.45,0.28,1.98 c0.29,0.41,0.9,0.75,1.64,0.54c1.3-0.37,1.03-1.95,1.03-3.39v-8.88c0-0.75,0.1-1.43-0.3-1.95C46.36,10.24,45.8,9.92,45.08,10.13 L45.08,10.13z M67.75,46.97l11.22,0c2.85,0,2.19-2.67,0.76-2.92c-0.66-0.11-10.72-0.07-12.08-0.03 C65.51,44.08,65.45,46.96,67.75,46.97L67.75,46.97z M31.95,35.15c1.29-0.42,2.98,0.19,3.8,0.77c0.8,0.56,1.58,1.54,1.88,2.8 c0.67,2.84-1.32,5.17-3.57,5.7C28.5,45.73,25.42,37.26,31.95,35.15L31.95,35.15z M56.98,35.18c2.69-0.84,5.14,1.43,5.63,3.54 c0.67,2.87-1.31,5.15-3.55,5.7c-4.02,0.99-7.5-3.61-4.93-7.37C54.81,36.04,55.55,35.62,56.98,35.18L56.98,35.18z M48.88,19.15 c0.36,0.16,1.87,0.34,2.4,0.47c5.23,1.23,9.26,3.52,12.95,7.14c2.9,2.85,5.17,6.51,6.52,10.64c0.24,0.74,0.42,1.43,0.61,2.26 c0.12,0.5,0.34,2.13,0.48,2.42l2.89,0.04c-0.07-3.18-1.79-7.65-2.98-10.01c-1.56-3.07-3.42-5.45-5.43-7.44 c-2.03-2.02-4.39-3.87-7.45-5.44c-2.22-1.14-6.91-2.91-10-2.97L48.88,19.15L48.88,19.15z M48.92,71.84c0.6-0.28,3.9-0.33,8.73-2.78 c6.97-3.54,12-10.18,13.74-17.78c0.13-0.56,0.31-2.04,0.47-2.41l2.9,0c-0.09,3.18-1.76,7.62-2.98,10 c-2.78,5.47-7.37,10.1-12.88,12.88c-2.4,1.21-6.91,2.91-10.01,2.97L48.92,71.84L48.92,71.84z M16.24,42.08 c0.2-3.23,1.72-7.56,3-9.98c1.65-3.13,3.3-5.29,5.43-7.44c1.91-1.94,4.52-3.97,7.45-5.43c2.45-1.22,6.69-2.85,10.01-2.98l-0.04,2.9 c-0.37,0.17-1.87,0.35-2.44,0.48c-0.77,0.17-1.47,0.37-2.22,0.61c-4.13,1.3-7.86,3.67-10.66,6.52c-3.58,3.64-6.6,8.44-7.56,15.29 C18.74,42.18,16.79,42.15,16.24,42.08L16.24,42.08z M42.13,74.74c-3.44-0.16-7.56-1.76-10.08-3.01c-2.98-1.48-5.58-3.56-7.43-5.45 c-3.25-3.31-5.8-7.22-7.3-12.12c-0.27-0.89-1.2-4.41-1.03-5.28c3.37-0.16,2.86-0.17,3.1,1.23c0.23,1.32,0.45,2.18,0.85,3.46 c1.35,4.29,3.54,7.56,6.53,10.66c2.8,2.9,6.6,5.25,10.74,6.56c0.72,0.23,1.48,0.43,2.23,0.6c0.53,0.12,2.03,0.31,2.39,0.46 L42.13,74.74L42.13,74.74z M34.63,58.52c-1.51,0.03-3.04,0-4.55,0c-1.5,0-2.92,0.26-3.79-0.66c-0.84-0.88-0.6-2.4-0.6-3.89 c0-2.88-0.24-5.08,1.66-7.41c0.25-0.31,1.82-1.92,2.54-1.96c0.19-0.01,1.26,0.52,1.63,0.62c0.64,0.17,1.35,0.23,2.07,0.17 c2.31-0.2,2.06-1.33,3.19-0.49c-0.09,0.32-0.52,0.87-0.74,1.28c-0.23,0.43-0.43,0.86-0.61,1.33 C33.91,51.41,35.25,56.35,34.63,58.52L34.63,58.52z M44.8,29.74c3.74-0.47,6.84,2.48,7.13,5.69c0.35,3.77-2.24,6.73-5.72,7.16 c-3.69,0.46-6.8-2.4-7.14-5.69C38.66,33.03,41.4,30.17,44.8,29.74z"></path> </g> </svg>