<svg xmlns="http://www.w3.org/2000/svg" xmlns:xlink="http://www.w3.org/1999/xlink" xml:space="preserve" width="91px" height="91px" style="shape-rendering:geometricPrecision; text-rendering:geometricPrecision; image-rendering:optimizeQuality; fill-rule:evenodd; clip-rule:evenodd" viewBox="0 0 114.38 114.38"> <defs> <style type="text/css"> .fil1 {fill:#083264} .fil0 {fill:white} </style> </defs> <g id="Layer_x0020_1"> <metadata id="CorelCorpID_0Corel-Layer"></metadata> <g id="_1718005108304"> <circle class="fil0" cx="57.19" cy="57.19" r="57.19"></circle> <path class="fil1" d="M67.28 25.83c4.28,-0.4 9.39,1.07 12.32,3.76 10.52,9.64 5.36,27.26 -9.18,28.75 -14.64,1.49 -23.45,-15.59 -14.11,-27.01 2.59,-3.18 6.77,-5.11 10.97,-5.5zm9.76 22.52c0.82,-1.67 1.67,-2.28 1.99,-4.86 0.67,-5.28 -2.88,-10.94 -8.91,-11.67l-0.11 8.57c0.01,1.47 0.2,1.41 0.96,2.14 1.18,1.13 5.01,5.35 6.07,5.82zm-7.01 3.91c1.04,-0.15 1.93,-0.37 2.81,-0.73l1.69 -0.9c0.05,-0.04 0.19,-0.16 0.24,-0.2 0.23,-0.21 0.16,-0.15 0.31,-0.35l-4.98 -5.01 -0.07 7.19zm-7.46 -2.18c0.9,1.15 3.1,1.92 5.03,2.17l0.01 -7.07 -5.04 4.9zm-1.68 -1.72c1.73,-1.87 3.79,-3.88 5.69,-5.68 1.47,-1.4 1.03,-1.45 1.03,-4.89 0,-1.98 -0.01,-3.97 0,-5.95 -10.17,0.97 -10.68,13.86 -6.72,16.52zm-31.6 13.89c-0.28,-1.42 0.31,-1.89 0.91,-2.92 1.07,-1.85 3.58,-6 4.12,-7.51 0.85,-2.4 -2.09,-6.71 1.08,-13.36 3.16,-6.63 10.58,-11.46 20.77,-10.49l-0.98 1.18c-5.76,5.97 -6.68,14.37 -2.88,21.69 3.29,6.35 10.12,11.14 20.37,9.62 -0.61,2.64 -1.73,5.44 -2.41,8.32 -0.84,3.54 -0.65,6.21 -1.07,9.75 -0.93,0.85 -3.17,2 -4.36,2.73 -1.47,0.91 -2.77,1.71 -4.29,2.6 -1.57,0.93 -7.85,5.28 -8.88,4.7 -1.15,-0.96 -0.19,-4.48 -1.52,-6.9 -4.92,-8.95 -15.25,0.57 -14.81,-9.78 1.7,0.02 4,0.19 5.42,-0.48 1.31,-0.61 2.7,-1.59 2.04,-3.5 -2.44,-0.84 -1.43,0.71 -3.14,1.34 -0.94,0.35 -3.34,0.2 -4.49,0.23 -0.19,-1.72 0.1,-4.61 -0.93,-5.74 -1.13,-1.23 -3.42,-0.74 -4.95,-1.48zm3.19 3.22c0,0 0,0 0,0z"></path> </g> </g> </svg>