<svg xmlns="http://www.w3.org/2000/svg" xmlns:xlink="http://www.w3.org/1999/xlink" xml:space="preserve" width="91px" height="91px" style="shape-rendering:geometricPrecision; text-rendering:geometricPrecision; image-rendering:optimizeQuality; fill-rule:evenodd; clip-rule:evenodd" viewBox="0 0 4.77 4.77"> <defs> <style type="text/css"> .fil1 {fill:#083264} .fil0 {fill:white} </style> </defs> <g id="Layer_x0020_1"> <metadata id="CorelCorpID_0Corel-Layer"></metadata> <g id="_1718008235024"> <circle class="fil0" cx="2.39" cy="2.39" r="2.39"></circle> <path class="fil1" d="M1.99 2.34c-0.13,0.01 -0.22,-0.05 -0.47,0.05 -0.1,0.04 -0.16,0.09 -0.24,0.15 -0.04,0.03 -0.05,0.05 -0.08,0.05 -0.02,0.04 -0.11,0.09 -0.16,0.1 0.01,0.05 0.18,0.43 0.23,0.52 0.02,0.05 0.05,0.12 0.07,0.17l0.14 -0.06c0.04,-0.03 0.16,-0.06 0.21,-0.06 0.19,-0.02 0.49,0.09 0.69,0.15 0.47,0.13 0.5,0.06 0.86,-0.13 0.12,-0.06 0.24,-0.13 0.37,-0.19 0.17,-0.09 0.19,-0.11 0.3,-0.26 0.08,-0.1 0.15,-0.21 0.23,-0.32 0.04,-0.05 0.1,-0.12 0.05,-0.2 -0.02,-0.02 -0.05,-0.04 -0.1,-0.04 -0.05,0 -0.04,0 -0.08,-0.03 -0.2,-0.01 -0.45,0.35 -0.67,0.44 0.02,0.04 0.05,0.05 0.06,0.11 0,0.05 -0.02,0.09 -0.04,0.12 -0.22,0.28 -0.69,-0.04 -1.04,0.04 -0.03,0 -0.1,0.03 -0.12,0.02 -0.05,-0.03 0.02,-0.06 0.06,-0.07 0.25,-0.08 0.57,0.04 0.82,0.06 0.21,0.02 0.38,-0.19 0.13,-0.27 -0.07,-0.02 -0.18,-0.04 -0.26,-0.05 -0.19,-0.04 -0.33,-0.07 -0.5,-0.13 -0.08,-0.03 -0.15,-0.07 -0.22,-0.1 -0.04,-0.01 -0.23,-0.06 -0.24,-0.07zm1.24 -0.93l-0.01 -0.33 -0.36 0 -0.03 0 0 0.39 -0.39 0 0 0.39 0.39 0 0 0.4 0.4 0 0 -0.4 0.39 0 0 -0.39c-0.08,-0.02 -0.34,0.02 -0.39,-0.01l0 -0.05zm-2.52 1.28l-0.14 0.05 0.42 0.96c0.05,-0.02 0.11,-0.07 0.15,-0.08 0.02,-0.03 0.14,-0.09 0.18,-0.11l-0.38 -0.88 -0.23 0.06z"></path> </g> </g> </svg>