<svg xmlns="http://www.w3.org/2000/svg" xmlns:xlink="http://www.w3.org/1999/xlink" xml:space="preserve" width="91px" height="91px" style="shape-rendering:geometricPrecision; text-rendering:geometricPrecision; image-rendering:optimizeQuality; fill-rule:evenodd; clip-rule:evenodd" viewBox="0 0 104.91 104.91"> <defs> <style type="text/css"> .fil1 {fill:#083264} .fil0 {fill:white} </style> </defs> <g id="Layer_x0020_1"> <metadata id="CorelCorpID_0Corel-Layer"></metadata> <g id="_1718451263376"> <circle class="fil0" cx="52.46" cy="52.46" r="52.46"></circle> <path class="fil1" d="M45.72 35.53zm-9.74 40.75l0 -14.36 6.46 0c2.76,0.47 5.48,1.96 8.22,3.69l5.02 0c2.27,0.14 3.46,2.44 1.26,3.95 -1.76,1.3 -4.08,1.22 -6.47,1.01 -1.64,-0.08 -1.71,2.12 0,2.13 0.6,0.05 1.24,-0.09 1.81,-0.09 2.96,0 5.42,-0.57 6.91,-2.92l0.74 -1.75 7.51 -3.69c3.75,-1.23 6.39,2.68 3.64,5.4 -5.2,3.79 -10.8,7.09 -16.64,9.78 -4.12,2.51 -8.24,2.42 -12.35,0l-6.1 -3.15 -0.01 0zm-8.11 -15.73l6.17 0 0 17.17 -6.17 0 0 -17.17zm28 -35.77c0.02,-0.33 0.17,-0.63 0.42,-0.84 0.22,-0.2 0.5,-0.31 0.8,-0.31 0.02,0 0.04,0 0.07,0.01l0 0 0.08 0c0.61,0.07 1.07,0.59 1.07,1.21 0,0.02 0,0.04 0,0.06l0 0c0,0 0,0.04 0,0.06l-0.18 2.6 0 0c0,0.03 0,0.06 0,0.08 -0.04,0.3 -0.19,0.57 -0.41,0.77 -0.22,0.19 -0.51,0.3 -0.8,0.3 -0.02,0 -0.05,0 -0.07,0l0 0 -0.08 0c-0.29,-0.04 -0.56,-0.18 -0.75,-0.39 -0.2,-0.23 -0.31,-0.51 -0.31,-0.81 0,-0.02 0,-0.04 0.01,-0.06l0 0c-0.01,-0.01 -0.01,-0.02 -0.01,-0.03 0,-0.01 0,-0.02 0.01,-0.03l0.17 -2.61 -0.02 -0.01zm-13.76 6.64c-0.23,-0.23 -0.35,-0.54 -0.35,-0.86 0,-0.33 0.12,-0.63 0.35,-0.86 0.23,-0.23 0.54,-0.36 0.86,-0.36 0.33,0 0.63,0.13 0.86,0.36l1.88 1.9c0.23,0.23 0.36,0.54 0.36,0.86 0,0.32 -0.13,0.63 -0.36,0.86 -0.23,0.23 -0.54,0.35 -0.86,0.35 0,0 0,0 0,0 -0.33,0 -0.64,-0.13 -0.86,-0.36l-1.88 -1.9 0 0.01zm-1.02 15.52c-0.66,-0.02 -1.18,-0.56 -1.18,-1.22 0,-0.01 0,-0.01 0,-0.02 -0.23,0.05 -0.46,0.08 -0.69,0.08 -1.73,0 -3.13,-1.41 -3.13,-3.14 0,-1.46 1.02,-2.74 2.45,-3.06l2.66 0c0.33,0.01 0.64,0.14 0.86,0.38 0.23,0.22 0.35,0.52 0.35,0.84 0,0.01 0,0.02 0,0.02l0 0 0 0 0 0.04c-0.02,0.31 -0.14,0.59 -0.36,0.8 -0.23,0.22 -0.54,0.34 -0.86,0.34 0,0 0,0 -0.01,0l-0.04 0 -2.64 -0.02 2.59 4.96zm34.67 -7.58l0.04 0c0.01,0 0.02,0 0.03,0 0.3,0 0.58,0.11 0.8,0.3 0.24,0.22 0.39,0.52 0.41,0.84l0 0c0,0 0,0.04 0,0.04 0,0.01 0,0.02 0,0.03 0,0.29 -0.11,0.58 -0.3,0.8 -0.22,0.24 -0.52,0.39 -0.84,0.41l-2.66 0.16c-0.02,0 -0.04,0 -0.06,0 -0.67,0 -1.22,-0.54 -1.22,-1.21 0,-0.64 0.5,-1.17 1.13,-1.22 0.89,-0.06 1.78,-0.12 2.67,-0.16l0 0.01zm-8.34 -10.49c0.23,-0.31 0.6,-0.5 0.98,-0.5 0.26,0 0.51,0.09 0.72,0.24l0 0c0.26,0.19 0.43,0.48 0.47,0.8 0.01,0.05 0.01,0.11 0.01,0.17 0,0.26 -0.08,0.52 -0.23,0.73l-1.58 2.15c-0.23,0.31 -0.6,0.49 -0.98,0.49 -0.26,0 -0.51,-0.08 -0.72,-0.23 -0.26,-0.19 -0.43,-0.48 -0.47,-0.8 -0.01,-0.05 -0.01,-0.1 -0.01,-0.15 0,-0.27 0.09,-0.53 0.26,-0.75l1.58 -2.15 -0.03 0zm-8.15 31.23c-0.51,0.8 -1.23,1.46 -2.07,1.9 -0.72,0.38 -1.51,0.59 -2.31,0.6 -0.04,0 -0.08,0 -0.12,0 -0.78,0 -1.55,-0.19 -2.23,-0.56 -0.51,-0.28 -0.97,-0.65 -1.35,-1.1l8.06 -0.84 0.02 0zm-5.79 -2.5l0 0.52 0 0.18c1.25,-0.85 2.73,-1.3 4.25,-1.3 0.83,0 1.67,0.14 2.46,0.41l-0.19 0.75 -9.76 1 -0.15 -0.4 -0.32 -1.57 0 -0.46 10.47 -1.07 -6.76 1.94zm-2.07 -15.43c0.45,0.18 0.87,0.45 1.21,0.79 0.28,0.27 0.54,0.55 0.79,0.85 0.83,-1.22 1.74,-2.38 2.73,-3.47 0.87,-1 1.84,-1.93 2.87,-2.76l0.23 -0.07 2.45 0.11 -0.51 0.51c-1.42,1.46 -2.75,3.03 -3.95,4.66 -1.42,1.85 -2.75,3.79 -3.93,5.81 -0.51,-1.27 -1.19,-2.48 -2.02,-3.57 -0.65,-0.9 -1.45,-1.69 -2.35,-2.34l2.46 -0.53 0.02 0.01zm-5.58 -6.81c0.64,-0.96 1.43,-1.83 2.34,-2.55 0.92,-0.74 1.96,-1.32 3.08,-1.72l0.09 -0.02c0.83,-0.29 1.69,-0.48 2.57,-0.57 0.38,-0.03 0.76,-0.05 1.15,-0.05 0.54,0 1.09,0.03 1.63,0.11 1.8,0.24 3.53,0.88 5.05,1.88 0.99,0.63 1.88,1.43 2.63,2.34 0.73,0.9 1.3,1.92 1.7,3.01 0.22,0.62 0.39,1.26 0.5,1.91 0.11,0.62 0.17,1.26 0.17,1.89 0,0.07 0,0.15 0,0.22l0 0c-0.01,0.79 -0.11,1.58 -0.29,2.34 -0.18,0.79 -0.45,1.55 -0.79,2.28 -0.73,1.6 -1.94,3.12 -3.12,4.61 -0.59,0.74 -1.16,1.47 -1.66,2.2 -0.28,0.4 -0.74,0.64 -1.23,0.64 -0.06,0 -0.12,0 -0.18,-0.01l-8.77 0.91c-0.05,0 -0.1,0.01 -0.15,0.01 -0.67,0 -1.25,-0.45 -1.43,-1.09 -0.2,-0.66 -0.45,-1.32 -0.75,-1.95 -0.24,-0.52 -0.54,-1.01 -0.89,-1.46 -0.42,-0.53 -0.85,-1.07 -1.28,-1.71 -0.48,-0.71 -0.89,-1.46 -1.23,-2.25l-0.03 -0.09c-0.32,-0.8 -0.58,-1.64 -0.74,-2.49 -0.14,-0.7 -0.2,-1.41 -0.2,-2.12 0,-0.19 0,-0.38 0.01,-0.57 0.05,-0.94 0.22,-1.87 0.49,-2.76 0.29,-0.95 0.7,-1.88 1.2,-2.75l0 -0.02 0.1 -0.17 0.03 0z"></path> </g> </g> </svg>