<svg xmlns="http://www.w3.org/2000/svg" xmlns:xlink="http://www.w3.org/1999/xlink" xml:space="preserve" width="91px" height="91px" style="shape-rendering:geometricPrecision; text-rendering:geometricPrecision; image-rendering:optimizeQuality; fill-rule:evenodd; clip-rule:evenodd" viewBox="0 0 5.76 5.76"> <defs> <style type="text/css"> .fil1 {fill:#083264} .fil0 {fill:white} </style> </defs> <g id="Layer_x0020_1"> <metadata id="CorelCorpID_0Corel-Layer"></metadata> <g id="_1718515204704"> <circle class="fil0" cx="2.88" cy="2.88" r="2.88"></circle> <path class="fil1" d="M1.9 1.89c-0.07,0 -0.15,0 -0.22,0 -0.05,0 -0.07,0 -0.09,0.02 -0.07,0.04 -0.07,0.14 0.03,0.18 0.2,0.08 0.4,0.15 0.6,0.22 0.17,0.07 0.2,0.07 0.36,0.07 0.09,0 0.19,-0.04 0.26,-0.06l0.6 -0.23c0.1,-0.04 0.1,-0.14 0.04,-0.18 -0.03,-0.02 -0.05,-0.02 -0.09,-0.02 -0.08,0 -0.15,0 -0.23,0 -0.01,-0.06 -0.02,-0.12 -0.03,-0.18 -0.02,-0.15 -0.02,-0.33 -0.17,-0.39 -0.03,-0.01 -0.06,-0.02 -0.08,-0.02l-0.04 0c-0.05,0 -0.1,0.02 -0.16,0.04 -0.18,0.06 -0.11,0.06 -0.29,0 -0.06,-0.02 -0.12,-0.04 -0.17,-0.04l-0.04 0c-0.05,0 -0.09,0.02 -0.14,0.06 -0.04,0.04 -0.06,0.08 -0.07,0.15 -0.02,0.1 -0.05,0.3 -0.07,0.38zm0.95 2.57l0.29 0c-0.01,-0.03 -0.03,-0.07 -0.05,-0.09 -0.02,-0.02 -0.05,-0.06 -0.06,-0.08l-0.18 0.17zm-0.32 -0.8l0.01 0c0,-0.04 0.01,-0.09 0.02,-0.12 0,-0.05 0.01,-0.09 0.02,-0.13 0,-0.04 0.01,-0.08 0.02,-0.12 0.01,-0.09 0.03,-0.07 -0.08,-0.07 -0.08,0 -0.06,-0.05 -0.03,0.19 0.01,0.04 0.01,0.08 0.02,0.12 0.01,0.04 0.02,0.09 0.02,0.13zm-0.03 -0.63c0.12,0 0.2,-0.01 0.32,-0.07 0.07,-0.03 0.12,-0.07 0.17,-0.13 0.03,-0.02 0.06,-0.05 0.07,-0.08 0.03,-0.03 0.04,-0.07 0.06,-0.1 0.03,-0.06 0.06,-0.16 0.06,-0.25l-0.15 0.05c-0.09,0.04 -0.22,0.09 -0.31,0.11 -0.3,0.07 -0.49,-0.04 -0.75,-0.13 -0.03,-0.01 -0.06,-0.02 -0.08,-0.03 0,0.24 0.15,0.46 0.36,0.56 0.06,0.03 0.16,0.07 0.25,0.07zm0.98 1.16c0.02,-0.01 0.01,0 0.02,-0.01l0.52 -0.52c0.02,-0.02 0.05,-0.06 0.08,-0.07 0.02,0.05 0.1,0.15 0.04,0.35 -0.02,0.1 -0.1,0.21 -0.19,0.26 -0.07,0.03 -0.16,0.07 -0.24,0.06 -0.06,0 -0.2,-0.04 -0.23,-0.07zm0.88 -0.42l0 0.08c0,0.08 -0.02,0.16 -0.06,0.25 -0.03,0.06 -0.08,0.13 -0.13,0.17 -0.05,0.06 -0.1,0.09 -0.17,0.13 -0.11,0.06 -0.19,0.06 -0.32,0.06 -0.11,0 -0.25,-0.06 -0.34,-0.12 -0.05,-0.04 -0.07,-0.06 -0.11,-0.11 -0.04,-0.05 -0.06,-0.08 -0.09,-0.13 -0.06,-0.12 -0.06,-0.2 -0.06,-0.33 0,-0.08 0.03,-0.19 0.06,-0.24 0.17,-0.32 0.55,-0.45 0.86,-0.29 0.05,0.02 0.1,0.06 0.14,0.09 0.14,0.12 0.21,0.28 0.22,0.44zm-1.02 0.28c-0.1,-0.18 -0.09,-0.39 0.07,-0.55 0.12,-0.12 0.32,-0.17 0.49,-0.09 0.02,0.01 0.03,0.02 0.05,0.03 -0.01,0.02 -0.02,0.02 -0.03,0.04l-0.05 0.04c-0.01,0.01 -0.01,0.01 -0.01,0.01l-0.04 0.04c0,0 0,0 0,0l-0.01 0.01c0,0 0,0.01 -0.01,0.01l-0.32 0.33c-0.01,0.01 -0.01,0.01 -0.02,0.02 -0.01,0.01 -0.01,0 -0.02,0.01l-0.08 0.08c-0.01,0.02 0,0.01 -0.02,0.02zm-1.94 -1.18c0,0.06 0.01,0.08 0.08,0.12 0.04,0.03 0.31,0.21 0.33,0.22 -0.01,0.03 -0.06,0.13 -0.08,0.17 -0.13,0.25 -0.13,0.18 0.12,0.44l0.55 0.54c0.04,0.05 0.08,0.09 0.12,0.1l0.03 0c0.01,0 0.03,-0.01 0.05,-0.03 0.02,-0.01 0.03,-0.03 0.05,-0.04 0,0 0.01,-0.01 0.01,-0.01 0.01,-0.01 0,-0.01 0.01,-0.01l0.04 -0.04c0.04,-0.04 0.22,-0.21 0.22,-0.22 0,-0.02 -0.01,-0.05 -0.02,-0.07 -0.08,-0.27 0,-0.57 0.17,-0.77 0.13,-0.14 0.28,-0.23 0.48,-0.27 0.11,-0.03 0.16,-0.15 0.05,-0.22 -0.04,-0.02 -0.25,-0.15 -0.27,-0.15 -0.02,0.03 -0.02,0.05 -0.05,0.11 -0.1,0.21 -0.24,0.34 -0.46,0.43 -0.03,0.01 -0.02,0.01 -0.03,0.05l-0.15 0.98c-0.01,0.04 -0.01,0.1 -0.02,0.14 -0.03,0.09 -0.16,0.09 -0.19,0 -0.01,-0.03 -0.01,-0.09 -0.02,-0.14l-0.15 -0.97c-0.01,-0.06 -0.01,-0.05 -0.06,-0.07 -0.05,-0.02 -0.18,-0.1 -0.23,-0.14 -0.1,-0.09 -0.14,-0.15 -0.2,-0.27 -0.01,-0.03 -0.02,-0.04 -0.03,-0.06 -0.01,-0.02 -0.01,-0.05 -0.02,-0.06 -0.02,0 -0.07,0.03 -0.09,0.05 -0.08,0.04 -0.24,0.12 -0.24,0.19z"></path> </g> </g> </svg>