<svg xmlns="http://www.w3.org/2000/svg" xmlns:xlink="http://www.w3.org/1999/xlink" id="Layer_1" x="0px" y="0px" viewBox="0 0 91 91" style="enable-background:new 0 0 91 91;" xml:space="preserve"> <style type="text/css"> .st0{fill-rule:evenodd;clip-rule:evenodd;fill:#FFFFFF;} .st1{fill-rule:evenodd;clip-rule:evenodd;fill:#0B2852;} </style> <g> <circle class="st0" cx="45.5" cy="45.5" r="45.5"></circle> <path class="st1" d="M34.41,43.46c-1.01-0.94-2.06-3.84-2.41-5.35c-0.62-2.64-0.43-4.37-0.27-7.05c-0.71,0.34-2.35,2.79-2.88,3.74 c-2.88,5.2-2.73,10.88-0.59,16.19c1.99,4.92,5.37,8.09,9.93,9.97c1.08,0.44,3.92,1.37,5.22,1.42c-0.62-0.63-1-0.44-2.34-2.4 c-2.05-3.02-2.44-8.37-1.95-11.99c0.59-4.35,2.45-8.3,4.96-11.74c0.23-0.31,0.8-1.17,1.12-1.29c0.08,4.52,0.5,8.12,3.64,11.23 c2.86,2.83,5.88,3.47,5.27,9.52c-0.15,1.45-0.45,2.84-1.02,3.94c-0.5,0.97-1.46,2.12-2.43,2.54c1.15,0,4.14-1.48,5.01-2.01 c4.67-2.84,7.46-7.7,7.46-13.81c0-4.32-1.69-7.85-3.56-10.63c-0.51-0.76-0.96-1.23-1.36-2.15c-1.25-2.87-1.05-6.54-0.93-9.6 c-0.62,0.21-1.8,1.56-2.21,2.08c-1.34,1.72-2.13,3.73-2.5,5.94c-0.25,1.51-0.12,2.54-0.14,4.01c-0.62-0.62-1.68-3.73-1.95-4.85 c-0.92-3.88-0.52-7.8,1.1-11.48c0.5-1.14,1.12-2.26,1.84-3.26c0.21-0.29,0.64-0.74,0.77-0.99c-3.11-0.28-7.04,1.78-8.92,3.06 c-4.88,3.32-8.15,8.44-9.75,14.23c-0.66,2.37-1.1,5.33-1.15,7.86C34.4,41.06,34.49,43.28,34.41,43.46L34.41,43.46z M15.1,68.88 c-0.01-0.37,3.34-9.52,3.76-10.64c0.3-0.82,3.59-10.19,3.84-10.63l2.29,0.03l0.55,2.08c-0.19,0.14-0.27,0.06-0.38,0.34 C25.1,50.2,25.05,50.44,25,50.6c-0.11,0.35-0.19,0.64-0.3,1l-3.59,11.95c-0.18,0.58-0.49,1.46-0.59,2.05l49.98-0.01l-4.74-15.75 l-0.71-0.03l0.26-2.19l2.99,0c0.3,0.53,0.76,2.03,0.98,2.66c1.03,2.95,6.63,18.21,6.62,18.61L15.1,68.88z"></path> </g> </svg>