<svg xmlns="http://www.w3.org/2000/svg" xmlns:xlink="http://www.w3.org/1999/xlink" id="Layer_1" x="0px" y="0px" viewBox="0 0 91 91" style="enable-background:new 0 0 91 91;" xml:space="preserve"> <style type="text/css"> .st0{fill-rule:evenodd;clip-rule:evenodd;fill:#FFFFFF;} .st1{fill-rule:evenodd;clip-rule:evenodd;fill:#0B2852;} </style> <g> <circle class="st0" cx="45.5" cy="45.5" r="45.5"></circle> <path class="st1" d="M22.4,58.42c0.57-0.56,1.36-2.87,1.76-3.79c0.58-1.35,1.22-3.66,2.25-3.31c0.79,0.63,1.86,3.81,2.42,5 c1.32-0.18,7.11-1.48,7.91-2.02c1.18-0.81,1.2-1.85,1.21-3.66c0.02-1.98,0.11-0.61-1.82-3.21c-1.33-1.78-1.38-2.56-1.95-4.27 c-0.25-0.76,0.08-0.3-0.6-0.67c-0.69-0.37-0.87-0.46-1.08-1.46c-0.38-1.8-1.25-4.8-0.93-6.39c0.16-0.8,0.45-0.9,0.86-1.41 l0.15-0.21c-0.17-0.53-0.42-4.76-0.53-5.79c-0.26-2.3-0.2-3.53,1.08-5.06c2-2.37,2.38-0.82,3.64-2.74 c0.84-1.28,1.83-2.27,3.67-2.71c3.26-0.79,8.37,0.06,11.09,1.27c2.89,1.29,4.99,3.37,6.11,6.64c1.16,3.37,0.02,6.76,0.14,8.47 c0.06,0.82,0.67,0.95,0.66,2.56c-0.01,1.16-0.72,4.08-1.01,5.39c-0.31,1.43-0.82,1.03-1.48,1.7c-0.32,0.33-1.24,3.88-3.61,5.95 c-1.01,0.88-0.73,0.63-0.73,2.41c0,3.38,1.12,3.46,5.26,4.25c1.83,0.35,3.75,0.73,5.57,1c2.15-6.71,2.98-3.24,4-0.84 c0.44,1.04,1.23,2.59,1.49,3.59c0.04-0.02,0.09-0.11,0.1-0.08l2.29-2.86C83.14,37.34,70.39,10.2,46.15,9.68 c-6.62-0.14-12.09,1.82-16.69,4.67c-3.86,2.39-8.1,6.75-10.33,11.19c-4.31,8.59-4.75,17.09-0.89,26.23 C19.1,53.78,21.12,57.13,22.4,58.42L22.4,58.42z M55.36,61.16c0.96-0.36,2.48-0.3,3.58-0.4c0.64-0.06,1.3-0.11,1.92-0.17 c0.81-0.07,1-0.04,1.31-0.63c0.7-1.33,1.73-4.61,2.47-5.49c0.89,1.26,1.65,4.46,2.48,5.64c0.52,0.74,2.3,0.61,3.27,0.7 c0.65,0.06,1.25,0.12,1.9,0.18c0.57,0.05,1.21,0.02,1.62,0.35l-4.66,3.96c-0.68,0.92,0.92,5.45,1.07,6.81 c-0.83-0.41-5.27-3.21-5.71-3.23c-0.88-0.05-4.53,2.74-5.82,3.14c1-5.68,2.43-5.86-0.15-7.89c-0.49-0.39-0.61-0.53-1.09-0.98 l-1.96-1.71C55.41,61.25,55.49,61.35,55.36,61.16L55.36,61.16z M15.86,60.58c1.37-0.07,2.78-0.23,4.15-0.35 c2.04-0.19,3,0.04,3.43-0.89c0.91-1.96,1.82-4.13,2.64-6.12c0.63,0.71,2.11,4.95,2.72,6.18c0.34,0.68,0.67,0.63,1.55,0.71 l6.04,0.61l-4.03,3.56c-0.54,0.53-0.9,0.73-1.33,1.18c-0.18,1.36,1.2,5.63,1.41,7.33c-1.14-0.46-5.71-3.59-6.37-3.59 c-0.6,0.01-5.34,3.08-6.35,3.54c0.01-1.87,1.47-5.13,1.46-7.11c-0.27-0.46-0.98-1.11-1.37-1.4C19.25,63.78,16.09,60.99,15.86,60.58 L15.86,60.58z M33.78,31.61c-0.25-1.16-0.71-5.15-0.67-6.31c0.08-2.01,1.46-3.26,3.07-3.78c1.69-0.54,1.61-2.35,3.56-3.28 c3.36-1.6,16.57-0.82,17.23,9.11c0.09,1.35-0.24,5.01-0.51,6.33c-1.16-0.55-1.99-2.68-2.58-4.35c-0.94-2.69-0.16-3.36-3.45-3.13 c-2.19,0.15-4.32-0.01-6.37-0.43c-1.26-0.26-4.71-1.65-5.26-1.64c-0.42,0.17-1.13,2.41-2.6,3.81c-0.72,0.68-0.96,0.55-1.48,1.7 C34.45,30.27,34.12,31.07,33.78,31.61L33.78,31.61z M29.41,57.49c3.54-1.45,7.75-0.71,9.29-3.63c0.63-1.2,0.45-2.44,0.46-3.87 c2.12,0.71,2.96,1.37,5.72,1.37c2.79,0,3.5-0.75,5.52-1.3c0.04,1.54-0.19,2.92,0.66,4.13c1.75,2.49,6.67,2.24,10.85,3.35 l-0.82,1.81l-5.85,0.53c-4.08,0.32-0.37,2.37,1.6,4.29l0.51,0.59L50.23,64c-0.33-0.13-0.56-0.84-0.68-1.14l-2.62-6.14 c-0.29-0.68-0.59-1.88-1.4-1.88c-0.84,0-1.09,1.29-1.43,2.03l-3.08,7.12l-6.8,0.6c-0.31-0.04-0.18-0.01-0.34-0.09 c0.88-0.62,1.51-1.32,2.39-2.06c0.86-0.73,2.43-1.69,1.87-2.52c-0.95-0.66-6.42-0.91-8.22-1.05L29.41,57.49L29.41,57.49z M32.56,65.96l7.85-0.68c1.18-0.09,1.32-0.01,1.74-0.95c1.11-2.48,2.32-5.15,3.32-7.65c0.53,0.54,3.12,7.04,3.44,7.76 c0.51,1.14,2.04,0.89,4.45,1.13c1.67,0.17,3.48,0.41,5.13,0.48c-0.39,0.67-5.51,4.77-6.46,5.77c-0.67,0.7-0.37,1.15-0.12,2.24 l1.54,7.27c-1.18-0.55-7.32-4.53-7.94-4.55c-0.89-0.03-6.6,3.93-8.1,4.49c0.29-1.62,2.06-8.01,1.88-9.11l-2.54-2.39 C35.9,69.02,32.99,66.63,32.56,65.96L32.56,65.96z M35.06,41.65c-1.43-0.32-1.26-0.12-1.52-1.68c-0.24-1.38-1.34-4.79-0.64-5.4 c0.82-0.73,0.03,2.05,2.54-3.58c1.46-3.27,1.16-0.6,3.9-5.5c7.07,2.61,6.27,1.62,12.74,1.85c0.36,1.71,0.92,3.34,1.68,4.84 c0.82,1.62,1.41,2.62,3.46,2.91c0.05,1.6-0.32,2.4-0.62,3.86c-0.43,2.06,0.14,2.2-1.72,2.74c-0.51,1.97-1.78,4.85-3.24,6 c-4.24,3.39-9.22,3.28-13.62,0.08C36.12,46.38,35.59,43.38,35.06,41.65z"></path> </g> </svg>