<svg xmlns="http://www.w3.org/2000/svg" xmlns:xlink="http://www.w3.org/1999/xlink" xml:space="preserve" width="91px" height="91px" style="shape-rendering:geometricPrecision; text-rendering:geometricPrecision; image-rendering:optimizeQuality; fill-rule:evenodd; clip-rule:evenodd" viewBox="0 0 4.71 4.71"> <defs> <style type="text/css"> .fil1 {fill:#083264} .fil0 {fill:white} </style> </defs> <g id="Layer_x0020_1"> <metadata id="CorelCorpID_0Corel-Layer"></metadata> <g id="_1718252764720"> <circle class="fil0" cx="2.36" cy="2.36" r="2.36"></circle> <path class="fil1" d="M2.72 3.59l-0.73 0c0,-0.01 0,-0.04 0,-0.06 0.01,-0.07 0.08,-0.06 0.12,-0.06l0.48 0c0.04,0 0.12,-0.01 0.13,0.06 0,0.01 0,0.04 0,0.06zm0.05 -1.61l0.01 0c0.01,0 0.02,0 0.03,0l-0.01 0.03c0,0 0.01,0 0,0 0.01,0.02 -0.01,0.08 -0.02,0.1 -0.01,0.03 -0.02,0.05 -0.03,0.08 -0.02,0 -0.05,-0.04 -0.07,-0.01 -0.02,0.03 0.02,0.05 0.04,0.06 0,0.01 -0.03,0.04 -0.03,0.05 -0.01,0 -0.01,0.01 -0.02,0.02 -0.01,0 -0.01,0.01 -0.02,0.02 -0.01,0.01 -0.06,0.06 -0.08,0.07 -0.01,-0.01 -0.03,-0.06 -0.06,-0.04 -0.04,0.02 0,0.05 0,0.07 -0.04,0.01 -0.04,0.02 -0.09,0.03 -0.02,0.01 -0.09,0.03 -0.12,0.02 0,-0.03 0.01,-0.06 -0.03,-0.06 -0.03,0 -0.03,0.03 -0.03,0.06 -0.04,0 -0.12,-0.01 -0.16,-0.03 -0.02,-0.01 -0.03,-0.02 -0.05,-0.02 0.01,-0.02 0.02,-0.03 0.02,-0.04 0.01,-0.03 -0.03,-0.05 -0.05,-0.03 -0.01,0.01 -0.01,0.03 -0.02,0.04 -0.03,-0.02 -0.13,-0.12 -0.15,-0.16 0,0 0.01,0 0.01,-0.01 0.01,0 0.04,-0.02 0.03,-0.05 -0.02,-0.03 -0.06,0.01 -0.07,0.01 -0.02,-0.03 -0.07,-0.16 -0.06,-0.21 0.01,0 0.04,0 0.05,0 0.02,-0.01 0.02,-0.05 0,-0.06 -0.01,0 -0.04,0 -0.05,0 0,-0.06 0.03,-0.17 0.06,-0.21 0.02,0.01 0.05,0.04 0.07,0.01 0,-0.02 0,-0.03 -0.01,-0.04 0,-0.01 -0.03,-0.02 -0.03,-0.02 0.01,-0.03 0.12,-0.14 0.15,-0.16 0.02,0.02 0.02,0.06 0.06,0.04 0.03,-0.01 0,-0.05 -0.01,-0.07 0.02,-0.01 0.08,-0.03 0.1,-0.03 0.03,-0.01 0.08,-0.02 0.11,-0.02 0,0.02 0,0.06 0.03,0.06 0.02,0 0.03,-0.01 0.03,-0.02 0,-0.01 0,-0.03 0,-0.04 0.04,0 0.08,0.01 0.12,0.02 0.02,0 0.08,0.02 0.09,0.03 0,0.02 -0.04,0.06 0,0.07 0.02,0.02 0.04,-0.01 0.04,-0.02 0.01,-0.01 0.01,-0.01 0.02,-0.02 0.03,0.02 0.14,0.13 0.15,0.16 -0.01,0 -0.01,0.01 -0.02,0.01 -0.01,0.01 -0.03,0.01 -0.02,0.05 0,0 0,0 0.01,0.01 0.02,0.01 0.04,-0.01 0.06,-0.02 0.03,0.04 0.06,0.15 0.06,0.21 -0.03,0 -0.05,0 -0.06,0.01 -0.02,0.02 0,0.05 0.02,0.05zm-0.25 0.19c0.01,-0.01 0,-0.04 0,-0.05 0,-0.01 0,-0.03 0,-0.05 0.01,0 0.06,0.01 0.06,0 0.02,0 0.03,-0.01 0.03,-0.02 0,-0.02 -0.01,-0.03 -0.02,-0.03l-0.07 0c0,-0.05 0,-0.19 0,-0.25 0,-0.05 0,-0.04 -0.02,-0.06 -0.02,0 -0.03,0 -0.04,0.02l-0.19 0.27c-0.01,0.01 -0.02,0.03 -0.03,0.03 0,0.02 0.01,0.03 0.02,0.04 0.02,0.01 0.17,0 0.2,0l0 0.1c0.01,0.01 0.02,0.02 0.03,0.02 0.02,0 0.03,-0.01 0.03,-0.02zm-0.19 -0.15c0,-0.01 0.03,-0.04 0.03,-0.05 0.01,-0.01 0.09,-0.13 0.1,-0.14 0,0.05 0,0.15 0,0.18l-0.13 0.01zm-0.05 0.12c-0.03,-0.01 -0.07,-0.01 -0.1,-0.01 -0.04,0 -0.08,0 -0.11,0 0,-0.01 0.12,-0.12 0.14,-0.15 0.02,-0.01 0.03,-0.03 0.04,-0.06 0.04,-0.1 -0.04,-0.21 -0.17,-0.21 -0.03,0.01 -0.05,0.02 -0.07,0.03 -0.02,0.01 -0.04,0.04 -0.05,0.06 -0.04,0.09 0,0.11 0.02,0.1 0.02,-0.01 0.02,-0.02 0.02,-0.04 0.01,-0.06 0.06,-0.11 0.13,-0.09 0.05,0.02 0.09,0.08 0.06,0.14 -0.01,0.03 -0.08,0.09 -0.1,0.12 -0.03,0.03 -0.09,0.08 -0.11,0.11 -0.01,0.01 -0.02,0.03 -0.01,0.04 0.01,0.01 0.03,0.01 0.05,0.01l0.22 0c0.02,0 0.05,0 0.05,-0.03 0,-0.01 -0.01,-0.02 -0.01,-0.02zm-0.04 -0.78c-0.16,0.01 -0.3,0.07 -0.4,0.19 -0.09,0.09 -0.17,0.24 -0.16,0.43 0.02,0.32 0.29,0.58 0.63,0.56 0.18,-0.01 0.31,-0.1 0.4,-0.19 0.19,-0.2 0.21,-0.52 0.04,-0.76 -0.02,-0.01 -0.03,-0.02 -0.04,-0.04 -0.05,-0.06 -0.13,-0.12 -0.22,-0.15 -0.07,-0.03 -0.16,-0.05 -0.25,-0.04zm0.32 2.05l-0.41 0c0.02,-0.05 0.04,-0.08 0.02,-0.14l-0.02 -0.05 0.41 0c-0.01,0.03 -0.03,0.05 -0.03,0.1 0,0.04 0.02,0.07 0.03,0.09zm-0.34 -2.12c0.14,-0.02 0.29,0.02 0.4,0.09 0.1,0.07 0.18,0.15 0.24,0.26 0.04,0.07 0.07,0.16 0.08,0.26 0.03,0.38 -0.27,0.69 -0.61,0.71 -0.39,0.03 -0.69,-0.26 -0.72,-0.61 -0.03,-0.36 0.24,-0.68 0.61,-0.71zm1.14 0.45c-0.01,-0.01 -0.02,-0.02 -0.04,-0.03 -0.04,0 -0.14,0.01 -0.19,0 -0.01,-0.02 -0.01,-0.04 -0.02,-0.05 0,-0.02 -0.02,-0.04 -0.02,-0.06 0.02,0 0.23,0 0.24,0 0.06,0.01 0.13,0.06 0.14,0.11 0.01,0.02 0.01,0.14 0.01,0.17l0 1.07c0,0.06 0,0.1 -0.03,0.14 -0.02,0.03 -0.06,0.06 -0.11,0.07 -0.03,0 -0.06,0 -0.09,0l-1.5 0c-0.12,0 -0.24,0.01 -0.36,0 -0.05,0 -0.09,-0.03 -0.12,-0.05 -0.04,-0.05 -0.04,-0.09 -0.04,-0.14l0 -1.06c0,-0.12 -0.02,-0.22 0.08,-0.28 0.05,-0.03 0.09,-0.03 0.15,-0.03 0.06,0 0.12,0 0.18,0 -0.01,0.01 -0.02,0.04 -0.03,0.06 0,0.01 -0.02,0.05 -0.02,0.05 -0.05,0 -0.11,0 -0.16,0 -0.02,0 -0.05,0 -0.07,0.01 -0.01,0.01 -0.02,0.03 -0.02,0.06l0 1.15c0,0.05 -0.01,0.1 0.04,0.12 0.01,0 0.06,0 0.07,0 0.62,0 1.24,0 1.85,0 0.07,0 0.07,-0.05 0.07,-0.09l0 -1.19c0,-0.02 -0.01,-0.02 -0.01,-0.03zm-0.8 -0.57c0.08,0.04 0.12,0.05 0.19,0.1 0.11,0.08 0.2,0.19 0.26,0.3 0.03,0.06 0.07,0.15 0.08,0.22 0,0 0.01,0.08 0.01,0.09 0.02,0.24 -0.06,0.47 -0.23,0.64 -0.02,0.03 -0.05,0.06 -0.09,0.08 -0.12,0.1 -0.29,0.17 -0.46,0.18 -0.02,0 -0.09,-0.01 -0.08,0.04 0.01,0.01 0.02,0.02 0.04,0.02 0.04,0 0.07,0 0.11,-0.01 0.12,-0.02 0.24,-0.06 0.34,-0.12 0.1,-0.06 0.18,-0.13 0.25,-0.22 0.11,-0.14 0.17,-0.31 0.18,-0.5 0,-0.04 0,-0.08 0,-0.12 0,-0.02 -0.02,-0.09 -0.02,-0.1l0.17 0 0 0.09 0 1.13 -1.91 0 0 -1.22 0.17 0c0,0.01 -0.01,0.03 -0.01,0.04 -0.01,0.05 -0.01,0.1 -0.01,0.15 0,0.06 0.01,0.12 0.02,0.17 0.05,0.2 0.19,0.36 0.36,0.46 0.31,0.17 0.68,0.08 0.88,-0.16 0.11,-0.11 0.17,-0.26 0.19,-0.43 0,-0.03 0,-0.06 0,-0.09 0,-0.02 -0.01,-0.09 -0.01,-0.1l-0.01 0c-0.02,-0.1 -0.03,-0.14 -0.09,-0.24 -0.12,-0.21 -0.37,-0.35 -0.64,-0.34 -0.15,0 -0.25,0.04 -0.35,0.1 -0.02,0.01 -0.04,0.03 -0.06,0.04 -0.07,0.05 -0.12,0.11 -0.17,0.17 -0.06,0 -0.13,0 -0.19,0 -0.06,0 -0.12,0 -0.17,0.02 -0.05,0.02 -0.08,0.06 -0.11,0.09 -0.03,0.06 -0.03,0.1 -0.03,0.16l0 1.16c0,0.07 0.01,0.11 0.04,0.16 0.03,0.03 0.06,0.06 0.11,0.08 0.06,0.02 0.13,0.01 0.19,0.01l0.48 0c0.03,0 0.07,0 0.1,0 0.03,0.06 0.05,0.08 0.02,0.15 -0.01,0.01 -0.02,0.04 -0.03,0.04 -0.01,0 -0.07,-0.01 -0.11,0.04 -0.04,0.04 -0.04,0.06 -0.04,0.12 0,0.03 0,0.06 0.01,0.07 0.02,0.01 0.06,0.01 0.08,0.01l0.7 0c0.05,0 0.04,0 0.05,-0.02 0.01,-0.03 0.01,-0.07 0.01,-0.09 0,-0.05 -0.03,-0.1 -0.07,-0.12 -0.03,-0.01 -0.05,-0.01 -0.09,-0.01 -0.01,-0.02 -0.03,-0.06 -0.03,-0.09 0,-0.04 0.02,-0.07 0.03,-0.1 0.1,0 0.19,0 0.28,0 0.1,0 0.19,0 0.28,0 0.09,0 0.18,0.01 0.25,-0.03 0.05,-0.04 0.1,-0.09 0.11,-0.17 0,-0.08 0,-0.17 0,-0.25l0 -0.97c0,-0.08 -0.01,-0.13 -0.06,-0.18 -0.04,-0.05 -0.09,-0.08 -0.17,-0.08 -0.09,0 -0.17,0 -0.25,0 -0.05,-0.1 -0.13,-0.2 -0.22,-0.27 -0.01,-0.01 -0.03,-0.03 -0.05,-0.04l-0.04 -0.03c0,0 0,0 0,0 0,0 0,0 0,0 0,0 -0.08,-0.05 -0.1,-0.06 -0.11,-0.04 -0.27,-0.09 -0.38,-0.08 -0.02,0.01 -0.03,0.01 -0.03,0.04 0.01,0.01 0.02,0.02 0.04,0.02 0.07,0 0.13,0.01 0.2,0.03 0.03,0.01 0.06,0.02 0.08,0.02z"></path> </g> </g> </svg>