<svg xmlns="http://www.w3.org/2000/svg" xmlns:xlink="http://www.w3.org/1999/xlink" xml:space="preserve" width="91px" height="91px" style="shape-rendering:geometricPrecision; text-rendering:geometricPrecision; image-rendering:optimizeQuality; fill-rule:evenodd; clip-rule:evenodd" viewBox="0 0 4.88 4.88"> <defs> <style type="text/css"> .fil1 {fill:#083264} .fil0 {fill:white} </style> </defs> <g id="Layer_x0020_1"> <metadata id="CorelCorpID_0Corel-Layer"></metadata> <g id="_1718159126688"> <circle class="fil0" cx="2.44" cy="2.44" r="2.44"></circle> <g> <path class="fil1" d="M2.13 2.69c0,0.12 0.14,0.21 0.25,0.14 0.25,-0.16 0.2,-0.16 0.38,-0.03l0.36 0.25c0.04,0.03 0.06,0.03 0.06,0.08 0,0.03 -0.04,0.08 -0.11,0.04 -0.02,-0.01 -0.03,-0.02 -0.05,-0.04 -0.02,-0.02 -0.05,-0.03 -0.08,-0.06 -0.03,-0.02 -0.11,-0.08 -0.14,-0.08 -0.03,0 -0.07,0.05 -0.01,0.1 0.03,0.02 0.24,0.16 0.25,0.18 0.02,0.02 0.04,0.1 -0.07,0.1 -0.02,0 -0.32,-0.24 -0.35,-0.24 -0.05,0 -0.07,0.05 -0.03,0.09l0.2 0.14c0.14,0.1 0.02,0.14 0,0.14 -0.03,0 -0.14,-0.09 -0.17,-0.11 -0.03,-0.02 -0.15,-0.11 -0.18,-0.11 -0.03,0 -0.05,0.02 -0.05,0.04 0,0.04 0.17,0.15 0.21,0.18 0.04,0.02 0.06,0.02 0.06,0.08 0,0.03 -0.03,0.06 -0.05,0.06 -0.04,0 -0.06,-0.02 -0.09,-0.04 -0.03,-0.02 -0.05,-0.03 -0.07,-0.05 0,-0.03 0.04,-0.09 -0.03,-0.16 -0.04,-0.04 -0.07,-0.05 -0.13,-0.04 0.01,-0.04 -0.01,-0.09 -0.03,-0.11 -0.04,-0.04 -0.07,-0.04 -0.13,-0.04 0.01,-0.08 -0.06,-0.15 -0.14,-0.15 -0.03,0 -0.07,0.01 -0.09,0.03 -0.02,-0.09 -0.12,-0.13 -0.2,-0.08 -0.03,0.02 -0.04,0.04 -0.06,0.05 -0.03,-0.01 -0.09,-0.05 -0.12,-0.07l0.3 -0.55c0.06,0.01 0.04,0.02 0.13,0.02 0.13,0 0.2,-0.07 0.43,-0.07 -0.01,0.03 0,0 -0.02,0.02l-0.13 0.12c-0.04,0.04 -0.1,0.08 -0.1,0.17zm1.16 -0.34c0,-0.09 0.03,-0.1 0.1,-0.12l0.16 -0.05c0.03,0.13 0.08,0.3 0.12,0.43 0.01,0.05 0.11,0.4 0.11,0.44 -0.01,0 -0.18,0.05 -0.2,0.05 -0.04,0 -0.07,-0.02 -0.09,-0.05 -0.02,-0.03 -0.08,-0.25 -0.09,-0.3l-0.08 -0.3c-0.01,-0.03 -0.03,-0.08 -0.03,-0.1zm-2.29 0.58c0,0.04 0,0.07 0.05,0.1l0.08 0.04c0.09,0.04 0.17,0.11 0.28,0.05 0.03,-0.02 0.04,-0.04 0.07,-0.06 0.04,0.03 0.07,0.05 0.11,0.07 -0.03,0.06 -0.07,0.09 -0.07,0.17 0,0.07 0.07,0.12 0.16,0.12 0,0.06 -0.01,0.09 0.03,0.14 0.05,0.05 0.11,0.05 0.17,0.02 0.04,0.16 0.19,0.1 0.21,0.09 0.01,0.1 0.17,0.16 0.25,0.05 0.01,-0.01 0.02,-0.03 0.03,-0.04 0.01,-0.02 0.01,-0.03 0.02,-0.04 0.05,0.01 0.13,0.09 0.2,0.09 0.09,0 0.16,-0.06 0.16,-0.14 0.1,0.02 0.19,-0.05 0.2,-0.13 0.15,0 0.2,-0.05 0.2,-0.18 0.07,-0.01 0.14,-0.09 0.12,-0.2 0.02,0 0.1,-0.01 0.12,-0.02 0.1,0.18 0.19,0.13 0.36,0.09 0.17,-0.04 0.14,-0.09 0.1,-0.23 -0.01,-0.05 -0.02,-0.09 -0.04,-0.13l-0.13 -0.5c-0.03,-0.12 -0.04,-0.2 -0.14,-0.2 -0.02,0 -0.21,0.05 -0.23,0.06 -0.06,0.03 -0.12,0.09 -0.12,0.18 -0.14,0.04 -0.15,0.03 -0.3,-0.04 -0.13,-0.07 -0.22,-0.07 -0.36,0 -0.06,0.03 -0.03,0.01 -0.13,0 -0.03,0 -0.03,0 -0.06,0 -0.14,-0.01 -0.26,0.06 -0.43,0.06 -0.04,0 -0.03,0 -0.06,0 0,-0.13 -0.07,-0.18 -0.16,-0.22 -0.02,-0.01 -0.03,-0.01 -0.04,-0.02 -0.06,-0.04 -0.15,-0.1 -0.21,-0.01 -0.01,0.01 -0.01,0.03 -0.02,0.04l-0.25 0.45c-0.01,0.03 -0.17,0.31 -0.17,0.34z"></path> <path class="fil1" d="M2.22 1.58c0,-0.03 0.03,-0.08 0.1,-0.01 0.01,0.02 0.03,0.03 0.04,0.05 0.04,-0.03 0.17,-0.19 0.21,-0.19 0.04,0 0.04,0.02 0.04,0.05 0,0.02 -0.16,0.18 -0.19,0.21 -0.04,0.04 -0.06,0.06 -0.11,0 -0.02,-0.02 -0.09,-0.07 -0.09,-0.11zm-0.28 -0.01c0,0.08 0.02,0.14 0.04,0.2 0.02,0.05 0.05,0.1 0.09,0.14 0.16,0.17 0.43,0.2 0.62,0.06 0.02,-0.01 0.02,-0.02 0.04,-0.03 0.01,-0.01 0.01,-0.01 0.03,-0.02 0.18,-0.19 0.19,-0.49 0,-0.67 -0.14,-0.14 -0.35,-0.19 -0.53,-0.11 -0.17,0.08 -0.29,0.24 -0.29,0.43z"></path> </g> </g> </g> </svg>