<svg xmlns="http://www.w3.org/2000/svg" xmlns:xlink="http://www.w3.org/1999/xlink" xml:space="preserve" width="91px" height="91px" style="shape-rendering:geometricPrecision; text-rendering:geometricPrecision; image-rendering:optimizeQuality; fill-rule:evenodd; clip-rule:evenodd" viewBox="0 0 4.7 4.7"> <defs> <style type="text/css"> .fil1 {fill:#083264} .fil0 {fill:white} </style> </defs> <g id="Layer_x0020_1"> <metadata id="CorelCorpID_0Corel-Layer"></metadata> <g id="_1718159109760"> <circle class="fil0" cx="2.35" cy="2.35" r="2.35"></circle> <path class="fil1" d="M1.99 2.85c0.04,0.06 0.05,0.08 0.14,0.08l0.45 0c0.07,0 0.12,-0.03 0.13,-0.09 0.01,-0.11 0.01,-0.31 -0.02,-0.4 -0.02,-0.05 -0.05,-0.09 -0.08,-0.13 -0.03,-0.02 -0.08,-0.08 -0.12,-0.07 -0.04,0.05 -0.18,0.04 -0.24,0.02 -0.06,-0.03 -0.04,-0.03 -0.1,0 -0.03,0.03 -0.05,0.05 -0.08,0.07 -0.04,0.06 -0.08,0.13 -0.08,0.22 0,0.08 -0.01,0.22 0,0.3zm1.05 -0.4c-0.01,-0.04 -0.03,-0.07 -0.06,-0.09 -0.01,-0.01 -0.04,-0.04 -0.06,-0.04 -0.02,0 -0.06,0.02 -0.08,0.02 -0.12,0.02 -0.13,-0.05 -0.17,-0.01 0.01,0.03 0.03,0.05 0.05,0.09 0.04,0.11 0.03,0.28 0.02,0.41 0.14,-0.02 0.29,0.03 0.32,-0.05 0.02,-0.03 0.01,-0.22 0.01,-0.26 -0.01,-0.03 -0.02,-0.05 -0.02,-0.08l-0.01 0.01zm-0.3 -0.99c0.01,0.02 0.01,0.01 0.02,0.02 0.01,0 0.08,0.04 0.09,0.05 0.03,0.02 0.06,0.04 0.09,0.06 0.04,0.03 0.12,0.09 0.14,0.14 0.04,0.02 0.13,0.18 0.15,0.22 0.04,0.09 0.05,0.17 0.08,0.27 0,0 0,0 0,0 0,0.01 0,0.01 0,0.01l0.05 0c0.02,0 0.04,0 0.06,0 -0.02,-0.22 -0.12,-0.42 -0.26,-0.58 -0.03,-0.04 -0.05,-0.06 -0.08,-0.09 -0.03,-0.02 -0.16,-0.14 -0.2,-0.14 -0.02,-0.02 -0.04,-0.02 -0.06,-0.03 -0.02,-0.01 -0.04,-0.02 -0.06,-0.03 -0.08,-0.04 -0.19,-0.07 -0.29,-0.08l0 0.12c0.03,-0.01 0.11,0.01 0.14,0.02 0.03,0.01 0.11,0.04 0.13,0.04zm-0.41 -0.39c-0.05,0.02 -0.04,0.06 -0.04,0.12l0 0.33c0,0.05 0.02,0.1 0.08,0.08 0.05,-0.02 0.03,-0.07 0.03,-0.13l0 -0.32c0,-0.05 -0.02,-0.11 -0.07,-0.08zm-1.24 1.23c-0.04,0.02 -0.04,0.08 0,0.1 0.02,0.01 0.46,0.01 0.48,0 0.04,-0.02 0.04,-0.08 0,-0.1 -0.02,-0.01 -0.46,-0.01 -0.48,0zm2.04 0c-0.04,0.02 -0.04,0.08 -0.01,0.1 0.03,0.01 0.13,0.01 0.16,0.01 0.05,-0.01 0.3,0 0.32,-0.01 0.05,-0.01 0.05,-0.08 0.01,-0.1 -0.03,-0.01 -0.47,0 -0.48,0zm-0.83 1.3c0.01,0.05 0.08,0.05 0.1,0.01 0.01,-0.03 0.01,-0.46 0,-0.47 -0.01,-0.05 -0.08,-0.05 -0.1,-0.02 -0.01,0.03 -0.01,0.47 0,0.48zm-0.5 -1.31c0.3,0.14 0.38,-0.33 0.07,-0.32 -0.08,0.02 -0.12,0.05 -0.14,0.13 -0.03,0.09 0.03,0.15 0.07,0.19zm0.96 -0.32c-0.08,0.03 -0.15,0.1 -0.12,0.21 0.01,0.08 0.1,0.16 0.21,0.13 0.08,-0.02 0.15,-0.1 0.12,-0.21 -0.02,-0.08 -0.1,-0.15 -0.21,-0.13zm-1.25 0.85l-0.01 -0.02c-0.01,-0.01 -0.01,-0.01 -0.01,-0.02 -0.06,-0.11 -0.08,-0.19 -0.1,-0.31l-0.11 0c0.04,0.16 0.01,0.17 0.11,0.36 0.05,0.1 0.13,0.21 0.2,0.28l0.13 0.11c0.14,0.1 0.32,0.18 0.51,0.2l0 -0.11c-0.16,-0.02 -0.34,-0.1 -0.44,-0.17 -0.07,-0.06 -0.14,-0.11 -0.19,-0.19 -0.01,-0.01 -0.02,-0.02 -0.04,-0.04 -0.01,-0.02 -0.05,-0.07 -0.05,-0.09zm1.8 -0.34c-0.03,0.13 -0.05,0.2 -0.1,0.31 -0.05,0.09 -0.11,0.18 -0.18,0.24 -0.16,0.16 -0.33,0.23 -0.55,0.28l-0.01 0.11c0.23,-0.02 0.48,-0.15 0.64,-0.31l0.11 -0.13c0.1,-0.14 0.18,-0.32 0.2,-0.51 -0.03,0 -0.1,0 -0.11,0.01zm-2.03 -0.25c0.02,0 0.1,0 0.11,-0.01 0.04,-0.17 0.07,-0.3 0.18,-0.44 0.09,-0.12 0.2,-0.22 0.34,-0.29 0.09,-0.04 0.2,-0.08 0.32,-0.1l0 -0.11c-0.24,0.03 -0.48,0.15 -0.64,0.31 -0.16,0.16 -0.29,0.41 -0.31,0.64zm0.49 0.09c0,0.01 -0.02,0.01 -0.03,0.02 -0.02,0.01 -0.02,0.02 -0.04,0.04 -0.03,0.02 -0.03,0.04 -0.05,0.08 -0.03,0.08 -0.02,0.11 -0.02,0.2 0,0.09 -0.01,0.15 0.07,0.16l0.26 0.01c0,-0.13 -0.02,-0.3 0.02,-0.41 0.02,-0.03 0.04,-0.07 0.05,-0.09 -0.04,-0.03 -0.03,0.01 -0.11,0.02 -0.08,0 -0.09,-0.03 -0.15,-0.03zm0.35 -0.36c-0.01,0.06 -0.01,0.11 0.02,0.16 0.02,0.04 0.04,0.06 0.08,0.09 0.08,0.05 0.19,0.05 0.27,-0.01 0.18,-0.12 0.1,-0.44 -0.17,-0.42 -0.11,0.02 -0.18,0.08 -0.2,0.18z"></path> </g> </g> </svg>