<svg xmlns="http://www.w3.org/2000/svg" id="Layer_1" data-name="Layer 1" viewBox="0 0 90 90"><defs><style>.cls-1{fill:#fff;}.cls-2{fill:#083264;}</style></defs><circle class="cls-1" cx="45" cy="45" r="45"></circle><path class="cls-2" d="M66.54,27.81c3.22,6.35,6.38,12.58,9.53,18.81.67,1.32.67,1.32-.38,2.42-2.22,2.32-4.45,4.63-6.65,7a.83.83,0,0,1-1.26.15,19.48,19.48,0,0,1-3.08-2.72c-4.68-4.81-8.92-10-13.32-15.05-1.14-1.32-2.33-2.59-3.47-3.91a1,1,0,0,0-1.47-.18c-1.21.8-2.43,1.57-3.64,2.36a45,45,0,0,1-5.2,3,16.09,16.09,0,0,1-5.7,1.6A2.58,2.58,0,0,1,29.16,38a1.63,1.63,0,0,1,.64-.78,62.55,62.55,0,0,1,5.52-4.05q6.54-4.44,13.34-8.49a5.53,5.53,0,0,1,6.34.19,30.61,30.61,0,0,1,3.53,2.78,6.58,6.58,0,0,0,6,1.47A2.77,2.77,0,0,0,66.54,27.81Z"></path><path class="cls-2" d="M72.84,22.59a2.33,2.33,0,0,1,2,1.47l7.27,14.12q1.13,2.15,2.23,4.31c.78,1.52.45,2.56-1,3.33l-2.49,1.27a2.06,2.06,0,0,1-2.94-.93Q73,36.71,68.12,27.22a2,2,0,0,1,1-3l2.61-1.34A2.5,2.5,0,0,1,72.84,22.59Z"></path><path class="cls-2" d="M20.69,25.24a3.13,3.13,0,0,1-.32,1.12q-4,9.55-8,19.11a2.16,2.16,0,0,1-3.23,1.34l-2.44-1a2.08,2.08,0,0,1-1.26-3q3.14-7.56,6.29-15.11c.59-1.43,1.17-2.85,1.78-4.27a2.09,2.09,0,0,1,3.08-1.27c.93.38,1.86.75,2.78,1.15A2,2,0,0,1,20.69,25.24Z"></path><path class="cls-2" d="M43.53,56.86a2.91,2.91,0,0,1,2.76,1.75,2.72,2.72,0,0,1-.49,3.27Q42.13,65.5,38.31,69a3,3,0,0,1-4.11-4.4c2.44-2.38,4.94-4.71,7.43-7A2.66,2.66,0,0,1,43.53,56.86Z"></path><path class="cls-2" d="M43.41,25.41a.7.7,0,0,1-1.16.56c-1.12-1.11-2.27-.79-3.46-.26-2.14,1-4.31,1.89-6.4,3a6.18,6.18,0,0,1-6.84-.39c-.44-.3-1-.87-1.37-.7s-.46.92-.66,1.41q-3.37,8.36-6.75,16.69a1,1,0,0,0,.2,1.24c1.42,1.62,2.8,3.29,4.19,4.94l.32.4c.34.39.41.81,0,1.16s-.82.21-1.15-.17l-3.74-4.45c-.49-.58-1-1.18-1.48-1.74a.77.77,0,0,1-.16-.92q4.16-10.24,8.27-20.5c.18-.45.33-.5.72-.22a26.1,26.1,0,0,0,4.12,2.41A2.47,2.47,0,0,0,29.9,28a47.08,47.08,0,0,0,5.79-2.51A18.88,18.88,0,0,1,40.2,23.7a3.38,3.38,0,0,1,3,1.17A.71.71,0,0,1,43.41,25.41Z"></path><path class="cls-2" d="M62.55,64.27c-.31,2.39-3.07,3.39-5.07,2.83-.86-.23-.86-.23-.95.69A4.09,4.09,0,0,1,50.37,71c-.19-.1-.75-.18-.38-.56s.34-1.13,1.09-.77a3.1,3.1,0,0,0,1.86.32,2.41,2.41,0,0,0,2-2.07A3.43,3.43,0,0,0,54,64.65c-2-1.92-3.89-4-5.85-5.92-.39-.39-.33-.61,0-.9s.52-.77,1.08-.18c2.16,2.28,4.37,4.51,6.58,6.75a3.47,3.47,0,0,0,3.63,1.19,1.89,1.89,0,0,0,1.55-2.05,5.84,5.84,0,0,0-1.52-4.44c-1.53-1.59-2.9-3.33-4.38-5-.41-.46-.39-.69.08-1.07s.65-.51,1.09,0c1.49,1.79,3,3.56,4.59,5.27.63.7,1.16,1.48,1.84,2.13a3.3,3.3,0,0,0,3.41,1,3.23,3.23,0,0,0,2.25-3.34,1,1,0,0,1,1.27-1c.37.08.24.39.24.6a4.83,4.83,0,0,1-2.09,4.58,4.54,4.54,0,0,1-5,.1c-.3,0-.23.19-.24.34A7.93,7.93,0,0,1,62.55,64.27Z"></path><path class="cls-2" d="M31.52,64.42a2.9,2.9,0,0,1-2.72-1.68,2.69,2.69,0,0,1,.32-3.17c1.59-1.71,3.23-3.37,4.95-4.93a3,3,0,0,1,4.19,4.27c-1.55,1.67-3.2,3.25-4.84,4.84A2.56,2.56,0,0,1,31.52,64.42Z"></path><path class="cls-2" d="M46.4,64.35a2.9,2.9,0,0,1,2.76,1.75,2.82,2.82,0,0,1-.49,3.28c-1,1-1.94,2-3,3a3,3,0,0,1-4.27-4.26c.94-1,2-2,3-3A2.75,2.75,0,0,1,46.4,64.35Z"></path><path class="cls-2" d="M26.12,53.2a3,3,0,0,1,2.8,1.9,3,3,0,0,1-.73,3.3A23.72,23.72,0,0,1,26,60.21a3,3,0,0,1-4.1-.57,3,3,0,0,1,.29-4.12c.69-.62,1.43-1.19,2.17-1.76A2.71,2.71,0,0,1,26.12,53.2Z"></path></svg>