<svg xmlns="http://www.w3.org/2000/svg" xmlns:xlink="http://www.w3.org/1999/xlink" id="Layer_1" x="0px" y="0px" viewBox="0 0 91 91" style="enable-background:new 0 0 91 91;" xml:space="preserve"> <style type="text/css"> .st0{fill-rule:evenodd;clip-rule:evenodd;fill:#FFFFFF;} .st1{fill-rule:evenodd;clip-rule:evenodd;fill:#0B2852;} </style> <g> <circle class="st0" cx="45.5" cy="45.5" r="45.5"></circle> <g> <path class="st1" d="M14.75,36.59c-0.54,0.64-0.96,0.41-1,1.74c-0.03,0.91,0.28,1.77,0.7,2.25c0.81,0.94,0.92-0.1,1.53,1.21 c1.54,3.29,3.43,3.02,2.74,5.8c-0.42,1.7-5.34,2.92-7.02,4.31c-1.28,1.05-1.46,1.86-1.91,3.73c-0.55,2.29-0.07,2.99,2.26,2.98 l16.97,0c1.68,0,4.01,0.43,4.43-1.18c0.31-1.18-0.78-3.41-1.34-4.2c-0.82-1.14-1.67-1.78-3.15-2.53 c-0.61-0.31-1.19-0.62-1.81-0.95c-1.58-0.84-2.78-1.09-2.81-2.86c-0.04-2.98,1.42-1.44,3.04-5.73c2.58-0.61,2.17-3.63,1.48-4.11 l-0.77-0.32c0.03-0.73,0.99-3.27-1.1-5.66c-0.74-0.84-3.67-2.24-5.22-2.31c-2.28-0.11-4.25,1.16-5.26,2.27 C15.4,32.27,14.2,34.53,14.75,36.59L14.75,36.59z M48.65,63.59c-1.28,1.06-0.42,2.63,0.08,2.93c0.92,0.57,0.41-0.12,0.99,1.02 c0.22,0.44,0.58,0.9,0.89,1.29c0.25,0.31,1.69,1.64,0.48,2.9c-0.82,0.85-4.29,1.68-5.22,3.19c-0.36,0.58-1,2.62-0.6,3.31 c0.5,0.86,2.7,0.51,3.77,0.51h8.56c1.08,0,3.32,0.34,3.84-0.44c0.53-0.8-0.24-2.44-0.67-3.09c-1.97-2.96-5.77-2.12-5.44-5.09 c0.1-0.89,0.83-0.94,1.66-2.5c0.61-1.16,0.14-0.52,1.05-1.11c0.54-0.35,1.49-2.3-0.1-2.77c-0.04-0.91,0.35-1.01,0.04-2.27 c-0.17-0.7-0.49-1.31-0.88-1.72c-0.51-0.55-2.5-1.51-3.56-1.55C50.59,58.07,48.49,60.58,48.65,63.59L48.65,63.59z M57.46,58.77 L57.46,58.77L57.46,58.77L57.46,58.77z M28.07,60.75c3.64,0.04,1.65,0.67,6.16,2.96c1.77,0.9,4.63,2.08,7.04,2.21 c-0.22-0.36-0.02-0.1-0.31-0.38c-0.1-0.1-0.19-0.16-0.33-0.27c-0.52-0.42-1.97-1.3-1.16-2.01c0.89-0.5,2.09,0.89,2.51,1.24 c3.11,2.57,2.96,2.2-0.06,3.99c-0.59,0.35-2.17,1.62-2.8,1.06c-0.91-0.95,1.03-1.62,1.61-2.08c-0.54-0.38-2.91-0.73-3.74-1 c-1.19-0.39-2.34-0.88-3.36-1.42c-1.12-0.59-1.99-1.14-2.95-1.85C29.63,62.42,28.72,61.76,28.07,60.75L28.07,60.75z M41.04,22.5 c-0.49-0.42-1.23-0.66-1.72-0.99c-0.72-0.49-0.54-1.4,0.27-1.39c0.49,0.01,2.76,1.38,3.42,1.74c2.27,1.21,1.31,1.39-0.14,2.79 c-0.73,0.7-2.43,2.49-3.09,2.04c-0.89-1.32,1.02-1.71,1.54-2.69c-2.33,0.11-5.25,1.26-7.05,2.21c-2.48,1.3-3.63,2.5-5.28,3.85 l-0.9-1c0.72-1.19,4.03-3.38,5.59-4.18C36.25,23.55,37.96,23.15,41.04,22.5L41.04,22.5z M61.49,42.97 c-0.38-0.58-1.52-0.98-1.84-1.49c-0.48-0.75,0.26-1.53,1.35-0.76c0.6,0.42,1.25,0.88,1.86,1.32c0.66,0.48,1.18,0.77,1.81,1.33 c0.02,0.94-0.29,0.95-0.86,1.35c-0.98,0.68-3.27,2.63-3.93,2.23c-1.28-1.06,1.16-1.73,1.65-2.51l-33.36-0.05l0.75-1.36 L61.49,42.97L61.49,42.97z M48.65,17.59c-1.28,1.06-0.42,2.63,0.08,2.93c0.92,0.57,0.41-0.13,0.99,1.02 c0.22,0.44,0.58,0.9,0.89,1.29c0.25,0.31,1.69,1.65,0.48,2.9c-0.82,0.85-4.29,1.68-5.22,3.19c-0.36,0.58-1,2.62-0.6,3.31 c0.5,0.86,2.7,0.51,3.77,0.51h8.56c1.08,0,3.32,0.34,3.84-0.44c0.53-0.8-0.24-2.44-0.67-3.09c-1.97-2.96-5.77-2.13-5.44-5.09 c0.1-0.89,0.83-0.94,1.66-2.5c0.61-1.16,0.14-0.52,1.05-1.11c0.54-0.35,1.49-2.31-0.1-2.77c-0.04-0.91,0.35-1.01,0.04-2.27 c-0.17-0.7-0.49-1.31-0.88-1.72c-0.51-0.55-2.5-1.51-3.56-1.55C50.59,12.07,48.49,14.59,48.65,17.59L48.65,17.59z M68.45,38.18 c-1.06,0.74-0.69,2.47,0.13,2.92c0.92,0.52,0.42,0.05,0.98,1.06c0.29,0.52,0.54,0.87,0.88,1.29c0.38,0.45,0.73,0.55,0.82,1.25 c0.38,2.98-4.27,2.42-5.69,4.95c-0.36,0.65-0.93,2.53-0.46,3.19c0.56,0.79,2.66,0.47,3.79,0.47c2.24,0,11.66,0.34,12.27-0.39 c0.68-0.82-0.24-2.64-0.61-3.19c-1.95-2.87-5.77-2.11-5.43-5.03c0.1-0.88,0.92-1.07,1.67-2.53c0.62-1.23,0.18-0.53,1.08-1.1 c0.38-0.24,0.64-0.78,0.68-1.43c0.07-1.03-0.24-1.06-0.84-1.45c0.03-0.7,0.62-2.36-0.84-3.92c-0.48-0.51-2.45-1.49-3.63-1.52 C70.25,32.67,68.33,35.22,68.45,38.18z"></path> </g> </g> </svg>