<svg xmlns="http://www.w3.org/2000/svg" xmlns:xlink="http://www.w3.org/1999/xlink" xml:space="preserve" width="91px" height="91px" style="shape-rendering:geometricPrecision; text-rendering:geometricPrecision; image-rendering:optimizeQuality; fill-rule:evenodd; clip-rule:evenodd" viewBox="0 0 46.1 46.1"> <defs> <style type="text/css"> .fil1 {fill:#083264} .fil0 {fill:white} </style> </defs> <g id="Layer_x0020_1"> <metadata id="CorelCorpID_0Corel-Layer"></metadata> <g id="_1718013171056"> <circle class="fil0" cx="23.05" cy="23.05" r="23.05"></circle> <path class="fil1" d="M11.58 31.86l3.79 3.82c0.5,-0.28 0.77,-0.43 1.38,-0.58 1.36,-0.34 2.97,-0.26 4.35,-0.06 3.06,0.45 7.48,1.39 10.36,-0.27 0.3,-0.17 0.71,-0.52 0.96,-0.77 0.35,-0.37 0.61,-0.78 0.86,-1.22l0.45 -0.89c0.08,-0.2 0.18,-0.4 0.25,-0.58 0.18,-0.49 1.1,-2.77 0.06,-2.77 -1.15,0 -1.95,1.23 -2.54,2.02 -0.52,0.69 -0.67,0.93 -1.31,1.46 -1.53,1.26 -3.18,-0.39 -4.86,-0.85l-0.25 -0.1c0.91,0 1.95,-0.12 2.73,-0.25 0.91,-0.15 1.77,-0.41 1.77,-1.34 0,-1.92 -3.03,-1.28 -4.55,-1.28 -0.78,0 -1.86,-0.26 -2.54,-0.43 -0.42,-0.11 -0.79,-0.18 -1.21,-0.28 -1.1,-0.26 -2.07,-0.28 -3.16,0.08 -1.02,0.34 -2.11,1.09 -2.93,1.71l-1.73 1.35c-0.82,0.61 -0.9,0.7 -1.88,1.23zm12.46 -16.38c0,0.51 0.23,0.84 0.84,0.89l0 -1.63c-0.23,0.05 -0.41,0.06 -0.58,0.21 -0.1,0.09 -0.26,0.36 -0.26,0.53zm1.14 3.41c1.32,0 1.26,-1.75 0,-1.78l0 1.78zm-1.14 5.74c0,-1.09 -0.57,-1.93 -1.51,-2.44l-0.95 -0.38c-0.62,-0.21 -1.36,-0.45 -2.04,-0.59 -0.43,-0.08 -1.78,-0.41 -2.18,-0.45 0.36,1.53 0.89,4.92 1.94,5.88 0.24,0.22 0.35,0.07 0.83,0.12 0.25,0.03 0.59,0.07 0.87,0.12 0.28,0.05 0.56,0.1 0.82,0.17 0.32,0.08 0.49,0.2 0.74,0.05 0.45,-0.27 0.75,-0.51 1.04,-0.94 0.24,-0.38 0.44,-0.92 0.44,-1.54zm4.8 2.82c1.12,0 1.95,-0.58 2.43,-1.48 0.48,-0.92 1.41,-4.39 1.43,-5.2 -0.94,0.08 -3.9,0.89 -4.78,1.26 -0.25,0.11 -0.44,0.21 -0.65,0.34 -0.26,0.15 -0.37,0.25 -0.57,0.47 -1.48,1.67 -0.34,4.61 2.14,4.61zm-3.76 -5.98l0 0.29 -0.1 0c0.01,-0.14 0,-0.05 0.03,-0.16 0.06,-0.18 0.03,-0.07 0.07,-0.13zm0.1 -5c0.62,0.14 1.53,0.4 1.53,1.19 0,0.52 0.03,0.97 -0.45,1.37 -0.22,0.18 -0.73,0.33 -1.08,0.36l0 0.64 -0.3 0 0 -0.64c-1,-0.08 -1.53,-0.54 -1.53,-1.63l0.59 0c0,0.64 0.21,1.07 0.94,1.13l0 -1.92c-0.58,0 -1.43,-0.46 -1.43,-1.19l0 -0.25c0,-0.69 0.58,-1.24 1.43,-1.24l0 -0.49 0.3 0c0,0.69 0.01,0.4 0.49,0.55 0.2,0.06 0.34,0.12 0.49,0.25 0.29,0.24 0.46,0.57 0.46,0.98l-0.6 0c0,-0.52 -0.31,-0.79 -0.84,-0.79l0 1.68zm-4.16 1.39c0,1.56 1.04,2.93 2.35,3.54 0.52,0.25 0.97,0.27 1.56,0.41 0,0.45 -0.1,0.97 -0.16,1.42 -0.06,0.45 -0.13,0.98 -0.18,1.45 -0.06,0.49 -0.13,0.98 -0.19,1.45 -0.06,0.47 -0.16,0.99 -0.16,1.47 0.31,0 0.41,0.05 0.74,0.05l0.89 0 -0.74 -5.84c1,-0.23 1.71,-0.19 2.68,-1.17 0.93,-0.93 1.23,-1.72 1.23,-3.08 0,-1.6 -2.58,-5.18 -3.4,-6.39 -0.11,-0.16 -0.48,-0.74 -0.66,-0.78 -0.04,0.14 -0.95,1.35 -1.16,1.66 -0.92,1.39 -2.8,4.11 -2.8,5.81z"></path> </g> </g> </svg>