<svg xmlns="http://www.w3.org/2000/svg" xmlns:xlink="http://www.w3.org/1999/xlink" xml:space="preserve" width="91px" height="91px" style="shape-rendering:geometricPrecision; text-rendering:geometricPrecision; image-rendering:optimizeQuality; fill-rule:evenodd; clip-rule:evenodd" viewBox="0 0 4.7 4.7"> <defs> <style type="text/css"> .fil1 {fill:#083264} .fil0 {fill:white} </style> </defs> <g id="Layer_x0020_1"> <metadata id="CorelCorpID_0Corel-Layer"></metadata> <g id="_1718251139072"> <circle class="fil0" cx="2.35" cy="2.35" r="2.35"></circle> <g> <path class="fil1" d="M2.35 3.06l-0.24 -0.2c-0.02,-0.02 -0.03,-0.04 -0.05,-0.06l-0.05 -0.06c-0.16,-0.21 -0.3,-0.48 -0.3,-0.8 0.04,-0.01 0.61,-0.31 0.64,-0.31 0.02,0 0.59,0.3 0.64,0.31 0,0.26 -0.11,0.51 -0.21,0.67 -0.03,0.05 -0.06,0.08 -0.09,0.13l-0.1 0.11 -0.24 0.21zm-0.83 -1.18c0,0.21 0.02,0.33 0.08,0.51 0.02,0.07 0.05,0.13 0.08,0.19 0.07,0.14 0.12,0.2 0.22,0.32 0.08,0.11 0.24,0.23 0.35,0.32 0.11,0.09 0.13,0.05 0.27,-0.06 0.04,-0.03 0.17,-0.14 0.21,-0.18l0.07 -0.08c0.13,-0.17 0.22,-0.29 0.29,-0.51 0.06,-0.18 0.09,-0.3 0.09,-0.51 0,-0.07 -0.11,-0.11 -0.18,-0.14 -0.07,-0.04 -0.14,-0.07 -0.21,-0.11 -0.05,-0.02 -0.41,-0.2 -0.43,-0.2 -0.06,0 -0.16,0.06 -0.24,0.1l-0.42 0.21c-0.07,0.03 -0.18,0.07 -0.18,0.14z"></path> <path class="fil1" d="M3.45 2.89l0 0.56 -0.56 0c-0.05,0 -0.08,0.05 -0.08,0.11 0,0.03 0.04,0.08 0.08,0.08l0.67 0c0.03,0 0.08,-0.05 0.08,-0.08l0 -0.67c0,-0.04 -0.04,-0.08 -0.1,-0.08 -0.04,0 -0.09,0.04 -0.09,0.08z"></path> <path class="fil1" d="M2.81 1.14c0,0.06 0.04,0.1 0.08,0.1l0.56 0 0 0.57c0,0.04 0.04,0.08 0.11,0.08 0.03,0 0.08,-0.05 0.08,-0.08l0 -0.67c0,-0.04 -0.05,-0.08 -0.08,-0.08l-0.67 0c-0.04,0 -0.08,0.04 -0.08,0.08z"></path> <path class="fil1" d="M1.06 1.14l0 0.67c0,0.04 0.04,0.08 0.1,0.08 0.04,0 0.08,-0.05 0.08,-0.08l0 -0.57 0.57 0c0.04,0 0.08,-0.04 0.08,-0.1 0,-0.04 -0.05,-0.08 -0.08,-0.08l-0.67 0c-0.04,0 -0.08,0.04 -0.08,0.08z"></path> <path class="fil1" d="M1.06 2.89l0 0.67c0,0.03 0.04,0.08 0.08,0.08l0.67 0c0.04,0 0.08,-0.04 0.08,-0.1 0,-0.04 -0.05,-0.09 -0.08,-0.09l-0.57 0 0 -0.56c0,-0.04 -0.04,-0.08 -0.1,-0.08 -0.04,0 -0.08,0.04 -0.08,0.08z"></path> <path class="fil1" d="M2.35 2.3c-0.07,-0.04 -0.1,-0.14 -0.2,-0.14 -0.04,0 -0.08,0.04 -0.08,0.11 0,0.04 0.08,0.11 0.12,0.14 0.04,0.04 0.11,0.12 0.15,0.12 0.07,0 0.09,-0.03 0.15,-0.09 0.04,-0.04 0.07,-0.08 0.11,-0.12 0.04,-0.04 0.21,-0.19 0.21,-0.24 0,-0.1 -0.1,-0.14 -0.18,-0.05 -0.01,0 0,0 -0.01,0.01l-0.1 0.1c-0.03,0.03 -0.03,0.02 -0.07,0.06 0,0 0,0 0,0 0,0 0,0.01 0,0.01l-0.05 0.05c-0.03,0.03 -0.03,0.03 -0.05,0.04z"></path> </g> </g> </g> </svg>