<svg xmlns="http://www.w3.org/2000/svg" xmlns:xlink="http://www.w3.org/1999/xlink" xml:space="preserve" width="91px" height="91px" style="shape-rendering:geometricPrecision; text-rendering:geometricPrecision; image-rendering:optimizeQuality; fill-rule:evenodd; clip-rule:evenodd" viewBox="0 0 3.89 3.89"> <defs> <style type="text/css"> .fil1 {fill:#083264} .fil0 {fill:white} </style> </defs> <g id="Layer_x0020_1"> <metadata id="CorelCorpID_0Corel-Layer"></metadata> <g id="_1718023690848"> <circle class="fil0" cx="1.94" cy="1.94" r="1.94"></circle> <path class="fil1" d="M0.89 1.55l1.47 0c0.01,-0.06 0,-0.18 0.06,-0.32 0.03,-0.08 0.05,-0.13 0.1,-0.19 0.02,-0.02 0.04,-0.03 0.05,-0.05 -0.11,0 -1.35,-0.01 -1.39,0 -0.19,0.04 -0.29,0.36 -0.29,0.56zm1.66 0.02c0,0.22 0.15,0.23 0.15,-0.01 0,-0.05 -0.02,-0.12 -0.08,-0.12 -0.04,0 -0.07,0.08 -0.07,0.13zm-0.02 -0.42c0.03,0 0.17,-0.07 0.29,0.09 0.04,0.06 0.04,0.07 0.07,0.13 0.02,0.05 0.03,0.12 0.03,0.18l0.16 0c0,-0.16 -0.07,-0.39 -0.17,-0.49 -0.05,-0.05 -0.08,-0.07 -0.16,-0.07 -0.1,0 -0.18,0.1 -0.22,0.16zm-0.06 0.44c0,-0.21 0.18,-0.3 0.26,-0.16 0.09,0.14 0.03,0.37 -0.1,0.38 -0.05,0.01 -0.1,-0.04 -0.12,-0.07 -0.02,-0.04 -0.04,-0.1 -0.04,-0.15zm-0.07 0.04c0,0.08 0.05,0.23 0.11,0.29 0.09,0.08 0.18,0.05 0.25,-0.04 0.01,-0.01 0.02,-0.02 0.03,-0.04 0.09,-0.14 0.08,-0.41 -0.02,-0.54 -0.13,-0.16 -0.28,-0.09 -0.31,0.07 -0.01,0.05 -0.02,0.09 -0.02,0.13 -0.01,0.03 0,0.06 -0.01,0.08 0,0.04 -0.01,0.04 -0.03,0.05zm-1.15 0.33l0.17 0 0 0.08c0,0.04 0.04,0.09 0.07,0.1 0,0.06 0.01,0.37 -0.01,0.41 -0.01,0.03 -0.04,0.06 -0.08,0.06l-0.51 0 0 -0.19 -0.08 0 0 0.49 0.08 0 0 -0.19 0.58 0c0.05,0 0.09,-0.04 0.11,-0.07 0.03,-0.05 0.03,-0.08 0.03,-0.15 0,-0.12 0,-0.24 0,-0.36 0.03,-0.01 0.07,-0.06 0.07,-0.1l0 -0.08 0.77 0c0,-0.01 -0.01,-0.01 -0.02,-0.03 -0.07,-0.08 -0.1,-0.19 -0.1,-0.3l-1.33 0c0.01,0.01 0.01,0.04 0.01,0.06 0.01,0.02 0.01,0.04 0.02,0.05 0.03,0.1 0.11,0.22 0.22,0.22z"></path> </g> </g> </svg>