<svg xmlns="http://www.w3.org/2000/svg" xmlns:xlink="http://www.w3.org/1999/xlink" xml:space="preserve" width="91px" height="91px" style="shape-rendering:geometricPrecision; text-rendering:geometricPrecision; image-rendering:optimizeQuality; fill-rule:evenodd; clip-rule:evenodd" viewBox="0 0 64.45 64.45"> <defs> <style type="text/css"> .fil1 {fill:#083264} .fil0 {fill:white} </style> </defs> <g id="Layer_x0020_1"> <metadata id="CorelCorpID_0Corel-Layer"></metadata> <g id="_1718008210896"> <circle class="fil0" cx="32.23" cy="32.23" r="32.23"></circle> <g> <g> <path class="fil1" d="M26.03 17.32c-0.37,2.68 -0.31,5.54 1.25,7.78 0.12,0.18 0.26,0.44 0.45,0.5 0.27,0.09 0.51,-0.1 0.52,-0.35 0.02,-0.22 -0.21,-0.46 -0.32,-0.61 -0.13,-0.2 -0.23,-0.36 -0.35,-0.58 -0.12,-0.21 -0.55,-1.09 -0.54,-1.33 -0.14,-0.16 -0.28,-1.09 -0.31,-1.34 -0.17,-1.35 -0.04,-2.53 0.08,-3.86 0.02,-0.22 0.02,-0.58 0.06,-0.77 1.75,0 3.3,-0.2 4.83,-1 0.19,-0.1 0.38,-0.25 0.53,-0.32 0.23,0.11 0.51,0.35 1.08,0.58 1.44,0.6 2.67,0.74 4.28,0.74l0.2 2.46c0.02,0.43 0.04,0.87 0.02,1.31l-0.12 1.2c-0.1,0.39 -0.16,0.74 -0.28,1.13 -0.12,0.36 -0.26,0.68 -0.42,1.01 -0.22,0.43 -0.76,1.16 -0.78,1.31 -0.04,0.38 0.45,0.65 0.75,0.24 0.54,-0.74 0.91,-1.42 1.2,-2.31 0.05,-0.14 0.29,-1.09 0.31,-1.12 -0.01,-0.2 0.07,-0.56 0.09,-0.79 0.03,-0.28 0.04,-0.54 0.05,-0.83 0.01,-0.57 -0.01,-1.12 -0.05,-1.69 -0.04,-0.53 -0.1,-1.07 -0.14,-1.6 -0.05,-0.64 0.13,-1.18 -0.6,-1.13 -1.57,0.1 -3.98,-0.24 -5.24,-1.26 -0.21,-0.17 -0.1,-0.08 -0.26,-0.17l-0.2 0c-0.06,0.05 -0.1,0.06 -0.17,0.12 -0.8,0.65 -1.98,1.02 -3,1.19 -3.01,0.5 -2.84,-0.66 -2.92,1.49z"></path> <path class="fil1" d="M31.07 22.21c0.27,0.11 0.74,1.01 1.26,0.92 0.22,-0.04 0.5,-0.36 0.62,-0.48l1.13 -1.1c0.2,-0.19 0.38,-0.36 0.58,-0.55l0.98 -0.95c0.04,-0.05 0.09,-0.11 0.15,-0.13l0.08 -0.15c0.09,-0.18 0.05,-0.4 -0.08,-0.54 -0.16,-0.18 -0.43,-0.25 -0.68,-0.09 -0.13,0.09 -0.35,0.34 -0.48,0.46 -0.28,0.26 -2.3,2.25 -2.4,2.29l-1.41 -1.42c-0.14,-0.14 -0.28,-0.38 -0.62,-0.33 -0.23,0.03 -0.43,0.24 -0.43,0.5 0,0.3 0.22,0.43 0.37,0.59 0.15,0.15 0.87,0.86 0.93,0.98z"></path> </g> <g> <path class="fil1" d="M14.42 31.67l0 10.01c0,0.49 0.4,0.74 0.89,0.74l4.08 0c0.2,0 0.42,-0.35 0.64,-0.62 0.37,-0.47 0.81,-1.04 1.32,-1.35 0.89,-0.54 2.17,-0.42 3.01,0.19 0.36,0.25 0.67,0.7 0.86,1.15 0.3,0.68 0.84,0.22 1.61,1.36 0.6,0.89 0.01,0.57 0.95,1.05 0.76,0.39 0.81,0.77 0.99,0.94 0.2,0.19 0.31,0.1 0.76,0.28 0.96,0.39 1.58,1.38 1.58,2.64 0,0.82 -0.38,1.07 -0.52,1.63 0.89,0.47 1.95,0.25 2.33,-0.64 0.21,-0.5 0.13,-0.61 0.12,-0.99 0.35,0.24 0.62,0.59 1.34,0.59 0.97,0 1.56,-0.77 1.56,-1.85 0.59,0.4 0.44,0.52 1.41,0.52 1.07,0 1.41,-0.92 1.41,-1.86 0.49,0.34 0.46,0.6 1.33,0.6 0.81,0 1.43,-0.68 1.53,-1.44 0.1,-0.74 -0.56,-1.43 -1.03,-1.96l-8.21 -9.96c-0.28,0.07 -1.15,0.6 -1.46,0.77 -1.47,0.8 -3.16,1.98 -4.7,1.98 -0.67,0 -1.69,-0.29 -2.11,-0.56 -0.34,-0.23 -0.46,-0.32 -0.69,-0.65 -0.91,-1.26 -0.02,-2.78 -0.02,-2.87 0,-0.17 -0.2,-0.37 -0.37,-0.37l-7.94 0c-0.37,0 -0.67,0.3 -0.67,0.67z"></path> <path class="fil1" d="M32.52 31.15c0.53,0 0.99,0.71 1.45,1.3l1.84 2.24c0.8,0.9 1.67,2.08 2.52,3.04l1.87 2.29c0.37,0.47 2.24,2.78 2.56,3 0.67,-0.16 0.35,-0.61 1.48,-0.6l4.31 0c0.71,0 1.48,0.04 1.48,-0.66l0 -10.24c0,-0.7 -1.56,-0.52 -2.15,-0.52 -0.89,0 -1.78,0 -2.67,0 -1.07,0 -1.52,-0.04 -2.35,-0.33 -2.34,-0.8 -5.33,-2.09 -7.73,-2.95 -1.69,-0.6 -3.24,-0.79 -4.85,0.22 -0.68,0.43 -3.1,2.32 -3.82,2.86 -1.25,0.94 -2.56,1.53 -1.98,2.6 0.48,0.88 2.37,0.86 3.68,0.06 0.2,-0.12 0.32,-0.17 0.53,-0.29 0.21,-0.12 0.29,-0.17 0.52,-0.29l2.14 -1.2c0.24,-0.15 0.86,-0.53 1.17,-0.53z"></path> <path class="fil1" d="M20.28 44.06c0,0.81 0.84,1.48 1.34,1.48 0.87,0 0.43,-0.04 0.89,-0.15 0,0.73 0.05,1.13 0.8,1.58 0.64,0.38 0.93,0.09 1.35,0.05 0,0.61 0.03,0.74 0.35,1.06 0.49,0.51 1.09,0.66 1.73,0.35 0.15,0.31 0.01,0.35 0.46,0.8 1.27,1.29 2.58,-0.39 2.58,-1.32 0,-0.95 -1.02,-1.69 -1.93,-1.26 -0.14,-1.72 -1.46,-1.38 -2,-1.33 0.12,-0.54 0.23,-1.12 -0.32,-1.62 -0.44,-0.4 -1.07,-0.45 -1.61,-0.16 0.03,-0.33 0.15,-0.48 0.15,-0.82 0,-0.67 -0.57,-1.26 -1.41,-1.26 -0.72,0 -1.09,0.6 -1.43,1.02 -0.29,0.36 -0.95,1.01 -0.95,1.58z"></path> </g> </g> </g> </g> </svg>