<svg xmlns="http://www.w3.org/2000/svg" xmlns:xlink="http://www.w3.org/1999/xlink" xml:space="preserve" width="91px" height="91px" style="shape-rendering:geometricPrecision; text-rendering:geometricPrecision; image-rendering:optimizeQuality; fill-rule:evenodd; clip-rule:evenodd" viewBox="0 0 4.71 4.71"> <defs> <style type="text/css"> .fil1 {fill:#083264} .fil0 {fill:white} </style> </defs> <g id="Layer_x0020_1"> <metadata id="CorelCorpID_0Corel-Layer"></metadata> <g id="_1718282625392"> <circle class="fil0" cx="2.35" cy="2.35" r="2.35"></circle> <path class="fil1" d="M2.95 2.35c0,-0.08 0.09,-0.11 0.15,-0.07 0.08,0.08 -0.05,0.2 -0.12,0.13 -0.01,-0.01 -0.03,-0.05 -0.03,-0.06zm0.14 0.73c0.02,0.02 0.03,0.03 0.05,0.04 0.05,0.03 0.13,0.11 0.19,0.11 0.05,0 0.09,-0.07 0.14,-0.12l0.29 -0.37c0.02,-0.02 0.05,-0.05 0.05,-0.08l0 -0.03c0,-0.01 -0.01,-0.03 -0.02,-0.04 -0.05,-0.05 -0.05,-0.03 -0.13,0.03 -0.03,0.02 -0.05,0.04 -0.08,0.07l-0.17 0.13c-0.03,0.02 -0.3,0.24 -0.32,0.26zm-1.6 -0.46c0,0.03 0.01,0.05 0.03,0.06 0.01,0.02 0.04,0.04 0.06,0.04 -0.01,0.03 -0.04,0.05 -0.06,0.06 -0.15,0.11 -0.27,0.09 -0.45,0.09l0 -0.19c0,-0.1 -0.17,-0.1 -0.17,0l0 0.89c0,0.1 0.17,0.1 0.17,0l0 -0.18c0.29,0 0.45,-0.02 0.69,-0.16 0.07,-0.04 0.2,-0.15 0.24,-0.21 0.07,0.05 0.15,0.13 0.21,0.03l0.06 -0.08 -0.18 -0.12c-0.06,-0.05 -0.11,-0.08 -0.17,-0.13l-0.35 -0.25c-0.01,0.02 -0.03,0.05 -0.04,0.07 -0.02,0.02 -0.04,0.04 -0.04,0.08zm-0.3 -0.72c0,0.11 0.07,0.15 0.14,0.2l0.61 0.43c0.19,0.14 0.41,0.29 0.61,0.43 0.03,0.03 0.18,0.14 0.21,0.14 0.05,0 0.12,-0.07 0.17,-0.11 0.12,-0.1 0.72,-0.56 0.74,-0.6 0.04,-0.08 -0.04,-0.12 -0.11,-0.17l-1.54 -1.11c-0.09,-0.07 -0.19,-0.07 -0.26,0.02l-0.43 0.53c-0.06,0.08 -0.14,0.16 -0.14,0.24z"></path> </g> </g> </svg>