<svg xmlns="http://www.w3.org/2000/svg" xmlns:xlink="http://www.w3.org/1999/xlink" xml:space="preserve" width="91px" height="91px" style="shape-rendering:geometricPrecision; text-rendering:geometricPrecision; image-rendering:optimizeQuality; fill-rule:evenodd; clip-rule:evenodd" viewBox="0 0 4.73 4.73"> <defs> <style type="text/css"> .fil1 {fill:#083264} .fil0 {fill:white} </style> </defs> <g id="Layer_x0020_1"> <metadata id="CorelCorpID_0Corel-Layer"></metadata> <g id="_1754492196000"> <circle class="fil0" cx="2.37" cy="2.37" r="2.37"></circle> <g> <path class="fil1" d="M2.28 2.22c0,-0.08 0.02,-0.15 0.04,-0.21 0.07,-0.16 0.25,-0.31 0.43,-0.31 0.17,0 0.29,0.03 0.4,0.15 0.07,0.06 0.15,0.19 0.15,0.32 0,0.11 0,0.18 -0.05,0.28 -0.03,0.05 -0.07,0.1 -0.11,0.14 -0.04,0.04 -0.1,0.07 -0.15,0.09 -0.05,0.02 -0.15,0.05 -0.21,0.04 -0.15,-0.02 -0.23,-0.03 -0.35,-0.15 -0.05,-0.05 -0.07,-0.08 -0.1,-0.15 -0.03,-0.05 -0.05,-0.14 -0.05,-0.2zm0.35 -0.92l0 0.17c-0.09,0.02 -0.18,0.05 -0.25,0.1l-0.12 -0.12c-0.05,0.03 -0.21,0.18 -0.22,0.23l0.11 0.12c-0.01,0.02 -0.1,0.17 -0.1,0.25l-0.17 0c0,0.05 -0.02,0.11 -0.02,0.16 0,0.06 0.02,0.11 0.02,0.16l0.17 0c0,0.08 0.07,0.2 0.1,0.26l-0.11 0.11c0.03,0.07 0.16,0.19 0.22,0.23l0.12 -0.12c0.08,0.05 0.14,0.08 0.25,0.11 0,0.17 -0.03,0.17 0.08,0.18 0.03,0 0.05,0 0.08,0 0.01,0 0.15,-0.01 0.16,-0.01 0.02,-0.02 0.01,-0.15 0.01,-0.17 0.07,-0.01 0.2,-0.07 0.25,-0.11l0.11 0.12c0.02,-0.01 0.05,-0.03 0.07,-0.05 0.02,-0.01 0.04,-0.03 0.06,-0.05 0.02,-0.02 0.03,-0.04 0.05,-0.06 0.02,-0.02 0.04,-0.04 0.05,-0.07l-0.11 -0.12c0.02,-0.04 0.04,-0.07 0.06,-0.11 0.02,-0.05 0.03,-0.09 0.04,-0.14l0.17 0c0.02,-0.08 0.02,-0.24 0,-0.32l-0.17 0c-0.03,-0.13 -0.05,-0.15 -0.1,-0.25l0.12 -0.12c-0.06,-0.08 -0.15,-0.17 -0.23,-0.23l-0.12 0.12c-0.11,-0.06 -0.13,-0.08 -0.25,-0.1 0,-0.18 0.04,-0.18 -0.12,-0.18 -0.08,0 -0.14,-0.01 -0.21,0.01z"></path> <path class="fil1" d="M2 3.72l0.13 0c0,0.18 0,0.15 0.33,0.15 0.07,0 0.06,-0.11 0.06,-0.15l0.12 0c0.1,0 0.21,-0.1 0.21,-0.21l0 -0.23c0,-0.03 -0.02,-0.05 -0.05,-0.05l-0.9 0c0,-0.09 -0.05,-0.21 -0.09,-0.27 -0.03,-0.04 -0.05,-0.07 -0.08,-0.11 -0.07,-0.1 -0.16,-0.22 -0.2,-0.35 -0.06,-0.22 -0.07,-0.47 0.03,-0.68 0.15,-0.29 0.42,-0.48 0.75,-0.48 0.09,0 0.08,-0.11 0.02,-0.11 -0.19,0 -0.3,0.04 -0.45,0.11 -0.49,0.25 -0.63,0.88 -0.37,1.37 0.04,0.07 0.15,0.22 0.2,0.3 0.17,0.25 0.03,0.49 0.13,0.62 0.04,0.05 0.1,0.09 0.16,0.09z"></path> <path class="fil1" d="M2.46 2.53c0.02,0.03 0.08,0.07 0.12,0.09 0.13,0.07 0.29,0.07 0.42,0.01 0.03,-0.02 0.13,-0.08 0.13,-0.1 0,-0.08 -0.07,-0.15 -0.11,-0.2 -0.02,-0.01 -0.08,-0.05 -0.1,-0.06 -0.03,0 -0.09,0.06 -0.2,0.02 -0.02,-0.01 -0.03,-0.02 -0.05,-0.02 -0.06,0.02 -0.14,0.09 -0.17,0.14 -0.02,0.04 -0.03,0.07 -0.04,0.12z"></path> <path class="fil1" d="M2.64 2.08c0,0.05 0,0.1 0.05,0.13 0.06,0.06 0.15,0.06 0.22,0 0.06,-0.07 0.07,-0.16 0,-0.23 -0.02,-0.02 -0.02,-0.02 -0.05,-0.04 -0.11,-0.05 -0.22,0.04 -0.22,0.14z"></path> <path class="fil1" d="M1.01 2.21c0,0.08 0.08,0.06 0.21,0.06 0.06,0 0.08,-0.11 -0.02,-0.11 -0.09,0 -0.19,-0.02 -0.19,0.05z"></path> <path class="fil1" d="M1.35 1.31c0,0.03 0.03,0.05 0.04,0.07 0.04,0.03 0.09,0.09 0.12,0.09 0.03,0.01 0.06,-0.02 0.06,-0.05 0,-0.03 -0.13,-0.16 -0.16,-0.16 -0.02,0 -0.06,0 -0.06,0.05z"></path> <path class="fil1" d="M2.23 0.91l0 0.16c0,0.07 0.11,0.08 0.11,-0.02 0,-0.08 0.02,-0.19 -0.06,-0.19 -0.03,0 -0.05,0.02 -0.05,0.05z"></path> <path class="fil1" d="M1.46 3.15c0.03,0 0.16,-0.13 0.16,-0.16 0,-0.04 -0.03,-0.06 -0.05,-0.06 -0.03,0 -0.16,0.12 -0.16,0.16 -0.01,0.03 0.01,0.06 0.05,0.06z"></path> </g> </g> </g> </svg>