<svg xmlns="http://www.w3.org/2000/svg" xmlns:xlink="http://www.w3.org/1999/xlink" xml:space="preserve" width="91px" height="91px" style="shape-rendering:geometricPrecision; text-rendering:geometricPrecision; image-rendering:optimizeQuality; fill-rule:evenodd; clip-rule:evenodd" viewBox="0 0 6.31 6.31"> <defs> <style type="text/css"> .fil1 {fill:#083264} .fil0 {fill:white} </style> </defs> <g id="Layer_x0020_1"> <metadata id="CorelCorpID_0Corel-Layer"></metadata> <g id="_1718533235328"> <circle class="fil0" cx="3.16" cy="3.16" r="3.16"></circle> <path class="fil1" d="M2.11 2.6c0,-0.06 0.01,-0.14 0.03,-0.2l0.02 0.04c0,0.01 0.01,0.02 0.02,0.04 0.01,0.03 0.02,0.06 0.03,0.09 0.05,0.14 0.01,0.13 0.06,0.18 0.06,0.08 0.14,0.15 0.23,0.18 0.04,0.02 0.05,0.03 0.04,0.08 -0.01,0.08 -0.01,0.08 -0.03,0.16 0.02,0.03 0.06,0.07 0.08,0.1 0.02,0.02 0.03,0.03 0.05,0.04 0.05,0.04 0.05,0.03 0.05,0.08 0,0.04 -0.02,0.05 -0.03,0.08 -0.11,-0.01 -0.31,-0.22 -0.38,-0.32 -0.09,-0.14 -0.17,-0.33 -0.17,-0.55zm-0.29 -1.06c0.03,0.09 0.12,0.13 0.15,0.15 -0.06,0.01 -0.13,0.08 -0.15,0.14 -0.03,-0.02 -0.02,-0.04 -0.06,-0.08 -0.01,-0.02 -0.06,-0.06 -0.09,-0.06 0,0 0,-0.01 0,0l0.02 -0.02c0.08,-0.05 0.07,-0.03 0.12,-0.11l0.01 -0.02zm-0.26 0.13c0,0.12 0.07,0.08 0.13,0.14 0.05,0.06 0.03,0.14 0.13,0.14 0.07,0 0.07,-0.09 0.13,-0.14 0.05,-0.06 0.13,-0.04 0.13,-0.13 0,-0.07 -0.1,-0.08 -0.14,-0.12 -0.04,-0.05 -0.04,-0.14 -0.12,-0.14 -0.11,0 -0.04,0.11 -0.2,0.18 -0.03,0.02 -0.06,0.03 -0.06,0.07zm2.79 1.69c0.05,-0.02 0.09,-0.05 0.12,-0.09l0.01 -0.03c0,0 0.01,-0.01 0.01,-0.01 0.01,-0.01 0,0 0.01,-0.01 0.01,0.05 0.08,0.12 0.13,0.14l0 0.01c-0.08,0.03 -0.12,0.12 -0.14,0.14 -0.03,-0.06 -0.07,-0.12 -0.14,-0.14l0 -0.01zm-0.12 0c0,0.1 0.08,0.07 0.14,0.13 0.02,0.02 0.03,0.06 0.05,0.09 0.01,0.02 0.03,0.05 0.07,0.05 0.11,0 0.05,-0.12 0.2,-0.18 0.05,-0.02 0.07,-0.04 0.07,-0.09 0,-0.08 -0.1,-0.08 -0.14,-0.12 -0.05,-0.05 -0.05,-0.14 -0.12,-0.14 -0.04,0 -0.07,0.02 -0.08,0.05 -0.02,0.04 -0.02,0.05 -0.05,0.08 -0.04,0.05 -0.14,0.05 -0.14,0.13zm-1.42 -0.78c0,-0.09 0.04,-0.15 0.14,-0.15 0.09,0 0.09,0.07 0.14,0.07 0.07,0 0.04,-0.07 0.16,-0.07 0.08,0 0.13,0.07 0.13,0.15 0,0.12 -0.09,0.16 -0.2,0.25l-0.09 0.06 -0.16 -0.13c-0.06,-0.05 -0.12,-0.07 -0.12,-0.18zm-0.11 -0.03c0,0.16 0.02,0.19 0.16,0.3 0.03,0.03 0.06,0.05 0.1,0.08 0.15,0.12 0.16,0.09 0.36,-0.08 0.15,-0.12 0.16,-0.14 0.16,-0.32 0,-0.1 -0.11,-0.22 -0.24,-0.22 -0.05,0 -0.12,0.03 -0.15,0.06 -0.21,-0.15 -0.39,0.03 -0.39,0.18zm1.16 1.49l0.22 0 0 0.73 -0.22 0 0 -0.73zm-0.35 0.22c0.03,0 0.22,-0.05 0.24,-0.07l0 0.47 -1.15 0c-0.09,0 -0.36,-0.16 -0.48,-0.22 -0.08,-0.04 -0.11,-0.06 -0.11,-0.15 0,-0.09 0.08,-0.16 0.19,-0.13 0.15,0.04 0.42,0.12 0.57,0.12 0.04,0 0.13,-0.01 0.16,0 0.05,0.01 0.07,0.05 0.14,0.05 0.01,0 0.13,-0.05 -0.04,-0.13 -0.05,-0.02 -0.23,-0.07 -0.15,-0.16 0.03,-0.04 0.08,-0.02 0.12,0 0.05,0.02 0.5,0.22 0.51,0.22zm-0.76 -0.19c0,0.04 0,0.05 0.02,0.09 -0.13,0 -0.2,-0.02 -0.31,-0.05 -0.18,-0.04 -0.37,-0.13 -0.49,0.01 -0.11,0.11 -0.1,0.28 0.01,0.37 0.03,0.02 0.07,0.04 0.1,0.06 0.14,0.07 0.39,0.22 0.54,0.22l1.13 0c0,0.14 -0.01,0.12 0.37,0.12 0.04,0 0.07,-0.02 0.07,-0.06l0 -0.84c0,-0.04 -0.02,-0.06 -0.06,-0.06 -0.42,0 -0.38,-0.04 -0.38,0.15l-0.22 0.06c-0.02,0 -0.07,-0.02 -0.09,-0.03 -0.08,-0.04 -0.45,-0.2 -0.5,-0.2 -0.11,0 -0.19,0.07 -0.19,0.16zm0.62 -2.4c0.18,0.04 0.38,0.18 0.49,0.32 0.13,0.18 0.21,0.35 0.21,0.64 0,0.04 -0.01,0.04 -0.01,0.07 -0.03,-0.02 0,-0.02 -0.05,-0.04 -0.02,-0.01 -0.04,-0.02 -0.07,-0.03 -0.04,-0.02 -0.08,-0.04 -0.12,-0.07 0.04,-0.15 0.06,-0.08 -0.04,-0.25 -0.04,-0.07 -0.01,-0.11 -0.19,-0.17 -0.27,-0.09 -0.21,-0.08 -0.4,-0.18 0.02,-0.02 0.04,-0.04 0.06,-0.06 0.06,-0.05 0.05,-0.02 0.07,-0.1 0.02,-0.05 0.04,-0.09 0.05,-0.13zm0.38 0.78c0,0.04 -0.07,0.15 0.04,0.21l0.15 0.07c0.07,0.03 0.09,0.13 0.09,0.14 0,0.02 -0.04,0.13 -0.05,0.14 -0.08,0.17 -0.22,0.33 -0.38,0.43 -0.25,0.15 -0.54,0.18 -0.82,0.09 -0.02,-0.01 -0.02,-0.01 -0.04,-0.01 0.04,-0.07 0.08,-0.17 0.02,-0.24 -0.02,-0.02 -0.01,-0.01 -0.03,-0.02 -0.17,-0.12 -0.09,-0.12 -0.09,-0.31 0,-0.1 -0.07,-0.08 -0.18,-0.14 -0.04,-0.03 -0.07,-0.05 -0.09,-0.08 -0.05,-0.06 -0.02,-0.03 -0.05,-0.13 -0.03,-0.12 -0.14,-0.32 -0.14,-0.34 0,-0.01 0.04,-0.1 0.05,-0.11 0.13,-0.28 0.48,-0.52 0.8,-0.52 0.07,0 0.15,-0.01 0.22,0.01 0.05,0 0.02,0 -0.02,0.14 -0.02,0.07 -0.15,0.1 -0.13,0.19 0.02,0.09 0.19,0.16 0.26,0.19 0.07,0.03 0.29,0.09 0.31,0.14l0.08 0.15zm-1.74 0.09c0,0.22 0,0.34 0.1,0.54 0.07,0.13 0.13,0.21 0.23,0.31 0.18,0.18 0.48,0.3 0.75,0.3 0.23,0 0.44,-0.07 0.61,-0.18 0.05,-0.04 0.1,-0.08 0.14,-0.12 0.18,-0.18 0.34,-0.45 0.34,-0.73 0,-0.27 -0.03,-0.38 -0.15,-0.61 -0.16,-0.3 -0.55,-0.54 -0.91,-0.54 -0.43,0 -0.77,0.2 -0.96,0.53 -0.08,0.14 -0.15,0.31 -0.15,0.5z"></path> </g> </g> </svg>