<svg xmlns="http://www.w3.org/2000/svg" xmlns:xlink="http://www.w3.org/1999/xlink" xml:space="preserve" width="91px" height="91px" style="shape-rendering:geometricPrecision; text-rendering:geometricPrecision; image-rendering:optimizeQuality; fill-rule:evenodd; clip-rule:evenodd" viewBox="0 0 114.38 114.38"> <defs> <style type="text/css"> .fil1 {fill:#083264} .fil0 {fill:white} </style> </defs> <g id="Layer_x0020_1"> <metadata id="CorelCorpID_0Corel-Layer"></metadata> <g id="_1717989050128"> <circle class="fil0" cx="57.19" cy="57.19" r="57.19"></circle> <path class="fil1" d="M76.22 40.04c0.38,0.42 0.56,0.98 0.49,1.53l-0.29 2.69 2.48 -1.11c0.25,-0.12 0.52,-0.17 0.8,-0.17 0.28,0 0.55,0.05 0.81,0.17l2.47 1.11 -0.3 -2.7c-0.06,-0.54 0.12,-1.1 0.49,-1.52l1.83 -2.02 -2.65 -0.55c-0.55,-0.12 -1.03,-0.46 -1.3,-0.95l-1.35 -2.35 -1.35 2.36c-0.28,0.48 -0.76,0.82 -1.3,0.94l-2.65 0.55 1.82 2.02 0 0zm-56.18 21.13l0 21.74 3.21 0c0.39,0 0.7,-0.31 0.7,-0.69l0 -20.35c0,-0.39 -0.31,-0.7 -0.7,-0.7l-3.21 0 0 0zm27.23 3.67c-4.33,-1.76 -9.07,-2.45 -13.72,-2l-7.82 0.76 0 16.02 3.07 -0.7c2.87,-0.65 5.83,-0.41 8.56,0.7l19.93 8.1c3.17,1.29 6.75,1.17 9.83,-0.32l25.52 -12.34c1.5,-0.72 2.13,-2.55 1.38,-4.04 -0.65,-1.3 -2.12,-1.94 -3.49,-1.56l-20.77 5.79c-0.18,2.79 -2.92,4.69 -5.61,3.86l-15.86 -4.86c-0.47,-0.15 -0.74,-0.65 -0.59,-1.12 0.15,-0.47 0.64,-0.73 1.11,-0.59l15.86 4.87c1.77,0.54 3.5,-0.9 3.3,-2.74 -0.09,-0.79 -0.54,-1.5 -1.23,-1.9l-19.47 -7.93 0 0zm23.04 -12.95c0,1.69 -0.79,3.21 -2.01,4.21 1.79,0.61 3.39,1.7 4.62,3.18 1.14,-1.61 1.81,-3.57 1.81,-5.68 0,-5.41 -4.4,-9.81 -9.81,-9.81 -5.41,0 -9.81,4.4 -9.81,9.81 0,2.09 0.66,4.03 1.79,5.63 1.22,-1.45 2.81,-2.53 4.58,-3.13 -1.23,-1 -2.01,-2.51 -2.01,-4.21 0,-2.99 2.43,-5.42 5.42,-5.42 2.99,0 5.42,2.43 5.42,5.42l0 0zm1.42 8.76c-3.46,-4.44 -10.17,-4.45 -13.66,-0.05 3.8,3.72 9.84,3.74 13.66,0.05zm-6.84 -12.4c-2.01,0 -3.64,1.63 -3.64,3.64 0,2 1.63,3.63 3.64,3.63 2,0 3.63,-1.63 3.63,-3.63 0,-2.01 -1.63,-3.64 -3.63,-3.64zm-17.39 -10.78l-2.65 0.55 1.82 2.02c0.38,0.42 0.55,0.98 0.49,1.53l-0.29 2.69 2.47 -1.11c0.26,-0.12 0.53,-0.18 0.8,-0.18 0.28,0 0.55,0.06 0.81,0.18l2.47 1.11 -0.29 -2.7c-0.07,-0.55 0.12,-1.1 0.49,-1.52l1.83 -2.02 -2.66 -0.55c-0.55,-0.12 -1.03,-0.46 -1.3,-0.95l-1.35 -2.35 -1.35 2.35c-0.28,0.49 -0.75,0.83 -1.29,0.95l0 0zm12.57 -3.02c0.42,0.47 0.61,1.08 0.54,1.67l-0.45 4.2 3.85 -1.73c0.56,-0.25 1.19,-0.25 1.75,0l3.85 1.73 -0.45 -4.2c-0.07,-0.61 0.13,-1.22 0.54,-1.67l2.83 -3.12 -4.13 -0.87c-0.6,-0.13 -1.11,-0.5 -1.41,-1.02l-2.11 -3.67 -2.1 3.66c-0.29,0.53 -0.81,0.9 -1.41,1.03l-4.13 0.87 2.83 3.12 0 0z"></path> </g> </g> </svg>