<svg xmlns="http://www.w3.org/2000/svg" xmlns:xlink="http://www.w3.org/1999/xlink" xml:space="preserve" width="91px" height="91px" style="shape-rendering:geometricPrecision; text-rendering:geometricPrecision; image-rendering:optimizeQuality; fill-rule:evenodd; clip-rule:evenodd" viewBox="0 0 114.38 114.38"> <defs> <style type="text/css"> .fil1 {fill:#083264} .fil0 {fill:white} </style> </defs> <g id="Layer_x0020_1"> <metadata id="CorelCorpID_0Corel-Layer"></metadata> <g id="_1718159075776"> <circle class="fil0" cx="57.19" cy="57.19" r="57.19"></circle> <path class="fil1" d="M64.65 51.04c0.49,0.92 0.99,1.75 1.33,2.86 0.16,0.52 0.29,1.05 0.4,1.7 0.1,0.59 0.09,1.34 0.19,2.04 0.18,1.35 -0.52,3.84 -1.06,5.13 -0.24,0.59 -0.61,0.97 -0.73,1.49 0.15,0.22 0.16,0.22 0.35,0.44l0.25 0.27c0.02,0.02 0.05,0.04 0.07,0.06 0.02,0.02 0.05,0.05 0.07,0.06 0.4,0.37 2.14,2.11 2.14,2.57 0,0.45 -0.48,0.95 -0.95,1 -0.65,0.07 -1.54,-1.07 -2.22,-1.75 -0.36,-0.36 -0.62,-0.81 -1.15,-0.95 -0.43,0.29 -0.71,0.68 -1.19,1.03 -0.94,0.7 -1.88,1.16 -3.03,1.43 -1.96,0.46 -3.67,0.3 -5.51,-0.58 -1.62,-0.78 -1.68,-1.2 -2.7,-1.88 -0.57,0.38 -1.46,1.39 -2,1.93 -0.35,0.35 -0.62,0.76 -1.15,0.77 -0.5,0 -1.04,-0.4 -1.04,-1 0,-0.92 2.34,-2.6 2.88,-3.4 -0.1,-0.36 -0.5,-0.97 -0.7,-1.4 -1.34,-2.77 -1.4,-5.84 -0.59,-8.79 0.37,-1.36 1.16,-2.43 1.29,-2.9 -0.54,-0.8 -2.88,-2.48 -2.88,-3.41 0,-0.29 0.53,-1.92 2.12,-0.29 0.54,0.54 1.51,1.63 2.07,1.99l1.04 -0.78c0,-1.4 0.24,-2.58 0.94,-3.64 0.16,-0.25 0.48,-0.69 0.67,-0.91 2.69,-2.95 8.5,-1.61 8.76,3.86 0.03,0.75 -0.05,0.42 0.19,0.72 0.24,0.3 0.55,0.56 0.83,0.75 1.16,-0.3 2.8,-3.82 4.04,-2.32 0.71,0.86 -0.33,1.57 -0.86,2.1 -0.54,0.53 -1.3,1.41 -1.87,1.8zm-10.47 -3.67c1.66,-0.8 4.36,-0.8 6.02,0 -0.12,-1.42 -1.61,-2.75 -2.62,-2.75 -0.99,0 -1.78,0.1 -2.51,0.9 -0.4,0.44 -0.83,1.11 -0.89,1.85zm-3.67 6.68l13.36 0c-0.52,-2.22 -3.43,-5.24 -6.16,-5.24 -2.22,0 -3.12,0.23 -4.93,1.74 -0.76,0.63 -2.02,2.44 -2.27,3.5zm-0.65 2.48c0,2.64 0.15,5 1.81,7.09 0.99,1.25 2.76,2.83 4.47,2.87l0 -10.35 -5.89 0c-0.3,0 -0.39,0.09 -0.39,0.39zm8.38 9.96c0.9,-0.03 1.94,-0.58 2.54,-1 2.17,-1.49 3.74,-4.38 3.74,-7.25 0,-1.43 0.2,-2.1 -0.39,-2.1l-5.89 0 0 10.35zm11.52 -39.68c0,1.44 1.93,1.05 3.4,1.05l8.91 0c5.31,-0.01 4.45,2.79 4.45,8.9 0,1.49 0,2.97 0,4.46 0,1.47 -0.39,3.4 1.04,3.4 0.64,0 1.05,-0.41 1.05,-1.05l0 -12.96c0,-2.42 -2.43,-4.84 -4.84,-4.84l-12.96 0c-0.64,0 -1.05,0.41 -1.05,1.04zm0 60.75c0,0.64 0.41,1.05 1.05,1.05l12.96 0c2.41,0 4.84,-2.43 4.84,-4.84l0 -12.96c0,-0.64 -0.41,-1.05 -1.05,-1.05 -1.43,0 -1.04,1.93 -1.04,3.4l0 8.91c0,5.31 -2.79,4.45 -8.91,4.45 -1.48,0 -2.96,0 -4.45,0 -1.47,0 -3.4,-0.39 -3.4,1.04zm-43.99 -56.95l0 12.96c0,0.64 0.41,1.05 1.04,1.05 1.44,0 1.05,-1.93 1.05,-3.4l0 -8.91c0,-1.66 0.1,-2.66 0.95,-3.5 0.84,-0.85 1.84,-0.95 3.5,-0.95l8.91 0c1.47,0 3.4,0.39 3.4,-1.05 0,-0.63 -0.41,-1.04 -1.05,-1.04l-12.96 0c-2.42,0 -4.84,2.42 -4.84,4.84zm0 40.2l0 12.96c0,2.41 2.42,4.84 4.84,4.84l12.96 0c0.64,0 1.05,-0.41 1.05,-1.05 0,-1.43 -1.93,-1.04 -3.4,-1.04l-8.91 0c-3.46,0 -4.45,-0.99 -4.45,-4.45l0 -8.91c0,-1.47 0.39,-3.4 -1.05,-3.4 -0.63,0 -1.04,0.41 -1.04,1.05zm31.55 11.39c-0.27,0 -1.26,-0.31 -1.56,-0.41 -1.96,-0.62 -5.32,-2.03 -7.13,-2.95 -4.11,-2.09 -8.39,-5.49 -10.6,-9.56 -2.41,-4.43 -2.84,-7.86 -2.84,-13.27 0,-5.41 0,-10.82 0,-16.23 0.79,-0.07 16.95,-5.9 19.17,-6.63 3.85,-1.28 1.89,-1.25 5.56,-0.03 0.92,0.3 1.76,0.63 2.72,0.94l16.55 5.72c0,5.32 0,10.64 0,15.97 0,5.78 -0.63,9.68 -2.75,13.36 -1.02,1.78 -2.02,3.12 -3.44,4.54 -2.73,2.73 -6.21,4.83 -9.75,6.36 -0.76,0.32 -5.37,2.19 -5.93,2.19zm-24.22 -43.21l0 20.03c0,5.78 2.29,11.49 6.05,15.55 0.53,0.57 0.99,1.04 1.62,1.53 3.04,2.36 3.1,2.77 7.38,4.92 1.35,0.67 2.81,1.29 4.29,1.87 5.1,1.99 4.44,1.93 9.41,0.04 3.74,-1.43 6.87,-3.05 10.04,-5.41 2.02,-1.51 2.4,-2.07 3.99,-3.73 0.32,-0.34 0.43,-0.51 0.71,-0.87 2.89,-3.87 4.69,-8.57 4.69,-13.9l0 -20.03c0,-0.7 -0.45,-0.86 -0.93,-1.03l-4.65 -1.64c-2.12,-0.7 -3.99,-1.42 -6.12,-2.12 -1.05,-0.35 -1.95,-0.68 -3.01,-1.05 -1.45,-0.5 -8.63,-3.19 -9.51,-3.19l-12.26 4.24c-2.11,0.7 -4,1.42 -6.12,2.12 -1.05,0.35 -1.94,0.68 -3.01,1.05 -1.39,0.48 -2.57,0.67 -2.57,1.62zm5.24 3.67l0 16.1c0,3.98 1.42,8.21 3.59,11.07 0.51,0.69 1.7,2.1 2.34,2.64l2.71 2.13c0.94,0.67 2.07,1.3 3.14,1.84 0.95,0.47 5.94,2.75 7.07,2.75 0.73,0 2.96,-0.93 3.65,-1.2 3.43,-1.38 8.2,-3.89 10.41,-6.74 0.38,-0.48 0.77,-0.86 1.15,-1.34 2.18,-2.79 3.64,-7.24 3.64,-11.15l0 -16.1c0,-1.21 -2.28,-1.52 -4.26,-2.28 -1.62,-0.63 -3.23,-1.18 -4.79,-1.76 -1.65,-0.62 -9.2,-3.43 -9.93,-3.43 -0.32,0 -4.3,1.49 -4.85,1.71 -3.44,1.37 -8.4,2.98 -12.02,4.33 -0.98,0.37 -1.85,0.45 -1.85,1.43z"></path> </g> </g> </svg>