<svg xmlns="http://www.w3.org/2000/svg" xmlns:xlink="http://www.w3.org/1999/xlink" id="Layer_1" x="0px" y="0px" viewBox="0 0 91 91" style="enable-background:new 0 0 91 91;" xml:space="preserve"> <style type="text/css"> .st0{fill-rule:evenodd;clip-rule:evenodd;fill:#FFFFFF;} .st1{fill-rule:evenodd;clip-rule:evenodd;fill:#0B2852;} </style> <g> <circle class="st0" cx="45.5" cy="45.5" r="45.5"></circle> <path class="st1" d="M52.39,68.85c0.53-0.7,1.42-2.81,1.95-3.83c0.82-1.6,5.66-11,5.83-11.92c-3.45-1.03-5.96-3.12-10.18-4.11 c-2-0.47-4.58-0.43-6.77-0.53c-2.02-0.09-4.46-0.4-6.6-0.47c-7.18-0.24-7.29,4.28-4.09,6.3c1.55,0.98,5.74,1.39,8.74,2.11 c0.8,0.19,2.36,0.45,2.9,0.79c-3.78,0.23-9.44,1.08-13.08,0.74c-2.03-0.19-3.28-1.56-4.27-2.52c-3.17-3.06-7.91-8.73-11.69-9.11 c-3.32-0.33-6.51,3.46-2.57,7.58l10.27,10.29c0.83,0.83,2.46,2.75,3.78,3.2c3.42,1.17,19.89-0.49,23.34,0.52 C50.88,68.16,51.69,68.67,52.39,68.85L52.39,68.85z M29.82,46.96c-0.99-0.78-2.08-2.81-2.61-4.26c-2.03-5.45-0.83-11.19,2.82-15.21 c2.11-2.32,1.94-0.5,1.95-4.8c0-2.25-0.09-4.05,0.75-5.91c3.24-7.16,13.1-6.84,16.17-0.13c0.91,1.98,0.81,3.42,0.81,5.86 c0,4.38-0.31,2.48,1.77,4.78c4.73,5.23,5.64,13.03,0.92,19.23c-0.35,0.05-5.11-0.76-5.33-0.86c-0.03-0.12-0.27,0.05,0.27-0.48 c0.21-0.2,0.31-0.24,0.51-0.43c2.83-2.53,3.84-6.85,2.69-10.48c-1.15-3.61-4.51-6.69-8.96-7.01c-7.31-0.51-12.3,6.34-10.52,12.9 c0.8,2.94,1.7,3.29,2.93,4.91c-0.45,0.26-1.59,0.4-2.3,0.74C30.87,46.21,30.44,46.66,29.82,46.96L29.82,46.96z M64.16,53.11 c1.24-0.45,3.49,1.04,4.53,1.58l8.4,4.25c1.68,0.98,1.4,2.53,0.49,4.34c-1.47,2.91-2.77,5.59-4.26,8.44 c-0.69,1.33-1.37,2.72-2.07,4.11c-2.33,4.61-2.13,4.42-7.15,1.96c-1.4-0.69-2.79-1.39-4.17-2.07c-4.74-2.37-6.67-2.44-4.69-6.33 l6.31-12.58C62.33,55.27,62.73,53.63,64.16,53.11L64.16,53.11z M39.81,30.81c-2.12,0.38-3.28,1.09-4.37,2.46 c-3.79,4.76,0.08,12.02,6.45,11.07c3.64-0.54,6.28-3.88,5.72-7.89C47.14,32.96,43.69,30.11,39.81,30.81L39.81,30.81z M34.91,23.88 c1.85-0.29,2.14-1.06,5.92-1.09c2.93-0.02,3.68,0.73,5.91,1.09c0.08-2.35,0.31-4.9-0.91-6.73c-2.43-3.65-7.54-3.61-9.91-0.09 C34.68,18.89,34.82,21.4,34.91,23.88L34.91,23.88z M17.63,43.98c0.15-2.71,4.73-4.41,6.69-0.37l3.05,5.93 c0.49,0.96,0.29,1.64,0.34,2.82C25.43,51.24,23.31,46.81,17.63,43.98L17.63,43.98z M39.99,33.75c-0.75,0.27-1.25,0.75-1.37,1.61 c-0.19,1.42,0.61,1.57,0.94,2.17c0.4,0.73-0.44,5.12,1.8,3.84c0.72-0.41,0.64-1.45,0.63-2.36c-0.01-2.17,0.17-1.1,0.71-2.35 C43.41,35,41.75,33.12,39.99,33.75L39.99,33.75z M63.29,68.55c2.98-1.04,4.27,3.72,1.51,4.55C61.72,74.04,60.06,69.67,63.29,68.55z "></path> </g> </svg>