<svg xmlns="http://www.w3.org/2000/svg" xmlns:xlink="http://www.w3.org/1999/xlink" id="Layer_1" x="0px" y="0px" viewBox="0 0 91 91" style="enable-background:new 0 0 91 91;" xml:space="preserve"> <style type="text/css"> .st0{fill-rule:evenodd;clip-rule:evenodd;fill:#FFFFFF;} .st1{fill-rule:evenodd;clip-rule:evenodd;fill:#0B2852;} </style> <g> <ellipse transform="matrix(0.9239 -0.3827 0.3827 0.9239 -13.9486 20.8756)" class="st0" cx="45.5" cy="45.5" rx="45.5" ry="45.5"></ellipse> <path class="st1" d="M44.81,59.5l-5.9-5.82c-2.43-2.45-3.56-5.28-1.19-8.28c1.91-2.41,5.45-3.08,8.19-0.8 c1.38,1.16,5.15,5.41,6.16,5.86c2.9-4.89,4.84-9.73,6.18-16.17c0.37-1.8,1.37-8.37,0.78-10.01c-0.52-1.45-5.67-3.27-7.19-3.94 c-2.24-0.98-14.41-6.71-15.68-6.56c-0.82,0.1-16.68,7.32-19.42,8.55c-1.5,0.67-2.78,0.8-2.9,2.73c-0.2,3.1,0.49,7.07,1.07,10.04 c1.66,8.53,5.79,16.18,11.14,22.36c1.82,2.1,3.82,3.66,5.83,5.33c0.95,0.79,2.15,1.73,3.04,2.44c1.55,1.22,2.52,0.62,3.82-0.48 C40.02,63.68,44.31,60.42,44.81,59.5L44.81,59.5z M59.78,51.79c-0.12-1.73,0.05-2.78,1.03-3.73c0.74-0.72,2.11-1.24,3.55-0.71 c1.23,0.45,5.62,5.18,7.22,6.76c1.09,1.08,3.81,7.63,4.47,9.14c1.89,4.38,2.15,2.24-4.74,11.01c-2.76,3.51-1.99,3.36-5.53,2.27 c-2.37-0.73-4.65-1.36-7.02-2.04c-4.87-1.4-4.23-1.37-8.3-5.5c-3.3-3.35-2.62-1.78-2.62-6.65c0-2.41,0.34-2.97-0.64-3.9l-7.04-6.77 c-3.73-3.71,0.88-7.69,3.99-5.51l4.69,4.58c0.73,0.71,3.81,4.03,4.7,4.47c-0.34-2.04-0.05-3.69,1.6-4.5 C57.59,49.51,58.58,51.23,59.78,51.79L59.78,51.79z M35.93,37.05c0.53-0.41,3.82-6.34,4.32-7.28c0.76-1.41,3.26-6.49,4.66-6.89 c1.68-0.48,3.26,0.91,2.87,2.71c-0.14,0.67-5.52,9.89-6.1,10.9c-1.24,2.14-3.15,6.49-4.83,6.72c-1.67,0.23-2.77-1.49-3.57-2.26 c-0.88-0.85-5.43-5.3-5.68-5.85c-0.72-1.58,0.48-3.21,2.08-3.22c1.35-0.01,2.4,1.44,3.3,2.37C33.61,34.9,35,36.43,35.93,37.05z"></path> </g> </svg>