<svg xmlns="http://www.w3.org/2000/svg" xmlns:xlink="http://www.w3.org/1999/xlink" xml:space="preserve" width="91px" height="91px" style="shape-rendering:geometricPrecision; text-rendering:geometricPrecision; image-rendering:optimizeQuality; fill-rule:evenodd; clip-rule:evenodd" viewBox="0 0 5.8 5.8"> <defs> <style type="text/css"> .fil1 {fill:#083264} .fil0 {fill:white} </style> </defs> <g id="Layer_x0020_1"> <metadata id="CorelCorpID_0Corel-Layer"></metadata> <g id="_1718343237712"> <circle class="fil0" cx="2.9" cy="2.9" r="2.9"></circle> <g> <path class="fil1" d="M1.76 4.15c0,-0.03 0.12,-0.51 0.13,-0.54 0,0 0,0 0,0 0,0 0.01,0 0.01,0l0.01 0.27c0.01,0.09 0.02,0.18 0.02,0.27l1.02 0c0.01,-0.04 0.01,-0.14 0.02,-0.2l0.05 -0.6c0.03,0 0.04,-0.01 0.06,-0.01 0.05,0 0.13,0 0.2,-0.01l0.5 -0.03c0.17,-0.02 0.3,-0.04 0.45,-0.1 0.15,-0.05 0.29,-0.11 0.23,-0.28 -0.01,-0.03 -0.03,-0.06 -0.06,-0.08 -0.05,-0.05 -0.1,-0.04 -0.17,-0.03 -0.11,0.01 -0.39,0.04 -0.51,0.04 -0.44,0.01 -0.8,-0.11 -1.26,-0.11 -0.2,0 -0.42,0.01 -0.57,0.06 -0.26,0.09 -0.34,0.32 -0.4,0.56 -0.02,0.09 -0.04,0.17 -0.06,0.25 -0.02,0.09 -0.04,0.18 -0.06,0.27l-0.05 0.27 0.44 0z"></path> <path class="fil1" d="M1.94 2.11c0,0.1 0,0.15 0.05,0.24 0.02,0.06 0.06,0.1 0.1,0.14l0.06 0.05c0.16,0.11 0.39,0.12 0.54,0.01 0.12,-0.08 0.22,-0.23 0.22,-0.37 0,-0.15 0,-0.2 -0.09,-0.33 -0.01,-0.03 -0.03,-0.04 -0.05,-0.06 -0.02,-0.02 -0.03,-0.04 -0.06,-0.05 -0.15,-0.1 -0.33,-0.13 -0.5,-0.05 -0.05,0.03 -0.09,0.06 -0.13,0.1 -0.08,0.08 -0.14,0.19 -0.14,0.32z"></path> <path class="fil1" d="M3.19 2.26c0,0.17 0.01,0.22 0.11,0.35 0.04,0.05 0.1,0.09 0.16,0.12 0.13,0.05 0.24,0.05 0.37,0 0.03,-0.01 0.05,-0.02 0.07,-0.04 0.11,-0.07 0.21,-0.22 0.21,-0.35 0,-0.1 0,-0.16 -0.05,-0.25 -0.06,-0.13 -0.21,-0.25 -0.38,-0.25 -0.16,0 -0.25,0.03 -0.36,0.13 -0.07,0.07 -0.13,0.18 -0.13,0.29z"></path> </g> </g> </g> </svg>