<svg xmlns="http://www.w3.org/2000/svg" xmlns:xlink="http://www.w3.org/1999/xlink" id="Layer_1" x="0px" y="0px" viewBox="0 0 91 91" style="enable-background:new 0 0 91 91;" xml:space="preserve"> <style type="text/css"> .st0{fill-rule:evenodd;clip-rule:evenodd;fill:#FFFFFF;} .st1{fill-rule:evenodd;clip-rule:evenodd;fill:#0B2852;} </style> <g> <circle class="st0" cx="45.5" cy="45.5" r="45.5"></circle> <path class="st1" d="M19.44,51.87c2.75-0.01,2.1,0.5,2.14-2.25c0.01-0.94,0.02-1.88,0.02-2.81c0.01-1.77,0.09-3.58,0.3-5.31 c0.48-3.91,1.39-5.43,5.19-6.09c-1.8-0.59-2.44-0.89-3.44-2.01c-3.07-3.45-0.78-9.57,4.43-9.57c5,0,7.56,5.83,4.47,9.5 c-0.79,0.93-2.7,2.16-3.42,2.04c2.17,0.4,2.11,0.14,4.42,1.53c1.25,0.75,2.5,1.54,3.76,2.3c1.15,0.69,0.75,0.53,2.04-0.04 c2.35-1.03,4.53-2.56,6.71-1.14c1.47,0.96,2,2.65,1.32,4.09c-0.71,1.48-1.91,1.84-3.51,2.55c-1.4,0.62-2.75,1.28-4.15,1.91 c-0.85,0.38-1.44,0.6-2.53,0.42c-0.99-0.16-1.3-0.58-2.05-0.89l-0.01,5.76l36.36,0.01l0.02-30.55l-52.09-0.01L19.44,51.87 L19.44,51.87z M27.26,25.06c2.79-0.55,4.96,1.48,5.41,3.66c0.57,2.79-1.42,5.08-3.64,5.52c-2.82,0.56-5.11-1.46-5.53-3.68 C23.01,27.97,24.64,25.58,27.26,25.06L27.26,25.06z M60.99,53.06c2.99-0.69,5.48,1.63,5.93,4.01c0.57,3.01-1.44,5.51-3.91,5.97 c-3,0.55-5.49-1.55-5.98-3.98C56.48,56.37,58.21,53.7,60.99,53.06L60.99,53.06z M44.99,53.07c-2.39,0.5-4.58,2.91-3.96,6 c0.48,2.41,3.01,4.54,5.99,3.97c2.5-0.48,4.46-2.93,3.9-5.97C50.46,54.65,48,52.43,44.99,53.07L44.99,53.07z M54.79,64.52 c0.32,0.83,1.23,1.5,1.69,3.64c0.33,1.53,0.21,3.57,0.21,5.2l14.86,0.05c0-3.35,0.35-6.77-2.74-9.15c-3.38-2.6-2.39-0.86-5.27-0.16 c-1.17,0.28-2.46,0.21-3.57-0.19c-0.52-0.18-0.86-0.35-1.3-0.65c-0.83-0.56-1.29-0.49-2.7,0.41C55.5,63.96,55.18,64.28,54.79,64.52 L54.79,64.52z M36.39,73.41c0-4.4-0.21-5.96,2.18-8.65c0.32-0.36,2.58-2.05,3.44-1.9c0.21,0.04,0.65,0.41,0.85,0.54 c3.7,2.27,7.15-0.51,7.21-0.53c1.14-0.24,4.53,2.24,5.27,5.45c0.33,1.46,0.21,3.5,0.21,5.09L36.39,73.41L36.39,73.41z M34.08,44.05 c-0.17,1.27-0.03,3.65-0.03,5.03c0,2.84,0.14,19.13-0.03,20.09c-0.47,2.68-5.07,3.04-5.11-0.85l0-12.54c0-0.62,0.22-1.85-0.3-2.15 c-0.89-0.52-0.9,0.78-0.9,1.39v12.54c0,1.79-0.2,2.93-1.56,3.46c-1.57,0.62-2.89-0.43-3.26-1.51c-0.31-0.9-0.15-13.41-0.15-14.93 c0-3.65-0.22-11.15,0.59-14.59c0.37-1.57,0.79-2.33,2.04-2.93c1.25-0.6,3-0.67,4.47-0.45c2.12,0.31,4.76,2.31,6.65,3.41 c1.88,1.1,1.19,1.19,3.29,0.2c0.94-0.44,2.57-1.3,3.52-1.56c1.49-0.41,2.89,0.46,3.18,1.64c0.44,1.81-1.12,2.38-2.08,2.82 c-1.15,0.52-2.23,1.02-3.39,1.58c-1.38,0.67-2.58,1.41-3.8,1.09C36.42,45.61,34.9,44.47,34.08,44.05L34.08,44.05z M46.31,27.4 h20.12v1H46.31V27.4L46.31,27.4z M46.31,30.19h20.12v1H46.31V30.19L46.31,30.19z M46.31,32.98h20.12v1H46.31V32.98z"></path> </g> </svg>