<svg xmlns="http://www.w3.org/2000/svg" xmlns:xlink="http://www.w3.org/1999/xlink" xml:space="preserve" width="91px" height="91px" style="shape-rendering:geometricPrecision; text-rendering:geometricPrecision; image-rendering:optimizeQuality; fill-rule:evenodd; clip-rule:evenodd" viewBox="0 0 5.8 5.8"> <defs> <style type="text/css"> .fil1 {fill:#083264} .fil0 {fill:white} </style> </defs> <g id="Layer_x0020_1"> <metadata id="CorelCorpID_0Corel-Layer"></metadata> <g id="_1754786392240"> <circle class="fil0" cx="2.9" cy="2.9" r="2.9"></circle> <path class="fil1" d="M1.84 2.14c0.32,-0.07 0.57,-0.12 0.85,-0.34 0.08,-0.06 0.13,-0.14 0.21,-0.19 0.07,0.05 0.12,0.13 0.21,0.19 0.22,0.17 0.42,0.25 0.69,0.31 0.2,0.05 0.15,-0.11 0.15,0.8 0,0.26 -0.12,0.48 -0.25,0.66 -0.11,0.17 -0.29,0.33 -0.45,0.46 -0.16,0.13 -0.2,0.14 -0.35,0.24 -0.08,-0.05 -0.16,-0.1 -0.24,-0.15 -0.36,-0.25 -0.8,-0.7 -0.82,-1.17 -0.01,-0.26 0,-0.55 0,-0.81zm0.96 0.79c-0.1,-0.15 -0.14,-0.12 -0.24,-0.1 -0.05,0.11 -0.03,0.13 0.05,0.21 0.21,0.21 0.19,0.2 0.44,-0.05 0.06,-0.06 0.2,-0.17 0.2,-0.26 0,-0.01 -0.06,-0.19 -0.23,-0.01 -0.07,0.06 -0.15,0.16 -0.22,0.21zm-0.47 -0.03c0,-0.31 0.26,-0.57 0.57,-0.57 0.31,0 0.57,0.26 0.57,0.57 0,0.31 -0.27,0.57 -0.57,0.57 -0.31,0 -0.57,-0.26 -0.57,-0.57zm-0.2 -0.09c0,0.25 0,0.42 0.21,0.63 0.38,0.38 0.98,0.28 1.24,-0.17 0.17,-0.29 0.1,-0.69 -0.13,-0.92 -0.07,-0.07 -0.11,-0.1 -0.2,-0.15 -0.22,-0.1 -0.48,-0.1 -0.7,0 -0.21,0.1 -0.42,0.37 -0.42,0.61zm-0.51 -0.73c0,0.76 -0.08,1.22 0.43,1.78 0.04,0.04 0.05,0.06 0.09,0.1 0.13,0.13 0.64,0.53 0.76,0.53 0.12,0 0.63,-0.41 0.75,-0.52 0.13,-0.14 0.29,-0.36 0.38,-0.54 0.2,-0.39 0.14,-0.92 0.14,-1.35 0,-0.09 -0.04,-0.12 -0.11,-0.14 -0.07,-0.02 -0.15,-0.02 -0.22,-0.04 -0.3,-0.06 -0.62,-0.21 -0.79,-0.46 -0.07,-0.09 -0.07,-0.13 -0.17,-0.13 -0.06,0 -0.09,0.08 -0.12,0.12 -0.03,0.04 -0.09,0.11 -0.12,0.14 -0.59,0.5 -1.02,0.24 -1.02,0.51z"></path> </g> </g> </svg>