<svg xmlns="http://www.w3.org/2000/svg" xmlns:xlink="http://www.w3.org/1999/xlink" id="Layer_1" x="0px" y="0px" viewBox="0 0 91 91" style="enable-background:new 0 0 91 91;" xml:space="preserve"> <style type="text/css"> .st0{fill-rule:evenodd;clip-rule:evenodd;fill:#FFFFFF;} .st1{fill-rule:evenodd;clip-rule:evenodd;fill:#0B2852;} </style> <g> <circle class="st0" cx="45.5" cy="45.5" r="45.5"></circle> <path class="st1" d="M31.34,61.84c-0.3,1.97-1.71,4.49-2.9,5.84l-0.88,0.87c-0.26,0.24-0.69,0.56-0.99,0.76 c-0.36,0.24-0.88,0.38-0.76,0.99c0.87,0.67,5.81-0.95,6.71-1.33c2.85-1.22,3.02-1.81,4.94-3.27c3.17,0.99,4.39,1.59,8.15,1.57 c2.91-0.01,5.8-0.65,8.17-1.69C63.81,61.19,68.8,50.2,65.48,39.8c-4.05-12.67-19.17-18.81-31.4-11.15c-1.1,0.69-1.94,1.44-2.8,2.15 c-0.87,0.73-1.57,1.6-2.36,2.59c-5.82,7.31-5.93,18.2,0.04,25.8C30.09,60.64,30.82,61.2,31.34,61.84L31.34,61.84z M30.9,22.38 c-0.46-1.98-0.09-3.09,1.3-3.86c7.76-4.29,18.93-4.29,26.67,0.04c1.36,0.76,1.67,1.9,1.24,3.82c0.95,0.31,3.03,2.12,3.79,2.7 c0.3,0.23,0.56,0.54,0.84,0.8c0.99,0.91,1.47,1.49,2.35,2.5c3.31,3.81,4.3,7.59,4.81,8.21c1.36-0.13,2.15-0.03,3.22,0.58 c2.95,1.68,2.22,5.53,2.22,9.1c0,1.94,0.28,5.63-0.44,7.17c-0.93,1.98-2.83,2.75-5,2.52c-0.51,0.61-1.87,5.64-6.72,10.31 c-2.56,2.46-5.89,4.92-10.42,6.5c-1.1,0.38-2.22,0.7-3.39,0.94c-0.88,0.18-0.52,0.49-1.06,1.09c-1.15,1.27-3.21,0.82-5.53,0.82 c-1.24,0-2.9,0.23-3.77-0.51c-0.75-0.64-1.33-1.8-0.58-3.06c0.63-1.07,1.57-1.18,3.11-1.17c1.41,0,2.82,0,4.23,0 c1.54,0,2.38,0.28,2.91,1.38c2.24-0.15,5.87-1.83,7.63-2.75c2.22-1.16,4.48-2.99,5.9-4.42l1.25-1.33c2.81-3.03,5.14-7.91,6-12.05 c1.29-6.22,0.27-12.27-2.24-17.29c-0.93-1.86-1.81-3.16-3.02-4.72c-1.48-1.9-4.82-5.07-6.92-6.04c-0.3,0.9-1.5,1.78-2.95,1.6 c-1.32-0.17-8.63-5.07-18.48-1.29c-2.07,0.79-4.35,2.66-6.17-0.28c-0.49,0.19-1.36,0.82-1.76,1.12l-1.6,1.28 c-1.29,0.99-3.22,3.15-4.18,4.48c-4.21,5.8-6.02,13.01-4.76,20.26c0.14,0.81,0.33,1.63,0.52,2.37c0.18,0.7,0.53,1.51,0.65,2.14 c-1.26,1.11-4.21,0.97-5.89-1.03c-1.4-1.67-1-4.53-1-7.02c0-1.82-0.22-6.44,0.28-7.83c0.82-2.26,2.9-3.09,5.16-2.88 c0.68-0.81,1.32-4.68,6.37-9.94c0.3-0.31,0.52-0.52,0.85-0.81c0.31-0.27,0.47-0.5,0.79-0.75C27.93,24.47,29.88,22.73,30.9,22.38 L30.9,22.38z M40.11,48.33c-0.11-1.45,0.53-1.81,1.51-3.37c0.61-0.98,1.23-1.95,1.93-2.94l1.9-0.01v5.08l1.09,0.03l-0.01,1.2 l-1.07,0.06l-0.04,2.1l-1.47,0l-0.01-2.14L40.11,48.33L40.11,48.33z M33.63,42.65c1-0.46,1.86-1.01,3.32-0.7 c1.06,0.23,1.89,0.99,2.01,2.15c0.24,2.34-2.31,4.04-3.22,5.04l3.43,0.06l-0.01,1.27h-5.7c-0.15-1.26-0.04-0.88,1.42-2.34 c0.62-0.62,1.33-1.18,1.87-1.95c0.48-0.68,0.98-2.1,0.13-2.73c-1-0.74-2.1,0.06-2.82,0.35C33.85,43.47,33.66,43.05,33.63,42.65 L33.63,42.65z M78.14,51.62c2.71-0.19,2.19-2.91,2.19-5.25c0-2.45,0.61-5.21-2.2-5.45L78.14,51.62L78.14,51.62z M12.32,51.51 l0.52,0.11l-0.02-10.69l-0.49,0.1c-2.23,0.3-1.66,3.61-1.66,5.23c0,1.01-0.08,2.41,0.01,3.38C10.78,50.58,11.46,51.39,12.32,51.51 L12.32,51.51z M51.91,43.34l-0.02-1.33l5.7,0c-0.02,1.29-0.16,1.46-0.69,2.46c-0.74,1.41-2.34,5.21-2.94,6l-1.57,0 c0.15-0.88,2.98-5.66,3.47-7.14L51.91,43.34L51.91,43.34z M46.93,50.99l3.16-9.43l1.09-0.02c-0.05,0.44-3,9.16-3.2,9.45 L46.93,50.99L46.93,50.99z M41.66,47.1c0.28-0.57,0.81-1.28,1.19-1.83c0.38-0.56,0.73-1.42,1.09-1.88l-0.02,3.71L41.66,47.1 L41.66,47.1z M12.32,51.51l0.52,0.11l-0.02-10.69l-0.49,0.1c0.25-0.23,0.21-0.18,0.58-0.11l-0.01,10.7 C12.53,51.7,12.59,51.75,12.32,51.51z"></path> </g> </svg>