<svg id="Layer_1" data-name="Layer 1" xmlns="http://www.w3.org/2000/svg" viewBox="0 0 100 100"><defs><style>.cls-1{fill:#083264;}</style></defs><path class="cls-1" d="M31.31,38.89A4.68,4.68,0,0,0,22,39c0,2.11,0,4.22,0,6.34a4.68,4.68,0,0,0,9.35,0c0-1.07,0-2.14,0-3.22S31.34,40,31.31,38.89Zm-3.12,6.17a1.56,1.56,0,1,1-3.11,0c0-2,0-4,0-5.93a1.56,1.56,0,0,1,1.58-1.71,1.58,1.58,0,0,1,1.53,1.76c0,1,0,2,0,2.92S28.2,44.09,28.19,45.06Z" transform="translate(0 0)"/><path class="cls-1" d="M78.17,69.26c0,.81-.19,1-1,1C75,70.2,75,70.24,75,68.09q0-28.83,0-57.65c0-.88-.21-1.1-1.09-1.1q-23.91,0-47.8,0c-.88,0-1.11.21-1.1,1.1,0,6.63,0,13.26,0,19.9,0,.72-.17.91-.9.89C22,31.19,22,31.23,22,29c0-7.29,0-14.57,0-21.85,0-.74.18-.9.9-.9q27.22,0,54.44,0c.73,0,.9.18.89.9q0,15.61,0,31.22C78.15,48.64,78.13,59,78.17,69.26Z" transform="translate(0 0)"/><path class="cls-1" d="M98.31,90.22H80.17a9.56,9.56,0,0,1-1.07,0,.62.62,0,0,1-.58-.43c-.44-1.25.07-2,1.38-2h12c2.07,0,2.23-.17,2.17-2.21C94,84.23,93.8,84,92.49,84c-1.95,0-3.91,0-5.86,0s-1.92,0-1.92-1.92V11q0-4.74,0-9.46A2.06,2.06,0,0,0,84.39,0H15.71a2.69,2.69,0,0,0-.31,1.88q0,39.95,0,79.88c0,.36,0,.72,0,1.07,0,1-.12,1.13-1.13,1.14-2,0-4,0-6,0S6,84.12,6,86.26c0,1.19.27,1.42,1.46,1.45,1.43,0,2.86,0,4.29,0H34.9a1.88,1.88,0,0,1,2,1c.72,1.47.73,1.51-.9,1.51H1.77C0,90.22,0,90.23,0,92c0,2,0,2,2,2,11.86,0,23.73,0,35.6,0a2.72,2.72,0,0,1,2.79,1.54,8.19,8.19,0,0,0,7.46,4.5c8,0,16.06,0,24.1,0a1.93,1.93,0,0,0,1.72-.88c.95-1.28,2-2.51,2.85-3.84a2.86,2.86,0,0,1,2.69-1.34C85.6,94,92,94,98.41,94a2.22,2.22,0,0,0,1.59-.31V90.53A2.38,2.38,0,0,0,98.31,90.22ZM74.72,92c-1.08,1.42-2.16,2.85-3.21,4.29a1.15,1.15,0,0,1-1.05.51c-7.32,0-14.63,0-21.95,0a5.71,5.71,0,0,1-5.36-3.27c-2.28-4.44-4.5-8.91-6.72-13.39a2.78,2.78,0,1,1,4.9-2.64c1.24,2,2.48,4,3.67,6.08a1.34,1.34,0,0,0,1.37.76c2.11,0,2.12,0,2.12-2.1V69.52c0-4.65,0-9.3,0-13.95a2.33,2.33,0,0,1,3.42-2.22,2.51,2.51,0,0,1,1.27,2.45c0,6,0,12,0,18,0,.88.2,1.13,1.09,1.1,2-.07,2,0,2.06-2.07,0-.86-.39-2,.18-2.51s1.61-.12,2.45-.12c1.52,0,2,.51,2,2,0,1.69,0,3.38,0,5.07,0,.54.13.7.69.71,2.45,0,2.43,0,2.46-2.36,0-.76-.36-1.78.16-2.22s1.42-.12,2.16-.12c1.93,0,2.35.41,2.35,2.33,0,1.63,0,3.25,0,4.88,0,.45.11.59.59.61,2.54.1,2.54.11,2.54-2.45a2,2,0,0,1,0-.77c.21-.49-.67-1.47.66-1.49,1.71,0,2.42.41,2.43,1.66,0,4.32,0,8.64,0,13A1.41,1.41,0,0,1,74.72,92ZM45.37,58.72c0,.46-.11.61-.59.6q-3.31,0-6.63,0c-.45,0-.6-.11-.6-.59q0-8.77,0-17.54c0-.67.33-.61.78-.61H50.11c3.87,0,7.73,0,11.6,0,.69,0,.84.18.84.85q0,8.54,0,17.06c0,.67-.13.89-.83.86-1.56-.06-3.12,0-4.68,0-.58,0-.8-.1-.77-.74.06-1.07,0-2.14,0-3.21a5.46,5.46,0,0,0-10.92,0C45.35,56.51,45.34,57.62,45.37,58.72ZM59.42,37c0,.65-.45.42-.75.42H41.41c-.31,0-.76.2-.74-.44.1-2.5-.21-5,.19-7.5a9.33,9.33,0,0,1,18.37,0C59.64,32,59.32,34.53,59.42,37Zm18.72,41a4.68,4.68,0,0,0-4.71-4.7,2.54,2.54,0,0,0-.39,0,1.7,1.7,0,0,1-2-1,4.15,4.15,0,0,0-3.64-2.08,12.34,12.34,0,0,0-1.36,0c-1.26.05-2.36.12-3.1-1.38a3.71,3.71,0,0,0-3.41-1.73c-.84,0-1.69,0-2.53,0-.51,0-.76-.06-.73-.66,0-1.14,0-2.28,0-3.41,0-.56.2-.63.67-.63,2.6,0,5.2,0,7.8,0,.68,0,.93-.08.93-.87,0-7.77,0-15.54,0-23.31,0-.59-.08-.87-.77-.83s-1.82.36-2.23-.14-.11-1.48-.14-2.26c-.06-2.3.19-4.61-.37-6.89a12.48,12.48,0,0,0-24.43,1.11,57.26,57.26,0,0,0-.16,7.41c0,.61-.12.83-.78.81s-1.82-.37-2.23.15-.12,1.48-.12,2.26c0,7.22,0,14.44,0,21.66,0,.71.14.91.89.9,3.12-.05,6.24,0,9.36,0,.42,0,.71,0,.71.58,0,4.91,0,9.81,0,14.72l-.16.06c-.45-.74-.89-1.48-1.37-2.21a5.89,5.89,0,0,0-10.3,5.67c.45,1,1,2,1.49,3-3.23,0-6.35,0-9.46,0-.38,0-.54-.11-.49-.49a5.81,5.81,0,0,0,0-.59c0-9.72,0-19.44,0-29.16,0-.81-.18-1-1-1-2.15.06-2.15,0-2.15,2.16,0,9.37,0,18.73,0,28.1,0,.8-.18,1-1,1-2.14-.07-2.14,0-2.14-2.17q0-39,0-77.94c0-.87.19-1.1,1.08-1.1q30.15,0,60.29,0c.86,0,1.11.18,1.11,1.08q0,39.51,0,79c0,.85-.15,1.16-1.07,1.12-2.06-.08-2.06,0-2.06-2.06C78.14,80.85,78.16,79.45,78.14,78.06ZM55.3,48.28c.59.35,1.12,1.24,1.72,1s1-1,1.57-1.54.38-.66-.08-1a13.27,13.27,0,0,0-16.42-.4c-1.12.83-1.11.84-.15,1.87a4.07,4.07,0,0,1,.52.58c.43.64.77.67,1.43.15A10.06,10.06,0,0,1,55.3,48.28Z" transform="translate(0 0)"/><path class="cls-1" d="M100,87.41h-.78c-2.58,0-2.57,0-2.35-2.64,0-.37.12-.5.5-.49.87,0,1.75,0,2.63,0Z" transform="translate(0 0)"/><path class="cls-1" d="M31.31,38.89A4.68,4.68,0,0,0,22,39c0,2.11,0,4.22,0,6.34a4.68,4.68,0,0,0,9.35,0c0-1.07,0-2.14,0-3.22S31.34,40,31.31,38.89Zm-3.12,6.17a1.56,1.56,0,1,1-3.11,0c0-2,0-4,0-5.93a1.56,1.56,0,0,1,1.58-1.71,1.58,1.58,0,0,1,1.53,1.76c0,1,0,2,0,2.92S28.2,44.09,28.19,45.06Z" transform="translate(0 0)"/><path class="cls-1" d="M78.17,69.26c0,.81-.19,1-1,1C75,70.2,75,70.24,75,68.09q0-28.83,0-57.65c0-.88-.21-1.1-1.09-1.1q-23.91,0-47.8,0c-.88,0-1.11.21-1.1,1.1,0,6.63,0,13.26,0,19.9,0,.72-.17.91-.9.89C22,31.19,22,31.23,22,29c0-7.29,0-14.57,0-21.85,0-.74.18-.9.9-.9q27.22,0,54.44,0c.73,0,.9.18.89.9q0,15.61,0,31.22C78.15,48.64,78.13,59,78.17,69.26Z" transform="translate(0 0)"/><path class="cls-1" d="M58.59,47.78c-.56.49-1,1.34-1.57,1.54s-1.13-.69-1.72-1A10.06,10.06,0,0,0,43.89,49c-.66.52-1,.49-1.43-.15a4.07,4.07,0,0,0-.52-.58c-1-1-1-1,.15-1.87a13.27,13.27,0,0,1,16.42.4C59,47.12,59.06,47.35,58.59,47.78Z" transform="translate(0 0)"/><path class="cls-1" d="M3.22,85.94c0,1.47,0,1.47-1.46,1.47-1.67,0-1.67,0-1.67-1.65,0-1.48,0-1.48,1.46-1.48C3.22,84.28,3.22,84.28,3.22,85.94Z" transform="translate(0 0)"/><path class="cls-1" d="M78.17,69.26c0,.81-.19,1-1,1C75,70.2,75,70.24,75,68.09q0-28.83,0-57.65c0-.88-.21-1.1-1.09-1.1q-23.91,0-47.8,0c-.88,0-1.11.21-1.1,1.1,0,6.63,0,13.26,0,19.9,0,.72-.17.91-.9.89C22,31.19,22,31.23,22,29c0-7.29,0-14.57,0-21.85,0-.74.18-.9.9-.9q27.22,0,54.44,0c.73,0,.9.18.89.9q0,15.61,0,31.22C78.15,48.64,78.13,59,78.17,69.26Z" transform="translate(0 0)"/><path class="cls-1" d="M31.31,38.89A4.68,4.68,0,0,0,22,39c0,2.11,0,4.22,0,6.34a4.68,4.68,0,0,0,9.35,0c0-1.07,0-2.14,0-3.22S31.34,40,31.31,38.89Zm-3.12,6.17a1.56,1.56,0,1,1-3.11,0c0-2,0-4,0-5.93a1.56,1.56,0,0,1,1.58-1.71,1.58,1.58,0,0,1,1.53,1.76c0,1,0,2,0,2.92S28.2,44.09,28.19,45.06Z" transform="translate(0 0)"/><path class="cls-1" d="M58.59,47.78c-.56.49-1,1.34-1.57,1.54s-1.13-.69-1.72-1A10.06,10.06,0,0,0,43.89,49c-.66.52-1,.49-1.43-.15a4.07,4.07,0,0,0-.52-.58c-1-1-1-1,.15-1.87a13.27,13.27,0,0,1,16.42.4C59,47.12,59.06,47.35,58.59,47.78Z" transform="translate(0 0)"/></svg>