<svg xmlns="http://www.w3.org/2000/svg" xmlns:xlink="http://www.w3.org/1999/xlink" id="Layer_1" x="0px" y="0px" viewBox="0 0 91 91" style="enable-background:new 0 0 91 91;" xml:space="preserve"> <style type="text/css"> .st0{fill-rule:evenodd;clip-rule:evenodd;fill:#FFFFFF;} .st1{fill-rule:evenodd;clip-rule:evenodd;fill:#0B2852;} </style> <g> <circle class="st0" cx="45.5" cy="45.5" r="45.5"></circle> <path class="st1" d="M9.16,57.16v1.44c1.79,1.45,8.62,0.8,11.3,0.8c6.18,0,34.56,0.52,36.51-0.48c0.61-1.94-1.08-3.82-2.07-5.52 L40.05,27.72c-1.86-3.28-4.04-7.31-6.07-10.26h-1.55L15.01,47.36C14.01,49.1,10.15,56.23,9.16,57.16L9.16,57.16z M57.53,75.41 c-0.86-0.92-3.01-2.01-4.12-2.82c-2.5-1.83-9.17-8.01-9.41-10.38c2.68,0.01,5.36,0,8.03,0c2.88,0,5.15,0.35,6.84-1.4 c1.93-1.98,1.18-4.12-0.01-6.15c-2.28-3.9-14.02-23.64-14.44-25.33c2.49-0.66,6.19-2.36,8.81-3.42c5.11-2.06,3.77-2.21,8.8-0.19 l17.52,6.88v5.86c-0.18,0.5-0.95,7.71-2.33,12.32c-2.58,8.64-7.7,16.71-14.78,21.72c-0.91,0.65-3.63,2.3-4.22,2.92H57.53 L57.53,75.41z M31.71,45.06c-0.75-2.04-0.37-8.36-0.37-11.08c0-1.8-0.39-4.31,0.96-4.99c1.87-0.94,2.79,0.6,2.79,2.38l0,11.3 C35.09,45.47,33.93,46.28,31.71,45.06L31.71,45.06z M32.32,48.66c3.71-1.28,5.27,4.3,1.89,5.47 C30.49,55.42,28.61,49.94,32.32,48.66z"></path> </g> </svg>