<svg xmlns="http://www.w3.org/2000/svg" xmlns:xlink="http://www.w3.org/1999/xlink" id="Layer_1" x="0px" y="0px" viewBox="0 0 91 91" style="enable-background:new 0 0 91 91;" xml:space="preserve"> <style type="text/css"> .st0{fill-rule:evenodd;clip-rule:evenodd;fill:#FFFFFF;} .st1{fill-rule:evenodd;clip-rule:evenodd;fill:#0B2852;} </style> <g> <circle class="st0" cx="45.5" cy="45.5" r="45.5"></circle> <path class="st1" d="M43.49,14.49c-19.45,3.08-13.93,31.28,4.57,28.15C65.76,39.64,62.28,11.52,43.49,14.49L43.49,14.49z M30.68,69.95c1.65,0.11,1.83,0.43,3.14-0.95c1.47-1.54,1.1-2.44,0.73-3.51C32.09,64.87,30.22,67.06,30.68,69.95L30.68,69.95z M33.71,72.41c-0.04-0.75,0.84-7.28,4.97-4.81C39.09,69.92,36.71,72.97,33.71,72.41L33.71,72.41z M41.78,76.45 c1.69,0.6,2.47,0.27,3.85-1.14c1.43-1.46,1.55-1.89,0.83-3.99C43.32,71.2,41.28,73.81,41.78,76.45L41.78,76.45z M36.92,75.31 c3.13,0.38,2.63,0.38,4.03-1.66c0.65-0.95,3.7-5.48-0.34-4.56C39.55,69.33,36.74,71.93,36.92,75.31L36.92,75.31z M45.21,36.29 c-5.17-3.55-11.46-12.46-5.66-15.13c3.51-1.61,4.28,0.6,6.13,0.47c0.14-0.01,10.74-3.5,7.54,5.92 C52.1,30.84,47.94,35.15,45.21,36.29L45.21,36.29z M35.98,59.84c0.53-3,3.47-4.79,5.64-6.19c17.71-11.37,26.13,7.93,20.83,10.71 c-2.62,1.37-1.27,0.08-3.15-1.66c-1.48-1.37-5.03-3.11-7.11-4.43C41.95,51.79,41.72,60.93,35.98,59.84L35.98,59.84z M61.73,47.05 l12-5l7.21,17.05c-1.76,1.55-8.94,4.55-11.43,5.25C68.2,63.22,62.15,49.41,61.73,47.05L61.73,47.05z M10.06,59.1 c0.79-4.29,5.76-12.26,7.21-17.34l12.04,5.3c-0.49,2.41-6.2,15.85-7.78,17.27C18.9,63.4,12.44,60.99,10.06,59.1L10.06,59.1z M28.81,66.59c-5.5-4.3-1.84-4.27,1.46-13.99l8.51,0.28c-0.72,0.83-5.84,4.48-4.3,7.44c5.68,5.36,5.13-3.39,13.71-1.86l9.5,5.26 c1.21,1.21,0.6-0.07,0.77,1.52c0.15,1.4,0.08,0.64-0.4,1.42c-2.98,0.5-8.48-4.73-11.72-4.76c-0.02,0.07-0.53,0.56,0.47,1.63 c2.57,2.72,11.51,3.33,10.95,7.54c-4.18,1.31-11.5-6.35-14.3-5.34c-1.01,0.91,0.64,1.66,1.83,2.24c5.06,2.49,8.47,3.08,8.6,6.57 c-5.19,0.69-5.51-3.33-5.82-3.78c-0.75-1.09-4.53-2.35-6.21-3.42l-5.23-2.74C29.82,61.76,32.64,64.18,28.81,66.59L28.81,66.59z M41.67,17.1c7.48-2.43,13.96,2.14,15.59,8.04c4.22,15.32-18.28,22.44-23.38,7.04C31.48,24.95,36.35,18.83,41.67,17.1z"></path> </g> </svg>