<svg xmlns="http://www.w3.org/2000/svg" xmlns:xlink="http://www.w3.org/1999/xlink" xml:space="preserve" width="91px" height="91px" style="shape-rendering:geometricPrecision; text-rendering:geometricPrecision; image-rendering:optimizeQuality; fill-rule:evenodd; clip-rule:evenodd" viewBox="0 0 4.8 4.8"> <defs> <style type="text/css"> .fil1 {fill:#083264} .fil0 {fill:white} </style> </defs> <g id="Layer_x0020_1"> <metadata id="CorelCorpID_0Corel-Layer"></metadata> <g id="_1718266185680"> <circle class="fil0" cx="2.4" cy="2.4" r="2.4"></circle> <g> <path class="fil1" d="M1.45 3.72l0.11 -0.33c0.02,-0.06 0.02,-0.09 0.06,-0.09 0.02,0 0.02,0.01 0.02,0.02l0 0.4 0.68 0 0 -0.36c0,-0.05 0.03,-0.1 0.05,-0.12 0.03,-0.03 0.06,-0.05 0.11,-0.06 0.23,-0.03 0.14,0.06 0.33,-0.18 0.05,-0.06 0.13,-0.15 0.11,-0.21 -0.01,-0.05 -0.06,-0.08 -0.09,-0.08 -0.06,0 -0.12,0.1 -0.17,0.16 -0.01,0.01 -0.02,0.02 -0.03,0.04 -0.06,0.08 -0.03,0.07 -0.18,0.07 -0.1,0 -0.59,-0.01 -0.65,0 -0.1,0.01 -0.17,0.03 -0.24,0.08 -0.06,0.04 -0.12,0.11 -0.14,0.18l-0.15 0.42c-0.01,0.02 -0.02,0.04 -0.02,0.06l0.2 0z"></path> <path class="fil1" d="M2.59 2.26l0.1 0c0,-0.27 0.02,-0.23 -0.06,-0.23 -0.17,0 -0.18,-0.25 0,-0.25 0.06,0 0.12,0.06 0.12,0.13 0,0.07 -0.02,0.06 0.06,0.06 0.04,0 0,-0.06 0.03,-0.12 0.07,-0.12 0.24,-0.06 0.24,0.04 0,0.05 -0.01,0.09 -0.06,0.12 -0.14,0.08 -0.12,-0.11 -0.12,0.25 0.08,0 0.07,0.01 0.09,-0.01 0.11,-0.17 0.23,-0.34 0.11,-0.55 -0.06,-0.1 -0.18,-0.18 -0.3,-0.18 -0.08,0 -0.1,-0.01 -0.18,0.03 -0.03,0.01 -0.06,0.04 -0.09,0.06 -0.09,0.07 -0.15,0.22 -0.12,0.34 0.02,0.1 0.15,0.31 0.18,0.31z"></path> <path class="fil1" d="M1.69 2.6c0,0.21 0.2,0.35 0.4,0.27 0.09,-0.03 0.18,-0.14 0.18,-0.24 0,-0.07 0,-0.09 -0.04,-0.16 -0.01,-0.03 -0.03,-0.06 -0.06,-0.08 -0.03,-0.02 -0.04,-0.03 -0.08,-0.05 -0.18,-0.08 -0.4,0.06 -0.4,0.26z"></path> <path class="fil1" d="M2.51 2.39c0,0.03 0,0.09 0.05,0.09l0.44 0c0.07,0 0.05,-0.16 0.01,-0.16l-0.47 0c-0.02,0 -0.03,0.04 -0.03,0.07z"></path> <path class="fil1" d="M2.72 2.68c0.16,0 0.15,0.02 0.2,-0.1 0,-0.02 0.01,-0.02 0.01,-0.04l-0.31 0c0.01,0.02 0.02,0.06 0.03,0.08 0.01,0.03 0.03,0.06 0.07,0.06z"></path> <path class="fil1" d="M2.75 2.05l0 0.21 0.09 0 0 -0.21c0,-0.03 -0.02,-0.02 -0.08,-0.02 -0.01,0 -0.01,0 -0.01,0.02z"></path> <path class="fil1" d="M2.56 1.91c0,0.04 0.03,0.06 0.08,0.06 0.06,0 0.05,0.01 0.05,-0.04 0,-0.13 -0.13,-0.1 -0.13,-0.02z"></path> <path class="fil1" d="M2.24 1.3c-0.01,0.06 0,0.06 0.06,0.11 0.01,0.01 0.05,0.06 0.08,0.06 0.02,0 0.03,-0.01 0.03,-0.03 0,-0.02 -0.05,-0.06 -0.06,-0.08 -0.04,-0.03 -0.06,-0.08 -0.11,-0.06z"></path> <path class="fil1" d="M2.89 1.9l0 0.07c0.05,0 0.13,0.01 0.13,-0.07 0,-0.07 -0.13,-0.08 -0.13,0z"></path> <path class="fil1" d="M2.02 1.84c0,0.06 0.08,0.05 0.17,0.05 0.07,0 0.06,-0.07 0.03,-0.07l-0.17 0c-0.02,0 -0.03,0.01 -0.03,0.02z"></path> <path class="fil1" d="M3.33 1.84c0,0.06 0.09,0.05 0.17,0.05 0.08,0 0.06,-0.07 0.03,-0.07l-0.17 0c-0.01,0 -0.03,0.01 -0.03,0.02z"></path> <path class="fil1" d="M3.16 1.44c0,0.02 0.02,0.03 0.04,0.03 0.02,0 0.07,-0.05 0.09,-0.08 0.02,-0.01 0.04,-0.03 0.05,-0.04 0.01,-0.02 0,-0.05 -0.04,-0.05 -0.01,0 -0.14,0.12 -0.14,0.14z"></path> <path class="fil1" d="M2.76 1.11l0 0.17c0,0.03 0.06,0.03 0.06,0l0 -0.17c0,-0.02 -0.02,-0.03 -0.03,-0.03l0 0c-0.02,0 -0.03,0.01 -0.03,0.03z"></path> </g> </g> </g> </svg>