<svg xmlns="http://www.w3.org/2000/svg" xmlns:xlink="http://www.w3.org/1999/xlink" xml:space="preserve" width="91px" height="91px" style="shape-rendering:geometricPrecision; text-rendering:geometricPrecision; image-rendering:optimizeQuality; fill-rule:evenodd; clip-rule:evenodd" viewBox="0 0 4.96 4.96"> <defs> <style type="text/css"> .fil1 {fill:#083264} .fil0 {fill:white} </style> </defs> <g id="Layer_x0020_1"> <metadata id="CorelCorpID_0Corel-Layer"></metadata> <g id="_1718282693776"> <circle class="fil0" cx="2.48" cy="2.48" r="2.48"></circle> <path class="fil1" d="M2.12 1.79c-0.03,-0.03 -0.06,-0.1 -0.11,-0.1 -0.06,0 -0.07,0.04 -0.07,0.08 0,0.04 0.05,0.07 0.07,0.11 -0.02,0.03 -0.12,0.12 -0.2,0.25 -0.04,0.05 -0.15,0.25 -0.15,0.3 0,0.03 0.04,0.07 0.07,0.07 0.07,0 0.09,-0.08 0.11,-0.14 0.05,-0.09 0.11,-0.19 0.17,-0.27l0.17 -0.16c0.04,-0.04 0.09,-0.07 0.14,-0.11 0.02,-0.01 0.03,-0.01 0.04,-0.02l0.13 -0.06c0.27,-0.11 0.55,-0.14 0.83,-0.03 0.4,0.17 0.6,0.64 0.45,1.11 -0.05,0.14 -0.1,0.23 -0.17,0.35l-0.12 0.14c-0.32,0.34 -0.93,0.54 -1.36,0.25 -0.13,-0.08 -0.22,-0.17 -0.29,-0.3l0.4 0c0.06,-0.01 0.09,-0.08 0.04,-0.12 -0.01,-0.01 -0.03,-0.02 -0.05,-0.02l-1.14 0c-0.05,0 -0.08,0.03 -0.08,0.08 0,0.06 0.06,0.06 0.12,0.06l0.56 0c0.02,0.13 0.21,0.32 0.32,0.4 0.4,0.28 0.89,0.22 1.28,-0.01 0.59,-0.35 0.91,-1.15 0.5,-1.74 -0.16,-0.23 -0.48,-0.41 -0.76,-0.41 -0.22,0 -0.35,0.01 -0.56,0.09 -0.08,0.03 -0.19,0.09 -0.26,0.14 -0.03,0.02 -0.05,0.04 -0.08,0.06zm-0.81 1.82c0,0.11 0.14,0.08 0.3,0.08 0.14,0 0.14,-0.15 0,-0.15 -0.11,0 -0.3,-0.02 -0.3,0.07zm-0.31 -1.28c0,0.05 0.03,0.08 0.08,0.08l0.36 0c0.11,0 0.1,-0.14 0.02,-0.14l-0.4 0c-0.01,0 -0.06,0.02 -0.06,0.06zm2.51 -0.89c0,0.06 0.01,0.06 0.09,0.11 0.09,0.05 0.11,0.08 0.18,0.15 0.03,0.03 0.09,0.11 0.16,0.05 0.11,-0.1 -0.31,-0.37 -0.35,-0.37 -0.04,0 -0.08,0.02 -0.08,0.06zm-2.05 0c0,0.04 0.04,0.07 0.09,0.07l0.61 0c0.12,0 0.11,-0.14 0.02,-0.14l-0.65 0c-0.04,0 -0.07,0.03 -0.07,0.07zm-0.15 1.26c0,0.11 0.1,0.08 0.28,0.08 0,0.1 -0.02,0.2 0.08,0.2 0.08,0 0.06,-0.11 0.06,-0.2l0.33 0c0.09,0 0.09,-0.14 0.01,-0.14l-0.7 0c-0.03,0 -0.06,0.03 -0.06,0.06zm1.84 -1.4l-0.35 0c0.01,-0.02 0.02,-0.04 0.05,-0.04l0.3 0c0.04,0 0.01,0.03 0,0.04zm-0.49 0c0,0.08 0.06,0.15 0.14,0.15l0.35 0c0.08,0 0.16,-0.09 0.16,-0.18 0,-0.08 -0.06,-0.15 -0.14,-0.15l-0.34 0c-0.08,0 -0.17,0.08 -0.17,0.18zm0.1 1.41c-0.02,0 -0.02,-0.01 -0.02,-0.02 0,-0.07 0.08,-0.07 0.08,-0.04 0,0.03 -0.03,0.06 -0.06,0.06zm-0.17 -0.04l0 0.04c0,0.07 0.08,0.14 0.15,0.14 0.07,0 0.11,-0.01 0.16,-0.06 0.06,-0.05 0.07,-0.11 0.06,-0.18l0.31 -0.27c0.05,-0.05 0.16,-0.12 0.15,-0.17 0,-0.05 -0.04,-0.07 -0.08,-0.07 -0.03,0 -0.16,0.12 -0.19,0.15l-0.26 0.23c-0.04,0.04 -0.04,-0.01 -0.14,0.01 -0.07,0.01 -0.16,0.09 -0.16,0.18zm0.04 0.96c0.18,0 0.34,-0.04 0.47,-0.11 0.18,-0.08 0.33,-0.21 0.44,-0.37 0.09,-0.13 0.13,-0.22 0.18,-0.37 0.02,-0.07 0.05,-0.18 -0.05,-0.18 -0.05,0 -0.07,0.03 -0.08,0.06 -0.06,0.26 -0.14,0.44 -0.36,0.61 -0.1,0.08 -0.22,0.15 -0.36,0.19 -0.13,0.03 -0.22,0.02 -0.24,0.03 -0.09,0.02 -0.07,0.14 0,0.14z"></path> </g> </g> </svg>