<svg xmlns="http://www.w3.org/2000/svg" xmlns:xlink="http://www.w3.org/1999/xlink" xml:space="preserve" width="91px" height="91px" style="shape-rendering:geometricPrecision; text-rendering:geometricPrecision; image-rendering:optimizeQuality; fill-rule:evenodd; clip-rule:evenodd" viewBox="0 0 68.36 68.36"> <defs> <style type="text/css"> .fil1 {fill:#083264} .fil0 {fill:white} </style> </defs> <g id="Layer_x0020_1"> <metadata id="CorelCorpID_0Corel-Layer"></metadata> <g id="_1718646376032"> <circle class="fil0" cx="34.18" cy="34.18" r="34.18"></circle> <path id="commitment-icon_x0020__x0028_1_x0029_.svg" class="fil1" d="M12.67 31.78l0.85 10.52c0.12,1.09 0.35,1.79 0.68,2.17 0.27,0.31 0.63,0.39 1.06,0.31 0.03,0 0.06,-0.01 0.1,-0.01l4.1 0 0.06 0.01c0.58,0 0.98,-0.17 1.23,-0.49 0.29,-0.37 0.43,-0.96 0.45,-1.73l0 -11.6c-0.01,-0.05 -0.02,-0.1 -0.02,-0.16 0,-0.01 0,-0.03 0,-0.04 -0.06,-0.37 -0.23,-0.62 -0.46,-0.78 -0.34,-0.21 -0.83,-0.29 -1.44,-0.29l-0.01 0 0 0.01 -5.21 0c-0.53,0.02 -0.94,0.15 -1.18,0.43 -0.24,0.29 -0.33,0.81 -0.21,1.6l0 0.05 0 0zm33.21 -0.45c0,-0.18 0.01,-0.36 0.04,-0.53l-1.94 -1.29c-0.27,-0.18 -0.58,-0.39 -0.88,-0.61 -0.52,-0.36 -1.05,-0.73 -1.59,-1.05 0.19,-0.33 0.36,-0.68 0.5,-1.03 0.6,0.35 1.17,0.75 1.74,1.15 0.28,0.2 0.56,0.4 0.87,0.6l1.71 1.14c0.09,-0.12 0.19,-0.23 0.3,-0.33 0.49,-0.44 1.19,-0.66 2.1,-0.66l0 0 4.88 0c1.02,0 1.86,0.18 2.43,0.63 0.64,0.49 0.94,1.24 0.82,2.32l-1.08 11.16c-0.08,1 -0.35,1.78 -0.82,2.32 -0.5,0.58 -1.19,0.86 -2.1,0.82l-4.4 0c-0.61,0.03 -1.13,-0.13 -1.57,-0.48 -0.32,-0.26 -0.58,-0.61 -0.8,-1.04l-1.52 0c0.21,0.6 0.2,1.16 0.04,1.67 -0.17,0.52 -0.5,0.96 -0.92,1.29 -0.41,0.33 -0.91,0.55 -1.43,0.63 -0.51,0.09 -1.04,0.04 -1.54,-0.16 -0.57,0.6 -1.18,0.98 -1.81,1.15 -0.64,0.18 -1.28,0.14 -1.93,-0.09 -0.62,0.69 -1.31,1.12 -2.06,1.28 -0.77,0.17 -1.58,0.05 -2.45,-0.35 -0.27,0.21 -0.55,0.37 -0.84,0.49 -0.42,0.18 -0.86,0.26 -1.31,0.24 -1.1,-0.03 -1.84,-0.35 -2.43,-0.88 -0.56,-0.5 -0.93,-1.14 -1.36,-1.88l-2.42 -4.23 -1.88 0c-0.11,0.55 -0.3,1.01 -0.58,1.38 -0.48,0.62 -1.18,0.94 -2.16,0.92l-4.09 0.01c-0.82,0.13 -1.51,-0.07 -2.06,-0.7 -0.48,-0.56 -0.81,-1.47 -0.95,-2.8l-0.01 -0.05 -0.84 -10.49c-0.17,-1.13 0.02,-1.93 0.47,-2.48 0.46,-0.55 1.15,-0.8 2.01,-0.84l0.07 -0.01 5.18 0 0 0.01c0.82,-0.01 1.53,0.12 2.06,0.47 0.43,0.28 0.74,0.67 0.9,1.2l3.53 0c0.89,-0.6 1.72,-1.07 2.64,-1.35 0.13,-0.05 0.27,-0.08 0.41,-0.12 0.19,0.24 0.39,0.46 0.6,0.68 0.11,0.11 0.22,0.21 0.33,0.31 -0.35,0.04 -0.68,0.12 -1,0.22 -0.83,0.25 -1.61,0.7 -2.45,1.28 -0.1,0.08 -0.22,0.12 -0.36,0.12l-3.59 0 0 11.1 2.1 0c0.22,0 0.42,0.13 0.51,0.31l2.57 4.49c0.38,0.66 0.71,1.23 1.13,1.6 0.4,0.35 0.91,0.57 1.7,0.6 0.29,0 0.57,-0.05 0.84,-0.16 0.17,-0.07 0.33,-0.16 0.49,-0.28l-1.68 -3.13c-0.04,-0.09 -0.06,-0.18 -0.06,-0.27 0,-0.21 0.11,-0.41 0.3,-0.5 0.08,-0.05 0.17,-0.07 0.27,-0.07 0.21,0 0.4,0.12 0.5,0.3l1.82 3.41c0.68,0.35 1.3,0.45 1.85,0.33 0.5,-0.1 0.98,-0.41 1.43,-0.9l-2.63 -4.12c-0.06,-0.09 -0.09,-0.2 -0.09,-0.31 0,-0.19 0.1,-0.37 0.27,-0.48 0.09,-0.06 0.19,-0.09 0.3,-0.09 0.2,0 0.38,0.1 0.48,0.27l2.77 4.34c0.49,0.2 0.95,0.25 1.4,0.12 0.42,-0.11 0.85,-0.38 1.27,-0.82l-2.51 -4.73c-0.15,-0.28 -0.04,-0.62 0.24,-0.77 0.08,-0.04 0.17,-0.07 0.27,-0.07 0.21,0 0.4,0.12 0.5,0.31l2.6 4.88c0.33,0.2 0.72,0.25 1.1,0.19 0.33,-0.06 0.64,-0.2 0.9,-0.4 0.25,-0.2 0.45,-0.46 0.54,-0.75 0.1,-0.32 0.09,-0.7 -0.08,-1.11 -0.04,-0.07 -0.05,-0.15 -0.05,-0.23 0,-0.01 0,-0.02 0,-0.04 -0.16,-0.06 -0.28,-0.2 -0.33,-0.37l-5.69 -10.28c-0.63,-1.06 -1.21,-1.08 -1.76,-0.75 -0.39,0.23 -0.8,0.6 -1.21,0.98 -0.25,0.23 -0.5,0.46 -0.71,0.63l-1.01 0.83c-0.71,0.56 -1.5,0.86 -2.25,0.92 -0.5,0.05 -0.99,-0.02 -1.43,-0.18 -0.45,-0.17 -0.84,-0.45 -1.14,-0.82 -0.33,-0.4 -0.54,-0.91 -0.59,-1.52 -0.02,-0.18 0.05,-0.34 0.16,-0.45l2.75 -3.27c0.3,0.23 0.62,0.44 0.96,0.63l-2.7 3.21c0.05,0.28 0.16,0.5 0.3,0.69 0.17,0.21 0.4,0.36 0.66,0.46 0.28,0.11 0.6,0.14 0.94,0.12 0.54,-0.05 1.11,-0.27 1.63,-0.68l0.99 -0.82c0.25,-0.21 0.46,-0.4 0.67,-0.59 0.46,-0.42 0.92,-0.84 1.4,-1.12 1.11,-0.67 2.22,-0.69 3.32,1.15l5.62 10.14 1.91 0 0 -11.97zm-11.03 -13.57c3.45,0 6.24,2.79 6.24,6.24 0,3.45 -2.79,6.24 -6.24,6.24 -3.45,0 -6.24,-2.79 -6.24,-6.24 0,-3.45 2.79,-6.24 6.24,-6.24zm-1.74 5.66c0.21,0.12 0.39,0.24 0.56,0.37 0.13,0.1 0.25,0.2 0.36,0.32 0.3,-0.44 0.87,-1.16 1.43,-1.76 0.47,-0.5 0.94,-0.92 1.26,-1.04l0.03 -0.01 1.66 0 -0.22 0.25c-0.88,0.96 -1.56,1.77 -2.18,2.61 -0.62,0.85 -1.17,1.75 -1.77,2.92l-0.14 0.26 -0.13 -0.27c-0.31,-0.67 -0.61,-1.23 -0.98,-1.73 -0.36,-0.49 -0.81,-0.93 -1.42,-1.35l-0.29 -0.2 1.78 -0.4 0.05 0.03 0 0zm-15.8 16.48c0.54,0 0.98,0.44 0.98,0.98 0,0.54 -0.44,0.98 -0.98,0.98 -0.55,0 -0.99,-0.44 -0.99,-0.98 0,-0.54 0.44,-0.98 0.99,-0.98zm33.59 0c0.54,0 0.98,0.44 0.98,0.98 0,0.54 -0.44,0.98 -0.98,0.98 -0.54,0 -0.98,-0.44 -0.98,-0.98 0,-0.54 0.44,-0.98 0.98,-0.98z"></path> </g> </g> </svg>