<svg xmlns="http://www.w3.org/2000/svg" id="Layer_1" data-name="Layer 1" viewBox="0 0 91 91"><defs><style>.cls-1{fill:#fff;}.cls-2{fill:#083264;}</style></defs><circle class="cls-1" cx="45.5" cy="45.5" r="45.5"></circle><path class="cls-2" d="M53.85,42.87h0c-.06.17-.23.17-.38.19a14.42,14.42,0,0,0-3.27.69,15.6,15.6,0,0,0-7.7,5.71c-.27.39-.52.8-.76,1.22l-.12-.12q.36-.62.78-1.2a16.59,16.59,0,0,1,3.79-3.73,14.7,14.7,0,0,1,7.42-2.72Z" transform="translate(0.04 0)"></path><path class="cls-2" d="M70.29,42.55a3.85,3.85,0,0,0-.27.28c0-.22.17-.36.31-.5a11.9,11.9,0,0,0,2.6-3.9,11.73,11.73,0,0,0,.26-8.33,1.05,1.05,0,0,1,.34-1.36,3.53,3.53,0,0,0,1.35-2.84,2.16,2.16,0,0,1,.58-1.41c1.34-1.57,2.65-3.16,4-4.76a1.43,1.43,0,0,0,0-2.06,2.17,2.17,0,0,0-.9-.44L74.79,16c-2.5-.79-5-1.6-7.49-2.4-1.54-.48-3.06-1-4.6-1.47a2.51,2.51,0,0,0-1.58,0c-2.83.94-5.67,1.83-8.51,2.74-2.35.77-4.7,1.5-7,2.28l-.43.15a1.4,1.4,0,0,0-.68,2.26c.74,1,1.58,1.9,2.35,2.86.64.79,1.3,1.57,2,2.34a1.22,1.22,0,0,1,.32.88,3.59,3.59,0,0,0,1.28,3,1.12,1.12,0,0,1,.35,1.38,11.73,11.73,0,0,0,2.81,12.24l.18.19c.09.11.2.22.16.38-.4-.44-.79-.82-1.12-1.24a11.78,11.78,0,0,1-2.07-11.85.63.63,0,0,0-.21-.82,3.75,3.75,0,0,1-1.51-3.31.89.89,0,0,0-.25-.68c-1.39-1.66-2.78-3.33-4.15-5-1-1.22-.67-2.35.83-2.83l15.8-5.08a2.46,2.46,0,0,1,1.63,0l15.84,5.1a1.58,1.58,0,0,1,.82,2.75l-4.18,5a.93.93,0,0,0-.27.72A3.87,3.87,0,0,1,73.4,29a.52.52,0,0,0-.2.68A11.84,11.84,0,0,1,70.29,42.55Z" transform="translate(0.04 0)"></path><path class="cls-2" d="M83.16,63.85a.17.17,0,0,1,.11-.2,1.65,1.65,0,0,0,1-1.66,27.51,27.51,0,0,0-.53-7.52,15,15,0,0,0-3.81-6.77,15.2,15.2,0,0,0-6.58-4.06,15.94,15.94,0,0,0-2.73-.56c-.19,0-.45,0-.53-.2h0c.79.12,1.53.19,2.24.36A15.55,15.55,0,0,1,84.33,58.65c0,1.06,0,2.13,0,3.2A1.83,1.83,0,0,1,83.16,63.85Z" transform="translate(0.04 0)"></path><path class="cls-2" d="M75.39,56.13c-.78,0-1.56,0-2.33,0s-1.56,0-2.33,0a1.54,1.54,0,0,0-1.63,1.51,1.52,1.52,0,0,0,1.57,1.57c1.58,0,3.17,0,4.76,0a1.54,1.54,0,1,0,0-3.08Zm0,0c-.78,0-1.56,0-2.33,0s-1.56,0-2.33,0a1.54,1.54,0,0,0-1.63,1.51,1.52,1.52,0,0,0,1.57,1.57c1.58,0,3.17,0,4.76,0a1.54,1.54,0,1,0,0-3.08Zm0,0c-.78,0-1.56,0-2.33,0s-1.56,0-2.33,0a1.54,1.54,0,0,0-1.63,1.51,1.52,1.52,0,0,0,1.57,1.57c1.58,0,3.17,0,4.76,0a1.54,1.54,0,1,0,0-3.08Zm0,0c-.78,0-1.56,0-2.33,0s-1.56,0-2.33,0a1.54,1.54,0,0,0-1.63,1.51,1.52,1.52,0,0,0,1.57,1.57c1.58,0,3.17,0,4.76,0a1.54,1.54,0,1,0,0-3.08Zm0,0c-.78,0-1.56,0-2.33,0s-1.56,0-2.33,0a1.54,1.54,0,0,0-1.63,1.51,1.52,1.52,0,0,0,1.57,1.57c1.58,0,3.17,0,4.76,0a1.54,1.54,0,1,0,0-3.08Zm0,0c-.78,0-1.56,0-2.33,0s-1.56,0-2.33,0a1.54,1.54,0,0,0-1.63,1.51,1.52,1.52,0,0,0,1.57,1.57c1.58,0,3.17,0,4.76,0a1.54,1.54,0,1,0,0-3.08Zm0,0c-.78,0-1.56,0-2.33,0s-1.56,0-2.33,0a1.54,1.54,0,0,0-1.63,1.51,1.52,1.52,0,0,0,1.57,1.57c1.58,0,3.17,0,4.76,0a1.54,1.54,0,1,0,0-3.08Zm0,0c-.78,0-1.56,0-2.33,0s-1.56,0-2.33,0a1.54,1.54,0,0,0-1.63,1.51,1.52,1.52,0,0,0,1.57,1.57c1.58,0,3.17,0,4.76,0a1.54,1.54,0,1,0,0-3.08Zm0,0c-.78,0-1.56,0-2.33,0s-1.56,0-2.33,0a1.54,1.54,0,0,0-1.63,1.51,1.52,1.52,0,0,0,1.57,1.57c1.58,0,3.17,0,4.76,0a1.54,1.54,0,1,0,0-3.08Zm0,0c-.78,0-1.56,0-2.33,0s-1.56,0-2.33,0a1.54,1.54,0,0,0-1.63,1.51,1.52,1.52,0,0,0,1.57,1.57c1.58,0,3.17,0,4.76,0a1.54,1.54,0,1,0,0-3.08Zm0,0c-.78,0-1.56,0-2.33,0s-1.56,0-2.33,0a1.54,1.54,0,0,0-1.63,1.51,1.52,1.52,0,0,0,1.57,1.57c1.58,0,3.17,0,4.76,0a1.54,1.54,0,1,0,0-3.08Zm0,0c-.78,0-1.56,0-2.33,0s-1.56,0-2.33,0a1.54,1.54,0,0,0-1.63,1.51,1.52,1.52,0,0,0,1.57,1.57c1.58,0,3.17,0,4.76,0a1.54,1.54,0,1,0,0-3.08Zm0,0c-.78,0-1.56,0-2.33,0s-1.56,0-2.33,0a1.54,1.54,0,0,0-1.63,1.51,1.52,1.52,0,0,0,1.57,1.57c1.58,0,3.17,0,4.76,0a1.54,1.54,0,1,0,0-3.08Zm0,0c-.78,0-1.56,0-2.33,0s-1.56,0-2.33,0a1.54,1.54,0,0,0-1.63,1.51,1.52,1.52,0,0,0,1.57,1.57c1.58,0,3.17,0,4.76,0a1.54,1.54,0,1,0,0-3.08Zm9,5.72c0-1.07,0-2.14,0-3.2A15.55,15.55,0,0,0,72.27,43.23c-.71-.17-1.45-.24-2.24-.36h0l0,0a3.85,3.85,0,0,1,.27-.28A11.84,11.84,0,0,0,73.2,29.72a.52.52,0,0,1,.2-.68A3.87,3.87,0,0,0,75,25.66a.93.93,0,0,1,.27-.72l4.18-5a1.58,1.58,0,0,0-.82-2.75L62.8,12.05a2.46,2.46,0,0,0-1.63,0l-15.8,5.08c-1.5.48-1.84,1.61-.83,2.83,1.37,1.67,2.76,3.34,4.15,5a.89.89,0,0,1,.25.68A3.75,3.75,0,0,0,50.45,29a.63.63,0,0,1,.21.82,11.78,11.78,0,0,0,2.07,11.85c.33.42.72.8,1.12,1.24h0l-.25.05a14.7,14.7,0,0,0-7.42,2.72,16.59,16.59,0,0,0-3.79,3.73q-.42.59-.78,1.2l.12.12a.12.12,0,0,1,.05.05,9.69,9.69,0,0,1,1.9,2.7c.1-.25.22-.5.34-.74s.28-.54.44-.79a12.31,12.31,0,0,1,5.69-5c.27-.12.35-.09.45.2.5,1.52,1,3,1.56,4.54a1.58,1.58,0,0,0,2.76.78l5.36-4.59.34-.29c0,4.36,0,8.6,0,12.85,0,.38-.22.3-.42.3H45.47a7.36,7.36,0,0,1-1.65,3.11H83.16A1.83,1.83,0,0,0,84.34,61.85ZM70.17,46c.37,0,.43.15.3.49-.25.64-.46,1.3-.67,2-.07.22-.11.33-.35.12-1-.85-2-1.69-3.06-2.63C67.75,46,69,45.92,70.17,46ZM62.3,15.15l13.1,4.22.34.14-3,3.66a.38.38,0,0,1-.48.14,29.31,29.31,0,0,0-7.84-1.19,47,47,0,0,0-9.26.41,18.34,18.34,0,0,0-3.36.75c-.17.06-.33.15-.5-.05-1-1.24-2-2.47-3.1-3.74L52.76,18l8.81-2.84A1.14,1.14,0,0,1,62.3,15.15Zm-10,11.28c3.45-1.67,16.09-1.67,19.4,0a5.66,5.66,0,0,1-2.4,1.37,24.31,24.31,0,0,1-10.82.86,14.49,14.49,0,0,1-5.26-1.53,4.72,4.72,0,0,1-.55-.36C52.52,26.68,52.42,26.57,52.27,26.43Zm2.17,22.36c-.3-.88-.56-1.7-.86-2.5-.1-.28.05-.27.23-.28,1.27-.08,2.54-.06,3.94,0Zm-1-17.65c.11-.32.2-.41.56-.3a27.37,27.37,0,0,0,11.38,1,21.16,21.16,0,0,0,4.6-1c.32-.11.35,0,.43.26a8.93,8.93,0,1,1-17,0ZM80.81,60.75c-2,0-4.06,0-6.09,0H64.17c-.3,0-.44,0-.44-.4q0-6.12,0-12.23c0-.08,0-.16,0-.33L69,52.27l.31.27A1.57,1.57,0,0,0,72,51.79c.5-1.44,1-2.88,1.46-4.32.2-.58.21-.6.75-.32a12.25,12.25,0,0,1,7,10.6c.06.86,0,1.72,0,2.58C81.25,60.67,81.14,60.75,80.81,60.75Zm-5.42-4.62c-.78,0-1.56,0-2.33,0s-1.56,0-2.33,0a1.54,1.54,0,0,0-1.63,1.51,1.52,1.52,0,0,0,1.57,1.57c1.58,0,3.17,0,4.76,0a1.54,1.54,0,1,0,0-3.08Zm0,0c-.78,0-1.56,0-2.33,0s-1.56,0-2.33,0a1.54,1.54,0,0,0-1.63,1.51,1.52,1.52,0,0,0,1.57,1.57c1.58,0,3.17,0,4.76,0a1.54,1.54,0,1,0,0-3.08Zm0,0c-.78,0-1.56,0-2.33,0s-1.56,0-2.33,0a1.54,1.54,0,0,0-1.63,1.51,1.52,1.52,0,0,0,1.57,1.57c1.58,0,3.17,0,4.76,0a1.54,1.54,0,1,0,0-3.08Zm0,0c-.78,0-1.56,0-2.33,0s-1.56,0-2.33,0a1.54,1.54,0,0,0-1.63,1.51,1.52,1.52,0,0,0,1.57,1.57c1.58,0,3.17,0,4.76,0a1.54,1.54,0,1,0,0-3.08Zm0,0c-.78,0-1.56,0-2.33,0s-1.56,0-2.33,0a1.54,1.54,0,0,0-1.63,1.51,1.52,1.52,0,0,0,1.57,1.57c1.58,0,3.17,0,4.76,0a1.54,1.54,0,1,0,0-3.08Zm0,0c-.78,0-1.56,0-2.33,0s-1.56,0-2.33,0a1.54,1.54,0,0,0-1.63,1.51,1.52,1.52,0,0,0,1.57,1.57c1.58,0,3.17,0,4.76,0a1.54,1.54,0,1,0,0-3.08Zm0,0c-.78,0-1.56,0-2.33,0s-1.56,0-2.33,0a1.54,1.54,0,0,0-1.63,1.51,1.52,1.52,0,0,0,1.57,1.57c1.58,0,3.17,0,4.76,0a1.54,1.54,0,1,0,0-3.08Zm0,0c-.78,0-1.56,0-2.33,0s-1.56,0-2.33,0a1.54,1.54,0,0,0-1.63,1.51,1.52,1.52,0,0,0,1.57,1.57c1.58,0,3.17,0,4.76,0a1.54,1.54,0,1,0,0-3.08Zm0,0c-.78,0-1.56,0-2.33,0s-1.56,0-2.33,0a1.54,1.54,0,0,0-1.63,1.51,1.52,1.52,0,0,0,1.57,1.57c1.58,0,3.17,0,4.76,0a1.54,1.54,0,1,0,0-3.08Zm0,0c-.78,0-1.56,0-2.33,0s-1.56,0-2.33,0a1.54,1.54,0,0,0-1.63,1.51,1.52,1.52,0,0,0,1.57,1.57c1.58,0,3.17,0,4.76,0a1.54,1.54,0,1,0,0-3.08Zm0,0c-.78,0-1.56,0-2.33,0s-1.56,0-2.33,0a1.54,1.54,0,0,0-1.63,1.51,1.52,1.52,0,0,0,1.57,1.57c1.58,0,3.17,0,4.76,0a1.54,1.54,0,1,0,0-3.08Zm0,0c-.78,0-1.56,0-2.33,0s-1.56,0-2.33,0a1.54,1.54,0,0,0-1.63,1.51,1.52,1.52,0,0,0,1.57,1.57c1.58,0,3.17,0,4.76,0a1.54,1.54,0,1,0,0-3.08Zm0,0c-.78,0-1.56,0-2.33,0s-1.56,0-2.33,0a1.54,1.54,0,0,0-1.63,1.51,1.52,1.52,0,0,0,1.57,1.57c1.58,0,3.17,0,4.76,0a1.54,1.54,0,1,0,0-3.08Z" transform="translate(0.04 0)"></path><path class="cls-2" d="M77,57.65a1.5,1.5,0,0,1-1.56,1.56c-1.59,0-3.18,0-4.76,0a1.52,1.52,0,0,1-1.57-1.57,1.54,1.54,0,0,1,1.63-1.51c.77,0,1.55,0,2.33,0s1.55,0,2.33,0A1.51,1.51,0,0,1,77,57.65Z" transform="translate(0.04 0)"></path><path class="cls-2" d="M77,57.65a1.5,1.5,0,0,1-1.56,1.56c-1.59,0-3.18,0-4.76,0a1.52,1.52,0,0,1-1.57-1.57,1.54,1.54,0,0,1,1.63-1.51c.77,0,1.55,0,2.33,0s1.55,0,2.33,0A1.51,1.51,0,0,1,77,57.65Z" transform="translate(0.04 0)"></path><path class="cls-2" d="M24.63,43.31c-.85-.12-1.71-.25-2.57-.35a.6.6,0,0,1-.56-.4c-.34-.75-.72-1.5-1.08-2.25a.74.74,0,0,0-.69-.52.75.75,0,0,0-.7.51c-.33.72-.71,1.41-1,2.14a.79.79,0,0,1-.75.53c-.79.08-1.57.21-2.36.31a.73.73,0,0,0-.68.54.74.74,0,0,0,.29.77c.62.59,1.23,1.19,1.85,1.76a.54.54,0,0,1,.19.54c-.16.82-.29,1.65-.46,2.47a.77.77,0,0,0,.23.87.78.78,0,0,0,.94,0c.72-.39,1.45-.76,2.16-1.17a.56.56,0,0,1,.64,0c.74.42,1.49.81,2.24,1.22a.72.72,0,0,0,1.09-.8c-.16-.82-.29-1.64-.46-2.46a.65.65,0,0,1,.23-.69c.61-.56,1.19-1.14,1.79-1.71a.78.78,0,0,0,.29-.66A.65.65,0,0,0,24.63,43.31ZM21.8,45.66a1,1,0,0,0-.34,1.09c.13.51.19,1,.29,1.63-.53-.29-1-.54-1.49-.82a1,1,0,0,0-1.07,0c-.47.27-1,.52-1.49.81.11-.65.2-1.21.32-1.77a.87.87,0,0,0-.26-.84c-.4-.42-.78-.86-1.16-1.28.42-.06.92-.16,1.42-.19a1.07,1.07,0,0,0,1-.72c.2-.47.44-.92.71-1.46.25.51.5,1,.69,1.44a1.09,1.09,0,0,0,1,.74c.49,0,1,.13,1.43.19C22.53,44.87,22.19,45.29,21.8,45.66Z" transform="translate(0.04 0)"></path><path class="cls-2" d="M40.24,37.42c-.11-.39-.41-.5-.77-.54-.84-.11-1.68-.24-2.53-.34a.42.42,0,0,1-.38-.29c-.36-.75-.73-1.49-1.09-2.25-.15-.32-.32-.6-.73-.6s-.58.26-.74.58c-.35.76-.73,1.5-1.09,2.26a.47.47,0,0,1-.42.3c-.84.1-1.68.23-2.53.34a.78.78,0,0,0-.73.52.75.75,0,0,0,.28.82c.61.57,1.21,1.16,1.83,1.72a.61.61,0,0,1,.2.62c-.16.8-.29,1.62-.45,2.42a.78.78,0,0,0,.24.87c.32.25.62.14.94,0,.7-.39,1.42-.75,2.12-1.15a.59.59,0,0,1,.68,0c.71.41,1.44.78,2.16,1.17a1.28,1.28,0,0,0,.47.17.74.74,0,0,0,.72-.91c-.15-.84-.29-1.68-.47-2.51a.58.58,0,0,1,.22-.64c.59-.55,1.16-1.12,1.75-1.68A.77.77,0,0,0,40.24,37.42Zm-3.52,1.94a.84.84,0,0,0-.27.87c.12.56.2,1.12.32,1.75-.53-.28-1-.52-1.49-.8a1,1,0,0,0-1.08,0c-.47.28-1,.52-1.5.81.11-.63.2-1.19.31-1.75a.84.84,0,0,0-.26-.87l-1.31-1.24c.63-.09,1.2-.18,1.77-.25A.87.87,0,0,0,34,37.3c.23-.5.48-1,.76-1.58.26.54.51,1,.72,1.5a1,1,0,0,0,.9.66c.53,0,1.07.15,1.68.24Z" transform="translate(0.04 0)"></path><path class="cls-2" d="M37.88,56.81,36.6,58.09l-.05,0-.11.12-2.36,2.36c-.53.52-1,.46-1.34-.19l-1.2-2.1c-.27-.47-.2-.84.16-1.07s.77-.1,1.06.38.55,1,.85,1.47l2.87-2.88.13-.13h0l.14-.13a.88.88,0,0,1,.68-.35A.67.67,0,0,1,38,56,.69.69,0,0,1,37.88,56.81Z" transform="translate(0.04 0)"></path><path class="cls-2" d="M40.78,54.27a7,7,0,0,0-3.35-3l-.2-.08a7,7,0,1,0,.32,12.85l.21-.1a7,7,0,0,0,3.48-3.82,6.88,6.88,0,0,0,.45-2.41A7,7,0,0,0,40.78,54.27Zm-4,8.57-.18.07a5.47,5.47,0,0,1-1.86.32,5.54,5.54,0,0,1,0-11.08,5.49,5.49,0,0,1,2.19.44l.16.07a5.54,5.54,0,0,1-.29,10.18Z" transform="translate(0.04 0)"></path><path class="cls-2" d="M47.34,69.71c-1-1.75-2-3.5-3-5.25l-.1-.19a.56.56,0,0,1,0-.42.89.89,0,0,1,.09-.16,11.27,11.27,0,0,0,1.33-2.95c.06-.21.12-.42.16-.63a11.45,11.45,0,0,0-1.33-8.2,10.82,10.82,0,0,0-2-2.44l-.09-.09h0A11.34,11.34,0,0,0,39,47.25l-.21-.08a11.61,11.61,0,0,0-4.27-.78,10,10,0,0,0-1.85.17,11.3,11.3,0,0,0-7.53,17.15.59.59,0,0,1,0,.73c-1.05,1.78-2.07,3.58-3.11,5.36a.77.77,0,0,0,0,.91.76.76,0,0,0,.83.25c1-.17,1.94-.31,2.91-.47a.57.57,0,0,1,.63.24c.47.62,1,1.22,1.47,1.82s1,.6,1.41-.1c.7-1.2,1.4-2.41,2.09-3.62a.35.35,0,0,1,.47-.21,10.91,10.91,0,0,0,5.7,0c.27-.07.38,0,.51.23.69,1.21,1.39,2.42,2.09,3.62.38.67.88.7,1.38.1s1-1.2,1.47-1.82a.63.63,0,0,1,.71-.26c.92.16,1.85.29,2.78.46a.82.82,0,0,0,.91-.26A.83.83,0,0,0,47.34,69.71ZM30.06,68.34c-.53.88-1,1.77-1.57,2.71-.45-.55-.9-1.07-1.31-1.61A1,1,0,0,0,26.07,69c-.67.14-1.35.22-2.11.33l2.4-4.15c.18.21.31.41.48.58a11.4,11.4,0,0,0,3.06,2.12C30.11,68,30.23,68.07,30.06,68.34Zm4.66-.76a9.89,9.89,0,0,1,0-19.78,10,10,0,0,1,3.49.62l.22.09a9.85,9.85,0,0,1,3.17,2.06l.12.12a.12.12,0,0,1,.05.05,9.69,9.69,0,0,1,1.9,2.7,10,10,0,0,1,.94,4.23,10.25,10.25,0,0,1-.29,2.44,9.87,9.87,0,0,1-9.61,7.47ZM43.36,69a1,1,0,0,0-1.07.4c-.41.55-.86,1.07-1.32,1.63-.55-1-1.08-1.87-1.61-2.77-.07-.13-.13-.22.06-.3a11.45,11.45,0,0,0,3.72-2.73c.78,1.37,1.55,2.7,2.35,4.11C44.73,69.24,44,69.16,43.36,69Z" transform="translate(0.04 0)"></path><path class="cls-2" d="M37.88,56.81,36.6,58.09l-.05,0-.11.12-2.36,2.36c-.53.52-1,.46-1.34-.19l-1.2-2.1c-.27-.47-.2-.84.16-1.07s.77-.1,1.06.38.55,1,.85,1.47l2.87-2.88.13-.13h0l.14-.13a.88.88,0,0,1,.68-.35A.67.67,0,0,1,38,56,.69.69,0,0,1,37.88,56.81Z" transform="translate(0.04 0)"></path><path class="cls-2" d="M40.78,54.27a7,7,0,0,0-3.35-3l-.2-.08a7,7,0,1,0,.32,12.85l.21-.1a7,7,0,0,0,3.48-3.82,6.88,6.88,0,0,0,.45-2.41A7,7,0,0,0,40.78,54.27Zm-4,8.57-.18.07a5.47,5.47,0,0,1-1.86.32,5.54,5.54,0,0,1,0-11.08,5.49,5.49,0,0,1,2.19.44l.16.07a5.54,5.54,0,0,1-.29,10.18Z" transform="translate(0.04 0)"></path><path class="cls-2" d="M47.34,69.71c-1-1.75-2-3.5-3-5.25l-.1-.19a.56.56,0,0,1,0-.42.89.89,0,0,1,.09-.16,11.27,11.27,0,0,0,1.33-2.95c.06-.21.12-.42.16-.63a11.45,11.45,0,0,0-1.33-8.2,10.82,10.82,0,0,0-2-2.44l-.09-.09h0A11.34,11.34,0,0,0,39,47.25l-.21-.08a11.61,11.61,0,0,0-4.27-.78,10,10,0,0,0-1.85.17,11.3,11.3,0,0,0-7.53,17.15.59.59,0,0,1,0,.73c-1.05,1.78-2.07,3.58-3.11,5.36a.77.77,0,0,0,0,.91.76.76,0,0,0,.83.25c1-.17,1.94-.31,2.91-.47a.57.57,0,0,1,.63.24c.47.62,1,1.22,1.47,1.82s1,.6,1.41-.1c.7-1.2,1.4-2.41,2.09-3.62a.35.35,0,0,1,.47-.21,10.91,10.91,0,0,0,5.7,0c.27-.07.38,0,.51.23.69,1.21,1.39,2.42,2.09,3.62.38.67.88.7,1.38.1s1-1.2,1.47-1.82a.63.63,0,0,1,.71-.26c.92.16,1.85.29,2.78.46a.82.82,0,0,0,.91-.26A.83.83,0,0,0,47.34,69.71ZM30.06,68.34c-.53.88-1,1.77-1.57,2.71-.45-.55-.9-1.07-1.31-1.61A1,1,0,0,0,26.07,69c-.67.14-1.35.22-2.11.33l2.4-4.15c.18.21.31.41.48.58a11.4,11.4,0,0,0,3.06,2.12C30.11,68,30.23,68.07,30.06,68.34Zm4.66-.76a9.89,9.89,0,0,1,0-19.78,10,10,0,0,1,3.49.62l.22.09a9.85,9.85,0,0,1,3.17,2.06l.12.12a.12.12,0,0,1,.05.05,9.69,9.69,0,0,1,1.9,2.7,10,10,0,0,1,.94,4.23,10.25,10.25,0,0,1-.29,2.44,9.87,9.87,0,0,1-9.61,7.47ZM43.36,69a1,1,0,0,0-1.07.4c-.41.55-.86,1.07-1.32,1.63-.55-1-1.08-1.87-1.61-2.77-.07-.13-.13-.22.06-.3a11.45,11.45,0,0,0,3.72-2.73c.78,1.37,1.55,2.7,2.35,4.11C44.73,69.24,44,69.16,43.36,69Z" transform="translate(0.04 0)"></path><path class="cls-2" d="M40.24,37.42c-.11-.39-.41-.5-.77-.54-.84-.11-1.68-.24-2.53-.34a.42.42,0,0,1-.38-.29c-.36-.75-.73-1.49-1.09-2.25-.15-.32-.32-.6-.73-.6s-.58.26-.74.58c-.35.76-.73,1.5-1.09,2.26a.47.47,0,0,1-.42.3c-.84.1-1.68.23-2.53.34a.78.78,0,0,0-.73.52.75.75,0,0,0,.28.82c.61.57,1.21,1.16,1.83,1.72a.61.61,0,0,1,.2.62c-.16.8-.29,1.62-.45,2.42a.78.78,0,0,0,.24.87c.32.25.62.14.94,0,.7-.39,1.42-.75,2.12-1.15a.59.59,0,0,1,.68,0c.71.41,1.44.78,2.16,1.17a1.28,1.28,0,0,0,.47.17.74.74,0,0,0,.72-.91c-.15-.84-.29-1.68-.47-2.51a.58.58,0,0,1,.22-.64c.59-.55,1.16-1.12,1.75-1.68A.77.77,0,0,0,40.24,37.42Zm-3.52,1.94a.84.84,0,0,0-.27.87c.12.56.2,1.12.32,1.75-.53-.28-1-.52-1.49-.8a1,1,0,0,0-1.08,0c-.47.28-1,.52-1.5.81.11-.63.2-1.19.31-1.75a.84.84,0,0,0-.26-.87l-1.31-1.24c.63-.09,1.2-.18,1.77-.25A.87.87,0,0,0,34,37.3c.23-.5.48-1,.76-1.58.26.54.51,1,.72,1.5a1,1,0,0,0,.9.66c.53,0,1.07.15,1.68.24Z" transform="translate(0.04 0)"></path><path class="cls-2" d="M15.47,55.48a.67.67,0,0,0,.21-.76.68.68,0,0,0-.61-.48c-.81-.11-1.63-.25-2.44-.33a.74.74,0,0,1-.7-.47c-.32-.74-.7-1.46-1-2.18-.15-.32-.34-.55-.72-.54a.76.76,0,0,0-.69.53c-.34.72-.71,1.42-1,2.14a.77.77,0,0,1-.72.51c-.79.08-1.57.2-2.36.31A.72.72,0,0,0,5,55.53L6.82,57.3c.11.1.24.18.2.32-.16.94-.31,1.84-.48,2.73a.73.73,0,0,0,.25.82.75.75,0,0,0,.87,0c.74-.41,1.5-.79,2.24-1.21a.51.51,0,0,1,.59,0c.75.42,1.52.82,2.28,1.23a.71.71,0,0,0,1.09-.8c-.15-.83-.29-1.67-.47-2.5a.56.56,0,0,1,.2-.61C14.23,56.69,14.85,56.08,15.47,55.48Zm-3.24,1.16a.93.93,0,0,0-.31.94c.12.55.2,1.11.3,1.73-.57-.31-1.09-.57-1.6-.86a.81.81,0,0,0-.87,0c-.51.28-1,.55-1.6.84.11-.59.19-1.14.31-1.68a1,1,0,0,0-.31-1c-.4-.38-.76-.8-1.13-1.2.48-.07,1-.16,1.49-.2a1,1,0,0,0,1-.69c.2-.49.45-.95.71-1.49.28.56.54,1.06.76,1.57a1,1,0,0,0,.85.6c.53.05,1.06.14,1.57.2C13,55.83,12.63,56.25,12.23,56.64Z" transform="translate(0.04 0)"></path><path class="cls-2" d="M24.63,43.31c-.85-.12-1.71-.25-2.57-.35a.6.6,0,0,1-.56-.4c-.34-.75-.72-1.5-1.08-2.25a.74.74,0,0,0-.69-.52.75.75,0,0,0-.7.51c-.33.72-.71,1.41-1,2.14a.79.79,0,0,1-.75.53c-.79.08-1.57.21-2.36.31a.73.73,0,0,0-.68.54.74.74,0,0,0,.29.77c.62.59,1.23,1.19,1.85,1.76a.54.54,0,0,1,.19.54c-.16.82-.29,1.65-.46,2.47a.77.77,0,0,0,.23.87.78.78,0,0,0,.94,0c.72-.39,1.45-.76,2.16-1.17a.56.56,0,0,1,.64,0c.74.42,1.49.81,2.24,1.22a.72.72,0,0,0,1.09-.8c-.16-.82-.29-1.64-.46-2.46a.65.65,0,0,1,.23-.69c.61-.56,1.19-1.14,1.79-1.71a.78.78,0,0,0,.29-.66A.65.65,0,0,0,24.63,43.31ZM21.8,45.66a1,1,0,0,0-.34,1.09c.13.51.19,1,.29,1.63-.53-.29-1-.54-1.49-.82a1,1,0,0,0-1.07,0c-.47.27-1,.52-1.49.81.11-.65.2-1.21.32-1.77a.87.87,0,0,0-.26-.84c-.4-.42-.78-.86-1.16-1.28.42-.06.92-.16,1.42-.19a1.07,1.07,0,0,0,1-.72c.2-.47.44-.92.71-1.46.25.51.5,1,.69,1.44a1.09,1.09,0,0,0,1,.74c.49,0,1,.13,1.43.19C22.53,44.87,22.19,45.29,21.8,45.66Z" transform="translate(0.04 0)"></path><path class="cls-2" d="M37.88,56.81,36.6,58.09l-.05,0-.11.12-2.36,2.36c-.53.52-1,.46-1.34-.19l-1.2-2.1c-.27-.47-.2-.84.16-1.07s.77-.1,1.06.38.55,1,.85,1.47l2.87-2.88.13-.13h0l.14-.13a.88.88,0,0,1,.68-.35A.67.67,0,0,1,38,56,.69.69,0,0,1,37.88,56.81Z" transform="translate(0.04 0)"></path><path class="cls-2" d="M40.78,54.27a7,7,0,0,0-3.35-3l-.2-.08a7,7,0,1,0,.32,12.85l.21-.1a7,7,0,0,0,3.48-3.82,6.88,6.88,0,0,0,.45-2.41A7,7,0,0,0,40.78,54.27Zm-4,8.57-.18.07a5.47,5.47,0,0,1-1.86.32,5.54,5.54,0,0,1,0-11.08,5.49,5.49,0,0,1,2.19.44l.16.07a5.54,5.54,0,0,1-.29,10.18Z" transform="translate(0.04 0)"></path><path class="cls-2" d="M37.88,56.81,36.6,58.09l-.05,0-.11.12-2.36,2.36c-.53.52-1,.46-1.34-.19l-1.2-2.1c-.27-.47-.2-.84.16-1.07s.77-.1,1.06.38.55,1,.85,1.47l2.87-2.88.13-.13h0l.14-.13a.88.88,0,0,1,.68-.35A.67.67,0,0,1,38,56,.69.69,0,0,1,37.88,56.81Z" transform="translate(0.04 0)"></path><path class="cls-2" d="M40.78,54.27a7,7,0,0,0-3.35-3l-.2-.08a7,7,0,1,0,.32,12.85l.21-.1a7,7,0,0,0,3.48-3.82,6.88,6.88,0,0,0,.45-2.41A7,7,0,0,0,40.78,54.27Zm-4,8.57-.18.07a5.47,5.47,0,0,1-1.86.32,5.54,5.54,0,0,1,0-11.08,5.49,5.49,0,0,1,2.19.44l.16.07a5.54,5.54,0,0,1-.29,10.18Z" transform="translate(0.04 0)"></path><path class="cls-2" d="M37.88,56.81,36.6,58.09l-.05,0-.11.12-2.36,2.36c-.53.52-1,.46-1.34-.19l-1.2-2.1c-.27-.47-.2-.84.16-1.07s.77-.1,1.06.38.55,1,.85,1.47l2.87-2.88.13-.13h0l.14-.13a.88.88,0,0,1,.68-.35A.67.67,0,0,1,38,56,.69.69,0,0,1,37.88,56.81Z" transform="translate(0.04 0)"></path><path class="cls-2" d="M37.88,56.81,36.6,58.09l-.05,0-.11.12-2.36,2.36c-.53.52-1,.46-1.34-.19l-1.2-2.1c-.27-.47-.2-.84.16-1.07s.77-.1,1.06.38.55,1,.85,1.47l2.87-2.88.13-.13h0l.14-.13a.88.88,0,0,1,.68-.35A.67.67,0,0,1,38,56,.69.69,0,0,1,37.88,56.81Z" transform="translate(0.04 0)"></path></svg>