<svg xmlns="http://www.w3.org/2000/svg" xmlns:xlink="http://www.w3.org/1999/xlink" xml:space="preserve" width="91px" height="91px" style="shape-rendering:geometricPrecision; text-rendering:geometricPrecision; image-rendering:optimizeQuality; fill-rule:evenodd; clip-rule:evenodd" viewBox="0 0 200.65 200.65"> <defs> <style type="text/css"> .fil1 {fill:#083264} .fil0 {fill:white} </style> </defs> <g id="Layer_x0020_1"> <metadata id="CorelCorpID_0Corel-Layer"></metadata> <g id="_1718363049504"> <circle class="fil0" cx="100.33" cy="100.33" r="100.33"></circle> <g> <path class="fil1" d="M107.8 111.71l3.3 -3.19c4.66,3.03 4.01,3.08 7.46,1.61 1.72,-0.73 3.21,-0.8 3.87,-3.49 0.22,-0.92 0.52,-2.2 0.52,-3.16l4.77 0c0,1.78 0.49,4.2 1.77,5.37 0.61,0.56 4.52,2.21 5.16,2.21 1.6,0 3.87,-1.85 4.98,-2.6l3.19 3.3c-2.94,4.53 -3.13,4.01 -1.61,7.47 0.91,2.1 0.9,3.25 3.52,3.83 0.92,0.2 2.25,0.54 3.12,0.56l0 4.76c-1.73,0.04 -4.25,0.57 -5.37,1.78 -0.69,0.75 -0.78,1.43 -1.21,2.46 -1.45,3.46 -1.65,2.81 1.61,7.67l-3.31 3.2c-4.52,-2.94 -4,-3.13 -7.46,-1.62 -1.89,0.83 -3.23,0.88 -3.87,3.5 -0.22,0.92 -0.52,2.2 -0.52,3.15l-4.77 0c0,-0.97 -0.27,-2.06 -0.48,-2.98 -0.6,-2.66 -1.83,-2.84 -3.76,-3.6 -3.4,-1.36 -2.57,-1.81 -7.66,1.6l-3.2 -3.3c2.94,-4.52 3.13,-4.01 1.61,-7.46 -0.82,-1.89 -0.87,-3.23 -3.49,-3.87 -0.92,-0.23 -2.2,-0.53 -3.15,-0.53l0 -4.76c0.96,0 2.05,-0.27 2.98,-0.48 1.24,-0.28 1.57,-0.41 2.39,-1.29 0.55,-0.61 2.2,-4.53 2.2,-5.16 0,-1.61 -1.85,-3.87 -2.59,-4.98zm8.22 -8.66c-1.64,-0.14 -3.05,-2.6 -5.41,-2.6 -2.1,0 -4.07,2.67 -6.11,4.71 -2.05,2.05 -4.72,4.02 -4.72,6.12 0,1.49 0.61,1.62 0.87,2.6 -9.02,0 -18.04,0 -27.07,0 -4.19,0 -9.58,0.3 -13.63,-0.01 -5.94,-0.45 -8.94,-5.95 -5.46,-11.29l21.43 -35.08c1.54,-2.37 7.28,-12.61 8.79,-13.73 3.53,-2.64 7.81,-1.93 10.31,1.86 0.63,0.95 1.23,1.87 1.86,2.91 0.67,1.09 1.21,1.89 1.83,2.93l22.08 35.09c-1.61,0 -2.83,0.15 -3.77,1.86 -0.39,0.71 -1,3.58 -1,4.63zm-70.15 3.9c0,7.31 6.28,13.86 13.21,13.86l36.81 0 0 10.82c0,2.84 4.5,3.68 6.49,3.68 -0.13,1.65 -2.6,3.06 -2.6,5.42 0,2.1 2.67,4.07 4.72,6.11 2.04,2.05 4.01,4.71 6.11,4.71 2.36,0 3.77,-2.46 5.41,-2.6 0,0.9 0.52,3.46 0.8,4.19 0.39,1.01 1.61,2.31 2.88,2.31l11.27 0c2.81,0 3.68,-4.42 3.68,-6.5 1.64,0.14 3.05,2.6 5.41,2.6 2.1,0 4.07,-2.66 6.12,-4.71 2.04,-2.04 4.71,-4.01 4.71,-6.11 0,-2.36 -2.46,-3.77 -2.6,-5.42 2.04,0 6.49,-0.85 6.49,-3.68l0 -11.26c0,-2.81 -4.42,-3.68 -6.49,-3.68 0.14,-1.64 2.6,-3.06 2.6,-5.41 0,-1.82 -1.05,-2.45 -2.01,-3.41l-5.41 -5.41c-0.96,-0.96 -1.59,-2.01 -3.41,-2.01 -2.36,0 -3.77,2.46 -5.41,2.6 0,-1.26 -0.64,-4.12 -1.17,-4.9 -1.12,-1.63 -1.94,-1.59 -4.46,-1.59 -0.24,-0.9 -7.96,-12.87 -8.62,-13.9 -0.78,-1.2 -1.41,-2.26 -2.17,-3.47l-13.07 -20.7c-1.81,-2.88 -4.68,-8.02 -6.95,-9.94 -4.16,-3.52 -10.3,-4.43 -15.25,-1.95 -4.71,2.37 -6.39,6.28 -8.95,10.54l-9.87 16.12c-3.05,4.64 -6.73,11.13 -9.87,16.11 -1.28,2.02 -6.34,10.21 -7.25,12.23 -0.56,1.27 -1.15,3.63 -1.15,5.35z"></path> <path class="fil1" d="M120.14 126c0,-4.19 5.39,-7.07 8.83,-3.63 4.78,4.78 -2.49,12.05 -7.27,7.27 -0.7,-0.71 -1.56,-2.34 -1.56,-3.64zm-6.93 -0.65l0 1.3c0,5.9 5.58,11.48 11.48,11.48l1.29 0c5.91,0 11.48,-5.58 11.48,-11.48l0 -1.3c0,-5.9 -5.57,-11.47 -11.48,-11.47l-1.29 0c-5.92,0 -11.48,5.55 -11.48,11.47z"></path> <polygon class="fil1" points="85.49,87.89 92.42,87.89 92.42,65.37 85.49,65.37 "></polygon> <path class="fil1" d="M85.49 97.85c0,5.24 6.93,5.24 6.93,0 0,-1.57 -1.5,-3.03 -3.89,-3.03 -1.36,0 -3.04,1.68 -3.04,3.03z"></path> </g> </g> </g> </svg>