<svg xmlns="http://www.w3.org/2000/svg" xmlns:xlink="http://www.w3.org/1999/xlink" xml:space="preserve" width="91px" height="91px" style="shape-rendering:geometricPrecision; text-rendering:geometricPrecision; image-rendering:optimizeQuality; fill-rule:evenodd; clip-rule:evenodd" viewBox="0 0 5.8 5.8"> <defs> <style type="text/css"> .fil1 {fill:#083264} .fil0 {fill:white} </style> </defs> <g id="Layer_x0020_1"> <metadata id="CorelCorpID_0Corel-Layer"></metadata> <g id="_1718004211216"> <circle class="fil0" cx="2.9" cy="2.9" r="2.9"></circle> <g> <path class="fil1" d="M2.78 3.86c-0.01,-0.16 -0.1,-0.3 -0.22,-0.37 -0.07,-0.04 -0.11,-0.05 -0.14,-0.06 -0.03,0 -0.07,-0.01 -0.11,-0.01 -0.04,-0.01 -0.08,0 -0.12,0 -0.24,0 -0.48,-0.03 -0.65,0.09 -0.08,0.06 -0.16,0.17 -0.19,0.31 -0.02,0.13 0,0.34 -0.01,0.49l1.44 -0.01 0 -0.44z"></path> <path class="fil1" d="M2.85 3.86l0 0.25c0.04,0 0.06,-0.02 0.08,-0.04 0.03,-0.03 0.05,-0.04 0.07,-0.07 0.07,0.03 0.09,0.06 0.23,0.09 0.02,0.05 0,0.12 0.02,0.17 0.03,0.06 0.08,0.05 0.15,0.05 0.19,0 0.15,-0.01 0.18,-0.21 0.04,-0.01 0.09,-0.03 0.12,-0.04 0.03,-0.02 0.08,-0.05 0.11,-0.05 0.03,0.02 0.1,0.09 0.13,0.1 0.06,0.02 0.11,-0.06 0.14,-0.08 0.02,-0.03 0.1,-0.08 0.08,-0.15 -0.01,-0.02 -0.08,-0.09 -0.11,-0.13 0.01,-0.02 0.04,-0.07 0.05,-0.1 0.02,-0.04 0.03,-0.08 0.05,-0.12 0.07,-0.01 0.17,0 0.2,-0.05 0.01,-0.03 0.02,-0.21 0.01,-0.25 -0.04,-0.06 -0.08,-0.04 -0.21,-0.05 -0.01,-0.04 -0.02,-0.08 -0.03,-0.12 -0.02,-0.03 -0.05,-0.08 -0.06,-0.11 0.03,-0.03 0.11,-0.1 0.11,-0.14 0.01,-0.08 -0.07,-0.1 -0.09,-0.15 -0.04,-0.02 -0.05,-0.06 -0.1,-0.06 -0.08,-0.01 -0.18,0.13 -0.21,0.2 0,0.01 0,0.02 -0.01,0.03l-0.01 0.03 -0.02 0.11c0.07,0.04 0.14,0.14 0.17,0.26 0.1,0.35 -0.22,0.7 -0.59,0.62 -0.21,-0.04 -0.38,-0.21 -0.41,-0.44 -0.01,-0.13 0.03,-0.25 0.09,-0.34 0.09,-0.12 0.14,-0.07 0.05,-0.27 -0.03,-0.06 -0.12,-0.21 -0.19,-0.21 -0.05,0.01 -0.09,0.07 -0.11,0.09 -0.02,0.02 -0.02,0.02 -0.04,0.03 -0.02,0.03 -0.05,0.04 -0.05,0.09 0,0.05 0.09,0.11 0.11,0.15 -0.04,0.08 -0.07,0.14 -0.09,0.23 -0.15,0.02 -0.24,-0.02 -0.21,0.19 0.02,0.01 0.05,0.02 0.08,0.03 0.03,0.01 0.05,0.02 0.07,0.04 0.13,0.09 0.23,0.23 0.24,0.42z"></path> <path class="fil1" d="M2.91 2.09l-0.03 0.14c0,0.11 0.02,0.21 0.07,0.3 0.02,0.04 0.04,0.07 0.07,0.1 0.03,0.04 0.05,0.07 0.07,0.11 0.03,0.03 0.06,0.18 0.07,0.23l0.5 0 0.03 -0.14c0.02,-0.1 0.09,-0.18 0.14,-0.24 0.03,-0.03 0.05,-0.08 0.07,-0.13 0.01,-0.03 0.03,-0.13 0.04,-0.15 -0.01,-0.03 -0.01,-0.07 -0.01,-0.1 0,-0.03 -0.02,-0.07 -0.01,-0.09 -0.01,-0.02 -0.04,-0.09 -0.08,-0.14 -0.09,-0.14 -0.22,-0.22 -0.39,-0.24 -0.19,-0.01 -0.35,0.07 -0.46,0.21 -0.06,0.08 -0.05,0.09 -0.07,0.13 -0.01,0.01 -0.01,0.01 -0.01,0.01z"></path> <path class="fil1" d="M2.4 3.16c0.03,-0.08 0.06,-0.1 0.07,-0.21 0,-0.08 -0.01,-0.15 -0.04,-0.22 -0.11,-0.2 -0.29,-0.2 -0.32,-0.22 -0.08,0.02 -0.24,-0.01 -0.37,0.17 -0.18,0.24 -0.04,0.62 0.29,0.64 0.25,0.02 0.35,-0.16 0.37,-0.16z"></path> <path class="fil1" d="M3.67 3.16c0.02,-0.06 -0.03,-0.11 -0.09,-0.12 -0.07,0 -0.15,0 -0.22,0 -0.06,0 -0.15,-0.01 -0.19,0.03 -0.05,0.05 -0.03,0.12 0.02,0.15 0.03,0.01 0.02,0 0.03,0.03 0.01,0.04 0.02,0.07 0.06,0.1 0.06,0.05 0.26,0.09 0.31,-0.1 0.02,-0.06 0.05,-0.02 0.08,-0.09z"></path> <path class="fil1" d="M3.24 1.42l0.1 0.01 0 0.24 0.13 0 -0.01 -0.24 0.09 0c-0.01,-0.04 -0.05,-0.12 -0.07,-0.16 -0.03,-0.04 -0.06,-0.13 -0.09,-0.15 0,0.03 -0.13,0.29 -0.15,0.3z"></path> <path class="fil1" d="M2.86 2c0.03,0.01 0.03,-0.01 0.04,-0.04 0.02,-0.02 0.02,-0.03 0.04,-0.05 -0.03,-0.05 -0.11,-0.11 -0.15,-0.16 0.02,-0.02 0.04,-0.04 0.06,-0.06 -0.03,-0.03 -0.25,-0.08 -0.28,-0.1l-0.04 -0.01 0.11 0.32 0.06 -0.06 0.16 0.16z"></path> <path class="fil1" d="M3.98 1.96c0.01,-0.02 0.1,-0.1 0.12,-0.12 0.02,0.01 0.04,0.04 0.07,0.06l0.11 -0.32 -0.33 0.1c0.02,0.03 0.05,0.05 0.06,0.08l-0.14 0.14c0.01,0.02 0.02,0.03 0.04,0.05 0.01,0.02 0.01,0.03 0.03,0.05l0.04 -0.04z"></path> <path class="fil1" d="M2.36 2.46c0.1,0.03 0.21,0.12 0.31,0.15l0 -0.09 0.19 -0.01c-0.01,-0.04 -0.02,-0.07 -0.03,-0.12l-0.16 0 -0.01 -0.09c-0.04,0.02 -0.11,0.06 -0.15,0.08 -0.03,0.01 -0.05,0.03 -0.08,0.04 -0.02,0.01 -0.07,0.02 -0.07,0.04z"></path> <path class="fil1" d="M4.15 2.38c-0.01,0.02 -0.02,0.01 -0.07,0.01 -0.03,0 -0.06,0 -0.09,0.01l-0.03 0.11 0.19 0 0 0.07 0 0.03 0.31 -0.16 -0.31 -0.15 0 0.08z"></path> </g> </g> </g> </svg>