<svg xmlns="http://www.w3.org/2000/svg" id="Layer_1" data-name="Layer 1" viewBox="0 0 91 91"><defs><style>.cls-1{fill:#fff;}.cls-2{fill:#083264;}</style></defs><circle class="cls-1" cx="45.5" cy="45.5" r="45.5"></circle><path class="cls-2" d="M32.7,59.41c2.21-1.83,4.41-3.67,6.71-5.6V73a1.29,1.29,0,0,1-.16-.92c0-5.7,0-11.4,0-17.11a1.58,1.58,0,0,0-.06-.7c-.82.6-1.54,1.29-2.31,1.92-1.41,1.16-2.79,2.35-4.22,3.5a2,2,0,0,1-3.34-.73q-2.05-4.09-4.09-8.19c-.36-.72-.44-.76-1.13-.35A18,18,0,0,0,14.8,63.61a32.45,32.45,0,0,0-.23,7.44,1.84,1.84,0,0,0,1,1.65c.1,0,.21.12.18.27a2.2,2.2,0,0,1-1.4-2.38c.08-2.17-.09-4.34.18-6.5A18,18,0,0,1,19,54.27,18.69,18.69,0,0,1,24.47,50c.4-.2.52-.1.7.25,1.39,2.82,2.8,5.63,4.2,8.44C30.17,60.28,31.34,60.54,32.7,59.41Z"></path><path class="cls-2" d="M45,51.12a14.07,14.07,0,0,1-7.72.08.72.72,0,0,0-.75.21c-1.43,1.2-2.87,2.38-4.29,3.6-.33.28-.46.28-.66-.13-1-2.1-2.08-4.19-3.14-6.32a20.73,20.73,0,0,1,3-.5,14.43,14.43,0,0,1-4.64-12.33c.56.28,1.08.58,1.62.81A29.41,29.41,0,0,0,38,38.75a38.44,38.44,0,0,0,10.49-.6A21.76,21.76,0,0,0,54.68,36c.39-.21.5-.19.53.3a14.16,14.16,0,0,1-4.4,11.46l-.28.29c1,.15,1.85.25,2.72.43.48.1.52.2.3.63-1,2-2,4.08-3.09,6.2l-1.24-1.05c-1.16-1-2.32-2-3.47-3A.69.69,0,0,0,45,51.12Z"></path><path class="cls-2" d="M55.82,29.31c.44.12.38.27.23.57a6.51,6.51,0,0,1-2.76,2.69,21,21,0,0,1-7.54,2.29,32,32,0,0,1-6.85.24,23.58,23.58,0,0,1-10.12-2.52,6.09,6.09,0,0,1-3-3.07,57.3,57.3,0,0,1,9.65-2.1C42.41,26.48,49.15,27.45,55.82,29.31Z"></path><path class="cls-2" d="M20.22,20.74a2.13,2.13,0,0,1-.58-1.35,1.93,1.93,0,0,1,1.53-1.85l7-2.24c4-1.28,8-2.55,12-3.84a2.8,2.8,0,0,1,1.81,0q9.47,3.06,18.93,6.08a1.88,1.88,0,0,1,1,3.24c-1.32,1.6-2.65,3.18-3.95,4.78a.69.69,0,0,1-.86.27,60.53,60.53,0,0,0-11.14-2.21,48.35,48.35,0,0,0-11.53.23,58.78,58.78,0,0,0-9.27,2.05.61.61,0,0,1-.76-.22C23,24,21.58,22.38,20.22,20.74Z"></path><path class="cls-2" d="M67.53,71.25A1.93,1.93,0,0,1,66.17,73a.21.21,0,0,1,.13-.24,2,2,0,0,0,1.13-2,32.09,32.09,0,0,0-.61-8.8A18,18,0,0,0,57.9,50.42c-.49-.28-.57-.25-.86.32-1.27,2.53-2.54,5.07-3.8,7.6l-.27.54a2.08,2.08,0,0,1-3.49.68L45,55.68c-.51-.44-1-.91-1.57-1.31a1.3,1.3,0,0,0-.08.69v17a1.29,1.29,0,0,1-.16.92c0-.14,0-.28,0-.41V53.89L46.75,57c.94.81,1.88,1.63,2.83,2.43a1.91,1.91,0,0,0,3.28-.65c1.39-2.8,2.79-5.59,4.15-8.4.2-.41.35-.44.75-.22a18.18,18.18,0,0,1,9.58,13.52A42.64,42.64,0,0,1,67.53,71.25Z"></path><path class="cls-2" d="M39.41,53.81V73H15.78a2.2,2.2,0,0,1-1.4-2.38c.08-2.17-.09-4.34.18-6.5A18,18,0,0,1,19,54.27,18.69,18.69,0,0,1,24.47,50c.4-.2.52-.1.7.25,1.39,2.82,2.8,5.63,4.2,8.44.8,1.59,2,1.85,3.33.72C34.91,57.58,37.11,55.74,39.41,53.81Z"></path><path class="cls-2" d="M67.34,63.67a18.18,18.18,0,0,0-9.58-13.52c-.4-.22-.55-.19-.75.22-1.36,2.81-2.76,5.6-4.15,8.4a1.91,1.91,0,0,1-3.28.65c-.95-.8-1.89-1.62-2.83-2.43l-3.63-3.1V72.56c0,.13,0,.27,0,.41h23a1.93,1.93,0,0,0,1.36-1.72A42.64,42.64,0,0,0,67.34,63.67ZM57.06,67.45c-1.92,0-3.85,0-5.77,0a1.79,1.79,0,0,1-1.81-1.85,1.82,1.82,0,0,1,1.86-1.8c.94,0,1.89,0,2.83,0s1.88,0,2.82,0a1.8,1.8,0,0,1,1.86,1.8A1.75,1.75,0,0,1,57.06,67.45Z"></path><path class="cls-2" d="M61.8,20.77c-1.32,1.6-2.65,3.18-3.95,4.78a.69.69,0,0,1-.86.27,60.53,60.53,0,0,0-11.14-2.21,48.35,48.35,0,0,0-11.53.23,58.78,58.78,0,0,0-9.27,2.05.61.61,0,0,1-.76-.22C23,24,21.58,22.38,20.22,20.74a2.13,2.13,0,0,1-.58-1.35,1.93,1.93,0,0,1,1.53-1.85l7-2.24c4-1.28,8-2.55,12-3.84a2.8,2.8,0,0,1,1.81,0q9.47,3.06,18.93,6.08A1.88,1.88,0,0,1,61.8,20.77Z"></path><path class="cls-2" d="M53.55,49.11c-1,2-2,4.08-3.09,6.2l-1.24-1.05c-1.16-1-2.32-2-3.47-3a.69.69,0,0,0-.75-.15,14.07,14.07,0,0,1-7.72.08.72.72,0,0,0-.75.21c-1.43,1.2-2.87,2.38-4.29,3.6-.33.28-.46.28-.66-.13-1-2.1-2.08-4.19-3.14-6.32a20.73,20.73,0,0,1,3-.5,14.43,14.43,0,0,1-4.64-12.33c.56.28,1.08.58,1.62.81A29.41,29.41,0,0,0,38,38.75a38.44,38.44,0,0,0,10.49-.6A21.76,21.76,0,0,0,54.68,36c.39-.21.5-.19.53.3a14.16,14.16,0,0,1-4.4,11.46l-.28.29c1,.15,1.85.25,2.72.43C53.73,48.58,53.77,48.68,53.55,49.11Z"></path><path class="cls-2" d="M56.05,29.88a6.51,6.51,0,0,1-2.76,2.69,21,21,0,0,1-7.54,2.29,32,32,0,0,1-6.85.24,23.58,23.58,0,0,1-10.12-2.52,6.09,6.09,0,0,1-3-3.07,57.3,57.3,0,0,1,9.65-2.1c6.93-.93,13.67,0,20.34,1.9C56.26,29.43,56.2,29.58,56.05,29.88Z"></path><path class="cls-2" d="M60.6,37.1c0,.14-.06.16-.18.16H58.58c-.13,0-.2,0-.2-.17,0-.44,0-.87,0-1.31,0-.11,0-.16.16-.16.64,0,1.28,0,1.93,0,.11,0,.13.05.13.15C60.6,36.21,60.59,36.66,60.6,37.1Z"></path><path class="cls-2" d="M62.26,30.92c-.23.37-.45.76-.67,1.14,0,0,0,.11-.11.11l-.12-.07-1.6-.91c-.13-.08-.14-.14-.06-.27.21-.35.42-.71.62-1.08.08-.14.14-.15.27-.07l1.59.92C62.28,30.75,62.33,30.79,62.26,30.92Z"></path><path class="cls-2" d="M63.81,26.48c-.07-.1,0-.14.06-.2.39-.21.77-.44,1.15-.66.07,0,.13-.09.19,0l1,1.71,0,.08c0,.07-.06.08-.1.1L65,28.2c-.1.05-.15.06-.21-.05Z"></path><path class="cls-2" d="M69.68,26.34c0-.67,0-1.34,0-2a.55.55,0,0,1,.09.39v1.44c0,.29,0,.31.31.32h.84c.28,0,.31,0,.31-.32V24.72a.55.55,0,0,1,.09-.39c0,.67,0,1.34,0,2,0,.15,0,.21-.2.2H69.88C69.72,26.55,69.68,26.49,69.68,26.34Z"></path><path class="cls-2" d="M75.21,45.68c0,1,0,2.08,0,3.13,0,.18,0,.25-.24.24-.39,0-.79,0-1.19,0-.2,0-.24.06-.24.24a3,3,0,0,1-6,0c0-.21,0-.28-.27-.27-.4,0-.8,0-1.19,0-.14,0-.22,0-.22-.19,0-1.09,0-2.17,0-3.26,0-.21.11-.18.24-.18h8.81C75.16,45.41,75.22,45.46,75.21,45.68Z"></path><path class="cls-2" d="M74.83,27.3c.32-.53.63-1.07.93-1.61.06-.1.11-.15.23-.07.37.23.76.44,1.14.66l.12.09-.07.14c-.31.53-.62,1.06-.92,1.59-.07.13-.13.17-.27.08-.36-.22-.72-.43-1.1-.63C74.77,27.48,74.76,27.43,74.83,27.3Z"></path><path class="cls-2" d="M78.66,35.06a8.11,8.11,0,0,1-2.47,7.36,3.11,3.11,0,0,0-.81,1.21c0,.14-.13.16-.26.16H73.35c-.58,0-1.16,0-1.74,0-.21,0-.25-.06-.24-.26,0-.79,0-1.57,0-2.36a.34.34,0,0,1,.18-.35l1.85-1.18a.37.37,0,0,0,.2-.35q0-1,0-2c0-.15,0-.2-.2-.19H72.12c-.13,0-.17,0-.16.16v1.23a.26.26,0,0,1-.13.26c-.39.24-.77.49-1.14.74a.21.21,0,0,1-.27,0l-1.14-.73a.25.25,0,0,1-.13-.27c0-.39,0-.79,0-1.19,0-.16,0-.2-.2-.19H67.7c-.16,0-.19,0-.19.2,0,.68,0,1.37,0,2.06a.3.3,0,0,0,.17.3c.63.4,1.25.81,1.88,1.2a.32.32,0,0,1,.18.32c0,.81,0,1.61,0,2.42,0,.17,0,.23-.22.23H66a.25.25,0,0,1-.28-.19,2.93,2.93,0,0,0-.79-1.18,8.2,8.2,0,0,1-.11-11.84,7.94,7.94,0,0,1,6.58-2.32A8.24,8.24,0,0,1,78.66,35.06Z"></path><path class="cls-2" d="M81.29,31.16l-1.69,1-.07,0c-.08,0-.09-.06-.12-.1-.22-.38-.43-.77-.67-1.15-.07-.12,0-.16.07-.22.54-.31,1.09-.62,1.62-.94.13-.08.18,0,.25.08.2.37.42.73.63,1.1C81.36,31,81.42,31.08,81.29,31.16Z"></path><path class="cls-2" d="M82.62,37.08c0,.16-.06.18-.2.18H80.58c-.15,0-.19,0-.18-.19,0-.42,0-.85,0-1.27,0-.16.06-.18.19-.18.61,0,1.23,0,1.84,0,.14,0,.19,0,.19.19C82.61,36.23,82.61,36.66,82.62,37.08Z"></path><path class="cls-2" d="M71.32,26.34c0,.15,0,.21-.2.2H69.88c-.16,0-.2-.05-.2-.2,0-.67,0-1.34,0-2h1.64C71.32,25,71.31,25.67,71.32,26.34Z"></path><path class="cls-2" d="M76.19,42.42a3.11,3.11,0,0,0-.81,1.21c0,.14-.13.16-.26.16H73.35c-.58,0-1.16,0-1.74,0-.21,0-.25-.06-.24-.26,0-.79,0-1.57,0-2.36a.34.34,0,0,1,.18-.35l1.85-1.18a.37.37,0,0,0,.2-.35q0-1,0-2c0-.15,0-.2-.2-.19H72.12c-.13,0-.17,0-.16.16v1.23a.26.26,0,0,1-.13.26c-.39.24-.77.49-1.14.74a.21.21,0,0,1-.27,0l-1.14-.73a.25.25,0,0,1-.13-.27c0-.39,0-.79,0-1.19,0-.16,0-.2-.2-.19H67.7c-.16,0-.19,0-.19.2,0,.68,0,1.37,0,2.06a.3.3,0,0,0,.17.3c.63.4,1.25.81,1.88,1.2a.32.32,0,0,1,.18.32c0,.81,0,1.61,0,2.42,0,.17,0,.23-.22.23H66a.25.25,0,0,1-.28-.19,2.93,2.93,0,0,0-.79-1.18,8.2,8.2,0,0,1-.11-11.84,7.94,7.94,0,0,1,6.58-2.32,8.24,8.24,0,0,1,7.27,6.8A8.11,8.11,0,0,1,76.19,42.42Z"></path><path class="cls-2" d="M75.21,48.81c0,.18,0,.25-.24.24-.39,0-.79,0-1.19,0-.2,0-.24.06-.24.24a3,3,0,0,1-6,0c0-.21,0-.28-.27-.27-.4,0-.8,0-1.19,0-.14,0-.22,0-.22-.19,0-1.09,0-2.17,0-3.26,0-.21.11-.18.24-.18h8.81c.22,0,.28.05.27.27C75.2,46.72,75.21,47.76,75.21,48.81Z"></path><path class="cls-2" d="M60.6,37.1c0,.14-.06.16-.18.16H58.58c-.13,0-.2,0-.2-.17,0-.44,0-.87,0-1.31,0-.11,0-.16.16-.16.64,0,1.28,0,1.93,0,.11,0,.13.05.13.15C60.6,36.21,60.59,36.66,60.6,37.1Z"></path><path class="cls-2" d="M82.62,37.08c0,.16-.06.18-.2.18H80.58c-.15,0-.19,0-.18-.19,0-.42,0-.85,0-1.27,0-.16.06-.18.19-.18.61,0,1.23,0,1.84,0,.14,0,.19,0,.19.19C82.61,36.23,82.61,36.66,82.62,37.08Z"></path><path class="cls-2" d="M81.29,31.16l-1.69,1-.07,0c-.08,0-.09-.06-.12-.1-.22-.38-.43-.77-.67-1.15-.07-.12,0-.16.07-.22.54-.31,1.09-.62,1.62-.94.13-.08.18,0,.25.08.2.37.42.73.63,1.1C81.36,31,81.42,31.08,81.29,31.16Z"></path><path class="cls-2" d="M77.25,26.37l-.07.14c-.31.53-.62,1.06-.92,1.59-.07.13-.13.17-.27.08-.36-.22-.72-.43-1.1-.63-.12-.07-.13-.12-.06-.25.32-.53.63-1.07.93-1.61.06-.1.11-.15.23-.07.37.23.76.44,1.14.66Z"></path><path class="cls-2" d="M66.23,27.43c0,.07-.06.08-.1.1L65,28.2c-.1.05-.15.06-.21-.05l-1-1.67c-.07-.1,0-.14.06-.2.39-.21.77-.44,1.15-.66.07,0,.13-.09.19,0l1,1.71Z"></path><path class="cls-2" d="M62.26,30.92c-.23.37-.45.76-.67,1.14,0,0,0,.11-.11.11l-.12-.07-1.6-.91c-.13-.08-.14-.14-.06-.27.21-.35.42-.71.62-1.08.08-.14.14-.15.27-.07l1.59.92C62.28,30.75,62.33,30.79,62.26,30.92Z"></path></svg>