<svg xmlns="http://www.w3.org/2000/svg" id="Layer_1" data-name="Layer 1" viewBox="0 0 91 91"><defs><style>.cls-1{fill:#fff;}.cls-2{fill:#083264;}</style></defs><circle class="cls-1" cx="45.5" cy="45.5" r="45.5"></circle><path class="cls-2" d="M70.25,81.33a.66.66,0,0,1-.75.24c-1.16-.32-2.32-.61-3.47-.94-.27-.08-.34,0-.4.24-.28,1.07-.58,2.14-.85,3.21a1.19,1.19,0,0,1-.5.78,14.68,14.68,0,0,0,1.17-3.67c.23-.74.22-.75,1-.55l3,.81a.63.63,0,0,0,.76-1c-1.36-2.35-2.71-4.71-4.07-7-.29-.5-.24-.5.07-.81a3.78,3.78,0,0,0,1-2.06,3.11,3.11,0,0,1,1.15-1.94,3.72,3.72,0,0,0,1.16-4.11,3.59,3.59,0,0,1,0-2.48,3.75,3.75,0,0,0-1.31-4.34,2.83,2.83,0,0,1-1-1.78A3.83,3.83,0,0,0,64,52.7a2.79,2.79,0,0,1-1.77-1,4,4,0,0,0-3.26-1.53,3.88,3.88,0,0,0-1.29.28,2.63,2.63,0,0,1-1.95,0,3.89,3.89,0,0,0-2.69-.1,3.61,3.61,0,0,0-1.8,1.22,3,3,0,0,1-1.85,1.09,3.82,3.82,0,0,0-3,2.24,3.93,3.93,0,0,0-.3,1.05,2.77,2.77,0,0,1-1,1.74,3.9,3.9,0,0,0-1.48,3,3.42,3.42,0,0,0,.27,1.4,2.82,2.82,0,0,1,0,2.08,3.86,3.86,0,0,0,.66,4,8,8,0,0,0,.79.75,2.63,2.63,0,0,1,.75,1.41,3.89,3.89,0,0,0,1.17,2.35c.24.22.17.44,0,.68l-1.8,3.11-2.3,4a.63.63,0,0,0,0,.76.62.62,0,0,0,.76.19l3.15-.85c.55-.15.62-.12.76.43.26,1,.55,2,.78,3a4.29,4.29,0,0,0,.45.88,1.19,1.19,0,0,1-.5-.75C48.3,83,48,81.93,47.7,80.84c-.05-.21-.1-.29-.36-.21-1.13.32-2.29.61-3.43.92a.69.69,0,0,1-.82-.22.72.72,0,0,1,0-.85c1.4-2.4,2.78-4.81,4.18-7.21a.34.34,0,0,0-.08-.5A3.76,3.76,0,0,1,46,70.53a2.7,2.7,0,0,0-1-1.77A3.87,3.87,0,0,1,43.54,66a3.49,3.49,0,0,1,.24-1.66,2.93,2.93,0,0,0,0-2.18A3.89,3.89,0,0,1,45,57.71,2.83,2.83,0,0,0,46,55.92a3.9,3.9,0,0,1,3.35-3.31,2.75,2.75,0,0,0,1.71-1,3.9,3.9,0,0,1,4.55-1.23,2.79,2.79,0,0,0,2,0A3.89,3.89,0,0,1,62.2,51.6a2.85,2.85,0,0,0,1.82,1,3.9,3.9,0,0,1,3.23,3.22,2.94,2.94,0,0,0,1.06,1.87,3.86,3.86,0,0,1,1.2,4.46,3,3,0,0,0,0,2.12,3.88,3.88,0,0,1-1.23,4.48,2.72,2.72,0,0,0-1,1.75,3.83,3.83,0,0,1-1.2,2.29c-.2.18-.09.29,0,.43l4.08,7.06.15.27A.65.65,0,0,1,70.25,81.33Z" transform="translate(0.04 0)"></path><path class="cls-2" d="M56,55.3a.67.67,0,0,1,.67-.66.66.66,0,0,1,.69.67.68.68,0,1,1-1.36,0Z" transform="translate(0.04 0)"></path><path class="cls-2" d="M61.79,61.17l-.3-.3L59.92,59.3l-.18-.16c-.36-.29-.67-.23-1.06.16l-2.59,2.6c-.16.16-.24.16-.39,0-.36-.38-.73-.74-1.1-1.11a.76.76,0,0,0-.54-.27.81.81,0,0,0-.58.28l-1.92,1.92,0,0a.71.71,0,0,0,0,1.15l.43.42.16.17,3.15,3.15a.72.72,0,0,0,1.2,0l3.16-3.16.16-.16,1.71-1.72.27-.26A.71.71,0,0,0,61.79,61.17Zm-1.5.74-.54.55-.3.3-1.56,1.56-.16.16-1.68,1.68c-.12.13-.19.12-.31,0l-1.68-1.68c-.05-.06-.11-.11-.17-.17l-.84-.84c-.12-.11-.15-.19,0-.32s.29-.27.43-.41.28-.28.41-.43.22-.11.34,0l.4.41.7.69a.71.71,0,0,0,1.15,0l.7-.71c.64-.63,1.28-1.26,1.9-1.91.2-.2.3-.18.46,0l.21.22.56.55.14.15A1.2,1.2,0,0,1,60.29,61.91Z" transform="translate(0.04 0)"></path><path class="cls-2" d="M65.5,63.11a8.36,8.36,0,0,1-.07,1.13,1.11,1.11,0,0,1,0,.19,8.81,8.81,0,0,1-17.44.5l-.06-.45,0-.17a8.9,8.9,0,0,1,.56-4.05,8.67,8.67,0,0,1,2.33-3.38,9,9,0,0,1,2.34-1.51l.31-.12a.67.67,0,0,1,.85.35.65.65,0,0,1-.32.88l-.14.07c-.26.13-.52.24-.77.38a4.86,4.86,0,0,0-.54.33,7.07,7.07,0,0,0-1.7,1.57h0a7.34,7.34,0,0,0-1.57,5.48l0,.17a.68.68,0,0,0,0,.14,7.47,7.47,0,0,0,14.78-.14,1,1,0,0,0,0-.17,6.83,6.83,0,0,0,0-1.36c0-.07,0-.14,0-.21a7.07,7.07,0,0,0-2.61-5,8.86,8.86,0,0,0-1.74-1.09l-.19-.08c-.42-.2-.61-.45-.56-.78a.67.67,0,0,1,.87-.55l.14,0a10.35,10.35,0,0,1,1.48.77,8.94,8.94,0,0,1,4,6.56A4.07,4.07,0,0,1,65.5,63.11Z" transform="translate(0.04 0)"></path><path class="cls-2" d="M66,53.71l-.1-.09-.11-.1a.39.39,0,0,1-.1-.08l-.12-.08,0,0h0l-.08,0s0,0,0,0l-.11-.06a2.82,2.82,0,0,0-.49-.25l-.11,0-.06,0-.14,0-.26-.07h0L64,52.7a2.79,2.79,0,0,1-1.77-1,4,4,0,0,0-3.26-1.53,3.77,3.77,0,0,0-1.28.28,2.61,2.61,0,0,1-2,0,3.89,3.89,0,0,0-2.69-.1,3.61,3.61,0,0,0-1.8,1.22,3,3,0,0,1-1.85,1.09l-.25,0h0l-.21.06h0l-.18.06h0l-.07,0-.15.06h0l-.08,0-.1,0-.08,0h0l-.17.09-.14.09,0,0-.08.05-.12.09-.1.08c.08.54.15,1.07.23,1.62A2.47,2.47,0,0,1,49.48,54,4.19,4.19,0,0,0,52.2,52.4a2.54,2.54,0,0,1,2-.94,2.79,2.79,0,0,1,1,.21,3.89,3.89,0,0,0,2.81,0,2.57,2.57,0,0,1,3.18.87A4.12,4.12,0,0,0,63.81,54a2.49,2.49,0,0,1,2.1,2.1,3.63,3.63,0,0,0,.13.57C66,55.66,66,54.69,66,53.71Zm0,0-.1-.09-.11-.1a.39.39,0,0,1-.1-.08l-.12-.08,0,0h0l-.08,0s0,0,0,0l-.11-.06a2.82,2.82,0,0,0-.49-.25l-.11,0-.06,0-.14,0-.26-.07h0L64,52.7a2.79,2.79,0,0,1-1.77-1,4,4,0,0,0-3.26-1.53,3.77,3.77,0,0,0-1.28.28,2.61,2.61,0,0,1-2,0,3.89,3.89,0,0,0-2.69-.1,3.61,3.61,0,0,0-1.8,1.22,3,3,0,0,1-1.85,1.09l-.25,0h0l-.21.06h0l-.18.06h0l-.07,0-.15.06h0l-.08,0-.1,0-.08,0h0l-.17.09-.14.09,0,0-.08.05-.12.09-.1.08c.08.54.15,1.07.23,1.62A2.47,2.47,0,0,1,49.48,54,4.19,4.19,0,0,0,52.2,52.4a2.54,2.54,0,0,1,2-.94,2.79,2.79,0,0,1,1,.21,3.89,3.89,0,0,0,2.81,0,2.57,2.57,0,0,1,3.18.87A4.12,4.12,0,0,0,63.81,54a2.49,2.49,0,0,1,2.1,2.1,3.63,3.63,0,0,0,.13.57C66,55.66,66,54.69,66,53.71Zm-20.94,4a3.9,3.9,0,0,0-1.48,3,3.42,3.42,0,0,0,.27,1.4,3.58,3.58,0,0,1,.16.56h1.28a4.24,4.24,0,0,0-.23-.95,2.54,2.54,0,0,1,.82-3.07,4.45,4.45,0,0,0,.49-.48c-.1-.72-.2-1.45-.31-2.17A2.73,2.73,0,0,1,45.09,57.73ZM70.3,80.57l-.15-.27c-1.37-2.35-2.72-4.71-4.08-7.06-.09-.14-.2-.25,0-.43a3.83,3.83,0,0,0,1.2-2.29,2.72,2.72,0,0,1,1-1.75,3.88,3.88,0,0,0,1.23-4.48,3,3,0,0,1,0-2.12,3.86,3.86,0,0,0-1.2-4.46l-.15-.13L68,57.44l-.12-.14-.12-.15A.83.83,0,0,0,67.7,57l-.07-.12,0,0h0v0l-.06-.11c0-.08-.07-.16-.11-.25l0-.12a.54.54,0,0,1,0-.1.38.38,0,0,1,0-.1,1.46,1.46,0,0,1,0-.2l0-.15a.78.78,0,0,0,0-.14l0-.06v0s0,0,0,0,0-.06,0-.08a.56.56,0,0,0,0-.12l0-.12,0-.09a1.21,1.21,0,0,1,0-.14L67,55l0-.07-.09-.2-.07-.12h0a.16.16,0,0,0,0-.07l-.06-.1-.09-.14a.44.44,0,0,0-.08-.11l-.09-.12L66.39,54l-.07-.08a1.14,1.14,0,0,0-.11-.11l0,0,0,0a1.14,1.14,0,0,0-.11-.11h0l-.13-.12,0,0-.08-.06-.08-.06-.13-.09-.11-.07-.09-.06-.1-.05L65.1,53h0L65,52.9l-.1,0-.09,0-.15,0-.15-.05-.16,0-.16,0-.15,0a2.8,2.8,0,0,1-1.82-1,3.89,3.89,0,0,0-4.55-1.22,2.79,2.79,0,0,1-2,0,3.88,3.88,0,0,0-4.54,1.23,2.8,2.8,0,0,1-1.72,1h-.11l-.09,0-.13,0-.14,0h0a.76.76,0,0,0-.2.06h0l-.16.06-.12,0-.14.06,0,0h0l-.15.08-.11.06-.08,0h0l-.08,0-.09.06h0s0,0,0,0l-.1.07-.25.21-.07.07,0,0-.06.07-.1.1L46.9,54l-.11.14-.07.1,0,.07h0l-.09.13s0,.08-.07.13l-.07.11a.54.54,0,0,1,0,.11v0l0,.09a1,1,0,0,1,0,.1c0,.1-.08.19-.11.29a1.54,1.54,0,0,1,0,.17.94.94,0,0,0,0,.16,1.62,1.62,0,0,0,0,.19h0l0,.13A2.83,2.83,0,0,1,45,57.71a3.9,3.9,0,0,0-1.2,4.44.88.88,0,0,1,0,.15s0,.09.05.14a.24.24,0,0,0,0,.08s0,0,0,.08,0,.09,0,.13l0,.14V63c0,.05,0,.09,0,.14a2.82,2.82,0,0,1-.21,1.2v0l-.06.15-.09.28a.3.3,0,0,1,0,.1h0s0,.06,0,.1v0h0s0,0,0,.06h0a.22.22,0,0,0,0,.08.31.31,0,0,0,0,.1.22.22,0,0,0,0,.08v.15a4,4,0,0,0,0,.49A3.87,3.87,0,0,0,45,68.76a2.7,2.7,0,0,1,1,1.77,3.76,3.76,0,0,0,1.16,2.24.34.34,0,0,1,.08.5c-1.4,2.4-2.78,4.81-4.18,7.21a.72.72,0,0,0,0,.85.69.69,0,0,0,.82.22c1.14-.31,2.29-.6,3.43-.92.26-.08.31,0,.36.21.29,1.09.6,2.17.87,3.27a1.16,1.16,0,0,0,.5.75h.41a1.26,1.26,0,0,0,.53-.54c1.47-2.57,3-5.14,4.44-7.71a.55.55,0,0,1,.45-.33,3.48,3.48,0,0,0,.78-.22,2.65,2.65,0,0,1,1.92,0,3.24,3.24,0,0,0,1,.26c.21,0,.25.18.32.31q2.23,3.84,4.45,7.7a1.16,1.16,0,0,0,.53.54h.4a1.14,1.14,0,0,0,.51-.78c.27-1.07.57-2.14.85-3.21.06-.23.13-.32.4-.24,1.15.33,2.31.62,3.47.94a.66.66,0,0,0,.75-.24A.65.65,0,0,0,70.3,80.57ZM53,76.46,50,81.53l-.51.89c-.26-1-.5-1.85-.73-2.73a.72.72,0,0,0-1-.59L45,79.85l2-3.54c.47-.81.94-1.62,1.4-2.43.09-.17.18-.22.37-.15a3.5,3.5,0,0,0,.56.13,2.48,2.48,0,0,1,1.61.9,4,4,0,0,0,1.93,1.38C53.23,76.24,53,76.37,53,76.46Zm5.13-1.67a4,4,0,0,0-2.88,0,2.55,2.55,0,0,1-3.1-.82,4.06,4.06,0,0,0-2.59-1.46,2.53,2.53,0,0,1-2.15-2.15,4.17,4.17,0,0,0-1.49-2.62,2.53,2.53,0,0,1-.81-3,1.72,1.72,0,0,0,.07-.21l.06-.17a4,4,0,0,0,.11-1.58,4.24,4.24,0,0,0-.23-.95,2.54,2.54,0,0,1,.82-3.07,4.45,4.45,0,0,0,.49-.48,4,4,0,0,0,1-2.11,2.68,2.68,0,0,1,.37-1A2.47,2.47,0,0,1,49.48,54,4.19,4.19,0,0,0,52.2,52.4a2.54,2.54,0,0,1,2-.94,2.79,2.79,0,0,1,1,.21,3.89,3.89,0,0,0,2.81,0,2.57,2.57,0,0,1,3.18.87A4.12,4.12,0,0,0,63.81,54a2.49,2.49,0,0,1,2.1,2.1,3.63,3.63,0,0,0,.13.57,4.2,4.2,0,0,0,1.41,2.12l.16.14.17.18a2.44,2.44,0,0,1,.45,2.62,4.22,4.22,0,0,0,0,3.07,2.49,2.49,0,0,1-.77,2.91,4.28,4.28,0,0,0-1.56,2.68,2.51,2.51,0,0,1-2.18,2.15A4,4,0,0,0,61.17,74,2.55,2.55,0,0,1,58.1,74.79Zm5.75,7.52s0,0,0,0-.13-.14-.18-.22c-1.09-1.89-2.17-3.77-3.27-5.65-.14-.23-.11-.29.14-.38A3.56,3.56,0,0,0,62.12,75,2.69,2.69,0,0,1,64,73.84c.25,0,.52-.25.73-.11s.27.4.39.62q1.48,2.58,3,5.16l.17.32-2.67-.71c-.63-.17-.91,0-1.08.61ZM66,53.71l-.1-.09-.11-.1a.39.39,0,0,1-.1-.08l-.12-.08,0,0h0l-.08,0s0,0,0,0l-.11-.06a2.82,2.82,0,0,0-.49-.25l-.11,0-.06,0-.14,0-.26-.07h0L64,52.7a2.79,2.79,0,0,1-1.77-1,4,4,0,0,0-3.26-1.53,3.77,3.77,0,0,0-1.28.28,2.61,2.61,0,0,1-2,0,3.89,3.89,0,0,0-2.69-.1,3.61,3.61,0,0,0-1.8,1.22,3,3,0,0,1-1.85,1.09l-.25,0h0l-.21.06h0l-.18.06h0l-.07,0-.15.06h0l-.08,0-.1,0-.08,0h0l-.17.09-.14.09,0,0-.08.05-.12.09-.1.08c.08.54.15,1.07.23,1.62A2.47,2.47,0,0,1,49.48,54,4.19,4.19,0,0,0,52.2,52.4a2.54,2.54,0,0,1,2-.94,2.79,2.79,0,0,1,1,.21,3.89,3.89,0,0,0,2.81,0,2.57,2.57,0,0,1,3.18.87A4.12,4.12,0,0,0,63.81,54a2.49,2.49,0,0,1,2.1,2.1,3.63,3.63,0,0,0,.13.57C66,55.66,66,54.69,66,53.71Z" transform="translate(0.04 0)"></path><path class="cls-2" d="M56,55.3a.67.67,0,0,1,.67-.66.66.66,0,0,1,.69.67.68.68,0,1,1-1.36,0Z" transform="translate(0.04 0)"></path><path class="cls-2" d="M61.79,61.17l-.3-.3L59.92,59.3l-.18-.16c-.36-.29-.67-.23-1.06.16l-2.59,2.6c-.16.16-.24.16-.39,0-.36-.38-.73-.74-1.1-1.11a.76.76,0,0,0-.54-.27.81.81,0,0,0-.58.28l-1.92,1.92,0,0a.71.71,0,0,0,0,1.15l.43.42.16.17,3.15,3.15a.72.72,0,0,0,1.2,0l3.16-3.16.16-.16,1.71-1.72.27-.26A.71.71,0,0,0,61.79,61.17Zm-1.5.74-.54.55-.3.3-1.56,1.56-.16.16-1.68,1.68c-.12.13-.19.12-.31,0l-1.68-1.68c-.05-.06-.11-.11-.17-.17l-.84-.84c-.12-.11-.15-.19,0-.32s.29-.27.43-.41.28-.28.41-.43.22-.11.34,0l.4.41.7.69a.71.71,0,0,0,1.15,0l.7-.71c.64-.63,1.28-1.26,1.9-1.91.2-.2.3-.18.46,0l.21.22.56.55.14.15A1.2,1.2,0,0,1,60.29,61.91Z" transform="translate(0.04 0)"></path><path class="cls-2" d="M65.5,63.11a8.36,8.36,0,0,1-.07,1.13,1.11,1.11,0,0,1,0,.19,8.81,8.81,0,0,1-17.44.5l-.06-.45,0-.17a8.9,8.9,0,0,1,.56-4.05,8.67,8.67,0,0,1,2.33-3.38,9,9,0,0,1,2.34-1.51l.31-.12a.67.67,0,0,1,.85.35.65.65,0,0,1-.32.88l-.14.07c-.26.13-.52.24-.77.38a4.86,4.86,0,0,0-.54.33,7.07,7.07,0,0,0-1.7,1.57h0a7.34,7.34,0,0,0-1.57,5.48l0,.17a.68.68,0,0,0,0,.14,7.47,7.47,0,0,0,14.78-.14,1,1,0,0,0,0-.17,6.83,6.83,0,0,0,0-1.36c0-.07,0-.14,0-.21a7.07,7.07,0,0,0-2.61-5,8.86,8.86,0,0,0-1.74-1.09l-.19-.08c-.42-.2-.61-.45-.56-.78a.67.67,0,0,1,.87-.55l.14,0a10.35,10.35,0,0,1,1.48.77,8.94,8.94,0,0,1,4,6.56A4.07,4.07,0,0,1,65.5,63.11Z" transform="translate(0.04 0)"></path><path class="cls-2" d="M65.5,63.11a8.36,8.36,0,0,1-.07,1.13,1.11,1.11,0,0,1,0,.19,8.81,8.81,0,0,1-17.44.5l-.06-.45,0-.17a8.9,8.9,0,0,1,.56-4.05,8.67,8.67,0,0,1,2.33-3.38,9,9,0,0,1,2.34-1.51l.31-.12a.67.67,0,0,1,.85.35.65.65,0,0,1-.32.88l-.14.07c-.26.13-.52.24-.77.38a4.86,4.86,0,0,0-.54.33,7.07,7.07,0,0,0-1.7,1.57h0a7.34,7.34,0,0,0-1.57,5.48l0,.17a.68.68,0,0,0,0,.14,7.47,7.47,0,0,0,14.78-.14,1,1,0,0,0,0-.17,6.83,6.83,0,0,0,0-1.36c0-.07,0-.14,0-.21a7.07,7.07,0,0,0-2.61-5,8.86,8.86,0,0,0-1.74-1.09l-.19-.08c-.42-.2-.61-.45-.56-.78a.67.67,0,0,1,.87-.55l.14,0a10.35,10.35,0,0,1,1.48.77,8.94,8.94,0,0,1,4,6.56A4.07,4.07,0,0,1,65.5,63.11Z" transform="translate(0.04 0)"></path><path class="cls-2" d="M61.79,61.17l-.3-.3L59.92,59.3l-.18-.16c-.36-.29-.67-.23-1.06.16l-2.59,2.6c-.16.16-.24.16-.39,0-.36-.38-.73-.74-1.1-1.11a.76.76,0,0,0-.54-.27.81.81,0,0,0-.58.28l-1.92,1.92,0,0a.71.71,0,0,0,0,1.15l.43.42.16.17,3.15,3.15a.72.72,0,0,0,1.2,0l3.16-3.16.16-.16,1.71-1.72.27-.26A.71.71,0,0,0,61.79,61.17Zm-1.5.74-.54.55-.3.3-1.56,1.56-.16.16-1.68,1.68c-.12.13-.19.12-.31,0l-1.68-1.68c-.05-.06-.11-.11-.17-.17l-.84-.84c-.12-.11-.15-.19,0-.32s.29-.27.43-.41.28-.28.41-.43.22-.11.34,0l.4.41.7.69a.71.71,0,0,0,1.15,0l.7-.71c.64-.63,1.28-1.26,1.9-1.91.2-.2.3-.18.46,0l.21.22.56.55.14.15A1.2,1.2,0,0,1,60.29,61.91Z" transform="translate(0.04 0)"></path><path class="cls-2" d="M57.35,55.31a.68.68,0,1,1-1.36,0,.67.67,0,0,1,.67-.66A.66.66,0,0,1,57.35,55.31Z" transform="translate(0.04 0)"></path><path class="cls-2" d="M38.46,54.66A1.37,1.37,0,0,0,37,53.19q-2.2,0-4.41,0A1.39,1.39,0,0,0,31,54.6c0,.81,0,1.63,0,2.44a1.4,1.4,0,0,0,1.51,1.41H37A1.38,1.38,0,0,0,38.46,57C38.48,56.2,38.48,55.43,38.46,54.66ZM35.4,56.71H33.14c-.27,0-.36-.06-.37-.35-.07-1.44-.08-1.43,1.32-1.43.75,0,1.5,0,2.25,0,.31,0,.39.09.39.39C36.77,56.71,36.78,56.71,35.4,56.71Z" transform="translate(0.04 0)"></path><path class="cls-2" d="M44.67,62.68a1.54,1.54,0,0,0-.05.17H24.5a2.83,2.83,0,0,1-3-3.05c0-1.31,0-2.63,0-3.95,0-.64.33-1,.86-1s.87.37.88,1c0,1.3,0,2.6,0,3.89,0,1,.37,1.38,1.35,1.38s1.79,0,2.68,0c.42,0,.54-.08.54-.53,0-2.11,0-4.22,0-6.33,0-.49.13-.89.64-1s1.1.24,1.11,1c0,2.11,0,4.22,0,6.33,0,.46.07.62.58.61q4.94,0,9.87,0c.42,0,.54-.1.6-.53q.73-5.55,1.53-11.08a.74.74,0,0,0-.2-.73A8.57,8.57,0,0,1,41.2,48c-.16-.21-.29-.21-.53-.13A2,2,0,0,1,38.13,47c-1.18-1.65-2.37-3.3-3.53-5a.76.76,0,0,0-.94-.39c-1.36.3-2.73.51-4.1.76a3.3,3.3,0,0,0-1.08.37,3,3,0,0,1,.68,2.14,3.36,3.36,0,0,1-1,2l-.44.54a2.91,2.91,0,0,1-4.15.69,5.38,5.38,0,0,0-.37,1.89c0,.55,0,1.09,0,1.63a.86.86,0,0,1-.87.83.84.84,0,0,1-.85-.84c-.2-4.43,1.49-7.84,5.4-10.08a13.66,13.66,0,0,1,4.37-1.24l5.42-1a1.33,1.33,0,0,1,.74,0c.47.21.63-.09.76-.44A5.81,5.81,0,0,0,38.31,37c0-.22-.2-.27-.33-.37a10.14,10.14,0,0,1-4.52-7.25c0-.29-.15-.36-.42-.41a2.64,2.64,0,0,1-2.19-2.56c0-.71,0-1.43,0-2.14a2.58,2.58,0,0,1,.74-1.84.71.71,0,0,0,.23-.61c0-1.28,0-2.55,0-3.83a.62.62,0,0,0-.4-.66,7,7,0,0,1-2-1.48,3.53,3.53,0,0,1-.78-4,10.39,10.39,0,0,1,3.53-4.29,20.07,20.07,0,0,1,10-4c.12,0,.29.07.35-.12-.14.43-.55.31-.83.35a19.34,19.34,0,0,0-5.12,1.45A17.15,17.15,0,0,0,30,9.94,7.14,7.14,0,0,0,28.79,12a3.37,3.37,0,0,0,.8,3.74,6.66,6.66,0,0,0,1.76,1.32A1.12,1.12,0,0,1,32,18.18c0,1.1,0,2.2,0,3.31a1.54,1.54,0,0,1-.37,1.12,2.32,2.32,0,0,0-.56,1.66,17.57,17.57,0,0,1,0,1.92,2.43,2.43,0,0,0,1.77,2.5,1.13,1.13,0,0,1,.89,1,10,10,0,0,0,2.83,5.48,8.32,8.32,0,0,0,1.31,1.06,1.32,1.32,0,0,1,.65,1.26,3.45,3.45,0,0,1-.25,1.53c-.14.26-.31.48-.62.44a8.69,8.69,0,0,0-2.64.32c-1.85.32-3.69.67-5.53,1a9.92,9.92,0,0,0-7.7,8.19,15.67,15.67,0,0,0-.1,2.37c0,.56.29.89.71.88s.66-.32.69-.86a12.57,12.57,0,0,1,.13-2.37c0-.17.06-.34.11-.51.16-.49.29-.57.76-.34a2.85,2.85,0,0,0,2.14.19A4.76,4.76,0,0,0,29,44.53a2.41,2.41,0,0,0-.4-1.31c-.26-.39-.11-.61.26-.76a3.33,3.33,0,0,1,.67-.18c1.34-.23,2.67-.48,4-.75a1.14,1.14,0,0,1,1.29.52c1,1.4,2,2.78,3,4.16q.3.43.63.84a1.89,1.89,0,0,0,2.07.7.93.93,0,0,1,1,.29,2.21,2.21,0,0,1,.73,2.11c-.53,3.44-1,6.89-1.47,10.34-.1.72-.16.78-.88.78H30.19c-.76,0-.86-.11-.86-.89,0-1.83,0-3.67,0-5.51v-.58c0-.61-.24-.89-.69-.89s-.7.33-.71.89c0,1.47,0,2.94,0,4.41,0,.62,0,1.24,0,1.86s-.14.69-.7.7c-.94,0-1.89,0-2.84,0a1.24,1.24,0,0,1-1.3-1.33c0-1.26,0-2.51,0-3.77,0-.75-.26-1.12-.74-1.1s-.67.35-.68,1.09c0,1.16.07,2.32,0,3.48a2.89,2.89,0,0,0,3.05,3.08l18.56,0Z" transform="translate(0.04 0)"></path><path class="cls-2" d="M67.25,50.74c0,1.6,0,3.19,0,4.78v1.93l-.18-.17c0-.62,0-1.23,0-1.84v-.18h0c0-1.68,0-3.37,0-5a9.94,9.94,0,0,0-8-9.4c-2.14-.36-4.26-.81-6.39-1.18a4.47,4.47,0,0,0-1.5-.12.6.6,0,0,1-.65-.38,3.37,3.37,0,0,1-.2-2.21c0-.28.29-.45.52-.6A9.83,9.83,0,0,0,55,29.69a1.1,1.1,0,0,1,.87-1,2.38,2.38,0,0,0,1.76-2.5c0-.5,0-1,0-1.5a2.86,2.86,0,0,0-.7-2.26,1.25,1.25,0,0,1-.23-.88c0-1.12,0-2.25,0-3.37A1.16,1.16,0,0,1,57.4,17a6.42,6.42,0,0,0,1.68-1.24,3.43,3.43,0,0,0,.83-3.84,9.12,9.12,0,0,0-2.64-3.55A19.65,19.65,0,0,0,47.05,3.74c-.32,0-.76.09-.95-.35.82.16,1.65.28,2.46.47A18.66,18.66,0,0,1,58.67,9.6a7.59,7.59,0,0,1,1.41,2.31,3.51,3.51,0,0,1-.73,3.82,6.89,6.89,0,0,1-2.07,1.56.6.6,0,0,0-.39.66c0,1.26,0,2.52,0,3.78a.91.91,0,0,0,.27.71,2.39,2.39,0,0,1,.7,1.67c0,.78,0,1.55,0,2.32a2.6,2.6,0,0,1-2.18,2.5c-.27.05-.37.13-.42.42a10.11,10.11,0,0,1-4.52,7.24.6.6,0,0,0-.33.6,4.26,4.26,0,0,0,.22,1.88c.09.16.13.42.4.33a4,4,0,0,1,2,.12c2.15.38,4.3.77,6.44,1.2A10.13,10.13,0,0,1,67.12,49,13.47,13.47,0,0,1,67.25,50.74Z" transform="translate(0.04 0)"></path><path class="cls-2" d="M67.12,49a10.13,10.13,0,0,0-7.66-8.23c-2.14-.43-4.29-.82-6.44-1.2a4,4,0,0,0-2-.12c-.27.09-.31-.17-.4-.33a4.26,4.26,0,0,1-.22-1.88.6.6,0,0,1,.33-.6,10.11,10.11,0,0,0,4.52-7.24c0-.29.15-.37.42-.42a2.6,2.6,0,0,0,2.18-2.5c0-.77,0-1.54,0-2.32a2.39,2.39,0,0,0-.7-1.67.91.91,0,0,1-.27-.71c0-1.26,0-2.52,0-3.78a.6.6,0,0,1,.39-.66,6.89,6.89,0,0,0,2.07-1.56,3.51,3.51,0,0,0,.73-3.82A7.59,7.59,0,0,0,58.67,9.6,18.66,18.66,0,0,0,48.56,3.86c-.81-.19-1.64-.31-2.46-.47h-.23a.26.26,0,0,1-.35,0H43.31a.22.22,0,0,1-.19.06h0c-.08,0-.17,0-.23-.06H42.5c-.06.19-.23.11-.35.12a20.07,20.07,0,0,0-10,4.05,10.39,10.39,0,0,0-3.53,4.29,3.53,3.53,0,0,0,.78,4,7,7,0,0,0,2,1.48.62.62,0,0,1,.4.66c0,1.28,0,2.55,0,3.83a.71.71,0,0,1-.23.61,2.58,2.58,0,0,0-.74,1.84c0,.71,0,1.43,0,2.14A2.64,2.64,0,0,0,33,28.93c.27.05.38.12.42.41A10.14,10.14,0,0,0,38,36.59c.13.1.33.15.33.37a5.81,5.81,0,0,1-.14,1.95c-.13.35-.29.65-.76.44a1.33,1.33,0,0,0-.74,0l-5.42,1a13.66,13.66,0,0,0-4.37,1.24c-3.91,2.24-5.6,5.65-5.4,10.08a.84.84,0,0,0,.85.84.86.86,0,0,0,.87-.83c0-.54,0-1.08,0-1.63a5.38,5.38,0,0,1,.37-1.89,2.91,2.91,0,0,0,4.15-.69l.44-.54a3.36,3.36,0,0,0,1-2,3,3,0,0,0-.68-2.14,3.3,3.3,0,0,1,1.08-.37c1.37-.25,2.74-.46,4.1-.76a.76.76,0,0,1,.94.39c1.16,1.66,2.35,3.31,3.53,5a2,2,0,0,0,2.54.84c.24-.08.37-.08.53.13a8.57,8.57,0,0,0,.68.79.74.74,0,0,1,.2.73q-.8,5.54-1.53,11.08c-.06.43-.18.53-.6.53q-4.94,0-9.87,0c-.51,0-.59-.15-.58-.61,0-2.11,0-4.22,0-6.33,0-.72-.49-1.14-1.11-1s-.64.55-.64,1c0,2.11,0,4.22,0,6.33,0,.45-.12.54-.54.53-.89,0-1.79,0-2.68,0s-1.35-.37-1.35-1.38c0-1.29,0-2.59,0-3.89,0-.63-.35-1-.88-1s-.86.37-.86,1c0,1.32,0,2.64,0,3.95a2.83,2.83,0,0,0,3,3.05H44.62a1.54,1.54,0,0,1,.05-.17,4.22,4.22,0,0,0,.12-1.58H43.4c-.24,0-.49,0-.73,0s-.45-.11-.4-.46c.3-2,.58-4,.86-6.08.21-1.5.45-3,.62-4.48.06-.52.36-.39.64-.4s.52-.05.58.4c.18,1.36.36,2.71.55,4.06h0a2.51,2.51,0,0,0,0,.27h0l.3,2.17a4,4,0,0,0,1-2.11,2.5,2.5,0,0,1,.36-1c-.07-.54-.15-1.08-.23-1.62,0,0,0-.07,0-.11-.11-.74-.21-1.48-.32-2.22a.85.85,0,0,1,.24-.82,5.78,5.78,0,0,0,.6-.71.44.44,0,0,1,.58-.16A2,2,0,0,0,50.59,47c1.19-1.66,2.39-3.33,3.56-5a.71.71,0,0,1,.86-.34c1.34.28,2.69.5,4,.76a3.59,3.59,0,0,1,1.18.37,3.12,3.12,0,0,0-.68,2.15,3.4,3.4,0,0,0,1,2l.44.55a2.92,2.92,0,0,0,4.16.67,6.22,6.22,0,0,1,.36,2V52a.24.24,0,0,1,0,.12c0,1,0,2,0,2.93a4.22,4.22,0,0,0,1.42,2.13l.15.14.18.17V55.52c0-1.59,0-3.18,0-4.78A13.47,13.47,0,0,0,67.12,49ZM40.06,37.78c4,1.08,5.26,1.08,8.58,0a4.25,4.25,0,0,0,.69,2.56c.12.17,0,.25-.14.32l-4.64,3.48c-.19.14-.3.06-.45-.05l-4.55-3.41c-.14-.11-.28-.19-.13-.41A4,4,0,0,0,40.06,37.78Zm2.45-1.13a8.8,8.8,0,0,1-7-6.18,9.3,9.3,0,0,1-.38-2.22c-.06-.74-.32-1-1.07-1h-.52a.9.9,0,0,1-.91-.93c0-.7,0-1.39,0-2.09s.25-.77.87-.62a2.64,2.64,0,0,1,1.17.61,1.14,1.14,0,0,0,1.34.21,1.21,1.21,0,0,0,.7-1.17c0-.55,0-1.09,0-1.63,0-.29.06-.35.36-.26a26.94,26.94,0,0,0,8.09,1A26.55,26.55,0,0,0,52,21.27c0,.69,0,1.31,0,1.93a1.22,1.22,0,0,0,.71,1.22,1.19,1.19,0,0,0,1.39-.25,2.8,2.8,0,0,1,1.24-.59c.46-.13.68.08.72.48a12.33,12.33,0,0,1,0,2.43.8.8,0,0,1-.73.72,6.28,6.28,0,0,1-.75,0c-.67,0-1,.28-1,.95a8.4,8.4,0,0,1-2.18,5.49A9.16,9.16,0,0,1,42.51,36.65ZM33.56,14A1,1,0,0,1,34.35,13a33.48,33.48,0,0,1,13.82-1.15c2,.28,3.93.63,5.86,1.1,1,.24,1.12.44,1.12,1.45,0,.46,0,.93,0,1.39,0,.3-.08.4-.39.39-.62,0-1.24,0-1.86,0a.87.87,0,0,0-1,.85.89.89,0,0,0,1,.88c.57,0,1.14,0,1.84,0a6.59,6.59,0,0,1-2.36,1.42,19.36,19.36,0,0,1-6.11,1.22,24.68,24.68,0,0,1-9.28-1,7.92,7.92,0,0,1-3-1.65H48.44c.64,0,1-.34,1-.87s-.38-.87-1.06-.87c-4.7,0-9.4,0-14.1,0-.58,0-.84-.1-.76-.74A9.19,9.19,0,0,0,33.56,14Zm21.59,7.63a.21.21,0,0,1-.18.23c-.39.1-.77.23-1.15.35-.16-1.56-.16-1.56,1.33-2.37ZM55.7,9.14A10.82,10.82,0,0,1,58,11.64c1,1.63.67,2.87-1.13,3.81,0-.52,0-1,0-1.45a2.64,2.64,0,0,0-2-2.66A40.71,40.71,0,0,0,41,9.92a40.27,40.27,0,0,0-7.21,1.39,2.72,2.72,0,0,0-2,2.52c0,.53,0,1.05,0,1.57A2.26,2.26,0,0,1,30.48,12,11,11,0,0,1,34,8.43,18.14,18.14,0,0,1,55.7,9.14ZM27.23,45.32c-.34.44-.69.88-1.05,1.31a1.07,1.07,0,0,1-1.11.32c-.71-.17-.83-.47-.44-1.06a8.18,8.18,0,0,1,1.63-1.79c.19-.15.37-.5.66-.34a1,1,0,0,1,.5.91A.88.88,0,0,1,27.23,45.32Zm13,.86a.45.45,0,0,1-.64-.18l-3.2-4.47c-.19-.26-.13-.33.17-.4a1.18,1.18,0,0,1,1.06.23c1.65,1.27,3.32,2.5,5,3.78Zm5.37,1.43a1,1,0,0,1-.79.35c-.82,0-1.58,0-2-.83a.44.44,0,0,0,0-.13l1.39-.59c.49-.21.84.17,1.24.31C46.06,47,46,47,45.56,47.61Zm6.78-6.06c-.59.85-1.2,1.69-1.81,2.54-.45.63-.9,1.25-1.34,1.88a.47.47,0,0,1-.68.2c-.77-.34-1.56-.66-2.42-1l5.3-4c.34-.25.68-.06,1,0S52.41,41.45,52.34,41.55Zm11.31,5.39a1.59,1.59,0,0,1-.23,0c-.91,0-2.31-1.77-2.1-2.59.16-.64.54-.78,1-.37a8.22,8.22,0,0,1,1.72,1.86C64.46,46.46,64.34,46.78,63.65,46.94Z" transform="translate(0.04 0)"></path><path class="cls-2" d="M45.87,3.39c-.12.19-.24.14-.35,0Z" transform="translate(0.04 0)"></path><path class="cls-2" d="M43.07,3.49c-.09,0-.19,0-.22-.1h.23s.05,0,0,.07S43.09,3.49,43.07,3.49Z" transform="translate(0.04 0)"></path><path class="cls-2" d="M43.07,3.49a.34.34,0,0,0,0-.1h.23A.19.19,0,0,1,43.07,3.49Z" transform="translate(0.04 0)"></path><path class="cls-2" d="M38.46,54.66A1.37,1.37,0,0,0,37,53.19q-2.2,0-4.41,0A1.39,1.39,0,0,0,31,54.6c0,.81,0,1.63,0,2.44a1.4,1.4,0,0,0,1.51,1.41H37A1.38,1.38,0,0,0,38.46,57C38.48,56.2,38.48,55.43,38.46,54.66ZM35.4,56.71H33.14c-.27,0-.36-.06-.37-.35-.07-1.44-.08-1.43,1.32-1.43.75,0,1.5,0,2.25,0,.31,0,.39.09.39.39C36.77,56.71,36.78,56.71,35.4,56.71Z" transform="translate(0.04 0)"></path></svg>