<svg xmlns="http://www.w3.org/2000/svg" id="Layer_1" data-name="Layer 1" viewBox="0 0 91 91"><defs><style>.cls-1{fill:#fff;}.cls-2{fill:#083264;}</style></defs><circle class="cls-1" cx="45.5" cy="45.5" r="45.5"></circle><path class="cls-2" d="M23.93,48.36c0,1.47,0,2.93,0,4.4s0,3,0,4.47c0,.39-.1.51-.49.5-1.15,0-2.3,0-3.44,0-.39,0-.5-.11-.49-.5q0-2.82,0-5.64c0-.39.1-.55.49-.48h.07c.54,0,1.25.24,1.57-.13s.07-1,.08-1.52c0-1.67,0-1.66,1.65-1.67C23.83,47.79,23.94,47.91,23.93,48.36Z" transform="translate(0.04 0)"></path><path class="cls-2" d="M31.64,30.73c0-.44-.11-.56-.56-.56-2.39,0-4.77,0-7.16,0s-4.77,0-7.16,0c-.45,0-.56.12-.56.56,0,3.31,0,6.61,0,9.92,0,.45.11.56.56.56q7.15,0,14.32,0c.45,0,.56-.11.56-.56C31.62,37.34,31.62,34,31.64,30.73Zm-9.08,4.58c-1,1-2,2-3,3-.26.27-.41.29-.7,0-1.23-1.21-1.25-1.2-.05-2.39l2.87-2.87.37-.34c.18.17.35.31.51.47C23.6,34.26,23.6,34.26,22.56,35.31Zm6.52.08c-1,1-2,1.93-2.91,2.93-.3.32-.48.3-.74,0s-1-.77-1-1.2.64-.76,1-1.14l2.87-2.86.34-.32c.23,0,.32.2.44.32C30.23,34.25,30.22,34.25,29.08,35.39Z" transform="translate(0.04 0)"></path><path class="cls-2" d="M31.64,13.15c0-.48-.11-.6-.6-.6q-7.11,0-14.24,0c-.48,0-.6.11-.6.6q0,4.92,0,9.84c0,.48.11.6.59.6,2.37,0,4.73,0,7.09,0s4.78,0,7.16,0c.48,0,.61-.11.6-.6Q31.61,18.07,31.64,13.15ZM23.28,17c-1.25,1.25-2.51,2.49-3.74,3.75-.28.29-.45.27-.7,0s-1-.77-1.07-1.2.66-.8,1-1.19c1-1,1.93-1.9,2.86-2.88.3-.32.48-.31.75,0s.61.62.92.93l.23.27Zm6.66,0Q28,18.84,26.1,20.77c-.24.24-.37.21-.6,0-1.31-1.22-1.31-1.21-.08-2.44,1-1,1.92-1.9,2.86-2.88.3-.31.48-.31.75,0s.61.62.91.93a3.23,3.23,0,0,1,.23.27Z" transform="translate(0.04 0)"></path><path class="cls-2" d="M32.18,47.79c.45,0,.57.12.56.57,0,1.49,0,3,0,4.47s0,2.94,0,4.4c0,.39-.1.51-.49.5-1.15,0-2.29,0-3.44,0-.39,0-.5-.11-.49-.5q0-2.82,0-5.64c0-.39.1-.55.49-.48h.07c.54,0,1.25.24,1.57-.13s.08-1,.08-1.52C30.53,47.79,30.53,47.8,32.18,47.79Z" transform="translate(0.04 0)"></path><path class="cls-2" d="M34.94,71.67a.72.72,0,0,1-.45.78A3.11,3.11,0,0,0,32.81,76c.1.42,0,.5-.39.5-5.25,0-10.5,0-15.74,0-.42,0-.48-.15-.48-.51q0-6.09,0-12.17c0-.47.13-.56.57-.56,2.93,0,5.87,0,8.8,0s5.87,0,8.8,0c.43,0,.58.09.58.55C34.92,66.4,34.93,69,34.94,71.67Z" transform="translate(0.04 0)"></path><path class="cls-2" d="M14.63,61c-.52,0-.65-.12-.64-.63,0-1.58,0-1.58,1.6-1.58,6.22,0,12.44,0,18.66,0,.57,0,.72.14.7.71,0,1.51,0,1.51-1.53,1.51h-9C21.19,61,17.91,61,14.63,61Z" transform="translate(0.04 0)"></path><path class="cls-2" d="M50.36,49.35a1,1,0,0,1-.21.64c-.5.73-.85,1.73-1.55,2.12s-1.65.09-2.5.1h-.34c-.85,0-1.85.25-2.49-.12s-1.05-1.4-1.55-2.14c0-.07-.13-.15-.13-.23-.08-1.53-.23-3.08.75-4.43A4.3,4.3,0,0,1,46,43.41a4.37,4.37,0,0,1,4.3,4.15C50.37,48.16,50.34,48.76,50.36,49.35Z" transform="translate(0.04 0)"></path><path class="cls-2" d="M53.67,13.11c0-.44-.11-.56-.56-.56-2.39,0-4.78,0-7.16,0s-4.77,0-7.16,0c-.45,0-.57.12-.56.56q0,5,0,9.91c0,.45.11.57.56.57q7.16,0,14.32,0c.44,0,.56-.12.56-.57Q53.64,18.07,53.67,13.11Zm-9.22,4.71c-1,1-1.91,1.92-2.87,2.87-.11.11-.24.21-.37.33-.13-.13-.25-.23-.36-.35-.36-.4-1.05-.73-1-1.18s.64-.78,1-1.15c1-1,1.92-1.9,2.86-2.88.27-.27.45-.4.75,0s1,.77,1.06,1.2S44.83,17.43,44.45,17.82Zm6.64,0-2.88,2.87c-.11.11-.23.21-.33.32s-.32-.22-.44-.34c-.38-.37-1-.73-1-1.14s.63-.77,1-1.14c1-1,2-1.94,2.91-2.93.3-.32.46-.28.75,0C52.25,16.64,52.26,16.62,51.09,17.8Z" transform="translate(0.04 0)"></path><path class="cls-2" d="M53.67,30.73c0-.45-.12-.56-.56-.56q-7.17,0-14.32,0c-.45,0-.56.12-.56.57q0,4.95,0,9.91c0,.45.11.56.56.56,2.39,0,4.77,0,7.16,0s4.77,0,7.16,0c.45,0,.56-.12.56-.57Q53.64,35.69,53.67,30.73Zm-9.23,4.72c-.93.95-1.88,1.89-2.82,2.82a.86.86,0,0,1-.52.35c-.2-.21-.41-.48-.65-.72-.78-.79-.79-.79,0-1.56,1.09-1.09,2.18-2.16,3.25-3.27.29-.29.47-.35.75,0s1,.78,1.05,1.2S44.82,35.06,44.44,35.45Zm6.71-.1c-1,1-2,2-3,3-.26.26-.43.34-.69,0s-1.1-.76-1.08-1.24.68-.81,1.06-1.19l2.82-2.82c.11-.12.23-.22.37-.35.17.15.32.28.46.42C52.24,34.26,52.24,34.26,51.15,35.35Z" transform="translate(0.04 0)"></path><path class="cls-2" d="M37.13,71.48c0-4.57,0-9.13,0-13.7a3.27,3.27,0,0,1,3.34-3.36c3.65,0,7.29,0,10.94,0a3.27,3.27,0,0,1,3.34,3.37c0,4.56,0,9.13,0,13.69,0,.46-.12.57-.56.56-2.76,0-5.51,0-8.26,0s-5.51,0-8.26,0C37.23,72.05,37.13,71.92,37.13,71.48Z" transform="translate(0.04 0)"></path><path class="cls-2" d="M57,75.32a1,1,0,0,1-.94,1.1,3.09,3.09,0,0,1-.61,0H36.49c-.14,0-.28,0-.41,0a1.11,1.11,0,0,1-1.14-1.13,1.09,1.09,0,0,1,1.11-1.07H55.37a4.26,4.26,0,0,1,.62,0A1,1,0,0,1,57,75.32Z" transform="translate(0.04 0)"></path><path class="cls-2" d="M72.39,54.9c0,1.71,0,1.71-1.67,1.71-2.2,0-4.4,0-6.6,0-.46,0-.56-.13-.56-.57,0-1.65,0-1.65,1.67-1.65H68c1.31,0,2.62,0,3.93,0C72.3,54.4,72.39,54.52,72.39,54.9Z" transform="translate(0.04 0)"></path><path class="cls-2" d="M75.69,63.69q0,6.15,0,12.31c0,.29,0,.45-.39.45-5.41,0-10.82,0-16.29,0a3.29,3.29,0,0,0-1.84-4.11c-.22-.11-.21-.27-.21-.44,0-2.75,0-5.51,0-8.26,0-.33.1-.41.43-.41q8.94,0,17.88,0C75.66,63.21,75.69,63.37,75.69,63.69Z" transform="translate(0.04 0)"></path><path class="cls-2" d="M75.7,13.11c0-.44-.12-.56-.57-.56q-7.16,0-14.31,0c-.45,0-.57.12-.56.56q0,5,0,9.91c0,.45.11.57.56.57,2.38,0,4.77,0,7.16,0s4.77,0,7.15,0c.45,0,.57-.12.57-.57Q75.67,18.07,75.7,13.11Zm-9.21,4.7c-.95,1-1.91,1.91-2.87,2.87l-.48.44a5.22,5.22,0,0,0-.45-.62c-1-1-1-1,0-2s2-2,3-3.07c.27-.28.42-.3.7,0C67.68,16.62,67.69,16.61,66.49,17.81Zm6.72-.11c-1,1-2,2-3,3-.28.28-.45.38-.75,0s-1-.77-1.06-1.19.66-.8,1-1.19c1-1,1.91-1.92,2.87-2.87.11-.12.24-.21.37-.33.16.16.32.29.46.44C74.27,16.64,74.27,16.64,73.21,17.7Z" transform="translate(0.04 0)"></path><path class="cls-2" d="M75.7,30.73c0-.44-.12-.56-.57-.56q-7.16,0-14.31,0c-.45,0-.57.12-.56.56,0,3.31,0,6.61,0,9.92,0,.45.11.56.56.56,2.36,0,4.73,0,7.09,0s4.82,0,7.22,0c.45,0,.57-.12.57-.57Q75.67,35.69,75.7,30.73Zm-8.37,3.86c-1.25,1.25-2.5,2.49-3.74,3.75-.28.3-.44.27-.69,0s-1-.76-1.07-1.19.66-.8,1-1.19c1-1,1.93-1.9,2.86-2.88.3-.32.48-.3.75,0s.61.62.92.92l.22.27C67.51,34.39,67.43,34.5,67.33,34.59Zm6.6,0-3.74,3.75c-.24.25-.4.3-.65,0s-1-.79-1.1-1.25.67-.79,1-1.18c1-1,1.92-1.91,2.86-2.88.26-.27.44-.33.7,0s.61.61.92.93c.09.09.22.16.22.35A3.32,3.32,0,0,1,73.93,34.6Z" transform="translate(0.04 0)"></path><path class="cls-2" d="M77.91,59.51c0,1.51,0,1.51-1.54,1.51H67.43c-3.28,0-6.56,0-9.84,0-.52,0-.65-.11-.64-.63,0-1.58,0-1.58,1.6-1.58,6.21,0,12.43,0,18.65,0C77.77,58.8,77.92,58.93,77.91,59.51Z" transform="translate(0.04 0)"></path><path class="cls-2" d="M54.77,71.48c0,.46-.12.57-.56.56-2.76,0-5.51,0-8.26,0s-5.51,0-8.26,0c-.46,0-.56-.12-.56-.56,0-4.57,0-9.13,0-13.7a3.27,3.27,0,0,1,3.34-3.36c3.65,0,7.29,0,10.94,0a3.27,3.27,0,0,1,3.34,3.37C54.77,62.35,54.75,66.92,54.77,71.48Z" transform="translate(0.04 0)"></path><path class="cls-2" d="M34.94,71.67a.72.72,0,0,1-.45.78A3.11,3.11,0,0,0,32.81,76c.1.42,0,.5-.39.5-5.25,0-10.5,0-15.74,0-.42,0-.48-.15-.48-.51q0-6.09,0-12.17c0-.47.13-.56.57-.56,2.93,0,5.87,0,8.8,0s5.87,0,8.8,0c.43,0,.58.09.58.55C34.92,66.4,34.93,69,34.94,71.67Z" transform="translate(0.04 0)"></path><path class="cls-2" d="M75.69,76c0,.29,0,.45-.39.45-5.41,0-10.82,0-16.29,0a3.29,3.29,0,0,0-1.84-4.11c-.22-.11-.21-.27-.21-.44,0-2.75,0-5.51,0-8.26,0-.33.1-.41.43-.41q8.94,0,17.88,0c.4,0,.43.16.43.48Q75.68,69.84,75.69,76Z" transform="translate(0.04 0)"></path><path class="cls-2" d="M31.64,13.15c0-.48-.11-.6-.6-.6q-7.11,0-14.24,0c-.48,0-.6.11-.6.6q0,4.92,0,9.84c0,.48.11.6.59.6,2.37,0,4.73,0,7.09,0s4.78,0,7.16,0c.48,0,.61-.11.6-.6Q31.61,18.07,31.64,13.15ZM23.28,17c-1.25,1.25-2.51,2.49-3.74,3.75-.28.29-.45.27-.7,0s-1-.77-1.07-1.2.66-.8,1-1.19c1-1,1.93-1.9,2.86-2.88.3-.32.48-.31.75,0s.61.62.92.93l.23.27Zm6.66,0Q28,18.84,26.1,20.77c-.24.24-.37.21-.6,0-1.31-1.22-1.31-1.21-.08-2.44,1-1,1.92-1.9,2.86-2.88.3-.31.48-.31.75,0s.61.62.91.93a3.23,3.23,0,0,1,.23.27Z" transform="translate(0.04 0)"></path><path class="cls-2" d="M53.67,13.11c0-.44-.11-.56-.56-.56-2.39,0-4.78,0-7.16,0s-4.77,0-7.16,0c-.45,0-.57.12-.56.56q0,5,0,9.91c0,.45.11.57.56.57q7.16,0,14.32,0c.44,0,.56-.12.56-.57Q53.64,18.07,53.67,13.11Zm-9.22,4.71c-1,1-1.91,1.92-2.87,2.87-.11.11-.24.21-.37.33-.13-.13-.25-.23-.36-.35-.36-.4-1.05-.73-1-1.18s.64-.78,1-1.15c1-1,1.92-1.9,2.86-2.88.27-.27.45-.4.75,0s1,.77,1.06,1.2S44.83,17.43,44.45,17.82Zm6.64,0-2.88,2.87c-.11.11-.23.21-.33.32s-.32-.22-.44-.34c-.38-.37-1-.73-1-1.14s.63-.77,1-1.14c1-1,2-1.94,2.91-2.93.3-.32.46-.28.75,0C52.25,16.64,52.26,16.62,51.09,17.8Z" transform="translate(0.04 0)"></path><path class="cls-2" d="M75.7,13.11c0-.44-.12-.56-.57-.56q-7.16,0-14.31,0c-.45,0-.57.12-.56.56q0,5,0,9.91c0,.45.11.57.56.57,2.38,0,4.77,0,7.16,0s4.77,0,7.15,0c.45,0,.57-.12.57-.57Q75.67,18.07,75.7,13.11Zm-9.21,4.7c-.95,1-1.91,1.91-2.87,2.87l-.48.44a5.22,5.22,0,0,0-.45-.62c-1-1-1-1,0-2s2-2,3-3.07c.27-.28.42-.3.7,0C67.68,16.62,67.69,16.61,66.49,17.81Zm6.72-.11c-1,1-2,2-3,3-.28.28-.45.38-.75,0s-1-.77-1.06-1.19.66-.8,1-1.19c1-1,1.91-1.92,2.87-2.87.11-.12.24-.21.37-.33.16.16.32.29.46.44C74.27,16.64,74.27,16.64,73.21,17.7Z" transform="translate(0.04 0)"></path><path class="cls-2" d="M31.64,30.73c0-.44-.11-.56-.56-.56-2.39,0-4.77,0-7.16,0s-4.77,0-7.16,0c-.45,0-.56.12-.56.56,0,3.31,0,6.61,0,9.92,0,.45.11.56.56.56q7.15,0,14.32,0c.45,0,.56-.11.56-.56C31.62,37.34,31.62,34,31.64,30.73Zm-9.08,4.58c-1,1-2,2-3,3-.26.27-.41.29-.7,0-1.23-1.21-1.25-1.2-.05-2.39l2.87-2.87.37-.34c.18.17.35.31.51.47C23.6,34.26,23.6,34.26,22.56,35.31Zm6.52.08c-1,1-2,1.93-2.91,2.93-.3.32-.48.3-.74,0s-1-.77-1-1.2.64-.76,1-1.14l2.87-2.86.34-.32c.23,0,.32.2.44.32C30.23,34.25,30.22,34.25,29.08,35.39Z" transform="translate(0.04 0)"></path><path class="cls-2" d="M53.67,30.73c0-.45-.12-.56-.56-.56q-7.17,0-14.32,0c-.45,0-.56.12-.56.57q0,4.95,0,9.91c0,.45.11.56.56.56,2.39,0,4.77,0,7.16,0s4.77,0,7.16,0c.45,0,.56-.12.56-.57Q53.64,35.69,53.67,30.73Zm-9.23,4.72c-.93.95-1.88,1.89-2.82,2.82a.86.86,0,0,1-.52.35c-.2-.21-.41-.48-.65-.72-.78-.79-.79-.79,0-1.56,1.09-1.09,2.18-2.16,3.25-3.27.29-.29.47-.35.75,0s1,.78,1.05,1.2S44.82,35.06,44.44,35.45Zm6.71-.1c-1,1-2,2-3,3-.26.26-.43.34-.69,0s-1.1-.76-1.08-1.24.68-.81,1.06-1.19l2.82-2.82c.11-.12.23-.22.37-.35.17.15.32.28.46.42C52.24,34.26,52.24,34.26,51.15,35.35Z" transform="translate(0.04 0)"></path><path class="cls-2" d="M75.7,30.73c0-.44-.12-.56-.57-.56q-7.16,0-14.31,0c-.45,0-.57.12-.56.56,0,3.31,0,6.61,0,9.92,0,.45.11.56.56.56,2.36,0,4.73,0,7.09,0s4.82,0,7.22,0c.45,0,.57-.12.57-.57Q75.67,35.69,75.7,30.73Zm-8.37,3.86c-1.25,1.25-2.5,2.49-3.74,3.75-.28.3-.44.27-.69,0s-1-.76-1.07-1.19.66-.8,1-1.19c1-1,1.93-1.9,2.86-2.88.3-.32.48-.3.75,0s.61.62.92.92l.22.27C67.51,34.39,67.43,34.5,67.33,34.59Zm6.6,0-3.74,3.75c-.24.25-.4.3-.65,0s-1-.79-1.1-1.25.67-.79,1-1.18c1-1,1.92-1.91,2.86-2.88.26-.27.44-.33.7,0s.61.61.92.93c.09.09.22.16.22.35A3.32,3.32,0,0,1,73.93,34.6Z" transform="translate(0.04 0)"></path><path class="cls-2" d="M50.36,49.35a1,1,0,0,1-.21.64c-.5.73-.85,1.73-1.55,2.12s-1.65.09-2.5.1h-.34c-.85,0-1.85.25-2.49-.12s-1.05-1.4-1.55-2.14c0-.07-.13-.15-.13-.23-.08-1.53-.23-3.08.75-4.43A4.3,4.3,0,0,1,46,43.41a4.37,4.37,0,0,1,4.3,4.15C50.37,48.16,50.34,48.76,50.36,49.35Z" transform="translate(0.04 0)"></path><path class="cls-2" d="M57,75.32a1,1,0,0,1-.94,1.1,3.09,3.09,0,0,1-.61,0H36.49c-.14,0-.28,0-.41,0a1.11,1.11,0,0,1-1.14-1.13,1.09,1.09,0,0,1,1.11-1.07H55.37a4.26,4.26,0,0,1,.62,0A1,1,0,0,1,57,75.32Z" transform="translate(0.04 0)"></path><path class="cls-2" d="M35,59.51c0,1.51,0,1.51-1.53,1.51h-9c-3.28,0-6.56,0-9.84,0-.52,0-.65-.12-.64-.63,0-1.58,0-1.58,1.6-1.58,6.22,0,12.44,0,18.66,0C34.82,58.8,35,58.94,35,59.51Z" transform="translate(0.04 0)"></path><path class="cls-2" d="M77.91,59.51c0,1.51,0,1.51-1.54,1.51H67.43c-3.28,0-6.56,0-9.84,0-.52,0-.65-.11-.64-.63,0-1.58,0-1.58,1.6-1.58,6.21,0,12.43,0,18.65,0C77.77,58.8,77.92,58.93,77.91,59.51Z" transform="translate(0.04 0)"></path><path class="cls-2" d="M23.93,57.23c0,.39-.1.51-.49.5-1.15,0-2.3,0-3.44,0-.39,0-.5-.11-.49-.5q0-2.82,0-5.64c0-.39.1-.55.49-.48h.07c.54,0,1.25.24,1.57-.13s.07-1,.08-1.52c0-1.67,0-1.66,1.65-1.67.46,0,.57.12.56.57,0,1.47,0,2.93,0,4.4S23.91,55.74,23.93,57.23Z" transform="translate(0.04 0)"></path><path class="cls-2" d="M32.74,57.23c0,.39-.1.51-.49.5-1.15,0-2.29,0-3.44,0-.39,0-.5-.11-.49-.5q0-2.82,0-5.64c0-.39.1-.55.49-.48h.07c.54,0,1.25.24,1.57-.13s.08-1,.08-1.52c0-1.67,0-1.66,1.65-1.67.45,0,.57.12.56.57,0,1.49,0,3,0,4.47S32.72,55.77,32.74,57.23Z" transform="translate(0.04 0)"></path><path class="cls-2" d="M70.72,56.61c-2.2,0-4.4,0-6.6,0-.46,0-.56-.13-.56-.57,0-1.65,0-1.65,1.67-1.65H68c1.31,0,2.62,0,3.93,0,.39,0,.48.12.48.5C72.41,56.61,72.42,56.61,70.72,56.61Z" transform="translate(0.04 0)"></path></svg>