<svg xmlns="http://www.w3.org/2000/svg" id="Layer_1" data-name="Layer 1" viewBox="0 0 91 91"><defs><style>.cls-1{fill:#fff;}.cls-2{fill:#083264;}</style></defs><circle class="cls-1" cx="45.5" cy="45.5" r="45.5"></circle><path class="cls-2" d="M28.22,29.83a.67.67,0,0,1,1.33,0,.66.66,0,0,1-.65.7A.66.66,0,0,1,28.22,29.83Z" transform="translate(0.04 0)"></path><path class="cls-2" d="M28.35,27.24v-8.9c0-.43.08-.77.59-.79s.6.25.61.78v4.51c0,1.46,0,2.93,0,4.39,0,.44-.12.76-.6.8S28.35,27.76,28.35,27.24Z" transform="translate(0.04 0)"></path><path class="cls-2" d="M34.45,41.12c0-.51-.22-1.19.11-1.48s.95-.08,1.45-.08h3.11c1.38,0,2.76,0,4.14,0,.34,0,.42.1.4.41,0,.51.17,1.18-.09,1.5s-1,.1-1.47.11c-2.4,0-4.8,0-7.21,0C34.52,41.58,34.41,41.48,34.45,41.12Z" transform="translate(0.04 0)"></path><path class="cls-2" d="M34.44,34a6.2,6.2,0,0,0,0-1.14c0-.37.09-.46.46-.46,2.22,0,4.45,0,6.68,0,.55,0,1.11,0,1.66,0,.36,0,.44.11.42.43a7.88,7.88,0,0,0,0,1.19c0,.32-.07.41-.4.41-1.41,0-2.83,0-4.25,0s-2.76,0-4.14,0C34.52,34.4,34.42,34.3,34.44,34Z" transform="translate(0.04 0)"></path><path class="cls-2" d="M31.57,35.92a.74.74,0,0,0,.42-.76c0-.36,0-.73,0-1.09,0-7.74,0-15.49,0-23.23a.63.63,0,0,1,.52-.72L43.25,6.58c.14,0,.28-.15.47-.08v.56q0,11.78,0,23.54c0,.43-.07.58-.55.57-3,0-6,0-9.08,0-.69,0-.85.16-.86.84v2.75c0,.68.18.86.86.86,3,0,6,0,9.07,0,.46,0,.59.11.56.57a10.22,10.22,0,0,0,0,1.66c0,.46-.14.52-.55.52-3,0-6,0-9,0-.82,0-1,.14-1,.95v2.64c0,.69.17.86.86.86,3,0,6.08,0,9.12,0,.41,0,.51.11.51.51,0,1.92,0,3.84,0,5.76,0,.29,0,.45-.39.48-3.63.38-7.25.76-10.87,1.18-.44,0-.48-.06-.48-.43,0-4,0-8,0-12,0-.45.07-.91-.52-1.11C31.26,37.07,31.35,36,31.57,35.92Z" transform="translate(0.04 0)"></path><path class="cls-2" d="M16.68,68.39c.05-.46-.14-1.07.09-1.35s.88-.08,1.34-.09q1.22,0,2.43,0c.43,0,.73-.16.73-.61s-.31-.61-.73-.61c-1.42,0-2.84,0-4.26,0-.6,0-.79.2-.79.82V69.3c0,.74.14.88.88.88h22.3c.73,0,.74,0,.7.73a39.41,39.41,0,0,0,0,5c0,.33-.07.42-.41.42q-12.67,0-25.36,0c-.41,0-.47-.14-.47-.5q0-10.66,0-21.32c0-.38.09-.5.5-.55q8.65-.9,17.31-1.86,6.12-.66,12.26-1.34c.4,0,.51,0,.51.46,0,2.25,0,4.49,0,6.74,0,.39-.11.48-.49.48H27.79a4.47,4.47,0,0,0-.52,0,.55.55,0,0,0-.52.6.53.53,0,0,0,.49.57,3,3,0,0,0,.52,0h15.4c.46,0,.62.1.57.56a5.67,5.67,0,0,0,0,1.09c0,.33-.09.4-.4.4-1.61,0-3.22,0-4.83,0H17.24c-.47,0-.61-.11-.56-.56a5.16,5.16,0,0,0,0-1c0-.38.12-.45.47-.45h7.42a3.54,3.54,0,0,0,.46,0,.53.53,0,0,0,.49-.57.54.54,0,0,0-.52-.6H16.39c-.76,0-.9.14-.9.91v2.49c0,1,.11,1,1.08,1H42.66a12.42,12.42,0,0,0-1.48,1.33,2.48,2.48,0,0,0-.58.78c-.2.74-.68.76-1.32.76-5.25,0-10.51,0-15.76,0a2.24,2.24,0,0,0-.52,0,.58.58,0,0,0-.5.63.56.56,0,0,0,.57.56,3.53,3.53,0,0,0,.46,0H39.86c-.1.6-.2,1.16-.28,1.72,0,.21-.1.32-.32.3s-.21,0-.31,0H17.28C16.81,69,16.62,68.88,16.68,68.39Z" transform="translate(0.04 0)"></path><path class="cls-2" d="M54.19,25.12c0,.53.22,1.22-.11,1.54s-.95.08-1.45.08c-2.4,0-4.8,0-7.2,0-.39,0-.5-.1-.47-.48s-.15-1.15.1-1.45.93-.08,1.43-.09c1,0,2.07,0,3.1,0,1.4,0,2.8,0,4.19,0C54.1,24.72,54.22,24.79,54.19,25.12Z" transform="translate(0.04 0)"></path><path class="cls-2" d="M54.19,18.14a5.91,5.91,0,0,0,0,1c0,.34-.11.4-.41.39H45.34c-.27,0-.4,0-.38-.36,0-.53-.17-1.22.09-1.55s1-.1,1.53-.1c2.34,0,4.69,0,7,0C54.11,17.52,54.24,17.68,54.19,18.14Z" transform="translate(0.04 0)"></path><path class="cls-2" d="M44.93,60.75q0-4.77,0-9.53c0-.41.08-.52.51-.47,1.73.21,3.46.38,5.19.56a.67.67,0,0,1,.57.36,6.85,6.85,0,0,0,2.74,2.6.72.72,0,0,1,.41.68c.11.83-.24,1.19-1,1.56C50.66,57.88,48,59.38,45.45,61l-.52.33Z" transform="translate(0.04 0)"></path><path class="cls-2" d="M44.91,28.55c0-.51.14-.61.63-.6,3,0,6,0,9,0,.72,0,.87-.15.87-.88V24.33c0-.65-.18-.82-.83-.83H45.42c-.4,0-.53-.09-.5-.5,0-.6,0-1.21,0-1.81,0-.35.09-.43.43-.43,3,0,6,0,9.07,0,.83,0,1-.13,1-1V17.18c0-.7-.15-.85-.85-.85-3,0-6.08,0-9.12,0-.38,0-.5-.08-.49-.48q0-4.45,0-8.92c0-.44.09-.51.51-.36q5.35,1.8,10.74,3.56c.37.12.51.27.5.67q0,9.35,0,18.67c0,.31,0,.51-.41.62a10.7,10.7,0,0,0-8,10.55c0,2,0,3.94,0,5.91a2.83,2.83,0,0,0,1.81,2.82c.33.14.26.4.36.69-1.79-.19-3.51-.38-5.22-.55-.23,0-.29-.12-.28-.33v-.68Q44.93,38.53,44.91,28.55Z" transform="translate(0.04 0)"></path><path class="cls-2" d="M53.21,58.25c-.05-.09-.21-.21,0-.3.55-.29,1.1-.56,1.68-.84a1.77,1.77,0,0,1,.24.17l2.69,2.09c.23.17.26.28.06.51-.6.71-1.17,1.44-1.74,2.17-.15.2-.24.31-.43,0C54.87,60.79,54,59.52,53.21,58.25Z" transform="translate(0.04 0)"></path><path class="cls-2" d="M58.64,58.51c-.94-.75-1.88-1.5-2.85-2.22-.29-.22-.23-.47-.24-.82s.12-.46.57-.35a12.93,12.93,0,0,0,5.74.06c.33-.07.45-.08.45.32a1,1,0,0,1-.45.94c-.9.66-1.78,1.36-2.65,2.07A.38.38,0,0,1,58.64,58.51Z" transform="translate(0.04 0)"></path><path class="cls-2" d="M59.94,59.8c-.12-.15-.13-.23,0-.37.94-.72,1.88-1.45,2.8-2.19a.35.35,0,0,1,.46,0c.41.21.83.42,1.25.61.25.11.28.21.12.45-.87,1.32-1.72,2.65-2.63,4.05Z" transform="translate(0.04 0)"></path><path class="cls-2" d="M49.44,44.2c.09-2.37-.25-4.76.62-7.06A9.55,9.55,0,0,1,68.44,39a8.55,8.55,0,0,1,.11,1.34c0,1.25,0,2.51,0,3.78-.41,0-.56-.17-.53-.57s0-1,0-1.55a2,2,0,0,0-2.14-2c-3.08.16-6.15.34-9.22.51-1.44.08-2.89.17-4.34.24a2.09,2.09,0,0,0-2.13,2.19,1.87,1.87,0,0,0,0,.41C50.29,43.86,50.07,44.16,49.44,44.2Z" transform="translate(0.04 0)"></path><path class="cls-2" d="M49.46,46.43a1.25,1.25,0,0,1,1.28-1.27.65.65,0,0,0,.67-.75c0-.48,0-1,0-1.45,0-.72.26-1,1-1.06,2.26-.14,4.52-.25,6.78-.38h0c2.15-.12,4.31-.23,6.46-.36.85,0,1.19.25,1.2,1.09v2.18a.64.64,0,0,0,.68.73,1.21,1.21,0,0,1,1.25,1.23,1.67,1.67,0,0,1-1.24,1.89.73.73,0,0,0-.71.62A6.27,6.27,0,0,1,61.35,54,10.4,10.4,0,0,1,55,53.45,6,6,0,0,1,51.43,49a.76.76,0,0,0-.74-.7A1.7,1.7,0,0,1,49.46,46.43Z" transform="translate(0.04 0)"></path><path class="cls-2" d="M57.85,16.51c0-1.83,0-3.67,0-5.5,0-.46.15-.56.56-.48s.61.08.92.13c.58.1.77,0,1-.57s.45-1.31.64-2c.08-.29.18-.4.49-.28s1.11.2,1.3.52-.22.88-.35,1.34-.23.69-.34,1a.68.68,0,0,0,.39.94,11.59,11.59,0,0,1,3.46,2.51.68.68,0,0,0,1,.07c.58-.44,1.18-.85,1.76-1.29.21-.16.33-.17.48.07a9.46,9.46,0,0,0,.69,1c.19.22.13.33-.09.48-.58.4-1.14.83-1.72,1.23a.72.72,0,0,0-.27,1.06,11.17,11.17,0,0,1,1.29,4,.69.69,0,0,0,.8.69c.72,0,1.45,0,2.17,0,.28,0,.36.08.35.35a11.81,11.81,0,0,0,0,1.19c0,.3-.11.35-.36.34s-.76,0-1.14,0-.72,0-1.09,0a.62.62,0,0,0-.71.6,11.84,11.84,0,0,1-1.36,4.2A.64.64,0,0,0,68,29c.6.43,1.19.88,1.8,1.3.22.16.26.26.08.48a12.37,12.37,0,0,0-.73,1c-.13.19-.23.18-.41.05-.57-.44-1.16-.86-1.75-1.29s-.68-.35-1.12.08c-.83.82-.83.82-1.82.3a10.53,10.53,0,0,0-5.75-1.2c-.33,0-.42,0-.4-.36,0-.5,0-1,0-1.51a.55.55,0,0,1,.46-.65A5.1,5.1,0,0,0,59,17.85a1.23,1.23,0,0,0-.43-.18C57.9,17.57,57.83,17.13,57.85,16.51Z" transform="translate(0.04 0)"></path><path class="cls-2" d="M66.4,53c2.92.32,5.83.64,8.75.94.24,0,.32.1.32.34,0,2.9,0,5.8,0,8.79a68.27,68.27,0,0,0-11.64-6.94.54.54,0,0,1-.31-.51,1.1,1.1,0,0,1,.77-1.38,4.17,4.17,0,0,0,1.48-1A.69.69,0,0,1,66.4,53Z" transform="translate(0.04 0)"></path><path class="cls-2" d="M70.23,70.32a.78.78,0,0,0-.24-.71.59.59,0,0,0-.64,0,.62.62,0,0,0-.33.64c0,1.27,0,2.53,0,3.79,0,.62,0,1.24,0,1.86,0,.37-.09.47-.45.46-3.32,0-6.64,0-10,0s-6.56,0-9.85,0c-.42,0-.5-.12-.5-.52,0-1.83,0-3.66,0-5.49,0-.35,0-.67-.43-.79s-.79.16-.79.73c0,1.84,0,3.67,0,5.5,0,.44-.07.58-.55.57-1.83,0-3.66,0-5.49,0-.19,0-.41.08-.43-.27A35.58,35.58,0,0,1,41,67.47,5.47,5.47,0,0,1,43.22,64a67.57,67.57,0,0,1,7.91-4.89c.87-.48.87-.47,1.42.38l2.62,4c.41.62.8.65,1.26.07.76-.94,1.52-1.88,2.26-2.83.2-.26.29-.23.47,0,.72.93,1.46,1.84,2.2,2.76.53.66.89.65,1.35,0,1-1.49,1.95-3,2.89-4.48.23-.37.39-.37.75-.18a73.07,73.07,0,0,1,8,4.93A7.76,7.76,0,0,1,77.44,70a38.05,38.05,0,0,1-.12,5.85c0,.38-.16.51-.57.51-2,0-4,0-6,0-.4,0-.52-.09-.52-.51C70.25,74,70.23,72.15,70.23,70.32Z" transform="translate(0.04 0)"></path><path class="cls-2" d="M43.72,61.26c0,.33-.09.4-.4.4-1.61,0-3.22,0-4.83,0H17.24c-.47,0-.61-.11-.56-.56a5.16,5.16,0,0,0,0-1c0-.38.12-.45.47-.45h7.42a3.54,3.54,0,0,0,.46,0,.53.53,0,0,0,.49-.57.54.54,0,0,0-.52-.6H16.39c-.76,0-.9.14-.9.91v2.49c0,1,.11,1,1.08,1H42.66a12.42,12.42,0,0,0-1.48,1.33,2.48,2.48,0,0,0-.58.78c-.2.74-.68.76-1.32.76-5.25,0-10.51,0-15.76,0a2.24,2.24,0,0,0-.52,0,.58.58,0,0,0-.5.63.56.56,0,0,0,.57.56,3.53,3.53,0,0,0,.46,0H39.86c-.1.6-.2,1.16-.28,1.72,0,.21-.1.32-.32.3s-.21,0-.31,0H17.28c-.47,0-.66-.1-.6-.59s-.14-1.07.09-1.35.88-.08,1.34-.09q1.22,0,2.43,0c.43,0,.73-.16.73-.61s-.31-.61-.73-.61c-1.42,0-2.84,0-4.26,0-.6,0-.79.2-.79.82V69.3c0,.74.14.88.88.88h22.3c.73,0,.74,0,.7.73a39.41,39.41,0,0,0,0,5c0,.33-.07.42-.41.42q-12.67,0-25.36,0c-.41,0-.47-.14-.47-.5q0-10.66,0-21.32c0-.38.09-.5.5-.55q8.65-.9,17.31-1.86,6.12-.66,12.26-1.34c.4,0,.51,0,.51.46,0,2.25,0,4.49,0,6.74,0,.39-.11.48-.49.48H27.79a4.47,4.47,0,0,0-.52,0,.55.55,0,0,0-.52.6.53.53,0,0,0,.49.57,3,3,0,0,0,.52,0h15.4c.46,0,.62.1.57.56A5.67,5.67,0,0,0,43.72,61.26Z" transform="translate(0.04 0)"></path><path class="cls-2" d="M77.32,75.81c0,.38-.16.51-.57.51-2,0-4,0-6,0-.4,0-.52-.09-.52-.51,0-1.83,0-3.66,0-5.49a.78.78,0,0,0-.24-.71.59.59,0,0,0-.64,0,.62.62,0,0,0-.33.64c0,1.27,0,2.53,0,3.79,0,.62,0,1.24,0,1.86,0,.37-.09.47-.45.46-3.32,0-6.64,0-10,0s-6.56,0-9.85,0c-.42,0-.5-.12-.5-.52,0-1.83,0-3.66,0-5.49,0-.35,0-.67-.43-.79s-.79.16-.79.73c0,1.84,0,3.67,0,5.5,0,.44-.07.58-.55.57-1.83,0-3.66,0-5.49,0-.19,0-.41.08-.43-.27A35.58,35.58,0,0,1,41,67.47,5.47,5.47,0,0,1,43.22,64a67.57,67.57,0,0,1,7.91-4.89c.87-.48.87-.47,1.42.38l2.62,4c.41.62.8.65,1.26.07.76-.94,1.52-1.88,2.26-2.83.2-.26.29-.23.47,0,.72.93,1.46,1.84,2.2,2.76.53.66.89.65,1.35,0,1-1.49,1.95-3,2.89-4.48.23-.37.39-.37.75-.18a73.07,73.07,0,0,1,8,4.93A7.76,7.76,0,0,1,77.44,70,38.05,38.05,0,0,1,77.32,75.81Z" transform="translate(0.04 0)"></path><path class="cls-2" d="M33.24,39.29v2.64c0,.69.17.86.86.86,3,0,6.08,0,9.12,0,.41,0,.51.11.51.51,0,1.92,0,3.84,0,5.76,0,.29,0,.45-.39.48-3.63.38-7.25.76-10.87,1.18-.44,0-.48-.06-.48-.43,0-4,0-8,0-12,0-.45.07-.91-.52-1.11-.21-.07-.12-1.11.1-1.22a.74.74,0,0,0,.42-.76c0-.36,0-.73,0-1.09,0-7.74,0-15.49,0-23.23a.63.63,0,0,1,.52-.72L43.25,6.58c.14,0,.28-.15.47-.08v.56q0,11.78,0,23.54c0,.43-.07.58-.55.57-3,0-6,0-9.08,0-.69,0-.85.16-.86.84v2.75c0,.68.18.86.86.86,3,0,6,0,9.07,0,.46,0,.59.11.56.57a10.22,10.22,0,0,0,0,1.66c0,.46-.14.52-.55.52-3,0-6,0-9,0C33.39,38.34,33.24,38.48,33.24,39.29Z" transform="translate(0.04 0)"></path><path class="cls-2" d="M56.67,29.48c0,.31,0,.51-.41.62a10.7,10.7,0,0,0-8,10.55c0,2,0,3.94,0,5.91a2.83,2.83,0,0,0,1.81,2.82c.33.14.26.4.36.69-1.79-.19-3.51-.38-5.22-.55-.23,0-.29-.12-.28-.33v-.68q0-10,0-20c0-.51.14-.61.63-.6,3,0,6,0,9,0,.72,0,.87-.15.87-.88V24.33c0-.65-.18-.82-.83-.83H45.42c-.4,0-.53-.09-.5-.5,0-.6,0-1.21,0-1.81,0-.35.09-.43.43-.43,3,0,6,0,9.07,0,.83,0,1-.13,1-1V17.18c0-.7-.15-.85-.85-.85-3,0-6.08,0-9.12,0-.38,0-.5-.08-.49-.48q0-4.45,0-8.92c0-.44.09-.51.51-.36q5.35,1.8,10.74,3.56c.37.12.51.27.5.67Q56.65,20.16,56.67,29.48Z" transform="translate(0.04 0)"></path><path class="cls-2" d="M67.52,48.28a.73.73,0,0,0-.71.62A6.27,6.27,0,0,1,61.35,54,10.4,10.4,0,0,1,55,53.45,6,6,0,0,1,51.43,49a.76.76,0,0,0-.74-.7,1.7,1.7,0,0,1-1.23-1.85,1.25,1.25,0,0,1,1.28-1.27.65.65,0,0,0,.67-.75c0-.48,0-1,0-1.45,0-.72.26-1,1-1.06,2.26-.14,4.52-.25,6.78-.38h0c2.15-.12,4.31-.23,6.46-.36.85,0,1.19.25,1.2,1.09v2.18a.64.64,0,0,0,.68.73,1.21,1.21,0,0,1,1.25,1.23A1.67,1.67,0,0,1,67.52,48.28Z" transform="translate(0.04 0)"></path><path class="cls-2" d="M72,23.34c-.38,0-.76,0-1.14,0s-.72,0-1.09,0a.62.62,0,0,0-.71.6,11.84,11.84,0,0,1-1.36,4.2A.64.64,0,0,0,68,29c.6.43,1.19.88,1.8,1.3.22.16.26.26.08.48a12.37,12.37,0,0,0-.73,1c-.13.19-.23.18-.41.05-.57-.44-1.16-.86-1.75-1.29s-.68-.35-1.12.08c-.83.82-.83.82-1.82.3a10.53,10.53,0,0,0-5.75-1.2c-.33,0-.42,0-.4-.36,0-.5,0-1,0-1.51a.55.55,0,0,1,.46-.65A5.1,5.1,0,0,0,59,17.85a1.23,1.23,0,0,0-.43-.18c-.71-.1-.78-.54-.76-1.16,0-1.83,0-3.67,0-5.5,0-.46.15-.56.56-.48s.61.08.92.13c.58.1.77,0,1-.57s.45-1.31.64-2c.08-.29.18-.4.49-.28s1.11.2,1.3.52-.22.88-.35,1.34-.23.69-.34,1a.68.68,0,0,0,.39.94,11.59,11.59,0,0,1,3.46,2.51.68.68,0,0,0,1,.07c.58-.44,1.18-.85,1.76-1.29.21-.16.33-.17.48.07a9.46,9.46,0,0,0,.69,1c.19.22.13.33-.09.48-.58.4-1.14.83-1.72,1.23a.72.72,0,0,0-.27,1.06,11.17,11.17,0,0,1,1.29,4,.69.69,0,0,0,.8.69c.72,0,1.45,0,2.17,0,.28,0,.36.08.35.35a11.81,11.81,0,0,0,0,1.19C72.39,23.3,72.26,23.35,72,23.34Z" transform="translate(0.04 0)"></path><path class="cls-2" d="M68.55,44.1c-.41,0-.56-.17-.53-.57s0-1,0-1.55a2,2,0,0,0-2.14-2c-3.08.16-6.15.34-9.22.51-1.44.08-2.89.17-4.34.24a2.09,2.09,0,0,0-2.13,2.19,1.87,1.87,0,0,0,0,.41c.1.57-.12.87-.75.91.09-2.37-.25-4.76.62-7.06A9.55,9.55,0,0,1,68.44,39a8.55,8.55,0,0,1,.11,1.34C68.56,41.57,68.55,42.83,68.55,44.1Z" transform="translate(0.04 0)"></path><path class="cls-2" d="M75.46,63.1a68.27,68.27,0,0,0-11.64-6.94.54.54,0,0,1-.31-.51,1.1,1.1,0,0,1,.77-1.38,4.17,4.17,0,0,0,1.48-1A.69.69,0,0,1,66.4,53c2.92.32,5.83.64,8.75.94.24,0,.32.1.32.34C75.46,57.21,75.46,60.11,75.46,63.1Z" transform="translate(0.04 0)"></path><path class="cls-2" d="M53.37,56.51C50.66,57.88,48,59.38,45.45,61l-.52.33v-.55q0-4.77,0-9.53c0-.41.08-.52.51-.47,1.73.21,3.46.38,5.19.56a.67.67,0,0,1,.57.36,6.85,6.85,0,0,0,2.74,2.6.72.72,0,0,1,.41.68C54.45,55.78,54.1,56.14,53.37,56.51Z" transform="translate(0.04 0)"></path><path class="cls-2" d="M54.19,19.17c0,.34-.11.4-.41.39H45.34c-.27,0-.4,0-.38-.36,0-.53-.17-1.22.09-1.55s1-.1,1.53-.1c2.34,0,4.69,0,7,0,.49,0,.62.15.57.61A5.91,5.91,0,0,0,54.19,19.17Z" transform="translate(0.04 0)"></path><path class="cls-2" d="M54.08,26.66c-.27.25-.95.08-1.45.08-2.4,0-4.8,0-7.2,0-.39,0-.5-.1-.47-.48s-.15-1.15.1-1.45.93-.08,1.43-.09c1,0,2.07,0,3.1,0,1.4,0,2.8,0,4.19,0,.32,0,.44.07.41.4C54.14,25.65,54.41,26.34,54.08,26.66Z" transform="translate(0.04 0)"></path><path class="cls-2" d="M43.26,34.4c-1.41,0-2.83,0-4.25,0s-2.76,0-4.14,0c-.35,0-.45-.1-.43-.43a6.2,6.2,0,0,0,0-1.14c0-.37.09-.46.46-.46,2.22,0,4.45,0,6.68,0,.55,0,1.11,0,1.66,0,.36,0,.44.11.42.43a7.88,7.88,0,0,0,0,1.19C43.68,34.31,43.59,34.4,43.26,34.4Z" transform="translate(0.04 0)"></path><path class="cls-2" d="M43.57,41.46c-.26.34-1,.1-1.47.11-2.4,0-4.8,0-7.21,0-.37,0-.48-.1-.44-.46s-.22-1.19.11-1.48.95-.08,1.45-.08h3.11c1.38,0,2.76,0,4.14,0,.34,0,.42.1.4.41C43.63,40.47,43.83,41.14,43.57,41.46Z" transform="translate(0.04 0)"></path><path class="cls-2" d="M62.31,55.5a1,1,0,0,1-.45.94c-.9.66-1.78,1.36-2.65,2.07a.38.38,0,0,1-.57,0c-.94-.75-1.88-1.5-2.85-2.22-.29-.22-.23-.47-.24-.82s.12-.46.57-.35a12.93,12.93,0,0,0,5.74.06C62.19,55.11,62.31,55.1,62.31,55.5Z" transform="translate(0.04 0)"></path><path class="cls-2" d="M64.61,58.29c-.87,1.32-1.72,2.65-2.63,4.05l-2-2.54c-.12-.15-.13-.23,0-.37.94-.72,1.88-1.45,2.8-2.19a.35.35,0,0,1,.46,0c.41.21.83.42,1.25.61C64.74,58,64.77,58.05,64.61,58.29Z" transform="translate(0.04 0)"></path><path class="cls-2" d="M57.84,59.88c-.6.71-1.17,1.44-1.74,2.17-.15.2-.24.31-.43,0-.8-1.28-1.64-2.55-2.46-3.82-.05-.09-.21-.21,0-.3.55-.29,1.1-.56,1.68-.84a1.77,1.77,0,0,1,.24.17l2.69,2.09C58,59.54,58,59.65,57.84,59.88Z" transform="translate(0.04 0)"></path></svg>