<svg xmlns="http://www.w3.org/2000/svg" id="Layer_1" data-name="Layer 1" viewBox="0 0 91 91"><defs><style>.cls-1{fill:#fff;}.cls-2{fill:#083264;}</style></defs><circle class="cls-1" cx="45.5" cy="45.5" r="45.5"></circle><path class="cls-2" d="M16.73,15.05a.87.87,0,0,1,.75-1.5,25.12,25.12,0,0,1,4.87.95,1.11,1.11,0,0,0,1.24-.31,9.17,9.17,0,0,1,12.94.05.94.94,0,0,0,1.07.28,33.54,33.54,0,0,1,4.12-.89l.54-.06c.48,0,1-.09,1.26.44s-.05.86-.34,1.21c-1.29,1.6-1.28,3.49-1.24,5.39a2.55,2.55,0,0,0,.13,1c.38.79,0,1.07-.66,1.4-1.2.63-2.36,1.33-3.66,2.07l.77-3.72.09-.46c.11-.54,0-1-.59-1.11s-.88.17-1,.82c-.25,1.16-.48,2.31-.72,3.47a2.72,2.72,0,0,0-.1.46c0,1.34-.79,1.85-1.94,2.17a17.87,17.87,0,0,1-3.4.63c-.42,0-.55-.08-.54-.51,0-1.95,0-3.91,0-5.87a.79.79,0,0,0-.52-.86.75.75,0,0,0-.87.2,1.15,1.15,0,0,0-.25.89c0,1.82,0,3.64,0,5.46,0,.49-.11.63-.6.54a33,33,0,0,1-3.43-.85.67.67,0,0,1-.54-.59c-.33-1.7-.7-3.38-1.06-5.07-.15-.72-.5-1-1-.9s-.72.54-.57,1.25c.29,1.42.59,2.84.91,4.37a17.49,17.49,0,0,1-4.28-2.95.52.52,0,0,1-.16-.59,11.68,11.68,0,0,0,0-4.41A5.17,5.17,0,0,0,16.73,15.05Z" transform="translate(0 0)"></path><path class="cls-2" d="M30.05,36.32a8,8,0,1,0,8,8.09A8.07,8.07,0,0,0,30.05,36.32ZM31.4,49.79c-.45.19-.63.41-.57.88s-.16,1-.78,1.06-.86-.39-.84-1.08a.74.74,0,0,0-.54-.85,3.16,3.16,0,0,1-1.92-2.63c-.09-.63.18-1.07.68-1.14s.84.22.95.89a1.68,1.68,0,0,0,1.75,1.55,1.64,1.64,0,0,0,1.53-1.62A1.59,1.59,0,0,0,30,45.19a3.3,3.3,0,0,1-3-2,3.15,3.15,0,0,1,.38-3.28,2.59,2.59,0,0,1,1.33-1,.6.6,0,0,0,.47-.75,1.12,1.12,0,0,1,.19-.85.77.77,0,0,1,.86-.26.68.68,0,0,1,.57.74c-.1.7.22,1,.83,1.3a3,3,0,0,1,1.65,2.71.76.76,0,0,1-.72.9c-.59,0-.84-.32-.92-.86a1.61,1.61,0,0,0-1.92-1.54,1.63,1.63,0,0,0-.16,3.18,4.67,4.67,0,0,0,.75.1,3.31,3.31,0,0,1,2.93,2.63A3.26,3.26,0,0,1,31.4,49.79Z" transform="translate(0 0)"></path><path class="cls-2" d="M47.85,30.29a36.42,36.42,0,0,0-4.1-6.18c-.27-.32-.46-.38-.83-.14-1.25.8-2.51,1.56-3.78,2.32-5.38,3.26-10.95,3.31-16.65,1a18.47,18.47,0,0,1-5.66-3.72,32.94,32.94,0,0,0-6.14,10.18A24.79,24.79,0,0,0,9.13,45.15c.48,4.61,3,7.9,6.8,10.29a24.42,24.42,0,0,0,10.2,3.36,30.7,30.7,0,0,0,13.39-1.27.77.77,0,0,0,.63-.91c0-1.84,0-3.68,0-5.52a5.47,5.47,0,0,1,4.51-5.6c.38-.08.4-.26.39-.56,0-1.61,0-3.23,0-4.84a15,15,0,0,1,2.78-9A.63.63,0,0,0,47.85,30.29ZM19.71,32.55a6.92,6.92,0,0,0-3.09,4.55.81.81,0,0,1-1,.74.84.84,0,0,1-.63-1.1,8.49,8.49,0,0,1,3.71-5.49.9.9,0,0,1,1-.14.81.81,0,0,1,.43.7A.9.9,0,0,1,19.71,32.55ZM30,54a9.68,9.68,0,1,1,9.66-9.75A9.73,9.73,0,0,1,30,54Z" transform="translate(0 0)"></path><path class="cls-2" d="M78.88,73.35s-.06,0-.06,0c-.74,2.37-2.44,3.12-4.81,3.11-9.33-.06-18.65,0-28,0A3.94,3.94,0,0,1,42,73.7a4.79,4.79,0,0,1-.18-1.41V51.2A3.88,3.88,0,0,1,46,47c.59,0,.75-.13.75-.74,0-2.63-.16-5.28.07-7.91A13.29,13.29,0,0,1,58.26,26.51a13.43,13.43,0,0,1,12,4.07,12.91,12.91,0,0,1,3.64,8.86c0,2.34,0,4.69,0,7,0,.23-.15.58.34.55a4.11,4.11,0,0,1,4.58,3.26c-.35,0-.33-.33-.42-.55a3.77,3.77,0,0,0-3.55-2.53c-1.09-.05-1.14-.1-1.15-1.2V40a13.45,13.45,0,0,0-26.65-2.61A14.58,14.58,0,0,0,46.85,40q0,3.07,0,6.15c0,.88-.11,1-1,1a3.83,3.83,0,0,0-3.94,4.14q0,10.41,0,20.82a3.87,3.87,0,0,0,4.16,4.13H74.5a4,4,0,0,0,4-2.54C78.55,73.57,78.6,73.34,78.88,73.35Z" transform="translate(0 0)"></path><path class="cls-2" d="M65.79,55.29a6,6,0,0,0-8.39-2.77,5.71,5.71,0,0,0-3.06,5.67,5.79,5.79,0,0,0,3.92,5.19c1.07.42,1.08.4,1.08,1.57v2.59c0,1,0,1.95,0,2.93s.35,1.27,1,1.25.95-.42.95-1.23c0-1.86,0-3.73,0-5.59,0-1.1,0-1.14,1.06-1.51A6,6,0,0,0,65.79,55.29ZM60.46,57a2.39,2.39,0,0,1,1,4.48.67.67,0,0,0-.37.64.75.75,0,0,1-.76.73.74.74,0,0,1-.84-.72.77.77,0,0,0-.48-.71,2.36,2.36,0,0,1-1.14-2,.79.79,0,0,1,.73-.83.76.76,0,0,1,.88.66c0,.14.05.27.09.4a.73.73,0,0,0,.86.5.76.76,0,0,0,0-1.5c-.2-.05-.4-.05-.6-.09A2.4,2.4,0,0,1,59,54.14c.29-.19.52-.32.53-.75a.79.79,0,0,1,1.57,0c0,.43.23.57.53.76a2.33,2.33,0,0,1,1.09,1.73A.86.86,0,0,1,62,57a.78.78,0,0,1-.93-.77c-.06-.49-.32-.82-.84-.8a.71.71,0,0,0-.72.76C59.56,56.7,59.94,56.89,60.46,57Zm5.33-1.66a6,6,0,0,0-8.39-2.77,5.71,5.71,0,0,0-3.06,5.67,5.79,5.79,0,0,0,3.92,5.19c1.07.42,1.08.4,1.08,1.57v2.59c0,1,0,1.95,0,2.93s.35,1.27,1,1.25.95-.42.95-1.23c0-1.86,0-3.73,0-5.59,0-1.1,0-1.14,1.06-1.51A6,6,0,0,0,65.79,55.29ZM60.46,57a2.39,2.39,0,0,1,1,4.48.67.67,0,0,0-.37.64.75.75,0,0,1-.76.73.74.74,0,0,1-.84-.72.77.77,0,0,0-.48-.71,2.36,2.36,0,0,1-1.14-2,.79.79,0,0,1,.73-.83.76.76,0,0,1,.88.66c0,.14.05.27.09.4a.73.73,0,0,0,.86.5.76.76,0,0,0,0-1.5c-.2-.05-.4-.05-.6-.09A2.4,2.4,0,0,1,59,54.14c.29-.19.52-.32.53-.75a.79.79,0,0,1,1.57,0c0,.43.23.57.53.76a2.33,2.33,0,0,1,1.09,1.73A.86.86,0,0,1,62,57a.78.78,0,0,1-.93-.77c-.06-.49-.32-.82-.84-.8a.71.71,0,0,0-.72.76C59.56,56.7,59.94,56.89,60.46,57Zm18.42-6.67A4.11,4.11,0,0,0,74.3,47c-.49,0-.34-.32-.34-.55,0-2.34,0-4.69,0-7a12.91,12.91,0,0,0-3.64-8.86,13.43,13.43,0,0,0-12-4.07A13.29,13.29,0,0,0,46.77,38.39c-.23,2.63-.07,5.28-.07,7.91,0,.61-.16.74-.75.74a3.88,3.88,0,0,0-4.18,4.16V72.29A4.79,4.79,0,0,0,42,73.7,3.94,3.94,0,0,0,46,76.46c9.33,0,18.65,0,28,0,2.37,0,4.07-.74,4.81-3.11,0,0,0,0,.06,0v-.27a1,1,0,0,1-.07-.6V51a1,1,0,0,1,.07-.6ZM50.06,38.43a10.12,10.12,0,0,1,9.21-8.76c4.17-.26,7.53,1.16,9.86,4.71a9.53,9.53,0,0,1,1.54,5.15c0,2,0,4.1,0,6.14,0,.5-.19.54-.59.54H60.34c-3.25,0-6.5,0-9.75,0-.5,0-.67-.09-.65-.62C50,43.2,49.82,40.81,50.06,38.43ZM57.7,70.61c0-1.73,0-3.46,0-5.19a.63.63,0,0,0-.46-.69,7.63,7.63,0,0,1,2-14.56c.33,0,.67,0,.87-.05a7.69,7.69,0,0,1,7.62,6,7.59,7.59,0,0,1-4.17,8.49,1.06,1.06,0,0,0-.7,1.17c0,1.61,0,3.23,0,4.84a2.62,2.62,0,1,1-5.23,0Zm4.66-7.22a6,6,0,1,0-5-10.87,5.71,5.71,0,0,0-3.06,5.67,5.79,5.79,0,0,0,3.92,5.19c1.07.42,1.08.4,1.08,1.57v2.59c0,1,0,1.95,0,2.93s.35,1.27,1,1.25.95-.42.95-1.23c0-1.86,0-3.73,0-5.59C61.3,63.8,61.32,63.76,62.36,63.39Zm-1.24-1.32a.75.75,0,0,1-.76.73.74.74,0,0,1-.84-.72.77.77,0,0,0-.48-.71,2.36,2.36,0,0,1-1.14-2,.79.79,0,0,1,.73-.83.76.76,0,0,1,.88.66c0,.14.05.27.09.4a.73.73,0,0,0,.86.5.76.76,0,0,0,0-1.5c-.2-.05-.4-.05-.6-.09A2.4,2.4,0,0,1,59,54.14c.29-.19.52-.32.53-.75a.79.79,0,0,1,1.57,0c0,.43.23.57.53.76a2.33,2.33,0,0,1,1.09,1.73A.86.86,0,0,1,62,57a.78.78,0,0,1-.93-.77c-.06-.49-.32-.82-.84-.8a.71.71,0,0,0-.72.76c0,.56.39.75.91.81a2.39,2.39,0,0,1,1,4.48A.67.67,0,0,0,61.12,62.07Z" transform="translate(0 0)"></path><path class="cls-2" d="M78.88,73.08c-.25-.17-.14-.42-.14-.63V51c0-.21-.1-.46.14-.62Z" transform="translate(0 0)"></path><path class="cls-2" d="M30.05,36.32a8,8,0,1,0,8,8.09A8.07,8.07,0,0,0,30.05,36.32ZM31.4,49.79c-.45.19-.63.41-.57.88s-.16,1-.78,1.06-.86-.39-.84-1.08a.74.74,0,0,0-.54-.85,3.16,3.16,0,0,1-1.92-2.63c-.09-.63.18-1.07.68-1.14s.84.22.95.89a1.68,1.68,0,0,0,1.75,1.55,1.64,1.64,0,0,0,1.53-1.62A1.59,1.59,0,0,0,30,45.19a3.3,3.3,0,0,1-3-2,3.15,3.15,0,0,1,.38-3.28,2.59,2.59,0,0,1,1.33-1,.6.6,0,0,0,.47-.75,1.12,1.12,0,0,1,.19-.85.77.77,0,0,1,.86-.26.68.68,0,0,1,.57.74c-.1.7.22,1,.83,1.3a3,3,0,0,1,1.65,2.71.76.76,0,0,1-.72.9c-.59,0-.84-.32-.92-.86a1.61,1.61,0,0,0-1.92-1.54,1.63,1.63,0,0,0-.16,3.18,4.67,4.67,0,0,0,.75.1,3.31,3.31,0,0,1,2.93,2.63A3.26,3.26,0,0,1,31.4,49.79Z" transform="translate(0 0)"></path><path class="cls-2" d="M47.85,30.29a36.42,36.42,0,0,0-4.1-6.18c-.27-.32-.46-.38-.83-.14-1.25.8-2.51,1.56-3.78,2.32-5.38,3.26-10.95,3.31-16.65,1a18.47,18.47,0,0,1-5.66-3.72,32.94,32.94,0,0,0-6.14,10.18A24.79,24.79,0,0,0,9.13,45.15c.48,4.61,3,7.9,6.8,10.29a24.42,24.42,0,0,0,10.2,3.36,30.7,30.7,0,0,0,13.39-1.27.77.77,0,0,0,.63-.91c0-1.84,0-3.68,0-5.52a5.47,5.47,0,0,1,4.51-5.6c.38-.08.4-.26.39-.56,0-1.61,0-3.23,0-4.84a15,15,0,0,1,2.78-9A.63.63,0,0,0,47.85,30.29ZM19.71,32.55a6.92,6.92,0,0,0-3.09,4.55.81.81,0,0,1-1,.74.84.84,0,0,1-.63-1.1,8.49,8.49,0,0,1,3.71-5.49.9.9,0,0,1,1-.14.81.81,0,0,1,.43.7A.9.9,0,0,1,19.71,32.55ZM30,54a9.68,9.68,0,1,1,9.66-9.75A9.73,9.73,0,0,1,30,54Z" transform="translate(0 0)"></path><path class="cls-2" d="M43.18,15.22c-1.29,1.6-1.28,3.49-1.24,5.39a2.55,2.55,0,0,0,.13,1c.38.79,0,1.07-.66,1.4-1.2.63-2.36,1.33-3.66,2.07l.77-3.72.09-.46c.11-.54,0-1-.59-1.11s-.88.17-1,.82c-.25,1.16-.48,2.31-.72,3.47a2.72,2.72,0,0,0-.1.46c0,1.34-.79,1.85-1.94,2.17a17.87,17.87,0,0,1-3.4.63c-.42,0-.55-.08-.54-.51,0-1.95,0-3.91,0-5.87a.79.79,0,0,0-.52-.86.75.75,0,0,0-.87.2,1.15,1.15,0,0,0-.25.89c0,1.82,0,3.64,0,5.46,0,.49-.11.63-.6.54a33,33,0,0,1-3.43-.85.67.67,0,0,1-.54-.59c-.33-1.7-.7-3.38-1.06-5.07-.15-.72-.5-1-1-.9s-.72.54-.57,1.25c.29,1.42.59,2.84.91,4.37a17.49,17.49,0,0,1-4.28-2.95.52.52,0,0,1-.16-.59,11.68,11.68,0,0,0,0-4.41,5.17,5.17,0,0,0-1.21-2.4.87.87,0,0,1,.75-1.5,25.12,25.12,0,0,1,4.87.95,1.11,1.11,0,0,0,1.24-.31,9.17,9.17,0,0,1,12.94.05.94.94,0,0,0,1.07.28,33.54,33.54,0,0,1,4.12-.89l.54-.06c.48,0,1-.09,1.26.44S43.47,14.87,43.18,15.22Z" transform="translate(0 0)"></path><path class="cls-2" d="M65.79,55.29a6,6,0,0,0-8.39-2.77,5.71,5.71,0,0,0-3.06,5.67,5.79,5.79,0,0,0,3.92,5.19c1.07.42,1.08.4,1.08,1.57v2.59c0,1,0,1.95,0,2.93s.35,1.27,1,1.25.95-.42.95-1.23c0-1.86,0-3.73,0-5.59,0-1.1,0-1.14,1.06-1.51A6,6,0,0,0,65.79,55.29ZM60.46,57a2.39,2.39,0,0,1,1,4.48.67.67,0,0,0-.37.64.75.75,0,0,1-.76.73.74.74,0,0,1-.84-.72.77.77,0,0,0-.48-.71,2.36,2.36,0,0,1-1.14-2,.79.79,0,0,1,.73-.83.76.76,0,0,1,.88.66c0,.14.05.27.09.4a.73.73,0,0,0,.86.5.76.76,0,0,0,0-1.5c-.2-.05-.4-.05-.6-.09A2.4,2.4,0,0,1,59,54.14c.29-.19.52-.32.53-.75a.79.79,0,0,1,1.57,0c0,.43.23.57.53.76a2.33,2.33,0,0,1,1.09,1.73A.86.86,0,0,1,62,57a.78.78,0,0,1-.93-.77c-.06-.49-.32-.82-.84-.8a.71.71,0,0,0-.72.76C59.56,56.7,59.94,56.89,60.46,57Z" transform="translate(0 0)"></path><path class="cls-2" d="M30.05,36.32a8,8,0,1,0,8,8.09A8.07,8.07,0,0,0,30.05,36.32ZM31.4,49.79c-.45.19-.63.41-.57.88s-.16,1-.78,1.06-.86-.39-.84-1.08a.74.74,0,0,0-.54-.85,3.16,3.16,0,0,1-1.92-2.63c-.09-.63.18-1.07.68-1.14s.84.22.95.89a1.68,1.68,0,0,0,1.75,1.55,1.64,1.64,0,0,0,1.53-1.62A1.59,1.59,0,0,0,30,45.19a3.3,3.3,0,0,1-3-2,3.15,3.15,0,0,1,.38-3.28,2.59,2.59,0,0,1,1.33-1,.6.6,0,0,0,.47-.75,1.12,1.12,0,0,1,.19-.85.77.77,0,0,1,.86-.26.68.68,0,0,1,.57.74c-.1.7.22,1,.83,1.3a3,3,0,0,1,1.65,2.71.76.76,0,0,1-.72.9c-.59,0-.84-.32-.92-.86a1.61,1.61,0,0,0-1.92-1.54,1.63,1.63,0,0,0-.16,3.18,4.67,4.67,0,0,0,.75.1,3.31,3.31,0,0,1,2.93,2.63A3.26,3.26,0,0,1,31.4,49.79Z" transform="translate(0 0)"></path><path class="cls-2" d="M65.79,55.29a6,6,0,0,0-8.39-2.77,5.71,5.71,0,0,0-3.06,5.67,5.79,5.79,0,0,0,3.92,5.19c1.07.42,1.08.4,1.08,1.57v2.59c0,1,0,1.95,0,2.93s.35,1.27,1,1.25.95-.42.95-1.23c0-1.86,0-3.73,0-5.59,0-1.1,0-1.14,1.06-1.51A6,6,0,0,0,65.79,55.29ZM60.46,57a2.39,2.39,0,0,1,1,4.48.67.67,0,0,0-.37.64.75.75,0,0,1-.76.73.74.74,0,0,1-.84-.72.77.77,0,0,0-.48-.71,2.36,2.36,0,0,1-1.14-2,.79.79,0,0,1,.73-.83.76.76,0,0,1,.88.66c0,.14.05.27.09.4a.73.73,0,0,0,.86.5.76.76,0,0,0,0-1.5c-.2-.05-.4-.05-.6-.09A2.4,2.4,0,0,1,59,54.14c.29-.19.52-.32.53-.75a.79.79,0,0,1,1.57,0c0,.43.23.57.53.76a2.33,2.33,0,0,1,1.09,1.73A.86.86,0,0,1,62,57a.78.78,0,0,1-.93-.77c-.06-.49-.32-.82-.84-.8a.71.71,0,0,0-.72.76C59.56,56.7,59.94,56.89,60.46,57Z" transform="translate(0 0)"></path><path class="cls-2" d="M30.05,36.32a8,8,0,1,0,8,8.09A8.07,8.07,0,0,0,30.05,36.32ZM31.4,49.79c-.45.19-.63.41-.57.88s-.16,1-.78,1.06-.86-.39-.84-1.08a.74.74,0,0,0-.54-.85,3.16,3.16,0,0,1-1.92-2.63c-.09-.63.18-1.07.68-1.14s.84.22.95.89a1.68,1.68,0,0,0,1.75,1.55,1.64,1.64,0,0,0,1.53-1.62A1.59,1.59,0,0,0,30,45.19a3.3,3.3,0,0,1-3-2,3.15,3.15,0,0,1,.38-3.28,2.59,2.59,0,0,1,1.33-1,.6.6,0,0,0,.47-.75,1.12,1.12,0,0,1,.19-.85.77.77,0,0,1,.86-.26.68.68,0,0,1,.57.74c-.1.7.22,1,.83,1.3a3,3,0,0,1,1.65,2.71.76.76,0,0,1-.72.9c-.59,0-.84-.32-.92-.86a1.61,1.61,0,0,0-1.92-1.54,1.63,1.63,0,0,0-.16,3.18,4.67,4.67,0,0,0,.75.1,3.31,3.31,0,0,1,2.93,2.63A3.26,3.26,0,0,1,31.4,49.79Z" transform="translate(0 0)"></path></svg>