<svg xmlns="http://www.w3.org/2000/svg" xmlns:xlink="http://www.w3.org/1999/xlink" id="Layer_1" x="0px" y="0px" viewBox="0 0 45 45" style="enable-background:new 0 0 45 45;" xml:space="preserve"> <style type="text/css"> .st0{fill-rule:evenodd;clip-rule:evenodd;fill:#FFFFFF;} .st1{fill-rule:evenodd;clip-rule:evenodd;fill:#0A2852;} </style> <g> <circle class="st0" cx="22.5" cy="22.5" r="22.5"></circle> <path class="st1" d="M21.91,15.31c-4.53,0.87-7.29,5.01-6.58,9.26c0.67,4,4.5,7.47,9.35,6.65c4.01-0.68,7.37-4.57,6.58-9.3 C30.61,17.92,26.68,14.4,21.91,15.31L21.91,15.31z M22.33,16.13c4.11-0.71,7.68,2.58,8.1,6.17c0.49,4.12-2.43,7.63-6.07,8.09 c-4.2,0.53-7.73-2.42-8.18-6.07C15.65,20.12,18.22,16.84,22.33,16.13L22.33,16.13z M19.9,21.86c0.1-1.46-0.17-2.42,0.65-3.56 c1.42-1.96,4.26-1.8,5.51,0.01c0.79,1.15,0.53,2.06,0.64,3.51c0.69,0.49,1.38,0.41,1.5,1.72c0.05,0.5,0.05,2.71-0.04,3.14 c-0.39,1.88-2.8,1.4-4.95,1.4c-1.9,0-4.51,0.51-4.81-1.52c-0.07-0.46-0.07-2.62-0.01-3.1C18.51,22.54,19.05,22.2,19.9,21.86 L19.9,21.86z M14.03,26.51c-0.05-0.63-0.37-1.43-0.45-2.29c-0.32-3.73,1.35-7.28,4.51-9.23c0.9-0.55,2.88-1.5,4.1-1.38l0.04,0.74 c-1.35,0.45-1.98,0.2-3.84,1.43c-3,1.98-4.43,5.28-3.92,8.93c0.11,0.77,0.47,1.49,0.54,2.12l-3.71,1.85 c0.09,1.11,0.36,1.59-0.21,2.67c-1.17,2.24-4.38,2.27-5.59-0.02c-1.84-3.5,3.21-6.42,5.37-3.27 C11.54,27.89,13.34,26.83,14.03,26.51L14.03,26.51z M33.97,16.04c-0.25-0.97-1.18-2.8,0.95-4.32c3.14-2.25,6.82,2.37,3.9,4.94 c-2.05,1.81-4.01,0.09-4.4-0.04l-2.55,1.77c0.07,0.58,0.88,1.5,1.15,3.77c0.18,1.54-0.04,3.07-0.5,4.38 c-0.73,2.05-2.71,4.57-4.6,5.31c-0.19-0.16-0.31-0.3-0.41-0.64c0.64-0.59,1.57-0.83,2.63-2.17c4.35-5.49,0.73-10.34,0.67-10.83 L33.97,16.04L33.97,16.04z M14.74,27.76c0.26-0.18,0.35-0.3,0.64-0.34c0.5,0.75,0.7,1.22,1.29,1.83c0.52,0.54,0.97,0.99,1.69,1.47 c4.15,2.75,7.86,0.84,8.5,0.87l1.5,3.37c4.63-0.78,5.42,4.47,2.31,5.9c-3.39,1.56-6.3-3.24-3.03-5.49 c-0.05-0.47-0.9-2.29-1.16-2.78c-0.37-0.01-1.28,0.28-1.79,0.36c-0.7,0.11-1.43,0.1-2.13,0.06c-2.31-0.14-4.49-1.22-6.05-2.72 C16.16,29.94,14.78,28.42,14.74,27.76L14.74,27.76z M22.91,10.18c-4.32-1-3.13-6.43,0.5-6.33c2.55,0.07,4.06,3.2,2.23,5.3 c-0.61,0.69-1.09,0.74-1.98,1.05l0.04,3.21c0.83,0.34,1.88-0.01,4.29,1.26c0.83,0.43,2.64,1.8,2.98,2.59l-0.58,0.46 c-0.48-0.38-0.87-0.92-1.4-1.38c-1.93-1.68-3.72-1.84-6.06-2.06L22.91,10.18L22.91,10.18z M22.73,4.56 c-1.28,0.3-2.24,1.57-1.9,3.04c0.27,1.14,1.48,2.24,3,1.91C27.07,8.8,26.06,3.79,22.73,4.56L22.73,4.56z M36.16,11.85 c-3.33,0.78-2.13,5.65,1.07,4.94c1.23-0.27,2.27-1.49,1.93-3.04C38.91,12.58,37.69,11.49,36.16,11.85L36.16,11.85z M7.57,27.47 c-3.33,1.14-1.53,5.87,1.59,4.79C12.2,31.2,10.72,26.4,7.57,27.47L7.57,27.47z M28.9,35.51c-3.43,0.83-2.2,5.55,0.98,4.95 c1.26-0.24,2.26-1.47,1.97-3.03C31.62,36.25,30.35,35.15,28.9,35.51L28.9,35.51z M20.71,21.85c-0.66-4.59,3.43-5.15,4.83-2.91 c0.4,0.63,0.53,2.13,0.32,2.96L20.71,21.85L20.71,21.85z M23.73,26.26c-0.87,0.42-0.93-0.12-0.95-0.89 c-0.02-0.68-0.62-1.23,0.1-1.69c0.57-0.36,1.25,0.09,1.19,0.72c-0.04,0.43-0.22,0.29-0.24,0.87 C23.81,25.66,23.83,25.94,23.73,26.26z"></path> </g> </svg>