<svg xmlns="http://www.w3.org/2000/svg" xmlns:xlink="http://www.w3.org/1999/xlink" id="Layer_1" x="0px" y="0px" viewBox="0 0 91 91" style="enable-background:new 0 0 91 91;" xml:space="preserve"> <style type="text/css"> .st0{fill-rule:evenodd;clip-rule:evenodd;fill:#FFFFFF;} .st1{fill-rule:evenodd;clip-rule:evenodd;fill:#0B2852;} </style> <g> <circle class="st0" cx="45.5" cy="45.5" r="45.5"></circle> <path class="st1" d="M37.99,74.8c-0.12-1.52,1.26-1.26,2.53-1.26c1.12,0.01,2.65-0.39,2.68,1.05c0.03,1.39-1.29,1.38-2.46,1.38 C39.42,75.97,38.09,76.1,37.99,74.8L37.99,74.8z M49.58,20.41c-1.81,0.52-1.65,2.76,0.03,3.27L49.58,20.41L49.58,20.41z M50.84,29.32c1.84-0.5,1.64-2.76-0.02-3.27L50.84,29.32L50.84,29.32z M37.57,54.51c1.68-0.35,1.78-2.87-0.02-3.2L37.57,54.51 L37.57,54.51z M36.34,45.61c-1.69,0.02-1.71,3.06,0.04,3.18L36.34,45.61L36.34,45.61z M57.21,20.42c-1.69,0.33-1.89,2.75,0.03,3.27 L57.21,20.42L57.21,20.42z M58.37,29.32c1.87-0.4,1.67-2.69,0.03-3.35l-0.05,1.04l0,1.35L58.37,29.32L58.37,29.32z M68.06,27.69 c0.09,0.89,0.33,0.8,1.05,1.18c1.4,0.74,3.93,2.58,4.81,2.21c-0.05-0.94-0.17-0.79-1.03-1.25C71.19,28.92,68.97,27.22,68.06,27.69 L68.06,27.69z M67.95,21.93c0.93,0.66,2.85-0.9,4.78-1.93c0.9-0.48,1.14-0.36,1.2-1.33c-0.88-0.39-2.38,0.84-3.24,1.32 C69.94,20.42,68.2,21.06,67.95,21.93L67.95,21.93z M39.93,22.13c0.13-1.01-0.73-1.07-2.53-2.11c-1.04-0.6-2.36-1.56-3.33-1.49 c-0.08,1.05,0.65,1.17,2.56,2.22C37.5,21.24,38.93,22.31,39.93,22.13L39.93,22.13z M34.07,31.2c0.99,0.07,3.55-1.62,4.91-2.35 c0.75-0.41,1.05-0.41,0.95-1.25c-1.05-0.24-3.51,1.48-4.9,2.25C34.31,30.26,33.96,30.28,34.07,31.2L34.07,31.2z M69.61,25.4l6.76,0 c1.09,0.02,1.1,0.15,1.38-0.65c-0.62-0.67-1.14-0.41-2.96-0.4l-5.41-0.02C67.67,24.33,67.62,25.4,69.61,25.4L69.61,25.4z M30.26,24.76c0.38,0.93,0.77,0.64,1.92,0.63l5.42-0.01c1.16,0.01,1.75,0.33,2.14-0.63c-0.79-0.83-5.12-0.41-7.11-0.41 C30.09,24.35,30.98,24.35,30.26,24.76L30.26,24.76z M37.61,70.3c0.83-0.78,8.64-0.62,5.78,1.94c-0.6,0.54-3.25,0.33-4.23,0.32 C37.48,72.55,36.41,71.43,37.61,70.3L37.61,70.3z M37.29,73.46c-1.12-1.71-1.2-0.72-0.86-3.57l-1.3-0.26 c-0.03,1.91-0.16,4.94,0,6.76c0.21,2.24,2.72,2.54,3.5,0.68C37.78,76.17,36.21,75.62,37.29,73.46L37.29,73.46z M35.23,67.02 c-0.33,2.7,4.04,1.97,7.1,1.97c1.66,0,2.65-0.25,2.44-2.07c-0.53-1.36-3.38-0.92-4.72-0.91C38.09,69.11,36.85,66.65,35.23,67.02 L35.23,67.02z M39.45,62.49c2.44-0.5,5.82-0.76,4.93,2.51l-4.33-0.07L39.45,62.49L39.45,62.49z M52.73,48.62 c0.94,2.33-1.24,2.33-3.19,2.21c-2.25-0.13-2.72-2.45-0.22-2.45C50.49,48.38,51.82,48.28,52.73,48.62L52.73,48.62z M47.58,45.14 c0.59-0.54,2.79-0.33,3.76-0.33c3.85,0,2.05,2.23,2.02,2.26c-1.06,0.5-3.04,0.28-4.27,0.28C46.02,47.36,47.48,45.23,47.58,45.14 L47.58,45.14z M36.35,50.46c-1.07-1.03-2.89-1.42-2.33-4.01c0.21-0.97,0.77-1.45,1.53-1.89c0.97-0.56,0.4,0.14,0.76-0.73 c0.44-1.07-0.06-0.73,0.61-1.14c1.12,0.5,0.27,0.4,0.8,1.34c0.43,0.76,2.73,1.07,2,3.12c-1.76-0.28-0.44-1.12-2.14-1.47 c-0.05,4.71-0.33,3.61,1.3,4.86c1.69,1.29,1.76,4.32-1.18,5.25c-0.31,1.2,0.22,1.15-0.77,1.59c-0.67-0.41-0.07,0.14-0.39-0.44 c-0.43-0.77,0.12,0.48-0.14-0.36c-0.01-0.03-0.06-0.65-0.08-0.76c-1.25-0.41-2.61-1.53-2.1-2.83c1.52,0.03,0.73,1.26,2.16,1.45 L36.35,50.46L36.35,50.46z M55.84,50.91c0.1-2,0-4.3-0.01-6.33l-1.2,0.1c-0.11,0.91,0.3,1.11,0.04,2.09 c-0.32,1.25-0.86,0.53-0.82,1.81c0.1,3.52-0.67,1.72-1.47,3.46C53.4,53.87,55.72,53.35,55.84,50.91L55.84,50.91z M55.75,41.73 c0,2.09-0.98,2.11-3.04,2.1c-1.5,0-3.29,0.08-4.75-0.01c-1.63-0.09-4.63-3.44,2.91-3C52.45,43.61,53.53,42.03,55.75,41.73 L55.75,41.73z M50.85,39.78c-1.04,0.02-2.1,0.04-3.13,0.06c-2.23,0.04-2.87-3.61,3.95-2.46L50.85,39.78L50.85,39.78z M57.16,19.03 c0.16-1.22-0.2-1.22,0.73-1.56c0.7,0.53,0.45,0.43,0.51,1.6c1.28,0.43,2.33,1.15,2.26,2.79c-1.9,0.02-0.49-1.01-2.29-1.44 l0.03,4.11c1.07,0.62,2.39,1.26,2.4,3.15c0,1.75-1,2.53-2.38,3.01c-0.1,1.16,0.18,1.02-0.53,1.56c-0.91-0.33-0.6-0.38-0.7-1.58 c-0.82-0.29-1.25-0.57-1.69-1.04c-0.82-0.88-0.51-1.26-0.48-1.42l0.17-0.38c1.59,0.29,0.26,1.04,2.03,1.46L57.2,25.2 C53.01,22.71,54.77,19.78,57.16,19.03L57.16,19.03z M49.89,17.46c1.2,0.24,0.88,0.29,0.99,1.64c1.31,0.41,2.29,1.2,2.23,2.66 c-1.8,0.39-0.41-0.83-2.26-1.33l0.08,4.1c1.17,0.94,2.31,1.21,2.33,3.16c0.01,1.55-0.99,2.54-2.37,2.96 c-0.14,1.32,0.2,1.37-0.99,1.61c-0.55-1.14,0.04-1.18-0.83-1.82c-0.2-0.15-2.39-1.12-1.55-2.57c1.7,0.04,0.31,0.93,2.08,1.42 l-0.08-4.09c-1.21-1.01-2.32-1.17-2.36-3.15c-0.03-1.65,1.08-2.58,2.34-2.99L49.89,17.46L49.89,17.46z M61.41,36.03 c0.35-0.79,0.92-1.01,1.51-1.51c8.45-7.35,3.53-23.11-9.32-22.83c-11.41,0.25-18.16,15.56-7.2,23.87c0.37,0.28,0.17,0.11,0.39,0.33 c0.39,0.39,0.04-0.02,0.36,0.46c-1.38,0.66-2.06,1.36-1.68,3.35c-0.83-0.22-1.42-0.8-2.22-1.23C29.9,31.25,17.02,48.91,27.77,59.39 c0.47,0.46,1.34,1.04,1.81,1.67c-0.27,0.6,0.03,0.1-0.47,0.75l-1.43,1.64l-12.63,0.04c-2.61,0.01-3.12-0.37-3.32,0.73 c0.7,0.45,15.11,0.46,16.62,0.13c1.28-1.63,3.63-5,6.31-4.71c2.12,0.23,5.3,4.67,4.08,6.6c-1.19,1.18-3.62-0.87-4.53-2.03 c-0.59-0.75-0.43-0.86-1.33-0.86c-0.16,1.28,0.68,1.48,1.25,2.32c0.49,0.73,0.02,2.03,0.02,3.05c0.02,2.26,0.08,4.69-0.03,6.93 c-1.34,0.26-3.82-0.9-4.81-1.56c-1.17-0.78-0.85-0.83-2.53-0.82l-9.71,0.02c-3.3,0-5.34-0.57-5.3,0.85 c0.75,0.29,7.33,0.16,8.68,0.15c2.46,0,6.48-0.54,8.4,0.68c4.55,2.88,3.89,0.24,5.86,3.16c0.55,0.81,1.79,1.52,3.18,1.01 c1.07-0.39,1.42-1.22,2.02-2.18c1.95-0.04,4.36,0.14,4.28-2.37c-0.07-2.26-0.68-0.09,0.37-2.25c0.51-1.06,0.05-1.78-0.07-2.8 c2.56-1.1,0.64-3.29,0.81-4.33c0.16-0.97,0.78-1.28,0.09-2.48c-0.5-0.88-1.04-0.7-1.48-1.44c0.7-0.71,1.67-1.26,2.24-1.82 c1.29-1.24,2.31-2.83,3.03-4.59c0.41-0.99,0.57-2.15,0.87-2.99c2.07-0.25,0.9,1.08,2.67,1.93c2.91,1.39,3.61-1.72,4.56-2.14 c0.95-0.42,2.18-0.24,4.88-1.91c1.46-0.9,1.95-0.61,4.07-0.6l9.24-0.01c2.77-0.02,3.56,0.41,3.77-0.72 c-0.86-0.58-10.48-0.28-12.34-0.28c-3.04,0-3.32-0.35-5.47,0.89c-0.97,0.56-3.22,1.74-4.63,1.39c0-2.39,0.05-4.81,0.01-7.2 c-0.03-1.55-0.57-2.1,0.13-2.94c0.55-0.65,1.35-0.99,1.08-2.13c-0.87-0.02-0.83,0.31-1.33,0.97c-1.1,1.46-3.5,3.06-4.52,1.85 c-1.18-2.03,2.15-6.48,4.36-6.57c1.38-0.05,2.94,1.21,3.73,1.92c0.64,0.58,1.8,2.41,2.53,2.9l15.17,0.14 c1.02-0.03,1.02,0.1,1.29-0.65c-0.75-0.77-13.98-0.32-16.06-0.41C62.65,37.61,62,36.86,61.41,36.03z"></path> </g> </svg>