<svg xmlns="http://www.w3.org/2000/svg" id="Layer_1" data-name="Layer 1" viewBox="0 0 90 90"><defs><style>.cls-1{fill:#fff;}.cls-2{fill:#083264;}</style></defs><circle class="cls-1" cx="45" cy="45" r="45"></circle><path class="cls-2" d="M50,70.36c-.15-1.3-.24-2.6-.38-3.9-.35-3.29-.71-6.59-1.09-9.88-.17-1.46-.22-2.93-.5-4.37a4.13,4.13,0,0,0-2.61-3.3,92.08,92.08,0,0,0-9.52-3.39,1.58,1.58,0,0,0-1.26.14,8.07,8.07,0,0,1-3.69,1.05,7.7,7.7,0,0,1-4.12-1,1.6,1.6,0,0,0-1.35-.13c-2,.62-4,1.28-5.94,2a39.72,39.72,0,0,0-3.93,1.64,3.45,3.45,0,0,0-2,2.76c-.07.45-.15.91-.19,1.36C12.88,59,12,64.62,11.48,70.26c-.05.52-.06.52.49.53H30.71v0c6.27,0,12.54,0,18.82,0C49.94,70.84,50,70.73,50,70.36ZM32.74,48.91c-.41.64-.78,1.26-1.21,1.83a1.64,1.64,0,0,1-1.62,0c-.46-.53-.78-1.17-1.23-1.8Zm.65,16.75c-.81.83-1.6,1.68-2.4,2.52-.19.21-.32.22-.51,0L28,65.65a.48.48,0,0,1-.1-.48q1-5.78,2-11.54c.11-.66.18-.71.86-.71s.64,0,.74.64c.67,3.86,1.32,7.72,2,11.58A.53.53,0,0,1,33.39,65.66Zm8.22-9a2.53,2.53,0,0,1-1.18,2.4,2.18,2.18,0,0,1-2.74-.13,3.23,3.23,0,0,1,.1-4.76,2,2,0,0,1,2.26-.32A2.64,2.64,0,0,1,41.61,56C41.63,56.17,41.61,56.36,41.61,56.67Z"></path><path class="cls-2" d="M49.34,20.63a9.47,9.47,0,0,1-2-.14,1.54,1.54,0,0,1-1.27-1.73,1.5,1.5,0,0,1,1.42-1.37h7.72c.33,0,.43.07.43.42-.05,2.54.07,5.09-.09,7.63a1.48,1.48,0,0,1-2.18,1.39,1.22,1.22,0,0,1-.84-1,10.92,10.92,0,0,1-.13-2.06c0-.48,0-1,0-1.48-.07,0-.12,0-.14,0a14.93,14.93,0,0,0-1.56,20.75,14.66,14.66,0,0,0,12.84,5.32,14.94,14.94,0,0,0,1.21-29.6c-1-.16-1.94-.24-2.91-.35a1.29,1.29,0,0,1-1.11-1A1.48,1.48,0,0,1,61,16a1.58,1.58,0,0,1,1.48-.6,18.72,18.72,0,0,1,6.07,1.1c6.39,2.56,10.43,7.19,11.6,14a18.18,18.18,0,0,1-35.3,8.39c-1.93-6.53-.5-12.42,4-17.57Z"></path><path class="cls-2" d="M38.74,33.46a12.3,12.3,0,0,1-3.6,9,6,6,0,0,1-4.58,2,6.2,6.2,0,0,1-4.2-1.94,12.65,12.65,0,0,1-3.71-7.81,12,12,0,0,1,.08-3.43c.05-.31.15-.47.51-.32a19.39,19.39,0,0,0,8.37,1.17,17.61,17.61,0,0,0,5.76-.86c.25-.1.51-.18.76-.3s.45,0,.5.27A16.13,16.13,0,0,1,38.74,33.46Z"></path><path class="cls-2" d="M41.92,23.66l-4.23-3.47a1,1,0,0,0-.48-.24c-2-.48-4-1-6.09-1.39a2.24,2.24,0,0,0-1,0L24.16,20a.93.93,0,0,0-.36.14c-1.42,1.18-2.91,2.3-4.27,3.55a.33.33,0,0,0-.05.51c.79,1.16,1.56,2.32,2.33,3.47.13.21.23.19.4.08A14.94,14.94,0,0,1,29,25.55a16.49,16.49,0,0,1,10.17,2.18c.22.12.32.11.45-.11.78-1.17,1.59-2.34,2.39-3.52l.13-.2C42.11,23.77,42,23.72,41.92,23.66Zm-11.16,0A1.71,1.71,0,0,1,29,22a1.75,1.75,0,0,1,1.71-1.69A1.59,1.59,0,0,1,32.32,22,1.56,1.56,0,0,1,30.76,23.7Z"></path><path class="cls-2" d="M57.62,40.91c-1,0-2.07,0-3.1,0-1.19,0-1.62-.7-1.19-1.81A6.52,6.52,0,0,1,54.87,37c1-1.06,2.07-2,3.12-3A4.33,4.33,0,0,0,59.22,32a2,2,0,0,0-1.16-2.38,1.84,1.84,0,0,0-2.37.83c-.26.46-.45,1-.7,1.43a.87.87,0,0,1-1.09.52c-.46-.11-.63-.35-.66-.93a3.73,3.73,0,0,1,3.28-3.75,6.36,6.36,0,0,1,2.22.1,3.61,3.61,0,0,1,2.77,4.2,4.17,4.17,0,0,1-1.14,2.36c-1.08,1.17-2.29,2.21-3.41,3.35l-.71.75c-.06.07-.17.15-.14.25s.2.1.3.11c1.11.1,2.21.05,3.32.07A7,7,0,0,1,61,39c.48.1.71.44.7,1s-.22.85-.74.87c-1.12,0-2.24,0-3.36,0Z"></path><path class="cls-2" d="M71.61,36.23a2.11,2.11,0,0,0-.55-.09c-.41,0-.45-.2-.45-.53,0-1.08,0-2.16,0-3.24h-.06V29.06a3.32,3.32,0,0,0-.15-.89.74.74,0,0,0-.66-.54,1.36,1.36,0,0,0-1.4.63c-.92,1.32-1.87,2.62-2.78,3.94s-1.79,2.68-2.71,4A1.27,1.27,0,0,0,63.78,38c1.43,0,2.87.13,4.3.13.4,0,.49.13.5.48,0,.55,0,1.12.11,1.67s.39.89.92.87a.92.92,0,0,0,.94-.92c0-.43,0-.87.06-1.29,0-.81,0-.81.83-.89.6-.05.89-.3.93-.81A.85.85,0,0,0,71.61,36.23Zm-3.34-.14H65.05S65,36,65,36l3.36-4.8c.17.11.14.24.15.34.09,1.41.07,2.82.08,4.22C68.59,36,68.56,36.09,68.27,36.09Z"></path><path class="cls-2" d="M23.32,29a17.2,17.2,0,0,1,8.59-1.57,17.61,17.61,0,0,1,5.63,1.33c.16.06.42.08.42.29s-.26.19-.41.26a17,17,0,0,1-6.11,1.11,20.11,20.11,0,0,1-6.72-.78c-.43-.14-.85-.35-1.27-.53C23.4,29.08,23.37,29,23.32,29Z"></path></svg>