<svg xmlns="http://www.w3.org/2000/svg" id="Layer_1" data-name="Layer 1" viewBox="0 0 90 90"><defs><style>.cls-1{fill:#fff;}.cls-2{fill:#083264;}</style></defs><circle class="cls-1" cx="45" cy="45" r="45"></circle><path class="cls-2" d="M57.85,28.37c0-.65-.34-.69-.83-.71a49.49,49.49,0,0,1-9.92-1.38c-4.07-1-8-2.42-11.18-5.31-.31-.28-.45-.13-.67.07a15.64,15.64,0,0,1-3.6,2.49c-5.31,2.75-11.06,3.73-16.94,4.11-1.3.09-1.29.06-1.36,1.4A52.14,52.14,0,0,0,14.5,43.3c2.77,12.49,9.42,22.25,20.4,29a1.21,1.21,0,0,0,1.48,0,44.71,44.71,0,0,0,10.24-8.5A39.14,39.14,0,0,0,53.06,54c0-.21-.13-.54.28-.57a3.24,3.24,0,0,0,.2-.36A51.56,51.56,0,0,0,57.85,28.37ZM43.78,59.78a2.39,2.39,0,0,0-.12.22,4.22,4.22,0,0,0-.9,1,46.63,46.63,0,0,1-6.51,5.64.94.94,0,0,1-1.29,0A39.08,39.08,0,0,1,19.32,43.26,48.88,48.88,0,0,1,18,33.33c0-1.22,0-1.21,1.19-1.36a45.62,45.62,0,0,0,12-3A25.23,25.23,0,0,0,35.06,27a1,1,0,0,1,1.13,0A40.41,40.41,0,0,0,51.88,32c1.35.17,1.38.14,1.32,1.47C52.81,43.19,50.09,52.13,43.78,59.78Z"></path><path class="cls-2" d="M63.2,15.64c2.66,0,5.15,0,7.63,0a1.93,1.93,0,0,1,1.86,1.8,13,13,0,0,1,0,1.4v56c0,1.82-.75,2.58-2.55,2.58-13.62,0-27.23,0-40.84,0-2,0-2.82-1.08-2.74-2.76s0-3.48,0-5.34l3.7,2.87a.51.51,0,0,1,.12.54c-.17.82.28.86.92.86q18.35,0,36.69,0c.67,0,.88-.14.88-.85q0-26.19,0-52.38c0-.79-.18-1.06-1-1s-1.77,0-2.66,0c-.27,0-.55.05-.61-.36A8.83,8.83,0,0,0,63.2,15.64Z"></path><path class="cls-2" d="M62.2,19.59a7.5,7.5,0,0,0-.46-1.41A7.15,7.15,0,0,0,55,14.32c-.46,0-.78,0-.93-.61a4.22,4.22,0,0,0-3.72-3.17c-2.15-.21-4.15.63-4.74,2.4-.42,1.29-1.11,1.38-2.21,1.44a6.75,6.75,0,0,0-6.24,5.19c-.19.95-.16,1,.77,1H49.71c3.9,0,7.8,0,11.7,0C62.26,20.59,62.41,20.33,62.2,19.59ZM49.68,16.5a2,2,0,1,1,0-3.95,2.07,2.07,0,0,1,1.93,2A2.05,2.05,0,0,1,49.68,16.5Z"></path><path class="cls-2" d="M49.25,65.87a47.9,47.9,0,0,0,4.19-5.59.61.61,0,0,1,.62-.28c2.46,0,4.92,0,7.38,0a2.95,2.95,0,0,1,.47,5.84,3.81,3.81,0,0,1-.74.08H49.64A3.08,3.08,0,0,1,49.25,65.87Z"></path><path class="cls-2" d="M36.16,15.67a9.18,9.18,0,0,0-1.5,3.45c-.06.34-.28.34-.54.34-1,0-2,0-3.07,0-.46,0-.71.11-.6.59.24,1.09-.32,1.59-1.27,1.91-.71.23-1.39.55-2.08.83-.34.14-.49.07-.48-.34,0-1.61,0-3.21,0-4.82a1.88,1.88,0,0,1,1.71-1.93C30.91,15.63,33.48,15.67,36.16,15.67Z"></path><path class="cls-2" d="M63.34,45.69a2.67,2.67,0,0,1,.75,3.15,2.73,2.73,0,0,1-2.56,1.9c-1,0-1.93,0-2.89,0-.46,0-.5-.12-.35-.52a50.94,50.94,0,0,0,1.47-5c.05-.21.07-.45.39-.43a4.9,4.9,0,0,1,2.18.24C62.71,45.2,62.86,45.73,63.34,45.69Z"></path><path class="cls-2" d="M61.32,32.58c0-.8,0-1.61,0-2.41,0-.48.14-.54.57-.44a3,3,0,0,1,0,5.83c-.43.09-.66.07-.61-.5.06-.82,0-1.66,0-2.48Z"></path><path class="cls-2" d="M63.34,45.69c-.2.26-.46.52-.58,0-.07-.31-.4-.34-.43-.62A1.39,1.39,0,0,1,63.34,45.69Z"></path><path class="cls-2" d="M53.06,54c0-.26-.48-.4-.26-.71s.35.12.54.14A.89.89,0,0,1,53.06,54Z"></path><path class="cls-2" d="M43.66,60c-.1.52-.6.68-.9,1A4.22,4.22,0,0,1,43.66,60Z"></path><path class="cls-2" d="M44,60.48c-.1.39-.32.08-.48.11s-.42.44-.76.44a4.22,4.22,0,0,1,.9-1C43.87,60.09,44.06,60.18,44,60.48Z"></path><path class="cls-2" d="M28.51,61.61c.26.22.23.42,0,.6,0,0-.2,0-.21,0C28.14,61.93,28.3,61.76,28.51,61.61Z"></path><path class="cls-2" d="M51.77,45.89c.19.35-.07.58-.11,1C51.22,46.35,51.82,46.2,51.77,45.89Z"></path><path class="cls-2" d="M60.61,17.13l.74.89C60.89,17.89,60.73,17.71,60.61,17.13Z"></path><path class="cls-2" d="M62.86,49.41c.12-.2.26-.31.47-.21a.28.28,0,0,1,0,.2C63.21,49.55,63,49.49,62.86,49.41Z"></path><path class="cls-2" d="M47,47c0,.56-.11.75-.71.74-2.13,0-4.26,0-6.39,0-.62,0-.85.12-.84.81,0,2.15,0,4.31,0,6.47,0,.48-.09.67-.63.66q-2.86-.06-5.73,0c-.55,0-.69-.17-.68-.71,0-2.12,0-4.25,0-6.38,0-.71-.2-.86-.88-.85-2.1,0-4.2,0-6.3,0-.58,0-.74-.15-.74-.73,0-2.07,0-4.14,0-6.21.21-.28.5-.15.76-.15h6.22c.7,0,.9-.27.89-.91,0-2.1,0-4.2,0-6.3,0-.56.1-.78.71-.77,1.93,0,3.87,0,5.8,0a.83.83,0,0,1,.47,0l.08.06c0,2.35.07,4.7,0,7,0,.74.2.91.92.89,2.1,0,4.2,0,6.3,0,.6,0,.74.17.73.74C47,43.32,47,45.18,47,47Z"></path></svg>