<svg xmlns="http://www.w3.org/2000/svg" xmlns:xlink="http://www.w3.org/1999/xlink" id="Layer_1" x="0px" y="0px" viewBox="0 0 45 45" style="enable-background:new 0 0 45 45;" xml:space="preserve"> <style type="text/css"> .st0{fill-rule:evenodd;clip-rule:evenodd;fill:#FFFFFF;} .st1{fill-rule:evenodd;clip-rule:evenodd;fill:#0A2852;} </style> <g> <circle class="st0" cx="22.5" cy="22.5" r="22.5"></circle> <path class="st1" d="M23.3,9.86c0,1.91,0.05,1.16,1.27,1.37l0,1.19c-0.53,0.12-1.02,0.16-1.55,0.32c-1.03,0.31-1.72,0.59-2.65,1.14 c-0.44,0.26-0.75,0.53-1.14,0.77c-0.29-0.13-0.64-0.7-1.03-0.93c-1.05-0.63-2.28,0.54-1.69,1.64c0.21,0.38,0.8,0.74,0.95,1.04 c-0.07,0.16-0.26,0.39-0.38,0.55c-0.98,1.34-1.6,3.08-1.82,4.79c-0.79,6.01,3.93,11.91,10.55,11.92c4.52,0,7.81-2.68,9.41-5.67 c1.75-3.26,1.65-7.16-0.27-10.42l-0.77-1.16c0.19-0.34,0.69-0.62,0.93-1.04c0.62-1.06-0.59-2.27-1.66-1.66 c-0.39,0.23-0.67,0.7-1.02,0.93l-1.15-0.75c-0.93-0.58-2.3-1.12-3.41-1.32c-0.27-0.05-0.58-0.08-0.82-0.15l-0.01-1.18 c0.8-0.18,1.28,0.38,1.27-0.76V9.24c0-0.6-0.34-0.49-1.15-0.49H24.4C23.2,8.75,23.3,8.67,23.3,9.86L23.3,9.86z M24.63,13.13 c1.34-0.24,3.3,0.07,4.43,0.46c3.44,1.21,6.22,4.33,6.64,8.25c0.3,2.76-0.51,5.58-2.27,7.58c-1.57,1.79-3.88,3.25-6.44,3.49 c-3.17,0.3-5.67-0.67-7.56-2.26c-1.78-1.49-3.3-3.97-3.5-6.42c-0.14-1.67-0.04-2.98,0.46-4.43c0.84-2.42,2.39-4.19,4.5-5.45 c0.47-0.28,1.12-0.57,1.71-0.77C23.65,13.24,23.65,13.31,24.63,13.13L24.63,13.13z M25.39,14.59c1.12-0.14,2.66,0.23,3.55,0.59 c2.84,1.13,5.17,3.98,5.3,7.32c0.05,1.29-0.11,2.46-0.56,3.58c-0.61,1.52-1.49,2.66-2.71,3.6c-0.44,0.34-0.78,0.56-1.29,0.83 c-1.05,0.55-1.99,0.78-3.31,0.91c-2.57,0.24-4.8-0.91-6.23-2.18c-1.37-1.21-2.62-3.34-2.74-5.72c-0.2-4.21,2.39-7.55,6.19-8.64 C24.22,14.7,24.69,14.68,25.39,14.59L25.39,14.59z M22.28,16.14c0.49-0.43,2.37-0.87,3.2-0.86c0,0.54,0,1.08,0,1.61 c0,0.43-0.09,1.22,0.15,1.36c0.33,0.07,0.51,0.01,0.52-0.34l0-2.62c0.74-0.08,2.78,0.48,3.19,0.85c-0.05,0.34-0.92,1.22-0.41,1.47 c0.37,0.18,0.51-0.21,0.63-0.41c0.15-0.27,0.27-0.44,0.38-0.68c0.35,0.04,1.1,0.76,1.36,1.02c0.19,0.18,0.9,0.93,1.01,1.29 c-0.36,0.4-1.51,0.53-0.98,1.2c0.55,0.09,0.95-0.47,1.37-0.57c0.25,0.53,0.43,0.9,0.58,1.49c0.1,0.39,0.3,1.31,0.27,1.7 c-0.86,0.21-2.99-0.32-3.02,0.34c-0.02,0.54,0.89,0.36,1.33,0.37c0.54,0,1.13-0.02,1.67,0.01c0.08,0.35-0.16,1.4-0.26,1.74 c-0.16,0.56-0.39,0.98-0.55,1.45c-0.27-0.04-0.57-0.28-0.79-0.4c-0.36-0.21-0.41-0.28-0.73-0.03c-0.07,0.45,0.17,0.49,0.45,0.66 c0.23,0.13,0.49,0.23,0.66,0.41c-0.19,0.52-1.82,2.23-2.36,2.31c-0.1-0.21-0.29-0.5-0.4-0.7c-0.11-0.19-0.28-0.6-0.65-0.37 c-0.44,0.28,0.4,1.12,0.45,1.46c-0.47,0.38-2.42,0.93-3.19,0.84c-0.03-0.57-0.01-1.2-0.01-1.77c0-0.45,0.18-1.44-0.5-1.18 c-0.29,0.18-0.17,0.98-0.17,1.4c0,0.51,0.01,1.05-0.01,1.56c-0.84,0.01-2.66-0.42-3.19-0.85c0.05-0.34,0.93-1.25,0.41-1.48 c-0.51-0.22-0.6,0.61-1.03,1.09c-0.33-0.05-1.11-0.81-1.33-1.03c-0.22-0.22-0.86-0.9-1.02-1.28c0.36-0.41,1.39-0.52,1.1-1.06 c-0.26-0.48-0.96,0.28-1.45,0.42c-0.38-0.37-0.96-2.57-0.86-3.18c0.49-0.05,1.15-0.01,1.66-0.01c0.41,0,1.37,0.17,1.34-0.37 c-0.02-0.45-0.75-0.32-1.39-0.32c-1.32,0-1.64,0.18-1.63-0.25c0-0.07,0.02-0.17,0.03-0.23c0.02-0.18,0.04-0.31,0.07-0.47 c0.1-0.55,0.45-1.93,0.78-2.26c0.52,0.18,0.82,0.63,1.34,0.57c0.55-0.72-0.54-0.71-0.98-1.2c0.19-0.53,1.84-2.22,2.34-2.31 c0.38,0.41,0.55,1.39,1.06,1.08C23.18,17.32,22.35,16.54,22.28,16.14L22.28,16.14z M10.75,28.95c0.41-0.13,0.71,0.13,1,0.29 c0.27,0.15,0.57,0.33,0.84,0.49c1.11,0.66,0.16,1.18,0.13,1.84c-0.05,1.13,1.84,2.27,2.91,2.5c1.42,0.31,1.49-0.42,1.77-0.8 c0.51-0.67,1.35,0.01,1.83,0.29c1.36,0.8,1.17,0.84-0.27,3.27c-0.18,0.31-0.28,0.56-0.63,0.73c-2.11,1-8.7-2.84-9.38-5.12 c-0.21-0.7,0.21-1.18,0.65-1.93C9.94,29.92,10.26,29.1,10.75,28.95L10.75,28.95z M17.08,7.31c0.89-0.18,1.37,0.58,1.73,0.94 c1.81,1.79,1.81,1.59,0.3,3.1c-1.67,1.68-1.11-1.5-3.74,0.37c-0.44,0.31-1,0.88-1.31,1.43c-0.16,0.29-0.34,0.63-0.36,1.01 c-0.03,0.52,0.21,0.69,0.44,0.92c0.72,0.73-0.02,1.25-0.49,1.73c-0.49,0.5-0.98,1.19-1.71,0.51c-0.48-0.44-0.9-0.91-1.37-1.37 c-0.56-0.54-0.9-0.84-0.57-1.95c0.35-1.17,1.43-2.47,2.21-3.32C13.44,9.35,15.28,7.66,17.08,7.31L17.08,7.31z M23.8,19.25 c0.51-0.23,1,0.45,1.22,0.68c0.36,0.37,0.76,0.71,0.14,1.32c-0.84,0.83,1.14,2.76,2.05,2.63c0.28-0.04,0.38-0.27,0.6-0.42 c0.56-0.37,1.07,0.33,1.28,0.54c0.3,0.3,0.86,0.73,0.32,1.32c-0.32,0.35-0.68,0.68-1.01,1.02c-0.37,0.37-0.67,0.66-1.44,0.42 c-0.49-0.15-0.94-0.43-1.33-0.7c-1.25-0.87-3.46-3.05-3.62-4.52c-0.08-0.69,0.41-1.01,0.71-1.31C23.03,19.91,23.4,19.43,23.8,19.25 L23.8,19.25z M12.55,16.9c-0.17-0.07-1.2-1.14-1.4-1.34c-0.51-0.53-0.87-0.6-0.29-1.85c0.87-1.86,3.58-4.56,5.47-5.46 c1.12-0.54,1.24-0.28,1.85,0.32l1.19,1.2c0.11,0.11,0.08,0.05,0.13,0.19c-0.09,0.16-1.05,1.12-1.21,1.2 c-0.16-0.08-0.28-0.25-0.41-0.35c-1.16-0.97-2.76,0.15-3.57,0.93c-0.42,0.41-0.94,1.09-1.18,1.83c-0.46,1.41,0.46,1.79,0.61,2.14 C13.68,15.84,12.69,16.83,12.55,16.9L12.55,16.9z M19.44,34.49c0.02,0.21-0.32,0.7-0.43,0.89c-0.21,0.36-0.74,1.46-1.06,1.6 c-1.13,0.49-4.08-1.08-4.9-1.57c-1.01-0.6-3.21-2.1-3.46-3.18c-0.09-0.38,0.2-0.69,0.35-0.96c0.29-0.53,0.72-1.17,0.94-1.66 c0.26,0.03,1.26,0.64,1.52,0.82c0.02,0.27-0.36,0.6-0.38,1.1c-0.07,1.63,2.41,3.23,4.1,3.29c1.01,0.03,1.48-0.44,1.8-1.13 C18.16,33.69,19.22,34.31,19.44,34.49L19.44,34.49z M28.91,24.81c-0.08,0.19-0.71,0.76-0.93,0.97c-0.16,0.16-0.29,0.4-0.62,0.36 c-1.25-0.12-3.76-2.66-4.44-4.02c-0.44-0.88-0.2-0.94,0.13-1.28c0.22-0.23,0.72-0.77,0.95-0.93c0.18,0.06,0.69,0.61,0.76,0.72 c-0.11,0.22-0.32,0.31-0.44,0.66c-0.26,0.79,0.43,1.8,0.91,2.27c0.29,0.29,0.76,0.68,1.3,0.87c1.02,0.37,1.35-0.19,1.64-0.37 C28.33,24.14,28.84,24.69,28.91,24.81L28.91,24.81z M23.82,35.71l7.92,0c0.27,0,0.28-0.03,0.43-0.16c0.07-0.43-0.08-0.52-0.48-0.52 h-8.66c-0.49,0-0.7,0.36-0.4,0.6C22.8,35.78,23.53,35.71,23.82,35.71L23.82,35.71z M23.98,10c0-0.6-0.12-0.56,0.47-0.56l3.21,0.01 l0.01,0.37c0,0.68,0.07,0.71-0.21,0.71l-1.19-0.01c-0.84-0.01-1.45,0.05-2.27-0.02L23.98,10L23.98,10z M9.44,27.04 c-0.02-0.32,0.05-0.48,0.37-0.49l3.19,0c0.38,0,1.47-0.11,1.62,0.17c0.18,0.31-0.09,0.51-0.43,0.51h-3.98 C9.62,27.23,9.74,27.27,9.44,27.04L9.44,27.04z M10.52,19.47c-0.26,0-0.86,0.07-1.01-0.12c-0.24-0.3,0.03-0.56,0.39-0.56l3.4,0 c0.46,0,1.59-0.13,1.33,0.48c-0.11,0.27-0.54,0.2-0.88,0.2H10.52L10.52,19.47z M9.1,22.06l3.63,0c0.31,0,0.62-0.1,0.5-0.46 c-0.11-0.33-0.81-0.23-1.34-0.23H9.1c-0.31,0-0.56,0.03-0.57,0.33C8.53,22.04,8.79,22.06,9.1,22.06L9.1,22.06z M9.1,24.64l3.58,0 c0.26,0,0.71-0.05,0.54-0.47c-0.12-0.3-0.84-0.22-1.34-0.21H9.1c-0.3,0-0.54,0.03-0.57,0.32C8.51,24.62,8.78,24.64,9.1,24.64 L9.1,24.64z M32.98,15.12c0.11-0.19,0.42-0.45,0.6-0.63c0.2-0.21,0.51-0.42,0.85-0.12c0.33,0.29,0.13,0.66-0.09,0.87 c-0.19,0.18-0.41,0.46-0.62,0.59C33.58,15.77,33.07,15.24,32.98,15.12L32.98,15.12z M17.94,15.83c-0.18-0.07-0.5-0.44-0.65-0.59 c-0.65-0.66,0.11-1.39,0.75-0.75c0.17,0.17,0.5,0.44,0.6,0.64C18.59,15.22,18.04,15.77,17.94,15.83L17.94,15.83z M25.29,12.36 l0.01-1.13l1.05,0.01l-0.02,1.13L25.29,12.36z"></path> </g> </svg>