<svg xmlns="http://www.w3.org/2000/svg" id="Layer_1" data-name="Layer 1" viewBox="0 0 90 90"><defs><style>.cls-1{fill:#fff;}.cls-2{fill:#083264;}</style></defs><circle class="cls-1" cx="45" cy="45" r="45"></circle><path class="cls-2" d="M33.28,47c0-.7.51-1.08,1.48-1.08.22,0,.45,0,.67,0A1.1,1.1,0,0,1,36.51,47,1.12,1.12,0,0,1,35.43,48h-.67C33.79,48,33.28,47.66,33.28,47Z" transform="translate(0 0)"></path><path class="cls-2" d="M33.28,52.39a1.11,1.11,0,0,1,1.18-1.1h.48a4,4,0,0,1,.6,0,1.06,1.06,0,0,1,0,2.12,7.79,7.79,0,0,1-1.08,0A1.1,1.1,0,0,1,33.28,52.39Z" transform="translate(0 0)"></path><path class="cls-2" d="M33.28,41.59c0-.75.51-1.12,1.65-1.12h.4a1.12,1.12,0,0,1,1.18,1.05,1.1,1.1,0,0,1-1.18,1.11h-.41C33.81,42.64,33.3,42.31,33.28,41.59Z" transform="translate(0 0)"></path><path class="cls-2" d="M31.38,62.11h9.18c.85,0,1.35.41,1.35,1.08s-.49,1.08-1.35,1.08H31.38c-.85,0-1.35-.41-1.35-1.08S30.53,62.11,31.38,62.11Z" transform="translate(0 0)"></path><path class="cls-2" d="M36.32,28.54a1,1,0,0,1-.87-1.05,1,1,0,0,1,.88-1,3,3,0,0,1,.67,0H53.34a4.15,4.15,0,0,1,.61,0,1,1,0,0,1,.93,1.07,1,1,0,0,1-.94,1.05,3,3,0,0,1-.6,0H37A3,3,0,0,1,36.32,28.54Z" transform="translate(0 0)"></path><path class="cls-2" d="M57.06,52.37a1.09,1.09,0,0,1-1,1.07c-.2,0-.4,0-.6,0H40.18a2.46,2.46,0,0,1-.67-.05,1.06,1.06,0,0,1,0-2.06,3,3,0,0,1,.74-.05H55.5a4.87,4.87,0,0,1,.54,0A1.09,1.09,0,0,1,57.06,52.37Z" transform="translate(0 0)"></path><path class="cls-2" d="M38.69,47a1.09,1.09,0,0,1,1-1.07c.2,0,.41,0,.61,0H55.5a3.07,3.07,0,0,1,.68,0,1.06,1.06,0,0,1,0,2.09,3.64,3.64,0,0,1-.74,0H40.31a4.12,4.12,0,0,1-.61,0A1.09,1.09,0,0,1,38.69,47Z" transform="translate(0 0)"></path><path class="cls-2" d="M57.06,41.49a1.1,1.1,0,0,1-1.16,1.14c-.7,0-1.4,0-2.09,0H40.3a4.15,4.15,0,0,1-.61,0,1.08,1.08,0,0,1-1-1.07,1.06,1.06,0,0,1,1-1.06c.58,0,1.17,0,1.75,0H55.71C56.53,40.48,57,40.85,57.06,41.49Z" transform="translate(0 0)"></path><path class="cls-2" d="M60.3,32.87c0,.67-.48,1.11-1.32,1.11-4.62,0-9.24,0-13.85,0H31.62a3,3,0,0,1-.74,0,1.06,1.06,0,0,1,0-2.08,3,3,0,0,1,.74,0H59C59.8,31.84,60.28,32.23,60.3,32.87Z" transform="translate(0 0)"></path><path class="cls-2" d="M66.8,22.48V55.19c0,1-.37,1.49-1.07,1.5s-1.09-.51-1.09-1.55q0-15.64,0-31.29c0-.57-.1-.81-.71-1a5.07,5.07,0,0,1-3.36-3.51.6.6,0,0,0-.69-.5q-14.7,0-29.41,0a.62.62,0,0,0-.73.53,5.06,5.06,0,0,1-3.51,3.52c-.48.15-.55.36-.55.8q0,10.58,0,21.15t0,21c0,.54.09.78.67,1a5.08,5.08,0,0,1,3.39,3.48.62.62,0,0,0,.73.54c4.71,0,9.42,0,14.13,0a3.75,3.75,0,0,1,.67,0,1.07,1.07,0,0,1,0,2.12,3.84,3.84,0,0,1-.68,0H29.48c-1.25,0-1.49-.21-1.65-1.43a3.25,3.25,0,0,0-2.94-2.88c-1.08-.12-1.36-.42-1.36-1.5V22.5c0-1.09.28-1.39,1.36-1.51a3.26,3.26,0,0,0,3-3c.1-1,.43-1.3,1.42-1.3H61c1,0,1.34.3,1.45,1.28a3.24,3.24,0,0,0,3,3C66.51,21.1,66.8,21.42,66.8,22.48Z" transform="translate(0 0)"></path><path class="cls-2" d="M58.35,60a1.11,1.11,0,0,0-1.27,1,1.13,1.13,0,0,0,1.09,1.14,2.16,2.16,0,0,1,2.14,2.17,1.08,1.08,0,1,0,2.15-.18A4.36,4.36,0,0,0,58.35,60Zm0,0a1.11,1.11,0,0,0-1.27,1,1.13,1.13,0,0,0,1.09,1.14,2.16,2.16,0,0,1,2.14,2.17,1.08,1.08,0,1,0,2.15-.18A4.36,4.36,0,0,0,58.35,60Zm0,0a1.11,1.11,0,0,0-1.27,1,1.13,1.13,0,0,0,1.09,1.14,2.16,2.16,0,0,1,2.14,2.17,1.08,1.08,0,1,0,2.15-.18A4.36,4.36,0,0,0,58.35,60Zm0,0a1.11,1.11,0,0,0-1.27,1,1.13,1.13,0,0,0,1.09,1.14,2.16,2.16,0,0,1,2.14,2.17,1.08,1.08,0,1,0,2.15-.18A4.36,4.36,0,0,0,58.35,60ZM71.14,73.37q0-28.59,0-57.17a7.3,7.3,0,0,0,0-.81,3.17,3.17,0,0,0-1.66-2.62c-.29-.16-.59-.28-.89-.42H21.77c-2,.7-2.59,2.15-2.59,4.19q.06,28.49,0,57c0,2.47,1.27,3.74,3.74,3.74H45.52c.41,0,.78,0,1,.46a.93.93,0,0,0,.9.49,5.53,5.53,0,0,1,4.46,2.46c.08.1.19.19.28.29.9.92,1.57.83,2.22-.31.56-1,1.13-1.94,1.66-2.93a.79.79,0,0,1,.85-.47c.85,0,1.71,0,2.56,0a.78.78,0,0,1,.83.5c.46.87,1,1.72,1.45,2.58.9,1.59,1.48,1.73,2.64.34a5.91,5.91,0,0,1,4.54-2.46H69a1.07,1.07,0,0,0,.9-1.33.5.5,0,0,1,.13-.49A3.69,3.69,0,0,0,71.14,73.37Zm-15-.28c-1,1.75-2,3.5-3,5.26-.19.35-.32.28-.52,0s-.26-.26-.37-.4a3.63,3.63,0,0,0-2.88-1.61.93.93,0,0,1-.35-.11c1-1.77,2-3.52,3-5.27.15-.25.26-.31.51-.11A7.86,7.86,0,0,0,56,72.63C56.34,72.71,56.34,72.83,56.19,73.09Zm1.43,2c0-.38.34-.61.46-1,.33.26.4.62.7,1Zm.48-4.32a6.49,6.49,0,1,1,6.53-6.45A6.54,6.54,0,0,1,58.1,70.75ZM67,76.33a4.42,4.42,0,0,0-3.4,2c-.24.29-.39.34-.6-.06-.94-1.7-1.91-3.4-2.88-5.09-.18-.31-.26-.46.21-.58a7.8,7.8,0,0,0,3.26-1.67c.23-.2.37-.26.55.07,1,1.75,2,3.49,3,5.24C67.11,76.29,67.07,76.33,67,76.33Zm1.7-1.73c-1.08-1.88-2.11-3.69-3.16-5.49-.2-.33.05-.51.17-.72a8.64,8.64,0,1,0-16-2.27,8.26,8.26,0,0,0,.91,2.38.66.66,0,0,1,0,.79Q49,72,47.48,74.71a.67.67,0,0,1-.69.38H22.73c-1,0-1.36-.4-1.36-1.55V16.07c0-1.23.33-1.56,1.56-1.56H67.42c1.22,0,1.54.33,1.54,1.58q0,28.73,0,57.45A1.43,1.43,0,0,1,68.73,74.6ZM58.35,60a1.11,1.11,0,0,0-1.27,1,1.13,1.13,0,0,0,1.09,1.14,2.16,2.16,0,0,1,2.14,2.17,1.08,1.08,0,1,0,2.15-.18A4.36,4.36,0,0,0,58.35,60Zm0,0a1.11,1.11,0,0,0-1.27,1,1.13,1.13,0,0,0,1.09,1.14,2.16,2.16,0,0,1,2.14,2.17,1.08,1.08,0,1,0,2.15-.18A4.36,4.36,0,0,0,58.35,60Zm0,0a1.11,1.11,0,0,0-1.27,1,1.13,1.13,0,0,0,1.09,1.14,2.16,2.16,0,0,1,2.14,2.17,1.08,1.08,0,1,0,2.15-.18A4.36,4.36,0,0,0,58.35,60Z" transform="translate(0 0)"></path><path class="cls-2" d="M33.28,47c0-.7.51-1.08,1.48-1.08.22,0,.45,0,.67,0A1.1,1.1,0,0,1,36.51,47,1.12,1.12,0,0,1,35.43,48h-.67C33.79,48,33.28,47.66,33.28,47Z" transform="translate(0 0)"></path><path class="cls-2" d="M33.28,52.39a1.11,1.11,0,0,1,1.18-1.1h.48a4,4,0,0,1,.6,0,1.06,1.06,0,0,1,0,2.12,7.79,7.79,0,0,1-1.08,0A1.1,1.1,0,0,1,33.28,52.39Z" transform="translate(0 0)"></path><path class="cls-2" d="M33.28,41.59c0-.75.51-1.12,1.65-1.12h.4a1.12,1.12,0,0,1,1.18,1.05,1.1,1.1,0,0,1-1.18,1.11h-.41C33.81,42.64,33.3,42.31,33.28,41.59Z" transform="translate(0 0)"></path><path class="cls-2" d="M31.38,62.11h9.18c.85,0,1.35.41,1.35,1.08s-.49,1.08-1.35,1.08H31.38c-.85,0-1.35-.41-1.35-1.08S30.53,62.11,31.38,62.11Z" transform="translate(0 0)"></path><path class="cls-2" d="M36.32,28.54a1,1,0,0,1-.87-1.05,1,1,0,0,1,.88-1,3,3,0,0,1,.67,0H53.34a4.15,4.15,0,0,1,.61,0,1,1,0,0,1,.93,1.07,1,1,0,0,1-.94,1.05,3,3,0,0,1-.6,0H37A3,3,0,0,1,36.32,28.54Z" transform="translate(0 0)"></path><path class="cls-2" d="M57.06,52.37a1.09,1.09,0,0,1-1,1.07c-.2,0-.4,0-.6,0H40.18a2.46,2.46,0,0,1-.67-.05,1.06,1.06,0,0,1,0-2.06,3,3,0,0,1,.74-.05H55.5a4.87,4.87,0,0,1,.54,0A1.09,1.09,0,0,1,57.06,52.37Z" transform="translate(0 0)"></path><path class="cls-2" d="M38.69,47a1.09,1.09,0,0,1,1-1.07c.2,0,.41,0,.61,0H55.5a3.07,3.07,0,0,1,.68,0,1.06,1.06,0,0,1,0,2.09,3.64,3.64,0,0,1-.74,0H40.31a4.12,4.12,0,0,1-.61,0A1.09,1.09,0,0,1,38.69,47Z" transform="translate(0 0)"></path><path class="cls-2" d="M57.06,41.49a1.1,1.1,0,0,1-1.16,1.14c-.7,0-1.4,0-2.09,0H40.3a4.15,4.15,0,0,1-.61,0,1.08,1.08,0,0,1-1-1.07,1.06,1.06,0,0,1,1-1.06c.58,0,1.17,0,1.75,0H55.71C56.53,40.48,57,40.85,57.06,41.49Z" transform="translate(0 0)"></path><path class="cls-2" d="M60.3,32.87c0,.67-.48,1.11-1.32,1.11-4.62,0-9.24,0-13.85,0H31.62a3,3,0,0,1-.74,0,1.06,1.06,0,0,1,0-2.08,3,3,0,0,1,.74,0H59C59.8,31.84,60.28,32.23,60.3,32.87Z" transform="translate(0 0)"></path><path class="cls-2" d="M66.8,22.48V55.19c0,1-.37,1.49-1.07,1.5s-1.09-.51-1.09-1.55q0-15.64,0-31.29c0-.57-.1-.81-.71-1a5.07,5.07,0,0,1-3.36-3.51.6.6,0,0,0-.69-.5q-14.7,0-29.41,0a.62.62,0,0,0-.73.53,5.06,5.06,0,0,1-3.51,3.52c-.48.15-.55.36-.55.8q0,10.58,0,21.15t0,21c0,.54.09.78.67,1a5.08,5.08,0,0,1,3.39,3.48.62.62,0,0,0,.73.54c4.71,0,9.42,0,14.13,0a3.75,3.75,0,0,1,.67,0,1.07,1.07,0,0,1,0,2.12,3.84,3.84,0,0,1-.68,0H29.48c-1.25,0-1.49-.21-1.65-1.43a3.25,3.25,0,0,0-2.94-2.88c-1.08-.12-1.36-.42-1.36-1.5V22.5c0-1.09.28-1.39,1.36-1.51a3.26,3.26,0,0,0,3-3c.1-1,.43-1.3,1.42-1.3H61c1,0,1.34.3,1.45,1.28a3.24,3.24,0,0,0,3,3C66.51,21.1,66.8,21.42,66.8,22.48Z" transform="translate(0 0)"></path><path class="cls-2" d="M62.46,64.1a1.08,1.08,0,1,1-2.15.18,2.16,2.16,0,0,0-2.14-2.17A1.13,1.13,0,0,1,57.08,61a1.11,1.11,0,0,1,1.27-1A4.36,4.36,0,0,1,62.46,64.1Z" transform="translate(0 0)"></path><path class="cls-2" d="M66.8,22.48V55.19c0,1-.37,1.49-1.07,1.5s-1.09-.51-1.09-1.55q0-15.64,0-31.29c0-.57-.1-.81-.71-1a5.07,5.07,0,0,1-3.36-3.51.6.6,0,0,0-.69-.5q-14.7,0-29.41,0a.62.62,0,0,0-.73.53,5.06,5.06,0,0,1-3.51,3.52c-.48.15-.55.36-.55.8q0,10.58,0,21.15t0,21c0,.54.09.78.67,1a5.08,5.08,0,0,1,3.39,3.48.62.62,0,0,0,.73.54c4.71,0,9.42,0,14.13,0a3.75,3.75,0,0,1,.67,0,1.07,1.07,0,0,1,0,2.12,3.84,3.84,0,0,1-.68,0H29.48c-1.25,0-1.49-.21-1.65-1.43a3.25,3.25,0,0,0-2.94-2.88c-1.08-.12-1.36-.42-1.36-1.5V22.5c0-1.09.28-1.39,1.36-1.51a3.26,3.26,0,0,0,3-3c.1-1,.43-1.3,1.42-1.3H61c1,0,1.34.3,1.45,1.28a3.24,3.24,0,0,0,3,3C66.51,21.1,66.8,21.42,66.8,22.48Z" transform="translate(0 0)"></path><path class="cls-2" d="M60.3,32.87c0,.67-.48,1.11-1.32,1.11-4.62,0-9.24,0-13.85,0H31.62a3,3,0,0,1-.74,0,1.06,1.06,0,0,1,0-2.08,3,3,0,0,1,.74,0H59C59.8,31.84,60.28,32.23,60.3,32.87Z" transform="translate(0 0)"></path><path class="cls-2" d="M54.88,27.5a1,1,0,0,1-.94,1.05,3,3,0,0,1-.6,0H37a3,3,0,0,1-.67,0,1,1,0,0,1-.87-1.05,1,1,0,0,1,.88-1,3,3,0,0,1,.67,0H53.34a4.15,4.15,0,0,1,.61,0A1,1,0,0,1,54.88,27.5Z" transform="translate(0 0)"></path><path class="cls-2" d="M57.06,41.49a1.1,1.1,0,0,1-1.16,1.14c-.7,0-1.4,0-2.09,0H40.3a4.15,4.15,0,0,1-.61,0,1.08,1.08,0,0,1-1-1.07,1.06,1.06,0,0,1,1-1.06c.58,0,1.17,0,1.75,0H55.71C56.53,40.48,57,40.85,57.06,41.49Z" transform="translate(0 0)"></path><path class="cls-2" d="M57.05,47a1,1,0,0,1-.88,1,3.64,3.64,0,0,1-.74,0H40.31a4.12,4.12,0,0,1-.61,0,1.07,1.07,0,0,1,0-2.14c.2,0,.41,0,.61,0H55.5a3.07,3.07,0,0,1,.68,0A1,1,0,0,1,57.05,47Z" transform="translate(0 0)"></path><path class="cls-2" d="M57.06,52.37a1.09,1.09,0,0,1-1,1.07c-.2,0-.4,0-.6,0H40.18a2.46,2.46,0,0,1-.67-.05,1.06,1.06,0,0,1,0-2.06,3,3,0,0,1,.74-.05H55.5a4.87,4.87,0,0,1,.54,0A1.09,1.09,0,0,1,57.06,52.37Z" transform="translate(0 0)"></path><path class="cls-2" d="M41.91,63.19c0,.67-.49,1.08-1.35,1.08H31.38c-.85,0-1.35-.41-1.35-1.08s.5-1.08,1.35-1.08h9.18C41.41,62.11,41.91,62.52,41.91,63.19Z" transform="translate(0 0)"></path><path class="cls-2" d="M36.51,41.52a1.1,1.1,0,0,1-1.18,1.11h-.41c-1.11,0-1.62-.33-1.64-1s.51-1.12,1.65-1.12h.4A1.12,1.12,0,0,1,36.51,41.52Z" transform="translate(0 0)"></path><path class="cls-2" d="M36.51,47A1.12,1.12,0,0,1,35.43,48h-.67c-1,0-1.48-.38-1.48-1.08s.51-1.08,1.48-1.08c.22,0,.45,0,.67,0A1.1,1.1,0,0,1,36.51,47Z" transform="translate(0 0)"></path><path class="cls-2" d="M36.5,52.35a1.05,1.05,0,0,1-1,1.08,7.79,7.79,0,0,1-1.08,0,1.08,1.08,0,1,1,0-2.16h.48a4,4,0,0,1,.6,0A1.05,1.05,0,0,1,36.5,52.35Z" transform="translate(0 0)"></path><path class="cls-2" d="M62.46,64.1a1.08,1.08,0,1,1-2.15.18,2.16,2.16,0,0,0-2.14-2.17A1.13,1.13,0,0,1,57.08,61a1.11,1.11,0,0,1,1.27-1A4.36,4.36,0,0,1,62.46,64.1Z" transform="translate(0 0)"></path></svg>