<svg xmlns="http://www.w3.org/2000/svg" xmlns:xlink="http://www.w3.org/1999/xlink" id="Layer_1" x="0px" y="0px" viewBox="0 0 45 45" style="enable-background:new 0 0 45 45;" xml:space="preserve"> <style type="text/css"> .st0{fill-rule:evenodd;clip-rule:evenodd;fill:#FFFFFF;} .st1{fill-rule:evenodd;clip-rule:evenodd;fill:#0A2852;} </style> <g> <circle class="st0" cx="22.5" cy="22.5" r="22.5"></circle> <path class="st1" d="M10.42,8.43l-1.89,1.85c0.23,0.67,0.99,0.78,0.95,1.45c-0.05,0.82-1.16,0.57-1.81,0.61l-0.03,2.8 c0.81,0.04,1.67-0.19,1.82,0.51c0.1,0.44-0.13,0.62-0.33,0.82c-0.12,0.11-0.21,0.18-0.32,0.29c-0.24,0.25-0.15,0.11-0.27,0.39 c0.29,0.44,1.04,1.24,1.51,1.49c-0.08,1.15-0.48,1.58-0.48,3.72c0,0.65,0.03,1.38,0.13,1.96c0.43,2.47,0.67,1.18-0.51,2.55 c-3.88,4.52,0.05,10.86,5.18,10.3c0.95-0.1,1.76-0.33,2.56-0.82c0.32-0.19,0.66-0.41,0.97-0.67c1.42-1.18-0.04-1.02,2.72-0.54 c0.62,0.11,1.37,0.13,2.05,0.12c2.47-0.03,4.73-0.75,6.77-2.03c0.77-0.49,2.14-1.46,2.35-2.08l-0.52-0.54 c-0.3,0.16-1.3,1.17-2.25,1.78c-2.66,1.71-6.61,2.58-9.63,1.54c0.03-0.22,0.44-1.49,0.56-1.8c1.37,0.09,1.83,0.42,3.78,0.18 c1.07-0.13,2.11-0.46,3.06-0.92c0.92-0.44,1.7-0.99,2.4-1.6c1.1-0.97,1.34-1.65,1.87-2.2l1.45,0.01l0.04,5.73l-2.24,0.06l2.68,4.06 c0.25-0.2,2.54-3.63,2.74-4.04l-2.22-0.03c-0.08-0.72-0.1-5.21,0.03-5.79c1.06-0.05,3.3,0.42,3.69-0.61 c0.18-0.47,0.1-7.45,0.09-8.53c-0.02-2-1.48-1.17-3.04-1.38c-0.93-1.41-0.59-1.55-2.33-3.5c-0.85-0.95-2.01-1.86-3.34-2.59 c-1.13-0.62-2.84-1.22-4.34-1.44c-2.86-0.42-4.07,0.28-5.53,0.38c-0.25-0.47-1.05-1.22-1.49-1.51c-0.25,0.11-0.05-0.03-0.33,0.22 c-0.33,0.29-0.52,0.77-1.08,0.71c-0.8-0.08-0.55-1.01-0.6-1.84l-2.8,0.01c-0.04,0.69,0.2,1.71-0.53,1.83 C11.2,9.47,11.09,8.65,10.42,8.43L10.42,8.43z M10.56,26.87c0.67-0.51,1.79-1.15,2.83-1.1l0.02,0.88l0.9,0l0.04-0.86 c0.82-0.1,2.54,0.64,2.83,1.2l-0.52,0.59c0.13,0.3,0.3,0.48,0.62,0.62l0.6-0.52c0.59,0.3,1.28,2,1.18,2.81l-0.87,0.04l0.03,0.89 l0.84,0.13c0,1.07-0.57,2.02-1.08,2.72c-0.39-0.07-0.38-0.25-0.74-0.52l-0.6,0.58l0.52,0.69c-0.46,0.59-1.97,1.23-2.8,1.17 l-0.1-0.91l-0.82,0.02l-0.05,0.85c-1.01,0.1-2.37-0.59-2.87-1.16l0.53-0.59c-0.15-0.33-0.32-0.49-0.66-0.63l-0.59,0.5 c-0.51-0.44-1.31-1.9-1.11-2.86l0.83-0.06l-0.01-0.84l-0.85-0.1c-0.04-0.88,0.57-2.33,1.15-2.76c0.44,0.2,0.33,0.35,0.73,0.51 l0.51-0.61C10.81,27.24,10.63,27.25,10.56,26.87L10.56,26.87z M10.42,9.75c0.28,0.09,1.21,1.05,2.33,0.22 c1.12-0.83-0.09-1.73,1.56-1.48c0.24,0.8,0.04,1.24,0.96,1.67c0.99,0.47,1.44-0.17,2.03-0.43l0.58,0.58 c-0.2,0.56-0.92,0.92-0.44,2.01c0.3,0.69,0.81,0.89,1.7,0.96l-0.04,0.92c-0.48,0.15-0.62-0.03-1.1,0.32 c-0.56,0.4-0.87,1.16-0.62,1.85c0.15,0.42,0.35,0.4,0.52,0.82l-0.62,0.58c-0.33-0.12-0.94-0.94-1.99-0.44 c-1,0.48-0.87,1.33-0.97,1.69l-0.92-0.02c-0.07-0.86-0.27-1.37-0.98-1.68c-0.73-0.32-1.45-0.05-1.85,0.47 c-0.34-0.14-0.48-0.31-0.69-0.62c0.24-0.58,0.87-1.01,0.41-2.01c-0.43-0.92-0.87-0.72-1.67-0.96c-0.25-1.67,0.7-0.41,1.53-1.62 c0.76-1.12-0.05-1.61-0.26-2.26C10.05,10.02,10.14,9.94,10.42,9.75L10.42,9.75z M29.66,26.63l0.01-8.53 c0.52-0.13,6.02-0.11,6.73-0.02l-0.01,8.57C35.69,26.74,30.19,26.76,29.66,26.63L29.66,26.63z M20.06,15.14 c-0.02-1.5-0.45-1.77,2.01-1.88c3.17-0.15,6.98,1.87,7.74,3.79c-0.38,0.2-0.78,0.06-1,0.59c-0.15,0.37-0.07,4.16-0.07,4.73 c0,1.09,0,2.18,0,3.27c-0.01,2.22,0.16,1.55,1.07,2.04c-0.2,0.5-1.54,1.92-2.08,2.01c-0.06-1.81-0.09-2.66-0.93-3.88 c-1.19-1.72-2.35-1.47-2.63-2.22c0.14-0.3-0.03-0.02,0.18-0.27c0.35-0.42,0.34-0.25,0.58-0.94c0.39-1.16,1.08-0.1,1.68-1.3 c0.41-0.83-0.18-1.14-0.05-1.85c0.15-0.81,0.34-1.04,0.07-1.95c-0.72-2.41-3.2-2.08-4.77-2.09c-0.73-0.01-1.43,0.02-1.99,0.28 c-0.64,0.3-0.89,0.82-1.28,0.96c-0.27-0.21-0.68-0.71-0.13-1.13C18.81,15.04,19.57,15.17,20.06,15.14L20.06,15.14z M15.26,19.94 c0.04-0.7-0.2-1.75,0.6-1.84c0.47-0.05,0.97,0.64,1.31,0.96c0.39-0.11,0.53-0.47,0.92-0.72l0.11,0.24 c0.56,1.43-0.09,1.01,0.01,2.03c0.13,1.41,1.49,1.02,1.66,1.39l0.1,0.22c0.52,1.39,0.53,0.76,0.82,1.36 c-0.19,0.49-0.43,0.43-0.84,0.63c-0.75,0.38-1.6,1.13-2.02,1.95c-1.29-0.43-0.66-1.04-4.19-1.42c-0.39-0.76-0.58-4.08,0-4.7 C14,19.82,14.81,19.94,15.26,19.94L15.26,19.94z M13.04,10.54c1.88-0.59,3.6,0.76,4.03,2.29c1.18,4.24-5.27,6.07-6.44,1.74 c-0.26-0.97-0.04-1.95,0.45-2.69C11.68,11,12.24,10.79,13.04,10.54L13.04,10.54z M33.17,17.11c-0.46,0.03-0.93,0.01-1.4,0.02 c-0.6,0.01-0.68,0.08-0.97-0.33c-2.17-3.08-5.3-4.74-9.33-4.42c-0.31,0.03-1.02,0.18-1.21,0.15c-0.54-0.09,0.31-0.17-1.15-0.19 c-1.05-0.01-1.15-0.9-0.48-1.29c0.94-0.55,3.54-0.73,4.87-0.63c1.56,0.12,3.14,0.62,4.31,1.21c1.16,0.59,2.43,1.47,3.22,2.3 C31.46,14.38,33.12,16.35,33.17,17.11L33.17,17.11z M13.54,11.37c1.27-0.23,2.56,0.78,2.69,2.02c0.16,1.47-0.82,2.6-2.03,2.74 C11.03,16.48,10.34,11.93,13.54,11.37L13.54,11.37z M19.31,18.99c-0.46-0.96-0.07-1.86,0.49-2.37c0.67-0.61,1.61-0.51,2.68-0.51 c1.14,0,2.06-0.11,2.73,0.56c0.68,0.68,0.7,1.25,0.48,2.35c-3.63,0.09-3.18-0.01-4.23-1.52l-0.83,0.21l0.29,0.88 C20.5,18.95,19.93,19.08,19.31,18.99L19.31,18.99z M10.5,22.37c0-0.81,0.2-3.87,1.03-4.21c1.11-0.46,0.91,1.34,0.93,1.45 c0.11,0.68,0.15,0.01,0.19,0.62c0.01,0.2-0.15,1.07-0.18,1.43c-0.09,1.34,0.13,2.02,0.24,3.23c-0.34,0.11-1.58,0.52-1.78,0.54 C10.59,24.82,10.5,23.21,10.5,22.37L10.5,22.37z M24.64,27.92c0.14-0.49,0.53-1.88,0.81-2.19c0.33,0.17,0.49,0.43,0.73,0.81 c0.23,0.36,0.38,0.69,0.48,1.07c0.2,0.74,0.31,2.11,0.08,2.79c-0.41,0.3-1.75,0.91-2.49,0.83l-0.61-3.08 c-0.09-0.41-0.23-0.69-0.03-1.03l0.33,0.23C24.26,27.64,24.19,27.75,24.64,27.92L24.64,27.92z M20.62,19.78 c1.11-0.32,0.5-0.65,1.68-0.08c0.67,0.32,1.19,0.22,1.98,0.26c0.06,0.39-0.1,1.61-0.18,2c-0.15,0.7-0.47,0.9-1.31,0.9 c-1.1,0-1.76,0.12-1.95-1.02C20.75,21.25,20.63,20.35,20.62,19.78L20.62,19.78z M11.19,28.88l0.56-0.52 c0.37,0.13,1.15,0.94,1.38,1.3c0.68-0.07,0.72-0.06,1.39-0.01l0.94-0.86l0.55,0.62c-0.49,0.82-0.88,0.48-0.79,1.25 c0.21,1.76-1.51,2.1-2.31,1.37c-0.51-0.47-0.44-0.88-0.41-1.69C12.15,29.82,11.47,29.41,11.19,28.88L11.19,28.88z M20.72,31.22 c-0.96,0.11-0.6-0.53-0.74-1.37c-0.3-1.7-1.26-2.56-1.3-2.89c-0.06-0.52,0.52-1.08,0.92-1.26l0.73,2.22 c0.62-0.24,0.5-0.69,1.2-0.79L20.72,31.22L20.72,31.22z M13.4,12.42c1.8-0.64,2.63,2.03,0.97,2.65 C12.56,15.74,11.64,13.05,13.4,12.42L13.4,12.42z M30.63,21.87l0.06-0.9c0.72-0.03,4.22-0.09,4.71,0.04l-0.01,0.78 C34.88,21.99,31.42,21.91,30.63,21.87L30.63,21.87z M30.66,23.77l-0.01-0.9c0.77-0.04,4.23-0.13,4.75,0.08l-0.02,0.83L30.66,23.77 L30.66,23.77z M30.63,19.93l0.04-0.9l4.69,0.01l0,0.91L30.63,19.93L30.63,19.93z M30.65,25.7l0-0.91l4.74,0.02l-0.05,0.9 L30.65,25.7L30.65,25.7z M21.7,31.42c-0.05-0.5,0.22-1.39,0.3-1.84c0.06-0.34,0.12-0.67,0.18-0.98c0.03-0.14,0.07-0.4,0.1-0.52 l0.15-0.3c0.01-0.04,0.03-0.05,0.05-0.07c0.34,0.45,0.81,3.42,0.78,3.74L21.7,31.42L21.7,31.42z M33.01,35.78l-0.3-0.33 c-0.08-0.11-0.15-0.23-0.24-0.37c-0.14-0.22-0.32-0.43-0.39-0.75l1.88,0C33.88,34.77,33.3,35.59,33.01,35.78L33.01,35.78z M20.45,25.03c0.46-0.39,0.87,0,1.23,0.26c-0.2,0.39-0.55,0.79-0.96,0.88C20.59,25.77,20.43,25.45,20.45,25.03L20.45,25.03z M23.3,25.33c0.36-0.45,0.62-0.59,1.21-0.31c0.01,0.43-0.15,0.77-0.27,1.14C23.85,26.08,23.49,25.67,23.3,25.33L23.3,25.33z M21.72,23.9c0.29-0.16,0.35-0.12,0.77-0.12c0.3,0,0.48,0,0.78,0.05c0.05,0.39-0.1,0.52-0.78,0.81 C21.74,24.32,21.75,24.25,21.72,23.9L21.72,23.9z M14.24,14.13c-0.81,0.28-1.09-0.37-0.73-0.73 C13.88,13.04,14.53,13.31,14.24,14.13L14.24,14.13z M13.49,31.36c-0.26-0.69,0.09-0.99,0.76-0.76 C14.48,31.29,14.21,31.61,13.49,31.36z"></path> </g> </svg>