<svg xmlns="http://www.w3.org/2000/svg" id="Layer_1" data-name="Layer 1" viewBox="0 0 90 90"><defs><style>.cls-1{fill:#fff;}.cls-2{fill:#083264;}</style></defs><circle class="cls-1" cx="45" cy="45" r="45"></circle><path class="cls-2" d="M63.13,67.59a22.26,22.26,0,0,0-1.72-7.28,13.79,13.79,0,0,0-6.69-7.5c-3.07-1.52-6.25-2.79-9.43-4.05-.15-.06-.3-.13-.4,0a15.44,15.44,0,0,0-1.25,1.75c-1.16,2.8-2.34,5.59-3.52,8.39-.21.51-.21.51-.56.06-1.19-1.54-2.39-3.07-3.57-4.61-.18-.23-.28-.28-.47,0s-.53.71-.8,1.06l-3.07,4-.24-.51c-.67-1.6-1.31-3.21-2-4.79S28.15,50.5,26.85,49c-.24-.27-.39-.36-.74-.22-3,1.2-6,2.46-8.92,3.83a12.51,12.51,0,0,0-4.91,3.91A20.64,20.64,0,0,0,8.4,68.31a1,1,0,0,0,.66,1c.81.34,1.62.65,2.45.91A57.11,57.11,0,0,0,23,72.33a133.83,133.83,0,0,0,16.87.54,96.22,96.22,0,0,0,15.61-1.54,35,35,0,0,0,7-2,1.07,1.07,0,0,0,.76-1.14C63.14,68,63.14,67.79,63.13,67.59ZM26.19,53c-.35.17-.75.21-1,.54-1.53.79-3.14,1.44-4.71,2.17q-1.77.82-3.57,1.62a1,1,0,0,1-1.46-.52v-.87c.08-.37.37-.52.66-.65,2.93-1.34,5.85-2.67,8.79-4,.77-.35,1.4-.12,1.63.56A1.2,1.2,0,0,1,26.19,53Zm28.47,4.34c-1.25-.55-2.48-1.12-3.72-1.68l-5.2-2.36A1.17,1.17,0,0,1,45,52a1.06,1.06,0,0,1,1.6-.77L52,53.73l3.49,1.59a1.07,1.07,0,0,1,.71.89A1.09,1.09,0,0,1,54.66,57.34Z" transform="translate(0 0)"></path><path class="cls-2" d="M22.65,36.2a5.68,5.68,0,0,1,.25-2,1.38,1.38,0,0,1,.47-.78,1.16,1.16,0,0,0,.49-1.17c0-.45-.21-1.08.1-1.3s.8.23,1.21.37a31,31,0,0,0,15.77,1.48A32.08,32.08,0,0,0,47.16,31c.4-.16.6-.17.54.34a4.21,4.21,0,0,0,0,.71c0,.53-.05,1,.5,1.43a2.21,2.21,0,0,1,.65,1.67,9.81,9.81,0,0,1-2.28,7.38A10.4,10.4,0,0,0,45,45.4a11.22,11.22,0,0,1-3.77,5.07,8.58,8.58,0,0,1-11.3-.39,12.27,12.27,0,0,1-3.64-5.59,3.28,3.28,0,0,0-.69-1.22A10.51,10.51,0,0,1,22.65,36.2Z" transform="translate(0 0)"></path><path class="cls-2" d="M50.23,25.46A6.59,6.59,0,0,0,49,22.59a14.8,14.8,0,0,0-5.48-4.41,15.93,15.93,0,0,0-13-1,16.82,16.82,0,0,0-7.49,5,6.59,6.59,0,0,0-1.7,4.15c0,.17,0,.4.07.64a3.17,3.17,0,0,0,.12.44c.1.43.27.51.71.29a31.77,31.77,0,0,1,11.57-3.17,30.68,30.68,0,0,1,15.15,2.91c1.18.53,1.29.47,1.43-.85A4.28,4.28,0,0,0,50.23,25.46ZM35.78,22.92a3.1,3.1,0,1,1,3.1-3.14A3.1,3.1,0,0,1,35.78,22.92Z" transform="translate(0 0)"></path><path class="cls-2" d="M49.31,28.63a30.87,30.87,0,0,1-15,3.24,31.55,31.55,0,0,1-12-3.25A29.61,29.61,0,0,1,49.31,28.63Z" transform="translate(0 0)"></path><path class="cls-2" d="M46,33c.1,0,.18,0,.16.11a.38.38,0,0,1-.15.18c-.07,0-.08,0-.08-.09S45.92,33,46,33Z" transform="translate(0 0)"></path><path class="cls-2" d="M13.44,58v.88A2,2,0,0,1,13.44,58Z" transform="translate(0 0)"></path><path class="cls-2" d="M24.19,55.07c-.29.25-.7.29-1,.53C23.44,55.27,23.85,55.23,24.19,55.07Z" transform="translate(0 0)"></path><path class="cls-2" d="M24.19,55.07a1.88,1.88,0,0,1-1,.53C23.44,55.27,23.85,55.23,24.19,55.07Z" transform="translate(0 0)"></path><path class="cls-2" d="M13.45,58.88a.82.82,0,0,1,0-.88Z" transform="translate(0 0)"></path><path class="cls-2" d="M77.9,34a7.94,7.94,0,0,0-5.81-6.5,8.16,8.16,0,0,0-8.54,2.25.89.89,0,0,1-.7.3h-7.6a1.71,1.71,0,0,0-.64.09A1.1,1.1,0,0,0,54,31.4a1.08,1.08,0,0,0,1.11.87H61.9a8.25,8.25,0,0,0-.54,1.89c0,.26-.14.31-.37.3H56.71a2.42,2.42,0,0,0-.47,0,1.09,1.09,0,0,0-.5,1.85,1.17,1.17,0,0,0,.88.3H61c.16,0,.32,0,.35.21a7.72,7.72,0,0,0,.55,2H55.14a1.12,1.12,0,0,0-1.2,1A1.08,1.08,0,0,0,55.13,41h7.74a.82.82,0,0,1,.65.28,8.15,8.15,0,0,0,7.32,2.56A8.35,8.35,0,0,0,77.9,34Zm-4.65-.15-1.6,1.39a.47.47,0,0,0-.19.37,1.83,1.83,0,0,1-3.65-.13,1.8,1.8,0,0,1,2-1.75.45.45,0,0,0,.39-.12l1.6-1.39a1.1,1.1,0,1,1,1.46,1.63Z" transform="translate(0 0)"></path><path class="cls-2" d="M69.65,16.21c1,0,2,0,2.94,0a2.54,2.54,0,0,1,2.52,2.29,2.67,2.67,0,0,1-2,3.11,6.75,6.75,0,0,1-1.74.07c-.28,0-.34.09-.33.35,0,.44,0,.89,0,1.33,0,.19.06.25.25.27a12,12,0,0,1,6.19,2.83c.18.16.27.16.42,0s.56-.58.85-.85c.11-.11.13-.18,0-.3s-.45-.42-.66-.65a1.09,1.09,0,0,1,1.54-1.55c1,1,2.1,2.08,3.13,3.13a1.07,1.07,0,0,1,0,1.56,1.08,1.08,0,0,1-1.54,0c-.2-.19-.41-.39-.6-.6s-.2-.13-.32,0c-.3.32-.62.64-.94,1-.14.13-.14.21,0,.36a11.24,11.24,0,0,1,2.17,5.14,11.77,11.77,0,0,1-4.22,11.25,11.63,11.63,0,0,1-8.54,2.75,11.8,11.8,0,0,1-6-2.11A1.11,1.11,0,0,1,62.47,44,1.09,1.09,0,0,1,64,43.68a10.54,10.54,0,0,0,3.68,1.57,9.87,9.87,0,0,0,4-19.32,9.55,9.55,0,0,0-7.55,1.45,1.27,1.27,0,0,1-1,.27,1,1,0,0,1-.84-.81,1,1,0,0,1,.44-1.17A12,12,0,0,1,66.13,24,11.52,11.52,0,0,1,68,23.63c.17,0,.23-.07.23-.25q0-.73,0-1.47c0-.2-.08-.22-.25-.22a14.42,14.42,0,0,1-1.47,0,2.51,2.51,0,0,1-2.28-2.15,2.74,2.74,0,0,1,1.39-3,2.62,2.62,0,0,1,1.23-.26Z" transform="translate(0 0)"></path></svg>