<svg xmlns="http://www.w3.org/2000/svg" xmlns:xlink="http://www.w3.org/1999/xlink" id="Layer_1" x="0px" y="0px" viewBox="0 0 45 45" style="enable-background:new 0 0 45 45;" xml:space="preserve"> <style type="text/css"> .st0{fill-rule:evenodd;clip-rule:evenodd;fill:#FFFFFF;} .st1{fill-rule:evenodd;clip-rule:evenodd;fill:#0A2852;} </style> <g> <circle class="st0" cx="22.5" cy="22.5" r="22.5"></circle> <path class="st1" d="M22.03,10.01c-6.5,0.18-11.74,5.45-12.03,12l-1.41,0.05l-0.01,0.87l1.4,0.02c0.24,1.97,0.4,3.29,1.19,4.84 c1.42,2.78,3.18,4.68,6.01,6.04c1.68,0.8,2.88,0.95,4.85,1.18l0.02,1.38l0.87,0.01l0.04-1.41C29.69,34.55,34.57,29.79,35,23 l1.4-0.07l0.02-0.87l-1.42-0.04C34.76,15.42,29.43,10.23,23,10l-0.06-1.4l-0.87-0.02L22.03,10.01L22.03,10.01z M10.88,22.03 c-0.01-1.32,0.55-3.39,1.09-4.48c0.71-1.44,1.27-2.18,2.32-3.26c1.81-1.86,5.1-3.53,7.75-3.4l0.04,1.36l0.86-0.01l0.04-1.35 c1.84-0.13,4.77,1,6.28,2.14c1.62,1.22,2.87,2.6,3.79,4.56c0.5,1.05,1.09,3.07,1.1,4.44l-1.4,0.05l0.01,0.86l1.35,0.04 c0.05,1.41-0.59,3.45-1.08,4.47c-0.88,1.84-2.28,3.46-3.83,4.55c-1.61,1.13-4.14,2.18-6.24,2.12l-0.03-1.37l-0.86,0.01l-0.07,1.39 c-1.29,0-3.41-0.6-4.45-1.11c-1.33-0.66-2.32-1.37-3.26-2.32c-0.87-0.88-1.75-2.03-2.32-3.26c-0.48-1.05-1.13-3.05-1.08-4.5 l1.84-0.04l-0.01-0.85L10.88,22.03L10.88,22.03z M20.38,17.86c-0.08-0.33-0.51-0.68-0.59-1.39c-0.38-3.31,3.73-4.36,5.13-1.81 c0.77,1.42,0.07,2.35-0.27,3.12c0.39,0.36,0.68,0.13,1.29,0.74c0.45,0.45,0.45,0.65,0.7,1.23c1.05,0.12,2.01-0.07,2.89,1.36 c1.01,1.63-0.19,2.89-0.23,3.24c0.61,0.29,1.35,0.31,1.8,1.45c0.2,0.51,0.32,2.34,0.13,2.95c-0.35,0.36-1.37,0.22-2.01,0.22 l-4.33,0c-1.1,0-1.38,0.14-1.9-0.23c-0.24-2.59-0.06-3.7,1.99-4.36c-0.07-0.37-0.29-0.5-0.41-0.86c-0.09-0.26-0.1-0.79-0.24-1 c-0.24-0.15-3.22-0.11-3.71-0.04c-0.24,1.79-0.48,1.18-0.61,1.9c0.79,0.25,1.23,0.38,1.66,1.11c0.44,0.75,0.35,1.36,0.35,2.35 c0.01,1.4-0.14,1.13-1.54,1.13c-0.9,0-1.8,0-2.71,0c-4.43,0-4.07,0.36-4.06-1.29c0-1.03-0.1-1.55,0.39-2.29 c0.32-0.49,0.64-0.7,1.2-0.88l0.4-0.23c-0.24-0.57-0.56-0.73-0.61-1.55c-0.04-0.63,0.09-1.2,0.4-1.67c0.7-1.06,1.33-1.29,2.85-1.32 c0.31-0.65,0.25-0.77,0.75-1.25C19.68,17.95,19.83,18.15,20.38,17.86L20.38,17.86z M23.89,28.08c-0.22-3.02,0.55-2.84,3.25-2.83 c1.22,0,3.15-0.33,3.26,1.34c0.03,0.44,0.07,1.07-0.05,1.43c-0.08,0.04-0.03,0.03-0.2,0.06c-0.08,0.02-0.14,0.02-0.23,0.02 L23.89,28.08L23.89,28.08z M14.6,28.07c-0.17-2.41,0.19-2.82,2.33-2.82c3.31,0,4.44-0.48,4.18,2.85L14.6,28.07L14.6,28.07z M19.27,20.1c-0.04-0.75,0.6-1.26,1.21-1.34l3.56-0.01c0.91,0,1.75,0.41,1.67,1.35c-0.7,0.62-0.82,0.62-1.19,1.49 c-5,0.04-3.54,0.32-4.57-0.89C19.7,20.4,19.59,20.4,19.27,20.1L19.27,20.1z M26.73,20.68c2.3-0.61,3.31,3.06,0.84,3.65 C25.23,24.89,24.23,21.34,26.73,20.68L26.73,20.68z M22.04,14.21c1.05-0.37,2.03,0.45,2.27,1.31c0.66,2.32-2.93,3.4-3.63,0.98 c-0.18-0.62-0.02-1.13,0.24-1.53C21.25,14.48,21.46,14.41,22.04,14.21L22.04,14.21z M17.51,20.67c1.06-0.25,2.01,0.55,2.19,1.47 c0.21,1.09-0.53,2.01-1.49,2.21C15.9,24.82,14.95,21.26,17.51,20.67L17.51,20.67z M35.51,35.5l0.03-4.15l0.83,0.01 c0.11,0.56,0.04,1.88,0.04,2.51c0,0.52,0.14,2.12-0.14,2.4c-0.26,0.27-4.65,0.16-4.93,0.1l0.02-0.86L35.51,35.5L35.51,35.5z M13.64,36.38c-0.62,0.11-1.83,0.04-2.52,0.04c-3.03,0-2.55,0.4-2.54-2.54c0-0.71-0.07-1.87,0.03-2.53l0.86,0.02l0.02,4.15 l4.15,0.03L13.64,36.38L13.64,36.38z M31.34,9.45l0-0.84c0.32-0.06,4.68-0.15,4.92,0.1c0.25,0.26,0.17,4.58,0.1,4.93l-0.86-0.02 L35.5,9.48L31.34,9.45L31.34,9.45z M8.58,10.05c0-1.62-0.07-1.46,1.54-1.46l3.53,0.04l-0.02,0.85L9.48,9.5l-0.03,4.15L8.6,13.64 L8.58,10.05z"></path> </g> </svg>