<svg id="Layer_1" data-name="Layer 1" xmlns="http://www.w3.org/2000/svg" viewBox="0 0 96.61 93.13"><defs><style>.cls-1{fill:#083264;}</style></defs><path class="cls-1" d="M52.69,21.14a7.27,7.27,0,0,1-.18-1.73,9.5,9.5,0,0,1,7.11-9.28c.64-.16,1,0,1,.55s-.15.63-.66.76a7.41,7.41,0,0,0-3.18,1.62,8,8,0,0,0-2.8,7.8c.09.52-.11.9-.55,1S52.79,21.63,52.69,21.14Z" transform="translate(-1.7 -3.43)"/><path class="cls-1" d="M60.55,13.91c.66-.17,1.09.11,1,.69,0,.41-.32.54-.66.64A4.19,4.19,0,0,0,58,18a4.31,4.31,0,0,0-.14,2.14c.08.5-.11.78-.51.85a.62.62,0,0,1-.79-.49,4.86,4.86,0,0,1-.14-1.2A5.72,5.72,0,0,1,60.55,13.91Z" transform="translate(-1.7 -3.43)"/><path class="cls-1" d="M75.11,32.4a2.51,2.51,0,1,0,2.51,2.49A2.5,2.5,0,0,0,75.11,32.4Zm0,3.66A1.13,1.13,0,0,1,74,34.9a1.12,1.12,0,0,1,1.13-1.14,1.15,1.15,0,0,1-.05,2.3Z" transform="translate(-1.7 -3.43)"/><path class="cls-1" d="M77.63,24c0-1.42,0-2.84,0-4.25a2.41,2.41,0,0,0-2.85-2.15,2.49,2.49,0,0,0-2.08,2.62c0,2.74,0,5.48,0,8.23a4.44,4.44,0,0,0,0,.63,2.48,2.48,0,0,0,4.93-.51c0-1.39,0-2.78,0-4.16Zm-1.37,4.57a1.12,1.12,0,0,1-1.48,1.19,1.08,1.08,0,0,1-.74-.89,3.76,3.76,0,0,1,0-.58V20.45c0-.11,0-.21,0-.32a1.13,1.13,0,1,1,2.25,0c0,1.41,0,2.83,0,4.25S76.28,27.16,76.26,28.55Z" transform="translate(-1.7 -3.43)"/><path class="cls-1" d="M88.68,14.66a.67.67,0,0,1,.9-.77,5.52,5.52,0,0,1,3.68,3,5.65,5.65,0,0,1,.6,2.47,5.17,5.17,0,0,1-.14,1.22.6.6,0,0,1-.73.51.63.63,0,0,1-.58-.73,4.94,4.94,0,0,0-.06-2.06,4.21,4.21,0,0,0-3-3C89.07,15.15,88.74,15.07,88.68,14.66Z" transform="translate(-1.7 -3.43)"/><path class="cls-1" d="M93.41,41.8a3.38,3.38,0,0,1-.45,0H57.17c-1,0-1.63-.49-1.71-1.35a1.7,1.7,0,0,1,.3-1q2.31-4.06,4.63-8.14l1.83-3.2.12-.22,3.09-5.42L73.77,7.79a1.54,1.54,0,0,1,1.12-.88,1.44,1.44,0,0,1,1.59.85l4.43,7.76L91.2,33.6c.35.63.33,1-.08,1.26s-.75,0-1.11-.59L75.41,8.62c-.07-.13-.11-.34-.26-.35s-.21.23-.29.36L63.43,28.71l-.13.23L61.38,32.3,57,40c-.26.45-.25.45.25.45H93c.5,0,.5,0,.24-.45-.4-.72-.82-1.44-1.22-2.16-.25-.45-.18-.79.2-1a.66.66,0,0,1,1,.33c.47.81.94,1.61,1.39,2.43A1.45,1.45,0,0,1,93.41,41.8Z" transform="translate(-1.7 -3.43)"/><path class="cls-1" d="M89.62,10.56c.12-.43.46-.58,1-.43a9.34,9.34,0,0,1,4.62,2.77,9.5,9.5,0,0,1,2.5,6.41,8.33,8.33,0,0,1-.18,1.8c-.11.56-.37.79-.79.7s-.64-.43-.54-1A8.13,8.13,0,0,0,91,11.66c-.23-.08-.46-.15-.7-.21C89.72,11.29,89.5,11,89.62,10.56Z" transform="translate(-1.7 -3.43)"/><path class="cls-1" d="M98.3,41.13c-.15.12-.13.32-.17.48a4.94,4.94,0,0,1-4.64,3.7H57.11a5,5,0,0,1-5-3.83,4.89,4.89,0,0,1,.56-3.66l4.2-7.38c.69-1.2,1.37-2.4,2.05-3.6l.12-.21,2.2-3.87L67.94,11c.14-.24.25-.5.55-.57a.7.7,0,0,1,.72.28.66.66,0,0,1,0,.8c-.73,1.28-1.47,2.56-2.19,3.84Q63.71,21.17,60.42,27a2.12,2.12,0,0,0-.11.21h0c-.63,1.11-1.26,2.23-1.9,3.34q-2.26,4-4.56,8a3.65,3.65,0,0,0,2.3,5.39,4.72,4.72,0,0,0,1,.07h9c9,0,18,0,27,0A3.69,3.69,0,0,0,97,40.17a4,4,0,0,0-.57-1.74L82.09,13.33c-1.25-2.2-2.51-4.39-3.75-6.59a3.48,3.48,0,0,0-3.19-1.93,3.44,3.44,0,0,0-3.22,2l-.85,1.49c-.25.41-.58.52-.94.31a.66.66,0,0,1-.23-1c.31-.57.63-1.13,1-1.69a4.93,4.93,0,0,1,8.52,0c1.79,3.07,3.53,6.17,5.28,9.25Q91.1,26.42,97.53,37.69a8.46,8.46,0,0,1,.77,2c-.17,0-.18-.13-.2-.24a7.05,7.05,0,0,0-1-2.22l-7.23-12.7-7-12.38C81.66,10.09,80.51,8,79.33,6A4.53,4.53,0,0,0,75.07,3.6,4.58,4.58,0,0,0,70.94,6c-.23.39-.45.79-.67,1.18A3.67,3.67,0,0,0,70,7.7a.52.52,0,0,0,.24.73.49.49,0,0,0,.7-.21c.3-.46.56-.93.82-1.41a3.72,3.72,0,0,1,6.54-.36C79.88,9.19,81.44,12,83,14.7l5.35,9.39c2.75,4.85,5.55,9.68,8.27,14.56a3.71,3.71,0,0,1-3.2,5.42q-13.65,0-27.3,0H62.21l-5.34,0a3.74,3.74,0,0,1-3.17-5.54c1.51-2.68,3-5.35,4.56-8l1.92-3.36.12-.21,2.19-3.85C64.4,19.73,66.3,16.37,68.22,13c.31-.52.61-1,.88-1.58a.55.55,0,1,0-.94-.56c-.06.08-.1.16-.15.23l-1.16,2.05q-3.07,5.39-6.13,10.77c-.52.91-1,1.82-1.55,2.73l-.12.21-2,3.58q-2.11,3.72-4.24,7.44a4.91,4.91,0,0,0,2.15,6.87,4.25,4.25,0,0,0,1.79.4H93.54a4.69,4.69,0,0,0,4.3-3.08c.08-.22.15-.45.23-.68S98.11,41.12,98.3,41.13Z" transform="translate(-1.7 -3.43)"/><path class="cls-1" d="M98.3,39.86a2.41,2.41,0,0,0,0,1v.27c-.15.12-.13.32-.17.48a4.94,4.94,0,0,1-4.64,3.7H57.11a5,5,0,0,1-5-3.83,4.89,4.89,0,0,1,.56-3.66l4.2-7.38c.69-1.2,1.37-2.4,2.05-3.6l.12-.21,2.2-3.87L67.94,11c.14-.24.25-.5.55-.57a.7.7,0,0,1,.72.28.66.66,0,0,1,0,.8c-.73,1.28-1.47,2.56-2.19,3.84Q63.71,21.17,60.42,27a2.12,2.12,0,0,0-.11.21h0c-.63,1.11-1.26,2.23-1.9,3.34q-2.26,4-4.56,8a3.65,3.65,0,0,0,2.3,5.39,4.72,4.72,0,0,0,1,.07h9c9,0,18,0,27,0A3.69,3.69,0,0,0,97,40.17a4,4,0,0,0-.57-1.74L82.09,13.33c-1.25-2.2-2.51-4.39-3.75-6.59a3.48,3.48,0,0,0-3.19-1.93,3.44,3.44,0,0,0-3.22,2l-.85,1.49c-.25.41-.58.52-.94.31a.66.66,0,0,1-.23-1c.31-.57.63-1.13,1-1.69a4.93,4.93,0,0,1,8.52,0c1.79,3.07,3.53,6.17,5.28,9.25Q91.1,26.42,97.53,37.69a8.46,8.46,0,0,1,.77,2Z" transform="translate(-1.7 -3.43)"/><path class="cls-1" d="M98.3,40.86a1.2,1.2,0,0,1,0-1Z" transform="translate(-1.7 -3.43)"/><path class="cls-1" d="M93.41,41.8a3.38,3.38,0,0,1-.45,0H57.17c-1,0-1.63-.49-1.71-1.35a1.7,1.7,0,0,1,.3-1q2.31-4.06,4.63-8.14l1.83-3.2.12-.22,3.09-5.42L73.77,7.79a1.54,1.54,0,0,1,1.12-.88,1.44,1.44,0,0,1,1.59.85l4.43,7.76L91.2,33.6c.35.63.33,1-.08,1.26s-.75,0-1.11-.59L75.41,8.62c-.07-.13-.11-.34-.26-.35s-.21.23-.29.36L63.43,28.71l-.13.23L61.38,32.3,57,40c-.26.45-.25.45.25.45H93c.5,0,.5,0,.24-.45-.4-.72-.82-1.44-1.22-2.16-.25-.45-.18-.79.2-1a.66.66,0,0,1,1,.33c.47.81.94,1.61,1.39,2.43A1.45,1.45,0,0,1,93.41,41.8Z" transform="translate(-1.7 -3.43)"/><path class="cls-1" d="M77.63,24c0-1.42,0-2.84,0-4.25a2.41,2.41,0,0,0-2.85-2.15,2.49,2.49,0,0,0-2.08,2.62c0,2.74,0,5.48,0,8.23a4.44,4.44,0,0,0,0,.63,2.48,2.48,0,0,0,4.93-.51c0-1.39,0-2.78,0-4.16Zm-1.37,4.57a1.12,1.12,0,0,1-1.48,1.19,1.08,1.08,0,0,1-.74-.89,3.76,3.76,0,0,1,0-.58V20.45c0-.11,0-.21,0-.32a1.13,1.13,0,1,1,2.25,0c0,1.41,0,2.83,0,4.25S76.28,27.16,76.26,28.55Z" transform="translate(-1.7 -3.43)"/><path class="cls-1" d="M60,11.44a7.41,7.41,0,0,0-3.18,1.62,8,8,0,0,0-2.8,7.8c.09.52-.11.9-.55,1s-.68-.2-.78-.69a7.27,7.27,0,0,1-.18-1.73,9.5,9.5,0,0,1,7.11-9.28c.64-.16,1,0,1,.55S60.51,11.31,60,11.44Z" transform="translate(-1.7 -3.43)"/><path class="cls-1" d="M97.59,21.11c-.11.56-.37.79-.79.7s-.64-.43-.54-1A8.13,8.13,0,0,0,91,11.66c-.23-.08-.46-.15-.7-.21-.6-.16-.82-.43-.7-.89s.46-.58,1-.43a9.34,9.34,0,0,1,4.62,2.77,9.5,9.5,0,0,1,2.5,6.41A8.33,8.33,0,0,1,97.59,21.11Z" transform="translate(-1.7 -3.43)"/><path class="cls-1" d="M75.11,32.4a2.51,2.51,0,1,0,2.51,2.49A2.5,2.5,0,0,0,75.11,32.4Zm0,3.66A1.13,1.13,0,0,1,74,34.9a1.12,1.12,0,0,1,1.13-1.14,1.15,1.15,0,0,1-.05,2.3Z" transform="translate(-1.7 -3.43)"/><path class="cls-1" d="M93.86,19.32a5.17,5.17,0,0,1-.14,1.22.6.6,0,0,1-.73.51.63.63,0,0,1-.58-.73,4.94,4.94,0,0,0-.06-2.06,4.21,4.21,0,0,0-3-3c-.32-.1-.65-.18-.71-.59a.67.67,0,0,1,.9-.77,5.52,5.52,0,0,1,3.68,3A5.65,5.65,0,0,1,93.86,19.32Z" transform="translate(-1.7 -3.43)"/><path class="cls-1" d="M61.59,14.6c0,.41-.32.54-.66.64A4.19,4.19,0,0,0,58,18a4.31,4.31,0,0,0-.14,2.14c.08.5-.11.78-.51.85a.62.62,0,0,1-.79-.49,4.86,4.86,0,0,1-.14-1.2,5.72,5.72,0,0,1,4.14-5.43C61.21,13.74,61.64,14,61.59,14.6Z" transform="translate(-1.7 -3.43)"/><path class="cls-1" d="M57.9,28.65l.12,0-.11.2h0l-.12,0a7.91,7.91,0,0,0-1.07-.25l-.12,0a8.15,8.15,0,0,0-1.22-.09c-1.94,0-3.88,0-5.83,0-1.08,0-1.22-.16-1.23-1.26,0-.53,0-1.07,0-1.61a1.57,1.57,0,0,0-1.73-1.72c-1.51,0-3-.05-4.52,0a1.79,1.79,0,0,1-1.89-1.18A7.92,7.92,0,0,0,33,18.22,8.23,8.23,0,0,0,24.65,23a1.37,1.37,0,0,1-1.4.84H18.88c-1.51,0-2,.52-2,2,0,.46,0,.92,0,1.38,0,1-.17,1.17-1.16,1.18-2,0-4,0-6,0A7.76,7.76,0,0,0,2.05,35,8.73,8.73,0,0,0,2,36.49V89.13a6.86,6.86,0,0,0,4.86,6.72,6.82,6.82,0,0,1,1.45.47.24.24,0,0,1,.08.1v0a.23.23,0,0,1,0,.11.35.35,0,0,0,0-.14,7.4,7.4,0,0,1-6.6-7.3c.05-17.62,0-35.25,0-52.88a7.9,7.9,0,0,1,7.82-8c2.12,0,4.25,0,6.37,0,.67,0,.82-.19.77-.81s0-1.28,0-1.92c0-1.29.52-1.88,1.83-1.92,1.66-.06,3.33,0,5,0a.85.85,0,0,0,.92-.57,8.23,8.23,0,0,1,8-5.05c3.77,0,6.66,1.53,8.22,5.13a.71.71,0,0,0,.81.48c1.54,0,3.07,0,4.61,0a3.86,3.86,0,0,1,1.43.19,1.47,1.47,0,0,1,1,1.46c0,.74,0,1.48,0,2.22s.1.82.77.81c2-.05,4,0,6,0a8.93,8.93,0,0,1,1.47.12l.12,0A8.8,8.8,0,0,1,57.9,28.65Z" transform="translate(-1.7 -3.43)"/><path class="cls-1" d="M63.47,89.13a7.39,7.39,0,0,1-6.61,7.3l0,.14a.52.52,0,0,1,0-.11,0,0,0,0,1,0,0,.13.13,0,0,1,.08-.1,13.51,13.51,0,0,0,3.3-1.41,6.61,6.61,0,0,0,3-5.64q0-21.59,0-43.16v-1.3h.24v1.3Q63.44,67.63,63.47,89.13Z" transform="translate(-1.7 -3.43)"/><path class="cls-1" d="M11.65,50.45a1.86,1.86,0,0,1-.38-2.19,1.74,1.74,0,0,1,1.73-1,1.88,1.88,0,0,1,1.35.68c.67.7,1.37,1.38,2,2.11.32.36.5.33.84,0,1.78-1.72,3.58-3.43,5.38-5.13a1.84,1.84,0,0,1,2.36-.41,1.78,1.78,0,0,1,.45,2.91c-2.44,2.37-4.92,4.7-7.4,7a1.69,1.69,0,0,1-2.48,0Q13.56,52.45,11.65,50.45Z" transform="translate(-1.7 -3.43)"/><path class="cls-1" d="M11.72,65.49a2,2,0,0,1-.07-2.81,1.87,1.87,0,0,1,2.73.25c.68.69,1.37,1.38,2,2.11.3.34.47.29.78,0,1.78-1.72,3.57-3.44,5.37-5.14a1.93,1.93,0,0,1,2.63-.28,1.75,1.75,0,0,1,.23,2.74c-2.45,2.37-4.92,4.69-7.39,7a1.69,1.69,0,0,1-1.27.49,1.66,1.66,0,0,1-1.34-.59C14.17,68,12.93,66.77,11.72,65.49Z" transform="translate(-1.7 -3.43)"/><path class="cls-1" d="M25.36,74.76a1.7,1.7,0,0,1,.09,2.53q-3.72,3.6-7.51,7.12a1.69,1.69,0,0,1-2.48-.11C14.2,83,13,81.74,11.71,80.46a2.07,2.07,0,0,1-.62-1.61,1.68,1.68,0,0,1,1-1.49,1.77,1.77,0,0,1,2.05.34c.74.71,1.46,1.44,2.14,2.21.35.39.56.41.95,0,1.77-1.73,3.57-3.43,5.38-5.14A1.85,1.85,0,0,1,25.36,74.76Z" transform="translate(-1.7 -3.43)"/><path class="cls-1" d="M54.07,65.48a1.84,1.84,0,0,1-2,2.07H41.49c-3.55,0-7.11,0-10.66,0A1.85,1.85,0,0,1,29,65a1.81,1.81,0,0,1,1.81-1.17H51.88C53.18,63.83,54,64.43,54.07,65.48Z" transform="translate(-1.7 -3.43)"/><path class="cls-1" d="M28.87,50.89a1.85,1.85,0,0,1,2-2H52a1.88,1.88,0,0,1,2.09,1.85,1.8,1.8,0,0,1-1.51,1.84,4.9,4.9,0,0,1-.77.05H31.1C29.75,52.59,29,52,28.87,50.89Z" transform="translate(-1.7 -3.43)"/><path class="cls-1" d="M54.08,80.71a1.8,1.8,0,0,1-1.44,1.75,4.67,4.67,0,0,1-.91.08H31.17c-1.43,0-2.26-.64-2.31-1.78a1.88,1.88,0,0,1,2.12-2c3.5,0,7,0,10.51,0s7,0,10.5,0A1.88,1.88,0,0,1,54.08,80.71Z" transform="translate(-1.7 -3.43)"/><path class="cls-1" d="M63.44,46.12v-1.3H59.72v1.3q0,21.43,0,42.87a3.53,3.53,0,0,1-3.21,3.73,7.83,7.83,0,0,1-1.37.11H10a6,6,0,0,1-2.26-.35,3.36,3.36,0,0,1-2.32-3.42V36.5A4.2,4.2,0,0,1,9.88,32c2,0,4,0,6.06,0,.56,0,.77.1.74.71-.05,1.2,0,2.4,0,3.6a2,2,0,0,0,2.2,2.25H46.19a2.06,2.06,0,0,0,2.3-2.32c0-1.21,0-2.41,0-3.61,0-.44.07-.63.58-.63,1.86,0,3.72,0,5.58,0h.78a4.56,4.56,0,0,1,.54,0h.13c.61-1.05,1.21-2.11,1.81-3.17h0l.11-.2-.12,0a8.8,8.8,0,0,0-1.07-.25l-.12,0a8.93,8.93,0,0,0-1.47-.12c-2,0-4,0-6,0-.67,0-.81-.2-.77-.81s0-1.48,0-2.22a1.47,1.47,0,0,0-1-1.46A3.86,3.86,0,0,0,46,23.6c-1.54,0-3.07,0-4.61,0a.71.71,0,0,1-.81-.48C39.05,19.52,36.16,18,32.39,18a8.23,8.23,0,0,0-8,5.05.85.85,0,0,1-.92.57c-1.66,0-3.33,0-5,0-1.31,0-1.83.63-1.83,1.92,0,.64-.05,1.29,0,1.92s-.1.82-.77.81c-2.12-.05-4.25-.05-6.37,0a7.9,7.9,0,0,0-7.82,8c0,17.63,0,35.26,0,52.88a7.4,7.4,0,0,0,6.6,7.3l0,0c.24.09.52-.06.75.11h47c.22-.17.5,0,.74-.11l0,0a7.39,7.39,0,0,0,6.61-7.3Q63.41,67.63,63.44,46.12Zm-18.7-11.9c0,.52-.17.62-.65.61H32.59c-3.79,0-7.57,0-11.36,0-.71,0-.83-.21-.81-.86,0-2,0-4,0-6,0-.61.19-.71.73-.69,1.3,0,2.61,0,3.91,0a2.06,2.06,0,0,0,2.31-1.77,5.2,5.2,0,0,1,10.12-.19c.43,1.54,1,2,2.54,2,1.36,0,2.72,0,4.07,0,.46,0,.67.06.66.6Q44.69,31.07,44.74,34.22Z" transform="translate(-1.7 -3.43)"/><path class="cls-1" d="M9.1,96.57H8.33a.7.7,0,0,0,0-.14h0A.85.85,0,0,1,9.1,96.57Z" transform="translate(-1.7 -3.43)"/><path class="cls-1" d="M56.86,96.43l0,.14h-.76a.81.81,0,0,1,.75-.14Z" transform="translate(-1.7 -3.43)"/><path class="cls-1" d="M11.65,50.45a1.86,1.86,0,0,1-.38-2.19,1.74,1.74,0,0,1,1.73-1,1.88,1.88,0,0,1,1.35.68c.67.7,1.37,1.38,2,2.11.32.36.5.33.84,0,1.78-1.72,3.58-3.43,5.38-5.13a1.84,1.84,0,0,1,2.36-.41,1.78,1.78,0,0,1,.45,2.91c-2.44,2.37-4.92,4.7-7.4,7a1.69,1.69,0,0,1-2.48,0Q13.56,52.45,11.65,50.45Z" transform="translate(-1.7 -3.43)"/><path class="cls-1" d="M11.72,65.49a2,2,0,0,1-.07-2.81,1.87,1.87,0,0,1,2.73.25c.68.69,1.37,1.38,2,2.11.3.34.47.29.78,0,1.78-1.72,3.57-3.44,5.37-5.14a1.93,1.93,0,0,1,2.63-.28,1.75,1.75,0,0,1,.23,2.74c-2.45,2.37-4.92,4.69-7.39,7a1.69,1.69,0,0,1-1.27.49,1.66,1.66,0,0,1-1.34-.59C14.17,68,12.93,66.77,11.72,65.49Z" transform="translate(-1.7 -3.43)"/><path class="cls-1" d="M25.36,74.76a1.7,1.7,0,0,1,.09,2.53q-3.72,3.6-7.51,7.12a1.69,1.69,0,0,1-2.48-.11C14.2,83,13,81.74,11.71,80.46a2.07,2.07,0,0,1-.62-1.61,1.68,1.68,0,0,1,1-1.49,1.77,1.77,0,0,1,2.05.34c.74.71,1.46,1.44,2.14,2.21.35.39.56.41.95,0,1.77-1.73,3.57-3.43,5.38-5.14A1.85,1.85,0,0,1,25.36,74.76Z" transform="translate(-1.7 -3.43)"/><path class="cls-1" d="M29,65a1.81,1.81,0,0,1,1.81-1.17H51.88c1.3,0,2.09.6,2.19,1.65a1.84,1.84,0,0,1-2,2.07H41.49c-3.55,0-7.11,0-10.66,0A1.85,1.85,0,0,1,29,65Z" transform="translate(-1.7 -3.43)"/><path class="cls-1" d="M28.87,50.89a1.85,1.85,0,0,1,2-2H52a1.88,1.88,0,0,1,2.09,1.85,1.8,1.8,0,0,1-1.51,1.84,4.9,4.9,0,0,1-.77.05H31.1C29.75,52.59,29,52,28.87,50.89Z" transform="translate(-1.7 -3.43)"/><path class="cls-1" d="M54.08,80.71a1.8,1.8,0,0,1-1.44,1.75,4.67,4.67,0,0,1-.91.08H31.17c-1.43,0-2.26-.64-2.31-1.78a1.88,1.88,0,0,1,2.12-2c3.5,0,7,0,10.51,0s7,0,10.5,0A1.88,1.88,0,0,1,54.08,80.71Z" transform="translate(-1.7 -3.43)"/><path class="cls-1" d="M54.08,50.7a1.8,1.8,0,0,1-1.51,1.84,4.9,4.9,0,0,1-.77.05H31.1c-1.35,0-2.15-.62-2.23-1.7a1.85,1.85,0,0,1,2-2H52A1.88,1.88,0,0,1,54.08,50.7Z" transform="translate(-1.7 -3.43)"/><path class="cls-1" d="M54.08,80.71a1.8,1.8,0,0,1-1.44,1.75,4.67,4.67,0,0,1-.91.08H31.17c-1.43,0-2.26-.64-2.31-1.78a1.88,1.88,0,0,1,2.12-2c3.5,0,7,0,10.51,0s7,0,10.5,0A1.88,1.88,0,0,1,54.08,80.71Z" transform="translate(-1.7 -3.43)"/><path class="cls-1" d="M52.07,67.55H41.49c-3.55,0-7.11,0-10.66,0A1.85,1.85,0,0,1,29,65a1.81,1.81,0,0,1,1.81-1.17H51.88c1.3,0,2.09.6,2.19,1.65A1.84,1.84,0,0,1,52.07,67.55Z" transform="translate(-1.7 -3.43)"/><path class="cls-1" d="M25.39,47.41c-2.44,2.37-4.92,4.7-7.4,7a1.69,1.69,0,0,1-2.48,0q-1.95-1.95-3.86-3.95a1.86,1.86,0,0,1-.38-2.19,1.74,1.74,0,0,1,1.73-1,1.88,1.88,0,0,1,1.35.68c.67.7,1.37,1.38,2,2.11.32.36.5.33.84,0,1.78-1.72,3.58-3.43,5.38-5.13a1.84,1.84,0,0,1,2.36-.41A1.78,1.78,0,0,1,25.39,47.41Z" transform="translate(-1.7 -3.43)"/><path class="cls-1" d="M25.41,62.36c-2.45,2.37-4.92,4.69-7.39,7a1.69,1.69,0,0,1-1.27.49,1.66,1.66,0,0,1-1.34-.59c-1.24-1.26-2.48-2.52-3.69-3.8a2,2,0,0,1-.07-2.81,1.87,1.87,0,0,1,2.73.25c.68.69,1.37,1.38,2,2.11.3.34.47.29.78,0,1.78-1.72,3.57-3.44,5.37-5.14a1.93,1.93,0,0,1,2.63-.28A1.75,1.75,0,0,1,25.41,62.36Z" transform="translate(-1.7 -3.43)"/><path class="cls-1" d="M25.45,77.29q-3.72,3.6-7.51,7.12a1.69,1.69,0,0,1-2.48-.11C14.2,83,13,81.74,11.71,80.46a2.07,2.07,0,0,1-.62-1.61,1.68,1.68,0,0,1,1-1.49,1.77,1.77,0,0,1,2.05.34c.74.71,1.46,1.44,2.14,2.21.35.39.56.41.95,0,1.77-1.73,3.57-3.43,5.38-5.14a1.85,1.85,0,0,1,2.73,0A1.7,1.7,0,0,1,25.45,77.29Z" transform="translate(-1.7 -3.43)"/></svg>