<svg xmlns="http://www.w3.org/2000/svg" xmlns:xlink="http://www.w3.org/1999/xlink" id="Layer_1" x="0px" y="0px" viewBox="0 0 45 45" style="enable-background:new 0 0 45 45;" xml:space="preserve"> <style type="text/css"> .st0{fill-rule:evenodd;clip-rule:evenodd;fill:#FFFFFF;} .st1{fill-rule:evenodd;clip-rule:evenodd;fill:#0A2852;} </style> <g> <circle class="st0" cx="22.5" cy="22.5" r="22.5"></circle> <path class="st1" d="M20.9,20.89c-0.18,0.11-0.97,0.32-1.25,0.43c-0.41,0.17-0.75,0.4-1.11,0.55l-1.47-1.35 c-0.22,0.11-1.94,1.84-2.15,2.11c0.44,0.46,0.83,1.04,1.35,1.45c-0.04,0.21-0.61,1.12-0.95,2.42l-2.03,0.1l-0.03,3.02l2.04,0.09 c0.14,0.29,0.27,0.86,0.4,1.2c0.17,0.42,0.38,0.75,0.57,1.11c-0.2,0.34-1.24,1.36-1.34,1.55c0.12,0.26,0.79,0.86,1,1.07 c0.28,0.28,0.84,0.78,1.04,1.06c0.37-0.18,0.52-0.42,0.8-0.68l0.78-0.69c0.57,0.21,1.08,0.72,2.36,0.95l0.09,2.07l3.01,0l0.1-2.07 c0.43-0.08,0.86-0.23,1.26-0.39c0.39-0.16,0.81-0.45,1.1-0.56c0.23,0.17,1.22,1.19,1.58,1.37c0.19-0.28,0.73-0.76,1.01-1.03 c0.19-0.19,0.34-0.34,0.53-0.53c0.1-0.1,0.15-0.15,0.25-0.25c0.15-0.15,0.17-0.14,0.26-0.33c-0.1-0.18-1.14-1.21-1.34-1.55 c0.18-0.35,0.39-0.66,0.55-1.07c0.15-0.37,0.27-0.94,0.42-1.24l2.04-0.1l0-3.02l-2.06-0.09c-0.13-0.47-0.22-0.83-0.41-1.26 c-0.14-0.34-0.49-0.9-0.55-1.16c0.52-0.42,0.91-1,1.35-1.45c-0.21-0.27-1.93-2.01-2.15-2.11l-1.47,1.35 c-0.87-0.36-0.9-0.61-2.34-0.94L24,18.89l-2.99-0.03L20.9,20.89L20.9,20.89z M21.47,21.41l0.1-1.94h1.86l0.1,1.94 c0.55,0.21,1.05,0.23,1.62,0.48c0.66,0.29,0.8,0.44,1.31,0.74c0.33-0.12,0.48-0.41,0.75-0.62l0.74-0.64 c0.37,0.2,0.92,0.93,1.3,1.24l-1.28,1.5c0.18,0.41,0.53,0.81,0.76,1.38c0.1,0.25,0.21,0.52,0.28,0.78 c0.07,0.25,0.09,0.61,0.23,0.82l1.85,0.12c0.01,0.01,0.01,0.03,0.02,0.04l0.03,1.79l-1.94,0.09c-0.32,1.27-0.53,2.04-1.23,2.95 c0.19,0.35,0.39,0.43,0.63,0.72c0.23,0.28,0.37,0.46,0.66,0.7c-0.1,0.22-1.09,1.16-1.3,1.35c-0.16-0.16-1.28-1.17-1.51-1.28 c-0.17,0.21-0.98,0.63-1.31,0.77c-1.92,0.78-1.61-0.27-1.69,2.41l-1.87,0c-0.01-0.43,0.04-1.66-0.14-1.92 c-0.05-0.05-2.32-0.6-2.86-1.26c-0.22,0.11-1.36,1.13-1.51,1.28c-0.23-0.2-1.19-1.11-1.3-1.35l1.28-1.42 c-0.7-0.91-0.91-1.68-1.23-2.95l-1.94-0.11l0.05-1.84l1.85-0.09c0.15-0.23,0.17-0.6,0.24-0.87c0.33-1.16,0.74-1.5,1.02-2.11 l-1.28-1.5c0.38-0.3,0.94-1.03,1.3-1.24c0.21,0.12,0.18,0.13,0.37,0.33l1.12,0.94c0.23-0.14,0.41-0.28,0.65-0.41 C20.55,21.5,20.44,21.79,21.47,21.41L21.47,21.41z M21.93,7.67c-2.61,0.28-4.78,2.62-4.47,5.58c0.27,2.62,2.64,4.83,5.65,4.48 c2.57-0.3,4.74-2.65,4.42-5.6C27.25,9.52,24.91,7.35,21.93,7.67L21.93,7.67z M21.77,8.31c2.66-0.43,4.76,1.45,5.13,3.66 c0.45,2.66-1.48,4.78-3.67,5.14c-2.64,0.43-4.78-1.46-5.13-3.64C17.67,10.77,19.54,8.67,21.77,8.31L21.77,8.31z M12.35,12.69 c2.41-0.44,4.37,1.28,4.7,3.32c0.38,2.41-1.31,4.28-3.28,4.64c-2.42,0.43-4.37-1.31-4.69-3.3C8.68,14.91,10.36,13.05,12.35,12.69 L12.35,12.69z M31.19,12.7c2.44-0.48,4.39,1.27,4.73,3.26c0.4,2.38-1.26,4.33-3.21,4.67c-3.77,0.67-6.12-3.54-4.02-6.37 C29.22,13.55,29.99,12.94,31.19,12.7L31.19,12.7z M21.9,24.59c1.44-0.26,2.94,0.47,3.64,1.62c1.37,2.24,0,4.98-2.38,5.43 c-2.19,0.41-3.9-1.16-4.2-2.95C18.63,26.76,19.92,24.95,21.9,24.59L21.9,24.59z M12.67,13.26c2-0.23,3.55,1.23,3.79,2.94 c0.28,2.04-1.21,3.64-2.95,3.87c-2.03,0.28-3.66-1.24-3.86-2.99C9.42,15.06,10.88,13.46,12.67,13.26L12.67,13.26z M31.55,13.26 c1.98-0.23,3.58,1.24,3.79,2.96c0.26,2.04-1.21,3.62-2.95,3.85c-2.04,0.28-3.65-1.23-3.86-2.98 C28.29,15.07,29.77,13.46,31.55,13.26L31.55,13.26z M21.89,25.21c1.77-0.4,3.24,0.88,3.53,2.3c0.37,1.8-0.9,3.24-2.31,3.53 c-1.8,0.36-3.19-0.86-3.52-2.28C19.16,26.92,20.46,25.53,21.89,25.21L21.89,25.21z M4.75,25.83l4.62-5.24 c0.15-0.17,0.12-0.2,0.31-0.34l4.94,5.6l-2.34,0.01c-0.01,1.17,0.07,9.41-0.04,9.8l-0.55-0.01v-10.4l1.59-0.01 c-0.12-0.25-1.96-2.2-2.26-2.6l-1.34-1.49l-2.94,3.29c-0.1,0.1-0.13,0.17-0.22,0.28c-0.2,0.24-0.28,0.24-0.43,0.51l1.59,0.01 c0.05,2.41-0.01,4.99,0.01,7.44l-0.61-0.02v-6.82L4.75,25.83L4.75,25.83z M30.38,25.83c0.18-0.31,1.57-1.76,1.84-2.1 c0.2-0.25,0.39-0.45,0.6-0.7l2.51-2.79l4.93,5.6l-2.34,0v6.83l-0.6-0.01l0.02-7.43l1.58,0c-0.15-0.29-0.26-0.3-0.46-0.55l-2.7-3.05 c-0.17-0.2-0.18-0.31-0.43-0.48c-0.25,0.22-0.26,0.26-0.46,0.51l-0.69,0.74c-0.1,0.1-0.13,0.17-0.22,0.28 c-0.35,0.44-2.1,2.28-2.23,2.56l1.59,0.01l-0.02,10.4l-0.54,0c-0.11-0.39-0.03-8.62-0.04-9.81L30.38,25.83L30.38,25.83z M22.17,9.99l0.02-0.61l0.58,0.02l0.03,0.59c0.52,0.2,1.31,0.37,1.36,1.29l-0.56,0.03c-0.21-0.39-0.37-0.62-0.87-0.7 c-0.46-0.07-0.94,0.08-1.17,0.31c-0.29,0.28-0.24,0.87,0.04,1.14c0.27,0.26,0.71,0.26,1.19,0.31c1.55,0.17,1.97,1.77,1.03,2.54 c-0.36,0.29-0.59,0.27-1.03,0.47l0,0.63l-0.61,0.01l-0.01-0.64c-0.38-0.2-0.62-0.17-1-0.46c-0.19-0.14-0.49-0.55-0.46-0.94 l0.59-0.06c0.22,1.52,3.11,0.75,2.31-0.45c-0.55-0.82-1.49-0.26-2.25-0.84c-0.74-0.58-0.78-1.56-0.21-2.13 C21.44,10.2,21.69,10.17,22.17,9.99L22.17,9.99z M31.62,14.64l0.05-0.38l0.5,0l0.07,0.19c0.04,0.13-0.03,0.03,0.05,0.19 c0.52,0.12,0.85,0.4,0.96,0.93c-0.06,0.04,0,0.02-0.15,0.06l-0.43,0.05c-0.24-0.61-1.2-0.59-1.42-0.15 c-0.43,0.85,1.12,0.86,1.14,0.86c1.32,0.33,1.31,1.97-0.16,2.29l-0.03,0.4l-0.57-0.01l-0.01-0.4c-0.63-0.08-1-0.44-1.1-1.05 l0.6-0.06c0.18,0.58,0.99,0.71,1.44,0.34c0.26-0.22,0.45-0.85-0.83-0.97C30.24,16.78,30.21,14.85,31.62,14.64L31.62,14.64z M12.74,14.64l0.04-0.38c0.8-0.01,0.45,0.01,0.62,0.37c0.52,0.16,0.85,0.38,0.97,0.93c-0.07,0.04-0.02,0.02-0.16,0.06l-0.37,0.04 c-0.21-0.21-0.25-0.4-0.64-0.45c-0.3-0.04-0.65,0.06-0.78,0.23c-0.2,0.26-0.07,0.64,0.19,0.79c0.24,0.13,0.62,0.08,0.91,0.15 c1.14,0.29,1.51,1.81-0.15,2.3l-0.04,0.39l-0.57-0.02l-0.01-0.4c-0.63-0.11-1-0.42-1.1-1.05l0.6-0.05c0.34,1.08,2.2,0.36,1.47-0.37 c-0.21-0.22-0.51-0.22-0.86-0.26C11.33,16.77,11.36,14.83,12.74,14.64z"></path> </g> </svg>