<svg id="Layer_1" data-name="Layer 1" xmlns="http://www.w3.org/2000/svg" viewBox="0 0 95.13 95.13"><defs><style>.cls-1{fill:#083264;}</style></defs><path class="cls-1" d="M51.85,34.16a1.85,1.85,0,1,1-3.7.05,1.85,1.85,0,0,1,3.7-.05Z" transform="translate(-2.44 -2.43)"/><path class="cls-1" d="M84.46,26.6a13.53,13.53,0,0,0-9-10c1.69-2.23,1.55-4.82,1.36-7.39a7.44,7.44,0,0,0-6.86-6.76A7.32,7.32,0,0,0,62.1,8.28c-.51,2.84-.63,5.74,1.12,8.31a9.63,9.63,0,0,0-2.43,1.18c-1.43,1.31-2.81,1.12-4.37.18a8.11,8.11,0,0,0,1.63-4.78c0-1.05,0-2.1,0-3.15a8,8,0,0,0-7.35-7.56A7.88,7.88,0,0,0,42.22,8.6c-.61,3.21-.75,6.48,1.31,9.29-1.46,1.1-2.88,1.21-4.25-.11a3.32,3.32,0,0,0-1-.51c-.47-.22-1.22-.29-1.38-.64s.41-.94.63-1.44c.81-1.83.62-3.77.56-5.68a7.46,7.46,0,0,0-14.87-.43c-.23,2.62-.36,5.25,1.34,7.56A13.67,13.67,0,0,0,18,21.3,14.16,14.16,0,0,0,15.23,31c.07,1.68.63,2.3,2.29,2.31,5,0,9.91,0,14.86,0,.61,0,.86.1.86.79a1.81,1.81,0,0,0,2,2c2.07,0,4.15,0,6.22,0a1.88,1.88,0,0,0,2-1.88,1.85,1.85,0,0,0-2-1.83c-1.27,0-2.54,0-3.81,0-.55,0-.74-.1-.73-.7A10.92,10.92,0,0,1,46.45,21.2c1.69-.18,1.69-.18,1.69,1.47,0,.31,0,.62,0,.93a1.85,1.85,0,1,0,3.7,0c0-.65,0-1.3,0-1.95,0-.41.12-.51.53-.51A11,11,0,0,1,63.07,31.69c0,.55-.17.67-.68.66q-2,0-4,0a1.82,1.82,0,0,0-1.89,1.76A1.84,1.84,0,0,0,58.35,36c2.2,0,4.4,0,6.59,0a1.66,1.66,0,0,0,1.78-1.65c0-1.07.43-1.13,1.31-1.12,4.86,0,9.72,0,14.58,0,1.28,0,2.09-.6,2.13-1.69A18.15,18.15,0,0,0,84.46,26.6ZM26.92,9.43a3.76,3.76,0,0,1,7.48.34c0,.43,0,.87,0,1.3s0,.87,0,1.3a3.76,3.76,0,0,1-7.49.39A13.25,13.25,0,0,1,26.92,9.43ZM33.76,28c-.43,1.54-.44,1.54-2.08,1.54-4,0-8,0-12,0-.57,0-.78-.09-.76-.74a9.84,9.84,0,0,1,9.22-9.11c.47,0,.69.07.64.59a6.86,6.86,0,0,0,0,1.11,1.8,1.8,0,0,0,1.79,1.85,1.86,1.86,0,0,0,1.91-1.76c0-.09,0-.19,0-.28,0-1.63,0-1.63,1.72-1.36a8.22,8.22,0,0,1,3.61,1.43A14.72,14.72,0,0,0,33.76,28Zm20.46-14a4.3,4.3,0,0,1-4.53,3.31,4.23,4.23,0,0,1-4-3.93,23.27,23.27,0,0,1,0-3.34,4.32,4.32,0,0,1,8.6,0c.05.59,0,1.18,0,1.77h.08A14.88,14.88,0,0,1,54.22,14.05Zm11.37-3.22a7.62,7.62,0,0,1,.15-2,3.8,3.8,0,0,1,4-2.67,3.74,3.74,0,0,1,3.36,3.29,13.26,13.26,0,0,1,0,3.33,3.76,3.76,0,0,1-7.48-.36C65.57,12,65.59,11.51,65.59,10.83ZM80.42,29.58c-4.4,0-8.79,0-13.18,0-.31,0-.63.11-.74-.42a14.53,14.53,0,0,0-4.38-7.86,9.68,9.68,0,0,1,4.8-1.56c.44,0,.61.09.57.55a7.93,7.93,0,0,0,0,1.29,1.83,1.83,0,0,0,2,1.7,1.8,1.8,0,0,0,1.75-1.8c.11-1.88.11-1.88,2-1.56a9.75,9.75,0,0,1,7.87,9C81.05,29.4,81,29.59,80.42,29.58Z" transform="translate(-2.44 -2.43)"/><path class="cls-1" d="M97.56,32.72c-.3.07-.44-.17-.61-.33-.91-.82-1.21-.88-2.32-.33-2.2,1.08-4.36,2.22-6.51,3.37s-4.24,2.19-6.35,3.3c-2.54,1.34-5.07,2.7-7.66,4-1.77.86-2,1.29-1.55,3.23.24,1.17,0,1.39-1.1,1.11-4.33-1.05-8.68-2-13-3.17a9.72,9.72,0,0,0-8.72,1.48,1.71,1.71,0,0,1-2,.17A14.84,14.84,0,0,0,37.06,44.4c-2.8.68-5.59,1.4-8.38,2.09-1.19.29-1.32.16-1.13-1,.23-1.45,0-1.92-1.43-2.64C22.53,41,19,39.08,15.4,37.25c-3.27-1.68-6.52-3.4-9.8-5.08-1.81-.92-2.91-.24-2.91,1.76V66.06a2.08,2.08,0,0,0,1.75,2.38q7,2.19,14,4.43a3.32,3.32,0,0,0,1.36.25,1.74,1.74,0,0,0,1.54-1.4c.14-.48.31-1,1-.77s1.09.62,1,1.4C22.61,76,24.41,78.73,28,79.48a1.23,1.23,0,0,1,1.09,1.17,5.61,5.61,0,0,0,4.8,4.75,1.1,1.1,0,0,1,1,1,5.85,5.85,0,0,0,5.06,5c.63.12.78.53.87,1a5.9,5.9,0,0,0,2,3.49A6.59,6.59,0,0,0,44.64,97c.29.12.71.13.72.6-.35-.34-.84-.33-1.25-.53a5.87,5.87,0,0,1-3.47-4.51c-.1-.6-.23-.88-1-1a5.81,5.81,0,0,1-4.93-5c-.11-.67-.35-.88-1-1a5.83,5.83,0,0,1-4.9-5c-.08-.61-.28-.82-.88-.9A6,6,0,0,1,23,72.38,1.17,1.17,0,0,0,21.9,71c-.29,0-.25.32-.3.51-.51,1.78-1.27,2.2-3,1.65L4.13,68.59a2,2,0,0,1-1.69-2.28V33.71c0-2,1.32-2.78,3.09-1.86L26.15,42.56c1.83.95,2,1.28,1.57,3.28,0,.17-.06.35-.1.63,2.93-.73,5.81-1.4,8.66-2.16a15.53,15.53,0,0,1,12,1.21.7.7,0,0,0,.89-.11,10.17,10.17,0,0,1,9.44-1.77c4.56,1.21,9.17,2.25,13.78,3.36.18-.48-.09-.91-.19-1.34-.36-1.67-.15-2.17,1.38-3l20.7-10.75C95.9,31.12,96.57,31.28,97.56,32.72Z" transform="translate(-2.44 -2.43)"/><path class="cls-1" d="M94.31,31.94,73.61,42.69c-1.53.8-1.74,1.3-1.38,3,.1.43.37.86.19,1.34-4.61-1.11-9.22-2.15-13.78-3.36a10.17,10.17,0,0,0-9.44,1.77.7.7,0,0,1-.89.11,15.53,15.53,0,0,0-12-1.21c-2.85.76-5.73,1.43-8.66,2.16,0-.28.06-.46.1-.63.43-2,.26-2.33-1.57-3.28L5.53,31.85c-1.77-.92-3.09-.12-3.09,1.86v32.6a2,2,0,0,0,1.69,2.28l14.47,4.6c1.73.55,2.49.13,3-1.65,0-.19,0-.47.3-.51A1.17,1.17,0,0,1,23,72.38,6,6,0,0,0,28,79.74c.6.08.8.29.88.9a5.83,5.83,0,0,0,4.9,5c.67.08.91.29,1,1a5.81,5.81,0,0,0,4.93,5c.73.1.86.38,1,1A5.87,5.87,0,0,0,44.11,97c.41.2.9.19,1.25.53h2.22A14,14,0,0,0,55,90.68c.18-.34.34-.29.65-.24,3.8.63,6.66-1.43,7.3-5.28.07-.42.26-.47.58-.53,3.17-.61,4.79-2.21,5.33-5.33.07-.44.24-.5.62-.56a6,6,0,0,0,5.32-5.56.83.83,0,0,1,.51-.78c1-.43,1.88-.91,2.81-1.37a.78.78,0,0,1,.13.18c.81,2.35,1.23,2.57,3.57,1.83,4.59-1.45,9.17-2.92,13.77-4.35a3.16,3.16,0,0,0,1.93-1.41V32.72C96.57,31.28,95.9,31.12,94.31,31.94ZM17.65,69c-3.6-1.19-7.22-2.31-10.84-3.44-.4-.13-.67-.23-.67-.78q0-14.06,0-28.12a1.07,1.07,0,0,1,.08-.26l5.64,2.94c3.81,2,7.61,4,11.43,5.91.47.25.64.47.5,1q-2.67,11.07-5.27,22.15C18.41,69,18.31,69.22,17.65,69Zm21.5,14.86c.9-.93,1.82-1.86,2.77-2.74a2.13,2.13,0,0,1,2.49-.39A2.32,2.32,0,0,1,45.76,83,2.18,2.18,0,0,1,45,84.53c-.86.88-1.73,1.76-2.62,2.62a2.33,2.33,0,0,1-3.39.1A2.3,2.3,0,0,1,39.15,83.86Zm.26-5.61c-1,1.18-2.2,2.25-3.33,3.34a1.81,1.81,0,0,1-1.3.42,2.15,2.15,0,0,1-2.08-1.27A2.06,2.06,0,0,1,33,78.32c1-1.12,2.09-2.2,3.21-3.21a2.28,2.28,0,0,1,3.25,3.14Zm-6-5.71c-1,1-2,2-3,3a2.11,2.11,0,0,1-2.5.33,2.21,2.21,0,0,1-1.29-2.08,2,2,0,0,1,.52-1.45c1-1,2-2.1,3.08-3.07a2.29,2.29,0,0,1,3.21,3.26ZM50.94,90.43c-.9.9-1.78,1.81-2.7,2.68A2.31,2.31,0,1,1,45,89.84c.92-1,1.86-1.91,2.83-2.81a2.15,2.15,0,0,1,2.5-.4,2.25,2.25,0,0,1,1.36,2A2.49,2.49,0,0,1,50.94,90.43Zm19.49-16A2.33,2.33,0,0,1,67,74.16l-9.33-9.32a5.43,5.43,0,0,0-.75-.69,1.84,1.84,0,0,0-2.53,2.61,6.45,6.45,0,0,0,.76.81l9.26,9.27a2.32,2.32,0,0,1,.73,2.51,2.22,2.22,0,0,1-1.88,1.58A2.46,2.46,0,0,1,61,80q-4.62-4.64-9.26-9.26a8.07,8.07,0,0,0-.67-.64,1.81,1.81,0,0,0-2.45.14,1.87,1.87,0,0,0-.14,2.45,8.18,8.18,0,0,0,.64.68l9.39,9.39a2.32,2.32,0,0,1-2,4,2.69,2.69,0,0,1-1.39-.87c-2.32-2.32-4.66-4.62-7-7a6.5,6.5,0,0,0-4-2.13c-.47,0-.6-.23-.66-.68A5.84,5.84,0,0,0,38.38,71c-.54-.07-.71-.26-.79-.78a5.67,5.67,0,0,0-4.1-4.91,5.85,5.85,0,0,0-6.22,1.57l-.06.06c-1.83,1.8-1.83,1.79-4.11.57a.59.59,0,0,1-.36-.79q1.88-7.8,3.71-15.6a.81.81,0,0,1,.62-.69c4-1,8-2,12.07-2.9a10,10,0,0,1,6.21.72c-1.08.81-2.1,1.56-3.12,2.31a6.59,6.59,0,0,0,3.32,12A6.76,6.76,0,0,0,48.72,62c2.93-1.13,5.87-2.26,8.79-3.42a1,1,0,0,1,1.27.26c3.83,4,7.69,8.07,11.52,12.11A2.31,2.31,0,0,1,70.43,74.41Zm6.38-6.84a20.56,20.56,0,0,0-2.49,1.23c-.56.33-.84.16-1.23-.25q-6.25-6.61-12.52-13.21c-1.15-1.21-1.54-1.3-3.1-.7-3.43,1.31-6.85,2.65-10.28,4A2.86,2.86,0,0,1,43.11,56a2.79,2.79,0,0,1,1.21-2.38c2.53-1.88,5.07-3.76,7.62-5.61a5.94,5.94,0,0,1,5.12-.92Q64.89,49,72.72,50.9a1.13,1.13,0,0,1,1,1q1.72,7.39,3.51,14.78C77.36,67.13,77.26,67.37,76.81,67.57ZM93,65.62Q87.72,67.26,82.45,69c-.59.19-.83.16-1-.51C79.73,61.07,78,53.69,76.2,46.31c-.09-.38-.21-.7.32-1,5.68-2.91,11.34-5.86,17-8.8a1.8,1.8,0,0,1,.33-.09v.85q0,13.59,0,27.19A1,1,0,0,1,93,65.62Z" transform="translate(-2.44 -2.43)"/><path class="cls-1" d="M84.46,26.6a13.53,13.53,0,0,0-9-10c1.69-2.23,1.55-4.82,1.36-7.39a7.44,7.44,0,0,0-6.86-6.76A7.32,7.32,0,0,0,62.1,8.28c-.51,2.84-.63,5.74,1.12,8.31a9.63,9.63,0,0,0-2.43,1.18c-1.43,1.31-2.81,1.12-4.37.18a8.11,8.11,0,0,0,1.63-4.78c0-1.05,0-2.1,0-3.15a8,8,0,0,0-7.35-7.56A7.88,7.88,0,0,0,42.22,8.6c-.61,3.21-.75,6.48,1.31,9.29-1.46,1.1-2.88,1.21-4.25-.11a3.32,3.32,0,0,0-1-.51c-.47-.22-1.22-.29-1.38-.64s.41-.94.63-1.44c.81-1.83.62-3.77.56-5.68a7.46,7.46,0,0,0-14.87-.43c-.23,2.62-.36,5.25,1.34,7.56A13.67,13.67,0,0,0,18,21.3,14.16,14.16,0,0,0,15.23,31c.07,1.68.63,2.3,2.29,2.31,5,0,9.91,0,14.86,0,.61,0,.86.1.86.79a1.81,1.81,0,0,0,2,2c2.07,0,4.15,0,6.22,0a1.88,1.88,0,0,0,2-1.88,1.85,1.85,0,0,0-2-1.83c-1.27,0-2.54,0-3.81,0-.55,0-.74-.1-.73-.7A10.92,10.92,0,0,1,46.45,21.2c1.69-.18,1.69-.18,1.69,1.47,0,.31,0,.62,0,.93a1.85,1.85,0,1,0,3.7,0c0-.65,0-1.3,0-1.95,0-.41.12-.51.53-.51A11,11,0,0,1,63.07,31.69c0,.55-.17.67-.68.66q-2,0-4,0a1.82,1.82,0,0,0-1.89,1.76A1.84,1.84,0,0,0,58.35,36c2.2,0,4.4,0,6.59,0a1.66,1.66,0,0,0,1.78-1.65c0-1.07.43-1.13,1.31-1.12,4.86,0,9.72,0,14.58,0,1.28,0,2.09-.6,2.13-1.69A18.15,18.15,0,0,0,84.46,26.6ZM26.92,9.43a3.76,3.76,0,0,1,7.48.34c0,.43,0,.87,0,1.3s0,.87,0,1.3a3.76,3.76,0,0,1-7.49.39A13.25,13.25,0,0,1,26.92,9.43ZM33.76,28c-.43,1.54-.44,1.54-2.08,1.54-4,0-8,0-12,0-.57,0-.78-.09-.76-.74a9.84,9.84,0,0,1,9.22-9.11c.47,0,.69.07.64.59a6.86,6.86,0,0,0,0,1.11,1.8,1.8,0,0,0,1.79,1.85,1.86,1.86,0,0,0,1.91-1.76c0-.09,0-.19,0-.28,0-1.63,0-1.63,1.72-1.36a8.22,8.22,0,0,1,3.61,1.43A14.72,14.72,0,0,0,33.76,28Zm20.46-14a4.3,4.3,0,0,1-4.53,3.31,4.23,4.23,0,0,1-4-3.93,23.27,23.27,0,0,1,0-3.34,4.32,4.32,0,0,1,8.6,0c.05.59,0,1.18,0,1.77h.08A14.88,14.88,0,0,1,54.22,14.05Zm11.37-3.22a7.62,7.62,0,0,1,.15-2,3.8,3.8,0,0,1,4-2.67,3.74,3.74,0,0,1,3.36,3.29,13.26,13.26,0,0,1,0,3.33,3.76,3.76,0,0,1-7.48-.36C65.57,12,65.59,11.51,65.59,10.83ZM80.42,29.58c-4.4,0-8.79,0-13.18,0-.31,0-.63.11-.74-.42a14.53,14.53,0,0,0-4.38-7.86,9.68,9.68,0,0,1,4.8-1.56c.44,0,.61.09.57.55a7.93,7.93,0,0,0,0,1.29,1.83,1.83,0,0,0,2,1.7,1.8,1.8,0,0,0,1.75-1.8c.11-1.88.11-1.88,2-1.56a9.75,9.75,0,0,1,7.87,9C81.05,29.4,81,29.59,80.42,29.58Z" transform="translate(-2.44 -2.43)"/><path class="cls-1" d="M51.85,34.16a1.85,1.85,0,1,1-3.7.05,1.85,1.85,0,0,1,3.7-.05Z" transform="translate(-2.44 -2.43)"/></svg>