<svg id="Layer_1" data-name="Layer 1" xmlns="http://www.w3.org/2000/svg" viewBox="0 0 92.01 92"><defs><style>.cls-1{fill:#083264;}</style></defs><path class="cls-1" d="M37,46.22a3.48,3.48,0,1,0,3.39,3.51A3.48,3.48,0,0,0,37,46.22Zm2,3.56a2.1,2.1,0,0,1-2.18,2,2.27,2.27,0,0,1-2.07-2.33,2.13,2.13,0,0,1,4.25.3Zm19.88,2.61c0-.84-.64-.6-1.07-.6h-15c-.48,0-1.19-.26-1.12.71s.76.6,1.23.61c2.42,0,4.84,0,7.25,0s5.06,0,7.59,0C58.31,53.12,59,53.3,58.92,52.39ZM58,46.22H42.67c-.5,0-1-.08-1,.72s.56.65,1,.66h7.41c2.58,0,5.16,0,7.74,0,.44,0,1,.19,1-.63S58.51,46.22,58,46.22Zm.94,3.44c0-.79-.56-.67-1-.67H42.75c-.47,0-1-.14-1,.66s.6.74,1.12.75h15C58.32,50.39,59,50.57,58.93,49.66Zm4.84-3.44a3.48,3.48,0,1,0,3.41,3.49A3.49,3.49,0,0,0,63.77,46.22Zm-.19,5.58a2,2,0,0,1-2-2.21,2.12,2.12,0,0,1,2.15-2.06,2.17,2.17,0,0,1,2.08,2.16A2.14,2.14,0,0,1,63.58,51.8Zm.19-5.58a3.48,3.48,0,1,0,3.41,3.49A3.49,3.49,0,0,0,63.77,46.22Zm-.19,5.58a2,2,0,0,1-2-2.21,2.12,2.12,0,0,1,2.15-2.06,2.17,2.17,0,0,1,2.08,2.16A2.14,2.14,0,0,1,63.58,51.8Zm-4.65-2.14c0-.79-.56-.67-1-.67H42.75c-.47,0-1-.14-1,.66s.6.74,1.12.75h15C58.32,50.39,59,50.57,58.93,49.66ZM58,46.22H42.67c-.5,0-1-.08-1,.72s.56.65,1,.66h7.41c2.58,0,5.16,0,7.74,0,.44,0,1,.19,1-.63S58.51,46.22,58,46.22Zm.93,6.17c0-.84-.64-.6-1.07-.6h-15c-.48,0-1.19-.26-1.12.71s.76.6,1.23.61c2.42,0,4.84,0,7.25,0s5.06,0,7.59,0C58.31,53.12,59,53.3,58.92,52.39ZM37,46.22a3.48,3.48,0,1,0,3.39,3.51A3.48,3.48,0,0,0,37,46.22Zm2,3.56a2.1,2.1,0,0,1-2.18,2,2.27,2.27,0,0,1-2.07-2.33,2.13,2.13,0,0,1,4.25.3Zm-2-3.56a3.48,3.48,0,1,0,3.39,3.51A3.48,3.48,0,0,0,37,46.22Zm2,3.56a2.1,2.1,0,0,1-2.18,2,2.27,2.27,0,0,1-2.07-2.33,2.13,2.13,0,0,1,4.25.3Zm19.88,2.61c0-.84-.64-.6-1.07-.6h-15c-.48,0-1.19-.26-1.12.71s.76.6,1.23.61c2.42,0,4.84,0,7.25,0s5.06,0,7.59,0C58.31,53.12,59,53.3,58.92,52.39ZM58,46.22H42.67c-.5,0-1-.08-1,.72s.56.65,1,.66h7.41c2.58,0,5.16,0,7.74,0,.44,0,1,.19,1-.63S58.51,46.22,58,46.22Zm.94,3.44c0-.79-.56-.67-1-.67H42.75c-.47,0-1-.14-1,.66s.6.74,1.12.75h15C58.32,50.39,59,50.57,58.93,49.66Zm4.84-3.44a3.48,3.48,0,1,0,3.41,3.49A3.49,3.49,0,0,0,63.77,46.22Zm-.19,5.58a2,2,0,0,1-2-2.21,2.12,2.12,0,0,1,2.15-2.06,2.17,2.17,0,0,1,2.08,2.16A2.14,2.14,0,0,1,63.58,51.8Zm.19-5.58a3.48,3.48,0,1,0,3.41,3.49A3.49,3.49,0,0,0,63.77,46.22Zm-.19,5.58a2,2,0,0,1-2-2.21,2.12,2.12,0,0,1,2.15-2.06,2.17,2.17,0,0,1,2.08,2.16A2.14,2.14,0,0,1,63.58,51.8Zm-4.65-2.14c0-.79-.56-.67-1-.67H42.75c-.47,0-1-.14-1,.66s.6.74,1.12.75h15C58.32,50.39,59,50.57,58.93,49.66ZM58,46.22H42.67c-.5,0-1-.08-1,.72s.56.65,1,.66h7.41c2.58,0,5.16,0,7.74,0,.44,0,1,.19,1-.63S58.51,46.22,58,46.22Zm.93,6.17c0-.84-.64-.6-1.07-.6h-15c-.48,0-1.19-.26-1.12.71s.76.6,1.23.61c2.42,0,4.84,0,7.25,0s5.06,0,7.59,0C58.31,53.12,59,53.3,58.92,52.39ZM37,46.22a3.48,3.48,0,1,0,3.39,3.51A3.48,3.48,0,0,0,37,46.22Zm2,3.56a2.1,2.1,0,0,1-2.18,2,2.27,2.27,0,0,1-2.07-2.33,2.13,2.13,0,0,1,4.25.3Zm-5.5,7.44a2.08,2.08,0,0,0-.11,4.16,2.08,2.08,0,0,0,.11-4.16Zm0,2.83a.65.65,0,0,1-.71-.7c0-.46.23-.68.66-.78a.67.67,0,0,1,.7.71A.69.69,0,0,1,33.51,60.05ZM37,46.22a3.48,3.48,0,1,0,3.39,3.51A3.48,3.48,0,0,0,37,46.22Zm2,3.56a2.1,2.1,0,0,1-2.18,2,2.27,2.27,0,0,1-2.07-2.33,2.13,2.13,0,0,1,4.25.3Zm17.62,7.39c-2.2.06-4.4,0-6.6,0s-4.51.1-6.76,0c-1.79-.11-1.59,1-1.59,2.1s-.23,2.27,1.65,2.22c4.12-.12,8.25,0,12.37,0,2.57,0,2.51,0,2.55-2.64C58.3,57.55,57.87,57.13,56.66,57.17Zm-.82,2.92H44.1c-.54,0-1.12.12-1.07-.78s.53-.84,1.12-.84H55.88c.61,0,1,.07,1.07.87S56.35,60.08,55.84,60.09Zm3.08-7.7c0-.84-.64-.6-1.07-.6h-15c-.48,0-1.19-.26-1.12.71s.76.6,1.23.61c2.42,0,4.84,0,7.25,0s5.06,0,7.59,0C58.31,53.12,59,53.3,58.92,52.39ZM58,46.22H42.67c-.5,0-1-.08-1,.72s.56.65,1,.66h7.41c2.58,0,5.16,0,7.74,0,.44,0,1,.19,1-.63S58.51,46.22,58,46.22Zm.94,3.44c0-.79-.56-.67-1-.67H42.75c-.47,0-1-.14-1,.66s.6.74,1.12.75h15C58.32,50.39,59,50.57,58.93,49.66Zm4.84-3.44a3.48,3.48,0,1,0,3.41,3.49A3.49,3.49,0,0,0,63.77,46.22Zm-.19,5.58a2,2,0,0,1-2-2.21,2.12,2.12,0,0,1,2.15-2.06,2.17,2.17,0,0,1,2.08,2.16A2.14,2.14,0,0,1,63.58,51.8Zm3,5.42a1.91,1.91,0,0,0-2.13,2,2,2,0,0,0,2,2.15,2.1,2.1,0,0,0,2.13-2.27A1.89,1.89,0,0,0,66.54,57.22Zm-.08,2.84c-.45,0-.65-.34-.65-.77a.64.64,0,0,1,.7-.71c.42,0,.66.31.66.79A.68.68,0,0,1,66.46,60.06Zm.08-2.84a1.91,1.91,0,0,0-2.13,2,2,2,0,0,0,2,2.15,2.1,2.1,0,0,0,2.13-2.27A1.89,1.89,0,0,0,66.54,57.22Zm-.08,2.84c-.45,0-.65-.34-.65-.77a.64.64,0,0,1,.7-.71c.42,0,.66.31.66.79A.68.68,0,0,1,66.46,60.06Zm-9.8-2.89c-2.2.06-4.4,0-6.6,0s-4.51.1-6.76,0c-1.79-.11-1.59,1-1.59,2.1s-.23,2.27,1.65,2.22c4.12-.12,8.25,0,12.37,0,2.57,0,2.51,0,2.55-2.64C58.3,57.55,57.87,57.13,56.66,57.17Zm-.82,2.92H44.1c-.54,0-1.12.12-1.07-.78s.53-.84,1.12-.84H55.88c.61,0,1,.07,1.07.87S56.35,60.08,55.84,60.09Zm-22.3-2.87a2.08,2.08,0,0,0-.11,4.16,2.08,2.08,0,0,0,.11-4.16Zm0,2.83a.65.65,0,0,1-.71-.7c0-.46.23-.68.66-.78a.67.67,0,0,1,.7.71A.69.69,0,0,1,33.51,60.05ZM63.77,46.22a3.48,3.48,0,1,0,3.41,3.49A3.49,3.49,0,0,0,63.77,46.22Zm-.19,5.58a2,2,0,0,1-2-2.21,2.12,2.12,0,0,1,2.15-2.06,2.17,2.17,0,0,1,2.08,2.16A2.14,2.14,0,0,1,63.58,51.8Zm-4.65-2.14c0-.79-.56-.67-1-.67H42.75c-.47,0-1-.14-1,.66s.6.74,1.12.75h15C58.32,50.39,59,50.57,58.93,49.66ZM58,46.22H42.67c-.5,0-1-.08-1,.72s.56.65,1,.66h7.41c2.58,0,5.16,0,7.74,0,.44,0,1,.19,1-.63S58.51,46.22,58,46.22Zm.93,6.17c0-.84-.64-.6-1.07-.6h-15c-.48,0-1.19-.26-1.12.71s.76.6,1.23.61c2.42,0,4.84,0,7.25,0s5.06,0,7.59,0C58.31,53.12,59,53.3,58.92,52.39ZM37,46.22a3.48,3.48,0,1,0,3.39,3.51A3.48,3.48,0,0,0,37,46.22Zm2,3.56a2.1,2.1,0,0,1-2.18,2,2.27,2.27,0,0,1-2.07-2.33,2.13,2.13,0,0,1,4.25.3Zm-5.5,7.44a2.08,2.08,0,0,0-.11,4.16,2.08,2.08,0,0,0,.11-4.16Zm0,2.83a.65.65,0,0,1-.71-.7c0-.46.23-.68.66-.78a.67.67,0,0,1,.7.71A.69.69,0,0,1,33.51,60.05ZM37,46.22a3.48,3.48,0,1,0,3.39,3.51A3.48,3.48,0,0,0,37,46.22Zm2,3.56a2.1,2.1,0,0,1-2.18,2,2.27,2.27,0,0,1-2.07-2.33,2.13,2.13,0,0,1,4.25.3Zm17.62,7.39c-2.2.06-4.4,0-6.6,0s-4.51.1-6.76,0c-1.79-.11-1.59,1-1.59,2.1s-.23,2.27,1.65,2.22c4.12-.12,8.25,0,12.37,0,2.57,0,2.51,0,2.55-2.64C58.3,57.55,57.87,57.13,56.66,57.17Zm-.82,2.92H44.1c-.54,0-1.12.12-1.07-.78s.53-.84,1.12-.84H55.88c.61,0,1,.07,1.07.87S56.35,60.08,55.84,60.09Zm3.08-7.7c0-.84-.64-.6-1.07-.6h-15c-.48,0-1.19-.26-1.12.71s.76.6,1.23.61c2.42,0,4.84,0,7.25,0s5.06,0,7.59,0C58.31,53.12,59,53.3,58.92,52.39ZM58,46.22H42.67c-.5,0-1-.08-1,.72s.56.65,1,.66h7.41c2.58,0,5.16,0,7.74,0,.44,0,1,.19,1-.63S58.51,46.22,58,46.22Zm.94,3.44c0-.79-.56-.67-1-.67H42.75c-.47,0-1-.14-1,.66s.6.74,1.12.75h15C58.32,50.39,59,50.57,58.93,49.66Zm4.84-3.44a3.48,3.48,0,1,0,3.41,3.49A3.49,3.49,0,0,0,63.77,46.22Zm-.19,5.58a2,2,0,0,1-2-2.21,2.12,2.12,0,0,1,2.15-2.06,2.17,2.17,0,0,1,2.08,2.16A2.14,2.14,0,0,1,63.58,51.8Zm3,5.42a1.91,1.91,0,0,0-2.13,2,2,2,0,0,0,2,2.15,2.1,2.1,0,0,0,2.13-2.27A1.89,1.89,0,0,0,66.54,57.22Zm-.08,2.84c-.45,0-.65-.34-.65-.77a.64.64,0,0,1,.7-.71c.42,0,.66.31.66.79A.68.68,0,0,1,66.46,60.06Zm.08-2.84a1.91,1.91,0,0,0-2.13,2,2,2,0,0,0,2,2.15,2.1,2.1,0,0,0,2.13-2.27A1.89,1.89,0,0,0,66.54,57.22Zm-.08,2.84c-.45,0-.65-.34-.65-.77a.64.64,0,0,1,.7-.71c.42,0,.66.31.66.79A.68.68,0,0,1,66.46,60.06Zm-9.8-2.89c-2.2.06-4.4,0-6.6,0s-4.51.1-6.76,0c-1.79-.11-1.59,1-1.59,2.1s-.23,2.27,1.65,2.22c4.12-.12,8.25,0,12.37,0,2.57,0,2.51,0,2.55-2.64C58.3,57.55,57.87,57.13,56.66,57.17Zm-.82,2.92H44.1c-.54,0-1.12.12-1.07-.78s.53-.84,1.12-.84H55.88c.61,0,1,.07,1.07.87S56.35,60.08,55.84,60.09Zm-22.3-2.87a2.08,2.08,0,0,0-.11,4.16,2.08,2.08,0,0,0,.11-4.16Zm0,2.83a.65.65,0,0,1-.71-.7c0-.46.23-.68.66-.78a.67.67,0,0,1,.7.71A.69.69,0,0,1,33.51,60.05ZM63.77,46.22a3.48,3.48,0,1,0,3.41,3.49A3.49,3.49,0,0,0,63.77,46.22Zm-.19,5.58a2,2,0,0,1-2-2.21,2.12,2.12,0,0,1,2.15-2.06,2.17,2.17,0,0,1,2.08,2.16A2.14,2.14,0,0,1,63.58,51.8ZM57.9,49H42.75c-.47,0-1-.14-1,.66s.6.74,1.12.75h15c.52,0,1.16.17,1.13-.74S58.37,49,57.9,49ZM42.73,47.6h7.41c2.58,0,5.16,0,7.74,0,.44,0,1,.19,1-.63s-.41-.74-.93-.74H42.67c-.5,0-1-.08-1,.72S42.27,47.59,42.73,47.6Zm15.12,4.19h-15c-.48,0-1.19-.26-1.12.71s.76.6,1.23.61c2.42,0,4.84,0,7.25,0s5.06,0,7.59,0c.52,0,1.16.18,1.13-.73S58.28,51.79,57.85,51.79ZM37,46.22a3.48,3.48,0,1,0,3.39,3.51A3.48,3.48,0,0,0,37,46.22Zm2,3.56a2.1,2.1,0,0,1-2.18,2,2.27,2.27,0,0,1-2.07-2.33,2.13,2.13,0,0,1,4.25.3Zm32.24,5.49c0-.33-.12-.74-.51-.73-1.08,0-.89-.69-.89-1.33a30.89,30.89,0,0,1,0-3.47,5,5,0,0,0-1.49-4.33,5.11,5.11,0,0,1-1.54-2.85c-.32-2-.71-4-1.06-6-.67-3.77-.67-3.77-4.5-4.06-.41,0-.93.11-1-.54s.33-.67.78-.81c1.8-.56,2.21-1.35,2-3.53-.18-1.64-1.28-2.05-2.68-2.05H50.12c-3.47,0-6.94,0-10.41,0-2.3,0-3.14,1.11-2.88,3.39a2.19,2.19,0,0,0,2.05,2.2c.45.06.7.28.66.76s-.41.58-.82.57H37.39c-2,0-2.54.41-2.91,2.35-.26,1.35-.48,2.71-.73,4.06-.51,2.81-.85,5.67-3.18,7.75a2.64,2.64,0,0,0-.59,2c0,1.1.06,2.21,0,3.3s.63,2.36-1.09,2.76c-.12,0-.21.49-.2.75,0,1.54,0,3.09.11,4.62a3.83,3.83,0,0,0,2.61,3.5,1.84,1.84,0,0,1,1.43,2.13c0,1.88.7,2.55,2.6,2.58,1,0,2,0,3,0,2,0,2.73-.7,2.63-2.7-.06-1.3.38-1.54,1.57-1.52,4.85.07,9.7.08,14.54,0,1.33,0,1.83.25,1.77,1.68-.08,1.8.8,2.52,2.66,2.54.88,0,1.76,0,2.64,0,2.34,0,3-.57,3-2.9a1.48,1.48,0,0,1,1.15-1.68,4.17,4.17,0,0,0,2.79-3A21.43,21.43,0,0,0,71.28,55.27ZM56.27,27c1.41.05,2.84.06,4.26,0,1.12-.05,1.25.65,1.24,1.46s-.21,1.39-1.21,1.32c-.82-.05-1.64,0-2.46,0a18,18,0,0,0-1.8,0c-1.11.12-1.66-.11-1.64-1.45S55.29,26.94,56.27,27Zm2.66,4.86c0,.43-.08.74-.62.76s-.79-.23-.8-.77.11-.88.73-.8C58.88,31,58.94,31.35,58.93,31.84Zm-2.82,0c0,.69-.6.51-1,.52-1.76,0-3.53,0-5.29,0s-3.31,0-5,0c-.39,0-1,.17-1-.52s.48-.73,1-.73H55.11C55.63,31.15,56.16,31.14,56.11,31.88Zm-9.72-3.56c0-1.3.6-1.38,1.59-1.34a43.63,43.63,0,0,0,4.43,0c1.2-.07,1.13.64,1.13,1.45s.05,1.44-1.06,1.34c-.82-.07-1.64,0-2.46,0-.66,0-1.31-.05-2,0C47,29.85,46.37,29.71,46.39,28.32Zm-7,1.45c-1.14,0-1.23-.64-1.23-1.47S38.4,26.91,39.4,27c.81.06,1.64,0,2.46,0a13.65,13.65,0,0,0,1.81,0c1.34-.2,1.71.36,1.62,1.63-.06.82-.22,1.19-1.11,1.16C42.59,29.71,41,29.7,39.41,29.77Zm3.05,2c0,.53-.19.81-.77.8s-.65-.29-.65-.73,0-.92.67-.84C42.31,31,42.47,31.27,42.46,31.8Zm-8,10.63c.43-2.54.91-5.07,1.38-7.6.2-1.12,1.07-1.08,1.91-1.08H50c4.07,0,8.15,0,12.22,0,1.3,0,1.84.44,2,1.75.31,2.22.86,4.4,1.23,6.62.07.46.57,1.27-.43,1.44s-.87-.65-1-1.18q-.5-2.76-.9-5.52c-.16-1.06-.55-1.57-1.8-1.56q-11.4.11-22.79,0c-1.24,0-1.62.53-1.78,1.59-.29,2-.66,3.88-.95,5.83-.09.58-.26.93-.92.86C34.06,43.46,34.41,42.81,34.47,42.43Zm27.06,1c-3.85,0-7.71,0-11.56,0s-7.71,0-11.57,0c-1,0-1.35-.2-1.08-1.29A32.66,32.66,0,0,0,38,37.74c.09-.89.49-1.07,1.28-1.06q10.65,0,21.31,0c.78,0,1.19.17,1.28,1.06a34,34,0,0,0,.72,4.39C62.88,43.2,62.56,43.44,61.53,43.43Zm-28.1,1.83c.42-.5,1-.41,1.53-.41H65c1.52,0,3.47,2.16,3.52,3.89,0,1.54-.06,3.09,0,4.63,0,1-.4,1.14-1.25,1.13-5.84,0-11.68,0-17.52,0-5.5,0-11-.08-16.52,0-1.66,0-2.1-.47-1.89-2a9,9,0,0,0,0-2.64C31.05,47.86,32.29,46.61,33.43,45.26Zm6.35,20.07c-.06,1.19-.37,1.74-1.61,1.64-.93-.06-1.87,0-2.81,0s-1.21-.37-1.28-1.29c-.09-1.26.28-1.83,1.6-1.61a8.3,8.3,0,0,0,1.32,0c.39,0,.77,0,1.16,0C39.06,64,39.86,63.9,39.78,65.33ZM64,67c-.33,0-.66,0-1,0s-.88,0-1.32,0c-1.37.12-1.4-.72-1.46-1.77-.08-1.22.59-1.16,1.4-1.13s1.65,0,2.47,0,1.83-.4,1.83,1.23S65.17,67.06,64,67Zm5.9-9.73a1,1,0,0,0,0,.17c.26,4.09-.61,5.44-5.26,5.38-10.25-.13-20.49,0-30.74,0-3.06,0-5.25-3.69-3.87-6.47.37-.75,1.05-.45,1.6-.46,6.17,0,12.34,0,18.51,0s12.23,0,18.34,0C69.62,55.77,70.07,56.1,69.87,57.24Zm-3.33,0a1.91,1.91,0,0,0-2.13,2,2,2,0,0,0,2,2.15,2.1,2.1,0,0,0,2.13-2.27A1.89,1.89,0,0,0,66.54,57.22Zm-.08,2.84c-.45,0-.65-.34-.65-.77a.64.64,0,0,1,.7-.71c.42,0,.66.31.66.79A.68.68,0,0,1,66.46,60.06Zm-2.73-6.89a3.48,3.48,0,1,0-3.5-3.58A3.49,3.49,0,0,0,63.73,53.17Zm-2.12-3.58a2.12,2.12,0,0,1,2.15-2.06,2.17,2.17,0,0,1,2.08,2.16,2.14,2.14,0,0,1-2.26,2.11A2,2,0,0,1,61.61,49.59Zm-18.79.81h15c.52,0,1.16.17,1.13-.74s-.56-.67-1-.67H42.75c-.47,0-1-.14-1,.66S42.3,50.39,42.82,50.4Zm-.09-2.8h7.41c2.58,0,5.16,0,7.74,0,.44,0,1,.19,1-.63s-.41-.74-.93-.74H42.67c-.5,0-1-.08-1,.72S42.27,47.59,42.73,47.6Zm15.12,4.19h-15c-.48,0-1.19-.26-1.12.71s.76.6,1.23.61c2.42,0,4.84,0,7.25,0s5.06,0,7.59,0c.52,0,1.16.18,1.13-.73S58.28,51.79,57.85,51.79Zm-1.19,5.38c-2.2.06-4.4,0-6.6,0s-4.51.1-6.76,0c-1.79-.11-1.59,1-1.59,2.1s-.23,2.27,1.65,2.22c4.12-.12,8.25,0,12.37,0,2.57,0,2.51,0,2.55-2.64C58.3,57.55,57.87,57.13,56.66,57.17Zm-.82,2.92H44.1c-.54,0-1.12.12-1.07-.78s.53-.84,1.12-.84H55.88c.61,0,1,.07,1.07.87S56.35,60.08,55.84,60.09ZM36.92,53.17a3.48,3.48,0,1,0-3.46-3.61A3.5,3.5,0,0,0,36.92,53.17Zm0-5.61a2.13,2.13,0,1,1,0,4.25,2.27,2.27,0,0,1-2.07-2.33A2.1,2.1,0,0,1,36.9,47.56Zm-3.36,9.66a2.08,2.08,0,0,0-.11,4.16,2.08,2.08,0,0,0,.11-4.16Zm0,2.83a.65.65,0,0,1-.71-.7c0-.46.23-.68.66-.78a.67.67,0,0,1,.7.71A.69.69,0,0,1,33.51,60.05ZM37,46.22a3.48,3.48,0,1,0,3.39,3.51A3.48,3.48,0,0,0,37,46.22Zm2,3.56a2.1,2.1,0,0,1-2.18,2,2.27,2.27,0,0,1-2.07-2.33,2.13,2.13,0,0,1,4.25.3Zm19.88,2.61c0-.84-.64-.6-1.07-.6h-15c-.48,0-1.19-.26-1.12.71s.76.6,1.23.61c2.42,0,4.84,0,7.25,0s5.06,0,7.59,0C58.31,53.12,59,53.3,58.92,52.39ZM58,46.22H42.67c-.5,0-1-.08-1,.72s.56.65,1,.66h7.41c2.58,0,5.16,0,7.74,0,.44,0,1,.19,1-.63S58.51,46.22,58,46.22Zm.94,3.44c0-.79-.56-.67-1-.67H42.75c-.47,0-1-.14-1,.66s.6.74,1.12.75h15C58.32,50.39,59,50.57,58.93,49.66Zm4.84-3.44a3.48,3.48,0,1,0,3.41,3.49A3.49,3.49,0,0,0,63.77,46.22Zm-.19,5.58a2,2,0,0,1-2-2.21,2.12,2.12,0,0,1,2.15-2.06,2.17,2.17,0,0,1,2.08,2.16A2.14,2.14,0,0,1,63.58,51.8Zm-30,5.42a2.08,2.08,0,0,0-.11,4.16,2.08,2.08,0,0,0,.11-4.16Zm0,2.83a.65.65,0,0,1-.71-.7c0-.46.23-.68.66-.78a.67.67,0,0,1,.7.71A.69.69,0,0,1,33.51,60.05Zm23.15-2.88c-2.2.06-4.4,0-6.6,0s-4.51.1-6.76,0c-1.79-.11-1.59,1-1.59,2.1s-.23,2.27,1.65,2.22c4.12-.12,8.25,0,12.37,0,2.57,0,2.51,0,2.55-2.64C58.3,57.55,57.87,57.13,56.66,57.17Zm-.82,2.92H44.1c-.54,0-1.12.12-1.07-.78s.53-.84,1.12-.84H55.88c.61,0,1,.07,1.07.87S56.35,60.08,55.84,60.09Zm10.7-2.87a1.91,1.91,0,0,0-2.13,2,2,2,0,0,0,2,2.15,2.1,2.1,0,0,0,2.13-2.27A1.89,1.89,0,0,0,66.54,57.22Zm-.08,2.84c-.45,0-.65-.34-.65-.77a.64.64,0,0,1,.7-.71c.42,0,.66.31.66.79A.68.68,0,0,1,66.46,60.06Zm.08-2.84a1.91,1.91,0,0,0-2.13,2,2,2,0,0,0,2,2.15,2.1,2.1,0,0,0,2.13-2.27A1.89,1.89,0,0,0,66.54,57.22Zm-.08,2.84c-.45,0-.65-.34-.65-.77a.64.64,0,0,1,.7-.71c.42,0,.66.31.66.79A.68.68,0,0,1,66.46,60.06ZM63.77,46.22a3.48,3.48,0,1,0,3.41,3.49A3.49,3.49,0,0,0,63.77,46.22Zm-.19,5.58a2,2,0,0,1-2-2.21,2.12,2.12,0,0,1,2.15-2.06,2.17,2.17,0,0,1,2.08,2.16A2.14,2.14,0,0,1,63.58,51.8Zm-4.65-2.14c0-.79-.56-.67-1-.67H42.75c-.47,0-1-.14-1,.66s.6.74,1.12.75h15C58.32,50.39,59,50.57,58.93,49.66ZM58,46.22H42.67c-.5,0-1-.08-1,.72s.56.65,1,.66h7.41c2.58,0,5.16,0,7.74,0,.44,0,1,.19,1-.63S58.51,46.22,58,46.22Zm.93,6.17c0-.84-.64-.6-1.07-.6h-15c-.48,0-1.19-.26-1.12.71s.76.6,1.23.61c2.42,0,4.84,0,7.25,0s5.06,0,7.59,0C58.31,53.12,59,53.3,58.92,52.39Zm-2.26,4.78c-2.2.06-4.4,0-6.6,0s-4.51.1-6.76,0c-1.79-.11-1.59,1-1.59,2.1s-.23,2.27,1.65,2.22c4.12-.12,8.25,0,12.37,0,2.57,0,2.51,0,2.55-2.64C58.3,57.55,57.87,57.13,56.66,57.17Zm-.82,2.92H44.1c-.54,0-1.12.12-1.07-.78s.53-.84,1.12-.84H55.88c.61,0,1,.07,1.07.87S56.35,60.08,55.84,60.09ZM37,46.22a3.48,3.48,0,1,0,3.39,3.51A3.48,3.48,0,0,0,37,46.22Zm2,3.56a2.1,2.1,0,0,1-2.18,2,2.27,2.27,0,0,1-2.07-2.33,2.13,2.13,0,0,1,4.25.3Zm-5.5,7.44a2.08,2.08,0,0,0-.11,4.16,2.08,2.08,0,0,0,.11-4.16Zm0,2.83a.65.65,0,0,1-.71-.7c0-.46.23-.68.66-.78a.67.67,0,0,1,.7.71A.69.69,0,0,1,33.51,60.05ZM37,46.22a3.48,3.48,0,1,0,3.39,3.51A3.48,3.48,0,0,0,37,46.22Zm2,3.56a2.1,2.1,0,0,1-2.18,2,2.27,2.27,0,0,1-2.07-2.33,2.13,2.13,0,0,1,4.25.3Zm19.88,2.61c0-.84-.64-.6-1.07-.6h-15c-.48,0-1.19-.26-1.12.71s.76.6,1.23.61c2.42,0,4.84,0,7.25,0s5.06,0,7.59,0C58.31,53.12,59,53.3,58.92,52.39ZM58,46.22H42.67c-.5,0-1-.08-1,.72s.56.65,1,.66h7.41c2.58,0,5.16,0,7.74,0,.44,0,1,.19,1-.63S58.51,46.22,58,46.22Zm.94,3.44c0-.79-.56-.67-1-.67H42.75c-.47,0-1-.14-1,.66s.6.74,1.12.75h15C58.32,50.39,59,50.57,58.93,49.66Zm4.84-3.44a3.48,3.48,0,1,0,3.41,3.49A3.49,3.49,0,0,0,63.77,46.22Zm-.19,5.58a2,2,0,0,1-2-2.21,2.12,2.12,0,0,1,2.15-2.06,2.17,2.17,0,0,1,2.08,2.16A2.14,2.14,0,0,1,63.58,51.8Zm-30,5.42a2.08,2.08,0,0,0-.11,4.16,2.08,2.08,0,0,0,.11-4.16Zm0,2.83a.65.65,0,0,1-.71-.7c0-.46.23-.68.66-.78a.67.67,0,0,1,.7.71A.69.69,0,0,1,33.51,60.05Zm23.15-2.88c-2.2.06-4.4,0-6.6,0s-4.51.1-6.76,0c-1.79-.11-1.59,1-1.59,2.1s-.23,2.27,1.65,2.22c4.12-.12,8.25,0,12.37,0,2.57,0,2.51,0,2.55-2.64C58.3,57.55,57.87,57.13,56.66,57.17Zm-.82,2.92H44.1c-.54,0-1.12.12-1.07-.78s.53-.84,1.12-.84H55.88c.61,0,1,.07,1.07.87S56.35,60.08,55.84,60.09Zm10.7-2.87a1.91,1.91,0,0,0-2.13,2,2,2,0,0,0,2,2.15,2.1,2.1,0,0,0,2.13-2.27A1.89,1.89,0,0,0,66.54,57.22Zm-.08,2.84c-.45,0-.65-.34-.65-.77a.64.64,0,0,1,.7-.71c.42,0,.66.31.66.79A.68.68,0,0,1,66.46,60.06Zm.08-2.84a1.91,1.91,0,0,0-2.13,2,2,2,0,0,0,2,2.15,2.1,2.1,0,0,0,2.13-2.27A1.89,1.89,0,0,0,66.54,57.22Zm-.08,2.84c-.45,0-.65-.34-.65-.77a.64.64,0,0,1,.7-.71c.42,0,.66.31.66.79A.68.68,0,0,1,66.46,60.06ZM63.77,46.22a3.48,3.48,0,1,0,3.41,3.49A3.49,3.49,0,0,0,63.77,46.22Zm-.19,5.58a2,2,0,0,1-2-2.21,2.12,2.12,0,0,1,2.15-2.06,2.17,2.17,0,0,1,2.08,2.16A2.14,2.14,0,0,1,63.58,51.8Zm-4.65-2.14c0-.79-.56-.67-1-.67H42.75c-.47,0-1-.14-1,.66s.6.74,1.12.75h15C58.32,50.39,59,50.57,58.93,49.66ZM58,46.22H42.67c-.5,0-1-.08-1,.72s.56.65,1,.66h7.41c2.58,0,5.16,0,7.74,0,.44,0,1,.19,1-.63S58.51,46.22,58,46.22Zm.93,6.17c0-.84-.64-.6-1.07-.6h-15c-.48,0-1.19-.26-1.12.71s.76.6,1.23.61c2.42,0,4.84,0,7.25,0s5.06,0,7.59,0C58.31,53.12,59,53.3,58.92,52.39Zm-2.26,4.78c-2.2.06-4.4,0-6.6,0s-4.51.1-6.76,0c-1.79-.11-1.59,1-1.59,2.1s-.23,2.27,1.65,2.22c4.12-.12,8.25,0,12.37,0,2.57,0,2.51,0,2.55-2.64C58.3,57.55,57.87,57.13,56.66,57.17Zm-.82,2.92H44.1c-.54,0-1.12.12-1.07-.78s.53-.84,1.12-.84H55.88c.61,0,1,.07,1.07.87S56.35,60.08,55.84,60.09ZM37,46.22a3.48,3.48,0,1,0,3.39,3.51A3.48,3.48,0,0,0,37,46.22Zm2,3.56a2.1,2.1,0,0,1-2.18,2,2.27,2.27,0,0,1-2.07-2.33,2.13,2.13,0,0,1,4.25.3Zm-5.5,7.44a2.08,2.08,0,0,0-.11,4.16,2.08,2.08,0,0,0,.11-4.16Zm0,2.83a.65.65,0,0,1-.71-.7c0-.46.23-.68.66-.78a.67.67,0,0,1,.7.71A.69.69,0,0,1,33.51,60.05ZM37,46.22a3.48,3.48,0,1,0,3.39,3.51A3.48,3.48,0,0,0,37,46.22Zm2,3.56a2.1,2.1,0,0,1-2.18,2,2.27,2.27,0,0,1-2.07-2.33,2.13,2.13,0,0,1,4.25.3Zm19.88,2.61c0-.84-.64-.6-1.07-.6h-15c-.48,0-1.19-.26-1.12.71s.76.6,1.23.61c2.42,0,4.84,0,7.25,0s5.06,0,7.59,0C58.31,53.12,59,53.3,58.92,52.39ZM58,46.22H42.67c-.5,0-1-.08-1,.72s.56.65,1,.66h7.41c2.58,0,5.16,0,7.74,0,.44,0,1,.19,1-.63S58.51,46.22,58,46.22Zm.94,3.44c0-.79-.56-.67-1-.67H42.75c-.47,0-1-.14-1,.66s.6.74,1.12.75h15C58.32,50.39,59,50.57,58.93,49.66Zm4.84-3.44a3.48,3.48,0,1,0,3.41,3.49A3.49,3.49,0,0,0,63.77,46.22Zm-.19,5.58a2,2,0,0,1-2-2.21,2.12,2.12,0,0,1,2.15-2.06,2.17,2.17,0,0,1,2.08,2.16A2.14,2.14,0,0,1,63.58,51.8Zm.19-5.58a3.48,3.48,0,1,0,3.41,3.49A3.49,3.49,0,0,0,63.77,46.22Zm-.19,5.58a2,2,0,0,1-2-2.21,2.12,2.12,0,0,1,2.15-2.06,2.17,2.17,0,0,1,2.08,2.16A2.14,2.14,0,0,1,63.58,51.8Zm-4.65-2.14c0-.79-.56-.67-1-.67H42.75c-.47,0-1-.14-1,.66s.6.74,1.12.75h15C58.32,50.39,59,50.57,58.93,49.66ZM58,46.22H42.67c-.5,0-1-.08-1,.72s.56.65,1,.66h7.41c2.58,0,5.16,0,7.74,0,.44,0,1,.19,1-.63S58.51,46.22,58,46.22Zm.93,6.17c0-.84-.64-.6-1.07-.6h-15c-.48,0-1.19-.26-1.12.71s.76.6,1.23.61c2.42,0,4.84,0,7.25,0s5.06,0,7.59,0C58.31,53.12,59,53.3,58.92,52.39ZM37,46.22a3.48,3.48,0,1,0,3.39,3.51A3.48,3.48,0,0,0,37,46.22Zm2,3.56a2.1,2.1,0,0,1-2.18,2,2.27,2.27,0,0,1-2.07-2.33,2.13,2.13,0,0,1,4.25.3Zm-2-3.56a3.48,3.48,0,1,0,3.39,3.51A3.48,3.48,0,0,0,37,46.22Zm2,3.56a2.1,2.1,0,0,1-2.18,2,2.27,2.27,0,0,1-2.07-2.33,2.13,2.13,0,0,1,4.25.3Zm19.88,2.61c0-.84-.64-.6-1.07-.6h-15c-.48,0-1.19-.26-1.12.71s.76.6,1.23.61c2.42,0,4.84,0,7.25,0s5.06,0,7.59,0C58.31,53.12,59,53.3,58.92,52.39ZM58,46.22H42.67c-.5,0-1-.08-1,.72s.56.65,1,.66h7.41c2.58,0,5.16,0,7.74,0,.44,0,1,.19,1-.63S58.51,46.22,58,46.22Zm.94,3.44c0-.79-.56-.67-1-.67H42.75c-.47,0-1-.14-1,.66s.6.74,1.12.75h15C58.32,50.39,59,50.57,58.93,49.66Zm4.84-3.44a3.48,3.48,0,1,0,3.41,3.49A3.49,3.49,0,0,0,63.77,46.22Zm-.19,5.58a2,2,0,0,1-2-2.21,2.12,2.12,0,0,1,2.15-2.06,2.17,2.17,0,0,1,2.08,2.16A2.14,2.14,0,0,1,63.58,51.8Zm.19-5.58a3.48,3.48,0,1,0,3.41,3.49A3.49,3.49,0,0,0,63.77,46.22Zm-.19,5.58a2,2,0,0,1-2-2.21,2.12,2.12,0,0,1,2.15-2.06,2.17,2.17,0,0,1,2.08,2.16A2.14,2.14,0,0,1,63.58,51.8Zm-4.65-2.14c0-.79-.56-.67-1-.67H42.75c-.47,0-1-.14-1,.66s.6.74,1.12.75h15C58.32,50.39,59,50.57,58.93,49.66ZM58,46.22H42.67c-.5,0-1-.08-1,.72s.56.65,1,.66h7.41c2.58,0,5.16,0,7.74,0,.44,0,1,.19,1-.63S58.51,46.22,58,46.22Zm.93,6.17c0-.84-.64-.6-1.07-.6h-15c-.48,0-1.19-.26-1.12.71s.76.6,1.23.61c2.42,0,4.84,0,7.25,0s5.06,0,7.59,0C58.31,53.12,59,53.3,58.92,52.39ZM37,46.22a3.48,3.48,0,1,0,3.39,3.51A3.48,3.48,0,0,0,37,46.22Zm2,3.56a2.1,2.1,0,0,1-2.18,2,2.27,2.27,0,0,1-2.07-2.33,2.13,2.13,0,0,1,4.25.3Z" transform="translate(-3.99 -4)"/><path class="cls-1" d="M37,46.22a3.48,3.48,0,1,0,3.39,3.51A3.48,3.48,0,0,0,37,46.22Zm2,3.56a2.1,2.1,0,0,1-2.18,2,2.27,2.27,0,0,1-2.07-2.33,2.13,2.13,0,0,1,4.25.3Zm19.88,2.61c0-.84-.64-.6-1.07-.6h-15c-.48,0-1.19-.26-1.12.71s.76.6,1.23.61c2.42,0,4.84,0,7.25,0s5.06,0,7.59,0C58.31,53.12,59,53.3,58.92,52.39ZM58,46.22H42.67c-.5,0-1-.08-1,.72s.56.65,1,.66h7.41c2.58,0,5.16,0,7.74,0,.44,0,1,.19,1-.63S58.51,46.22,58,46.22Zm.94,3.44c0-.79-.56-.67-1-.67H42.75c-.47,0-1-.14-1,.66s.6.74,1.12.75h15C58.32,50.39,59,50.57,58.93,49.66Zm4.84-3.44a3.48,3.48,0,1,0,3.41,3.49A3.49,3.49,0,0,0,63.77,46.22Zm-.19,5.58a2,2,0,0,1-2-2.21,2.12,2.12,0,0,1,2.15-2.06,2.17,2.17,0,0,1,2.08,2.16A2.14,2.14,0,0,1,63.58,51.8Zm.19-5.58a3.48,3.48,0,1,0,3.41,3.49A3.49,3.49,0,0,0,63.77,46.22Zm-.19,5.58a2,2,0,0,1-2-2.21,2.12,2.12,0,0,1,2.15-2.06,2.17,2.17,0,0,1,2.08,2.16A2.14,2.14,0,0,1,63.58,51.8Zm-4.65-2.14c0-.79-.56-.67-1-.67H42.75c-.47,0-1-.14-1,.66s.6.74,1.12.75h15C58.32,50.39,59,50.57,58.93,49.66ZM58,46.22H42.67c-.5,0-1-.08-1,.72s.56.65,1,.66h7.41c2.58,0,5.16,0,7.74,0,.44,0,1,.19,1-.63S58.51,46.22,58,46.22Zm.93,6.17c0-.84-.64-.6-1.07-.6h-15c-.48,0-1.19-.26-1.12.71s.76.6,1.23.61c2.42,0,4.84,0,7.25,0s5.06,0,7.59,0C58.31,53.12,59,53.3,58.92,52.39ZM37,46.22a3.48,3.48,0,1,0,3.39,3.51A3.48,3.48,0,0,0,37,46.22Zm2,3.56a2.1,2.1,0,0,1-2.18,2,2.27,2.27,0,0,1-2.07-2.33,2.13,2.13,0,0,1,4.25.3Zm-2-3.56a3.48,3.48,0,1,0,3.39,3.51A3.48,3.48,0,0,0,37,46.22Zm2,3.56a2.1,2.1,0,0,1-2.18,2,2.27,2.27,0,0,1-2.07-2.33,2.13,2.13,0,0,1,4.25.3Zm19.88,2.61c0-.84-.64-.6-1.07-.6h-15c-.48,0-1.19-.26-1.12.71s.76.6,1.23.61c2.42,0,4.84,0,7.25,0s5.06,0,7.59,0C58.31,53.12,59,53.3,58.92,52.39ZM58,46.22H42.67c-.5,0-1-.08-1,.72s.56.65,1,.66h7.41c2.58,0,5.16,0,7.74,0,.44,0,1,.19,1-.63S58.51,46.22,58,46.22Zm.94,3.44c0-.79-.56-.67-1-.67H42.75c-.47,0-1-.14-1,.66s.6.74,1.12.75h15C58.32,50.39,59,50.57,58.93,49.66Zm4.84-3.44a3.48,3.48,0,1,0,3.41,3.49A3.49,3.49,0,0,0,63.77,46.22Zm-.19,5.58a2,2,0,0,1-2-2.21,2.12,2.12,0,0,1,2.15-2.06,2.17,2.17,0,0,1,2.08,2.16A2.14,2.14,0,0,1,63.58,51.8Zm.19-5.58a3.48,3.48,0,1,0,3.41,3.49A3.49,3.49,0,0,0,63.77,46.22Zm-.19,5.58a2,2,0,0,1-2-2.21,2.12,2.12,0,0,1,2.15-2.06,2.17,2.17,0,0,1,2.08,2.16A2.14,2.14,0,0,1,63.58,51.8Zm-4.65-2.14c0-.79-.56-.67-1-.67H42.75c-.47,0-1-.14-1,.66s.6.74,1.12.75h15C58.32,50.39,59,50.57,58.93,49.66ZM58,46.22H42.67c-.5,0-1-.08-1,.72s.56.65,1,.66h7.41c2.58,0,5.16,0,7.74,0,.44,0,1,.19,1-.63S58.51,46.22,58,46.22Zm.93,6.17c0-.84-.64-.6-1.07-.6h-15c-.48,0-1.19-.26-1.12.71s.76.6,1.23.61c2.42,0,4.84,0,7.25,0s5.06,0,7.59,0C58.31,53.12,59,53.3,58.92,52.39ZM37,46.22a3.48,3.48,0,1,0,3.39,3.51A3.48,3.48,0,0,0,37,46.22Zm2,3.56a2.1,2.1,0,0,1-2.18,2,2.27,2.27,0,0,1-2.07-2.33,2.13,2.13,0,0,1,4.25.3Zm-5.5,7.44a2.08,2.08,0,0,0-.11,4.16,2.08,2.08,0,0,0,.11-4.16Zm0,2.83a.65.65,0,0,1-.71-.7c0-.46.23-.68.66-.78a.67.67,0,0,1,.7.71A.69.69,0,0,1,33.51,60.05ZM37,46.22a3.48,3.48,0,1,0,3.39,3.51A3.48,3.48,0,0,0,37,46.22Zm2,3.56a2.1,2.1,0,0,1-2.18,2,2.27,2.27,0,0,1-2.07-2.33,2.13,2.13,0,0,1,4.25.3Zm17.62,7.39c-2.2.06-4.4,0-6.6,0s-4.51.1-6.76,0c-1.79-.11-1.59,1-1.59,2.1s-.23,2.27,1.65,2.22c4.12-.12,8.25,0,12.37,0,2.57,0,2.51,0,2.55-2.64C58.3,57.55,57.87,57.13,56.66,57.17Zm-.82,2.92H44.1c-.54,0-1.12.12-1.07-.78s.53-.84,1.12-.84H55.88c.61,0,1,.07,1.07.87S56.35,60.08,55.84,60.09Zm3.08-7.7c0-.84-.64-.6-1.07-.6h-15c-.48,0-1.19-.26-1.12.71s.76.6,1.23.61c2.42,0,4.84,0,7.25,0s5.06,0,7.59,0C58.31,53.12,59,53.3,58.92,52.39ZM58,46.22H42.67c-.5,0-1-.08-1,.72s.56.65,1,.66h7.41c2.58,0,5.16,0,7.74,0,.44,0,1,.19,1-.63S58.51,46.22,58,46.22Zm.94,3.44c0-.79-.56-.67-1-.67H42.75c-.47,0-1-.14-1,.66s.6.74,1.12.75h15C58.32,50.39,59,50.57,58.93,49.66Zm4.84-3.44a3.48,3.48,0,1,0,3.41,3.49A3.49,3.49,0,0,0,63.77,46.22Zm-.19,5.58a2,2,0,0,1-2-2.21,2.12,2.12,0,0,1,2.15-2.06,2.17,2.17,0,0,1,2.08,2.16A2.14,2.14,0,0,1,63.58,51.8Zm3,5.42a1.91,1.91,0,0,0-2.13,2,2,2,0,0,0,2,2.15,2.1,2.1,0,0,0,2.13-2.27A1.89,1.89,0,0,0,66.54,57.22Zm-.08,2.84c-.45,0-.65-.34-.65-.77a.64.64,0,0,1,.7-.71c.42,0,.66.31.66.79A.68.68,0,0,1,66.46,60.06Zm.08-2.84a1.91,1.91,0,0,0-2.13,2,2,2,0,0,0,2,2.15,2.1,2.1,0,0,0,2.13-2.27A1.89,1.89,0,0,0,66.54,57.22Zm-.08,2.84c-.45,0-.65-.34-.65-.77a.64.64,0,0,1,.7-.71c.42,0,.66.31.66.79A.68.68,0,0,1,66.46,60.06Zm-9.8-2.89c-2.2.06-4.4,0-6.6,0s-4.51.1-6.76,0c-1.79-.11-1.59,1-1.59,2.1s-.23,2.27,1.65,2.22c4.12-.12,8.25,0,12.37,0,2.57,0,2.51,0,2.55-2.64C58.3,57.55,57.87,57.13,56.66,57.17Zm-.82,2.92H44.1c-.54,0-1.12.12-1.07-.78s.53-.84,1.12-.84H55.88c.61,0,1,.07,1.07.87S56.35,60.08,55.84,60.09Zm-22.3-2.87a2.08,2.08,0,0,0-.11,4.16,2.08,2.08,0,0,0,.11-4.16Zm0,2.83a.65.65,0,0,1-.71-.7c0-.46.23-.68.66-.78a.67.67,0,0,1,.7.71A.69.69,0,0,1,33.51,60.05ZM63.77,46.22a3.48,3.48,0,1,0,3.41,3.49A3.49,3.49,0,0,0,63.77,46.22Zm-.19,5.58a2,2,0,0,1-2-2.21,2.12,2.12,0,0,1,2.15-2.06,2.17,2.17,0,0,1,2.08,2.16A2.14,2.14,0,0,1,63.58,51.8Zm-4.65-2.14c0-.79-.56-.67-1-.67H42.75c-.47,0-1-.14-1,.66s.6.74,1.12.75h15C58.32,50.39,59,50.57,58.93,49.66ZM58,46.22H42.67c-.5,0-1-.08-1,.72s.56.65,1,.66h7.41c2.58,0,5.16,0,7.74,0,.44,0,1,.19,1-.63S58.51,46.22,58,46.22Zm.93,6.17c0-.84-.64-.6-1.07-.6h-15c-.48,0-1.19-.26-1.12.71s.76.6,1.23.61c2.42,0,4.84,0,7.25,0s5.06,0,7.59,0C58.31,53.12,59,53.3,58.92,52.39ZM37,46.22a3.48,3.48,0,1,0,3.39,3.51A3.48,3.48,0,0,0,37,46.22Zm2,3.56a2.1,2.1,0,0,1-2.18,2,2.27,2.27,0,0,1-2.07-2.33,2.13,2.13,0,0,1,4.25.3Zm-5.5,7.44a2.08,2.08,0,0,0-.11,4.16,2.08,2.08,0,0,0,.11-4.16Zm0,2.83a.65.65,0,0,1-.71-.7c0-.46.23-.68.66-.78a.67.67,0,0,1,.7.71A.69.69,0,0,1,33.51,60.05ZM37,46.22a3.48,3.48,0,1,0,3.39,3.51A3.48,3.48,0,0,0,37,46.22Zm2,3.56a2.1,2.1,0,0,1-2.18,2,2.27,2.27,0,0,1-2.07-2.33,2.13,2.13,0,0,1,4.25.3Zm17.62,7.39c-2.2.06-4.4,0-6.6,0s-4.51.1-6.76,0c-1.79-.11-1.59,1-1.59,2.1s-.23,2.27,1.65,2.22c4.12-.12,8.25,0,12.37,0,2.57,0,2.51,0,2.55-2.64C58.3,57.55,57.87,57.13,56.66,57.17Zm-.82,2.92H44.1c-.54,0-1.12.12-1.07-.78s.53-.84,1.12-.84H55.88c.61,0,1,.07,1.07.87S56.35,60.08,55.84,60.09Zm3.08-7.7c0-.84-.64-.6-1.07-.6h-15c-.48,0-1.19-.26-1.12.71s.76.6,1.23.61c2.42,0,4.84,0,7.25,0s5.06,0,7.59,0C58.31,53.12,59,53.3,58.92,52.39ZM58,46.22H42.67c-.5,0-1-.08-1,.72s.56.65,1,.66h7.41c2.58,0,5.16,0,7.74,0,.44,0,1,.19,1-.63S58.51,46.22,58,46.22Zm.94,3.44c0-.79-.56-.67-1-.67H42.75c-.47,0-1-.14-1,.66s.6.74,1.12.75h15C58.32,50.39,59,50.57,58.93,49.66Zm4.84-3.44a3.48,3.48,0,1,0,3.41,3.49A3.49,3.49,0,0,0,63.77,46.22Zm-.19,5.58a2,2,0,0,1-2-2.21,2.12,2.12,0,0,1,2.15-2.06,2.17,2.17,0,0,1,2.08,2.16A2.14,2.14,0,0,1,63.58,51.8Zm3,5.42a1.91,1.91,0,0,0-2.13,2,2,2,0,0,0,2,2.15,2.1,2.1,0,0,0,2.13-2.27A1.89,1.89,0,0,0,66.54,57.22Zm-.08,2.84c-.45,0-.65-.34-.65-.77a.64.64,0,0,1,.7-.71c.42,0,.66.31.66.79A.68.68,0,0,1,66.46,60.06Zm.08-2.84a1.91,1.91,0,0,0-2.13,2,2,2,0,0,0,2,2.15,2.1,2.1,0,0,0,2.13-2.27A1.89,1.89,0,0,0,66.54,57.22Zm-.08,2.84c-.45,0-.65-.34-.65-.77a.64.64,0,0,1,.7-.71c.42,0,.66.31.66.79A.68.68,0,0,1,66.46,60.06Zm-9.8-2.89c-2.2.06-4.4,0-6.6,0s-4.51.1-6.76,0c-1.79-.11-1.59,1-1.59,2.1s-.23,2.27,1.65,2.22c4.12-.12,8.25,0,12.37,0,2.57,0,2.51,0,2.55-2.64C58.3,57.55,57.87,57.13,56.66,57.17Zm-.82,2.92H44.1c-.54,0-1.12.12-1.07-.78s.53-.84,1.12-.84H55.88c.61,0,1,.07,1.07.87S56.35,60.08,55.84,60.09Zm-22.3-2.87a2.08,2.08,0,0,0-.11,4.16,2.08,2.08,0,0,0,.11-4.16Zm0,2.83a.65.65,0,0,1-.71-.7c0-.46.23-.68.66-.78a.67.67,0,0,1,.7.71A.69.69,0,0,1,33.51,60.05ZM63.77,46.22a3.48,3.48,0,1,0,3.41,3.49A3.49,3.49,0,0,0,63.77,46.22Zm-.19,5.58a2,2,0,0,1-2-2.21,2.12,2.12,0,0,1,2.15-2.06,2.17,2.17,0,0,1,2.08,2.16A2.14,2.14,0,0,1,63.58,51.8ZM57.9,49H42.75c-.47,0-1-.14-1,.66s.6.74,1.12.75h15c.52,0,1.16.17,1.13-.74S58.37,49,57.9,49ZM42.73,47.6h7.41c2.58,0,5.16,0,7.74,0,.44,0,1,.19,1-.63s-.41-.74-.93-.74H42.67c-.5,0-1-.08-1,.72S42.27,47.59,42.73,47.6Zm15.12,4.19h-15c-.48,0-1.19-.26-1.12.71s.76.6,1.23.61c2.42,0,4.84,0,7.25,0s5.06,0,7.59,0c.52,0,1.16.18,1.13-.73S58.28,51.79,57.85,51.79ZM37,46.22a3.48,3.48,0,1,0,3.39,3.51A3.48,3.48,0,0,0,37,46.22Zm2,3.56a2.1,2.1,0,0,1-2.18,2,2.27,2.27,0,0,1-2.07-2.33,2.13,2.13,0,0,1,4.25.3Zm32.24,5.49c0-.33-.12-.74-.51-.73-1.08,0-.89-.69-.89-1.33a30.89,30.89,0,0,1,0-3.47,5,5,0,0,0-1.49-4.33,5.11,5.11,0,0,1-1.54-2.85c-.32-2-.71-4-1.06-6-.67-3.77-.67-3.77-4.5-4.06-.41,0-.93.11-1-.54s.33-.67.78-.81c1.8-.56,2.21-1.35,2-3.53-.18-1.64-1.28-2.05-2.68-2.05H50.12c-3.47,0-6.94,0-10.41,0-2.3,0-3.14,1.11-2.88,3.39a2.19,2.19,0,0,0,2.05,2.2c.45.06.7.28.66.76s-.41.58-.82.57H37.39c-2,0-2.54.41-2.91,2.35-.26,1.35-.48,2.71-.73,4.06-.51,2.81-.85,5.67-3.18,7.75a2.64,2.64,0,0,0-.59,2c0,1.1.06,2.21,0,3.3s.63,2.36-1.09,2.76c-.12,0-.21.49-.2.75,0,1.54,0,3.09.11,4.62a3.83,3.83,0,0,0,2.61,3.5,1.84,1.84,0,0,1,1.43,2.13c0,1.88.7,2.55,2.6,2.58,1,0,2,0,3,0,2,0,2.73-.7,2.63-2.7-.06-1.3.38-1.54,1.57-1.52,4.85.07,9.7.08,14.54,0,1.33,0,1.83.25,1.77,1.68-.08,1.8.8,2.52,2.66,2.54.88,0,1.76,0,2.64,0,2.34,0,3-.57,3-2.9a1.48,1.48,0,0,1,1.15-1.68,4.17,4.17,0,0,0,2.79-3A21.43,21.43,0,0,0,71.28,55.27ZM56.27,27c1.41.05,2.84.06,4.26,0,1.12-.05,1.25.65,1.24,1.46s-.21,1.39-1.21,1.32c-.82-.05-1.64,0-2.46,0a18,18,0,0,0-1.8,0c-1.11.12-1.66-.11-1.64-1.45S55.29,26.94,56.27,27Zm2.66,4.86c0,.43-.08.74-.62.76s-.79-.23-.8-.77.11-.88.73-.8C58.88,31,58.94,31.35,58.93,31.84Zm-2.82,0c0,.69-.6.51-1,.52-1.76,0-3.53,0-5.29,0s-3.31,0-5,0c-.39,0-1,.17-1-.52s.48-.73,1-.73H55.11C55.63,31.15,56.16,31.14,56.11,31.88Zm-9.72-3.56c0-1.3.6-1.38,1.59-1.34a43.63,43.63,0,0,0,4.43,0c1.2-.07,1.13.64,1.13,1.45s.05,1.44-1.06,1.34c-.82-.07-1.64,0-2.46,0-.66,0-1.31-.05-2,0C47,29.85,46.37,29.71,46.39,28.32Zm-7,1.45c-1.14,0-1.23-.64-1.23-1.47S38.4,26.91,39.4,27c.81.06,1.64,0,2.46,0a13.65,13.65,0,0,0,1.81,0c1.34-.2,1.71.36,1.62,1.63-.06.82-.22,1.19-1.11,1.16C42.59,29.71,41,29.7,39.41,29.77Zm3.05,2c0,.53-.19.81-.77.8s-.65-.29-.65-.73,0-.92.67-.84C42.31,31,42.47,31.27,42.46,31.8Zm-8,10.63c.43-2.54.91-5.07,1.38-7.6.2-1.12,1.07-1.08,1.91-1.08H50c4.07,0,8.15,0,12.22,0,1.3,0,1.84.44,2,1.75.31,2.22.86,4.4,1.23,6.62.07.46.57,1.27-.43,1.44s-.87-.65-1-1.18q-.5-2.76-.9-5.52c-.16-1.06-.55-1.57-1.8-1.56q-11.4.11-22.79,0c-1.24,0-1.62.53-1.78,1.59-.29,2-.66,3.88-.95,5.83-.09.58-.26.93-.92.86C34.06,43.46,34.41,42.81,34.47,42.43Zm27.06,1c-3.85,0-7.71,0-11.56,0s-7.71,0-11.57,0c-1,0-1.35-.2-1.08-1.29A32.66,32.66,0,0,0,38,37.74c.09-.89.49-1.07,1.28-1.06q10.65,0,21.31,0c.78,0,1.19.17,1.28,1.06a34,34,0,0,0,.72,4.39C62.88,43.2,62.56,43.44,61.53,43.43Zm-28.1,1.83c.42-.5,1-.41,1.53-.41H65c1.52,0,3.47,2.16,3.52,3.89,0,1.54-.06,3.09,0,4.63,0,1-.4,1.14-1.25,1.13-5.84,0-11.68,0-17.52,0-5.5,0-11-.08-16.52,0-1.66,0-2.1-.47-1.89-2a9,9,0,0,0,0-2.64C31.05,47.86,32.29,46.61,33.43,45.26Zm6.35,20.07c-.06,1.19-.37,1.74-1.61,1.64-.93-.06-1.87,0-2.81,0s-1.21-.37-1.28-1.29c-.09-1.26.28-1.83,1.6-1.61a8.3,8.3,0,0,0,1.32,0c.39,0,.77,0,1.16,0C39.06,64,39.86,63.9,39.78,65.33ZM64,67c-.33,0-.66,0-1,0s-.88,0-1.32,0c-1.37.12-1.4-.72-1.46-1.77-.08-1.22.59-1.16,1.4-1.13s1.65,0,2.47,0,1.83-.4,1.83,1.23S65.17,67.06,64,67Zm5.9-9.73a1,1,0,0,0,0,.17c.26,4.09-.61,5.44-5.26,5.38-10.25-.13-20.49,0-30.74,0-3.06,0-5.25-3.69-3.87-6.47.37-.75,1.05-.45,1.6-.46,6.17,0,12.34,0,18.51,0s12.23,0,18.34,0C69.62,55.77,70.07,56.1,69.87,57.24Zm-3.33,0a1.91,1.91,0,0,0-2.13,2,2,2,0,0,0,2,2.15,2.1,2.1,0,0,0,2.13-2.27A1.89,1.89,0,0,0,66.54,57.22Zm-.08,2.84c-.45,0-.65-.34-.65-.77a.64.64,0,0,1,.7-.71c.42,0,.66.31.66.79A.68.68,0,0,1,66.46,60.06Zm-2.73-6.89a3.48,3.48,0,1,0-3.5-3.58A3.49,3.49,0,0,0,63.73,53.17Zm-2.12-3.58a2.12,2.12,0,0,1,2.15-2.06,2.17,2.17,0,0,1,2.08,2.16,2.14,2.14,0,0,1-2.26,2.11A2,2,0,0,1,61.61,49.59Zm-18.79.81h15c.52,0,1.16.17,1.13-.74s-.56-.67-1-.67H42.75c-.47,0-1-.14-1,.66S42.3,50.39,42.82,50.4Zm-.09-2.8h7.41c2.58,0,5.16,0,7.74,0,.44,0,1,.19,1-.63s-.41-.74-.93-.74H42.67c-.5,0-1-.08-1,.72S42.27,47.59,42.73,47.6Zm15.12,4.19h-15c-.48,0-1.19-.26-1.12.71s.76.6,1.23.61c2.42,0,4.84,0,7.25,0s5.06,0,7.59,0c.52,0,1.16.18,1.13-.73S58.28,51.79,57.85,51.79Zm-1.19,5.38c-2.2.06-4.4,0-6.6,0s-4.51.1-6.76,0c-1.79-.11-1.59,1-1.59,2.1s-.23,2.27,1.65,2.22c4.12-.12,8.25,0,12.37,0,2.57,0,2.51,0,2.55-2.64C58.3,57.55,57.87,57.13,56.66,57.17Zm-.82,2.92H44.1c-.54,0-1.12.12-1.07-.78s.53-.84,1.12-.84H55.88c.61,0,1,.07,1.07.87S56.35,60.08,55.84,60.09ZM36.92,53.17a3.48,3.48,0,1,0-3.46-3.61A3.5,3.5,0,0,0,36.92,53.17Zm0-5.61a2.13,2.13,0,1,1,0,4.25,2.27,2.27,0,0,1-2.07-2.33A2.1,2.1,0,0,1,36.9,47.56Zm-3.36,9.66a2.08,2.08,0,0,0-.11,4.16,2.08,2.08,0,0,0,.11-4.16Zm0,2.83a.65.65,0,0,1-.71-.7c0-.46.23-.68.66-.78a.67.67,0,0,1,.7.71A.69.69,0,0,1,33.51,60.05ZM37,46.22a3.48,3.48,0,1,0,3.39,3.51A3.48,3.48,0,0,0,37,46.22Zm2,3.56a2.1,2.1,0,0,1-2.18,2,2.27,2.27,0,0,1-2.07-2.33,2.13,2.13,0,0,1,4.25.3Zm19.88,2.61c0-.84-.64-.6-1.07-.6h-15c-.48,0-1.19-.26-1.12.71s.76.6,1.23.61c2.42,0,4.84,0,7.25,0s5.06,0,7.59,0C58.31,53.12,59,53.3,58.92,52.39ZM58,46.22H42.67c-.5,0-1-.08-1,.72s.56.65,1,.66h7.41c2.58,0,5.16,0,7.74,0,.44,0,1,.19,1-.63S58.51,46.22,58,46.22Zm.94,3.44c0-.79-.56-.67-1-.67H42.75c-.47,0-1-.14-1,.66s.6.74,1.12.75h15C58.32,50.39,59,50.57,58.93,49.66Zm4.84-3.44a3.48,3.48,0,1,0,3.41,3.49A3.49,3.49,0,0,0,63.77,46.22Zm-.19,5.58a2,2,0,0,1-2-2.21,2.12,2.12,0,0,1,2.15-2.06,2.17,2.17,0,0,1,2.08,2.16A2.14,2.14,0,0,1,63.58,51.8Zm-30,5.42a2.08,2.08,0,0,0-.11,4.16,2.08,2.08,0,0,0,.11-4.16Zm0,2.83a.65.65,0,0,1-.71-.7c0-.46.23-.68.66-.78a.67.67,0,0,1,.7.71A.69.69,0,0,1,33.51,60.05Zm23.15-2.88c-2.2.06-4.4,0-6.6,0s-4.51.1-6.76,0c-1.79-.11-1.59,1-1.59,2.1s-.23,2.27,1.65,2.22c4.12-.12,8.25,0,12.37,0,2.57,0,2.51,0,2.55-2.64C58.3,57.55,57.87,57.13,56.66,57.17Zm-.82,2.92H44.1c-.54,0-1.12.12-1.07-.78s.53-.84,1.12-.84H55.88c.61,0,1,.07,1.07.87S56.35,60.08,55.84,60.09Zm10.7-2.87a1.91,1.91,0,0,0-2.13,2,2,2,0,0,0,2,2.15,2.1,2.1,0,0,0,2.13-2.27A1.89,1.89,0,0,0,66.54,57.22Zm-.08,2.84c-.45,0-.65-.34-.65-.77a.64.64,0,0,1,.7-.71c.42,0,.66.31.66.79A.68.68,0,0,1,66.46,60.06Zm.08-2.84a1.91,1.91,0,0,0-2.13,2,2,2,0,0,0,2,2.15,2.1,2.1,0,0,0,2.13-2.27A1.89,1.89,0,0,0,66.54,57.22Zm-.08,2.84c-.45,0-.65-.34-.65-.77a.64.64,0,0,1,.7-.71c.42,0,.66.31.66.79A.68.68,0,0,1,66.46,60.06ZM63.77,46.22a3.48,3.48,0,1,0,3.41,3.49A3.49,3.49,0,0,0,63.77,46.22Zm-.19,5.58a2,2,0,0,1-2-2.21,2.12,2.12,0,0,1,2.15-2.06,2.17,2.17,0,0,1,2.08,2.16A2.14,2.14,0,0,1,63.58,51.8Zm-4.65-2.14c0-.79-.56-.67-1-.67H42.75c-.47,0-1-.14-1,.66s.6.74,1.12.75h15C58.32,50.39,59,50.57,58.93,49.66ZM58,46.22H42.67c-.5,0-1-.08-1,.72s.56.65,1,.66h7.41c2.58,0,5.16,0,7.74,0,.44,0,1,.19,1-.63S58.51,46.22,58,46.22Zm.93,6.17c0-.84-.64-.6-1.07-.6h-15c-.48,0-1.19-.26-1.12.71s.76.6,1.23.61c2.42,0,4.84,0,7.25,0s5.06,0,7.59,0C58.31,53.12,59,53.3,58.92,52.39Zm-2.26,4.78c-2.2.06-4.4,0-6.6,0s-4.51.1-6.76,0c-1.79-.11-1.59,1-1.59,2.1s-.23,2.27,1.65,2.22c4.12-.12,8.25,0,12.37,0,2.57,0,2.51,0,2.55-2.64C58.3,57.55,57.87,57.13,56.66,57.17Zm-.82,2.92H44.1c-.54,0-1.12.12-1.07-.78s.53-.84,1.12-.84H55.88c.61,0,1,.07,1.07.87S56.35,60.08,55.84,60.09ZM37,46.22a3.48,3.48,0,1,0,3.39,3.51A3.48,3.48,0,0,0,37,46.22Zm2,3.56a2.1,2.1,0,0,1-2.18,2,2.27,2.27,0,0,1-2.07-2.33,2.13,2.13,0,0,1,4.25.3Zm-5.5,7.44a2.08,2.08,0,0,0-.11,4.16,2.08,2.08,0,0,0,.11-4.16Zm0,2.83a.65.65,0,0,1-.71-.7c0-.46.23-.68.66-.78a.67.67,0,0,1,.7.71A.69.69,0,0,1,33.51,60.05ZM37,46.22a3.48,3.48,0,1,0,3.39,3.51A3.48,3.48,0,0,0,37,46.22Zm2,3.56a2.1,2.1,0,0,1-2.18,2,2.27,2.27,0,0,1-2.07-2.33,2.13,2.13,0,0,1,4.25.3Zm19.88,2.61c0-.84-.64-.6-1.07-.6h-15c-.48,0-1.19-.26-1.12.71s.76.6,1.23.61c2.42,0,4.84,0,7.25,0s5.06,0,7.59,0C58.31,53.12,59,53.3,58.92,52.39ZM58,46.22H42.67c-.5,0-1-.08-1,.72s.56.65,1,.66h7.41c2.58,0,5.16,0,7.74,0,.44,0,1,.19,1-.63S58.51,46.22,58,46.22Zm.94,3.44c0-.79-.56-.67-1-.67H42.75c-.47,0-1-.14-1,.66s.6.74,1.12.75h15C58.32,50.39,59,50.57,58.93,49.66Zm4.84-3.44a3.48,3.48,0,1,0,3.41,3.49A3.49,3.49,0,0,0,63.77,46.22Zm-.19,5.58a2,2,0,0,1-2-2.21,2.12,2.12,0,0,1,2.15-2.06,2.17,2.17,0,0,1,2.08,2.16A2.14,2.14,0,0,1,63.58,51.8Zm-30,5.42a2.08,2.08,0,0,0-.11,4.16,2.08,2.08,0,0,0,.11-4.16Zm0,2.83a.65.65,0,0,1-.71-.7c0-.46.23-.68.66-.78a.67.67,0,0,1,.7.71A.69.69,0,0,1,33.51,60.05Zm23.15-2.88c-2.2.06-4.4,0-6.6,0s-4.51.1-6.76,0c-1.79-.11-1.59,1-1.59,2.1s-.23,2.27,1.65,2.22c4.12-.12,8.25,0,12.37,0,2.57,0,2.51,0,2.55-2.64C58.3,57.55,57.87,57.13,56.66,57.17Zm-.82,2.92H44.1c-.54,0-1.12.12-1.07-.78s.53-.84,1.12-.84H55.88c.61,0,1,.07,1.07.87S56.35,60.08,55.84,60.09Zm10.7-2.87a1.91,1.91,0,0,0-2.13,2,2,2,0,0,0,2,2.15,2.1,2.1,0,0,0,2.13-2.27A1.89,1.89,0,0,0,66.54,57.22Zm-.08,2.84c-.45,0-.65-.34-.65-.77a.64.64,0,0,1,.7-.71c.42,0,.66.31.66.79A.68.68,0,0,1,66.46,60.06Zm.08-2.84a1.91,1.91,0,0,0-2.13,2,2,2,0,0,0,2,2.15,2.1,2.1,0,0,0,2.13-2.27A1.89,1.89,0,0,0,66.54,57.22Zm-.08,2.84c-.45,0-.65-.34-.65-.77a.64.64,0,0,1,.7-.71c.42,0,.66.31.66.79A.68.68,0,0,1,66.46,60.06ZM63.77,46.22a3.48,3.48,0,1,0,3.41,3.49A3.49,3.49,0,0,0,63.77,46.22Zm-.19,5.58a2,2,0,0,1-2-2.21,2.12,2.12,0,0,1,2.15-2.06,2.17,2.17,0,0,1,2.08,2.16A2.14,2.14,0,0,1,63.58,51.8Zm-4.65-2.14c0-.79-.56-.67-1-.67H42.75c-.47,0-1-.14-1,.66s.6.74,1.12.75h15C58.32,50.39,59,50.57,58.93,49.66ZM58,46.22H42.67c-.5,0-1-.08-1,.72s.56.65,1,.66h7.41c2.58,0,5.16,0,7.74,0,.44,0,1,.19,1-.63S58.51,46.22,58,46.22Zm.93,6.17c0-.84-.64-.6-1.07-.6h-15c-.48,0-1.19-.26-1.12.71s.76.6,1.23.61c2.42,0,4.84,0,7.25,0s5.06,0,7.59,0C58.31,53.12,59,53.3,58.92,52.39Zm-2.26,4.78c-2.2.06-4.4,0-6.6,0s-4.51.1-6.76,0c-1.79-.11-1.59,1-1.59,2.1s-.23,2.27,1.65,2.22c4.12-.12,8.25,0,12.37,0,2.57,0,2.51,0,2.55-2.64C58.3,57.55,57.87,57.13,56.66,57.17Zm-.82,2.92H44.1c-.54,0-1.12.12-1.07-.78s.53-.84,1.12-.84H55.88c.61,0,1,.07,1.07.87S56.35,60.08,55.84,60.09ZM37,46.22a3.48,3.48,0,1,0,3.39,3.51A3.48,3.48,0,0,0,37,46.22Zm2,3.56a2.1,2.1,0,0,1-2.18,2,2.27,2.27,0,0,1-2.07-2.33,2.13,2.13,0,0,1,4.25.3Zm-5.5,7.44a2.08,2.08,0,0,0-.11,4.16,2.08,2.08,0,0,0,.11-4.16Zm0,2.83a.65.65,0,0,1-.71-.7c0-.46.23-.68.66-.78a.67.67,0,0,1,.7.71A.69.69,0,0,1,33.51,60.05ZM37,46.22a3.48,3.48,0,1,0,3.39,3.51A3.48,3.48,0,0,0,37,46.22Zm2,3.56a2.1,2.1,0,0,1-2.18,2,2.27,2.27,0,0,1-2.07-2.33,2.13,2.13,0,0,1,4.25.3Zm19.88,2.61c0-.84-.64-.6-1.07-.6h-15c-.48,0-1.19-.26-1.12.71s.76.6,1.23.61c2.42,0,4.84,0,7.25,0s5.06,0,7.59,0C58.31,53.12,59,53.3,58.92,52.39ZM58,46.22H42.67c-.5,0-1-.08-1,.72s.56.65,1,.66h7.41c2.58,0,5.16,0,7.74,0,.44,0,1,.19,1-.63S58.51,46.22,58,46.22Zm.94,3.44c0-.79-.56-.67-1-.67H42.75c-.47,0-1-.14-1,.66s.6.74,1.12.75h15C58.32,50.39,59,50.57,58.93,49.66Zm4.84-3.44a3.48,3.48,0,1,0,3.41,3.49A3.49,3.49,0,0,0,63.77,46.22Zm-.19,5.58a2,2,0,0,1-2-2.21,2.12,2.12,0,0,1,2.15-2.06,2.17,2.17,0,0,1,2.08,2.16A2.14,2.14,0,0,1,63.58,51.8Zm.19-5.58a3.48,3.48,0,1,0,3.41,3.49A3.49,3.49,0,0,0,63.77,46.22Zm-.19,5.58a2,2,0,0,1-2-2.21,2.12,2.12,0,0,1,2.15-2.06,2.17,2.17,0,0,1,2.08,2.16A2.14,2.14,0,0,1,63.58,51.8Zm-4.65-2.14c0-.79-.56-.67-1-.67H42.75c-.47,0-1-.14-1,.66s.6.74,1.12.75h15C58.32,50.39,59,50.57,58.93,49.66ZM58,46.22H42.67c-.5,0-1-.08-1,.72s.56.65,1,.66h7.41c2.58,0,5.16,0,7.74,0,.44,0,1,.19,1-.63S58.51,46.22,58,46.22Zm.93,6.17c0-.84-.64-.6-1.07-.6h-15c-.48,0-1.19-.26-1.12.71s.76.6,1.23.61c2.42,0,4.84,0,7.25,0s5.06,0,7.59,0C58.31,53.12,59,53.3,58.92,52.39ZM37,46.22a3.48,3.48,0,1,0,3.39,3.51A3.48,3.48,0,0,0,37,46.22Zm2,3.56a2.1,2.1,0,0,1-2.18,2,2.27,2.27,0,0,1-2.07-2.33,2.13,2.13,0,0,1,4.25.3Zm-2-3.56a3.48,3.48,0,1,0,3.39,3.51A3.48,3.48,0,0,0,37,46.22Zm2,3.56a2.1,2.1,0,0,1-2.18,2,2.27,2.27,0,0,1-2.07-2.33,2.13,2.13,0,0,1,4.25.3Zm19.88,2.61c0-.84-.64-.6-1.07-.6h-15c-.48,0-1.19-.26-1.12.71s.76.6,1.23.61c2.42,0,4.84,0,7.25,0s5.06,0,7.59,0C58.31,53.12,59,53.3,58.92,52.39ZM58,46.22H42.67c-.5,0-1-.08-1,.72s.56.65,1,.66h7.41c2.58,0,5.16,0,7.74,0,.44,0,1,.19,1-.63S58.51,46.22,58,46.22Zm.94,3.44c0-.79-.56-.67-1-.67H42.75c-.47,0-1-.14-1,.66s.6.74,1.12.75h15C58.32,50.39,59,50.57,58.93,49.66Zm4.84-3.44a3.48,3.48,0,1,0,3.41,3.49A3.49,3.49,0,0,0,63.77,46.22Zm-.19,5.58a2,2,0,0,1-2-2.21,2.12,2.12,0,0,1,2.15-2.06,2.17,2.17,0,0,1,2.08,2.16A2.14,2.14,0,0,1,63.58,51.8Zm.19-5.58a3.48,3.48,0,1,0,3.41,3.49A3.49,3.49,0,0,0,63.77,46.22Zm-.19,5.58a2,2,0,0,1-2-2.21,2.12,2.12,0,0,1,2.15-2.06,2.17,2.17,0,0,1,2.08,2.16A2.14,2.14,0,0,1,63.58,51.8Zm-4.65-2.14c0-.79-.56-.67-1-.67H42.75c-.47,0-1-.14-1,.66s.6.74,1.12.75h15C58.32,50.39,59,50.57,58.93,49.66ZM58,46.22H42.67c-.5,0-1-.08-1,.72s.56.65,1,.66h7.41c2.58,0,5.16,0,7.74,0,.44,0,1,.19,1-.63S58.51,46.22,58,46.22Zm.93,6.17c0-.84-.64-.6-1.07-.6h-15c-.48,0-1.19-.26-1.12.71s.76.6,1.23.61c2.42,0,4.84,0,7.25,0s5.06,0,7.59,0C58.31,53.12,59,53.3,58.92,52.39ZM37,46.22a3.48,3.48,0,1,0,3.39,3.51A3.48,3.48,0,0,0,37,46.22Zm2,3.56a2.1,2.1,0,0,1-2.18,2,2.27,2.27,0,0,1-2.07-2.33,2.13,2.13,0,0,1,4.25.3Z" transform="translate(-3.99 -4)"/><path class="cls-1" d="M37,46.22a3.48,3.48,0,1,0,3.39,3.51A3.48,3.48,0,0,0,37,46.22Zm2,3.56a2.1,2.1,0,0,1-2.18,2,2.27,2.27,0,0,1-2.07-2.33,2.13,2.13,0,0,1,4.25.3Z" transform="translate(-3.99 -4)"/><path class="cls-1" d="M58.92,52.39c0,.91-.61.73-1.13.73-2.53,0-5.06,0-7.59,0s-4.83,0-7.25,0c-.47,0-1.17.32-1.23-.61s.64-.71,1.12-.71h15C58.28,51.79,58.89,51.55,58.92,52.39Z" transform="translate(-3.99 -4)"/><path class="cls-1" d="M41.71,46.94c0-.8.46-.72,1-.72H58c.52,0,1,0,.93.74s-.6.63-1,.63c-2.58,0-5.16,0-7.74,0H42.73C42.27,47.59,41.73,47.75,41.71,46.94Z" transform="translate(-3.99 -4)"/><path class="cls-1" d="M58.93,49.66c0,.91-.61.73-1.13.74h-15c-.52,0-1.15.15-1.12-.75s.58-.66,1-.66H57.9C58.37,49,58.92,48.87,58.93,49.66Z" transform="translate(-3.99 -4)"/><path class="cls-1" d="M63.77,46.22a3.48,3.48,0,1,0,3.41,3.49A3.49,3.49,0,0,0,63.77,46.22Zm-.19,5.58a2,2,0,0,1-2-2.21,2.12,2.12,0,0,1,2.15-2.06,2.17,2.17,0,0,1,2.08,2.16A2.14,2.14,0,0,1,63.58,51.8Z" transform="translate(-3.99 -4)"/><path class="cls-1" d="M66.54,57.22a1.91,1.91,0,0,0-2.13,2,2,2,0,0,0,2,2.15,2.1,2.1,0,0,0,2.13-2.27A1.89,1.89,0,0,0,66.54,57.22Zm-.08,2.84c-.45,0-.65-.34-.65-.77a.64.64,0,0,1,.7-.71c.42,0,.66.31.66.79A.68.68,0,0,1,66.46,60.06Zm-9.8-2.89c-2.2.06-4.4,0-6.6,0s-4.51.1-6.76,0c-1.79-.11-1.59,1-1.59,2.1s-.23,2.27,1.65,2.22c4.12-.12,8.25,0,12.37,0,2.57,0,2.51,0,2.55-2.64C58.3,57.55,57.87,57.13,56.66,57.17Zm-.82,2.92H44.1c-.54,0-1.12.12-1.07-.78s.53-.84,1.12-.84H55.88c.61,0,1,.07,1.07.87S56.35,60.08,55.84,60.09Zm-22.3-2.87a2.08,2.08,0,0,0-.11,4.16,2.08,2.08,0,0,0,.11-4.16Zm0,2.83a.65.65,0,0,1-.71-.7c0-.46.23-.68.66-.78a.67.67,0,0,1,.7.71A.69.69,0,0,1,33.51,60.05Z" transform="translate(-3.99 -4)"/><path class="cls-1" d="M57.8,50.4h-15c-.52,0-1.15.15-1.12-.75s.58-.66,1-.66H57.9c.47,0,1-.12,1,.67S58.32,50.39,57.8,50.4Z" transform="translate(-3.99 -4)"/><path class="cls-1" d="M63.77,46.22a3.48,3.48,0,1,0,3.41,3.49A3.49,3.49,0,0,0,63.77,46.22Zm-.19,5.58a2,2,0,0,1-2-2.21,2.12,2.12,0,0,1,2.15-2.06,2.17,2.17,0,0,1,2.08,2.16A2.14,2.14,0,0,1,63.58,51.8Z" transform="translate(-3.99 -4)"/><path class="cls-1" d="M37,46.22a3.48,3.48,0,1,0,3.39,3.51A3.48,3.48,0,0,0,37,46.22Zm2,3.56a2.1,2.1,0,0,1-2.18,2,2.27,2.27,0,0,1-2.07-2.33,2.13,2.13,0,0,1,4.25.3Z" transform="translate(-3.99 -4)"/><path class="cls-1" d="M58.92,47c0,.82-.6.63-1,.63-2.58,0-5.16,0-7.74,0H42.73c-.46,0-1,.15-1-.66s.46-.72,1-.72H58C58.51,46.22,59,46.2,58.92,47Z" transform="translate(-3.99 -4)"/><path class="cls-1" d="M57.79,53.12c-2.53,0-5.06,0-7.59,0s-4.83,0-7.25,0c-.47,0-1.17.32-1.23-.61s.64-.71,1.12-.71h15c.43,0,1-.24,1.07.6S58.31,53.12,57.79,53.12Z" transform="translate(-3.99 -4)"/><path class="cls-1" d="M56.66,57.17c-2.2.06-4.4,0-6.6,0s-4.51.1-6.76,0c-1.79-.11-1.59,1-1.59,2.1s-.23,2.27,1.65,2.22c4.12-.12,8.25,0,12.37,0,2.57,0,2.51,0,2.55-2.64C58.3,57.55,57.87,57.13,56.66,57.17Zm-.82,2.92H44.1c-.54,0-1.12.12-1.07-.78s.53-.84,1.12-.84H55.88c.61,0,1,.07,1.07.87S56.35,60.08,55.84,60.09Z" transform="translate(-3.99 -4)"/><path class="cls-1" d="M33.54,57.22a2.08,2.08,0,0,0-.11,4.16,2.08,2.08,0,0,0,.11-4.16Zm0,2.83a.65.65,0,0,1-.71-.7c0-.46.23-.68.66-.78a.67.67,0,0,1,.7.71A.69.69,0,0,1,33.51,60.05Z" transform="translate(-3.99 -4)"/><path class="cls-1" d="M66.54,57.22a1.91,1.91,0,0,0-2.13,2,2,2,0,0,0,2,2.15,2.1,2.1,0,0,0,2.13-2.27A1.89,1.89,0,0,0,66.54,57.22Zm-.08,2.84c-.45,0-.65-.34-.65-.77a.64.64,0,0,1,.7-.71c.42,0,.66.31.66.79A.68.68,0,0,1,66.46,60.06Z" transform="translate(-3.99 -4)"/><path class="cls-1" d="M4.1,77.71a.19.19,0,0,1-.11,0,.1.1,0,0,1,.15,0c.52-6.41,6-12.55,12.36-13.92a1.37,1.37,0,0,1,1.7.92,1.34,1.34,0,0,1-1.13,1.72,13.63,13.63,0,0,0-8.29,20.5c-.21,0-.41-.2-.66-.63A12.18,12.18,0,0,1,6.66,82a13.69,13.69,0,0,1,4.57-12.87,12.93,12.93,0,0,1,4.39-2.57c.48-.17,1-.3,1.45-.48a1.08,1.08,0,0,0,.81-1.38A1.15,1.15,0,0,0,16.43,64a15,15,0,0,0-4.23,1.71A16.36,16.36,0,0,0,4.4,77.14a1.19,1.19,0,0,1-.17.51l-.08,0Z" transform="translate(-3.99 -4)"/><path class="cls-1" d="M15.34,41.13a35.19,35.19,0,0,0-.12,17.39c0,.14.07.29.09.44a1.35,1.35,0,0,1-1,1.64,1.33,1.33,0,0,1-1.6-1.08,35.63,35.63,0,0,1-.95-5.11,28.78,28.78,0,0,1-.22-4.22,37.46,37.46,0,0,1,1.11-9.49c.24-1,.81-1.43,1.62-1.3A1.34,1.34,0,0,1,15.34,41.13Z" transform="translate(-3.99 -4)"/><path class="cls-1" d="M25.45,81.54a11.63,11.63,0,0,1,6.43,5.33c-.2,0-.41-.28-.7-.7A11.61,11.61,0,0,0,26.1,82c-.92-.39-1-.53-.39-1.35a6.35,6.35,0,0,0,.66-6.56,6.61,6.61,0,1,0-11.46,6.45c.69,1,.67,1.05-.41,1.52a10.83,10.83,0,0,0-4.71,3.75c-.1.15-.2.3-.31.44-.26.35-.47.55-.66.58a11.73,11.73,0,0,1,6.51-5.33A7,7,0,0,1,13.73,75a6.63,6.63,0,0,1,2.61-3.76,6.8,6.8,0,0,1,8.6.46C27.72,74.25,27.89,77.39,25.45,81.54Z" transform="translate(-3.99 -4)"/><path class="cls-1" d="M36.55,77.38a16.37,16.37,0,0,1-32.38,4.8c0-.19.07-.44-.18-.55.61.18.46.76.55,1.18a15.25,15.25,0,0,0,4.27,8c5,4.85,10.92,6.25,17.44,3.73a15.29,15.29,0,0,0,10-12.4,16.06,16.06,0,0,0-11-18,9.2,9.2,0,0,0-1.57-.37c-.78-.1-1.26.17-1.39.78s.13,1.11.89,1.32A17.39,17.39,0,0,1,27,67.44a13.65,13.65,0,0,1,7.25,11.74,13.06,13.06,0,0,1-1.58,6.92c-.29.54-.5.8-.73.78a13,13,0,0,0,2-8.74A13.55,13.55,0,0,0,23.27,66.28c-1.1-.27-1.56-.87-1.34-1.73s.84-1.11,1.94-.9A16.35,16.35,0,0,1,36.55,77.38Z" transform="translate(-3.99 -4)"/><path class="cls-1" d="M4,22.51c.53.09.46.56.53.9a16.11,16.11,0,0,0,26.76,8.78,15.88,15.88,0,0,0,5-9.76,15.63,15.63,0,0,0-4-12.78A15.64,15.64,0,0,0,23,4.46c-.31-.06-.75,0-.83-.46,1.12.35,2.3.47,3.43.85a16.35,16.35,0,0,1-3,31.71C13.85,37.8,6,32,4.19,23,4.15,22.86,4.26,22.61,4,22.51Z" transform="translate(-3.99 -4)"/><path class="cls-1" d="M39.38,13.87a1.35,1.35,0,0,1,1.16-1.2,38,38,0,0,1,4.85-.89,39.19,39.19,0,0,1,13.9.86c1.26.31,1.73,1.41,1,2.26a1.25,1.25,0,0,1-1.13.45c-1.37-.27-2.74-.59-4.13-.78a35.76,35.76,0,0,0-13.63.68,1.75,1.75,0,0,1-1.31,0A1.28,1.28,0,0,1,39.38,13.87Z" transform="translate(-3.99 -4)"/><path class="cls-1" d="M60.58,85.63c.2.82-.27,1.48-1.27,1.72A37.48,37.48,0,0,1,50,88.47a38,38,0,0,1-9.32-1.11c-1-.24-1.48-.89-1.28-1.71a1.39,1.39,0,0,1,1.85-.94,36,36,0,0,0,17.47,0A1.39,1.39,0,0,1,60.58,85.63Z" transform="translate(-3.99 -4)"/><path class="cls-1" d="M88.46,49.78a37.49,37.49,0,0,1-1.1,9.46c-.25,1.06-.91,1.56-1.74,1.34s-1.14-.95-.89-2a35.62,35.62,0,0,0,0-17.23c-.25-1,.09-1.76.88-2s1.51.27,1.75,1.33.52,2.4.7,3.61A30.25,30.25,0,0,1,88.46,49.78Z" transform="translate(-3.99 -4)"/><path class="cls-1" d="M85.05,21.32a6.65,6.65,0,0,0-4.93-10.41,6.64,6.64,0,0,0-5.87,10.48c.62.87.56,1-.43,1.43a10.85,10.85,0,0,0-5,4.09c-.28.42-.5.64-.72.66a11.8,11.8,0,0,1,6.49-5.32,7,7,0,0,1-1.73-5.91,6.7,6.7,0,0,1,2.47-4.15,6.86,6.86,0,0,1,8.82.21c2.83,2.52,3,5.92.54,9.87a11.69,11.69,0,0,1,6.45,5.34c-.19,0-.39-.22-.64-.59a11.72,11.72,0,0,0-5-4.2C84.46,22.38,84.43,22.26,85.05,21.32Z" transform="translate(-3.99 -4)"/><path class="cls-1" d="M95.1,15.85A15.83,15.83,0,0,0,82.85,4.58a4.18,4.18,0,0,1-1.21-.33.24.24,0,0,1-.06-.09v0a.15.15,0,0,1,0-.12l0,.15a16.36,16.36,0,0,1,13.8,12c.22,1-.09,1.65-.88,1.86s-1.46-.18-1.75-1.22A13.46,13.46,0,0,0,85.48,8,13.66,13.66,0,0,0,67.8,27.2c.06.11.14.22.24.37-.23,0-.45-.28-.71-.78A13.89,13.89,0,1,1,93,16.47c.31,1.07.79,1.5,1.48,1.31S95.45,16.9,95.1,15.85Z" transform="translate(-3.99 -4)"/><path class="cls-1" d="M63.43,22.64A16.39,16.39,0,0,1,77.11,4.18c.19,0,.43.07.55-.18-.16.58-.7.46-1.09.54a16.4,16.4,0,0,0-6.88,3.13A16.12,16.12,0,0,0,86.32,35a15.73,15.73,0,0,0,9-11.1c.26-1.11,0-1.7-.66-1.86s-1.22.23-1.51,1.39a14.54,14.54,0,0,1-1.28,3.44c-.26.48-.47.71-.7.71A12.84,12.84,0,0,0,93,23.33a2.42,2.42,0,0,1,.38-1.09A1.27,1.27,0,0,1,95,21.85a1.25,1.25,0,0,1,.76,1.47,16,16,0,0,1-2,5.42,16.36,16.36,0,0,1-30.26-6.1Z" transform="translate(-3.99 -4)"/><path class="cls-1" d="M79.65,63.28A16.36,16.36,0,1,0,96,79.68,16.33,16.33,0,0,0,79.65,63.28Zm9.22,26.43a13.77,13.77,0,0,1-18.46,0,.81.81,0,0,1-.17-1.14,8.66,8.66,0,0,1,7.83-5c.54,0,1.08,0,1.62,0a9.49,9.49,0,0,1,7.11,2.09,9.13,9.13,0,0,1,2.26,3A.71.71,0,0,1,88.87,89.71ZM75.48,76.82A4.15,4.15,0,1,1,79.64,81,4.14,4.14,0,0,1,75.48,76.82Zm15.67,10a11.64,11.64,0,0,0-6.5-5.34,7,7,0,0,0,1.72-5.93,6.72,6.72,0,0,0-2.54-4.2,6.86,6.86,0,0,0-8.89.41,7,7,0,0,0-.37,9.73,11.61,11.61,0,0,0-6.47,5.34,13.63,13.63,0,1,1,23.05,0Z" transform="translate(-3.99 -4)"/><path class="cls-1" d="M25.57,4.85c-1.13-.38-2.31-.5-3.43-.85h-3.6c-.84.2-1.71.11-2.55.35a16.5,16.5,0,0,0-9.36,6.7A14.54,14.54,0,0,0,4,18.37v.54A1.44,1.44,0,0,1,4,20v2.52c.27.1.16.35.2.53C6,32,13.85,37.8,22.61,36.56a16.35,16.35,0,0,0,3-31.71Zm3.48,5a13.61,13.61,0,0,1,2.84,17.8,11.66,11.66,0,0,0-6.51-5.36,7,7,0,0,0,1.69-6.07,6.65,6.65,0,0,0-2.56-4.1,6.83,6.83,0,0,0-8.81.42c-2.75,2.55-2.9,6-.42,9.75a11.73,11.73,0,0,0-6.42,5.29c-3-4.07-3.34-11.61,1.76-16.78A13.65,13.65,0,0,1,29.05,9.82ZM11,29.39a8.51,8.51,0,0,1,7.18-4.93c.74-.07,1.49,0,2.24,0a10.52,10.52,0,0,1,5.17.75,8.91,8.91,0,0,1,4.23,4.21.76.76,0,0,1-.2,1.06,13.76,13.76,0,0,1-18.45,0A.77.77,0,0,1,11,29.39ZM16.2,17.55a4.15,4.15,0,1,1,4.17,4.16A4.16,4.16,0,0,1,16.2,17.55Z" transform="translate(-3.99 -4)"/><path class="cls-1" d="M95,21.85a1.27,1.27,0,0,0-1.61.39A2.42,2.42,0,0,0,93,23.33a12.84,12.84,0,0,1-1.77,4.29l0,0s0,0,0,0a11.69,11.69,0,0,0-6.45-5.34c2.49-3.95,2.29-7.35-.54-9.87a6.86,6.86,0,0,0-8.82-.21,6.7,6.7,0,0,0-2.47,4.15,7,7,0,0,0,1.73,5.91,11.8,11.8,0,0,0-6.49,5.32l0,.06a.21.21,0,0,0,0-.06c-.1-.15-.18-.26-.24-.37A13.66,13.66,0,0,1,85.48,8a13.46,13.46,0,0,1,7.34,8.8c.29,1,.92,1.45,1.75,1.22s1.1-.88.88-1.86a16.36,16.36,0,0,0-13.8-12l-.07,0c-.34-.11-.72.09-1-.12H77.66c-.12.25-.36.16-.55.18A16.38,16.38,0,1,0,93.69,28.74a16,16,0,0,0,2-5.42A1.25,1.25,0,0,0,95,21.85ZM70.2,29.43a8.52,8.52,0,0,1,7.15-5c.77-.07,1.56,0,2.33,0a10.29,10.29,0,0,1,5.17.77,8.87,8.87,0,0,1,4.21,4.23.73.73,0,0,1-.19,1,13.77,13.77,0,0,1-18.51,0A.7.7,0,0,1,70.2,29.43Zm9.39-16.06a4.17,4.17,0,1,1-4.11,4.2A4.18,4.18,0,0,1,79.59,13.37Z" transform="translate(-3.99 -4)"/><path class="cls-1" d="M36.55,77.38A16.35,16.35,0,0,0,23.87,63.65c-1.1-.21-1.74.09-1.94.9s.24,1.46,1.34,1.73A13.55,13.55,0,0,1,33.93,78.14a13,13,0,0,1-2,8.74l0,0,0,0a11.63,11.63,0,0,0-6.43-5.33c2.44-4.15,2.27-7.29-.51-9.82a6.8,6.8,0,0,0-8.6-.46A6.63,6.63,0,0,0,13.73,75a7,7,0,0,0,1.6,6.51,11.73,11.73,0,0,0-6.51,5.33s0,0,0,0l0,0a13.63,13.63,0,0,1,8.29-20.5,1.34,1.34,0,0,0,1.13-1.72,1.37,1.37,0,0,0-1.7-.92C10.12,65.09,4.66,71.23,4.14,77.64a.25.25,0,0,0,0,.07c-.09.28.08.6-.11.86V80a1.44,1.44,0,0,1,0,1.08v.54c.25.11.15.36.18.55a16.37,16.37,0,0,0,32.38-4.8ZM11,88.66a8.63,8.63,0,0,1,7.8-5c.54,0,1.08,0,1.62,0a10.88,10.88,0,0,1,5.25.84,8.86,8.86,0,0,1,4.15,4.18.75.75,0,0,1-.19,1,13.77,13.77,0,0,1-18.46,0A.76.76,0,0,1,11,88.66Zm9.37-16a4.16,4.16,0,1,1-4.12,4.2A4.14,4.14,0,0,1,20.32,72.64Z" transform="translate(-3.99 -4)"/><path class="cls-1" d="M18.54,4a32.64,32.64,0,0,0-4.1,1.1A16.28,16.28,0,0,0,4.16,18c0,.15,0,.31-.17.37a14.54,14.54,0,0,1,2.64-7.32A16.5,16.5,0,0,1,16,4.35C16.83,4.11,17.7,4.2,18.54,4Z" transform="translate(-3.99 -4)"/><path class="cls-1" d="M81.65,4.15h-.07a1.32,1.32,0,0,1-1-.16h1.08Z" transform="translate(-3.99 -4)"/><path class="cls-1" d="M4,18.91A.8.8,0,0,1,4,20Z" transform="translate(-3.99 -4)"/><path class="cls-1" d="M4,80a.81.81,0,0,1,0,1.08Z" transform="translate(-3.99 -4)"/><path class="cls-1" d="M4,78.57v-.9a.1.1,0,0,1,.15,0s0,0,0,.06A.91.91,0,0,1,4,78.57Z" transform="translate(-3.99 -4)"/><path class="cls-1" d="M79.65,63.28A16.36,16.36,0,1,0,96,79.68,16.33,16.33,0,0,0,79.65,63.28Zm9.22,26.43a13.77,13.77,0,0,1-18.46,0,.81.81,0,0,1-.17-1.14,8.66,8.66,0,0,1,7.83-5c.54,0,1.08,0,1.62,0a9.49,9.49,0,0,1,7.11,2.09,9.13,9.13,0,0,1,2.26,3A.71.71,0,0,1,88.87,89.71ZM75.48,76.82A4.15,4.15,0,1,1,79.64,81,4.14,4.14,0,0,1,75.48,76.82Zm15.67,10a11.64,11.64,0,0,0-6.5-5.34,7,7,0,0,0,1.72-5.93,6.72,6.72,0,0,0-2.54-4.2,6.86,6.86,0,0,0-8.89.41,7,7,0,0,0-.37,9.73,11.61,11.61,0,0,0-6.47,5.34,13.63,13.63,0,1,1,23.05,0Z" transform="translate(-3.99 -4)"/><path class="cls-1" d="M15.34,41.13a35.19,35.19,0,0,0-.12,17.39c0,.14.07.29.09.44a1.35,1.35,0,0,1-1,1.64,1.33,1.33,0,0,1-1.6-1.08,35.63,35.63,0,0,1-.95-5.11,28.78,28.78,0,0,1-.22-4.22,37.46,37.46,0,0,1,1.11-9.49c.24-1,.81-1.43,1.62-1.3A1.34,1.34,0,0,1,15.34,41.13Z" transform="translate(-3.99 -4)"/><path class="cls-1" d="M59.31,87.35A37.48,37.48,0,0,1,50,88.47a38,38,0,0,1-9.32-1.11c-1-.24-1.48-.89-1.28-1.71a1.39,1.39,0,0,1,1.85-.94,36,36,0,0,0,17.47,0,1.39,1.39,0,0,1,1.86.91C60.78,86.45,60.31,87.11,59.31,87.35Z" transform="translate(-3.99 -4)"/><path class="cls-1" d="M88.46,49.78a37.49,37.49,0,0,1-1.1,9.46c-.25,1.06-.91,1.56-1.74,1.34s-1.14-.95-.89-2a35.62,35.62,0,0,0,0-17.23c-.25-1,.09-1.76.88-2s1.51.27,1.75,1.33.52,2.4.7,3.61A30.25,30.25,0,0,1,88.46,49.78Z" transform="translate(-3.99 -4)"/><path class="cls-1" d="M60.29,14.9a1.25,1.25,0,0,1-1.13.45c-1.37-.27-2.74-.59-4.13-.78a35.76,35.76,0,0,0-13.63.68,1.75,1.75,0,0,1-1.31,0,1.28,1.28,0,0,1-.71-1.34,1.35,1.35,0,0,1,1.16-1.2,38,38,0,0,1,4.85-.89,39.19,39.19,0,0,1,13.9.86C60.55,13,61,14.05,60.29,14.9Z" transform="translate(-3.99 -4)"/></svg>