<svg id="Layer_1" data-name="Layer 1" xmlns="http://www.w3.org/2000/svg" viewBox="0 0 94.26 93.73"><defs><style>.cls-1{fill:#083264;}</style></defs><path class="cls-1" d="M72.17,59.68c0-.43-.17-.5-.54-.49-.77,0-1.54,0-2.3,0A5.43,5.43,0,0,1,64,53.88a14.86,14.86,0,0,1,0-2.11c.07-.72-.2-.86-.87-.85-4.36,0-8.72,0-13.07,0s-8.77,0-13.16,0c-.65,0-.87.16-.82.81a18.73,18.73,0,0,1,0,2.12,5.41,5.41,0,0,1-4.35,5.22,13.59,13.59,0,0,1-3.12.11c-.58,0-.77.13-.76.74,0,2.43,0,4.85,0,7.27a36.41,36.41,0,0,0,.33,6.52C30,84,35.56,91.48,45,95.81c5.47,2.5,4.43,2.53,9.79.06,9.87-4.52,15.62-12.34,17.08-23.14C72.5,68.41,72.07,64,72.17,59.68Zm-11.8,9.51q-6.46,6.47-12.93,13c-.33.34-.52.26-.8,0q-3.51-3.52-7-7c-.31-.3-.35-.48,0-.8,1.08-1,2.15-2.1,3.18-3.19.37-.38.54-.17.79.09,1,1,2,2,3,3,.43.47.66.38,1.06,0,2.89-2.92,5.81-5.81,8.7-8.73.43-.44.66-.53,1.12,0,.9,1,1.89,1.92,2.84,2.87l.41.43C60.69,69,60.49,69.07,60.37,69.19Z" transform="translate(-2.87 -3.97)"/><path class="cls-1" d="M83.29,44.3q0,20.76,0,41.5c0,.73-.13,1-.93,1-3.06-.05-6.13,0-9.37,0a38,38,0,0,0,3-6.55A35.48,35.48,0,0,0,77.72,69c0-4.84,0-9.69,0-14.54,0-.72-.21-.86-.88-.84a12,12,0,0,1-2.93-.11,5.49,5.49,0,0,1-4.45-5.25v-.83c0-2.06,0-2.06-2.11-2.06q-17.94,0-35.89,0c-.8,0-1,.17-1,1a9.87,9.87,0,0,1-.15,3.11,5.54,5.54,0,0,1-5.21,4.17c-.76,0-1.53,0-2.3,0-.45,0-.57.14-.57.58.08,6-.23,12.09.18,18.12A33.14,33.14,0,0,0,26.5,85.87a1.64,1.64,0,0,1,.37.9H17.15c-.31,0-.46-.12-.44-.43s0-.37,0-.55q0-20.72,0-41.41a1.23,1.23,0,0,1,.73-1.29q15.9-8.4,31.76-16.86a1.46,1.46,0,0,1,1.59,0Q66.6,34.63,82.48,43A1.28,1.28,0,0,1,83.29,44.3Z" transform="translate(-2.87 -3.97)"/><path class="cls-1" d="M97.11,44.09a2.74,2.74,0,0,1-.06.34l-5-2.66Q71.37,30.85,50.74,19.92a1.4,1.4,0,0,0-1.5,0Q27,31.8,4.67,43.6a7.13,7.13,0,0,1-1.8.87,8.34,8.34,0,0,1,2.19-1.33c4.28-2.26,8.56-4.55,12.84-6.82q8.28-4.39,16.57-8.81l9.34-5c1.71-.9,3.43-1.78,5.11-2.73A1.92,1.92,0,0,1,51,19.77c5.52,3,11.11,5.89,16.65,8.85L78,34.09c6,3.15,11.94,6.28,17.88,9.47a3.3,3.3,0,0,1,.32.18c.55.35.73.21.72-.44,0-2.91,0-5.83,0-8.74a11.29,11.29,0,0,1,0-1.84c.24-1.44-.45-2.17-1.66-2.86q-20-11.3-39.88-22.74c-1.49-.86-3-1.66-4.47-2.57A1.59,1.59,0,0,0,49,4.62c-3.58,2.08-7.18,4.11-10.78,6.17Q26.16,17.71,14,24.6L4.29,30.17c-.43.25-.84.64-1.42.49,3.41-1.92,6.82-3.83,10.22-5.77Q31.18,14.57,49.26,4.2a1.29,1.29,0,0,1,1.48,0Q73.6,17.29,96.48,30.34a1,1,0,0,1,.65,1C97.1,35.56,97.11,39.83,97.11,44.09Z" transform="translate(-2.87 -3.97)"/><path class="cls-1" d="M97.11,44.09a2.74,2.74,0,0,1-.06.34l-5-2.66Q71.37,30.85,50.74,19.92a1.4,1.4,0,0,0-1.5,0Q27,31.8,4.67,43.6a7.13,7.13,0,0,1-1.8.87V30.66c3.41-1.92,6.82-3.83,10.22-5.77Q31.18,14.57,49.26,4.2a1.29,1.29,0,0,1,1.48,0Q73.6,17.29,96.48,30.34a1,1,0,0,1,.65,1C97.1,35.56,97.11,39.83,97.11,44.09Z" transform="translate(-2.87 -3.97)"/><path class="cls-1" d="M72.17,59.68c0-.43-.17-.5-.54-.49-.77,0-1.54,0-2.3,0A5.43,5.43,0,0,1,64,53.88a14.86,14.86,0,0,1,0-2.11c.07-.72-.2-.86-.87-.85-4.36,0-8.72,0-13.07,0s-8.77,0-13.16,0c-.65,0-.87.16-.82.81a18.73,18.73,0,0,1,0,2.12,5.41,5.41,0,0,1-4.35,5.22,13.59,13.59,0,0,1-3.12.11c-.58,0-.77.13-.76.74,0,2.43,0,4.85,0,7.27a36.41,36.41,0,0,0,.33,6.52C30,84,35.56,91.48,45,95.81c5.47,2.5,4.43,2.53,9.79.06,9.87-4.52,15.62-12.34,17.08-23.14C72.5,68.41,72.07,64,72.17,59.68Zm-11.8,9.51q-6.46,6.47-12.93,13c-.33.34-.52.26-.8,0q-3.51-3.52-7-7c-.31-.3-.35-.48,0-.8,1.08-1,2.15-2.1,3.18-3.19.37-.38.54-.17.79.09,1,1,2,2,3,3,.43.47.66.38,1.06,0,2.89-2.92,5.81-5.81,8.7-8.73.43-.44.66-.53,1.12,0,.9,1,1.89,1.92,2.84,2.87l.41.43C60.69,69,60.49,69.07,60.37,69.19Z" transform="translate(-2.87 -3.97)"/><path class="cls-1" d="M83.28,85.8c0,.73-.13,1-.93,1-3.06-.05-6.13,0-9.37,0a38,38,0,0,0,3-6.55A35.48,35.48,0,0,0,77.72,69c0-4.84,0-9.69,0-14.54,0-.72-.21-.86-.88-.84a12,12,0,0,1-2.93-.11,5.49,5.49,0,0,1-4.45-5.25v-.83c0-2.06,0-2.06-2.11-2.06q-17.94,0-35.89,0c-.8,0-1,.17-1,1a9.87,9.87,0,0,1-.15,3.11,5.54,5.54,0,0,1-5.21,4.17c-.76,0-1.53,0-2.3,0-.45,0-.57.14-.57.58.08,6-.23,12.09.18,18.12A33.14,33.14,0,0,0,26.5,85.87a1.64,1.64,0,0,1,.37.9H17.15c-.31,0-.46-.12-.44-.43s0-.37,0-.55q0-20.72,0-41.41a1.23,1.23,0,0,1,.73-1.29q15.9-8.4,31.76-16.86a1.46,1.46,0,0,1,1.59,0Q66.6,34.63,82.48,43a1.28,1.28,0,0,1,.81,1.32Q83.25,65.06,83.28,85.8Z" transform="translate(-2.87 -3.97)"/></svg>