<svg xmlns="http://www.w3.org/2000/svg" xmlns:xlink="http://www.w3.org/1999/xlink" id="Layer_1" x="0px" y="0px" viewBox="0 0 45 45" style="enable-background:new 0 0 45 45;" xml:space="preserve"> <style type="text/css"> .st0{fill-rule:evenodd;clip-rule:evenodd;fill:#FFFFFF;} .st1{fill-rule:evenodd;clip-rule:evenodd;fill:#0A2852;} </style> <g> <circle class="st0" cx="22.5" cy="22.5" r="22.5"></circle> <path class="st1" d="M8.94,12.34c-0.1,0.38,0.01,2.44,0.08,3.08c0.04,0.32,0.05,0.69,0.09,1.04c0.07,0.66,0.18,1.32,0.28,1.96 l0.38,1.84c0.1,0.5,0.71,2.44,0.92,2.95l0.85,1.96c0.24,0.49,0.51,0.98,0.78,1.45c1.83,3.25,4.65,5.89,7.88,7.72 c0.32,0.18,1.14,0.63,1.47,0.77c0.14,0.06,0.22,0.11,0.37,0.17c0.74,0.31,0.34,0.21,1.21-0.13c0.29-0.11,0.45-0.21,0.73-0.35 c1.23-0.62,2.31-1.32,3.41-2.15c0.96-0.72,1.52-1.28,2.35-2.09l1.05-1.19c1.32-1.62,2.54-3.63,3.32-5.6 c0.41-1.05,0.69-1.85,0.98-2.91l0.12-0.46c0.31-1.26,0.36-1.5,0.55-2.78c0.04-0.3,0.08-0.69,0.14-0.98 c0.03-0.17,0.02-0.34,0.04-0.5c0.04-0.2,0.06-0.23,0.06-0.5c0.01-0.38,0.03-0.72,0.07-1.06l0.02-2.23 c-0.15-0.06-2.2-0.48-3.07-0.83c-0.14-0.06-0.31-0.12-0.47-0.18c-0.17-0.06-0.33-0.13-0.49-0.19c-0.75-0.3-1.17-0.52-1.83-0.81 c-0.32-0.14-0.56-0.31-0.86-0.45c-0.77-0.36-3.28-1.97-3.98-2.58c-0.2-0.18-0.52-0.4-0.73-0.57C24.32,6.5,23.15,5.48,22.9,5.2 c-0.08-0.09-0.26-0.31-0.37-0.33c-0.16-0.03-0.3,0.18-0.38,0.28c-0.33,0.41-2.08,1.82-2.46,2.12c-0.91,0.72-2.18,1.56-3.14,2.13 c-1.21,0.7-3.58,1.89-4.96,2.27c-0.56,0.15-0.86,0.31-1.55,0.44C9.63,12.19,9.35,12.27,8.94,12.34L8.94,12.34z M10.4,13.54 c0.28-0.11,0.65-0.15,0.93-0.26c0.26-0.1,0.6-0.17,0.88-0.28c1.28-0.5,2.01-0.72,3.31-1.38c0.51-0.26,1.05-0.53,1.53-0.82 c1.75-1.06,3.26-2.01,4.81-3.39c0.77-0.69,0.58-0.59,0.99-0.25l0.94,0.79c0.42,0.34,0.87,0.69,1.33,1.02 c1.85,1.33,3.17,2.09,5.17,3.03c0.26,0.12,0.53,0.25,0.8,0.35c1.49,0.57,1.82,0.72,3.5,1.16c0,0.87-0.05,1.49-0.1,2.37 c-0.02,0.36-0.21,1.91-0.29,2.25c-0.16,0.68-0.27,1.4-0.46,2.07l-0.72,2.26c-0.16,0.45-0.39,1.03-0.59,1.43l-0.32,0.7 c-0.2,0.46-0.83,1.52-1.08,1.92c-2,3.12-4.71,5.51-7.99,7.11c-0.36,0.18-0.48,0.28-0.71,0.18c-0.91-0.42-1.83-0.97-2.6-1.45 c-2.68-1.68-5.27-4.58-6.66-7.43l-0.34-0.66c-0.11-0.22-0.21-0.46-0.31-0.7c-0.45-1.03-1-2.67-1.25-3.77 c-0.06-0.28-0.1-0.59-0.18-0.84C10.64,17.86,10.4,14.67,10.4,13.54L10.4,13.54z M21.77,12.72c0.32-0.12,1.49-0.02,1.82,0.03 c0.51,0.09,1.09,0.18,1.52,0.36c0.5,0.22,0.75,0.27,1.3,0.61c1.21,0.74,2.09,1.66,2.77,2.9c0.46,0.84,0.83,1.96,0.88,2.92 c0.07,1.32-0.03,2.3-0.43,3.36c-0.67,1.77-1.9,3.17-3.55,4.05c-1.57,0.84-2.94,1.03-4.71,0.81c-0.96-0.12-2-0.52-2.81-1 c-1.39-0.82-2.41-2.1-3.07-3.56l-0.25-0.7c-0.16-0.61-0.23-0.89-0.3-1.56c-0.23-2.21,0.7-4.41,1.84-5.66 c1.22-1.34,2.46-2.08,4.2-2.45C21.09,12.82,21.69,12.75,21.77,12.72L21.77,12.72z M4.44,23.96V20.8h3.99 C8.5,21.06,9,22.61,8.98,22.75l-2.87,0.01c-0.02,0.95,0.51,0.81,1.25,0.98c0.85,0.19,0.86,0.34,1,1.23c0.3,1.96,1.2,3.94,2.28,5.53 c0.11,0.17,0.39,0.49,0.45,0.67c0.19,0.54-0.39,1.16-0.64,1.54c-0.41,0.63,0.27,1.1,0.56,1.4c0.19,0.19,0.37,0.41,0.69,0.44 c0.75,0.06,1.4-1.36,2.33-0.57c0.36,0.31,0.93,0.64,1.36,0.89c0.92,0.52,2.06,1.03,3.11,1.33c0.52,0.14,1.29,0.36,1.83,0.4 c0.75,0.06,0.78,0.68,0.88,1.37l0.12,0.44c0.06,0.11,0.14,0.23,0.24,0.3c0.39,0.23,1.48,0.24,1.85-0.02 c0.3-0.21,0.27-0.43,0.31-0.56c0.03-0.11,0.03-0.05,0.05-0.2c0.28-2.05,0.58-0.76,4.36-2.34c3.32-1.38,2.81-2.52,4.39-1.38 c0.67,0.48,0.88,0.47,1.45-0.11c0.35-0.36,0.95-0.75,0.55-1.42c-0.32-0.52-0.83-1.01-0.61-1.54c0.09-0.22,0.32-0.49,0.45-0.67 c0.64-0.88,1.53-2.66,1.83-3.73c0.19-0.69,0.32-1.05,0.44-1.81c0.05-0.3,0.09-0.68,0.25-0.86c0.65-0.71,2,0.1,2-1.32l-2.87-0.01 c-0.02-0.17,0.22-0.77,0.27-0.97c0.06-0.23,0.19-0.81,0.3-0.98h3.97v3.42c-0.01,0.01-0.01,0.02-0.02,0.03l-0.03,0.06 c-0.07,0.17-0.06,0.6-0.12,0.85c-0.06,0.28-0.08,0.6-0.24,0.8c-0.53,0.7-1.86-0.08-2.2,1.02c-0.28,0.92-0.5,1.44-0.89,2.29 c-0.16,0.34-0.51,0.88-0.52,1.1c-0.04,0.71,0.83,1.15,0.93,1.7c0.09,0.53-0.31,0.88-0.71,1.41c-0.28,0.38-0.65,0.82-0.98,1.15 c-0.11,0.1-0.15,0.18-0.25,0.29c-0.1,0.1-0.17,0.16-0.27,0.27l-0.54,0.51c-0.41,0.4-1.27,1.1-1.78,1.44 c-0.1,0.07-0.21,0.16-0.35,0.2c-0.79,0.2-1.13-0.6-1.74-0.88c-0.34-0.16-0.59-0.01-0.84,0.13c-0.35,0.2-1.1,0.55-1.46,0.68 l-0.76,0.28c-1.06,0.42-1.3,0.09-1.41,1.81c-0.02,0.23-0.16,0.65-0.37,0.64c-0.25,0.03-0.06,0.1-0.23,0.12l-6.68-0.04 c0,0-0.06-0.04-0.07-0.05l-0.06-0.03c-0.56,0.03-0.22-1.5-0.69-1.99c-0.12-0.13-0.17-0.13-0.35-0.2c-0.25-0.1-0.52-0.16-0.79-0.26 c-0.74-0.28-1.55-0.62-2.25-1c-0.25-0.14-0.47-0.26-0.8-0.07c-0.86,0.48-1.12,1.34-2.14,0.59c-1.79-1.32-2.96-2.5-4.28-4.31 c-0.65-0.89,0.62-1.49,0.75-2.12c0.08-0.39-0.1-0.59-0.23-0.83c-0.39-0.72-0.7-1.48-0.97-2.24c-0.22-0.59-0.2-1.11-0.92-1.22 c-0.81-0.12-1.34-0.01-1.57-0.6C4.48,25.11,4.57,23.97,4.44,23.96L4.44,23.96z M22.35,26.34c-1.23,0-2.6-0.52-3.37-1.11 c-0.89-0.68-1.54-1.38-2.03-2.45c-0.8-1.77-0.69-3.81,0.25-5.48c0.63-1.11,1.77-2.19,2.98-2.64c0.26-0.1,0.54-0.23,0.81-0.29 c0.95-0.23,2.07-0.22,3.04,0.01c0.69,0.16,1.69,0.65,2.24,1.11c1.23,1.04,2.28,2.6,2.28,4.42v0.47c0,1.83-0.82,3.25-1.77,4.18 C25.58,25.74,24.1,26.34,22.35,26.34L22.35,26.34z M22.35,25.52l-1.11-0.11c-1.16-0.28-2.4-0.99-3.08-1.9 c-0.14-0.18-0.03-0.43,0.03-0.63c0.07-0.22,0.1-0.38,0.2-0.56c0.24-0.44,1.3-1.02,1.8-1.27c0.22-0.11,0.8-0.48,1.01-0.5l0.36,2.25 c0.08,0.55,0,0.38,0.39,0.91c0.12,0.16,0.43,0.65,0.56,0.72c0.09-0.04,0.05-0.03,0.11-0.09l0.19-0.27 c0.11-0.15,0.16-0.23,0.27-0.38c0.09-0.12,0.18-0.24,0.27-0.38c0.09-0.14,0.18-0.88,0.19-1.09l0.27-1.65c0.2,0.01,1.73,0.88,2,1.06 c0.34,0.22,0.65,0.37,0.82,0.73c0.09,0.2,0.41,0.95,0.19,1.21c-0.89,1.05-2.43,1.96-4.16,1.96H22.35L22.35,25.52z M24.46,18.32 c0,0.63-0.27,0.38-0.39,0.75c-0.06,0.18-0.25,0.59-0.36,0.72c-0.25,0.28-0.99,0.74-1.54,0.55c-0.31-0.11-0.48-0.22-0.72-0.4 c-0.38-0.28-0.5-0.95-0.58-1.05c-0.02-0.02-0.51-0.2-0.3-0.73c0.09-0.24,0.07-0.21,0.04-0.5c-0.03-0.38-0.09-0.65,0.05-1 c0.29-0.72,0.63-0.6,0.9-0.73c0.08-0.04,0.23-0.16,0.33-0.22c0.59-0.35,0.96-0.05,1.09-0.01c0.08,0.02,0.16,0.03,0.24,0.05 c0.13,0.03,0.25,0.1,0.37,0.16c0.85,0.43,0.77,1.24,0.77,1.93C24.36,18.18,24.46,18.02,24.46,18.32L24.46,18.32z M22.07,21.53 c0.08-0.1,0.34-0.38,0.43-0.38c0.09-0.01,0.36,0.3,0.41,0.38c-0.06,0.32-0.25,0.21-0.12,0.68c0.07,0.25,0.12,0.44,0.18,0.69 c0.09,0.39,0.24,0.11-0.26,0.83c-0.17,0.25-0.1,0.19-0.21,0.23c-0.12-0.06-0.32-0.39-0.4-0.51c-0.21-0.3-0.15-0.27-0.05-0.67 c0.07-0.27,0.11-0.42,0.2-0.69C22.36,21.78,22.11,21.77,22.07,21.53L22.07,21.53z M11.67,13.87c0.73-0.17,0.94,1.02,0.21,1.14 c-0.62,0.1-0.91-0.55-0.59-0.94C11.42,13.9,11.45,13.92,11.67,13.87L11.67,13.87z M33.19,13.87c0.72-0.17,0.93,1.07,0.14,1.14 c-0.58,0.05-0.88-0.53-0.54-0.95C32.93,13.91,32.96,13.93,33.19,13.87L33.19,13.87z M22.25,31.72c0.34-0.19,0.69,0.06,0.79,0.29 c0.13,0.31-0.05,0.67-0.27,0.77C22.07,33.07,21.52,32.13,22.25,31.72L22.25,31.72z M21.94,9.14c0-0.27,0.1-0.47,0.33-0.56 c0.89-0.32,1.18,1.11,0.24,1.11C22.15,9.7,21.94,9.5,21.94,9.14z"></path> </g> </svg>