<svg xmlns="http://www.w3.org/2000/svg" xmlns:xlink="http://www.w3.org/1999/xlink" id="Layer_1" x="0px" y="0px" viewBox="0 0 45 45" style="enable-background:new 0 0 45 45;" xml:space="preserve"> <style type="text/css"> .st0{fill-rule:evenodd;clip-rule:evenodd;fill:#FFFFFF;} .st1{fill-rule:evenodd;clip-rule:evenodd;fill:#0A2852;} </style> <g> <circle class="st0" cx="22.5" cy="22.5" r="22.5"></circle> <path class="st1" d="M22.12,6.88c0,0.78,0.08,5.79-0.03,6.12c-0.52,0.03-1.79,0.23-1.81,0.23c0-1.24,0-2.47,0-3.71 c0-1.08,0.1-0.81-0.48-1.39c-0.31-0.31-0.63-0.67-0.94-0.94c0.12-0.36,0.25-0.58,0.13-1.04c-0.27-1.07-1.61-1.38-2.34-0.65 c-1.08,1.07,0.09,2.96,1.66,2.22C18.6,8,18.88,8.28,19.17,8.57c0.14,0.14,0.35,0.25,0.36,0.51c0.01,0.27,0,0.59,0,0.87 c0,1.17,0,2.34,0,3.52c-0.97,0.27-1.66,0.75-2.41,1.18c-0.24-0.13-1.77-1.73-2.09-2.06c-0.35-0.35-0.67-0.68-1.02-1.02 c-0.28-0.27-0.19-0.44-0.19-0.83c0-0.36,0-0.71,0-1.07c0.65-0.29,1.09-0.72,1.01-1.53c-0.17-1.6-2.58-1.61-2.78-0.03 c-0.11,0.85,0.41,1.34,1.01,1.55v1.67c0,0.27-0.04,0.3,0.11,0.45c0.47,0.47,3.13,3.04,3.31,3.33c-0.18,0.23-0.71,0.65-1.03,1.03 c-0.23-0.08-0.92-0.86-1.14-1.08l-2.2-2.21c-0.18-0.18-0.69-0.11-1-0.11c-0.37,0-0.74,0-1.11,0c-0.28-0.63-0.73-1.11-1.53-1.01 c-1.61,0.21-1.62,2.52-0.04,2.78c0.78,0.13,1.3-0.34,1.56-1.01l1.51,0c0.24,0,0.23,0.02,0.36,0.15c0.5,0.52,2.64,2.7,3.07,3.07 c-0.07,0.17-0.64,0.98-0.82,1.32c-0.22,0.43-0.49,0.99-0.63,1.49l-4.35,0c-0.3,0-0.38-0.19-0.53-0.34c-0.2-0.2-0.73-0.67-0.86-0.88 c0.67-1.71-1.22-2.68-2.23-1.65c-0.47,0.48-0.56,1.22-0.13,1.82c0.16,0.22,0.43,0.42,0.75,0.51c0.47,0.13,0.7,0,1.07-0.12 c0.28,0.31,0.62,0.62,0.92,0.93c0.57,0.57,0.3,0.5,1.37,0.5c1.25,0,2.5,0,3.75,0c0,0.21-0.11,0.63-0.14,0.88 c-0.04,0.32-0.06,0.64-0.09,0.97H6.88c-0.12-0.03-0.38-1.16-1.57-1.02c-1.61,0.2-1.63,2.54-0.04,2.78 c1.21,0.18,1.48-0.98,1.61-1.01c0.78,0,5.79-0.08,6.12,0.03c0.02,0.32,0.04,0.63,0.08,0.94c0.03,0.25,0.15,0.67,0.14,0.88 c-0.41,0-4.41-0.05-4.6,0.02c-0.15,0.05-1.3,1.26-1.43,1.4c-0.36-0.12-0.58-0.25-1.04-0.13c-1.06,0.27-1.38,1.61-0.65,2.34 c1.01,1.02,2.9,0.06,2.23-1.65c0.13-0.21,0.66-0.68,0.86-0.89c0.46-0.47,0.34-0.34,1.4-0.34c1.16,0,2.32,0,3.48,0 c0.26,0.95,0.75,1.68,1.18,2.41c-0.13,0.25-2.66,2.68-3.08,3.11c-0.27,0.28-0.44,0.19-0.83,0.19c-0.36,0-0.71,0-1.07,0 c-0.28-0.65-0.73-1.1-1.53-1.01c-0.67,0.07-1.22,0.65-1.22,1.37c-0.01,1.57,2.19,2.01,2.74,0.4l1.67,0c0.27,0,0.3,0.04,0.45-0.11 l2.2-2.21c0.28-0.28,0.83-0.91,1.13-1.1c0.27,0.22,0.62,0.69,1.03,1.03c-0.08,0.23-2.98,3.03-3.29,3.34c-0.18,0.19-0.1,0.72-0.1,1 c0,0.37,0,0.74,0,1.11c-0.35,0.16-0.51,0.22-0.74,0.51c-0.18,0.23-0.32,0.62-0.27,1.01c0.21,1.61,2.52,1.62,2.78,0.04 c0.06-0.4-0.07-0.78-0.25-1.03c-0.22-0.3-0.36-0.38-0.76-0.53l0-1.51c0-0.24,0.03-0.23,0.15-0.35c0.36-0.34,0.68-0.67,1.02-1.02 c0.35-0.35,0.67-0.67,1.03-1.02c0.33-0.33,0.71-0.68,1.02-1.02c0.39,0.15,1.29,1.02,2.81,1.45l0,4.35 c-0.01,0.3-0.19,0.38-0.34,0.53c-0.3,0.3-0.58,0.59-0.88,0.87c-1.57-0.74-2.73,1.16-1.68,2.2c0.72,0.73,2.05,0.49,2.36-0.6 c0.13-0.47,0.01-0.7-0.12-1.07c0.3-0.26,0.63-0.62,0.92-0.92c0.57-0.57,0.5-0.29,0.5-1.37c0-1.25,0-2.5,0-3.75 c0.01,0,1.33,0.2,1.81,0.23c0.04,0.12,0.04,6.06,0.03,6.12c-0.07,0.12-0.29,0.17-0.39,0.24c-1.1,0.68-0.68,2.55,0.75,2.57 c1.43,0.02,1.91-1.85,0.81-2.56c-0.11-0.07-0.34-0.12-0.42-0.25c-0.01-0.05-0.01-5.99,0.03-6.12c0.49-0.03,1.8-0.23,1.81-0.23 c0,1.24,0,2.47,0,3.71c0,1.08-0.1,0.81,0.48,1.39c0.31,0.31,0.63,0.67,0.94,0.94c-0.12,0.36-0.25,0.58-0.13,1.04 c0.27,1.07,1.61,1.38,2.34,0.65c1.08-1.07-0.1-2.96-1.66-2.22c-0.29-0.28-0.56-0.56-0.86-0.85c-0.5-0.51-0.36-0.38-0.36-1.38 c0-1.17,0-2.34,0-3.52c0.97-0.27,1.67-0.75,2.41-1.18c0.25,0.13,1.76,1.73,2.09,2.06c0.35,0.35,0.67,0.68,1.02,1.02 c0.1,0.1,0.18,0.13,0.19,0.31c0.04,0.52,0,1.06,0,1.58c-0.65,0.29-1.09,0.72-1.01,1.53c0.07,0.67,0.65,1.22,1.37,1.22 c1.62,0.01,1.97-2.19,0.4-2.75l0-1.67c0-0.27,0.04-0.3-0.11-0.45c-0.47-0.47-3.13-3.04-3.31-3.33c0.15-0.18,0.34-0.33,0.52-0.49 c0.19-0.17,0.35-0.35,0.51-0.54c0.23,0.08,0.92,0.86,1.14,1.08l2.2,2.21c0.18,0.18,0.69,0.1,1.01,0.1c0.37,0,0.74,0,1.11,0 c0.16,0.35,0.22,0.52,0.51,0.74c0.84,0.64,2.23,0.07,2.25-1.1c0.02-1.18-1.37-1.79-2.22-1.15c-0.29,0.22-0.39,0.37-0.53,0.76 l-1.51,0c-0.24,0-0.23-0.02-0.36-0.15c-0.5-0.53-2.64-2.69-3.07-3.07c0.07-0.17,0.64-0.98,0.82-1.32c0.22-0.43,0.49-1,0.63-1.49 l4.35,0c0.3,0,0.38,0.19,0.53,0.34c0.2,0.2,0.73,0.67,0.86,0.89c-0.67,1.72,1.22,2.67,2.23,1.65c0.71-0.72,0.43-2.04-0.62-2.34 c-0.47-0.13-0.7,0-1.08,0.12c-0.12-0.13-1.24-1.3-1.38-1.38c-0.17-0.1-0.68-0.04-0.91-0.04c-1.25,0-2.5,0-3.75,0 c0-0.21,0.11-0.63,0.14-0.88c0.04-0.31,0.07-0.62,0.08-0.94l6.12-0.03c0.12,0.03,0.38,1.16,1.57,1.02c1.61-0.2,1.63-2.54,0.04-2.78 c-1.2-0.18-1.49,0.98-1.61,1.01L32,22.1c-0.03-0.5-0.23-1.81-0.23-1.81c0.41,0,4.41,0.05,4.6-0.02c0.1-0.03,0.39-0.36,0.49-0.46 c0.31-0.31,0.66-0.63,0.94-0.94c0.36,0.12,0.58,0.25,1.04,0.13c1.06-0.27,1.38-1.61,0.65-2.35c-1.01-1.02-2.9-0.06-2.23,1.65 c-0.14,0.21-0.66,0.68-0.86,0.88c-0.46,0.47-0.35,0.34-1.4,0.34c-1.16,0-2.32,0-3.48,0c-0.26-0.95-0.75-1.68-1.18-2.41 c0.11-0.21,0.79-0.82,1.01-1.04l2.07-2.07c0.27-0.28,0.44-0.19,0.83-0.19c0.36,0,0.71,0,1.07,0c0.28,0.65,0.73,1.1,1.53,1.01 c0.67-0.08,1.22-0.65,1.22-1.37c0.01-1.57-2.18-2.02-2.74-0.4l-1.67,0c-0.27,0-0.3-0.04-0.45,0.11c-0.37,0.37-3.04,3.12-3.33,3.31 l-0.49-0.52c-0.17-0.19-0.35-0.36-0.54-0.51c0.08-0.22,1.98-2.03,2.19-2.24c0.38-0.38,0.73-0.72,1.11-1.1 c0.18-0.19,0.1-0.72,0.1-1.01c0-0.37,0-0.74,0-1.11c0.63-0.28,1.12-0.73,1.01-1.53c-0.09-0.67-0.64-1.22-1.37-1.23 c-1.52-0.03-2.06,2.12-0.4,2.76l0,1.51c0,0.24-0.02,0.23-0.15,0.36c-0.58,0.56-2.62,2.56-3.07,3.07c-0.4-0.15-1.28-1.02-2.81-1.45 l0-4.35c0-0.3,0.19-0.38,0.34-0.53c0.3-0.3,0.58-0.59,0.88-0.87c1.57,0.74,2.73-1.16,1.68-2.2c-0.72-0.73-2.05-0.49-2.36,0.6 c-0.13,0.47-0.01,0.7,0.12,1.07c-0.31,0.27-0.63,0.62-0.92,0.92c-0.57,0.57-0.5,0.29-0.5,1.37c0,1.25,0,2.5,0,3.75 c-0.02,0-1.29-0.2-1.81-0.23c-0.06-0.18-0.06-5.63-0.02-6.16c0.35-0.23,0.5-0.18,0.75-0.54c0.61-0.89,0.08-2.24-1.15-2.23 c-1.41,0.02-1.85,1.86-0.77,2.56C21.82,6.7,22.05,6.75,22.12,6.88L22.12,6.88z M21.58,13.8c2.62-0.35,5.23,0.82,6.61,2.06 c0.44,0.39,0.71,0.63,1.09,1.11c3.08,3.88,2.48,9.26-1.28,12.33c-0.41,0.33-0.81,0.6-1.3,0.87c-0.99,0.55-2.01,0.88-3.3,1.03 c-2.71,0.33-5.18-0.81-6.62-2.09c-4.79-4.24-3.63-11.49,1.48-14.28C19.33,14.26,20.21,13.98,21.58,13.8L21.58,13.8z M20.03,20.9 c0.01-0.8-0.15-2.03,0.26-2.58c0.52-0.7,1.18-0.58,2.22-0.58c1.04,0,1.7-0.11,2.2,0.6c0.39,0.55,0.23,1.78,0.24,2.56 c0.95,0.04,1.57,0.56,1.76,1.35c0.13,0.53,0.05,2.39,0.05,3.07c0,0.52-0.07,0.88-0.34,1.23c-0.2,0.26-0.51,0.51-0.91,0.63 c-0.52,0.15-2.38,0.08-3.05,0.08c-0.68,0-2.51,0.08-3.04-0.09c-0.9-0.28-1.22-1-1.22-1.89c0-0.66-0.08-2.55,0.05-3.06 C18.48,21.45,19.09,20.94,20.03,20.9L20.03,20.9z M19.85,21.68c0.26-0.04,2.49-0.01,2.94-0.01c1.87,0,3.23-0.36,3.22,1.21 c0,0.5,0,1,0,1.5c0,0.99,0.15,1.93-0.83,2.11c-0.28,0.05-2.5,0.02-2.98,0.02c-1.88,0-3.23,0.36-3.22-1.22c0-0.5,0-1,0-1.5 C18.98,22.79,18.83,21.83,19.85,21.68L19.85,21.68z M20.8,20.89c-0.01-2.54-0.22-2.39,1.72-2.39c0.64,0,1.43-0.15,1.64,0.41 c0.08,0.22,0.04,1.63,0.04,1.98H20.8L20.8,20.89z M22.16,24c-0.76-0.33-0.53-1.53,0.35-1.51c0.85,0.02,1.06,1.18,0.32,1.51 c0,0.71,0.14,1.55-0.36,1.52c-0.32-0.01-0.32-0.3-0.32-0.6C22.16,24.62,22.16,24.31,22.16,24L22.16,24z M13,35.75 c0.78-0.21,1.11,1.05,0.28,1.24c-0.41,0.1-0.7-0.17-0.77-0.47C12.39,36.08,12.67,35.84,13,35.75L13,35.75z M36.26,31.25 c0.79-0.17,1.08,1.1,0.23,1.26C35.68,32.66,35.39,31.43,36.26,31.25L36.26,31.25z M31.72,8.02c0.77-0.24,1.16,0.97,0.33,1.22 c-0.56,0.17-1.03-0.42-0.72-0.96C31.42,8.12,31.51,8.09,31.72,8.02L31.72,8.02z M8.5,12.5c0.78-0.2,1.11,1.03,0.28,1.24 C8,13.94,7.6,12.74,8.5,12.5L8.5,12.5z M5.34,21.88c0.8-0.2,1.1,1.08,0.25,1.25C4.8,23.28,4.48,22.09,5.34,21.88L5.34,21.88z M22.36,4.85c0.81-0.2,1.1,1.05,0.31,1.24C21.81,6.3,21.54,5.05,22.36,4.85L22.36,4.85z M8.18,30.94c0.81-0.19,1.1,1.05,0.28,1.24 C7.62,32.39,7.35,31.13,8.18,30.94L8.18,30.94z M13.33,7.68c0.82-0.15,1.05,1.11,0.22,1.26C12.73,9.09,12.48,7.84,13.33,7.68 L13.33,7.68z M38.31,26.76c0.83-0.27,1.15,0.96,0.41,1.21C37.89,28.25,37.52,27.02,38.31,26.76L38.31,26.76z M22.28,38.94 c0.84-0.32,1.19,0.93,0.44,1.2C21.93,40.42,21.48,39.24,22.28,38.94L22.28,38.94z M39.4,21.88c0.35-0.1,0.69,0.17,0.76,0.46 c0.09,0.38-0.16,0.69-0.45,0.77C38.91,23.34,38.5,22.13,39.4,21.88L39.4,21.88z M27.14,37.92c0.79-0.32,1.23,0.88,0.46,1.18 C26.83,39.4,26.33,38.25,27.14,37.92L27.14,37.92z M6.29,17.03c0.83-0.29,1.15,0.98,0.4,1.21C5.87,18.5,5.49,17.31,6.29,17.03 L6.29,17.03z M38.3,17.04c0.81-0.3,1.18,0.9,0.46,1.18C37.96,18.54,37.47,17.35,38.3,17.04L38.3,17.04z M17.41,37.92 c0.79-0.32,1.23,0.88,0.46,1.18c-0.39,0.15-0.72-0.09-0.82-0.35c-0.06-0.16-0.05-0.39,0.02-0.53 C17.14,38.06,17.24,37.99,17.41,37.92L17.41,37.92z M31.31,36.11c0.78-0.36,1.27,0.86,0.49,1.17 C31.06,37.57,30.51,36.49,31.31,36.11L31.31,36.11z M6.29,26.76c0.37-0.13,0.71,0.1,0.8,0.39c0.13,0.4-0.12,0.74-0.4,0.82 C5.86,28.22,5.5,27.03,6.29,26.76L6.29,26.76z M27.18,5.89c0.37-0.13,0.7,0.12,0.79,0.39C28.1,6.66,27.86,7,27.58,7.09 C26.78,7.36,26.33,6.18,27.18,5.89L27.18,5.89z M17.45,5.89c0.37-0.13,0.7,0.12,0.79,0.38c0.13,0.39-0.11,0.73-0.39,0.82 C17.05,7.36,16.6,6.18,17.45,5.89L17.45,5.89z M36.56,12.82c0.83-0.2,1.03,1.07,0.27,1.24C36.03,14.24,35.68,13.04,36.56,12.82z"></path> </g> </svg>