<svg xmlns="http://www.w3.org/2000/svg" xmlns:xlink="http://www.w3.org/1999/xlink" id="Layer_1" x="0px" y="0px" viewBox="0 0 45 45" style="enable-background:new 0 0 45 45;" xml:space="preserve"> <style type="text/css"> .st0{fill-rule:evenodd;clip-rule:evenodd;fill:#FFFFFF;} .st1{fill-rule:evenodd;clip-rule:evenodd;fill:#0A2852;} </style> <g> <circle class="st0" cx="22.5" cy="22.5" r="22.5"></circle> <g> <path class="st1" d="M8.89,17.19c-0.18,0.03-0.23,0.22-0.31,0.36c-0.08,0.15-0.15,0.29-0.24,0.44c-0.32,0.59-0.24,0.57-0.69,0.66 c-0.21,0.04-0.99,0.16-1.11,0.22c-0.37,0.21,0.14,0.61,0.3,0.78l0.16,0.16c0.06,0.06,0.1,0.11,0.16,0.17 c0.06,0.06,0.11,0.12,0.17,0.17c0.06,0.05,0.11,0.11,0.12,0.22c0,0.06-0.13,1.05-0.16,1.19c-0.03,0.18-0.04,0.41,0.21,0.42 C7.65,21.99,7.88,21.86,8,21.8c0.15-0.07,0.3-0.14,0.45-0.22c0.52-0.25,0.41-0.28,0.95-0.01c0.14,0.07,0.3,0.15,0.45,0.22 c0.13,0.06,0.35,0.19,0.51,0.17c0.23-0.03,0.22-0.24,0.2-0.45c-0.02-0.2-0.16-1.06-0.13-1.19c0.04-0.15,0.35-0.42,0.46-0.55 l0.32-0.34c0.05-0.06,0.11-0.1,0.16-0.18c0.11-0.18,0.1-0.37-0.11-0.43c-0.16-0.05-0.4-0.07-0.57-0.1 c-0.19-0.04-0.38-0.07-0.57-0.11c-0.26-0.05-0.29-0.06-0.4-0.26l-0.47-0.87C9.18,17.35,9.1,17.15,8.89,17.19L8.89,17.19z M7.55,21.7c0.02-0.02,0.03-0.07,0.03-0.09c0.04-0.29,0.17-1,0.16-1.25c-0.01-0.17-0.09-0.3-0.21-0.41 c-0.05-0.05-0.1-0.1-0.15-0.16c-0.05-0.06-0.11-0.11-0.16-0.17l-0.17-0.17c-0.06-0.07-0.34-0.27-0.36-0.36 c0.23-0.09,0.75-0.11,1.03-0.16c0.62-0.12,0.59-0.26,0.88-0.8c0.08-0.14,0.16-0.29,0.24-0.44c0.02-0.03,0.09-0.2,0.12-0.22 C8.93,17.48,8.99,17.59,9,17.62l0.47,0.87c0.16,0.29,0.27,0.35,0.59,0.41c0.19,0.03,0.37,0.07,0.56,0.11 c0.18,0.03,0.37,0.05,0.54,0.1c-0.08,0.05-0.14,0.1-0.18,0.15l-0.31,0.33c-0.17,0.19-0.46,0.42-0.53,0.66 c-0.06,0.23,0.09,1.01,0.12,1.29c0,0.04,0.04,0.13,0.03,0.16c-0.08,0-0.27-0.14-0.34-0.17c-0.15-0.07-0.3-0.14-0.44-0.21 c-0.62-0.32-0.59-0.29-1.2,0c-0.15,0.07-0.3,0.15-0.45,0.22C7.81,21.58,7.64,21.67,7.55,21.7z"></path> <path class="st1" d="M12.25,8.95c-0.18,0.03-0.23,0.22-0.31,0.36c-0.08,0.15-0.15,0.29-0.24,0.44c-0.32,0.59-0.24,0.57-0.69,0.66 c-0.21,0.04-0.99,0.16-1.11,0.22c-0.37,0.21,0.14,0.61,0.3,0.78l0.16,0.16c0.06,0.06,0.1,0.11,0.16,0.17 c0.06,0.06,0.11,0.12,0.17,0.17c0.06,0.05,0.11,0.11,0.12,0.22c0,0.06-0.13,1.05-0.16,1.19c-0.03,0.18-0.04,0.41,0.21,0.42 c0.13,0.01,0.37-0.13,0.49-0.18c0.15-0.07,0.3-0.14,0.45-0.22c0.52-0.25,0.41-0.28,0.95-0.01c0.14,0.07,0.3,0.15,0.45,0.22 c0.13,0.06,0.35,0.19,0.51,0.17c0.23-0.03,0.22-0.24,0.2-0.45c-0.02-0.2-0.16-1.06-0.13-1.19c0.04-0.15,0.35-0.42,0.46-0.55 l0.32-0.34c0.05-0.06,0.11-0.1,0.16-0.18c0.11-0.18,0.1-0.37-0.11-0.43c-0.16-0.05-0.4-0.07-0.57-0.1 c-0.19-0.04-0.38-0.07-0.57-0.11c-0.26-0.05-0.29-0.06-0.4-0.26l-0.47-0.87C12.54,9.11,12.46,8.91,12.25,8.95L12.25,8.95z M10.91,13.45c0.02-0.02,0.03-0.07,0.03-0.09c0.04-0.29,0.17-1,0.16-1.25c-0.01-0.17-0.09-0.3-0.21-0.41 c-0.05-0.05-0.1-0.1-0.15-0.16c-0.05-0.06-0.11-0.11-0.16-0.17l-0.17-0.17c-0.06-0.07-0.34-0.27-0.36-0.36 c0.23-0.09,0.75-0.11,1.03-0.16c0.62-0.12,0.59-0.26,0.88-0.8c0.08-0.14,0.16-0.29,0.24-0.44c0.02-0.03,0.09-0.2,0.12-0.22 c-0.02,0.01,0.03,0.12,0.05,0.16l0.47,0.87c0.16,0.29,0.27,0.35,0.59,0.41c0.19,0.03,0.37,0.07,0.56,0.11 c0.18,0.03,0.37,0.05,0.54,0.1c-0.08,0.05-0.14,0.1-0.18,0.15l-0.31,0.33c-0.17,0.19-0.46,0.42-0.53,0.66 c-0.06,0.23,0.09,1.01,0.12,1.29c0,0.04,0.04,0.13,0.03,0.16c-0.08,0-0.27-0.14-0.34-0.17c-0.15-0.07-0.3-0.14-0.44-0.21 c-0.62-0.32-0.59-0.29-1.2,0c-0.15,0.07-0.3,0.15-0.45,0.22C11.17,13.33,11,13.43,10.91,13.45z"></path> <path class="st1" d="M36.11,17.19c0.18,0.03,0.23,0.22,0.31,0.36c0.08,0.15,0.15,0.29,0.24,0.44c0.32,0.59,0.24,0.57,0.69,0.66 c0.21,0.04,0.99,0.16,1.11,0.22c0.37,0.21-0.14,0.61-0.3,0.78l-0.16,0.16c-0.06,0.06-0.1,0.11-0.16,0.17 c-0.06,0.06-0.11,0.12-0.17,0.17c-0.06,0.05-0.11,0.11-0.12,0.22c0,0.06,0.13,1.05,0.16,1.19c0.03,0.18,0.04,0.41-0.21,0.42 c-0.13,0.01-0.37-0.13-0.49-0.18c-0.15-0.07-0.3-0.14-0.45-0.22c-0.52-0.25-0.41-0.28-0.95-0.01c-0.14,0.07-0.3,0.15-0.45,0.22 c-0.13,0.06-0.35,0.19-0.51,0.17c-0.23-0.03-0.22-0.24-0.2-0.45c0.02-0.2,0.16-1.06,0.13-1.19c-0.04-0.15-0.35-0.42-0.46-0.55 l-0.32-0.34c-0.05-0.06-0.11-0.1-0.16-0.18c-0.11-0.18-0.1-0.37,0.11-0.43c0.16-0.05,0.4-0.07,0.57-0.1 c0.19-0.04,0.38-0.07,0.57-0.11c0.26-0.05,0.29-0.06,0.4-0.26l0.47-0.87C35.82,17.35,35.9,17.15,36.11,17.19L36.11,17.19z M37.45,21.7c-0.02-0.02-0.03-0.07-0.03-0.09c-0.04-0.29-0.17-1-0.16-1.25c0.01-0.17,0.09-0.3,0.21-0.41 c0.05-0.05,0.1-0.1,0.15-0.16c0.05-0.06,0.11-0.11,0.16-0.17l0.17-0.17c0.06-0.07,0.34-0.27,0.36-0.36 c-0.23-0.09-0.75-0.11-1.03-0.16c-0.62-0.12-0.59-0.26-0.88-0.8c-0.08-0.14-0.16-0.29-0.24-0.44c-0.02-0.03-0.09-0.2-0.12-0.22 c0.02,0.01-0.03,0.12-0.05,0.16l-0.47,0.87c-0.16,0.29-0.27,0.35-0.59,0.41c-0.19,0.03-0.37,0.07-0.56,0.11 c-0.18,0.03-0.37,0.05-0.54,0.1c0.08,0.05,0.14,0.1,0.18,0.15l0.31,0.33c0.17,0.19,0.46,0.42,0.53,0.66 c0.06,0.23-0.09,1.01-0.12,1.29c0,0.04-0.04,0.13-0.03,0.16c0.08,0,0.27-0.14,0.34-0.17c0.15-0.07,0.3-0.14,0.44-0.21 c0.62-0.32,0.59-0.29,1.2,0c0.15,0.07,0.3,0.15,0.45,0.22C37.19,21.58,37.36,21.67,37.45,21.7z"></path> <path class="st1" d="M32.75,8.95c0.18,0.03,0.23,0.22,0.31,0.36c0.08,0.15,0.15,0.29,0.24,0.44c0.32,0.59,0.24,0.57,0.69,0.66 c0.21,0.04,0.99,0.16,1.11,0.22c0.37,0.21-0.14,0.61-0.3,0.78l-0.16,0.16c-0.06,0.06-0.1,0.11-0.16,0.17 c-0.06,0.06-0.11,0.12-0.17,0.17c-0.06,0.05-0.11,0.11-0.12,0.22c0,0.06,0.13,1.05,0.16,1.19c0.03,0.18,0.04,0.41-0.21,0.42 c-0.13,0.01-0.37-0.13-0.49-0.18c-0.15-0.07-0.3-0.14-0.45-0.22c-0.52-0.25-0.41-0.28-0.95-0.01c-0.14,0.07-0.3,0.15-0.45,0.22 c-0.13,0.06-0.35,0.19-0.51,0.17c-0.23-0.03-0.22-0.24-0.2-0.45c0.02-0.2,0.16-1.06,0.13-1.19c-0.04-0.15-0.35-0.42-0.46-0.55 l-0.32-0.34c-0.05-0.06-0.11-0.1-0.16-0.18c-0.11-0.18-0.1-0.37,0.11-0.43c0.16-0.05,0.4-0.07,0.57-0.1 c0.19-0.04,0.38-0.07,0.57-0.11c0.26-0.05,0.29-0.06,0.4-0.26l0.47-0.87C32.46,9.11,32.54,8.91,32.75,8.95L32.75,8.95z M34.09,13.45c-0.02-0.02-0.03-0.07-0.03-0.09c-0.04-0.29-0.17-1-0.16-1.25c0.01-0.17,0.09-0.3,0.21-0.41 c0.05-0.05,0.1-0.1,0.15-0.16c0.05-0.06,0.11-0.11,0.16-0.17l0.17-0.17c0.06-0.07,0.34-0.27,0.36-0.36 c-0.23-0.09-0.75-0.11-1.03-0.16c-0.62-0.12-0.59-0.26-0.88-0.8c-0.08-0.14-0.16-0.29-0.24-0.44c-0.02-0.03-0.09-0.2-0.12-0.22 c0.02,0.01-0.03,0.12-0.05,0.16l-0.47,0.87c-0.16,0.29-0.27,0.35-0.59,0.41c-0.19,0.03-0.37,0.07-0.56,0.11 c-0.18,0.03-0.37,0.05-0.54,0.1c0.08,0.05,0.14,0.1,0.18,0.15l0.31,0.33c0.17,0.19,0.46,0.42,0.53,0.66 c0.06,0.23-0.09,1.01-0.12,1.29c0,0.04-0.04,0.13-0.03,0.16c0.08,0,0.27-0.14,0.34-0.17c0.15-0.07,0.3-0.14,0.44-0.21 c0.62-0.32,0.59-0.29,1.2,0c0.15,0.07,0.3,0.15,0.45,0.22C33.83,13.33,34,13.43,34.09,13.45z"></path> <path class="st1" d="M22.54,4.8c0.18,0.03,0.23,0.22,0.31,0.36C22.92,5.3,23,5.44,23.08,5.59c0.32,0.59,0.24,0.57,0.69,0.66 c0.21,0.04,0.99,0.16,1.11,0.22c0.37,0.21-0.14,0.61-0.3,0.78l-0.16,0.16c-0.06,0.06-0.1,0.11-0.16,0.17 c-0.06,0.06-0.11,0.12-0.17,0.17c-0.06,0.05-0.11,0.11-0.12,0.22c0,0.06,0.13,1.05,0.16,1.19c0.03,0.18,0.04,0.41-0.21,0.42 c-0.13,0.01-0.37-0.13-0.49-0.18c-0.15-0.07-0.3-0.14-0.45-0.22c-0.52-0.25-0.41-0.28-0.95-0.01c-0.14,0.07-0.3,0.15-0.45,0.22 c-0.13,0.06-0.35,0.19-0.51,0.17c-0.23-0.03-0.22-0.24-0.2-0.45c0.02-0.2,0.16-1.06,0.13-1.19c-0.04-0.15-0.35-0.42-0.46-0.55 l-0.32-0.34c-0.05-0.06-0.11-0.1-0.16-0.18c-0.11-0.18-0.1-0.37,0.11-0.43c0.16-0.05,0.4-0.07,0.57-0.1 c0.19-0.04,0.38-0.07,0.57-0.11c0.26-0.05,0.29-0.06,0.4-0.26l0.47-0.87C22.25,4.95,22.32,4.76,22.54,4.8L22.54,4.8z M23.88,9.3 c-0.02-0.02-0.03-0.07-0.03-0.09c-0.04-0.29-0.17-1-0.16-1.25c0.01-0.17,0.09-0.3,0.21-0.41c0.05-0.05,0.1-0.1,0.15-0.16 c0.05-0.06,0.11-0.11,0.16-0.17l0.17-0.17c0.06-0.07,0.34-0.27,0.36-0.36c-0.23-0.09-0.75-0.11-1.03-0.16 c-0.62-0.12-0.59-0.26-0.88-0.8c-0.08-0.14-0.16-0.29-0.24-0.44c-0.02-0.03-0.09-0.2-0.12-0.22c0.02,0.01-0.03,0.12-0.05,0.16 L21.95,6.1c-0.16,0.29-0.27,0.35-0.59,0.41c-0.19,0.03-0.37,0.07-0.56,0.11c-0.18,0.03-0.37,0.05-0.54,0.1 c0.08,0.05,0.14,0.1,0.18,0.15l0.31,0.33c0.17,0.19,0.46,0.42,0.53,0.66c0.06,0.23-0.09,1.01-0.12,1.29 c0,0.04-0.04,0.13-0.03,0.16c0.08,0,0.27-0.14,0.34-0.17c0.15-0.07,0.3-0.14,0.44-0.21c0.62-0.32,0.59-0.29,1.2,0 c0.15,0.07,0.3,0.15,0.45,0.22C23.61,9.18,23.78,9.27,23.88,9.3z"></path> <path class="st1" d="M16.92,17.72c0.09,0.17,0.17,0.53,0.18,0.73c-0.77,0.41-0.55,1.4,0.02,1.99c0.14,0.14,0.23,0.15,0.24,0.42 c0.01,0.4-0.02,0.87-0.03,1.28c-0.34,0.02-0.51-0.12-0.85,0.04c-0.79,0.38-1.07,2.14,0.09,3.03c0.45,0.34,0.69,0.36,1.32,0.48 c0.24,0.57,1.87,2.67,1.9,2.83c0.05,0.27,0.02,1.3,0,1.63c-0.77,0.49-1.4,1.14-2.04,1.33c-0.2,0.06-0.67,0.22-0.86,0.21 c-0.6-0.96-0.58-0.89-2.26-0.46c-0.39,0.1-0.95,0.2-1.29,0.33c-0.48,0.19-0.53,0.52-0.57,1.1c-0.15,0.32-1.01-0.12-2.03,3.24 c-0.21,0.68-0.39,1.34-0.57,2.04c-0.12,0.46-0.22,0.7,0.38,0.7c0.45,0,0.9,0,1.35,0l22.37,0c0.56,0,0.7-0.03,0.55-0.59 c-0.18-0.67-0.38-1.42-0.57-2.08c-0.37-1.28-0.9-2.85-2.04-3.27c-0.05-0.56-0.04-0.9-0.51-1.12c-0.29-0.14-0.93-0.25-1.31-0.35 c-1.07-0.27-1.81-0.68-2.27,0.44c-0.78,0.07-2.15-0.82-2.73-1.34c-0.3-0.27-0.21-0.42-0.21-1.15c0.01-1.04-0.03-0.62,0.85-1.86 c0.21-0.3,0.95-1.34,1.07-1.63c0.67-0.13,0.84-0.1,1.32-0.48c0.31-0.24,0.57-0.59,0.71-1.09c0.19-0.64-0.01-1.65-0.62-1.94 c-0.36-0.17-0.49-0.04-0.85-0.04c-0.01-0.41-0.02-0.83-0.03-1.24c0-0.43,0.15-0.28,0.48-0.77c0.39-0.59,0.39-1.36-0.22-1.69 c0.01-0.2,0.09-0.56,0.18-0.73c0.35,0,0.77,0.65,1.6,0.06c0.38-0.27,0.66-0.76,0.65-1.46c-0.04-3.24-5.07-4.7-7.88-4.67 c-2.8,0.03-7.81,1.44-7.79,4.77c0,0.68,0.31,1.13,0.68,1.39c0.22,0.15,0.49,0.25,0.8,0.22C16.53,17.97,16.71,17.72,16.92,17.72 L16.92,17.72z M21.43,13.75c0.68-0.22,1.44-0.25,2.14,0c0.08,0.46-0.03,1.22-0.16,1.63c-0.35,1.11-1.45,1.18-1.83-0.04 C21.45,14.92,21.34,14.28,21.43,13.75L21.43,13.75z M24.13,13.98c0,1-0.18,2.16-0.92,2.6c-0.41,0.25-0.94,0.27-1.39,0.02 c-0.8-0.45-0.95-1.71-0.95-2.57c0-0.92,0.09-0.72,0.88-0.89c0.73-0.16,0.77-0.17,1.48-0.01c0.73,0.16,0.91-0.02,0.91,0.81 L24.13,13.98L24.13,13.98z M21.15,29.57c0.64,0.14,1.29,0.2,1.98,0.14c1.16-0.12,1.18-0.4,1.53-0.57c0.03,1.21,0.06,1-0.56,2.11 l-0.95,1.68c-0.01,0.15-0.13,0.32-0.2,0.45c-0.15,0.28-0.14,0.38-0.27,0.4c-0.5,0.1-0.51-0.16-0.7-0.52 c-0.08-0.16-0.2-0.37-0.28-0.53c-0.2-0.37-0.37-0.68-0.58-1.08c-0.79-1.46-0.81-1.16-0.78-2.52 C20.64,29.28,20.45,29.35,21.15,29.57L21.15,29.57z M21.78,38.1l0.26-1.03c0-0.01,0.01-0.03,0.02-0.04l0.04-0.07 c0.48,0.05,0.38,0.03,0.84-0.01l0.25,1.15L21.78,38.1L21.78,38.1z M23.7,34.87c-0.09,0.29-0.43,0.87-0.62,1.12 c-0.32,0.43-0.62,0.67-1.03,0.23c-0.22-0.23-0.55-0.68-0.71-1c-0.13-0.26,0.07-0.36,0.21-0.53c0.39-0.46,0.24-0.36,1.44-0.36 c0.28,0,0.27,0.06,0.41,0.22C23.51,34.67,23.63,34.74,23.7,34.87L23.7,34.87z M28.67,31.85c0.05-0.41,0.33-0.42,0.7-0.32 l1.79,0.44c0.32,0.08,0.53,0.14,0.49,0.54C31.29,32.49,28.95,31.99,28.67,31.85L28.67,31.85z M23.4,33.74 c0.02-0.06,1.41-2.82,1.62-2.99c0.18,0.09,0.18,0.12,0.34,0.25c0.11,0.09,0.22,0.17,0.34,0.25c0.25,0.18,0.47,0.3,0.7,0.46 c-0.02,0.2-0.75,1.39-0.88,1.63l-0.91,1.57C24.43,34.86,23.52,33.87,23.4,33.74L23.4,33.74z M24.17,35.3 c0.07,0.11,0.35,0.36,0.5,0.36c0.22,0,0.31-0.27,0.41-0.43c0.53-0.92,1.44-2.44,1.86-3.27c0.32,0.02,1.05,0.27,1.38,0.36 c0.42,0.12,0.9,0.23,1.34,0.33c0.7,0.16,2.22,0.39,2.68,0.7c0.82,0.55,1.33,2.39,1.62,3.43c0.1,0.35,0.3,0.96,0.34,1.32 c-0.67,0.02-4.06,0.03-4.55-0.01c-0.13-0.35-0.11-1.33-0.5-1.33c-0.49,0-0.11,0.96-0.11,1.32c-0.83,0.04-4.76,0.06-5.33,0.01 c-0.04-0.11-0.42-1.5-0.41-1.59C23.43,36.4,24.13,35.34,24.17,35.3L24.17,35.3z M13.33,32.52c-0.05-0.46,0.2-0.46,0.57-0.55 c0.3-0.07,0.58-0.15,0.89-0.23c0.86-0.21,1.43-0.5,1.53,0.11C15.99,31.99,13.61,32.5,13.33,32.52L13.33,32.52z M18.57,31.72 c0.08-0.11,1.3-0.96,1.43-1.01l1.62,3.03c-0.12,0.2-1.06,1.33-1.23,1.4C20.25,34.98,18.61,31.88,18.57,31.72L18.57,31.72z M10.71,38.1c0.04-0.35,0.24-0.98,0.35-1.36c0.28-1.03,0.81-2.86,1.64-3.39c0.4-0.25,3.09-0.77,4.02-1.02 c0.38-0.1,1.03-0.32,1.35-0.36c0.16,0.37,0.4,0.8,0.62,1.18l1.25,2.35c0.11,0.21,0.18,0.48,0.44,0.45c0.21-0.03,0.28-0.3,0.5-0.4 c0.09,0.08,0.27,0.41,0.39,0.56c0.13,0.18,0.33,0.35,0.31,0.54c-0.02,0.15-0.33,1.35-0.38,1.46c-1.04,0.04-4.22,0.04-5.34-0.02 c0.01-0.32,0.18-0.84,0.15-1.18c-0.61-0.52-0.63,0.65-0.74,1.2L10.71,38.1L10.71,38.1z M27.66,22.82c0.76-0.59,1.14,0.32,1,1.07 c-0.12,0.61-0.66,1.17-1.29,1.21c0.02-0.34,0.16-0.74,0.2-1.1C27.61,23.61,27.61,23.21,27.66,22.82L27.66,22.82z M17.64,25.11 c-0.98-0.06-1.75-1.41-1.11-2.29c0.15-0.21,0.39-0.25,0.66-0.11c0.25,0.13,0.17,0.41,0.19,0.77 C17.43,24.15,17.62,24.8,17.64,25.11L17.64,25.11z M27.11,21.14c0.13,0.43-0.02,2.51-0.1,3.02c-0.17,1.09-0.43,1.45-0.96,2.24 c-0.33,0.49-1.59,2.41-2.17,2.6c-0.82,0.27-1.97,0.28-2.79-0.01c-0.53-0.19-1.82-2.12-2.16-2.62c-0.49-0.73-0.78-1.13-0.94-2.24 c-0.14-0.94-0.16-2.06-0.11-3.04c0.14,0,0.78,0.29,1.02,0.36c0.34,0.1,0.73,0.2,1.09,0.25c1.81,0.27,4.44,0.31,6.17-0.26 C26.53,21.33,26.98,21.07,27.11,21.14L27.11,21.14z M27.65,18.93c0.56,0.31-0.08,1.07-0.29,1.26c-0.31,0.28-0.82,0.61-1.32,0.71 c-0.19,0.11-0.97,0.25-1.2,0.29c-0.43,0.08-0.88,0.1-1.35,0.14c-0.9,0.07-1.98,0.04-2.88-0.07c-1.1-0.13-2.56-0.46-3.22-1.32 c-0.22-0.29-0.44-0.77-0.05-1.01c0.23-0.22,1.18-0.62,1.55-0.77c0.55-0.22,1.14-0.36,1.83-0.47c0.82-0.13,3.53-0.19,4.17,0.12 c0.82,0.16,1.74,0.53,2.47,0.94L27.65,18.93L27.65,18.93z M29.52,17.18c-0.07,0.13-0.11,0.17-0.25,0.24 c-0.12,0.05-0.24,0.08-0.37,0.06c-0.24-0.02-0.41-0.17-0.49-0.35c0.35-0.52,0.84-0.36,0.43-0.89c-0.77-0.08-1.27,1.2-1.43,1.88 c-0.18-0.04-0.47-0.2-0.66-0.29c-0.21-0.09-0.47-0.19-0.67-0.27c-0.2-0.08-1.44-0.37-1.48-0.41c-0.24,0.02-0.63-0.08-0.92-0.1 c-0.75-0.04-2.3-0.03-2.96,0.08c-1.81,0.29-2.89,0.94-3.14,0.97c-0.18-1.41-1.47-2.3-1.55-1.64c-0.03,0.3,0.39,0.32,0.55,0.67 c-0.26,0.74-1.74,0.33-1.33-1.35c0.22-0.89,0.79-1.43,1.44-1.88c1.43-1,3-1.41,5.02-1.67c2.2-0.29,6.07,0.74,7.51,2.5 C29.93,15.58,29.96,16.95,29.52,17.18z"></path> </g> </g> </svg>