<?xml version="1.0" encoding="UTF-8"?> <svg xmlns="http://www.w3.org/2000/svg" xmlns:xlink="http://www.w3.org/1999/xlink" version="1.1" id="Layer_1" x="0px" y="0px" viewBox="0 0 70 70" style="enable-background:new 0 0 70 70;" xml:space="preserve"> <style type="text/css"> .st0{clip-path:url(#SVGID_1_);} .st1{fill-rule:evenodd;clip-rule:evenodd;fill:#0B2852;} </style> <g> <g> <defs> <rect id="SVGID_3_" width="70" height="70"></rect> </defs> <clipPath id="SVGID_1_"> <use xlink:href="#SVGID_3_" style="overflow:visible;"></use> </clipPath> <g class="st0"> <path class="st1" d="M26.13,94.73h2.76c3.16-2.61,3.19-1.84,3.15-7.49l-0.01-25.77c-0.02-1.85-0.51-3.88,0.73-4.66 c1.26,0.48,0.69-0.05,0.99,1.37c0.33,1.56-0.44,31.35,0.24,33.44c0.44,1.37,1.28,1.87,2.48,2.86c0.07,0.06,0.2,0.16,0.3,0.25 h2.95c3.83-3.02,3.16-2.59,3.16-10.31V44.75c-2.56,0.27-0.19-0.04-1.47,1.4c-1.01,1.14-8.22,3.85-10.01,4.63 c-2.84,1.23-1.67,0.64-3.9-0.09c-0.12,1.62-0.46,2.84-1.48,3.57c-1.24,0.9-0.5,0.22-1.7,0.7c-1.74,0.69-0.56-0.76-1.43,0.89 l-0.01,31.86C22.86,92.39,22.94,92.57,26.13,94.73L26.13,94.73z M58.01,31.32l1.18,1.36c0.06,0.06,0.18,0.17,0.24,0.23l0.5,0.43 c1.76-0.66,3.96-1.56,5.41-2.46l-0.82-2.13L58.01,31.32L58.01,31.32z M8.6,58.4c0.63,1.38,2.87,4.96,4.01,6.27 c1.69-1.2,7.12-8.15,8.73-10.22l-2.1-2.87C17.39,52.15,10.24,56.95,8.6,58.4L8.6,58.4z M52.76,37.53 c0.55-2.95,0.51-6.33,4.19-5.45c2.87,0.68,2.3,4.33,1.39,7.2c-2.18,6.87-8.59,4.47-11.38,0.38L52.76,37.53L52.76,37.53z M33.38,1.04h-1.03c-5.24,3.99-7.44,0.84-9.89,7.09c-1.31,3.34,0.28,2.62,1.65,4.82c1.05,1.69,0.39,4.95,1.84,7.07 c2.52,3.68,7.99,5.22,12.19,1.86c5.29-4.23,0.46-8.32,5.91-11.27C42.07,1.41,38.36,5.18,33.38,1.04L33.38,1.04z M22.9,38.99 c0-2.87,0.72-5.11,0.52-8.45c-0.36-6.05-3.03-4.7,19.4-4.69c-0.49,4.37-0.59,6.87-0.22,11.27l-15.87,6.62 C22.69,45.53,22.9,46.11,22.9,38.99L22.9,38.99z M21.99,26.71c0.11,1.23,0.51,4.11,0.35,5.21c-0.36,2.6-4.92,4.05-0.5,11.88 c1.59,2.81,4.26,5.65,4.53,6.3c1.2,2.89-1.98,5.4-4.47,3.52C15.04,48.47,8.65,30.62,21.99,26.71L21.99,26.71z M24.02,45.7 l28.55-11.94l-0.3,2.78l-7.21,3.38l0.53,2.53c-3.2,1.72-3.14,0.6-4.74,2.69c-1.19,1.56-9.9,5.52-11.58,5.22l-1.17-0.36 C26.52,49.5,24.94,47.23,24.02,45.7L24.02,45.7z M49.53,33.83c-0.66-1.5-3.96-6.87-5.23-7.76c-0.88,1.36-1.24,6.94-0.79,8.71 c0.53,2.05,0.81,1.56,2.63,0.79C47.24,35.11,48.68,34.47,49.53,33.83L49.53,33.83z M25.02,12.06c-0.14-2.8,4.97-3.04,7.74-3.06 c1.76-0.01,3.41,0.11,5.07,0.55c2.05,0.54,2.72,0.61,3.18,2.22c-2.94-0.47-3.99-1.55-8.25-1.53 C29.91,10.25,26.69,10.76,25.02,12.06L25.02,12.06z M29.82,5.72c4.44-2.89,2.28-2.55,5.01-0.69l0.56,0.31 c0.08,0.04,0.43,0.18,0.57,0.27l-3.22,1.42L29.82,5.72L29.82,5.72z M25.5,34.02h5.44c-0.32-1.94,0.39-1.5-2.38-1.53 C25.58,32.46,25.92,32,25.5,34.02L25.5,34.02z M34.86,33.37c0.72,0.5,0.47,0.67,2.58,0.72c0.06,0,1.42-0.03,1.43-0.03 c1.28-0.23,0.72-0.09,1.4-0.69c-0.65-1.23,0.05-0.83-2.33-0.87C33.5,32.43,35.72,32.81,34.86,33.37z"></path> </g> </g> </g> </svg> 