<svg xmlns="http://www.w3.org/2000/svg" xmlns:xlink="http://www.w3.org/1999/xlink" id="Layer_1" x="0px" y="0px" viewBox="0 0 45 45" style="enable-background:new 0 0 45 45;" xml:space="preserve"> <style type="text/css"> .st0{fill-rule:evenodd;clip-rule:evenodd;fill:#FFFFFF;} .st1{fill-rule:evenodd;clip-rule:evenodd;fill:#0A2852;} </style> <g> <circle class="st0" cx="22.5" cy="22.5" r="22.5"></circle> <g> <path class="st1" d="M35.77,17.83c-0.42,0.06-0.83,0.11-1.25,0.17c-0.45,0.06-0.88,0.07-1.07,0.4c-0.34,0.59,0.47,1.13,1.01,1.71 l2.13,2.21c0.15,0.16,0.55,0.62,0.83,0.65c0.63,0.07,0.85-0.69,1.34-1.56c0.37-0.66,0.66-1.21,1.02-1.86 c0.17-0.31,0.33-0.61,0.5-0.92c0.17-0.32,0.47-0.69,0.15-1.08c-0.45-0.54-1.8-0.01-2.52-0.03c-0.13-0.26-0.48-1.4-0.81-2.1 c-2.16-4.64-6.12-8.13-11.32-9.47C12.39,2.5,0.06,15.85,5.93,29.51c2.33,5.42,7.74,9.32,13.72,9.99c0.91,0.1,1.89,0.13,2.83,0.08 c0.92-0.05,1.89-0.04,2.09-0.89c0.11-0.48-0.11-0.88-0.35-1.07c-0.38-0.29-0.7-0.22-1.23-0.17c-0.94,0.08-1.94,0.1-2.89,0 c-6.12-0.62-11.24-4.82-12.97-10.73c-0.99-3.38-0.69-7.1,0.61-10.09c0.64-1.46,1.39-2.61,2.24-3.66c0.79-0.97,1.96-2.08,3.11-2.84 c5.62-3.71,12.53-3.43,17.85,0.69c1,0.78,2.11,1.95,2.86,3.04C34.36,14.66,35.67,16.88,35.77,17.83z"></path> <path class="st1" d="M21.2,21.21l-1.23-2.13c-0.97-1.67-2.22-3.7-3.11-5.33c-0.64-1.17-1.85-0.52-1.77,0.36 c0.03,0.36,1.58,2.88,1.81,3.26c0.87,1.48,1.66,2.86,2.5,4.28c0.11,0.19,0.18,0.32,0.3,0.52c0.21,0.35,0.16,0.22,0.18,0.67 c0.08,1.5,2.13,1.98,2.86,0.64c0.19-0.34,0.42-0.4,0.96-0.7l3.28-1.85c0.3-0.17,0.85-0.43,1.05-0.61 c0.74-0.65-0.02-2.02-1.14-1.39c-0.39,0.22-0.72,0.4-1.1,0.62l-3.24,1.83c-0.3,0.18-0.26,0.05-0.57-0.08 C21.72,21.21,21.5,21.2,21.2,21.21z"></path> <path class="st1" d="M23.87,31.73c0,0.96-0.07,0.82,1.36,0.82c0.59,0,1.27-0.03,1.85,0.01c0.03,0.49-0.01,1.01,0,1.51 c0.01,0.61,0.5,0.45,1.07,0.45c0.69,0,0.41-0.53,0.46-1.95c0.31-0.06,0.8,0.08,0.93-0.19c0.09-0.17,0.07-0.89-0.01-1.05 c-0.2-0.27-0.54-0.14-0.91-0.18c-0.06-1.13-0.02-2.74-0.02-3.92c0-0.64-0.29-0.52-1.14-0.52c-0.46,0-0.46,0.09-0.66,0.4 l-2.58,3.86C24.09,31.19,23.86,31.42,23.87,31.73L23.87,31.73z M25.82,31.15c0.06-0.15,1.11-1.72,1.27-1.82l0,1.82H25.82z"></path> <path class="st1" d="M21.08,33.08c0.06-0.15,0.41-0.5,0.56-0.65c0.5-0.5,1.2-1.46,1.53-2.17c1.38-3-2.23-5.15-4.56-2.51 c-0.28,0.32,0.1,0.57,0.25,0.73c0.18,0.18,0.43,0.56,0.76,0.23c0.33-0.33,0.86-0.93,1.68-0.67c0.63,0.2,0.74,1.02,0.47,1.69 c-0.43,1.05-1.99,2.55-2.81,3.39c-0.28,0.29-0.41,0.27-0.41,0.86c0,0.74,0.33,0.55,1.95,0.55c0.83,0,1.66,0,2.49,0 c0.48,0,0.81,0.11,0.84-0.4C23.89,32.72,23.84,33.1,21.08,33.08z"></path> <path class="st1" d="M35.52,28.17l2.72,0c-0.07,0.21-0.71,1.17-1.11,2.25c-0.31,0.85-0.48,1.8-0.58,2.78 c-0.15,1.42-0.17,1.33,1.06,1.32c0.91-0.01,0.22-0.99,0.85-3.41c0.55-2.1,1.37-2.66,1.72-3.3c0.09-0.17,0.09-0.55,0.06-0.77 c-0.04-0.33-0.22-0.33-0.53-0.32c-1.12,0-2.25,0-3.37,0c-1.11,0-1.48-0.27-1.35,1.1C35.03,28.14,35.19,28.17,35.52,28.17z"></path> <path class="st1" d="M33.18,25c-0.14,0.12-2.25,7.19-2.62,8.36c-0.3,0.94-0.81,1.92-0.12,1.97c1.17,0.08,0.85,0.03,1.74-2.84 l1.72-5.59c0.15-0.48,0.3-0.95,0.44-1.42c0.09-0.3,0.05-0.51-0.28-0.55C33.88,24.9,33.31,24.89,33.18,25z"></path> <path class="st1" d="M7.46,21.81c-0.72,0.23-0.67,1.27,0.07,1.43c0.26,0.06,2.17,0.05,2.4-0.02c0.69-0.23,0.65-1.27-0.08-1.43 C9.58,21.73,7.68,21.73,7.46,21.81z"></path> <path class="st1" d="M21.21,8.04c-0.67,0.25-0.48,1.16-0.48,1.98c0,0.38-0.06,0.82,0.12,1.11c0.14,0.23,0.48,0.43,0.89,0.29 c0.67-0.23,0.48-1.25,0.48-1.98c0-0.36,0.06-0.85-0.12-1.12C21.92,8.07,21.56,7.91,21.21,8.04z"></path> </g> </g> </svg>