<?xml version="1.0" encoding="UTF-8"?> <svg xmlns="http://www.w3.org/2000/svg" xmlns:xlink="http://www.w3.org/1999/xlink" version="1.1" id="Layer_1" x="0px" y="0px" viewBox="0 0 70 70" style="enable-background:new 0 0 70 70;" xml:space="preserve"> <style type="text/css"> .st0{clip-path:url(#SVGID_1_);} .st1{fill-rule:evenodd;clip-rule:evenodd;fill:#0B2852;} </style> <g> <defs> <rect id="SVGID_3_" width="70" height="70"></rect> </defs> <clipPath id="SVGID_1_"> <use xlink:href="#SVGID_3_" style="overflow:visible;"></use> </clipPath> <g class="st0"> <g> <path class="st1" d="M21,0.6c-0.73,0.07-1.26,0.56-1.5,1.06c-0.31,0.62-0.29,1.52-0.3,2.29c-0.01,1.23,0.03,1.17-1.48,1.1 c-2.56-0.12-4.28,0.22-6.64,1.11C9.88,6.62,8.73,7.37,7.78,8.01C7.51,8.19,7.31,8.37,7.06,8.58c-2.6,2.11-4.7,5.37-5.4,8.8 c-0.34,1.68-0.34,3.07-0.34,4.83c0,13.77,0,27.53,0,41.3c0,1.09-0.14,4.16,0.22,4.95c0.47,1.03,2.47,1.55,3.43,0.23 c0.53-0.73,0.51-1.03,0.51-2.07V22.73c0-1.82-0.04-3.09,0.37-4.79c0.66-2.75,2.5-5.03,4.09-6.24c1.85-1.41,4.66-2.62,7.77-2.55 c1.92,0.05,1.67,0.06,1.67,0.85c0,0.61,0.07,2.06-0.02,2.56c-0.12,0.64-0.89,0.89-1.38,1.19c-2.54,1.55-4.52,3.98-5.58,7.32 c-0.46,1.45-0.54,2.96-0.54,4.6c-0.04,9.47,0,18.92,0,28.39c0,1.21-0.12,1.03,1.5,1.03h15.49c1.12,0,9.97,0.12,10.22-0.09 c0.23-0.19,0.12-2.04,0.12-2.48c0-0.73,0.04-6.13-0.03-6.43c-0.09-0.39-0.54-0.34-0.94-0.34c-1.72,0-3.44,0-5.16,0 c-1.07,0-4.25,0.13-5.03-0.16c-0.66-0.24-1.11-0.66-1.43-1.15c-0.42-0.65-0.42-1.26-0.42-2.15V29.42c0-1.69-0.27-2.99,1.09-4.06 c0.52-0.42,1.16-0.6,2-0.58c2.88,0.05,6.09,0,9.04,0c0.44,0,0.81,0.05,0.86-0.42c0.11-1.05-0.54-3.41-0.9-4.27 c-2.12-5.05-5.53-6.3-6.05-6.85c-0.43-0.45-0.75-0.98-0.72-1.88c0.03-0.85,0.05-1.67,0.05-2.53c0-0.75-0.1-1.82-0.02-2.53 c0.49,0.06,2.07,1.16,2.58,1.48c2.03,1.29,4.33,2.67,6.31,3.97c1.92,1.26,3.55-0.42,3.25-1.92c-0.22-1.1-1.11-1.45-2.06-2.05 c-0.85-0.54-1.68-1.06-2.52-1.59c-0.45-0.28-2.23-1.36-2.49-1.62c1.69-0.18,3.05,0.39,3.9-0.93c0.68-1.05,0.31-2.4-0.88-2.91 c-0.04-0.02-0.06-0.02-0.1-0.04c-0.11-0.07-0.03,0.01-0.11-0.09C39.28,0.46,21.91,0.61,21,0.6z"></path> <path class="st1" d="M15.53,69.44c1.79,0,19.87,0.05,20.06-0.02c0.2-0.08-0.09-0.06,0.43-0.15c1.3-0.22,2.43-1.19,2.89-2.46 c0.27-0.76,0.24-1.29,0.24-2.15c0-1.58,0-3.16,0-4.73c0-1.02,0.04-0.91-1.49-0.91H12.8c-0.38,0-0.83-0.06-0.94,0.25 c-0.11,0.33,0.01,3.92-0.04,4.7c-0.09,1.46,0.12,2.88,0.84,3.83c0.53,0.71,1.23,1.17,2.07,1.52c0.17,0.07,0.26,0.13,0.43,0.09 C15.76,69.26,15.14,69.36,15.53,69.44z"></path> <path class="st1" d="M47.55,58.96c0.14,0.06,0.18,0.06,0.39,0.06c0.2,0,0.26-0.01,0.43-0.1c-0.01-0.06-0.05-0.11-0.07-0.19 l-0.2-0.72c-0.06-0.29-0.08-0.25-0.15-0.46c-0.09-0.25-0.05-0.38-0.18-0.72c-0.16-0.42-0.33-1.3-0.39-1.73 c-0.14-1.1,0.04-3.17,0.59-4.24c0.05-0.09,0.08-0.13,0.12-0.22l0.03-0.07c0.01-0.01,0.01-0.02,0.01-0.04l0.02-0.07 c0.13-0.36,0.36-0.64,0.5-1.08c0.1-0.32,0.45-0.96,0.59-1.26c0.22-0.49,0.86-2.24,1.4-2.49c0.14-0.07,0.38-0.06,0.54-0.01 c0.29,0.09,0.41,0.3,0.53,0.46l0.04,0.06c0.01,0.01,0.02,0.03,0.03,0.02c0-0.01,0.02,0.02,0.03,0.02 c-0.1,0.05,0.34,1.84,0.38,2.15c0.1-0.15,0.02-0.38-0.02-0.61c-0.11-0.71-0.4-1.4-0.2-1.93c0.12-0.31,0.77-1.96,0.87-2.07 l0.2,0.01c0.12,0.21,0.36,1.59,0.44,1.95c0.09,0.42,0.28,1.72,0.43,1.99c0.67-0.52,1.51-2.52,1.62-3.49 c0.08-0.72,0.67-3.71,0.83-4.29c0.13-0.47,0.16-0.96,0.26-1.46l0.22-1.08c0.04-0.19,0.02-0.19,0.14-0.3 c0.26-0.1,0.26,0.16,0.42,0.5c0.11,0.25,0.18,0.4,0.3,0.66c0.18,0.41,0.41,0.89,0.6,1.26c0.42,0.82,0.81,1.67,1.21,2.53 c0.77,1.69,1.59,3.36,2.36,5.09c0.99,2.22,1.53,3.19,1.03,6.03c-0.18,1.03-0.52,1.96-0.79,2.94c-0.14,0.51-0.79,2.68-0.81,2.98 l3.97-0.03c0.59-0.76,0.77-0.81,1.29-1.8c1.31-2.51,1.4-5.1,0.37-7.67c-0.14-0.36-0.34-0.7-0.49-1.04 c-1.01-2.29-1.2-4.02-0.52-6.51c0.16-0.58,0.41-1.14,0.68-1.66c0.13-0.25,0.22-0.34-0.06-0.49c-0.1-0.01-0.83,0.66-0.93,0.75 c-0.18,0.17-0.26,0.21-0.43,0.38c-0.46,0.45-0.92,0.78-1.36,1.18c-0.27,0.24-0.66,0.72-0.93,0.84c-0.25-1.68-0.27-2.78-1.1-4.45 c-0.68-1.37-1.21-2.34-1.56-4.03c-0.33-1.61-0.34-3.51,0-5.12c0.25-1.14,0.56-2.11,1.02-3.14c0.09-0.2,0.44-0.77,0.27-0.97 c-0.2-0.14-0.99,0.68-1.27,0.92l-2.44,2.15c-0.84,0.67-1.63,1.48-2.23,2.36c-1.65,2.41-1.66,4.52-1.9,4.99l-1.38-2.64 c-0.1-0.21-0.07-0.23-0.34-0.23c-0.16,0.28-0.39,1.29-0.5,1.7l-1.58,5.1c-0.45,1.16-0.83,2.03-1.46,2.99 c-0.32,0.49-0.58,0.86-0.93,1.32c-0.33,0.43-0.64,0.81-0.95,1.3c-1.26,2-1.8,4.43-1.46,7.27c0.15,1.25,0.61,2.38,1.06,3.39 C46.6,56.93,47.1,57.91,47.55,58.96z"></path> <path class="st1" d="M30.43,28.87c-0.34,0.14-0.25,0.59-0.25,1.12v10.9c0,1.13-0.06,0.85,3.27,0.85c0.71,0,5.16,0.07,5.47-0.03 c0.33-0.11,0.23-0.74,0.23-1.11c0-3.59-0.03-7.34,0.01-10.9c0.02-1.19-0.14-0.88-3.27-0.88C35.16,28.82,30.74,28.75,30.43,28.87z "></path> <path class="st1" d="M65.27,59.01l-3.97,0.03l-11.31,0h-1.52c-0.15-0.04-0.07,0.02-0.1-0.12c-0.17,0.09-0.23,0.1-0.43,0.1 c-0.21,0-0.25,0.01-0.39-0.06c-0.09,0.09,0.12,0.03-0.18,0.07l-0.82,0c-0.35,0-0.7,0-1.05,0c-0.64,0-1.56-0.17-1.58,0.55 c-0.02,0.73,1,0.53,1.58,0.53l22.42,0c0.36,0,0.68,0.02,0.76-0.35c0.19-0.92-0.89-0.74-1.38-0.74l-1.58,0 C65.37,59.02,65.38,59.09,65.27,59.01z"></path> <path class="st1" d="M53.04,26.52c-0.58,0.24-0.3,1.11,0.76,0.83c0.27-0.07,0.4-0.42,0.23-0.66 C53.89,26.49,53.32,26.41,53.04,26.52z"></path> <path class="st1" d="M49.99,26.52c-0.21,0.06-0.26,0.06-0.33,0.21c-0.06,0.13-0.07,0.29,0.01,0.43c0.15,0.28,0.51,0.24,0.9,0.21 C51.23,27.31,51.11,26.22,49.99,26.52z"></path> <path class="st1" d="M51.72,27.86c-0.32,0.13-0.24,0.48-0.27,0.82c-0.03,0.29,0.15,0.63,0.57,0.49 C52.41,29.05,52.52,27.55,51.72,27.86z"></path> <path class="st1" d="M64.62,36.07c-0.42,0.14-0.47,1.49,0.27,1.32c0.36-0.08,0.28-0.45,0.28-0.8 C65.17,36.27,65.07,35.93,64.62,36.07z"></path> <path class="st1" d="M44.37,41.13c-0.12,0.07-0.16,0.12-0.21,0.35c-0.03,0.16-0.04,0.34,0,0.51c0.07,0.4,0.36,0.51,0.64,0.36 C45.2,42.14,45.08,40.69,44.37,41.13z"></path> <path class="st1" d="M48.17,33.11c0-0.33,0.01-0.72-0.46-0.71c-0.37,0.01-0.39,0.36-0.39,0.67c0,0.26,0.02,0.66,0.39,0.68 C48.11,33.77,48.17,33.41,48.17,33.11z"></path> <path class="st1" d="M63.02,34.68c-0.34,0.06-0.61,0.23-0.43,0.61c0.1,0.22,0.54,0.26,0.88,0.23 C64.15,35.46,64.02,34.5,63.02,34.68z"></path> <path class="st1" d="M66.09,34.68c-0.35,0.09-0.57,0.27-0.43,0.59c0.1,0.23,0.55,0.29,0.91,0.25 C67.24,35.45,67.08,34.44,66.09,34.68z"></path> <path class="st1" d="M64.63,32.87c-0.15,0.07-0.18,0.13-0.23,0.33c-0.08,0.34-0.08,1.18,0.55,0.96c0.33-0.12,0.21-0.46,0.23-0.81 C65.2,33.03,65.04,32.69,64.63,32.87z"></path> <path class="st1" d="M68.03,44.71c-0.32,0.13-0.29,0.53-0.26,0.83c0.03,0.26,0.22,0.72,0.57,0.45 C68.72,45.7,68.73,44.42,68.03,44.71z"></path> <path class="st1" d="M52.07,24.65c-0.3,0.01-0.49,0.04-0.59,0.57c-0.06,0.31-0.02,0.71,0.3,0.78c0.46,0.09,0.51-0.28,0.54-0.55 C52.37,25.01,52.26,24.9,52.07,24.65z"></path> <path class="st1" d="M64.59,28.37c-0.15,0.09-0.16,0.12-0.21,0.34c-0.27,1.12,0.9,1.42,0.8,0.11 C65.14,28.37,64.86,28.2,64.59,28.37z"></path> <path class="st1" d="M47.63,35.62c-0.27,0.16-0.27,0.51-0.23,0.81c0.04,0.26,0.15,0.59,0.59,0.43 C48.39,36.73,48.24,35.26,47.63,35.62z"></path> </g> </g> </g> </svg> 