<?xml version="1.0" encoding="UTF-8"?> <svg xmlns="http://www.w3.org/2000/svg" xmlns:xlink="http://www.w3.org/1999/xlink" version="1.1" id="Layer_1" x="0px" y="0px" viewBox="0 0 70 70" style="enable-background:new 0 0 70 70;" xml:space="preserve"> <style type="text/css"> .st0{clip-path:url(#SVGID_1_);} .st1{fill-rule:evenodd;clip-rule:evenodd;fill:#0B2852;} </style> <g> <g> <defs> <rect id="SVGID_3_" width="70" height="70"></rect> </defs> <clipPath id="SVGID_1_"> <use xlink:href="#SVGID_3_" style="overflow:visible;"></use> </clipPath> <g class="st0"> <g> <path class="st1" d="M-55.35,29.83c4.02-0.13,2.24-4.11,2.99-7.07c6.06-0.84,10.45,4.41,0.77,10.47 c-5.06,3.17-9.75,5.17-10.06,12.48l-4.7-0.15c0.02-3.81-0.68-7.41,2.17-10.03l1.07-0.62c0.04-0.02,1.45-0.37,1.66-0.42 c5.07-1.3,6.18-5.2,5.37-10.46c-1.94,0.47-18.95,5.39-20.12,5.18c-1.37-0.25-3.47-2.55-5.73-3.26c0.95,2.69,2.16,4.44,1.83,8.1 c-0.47,5.3-3.15,3.45-4.38,5.58c5.36,1.72,6.27-3.44,11.01,0.46c0.79,4.04-0.76,8.39,1.7,11.11c2.48,2.75,7.25,1.43,11.35,1.86 c0.88,3.49,2.43,6.46,6.35,6.67l0.13-20.69c-3.19,0.03-4.36,2.32-5.79,3.97c1.09-5.54,8.41-7.28,11.74-10.46 c1.67-1.59,4.35-4.14,3.16-7.79c-0.36-1.11-1.61-2.33-2.72-2.92c-1.78-0.96-3.38-0.77-5.49-0.52c-0.64-2.36-1.37-3.94-3.41-4.82 C-55.52,21.7-54.16,23.97-55.35,29.83z"></path> <path class="st1" d="M-97.27,19.15c6.65,1,15.15,4.47,19.55,7.79c2.01,1.52,2.09,1.03,4.81,0.32c1.85-0.49,3.49-0.96,5.37-1.45 c3.77-0.99,7.57-2.19,11.29-2.86c-0.21-4.1-2.23-8.98-4.29-11.09c-3.07-3.14-7.51-0.92-12.07,0.34 C-77.17,13.48-94.82,17.57-97.27,19.15z"></path> <path class="st1" d="M-103.7,20.72c-0.22,3.54,5.84,7.73,9.05,9.02c1.69-2.86-0.39-4.58,7.03-6.15 C-89.98,22.16-101.18,18.66-103.7,20.72z"></path> <path class="st1" d="M-88.71,25.4c2.23,4.42,3.71,4.32,2.9,12.68c3.91-0.45,4.89-1.59,4.39-6.12c-0.39-3.48-1.28-5.29-2.85-7.29 C-86.09,24.47-87.41,24.83-88.71,25.4z"></path> <path class="st1" d="M-86.98,37.46l-1.47-0.69c-1.42-0.7-2.28-2.35-2.73-4.05c-1.08-4.03,0.43-4.81,2.03-5.9 c-0.66-0.46-1.05-0.72-2.09-0.91C-95.88,29.97-90.54,43.25-86.98,37.46z"></path> <path class="st1" d="M-88.25,31.99c1.07-1.71,0.6-3.68-1.87-4.05c-0.05,1.07-0.19,1.58,0.15,2.66 C-89.52,32.06-89.43,31.77-88.25,31.99z"></path> </g> <path class="st1" d="M58.88,41.55c-0.1-0.03-0.22-0.11-0.29-0.14c-3.3-1.74-3.07,0.49-5.5-1.15l0.31-2.63l5.89,0.73 C59.3,39.9,59.54,40.29,58.88,41.55L58.88,41.55z M3.1,52.08c-1.81,0.05-2.55-0.13-2.25,1.92l2.27,0.27L3.1,52.08L3.1,52.08z M19.75,30.36c2.51-0.2,2.5-0.97,2.51-3.48c0.01-3.08,0.37-3.41-2.51-3.72V30.36L19.75,30.36z M6.03,32.35 c1.71,0,8,0.45,9.42-0.5l0.01-1.6H6.03V32.35L6.03,32.35z M40.37,28.4c1.23-2.47,3.03-2.14,2.13-3.06 c-0.8-0.83-9.95,8.64-6.54,7.3l2.17-2.12c0.85,0.48,1.27,0.96,1.99,1.72c2.39,2.52,1.46,1.76,1.96,1.06 c0.56-0.77-2.85-2.26-2.89-3.93c2.15,0.01,2.43,3.49,4.98,3.08L40.37,28.4L40.37,28.4z M1.44,20.17c0.3,3.81,1.57,2.7,4.59,2.35 L7,27.86c0.54,1.84-0.24,0.86,1,1.27c0.52-1.05-1.33-8.41-1.95-9.48C4.43,19.38,2.71,19.75,1.44,20.17L1.44,20.17z M48.6,33.56 l-2.24,5.63c-3.57-0.58-4.86-4.75-2.34-5.48L48.6,33.56L48.6,33.56z M10.68,40.03c5.51,0.02,4.46,0.29,4.8-2.13L4.15,37.92 l-0.02,2.11C6.31,40.03,8.5,40.02,10.68,40.03L10.68,40.03z M8.78,17.79c-5.72,0.88-4.39-4.46,0.39-3.18 c0.95,2.15,1.09,8.15,1.45,11.19c0.45,3.72,0.2,2.81-0.33,3.4C9.38,27.95,9.23,20.51,8.78,17.79L8.78,17.79z M20.04,39.7 c2.01,0.75,8.5,0.4,10.95,0.26c0.44-3.38-1.4-2.97-4.24-2.94c-2.24,0.03-4.84-0.21-6.8,0.38L20.04,39.7L20.04,39.7z M55.01,31.13 c1.22,0.49,0.58,0.47,2.07,0.93c2.15-5.76-0.77-7.86-4.87-15.33c-2.39-4.36-1.58-3.4-4-3.47c0.24,1.52,5.33,10.52,6.7,12.59 C56.37,28.04,55.88,29.08,55.01,31.13L55.01,31.13z M15.02,54.04c-0.49-2.55,1.25-4.34,3.15-4.71c2.04-0.4,4.22,1.11,4.59,2.92 C23.89,57.77,15.96,58.91,15.02,54.04L15.02,54.04z M11.57,54.8c0.78,3.69,4.12,6.73,8.99,5.73c5.08-1.04,9.12-8.04,2.44-13.48 C18.42,43.32,10.04,47.53,11.57,54.8L11.57,54.8z M60.98,49.4c4.8-1.07,6.3,6.43,1.96,7.54C57.42,58.36,55.53,50.62,60.98,49.4 L60.98,49.4z M69.21,54.69v-2.71c-1.3-2.83-2.47-6.56-7.99-6.23c-9.51,0.55-8.97,14.08-0.43,14.91 C66.71,61.22,68,57.02,69.21,54.69L69.21,54.69z M57.44,9.28c1.54,0.93,1.69,0.81,2.06,2.87c-18.38-0.14-36.97,0.37-55.36-0.03 l0.07-2.84H57.44L57.44,9.28z M9.2,54.28c0.04-5.5,2.52-8.85,6.75-10.27c6.9-2.33,8.96,3.43,12.26,3.28l0.02,1.86l0.82-1.8 c0.56,2.34-0.23,2.07-0.53,3.01c-0.3,0.94,0.08,2.54,0.1,3.9l23.41-0.16c0.1-9.08,6-10.6,13.1-10.56c0-4.31,0.15-4.22-2.64-6.12 c-10.36-7.05-10.38-9-13.85-0.88c-1.66,3.87-3.36,7.59-4.95,11.5c-1.88,4.63-4.85,3.26-13.11,3.36l-0.09-10.3h-11.8l-0.11-27.87 l-2.02,0.07l0,27.8L4.19,41.11L4.14,54.25L9.2,54.28z"></path> </g> </g> </g> </svg> 