<svg xmlns="http://www.w3.org/2000/svg" xmlns:xlink="http://www.w3.org/1999/xlink" id="&#xD1;&#xEB;&#xEE;&#xE9;_1" x="0px" y="0px" viewBox="0 0 234 101" style="enable-background:new 0 0 234 101;" xml:space="preserve"> <style type="text/css"> .st0{fill:#FFFFFF;} </style> <g> <g> <g> <path class="st0" d="M59.3,11.7l-4.9,4.9c0,0-0.1,0-0.1,0c-0.6-0.6-5.3-5-12.2-5c-8,0-19.1,4.8-19.1,19.7 C22.9,33.6,24.2,46,38,49c2.2,0.5,4.4,0.6,6.6,0.2c4.7-0.8,12.5-3.6,13.9-13.7h-17v-7.1h24c0.2,1.2,1.7,12.3-4.8,19.8 c-6.6,7.5-13.8,8.4-19.5,8.4s-19.6-3.1-25-18.4c-2.9-8.8-0.3-18.7,5.5-24.9c5.8-6.2,12.5-8.7,20.5-8.8c7.9-0.1,14.4,4.3,17.1,7.1 C59.3,11.6,59.3,11.7,59.3,11.7z"></path> </g> <g> <path class="st0" d="M85.5,23c-9.3,0-16.9,7.5-16.9,16.8c0,9.3,7.6,16.8,16.9,16.8c9.3,0,16.9-7.5,16.9-16.8 C102.4,30.5,94.9,23,85.5,23z M85.5,50c-5.2,0-9.4-4.6-9.4-10.2s4.2-10.2,9.4-10.2c5.2,0,9.4,4.6,9.4,10.2S90.7,50,85.5,50z"></path> </g> <g> <path class="st0" d="M121.9,23c-9.3,0-16.9,7.5-16.9,16.8c0,9.3,7.6,16.8,16.9,16.8c9.3,0,16.9-7.5,16.9-16.8 C138.8,30.5,131.2,23,121.9,23z M121.9,50c-5.2,0-9.4-4.6-9.4-10.2s4.2-10.2,9.4-10.2c5.2,0,9.4,4.6,9.4,10.2S127.1,50,121.9,50z "></path> </g> <g> <path class="st0" d="M166.4,24.1v2.6c-0.3,0-0.3-0.1-0.4-0.2c-2.3-2.7-6-3.6-7.7-3.6c-10.6,0-17.1,7.8-17.1,16.8 c0,9.1,7.7,16.8,17,16.7c4.8-0.3,7.4-3.1,7.9-3.7c0.2-0.2,0.3-0.1,0.3,0.1c0,0.2,0,1.2,0,2.6c-0.3,9.3-7.3,9.4-8.7,9.4 c-6,0-8-4.7-8.6-5.8c0,0,0,0-0.1,0c-0.4,0.2-3.5,1.4-6.3,2.6c0,0,0,0.1,0,0.1c3.4,7.2,9.1,9.8,14.7,9.8c5.6,0,7.9-1.2,11.4-4.1 c3.4-3,4.7-8.8,4.7-12.4V24.1c0,0,0-0.1-0.1-0.1L166.4,24.1C166.4,24,166.4,24,166.4,24.1z M157.8,50c-5,0-9.1-4.6-9.1-10.2 c0-5.6,4.1-10.2,9.1-10.2c5,0,9.1,4.6,9.1,10.2C166.9,45.4,162.8,50,157.8,50z"></path> </g> <g> <path class="st0" d="M184.9,55.5h-7.1c0,0-0.1,0-0.1-0.1v-49c0,0,0-0.1,0.1-0.1h7.1c0,0,0.1,0,0.1,0.1L184.9,55.5 C184.9,55.5,184.9,55.5,184.9,55.5z"></path> </g> <g> <path class="st0" d="M204.7,49.9c-5.7,0-7.7-4.2-8.2-5c0,0,18.4-7.6,22.4-9.3c0.1,0,0.1-0.1,0.1-0.1c-1.6-4.2-3.3-7-6.2-9.5 c-3-2.4-8.7-4.5-15.5-1.5c-6.8,3-10.2,10.8-9,18.3c1.2,7.5,7.8,13.8,16.4,13.8c8.5,0,12.8-5.7,14-7.3c0,0,0-0.1,0-0.1 c-0.6-0.4-3.8-2.5-5.6-3.7c0,0-0.1,0-0.1,0C209.6,50,205.7,49.9,204.7,49.9z M195.3,39.2c0.1-1.8,0.2-6.3,5.2-8.8 c1-0.6,6.8-2.6,9.8,2.6c0,0,0,0.1,0,0.1C208.6,33.7,196.4,38.8,195.3,39.2C195.3,39.2,195.3,39.2,195.3,39.2z"></path> </g> </g> <g> <g> <g> <g> <polygon class="st0" points="117.1,81.9 119.3,87 124.8,87.5 120.7,91.2 121.8,96.5 117.1,93.8 112.3,96.5 113.5,91.2 109.4,87.5 114.9,87 "></polygon> </g> </g> <g> <g> <polygon class="st0" points="140.6,81.9 142.8,87 148.3,87.5 144.2,91.2 145.4,96.5 140.6,93.8 135.9,96.5 137.1,91.2 132.9,87.5 138.4,87 "></polygon> </g> </g> <g> <g> <polygon class="st0" points="164.2,81.9 166.4,87 171.9,87.5 167.7,91.2 168.9,96.5 164.2,93.8 159.4,96.5 160.6,91.2 156.5,87.5 162,87 "></polygon> </g> </g> <g> <g> <polygon class="st0" points="187.7,81.9 189.9,87 195.4,87.5 191.3,91.2 192.5,96.5 187.7,93.8 183,96.5 184.1,91.2 180,87.5 185.5,87 "></polygon> </g> </g> <g> <g> <polygon class="st0" points="211.3,81.9 213.5,87 218.9,87.5 214.8,91.2 216,96.5 211.3,93.8 206.5,96.5 207.7,91.2 203.6,87.5 209.1,87 "></polygon> </g> </g> </g> <g> <path class="st0" d="M23,96.3L19,90h-2v6.3h-2V81.1H20c1.1,0,2.1,0.2,2.9,0.6c0.8,0.4,1.4,0.9,1.8,1.6c0.4,0.7,0.6,1.4,0.6,2.3 c0,1.1-0.3,2.1-1,2.9c-0.7,0.8-1.6,1.3-3,1.5l4.2,6.4H23z M17,88.5H20c1.1,0,1.9-0.3,2.4-0.8c0.5-0.5,0.8-1.2,0.8-2.1 c0-0.9-0.3-1.6-0.8-2.1c-0.5-0.5-1.3-0.8-2.5-0.8H17V88.5z"></path> <path class="st0" d="M39.5,91h-9.6c0.1,1.2,0.4,2.1,1.1,2.8c0.7,0.7,1.6,1,2.7,1c0.8,0,1.5-0.2,2.1-0.5c0.6-0.4,1-0.8,1.2-1.5 h2.2c-0.4,1.1-1,1.9-2,2.6c-0.9,0.7-2.1,1-3.5,1c-1.1,0-2.1-0.3-3-0.8c-0.9-0.5-1.6-1.2-2.1-2.2c-0.5-0.9-0.7-2-0.7-3.3 c0-1.2,0.2-2.3,0.7-3.3c0.5-0.9,1.2-1.7,2.1-2.2c0.9-0.5,2-0.8,3.1-0.8c1.1,0,2.1,0.2,3,0.7c0.9,0.5,1.5,1.2,2,2 c0.5,0.9,0.7,1.8,0.7,2.9C39.5,90.2,39.5,90.6,39.5,91z M37.5,89.5c0-0.8-0.2-1.5-0.5-2c-0.3-0.6-0.8-1-1.4-1.3 c-0.6-0.3-1.2-0.5-1.9-0.5c-1,0-1.9,0.3-2.6,1c-0.7,0.7-1.1,1.6-1.2,2.8H37.5z"></path> <path class="st0" d="M46.5,94.5l3.7-10.2h2.2l-4.7,12.1h-2.3l-4.7-12.1h2.1L46.5,94.5z"></path> <path class="st0" d="M54.3,80c0.3-0.3,0.6-0.4,0.9-0.4c0.4,0,0.7,0.1,1,0.4c0.3,0.3,0.4,0.6,0.4,1c0,0.4-0.1,0.7-0.4,1 c-0.3,0.3-0.6,0.4-1,0.4c-0.4,0-0.7-0.1-1-0.4c-0.3-0.3-0.4-0.6-0.4-1C53.9,80.6,54.1,80.3,54.3,80z M56.2,84.3v12.1h-2V84.3 H56.2z"></path> <path class="st0" d="M70.4,91h-9.6c0.1,1.2,0.4,2.1,1.1,2.8c0.7,0.7,1.6,1,2.7,1c0.8,0,1.5-0.2,2.1-0.5c0.6-0.4,1-0.8,1.2-1.5 h2.2c-0.4,1.1-1,1.9-2,2.6c-0.9,0.7-2.1,1-3.5,1c-1.1,0-2.1-0.3-3-0.8c-0.9-0.5-1.6-1.2-2.1-2.2c-0.5-0.9-0.7-2-0.7-3.3 c0-1.2,0.2-2.3,0.7-3.3c0.5-0.9,1.2-1.7,2.1-2.2c0.9-0.5,2-0.8,3.1-0.8c1.1,0,2.1,0.2,3,0.7c0.9,0.5,1.5,1.2,2,2 c0.5,0.9,0.7,1.8,0.7,2.9C70.5,90.2,70.5,90.6,70.4,91z M68.4,89.5c0-0.8-0.2-1.5-0.5-2c-0.3-0.6-0.8-1-1.4-1.3 c-0.6-0.3-1.2-0.5-1.9-0.5c-1,0-1.9,0.3-2.6,1c-0.7,0.7-1.1,1.6-1.2,2.8H68.4z"></path> <path class="st0" d="M88.8,84.3L85,96.3h-2.1l-2.7-9.6l-2.7,9.6h-2.1l-3.8-12.1h2.1l2.8,10.1l2.8-10.1h2.1L84,94.4l2.8-10.1H88.8 z"></path> <path class="st0" d="M98,85.1c0.8,0.7,1.2,1.6,1.3,2.8h-2.1c0-0.7-0.3-1.2-0.7-1.6c-0.4-0.4-1-0.6-1.8-0.6 c-0.8,0-1.4,0.2-1.8,0.5c-0.4,0.4-0.6,0.8-0.6,1.4c0,0.5,0.1,0.8,0.4,1.1c0.3,0.3,0.6,0.5,1,0.6c0.4,0.1,0.9,0.3,1.6,0.4 c0.9,0.2,1.6,0.4,2.1,0.6c0.5,0.2,1,0.5,1.4,1c0.4,0.5,0.6,1.1,0.6,1.9c0,0.7-0.2,1.2-0.6,1.8c-0.4,0.5-0.9,0.9-1.6,1.2 c-0.7,0.3-1.5,0.4-2.4,0.4c-1.3,0-2.4-0.3-3.2-1c-0.8-0.7-1.3-1.6-1.3-2.8h2.1c0,0.7,0.3,1.2,0.7,1.6c0.4,0.4,1,0.6,1.8,0.6 c0.8,0,1.5-0.2,1.9-0.5c0.4-0.3,0.7-0.8,0.7-1.3c0-0.5-0.1-0.8-0.4-1.1c-0.3-0.3-0.6-0.5-1-0.6c-0.4-0.1-1-0.3-1.7-0.5 c-0.9-0.2-1.6-0.4-2.1-0.6c-0.5-0.2-1-0.5-1.4-0.9c-0.4-0.4-0.6-1-0.6-1.8c0-0.7,0.2-1.3,0.6-1.8c0.4-0.5,0.9-1,1.6-1.3 c0.7-0.3,1.5-0.5,2.4-0.5C96.2,84.1,97.2,84.4,98,85.1z"></path> </g> </g> </g> </svg>