<?xml version="1.0" encoding="UTF-8"?> <svg xmlns="http://www.w3.org/2000/svg" xmlns:xlink="http://www.w3.org/1999/xlink" version="1.1" id="Layer_1" x="0px" y="0px" viewBox="0 0 70 70" style="enable-background:new 0 0 70 70;" xml:space="preserve"> <style type="text/css"> .st0{clip-path:url(#SVGID_1_);} .st1{fill-rule:evenodd;clip-rule:evenodd;fill:#0B2852;} </style> <g> <g> <defs> <rect id="SVGID_3_" width="70" height="70"></rect> </defs> <clipPath id="SVGID_1_"> <use xlink:href="#SVGID_3_" style="overflow:visible;"></use> </clipPath> <g class="st0"> <g> <path class="st1" d="M56.48,29.09c4.6-0.15,2.57-4.7,3.43-8.09c6.93-0.96,11.96,5.04,0.88,11.99 C55,36.61,49.63,38.9,49.27,47.26l-5.38-0.17c0.02-4.36-0.77-8.48,2.48-11.47l1.22-0.71c0.05-0.02,1.66-0.42,1.9-0.49 c5.8-1.49,7.07-5.95,6.14-11.97c-2.22,0.54-21.68,6.17-23.02,5.92c-1.57-0.29-3.97-2.92-6.55-3.73c1.08,3.08,2.47,5.08,2.1,9.27 c-0.54,6.07-3.6,3.95-5.02,6.38c6.13,1.97,7.18-3.94,12.6,0.53c0.91,4.62-0.87,9.6,1.94,12.71c2.84,3.15,8.29,1.64,12.99,2.13 c1.01,4,2.78,7.4,7.27,7.63l0.15-23.67c-3.64,0.03-4.99,2.65-6.63,4.55c1.24-6.33,9.62-8.33,13.43-11.97 c1.91-1.82,4.97-4.74,3.62-8.91c-0.41-1.26-1.84-2.66-3.11-3.35c-2.04-1.09-3.87-0.88-6.28-0.59c-0.73-2.71-1.57-4.51-3.9-5.52 C56.28,19.78,57.84,22.38,56.48,29.09z"></path> <path class="st1" d="M8.5,16.87c7.61,1.14,17.34,5.11,22.38,8.92c2.3,1.74,2.39,1.18,5.5,0.36c2.12-0.56,4-1.09,6.14-1.66 c4.31-1.13,8.67-2.5,12.92-3.27c-0.24-4.69-2.55-10.27-4.91-12.69c-3.52-3.6-8.6-1.06-13.82,0.39 C31.5,10.38,11.31,15.05,8.5,16.87z"></path> <path class="st1" d="M1.15,18.66c-0.26,4.06,6.68,8.85,10.36,10.32c1.94-3.27-0.44-5.24,8.05-7.04 C16.85,20.31,4.03,16.3,1.15,18.66z"></path> <path class="st1" d="M18.3,24.01c2.55,5.06,4.25,4.95,3.32,14.5c4.48-0.51,5.6-1.82,5.02-7c-0.44-3.98-1.46-6.05-3.27-8.34 C21.29,22.95,19.79,23.37,18.3,24.01z"></path> <path class="st1" d="M20.29,37.81l-1.69-0.79c-1.63-0.81-2.61-2.69-3.13-4.64c-1.23-4.61,0.49-5.5,2.33-6.76 c-0.76-0.53-1.2-0.83-2.39-1.04C10.09,29.24,16.21,44.44,20.29,37.81z"></path> <path class="st1" d="M18.82,31.55c1.22-1.96,0.68-4.21-2.15-4.64c-0.06,1.23-0.21,1.81,0.17,3.05 C17.37,31.64,17.48,31.31,18.82,31.55z"></path> </g> </g> </g> </g> </svg> 