<?xml version="1.0" encoding="UTF-8"?> <svg xmlns="http://www.w3.org/2000/svg" xmlns:xlink="http://www.w3.org/1999/xlink" version="1.1" id="Layer_1" x="0px" y="0px" viewBox="0 0 70 70" style="enable-background:new 0 0 70 70;" xml:space="preserve"> <style type="text/css"> .st0{clip-path:url(#SVGID_1_);} .st1{fill-rule:evenodd;clip-rule:evenodd;fill:#0B2852;} </style> <g> <g> <defs> <rect id="SVGID_3_" width="70" height="70"></rect> </defs> <clipPath id="SVGID_1_"> <use xlink:href="#SVGID_3_" style="overflow:visible;"></use> </clipPath> <g class="st0"> <g> <path class="st1" d="M-55.35,29.83c4.02-0.13,2.24-4.11,2.99-7.07c6.06-0.84,10.45,4.41,0.77,10.47 c-5.06,3.17-9.75,5.17-10.06,12.48l-4.7-0.15c0.02-3.81-0.68-7.41,2.17-10.03l1.07-0.62c0.04-0.02,1.45-0.37,1.66-0.42 c5.07-1.3,6.18-5.2,5.37-10.46c-1.94,0.47-18.95,5.39-20.12,5.18c-1.37-0.25-3.47-2.55-5.73-3.26c0.95,2.69,2.16,4.44,1.83,8.1 c-0.47,5.3-3.15,3.45-4.38,5.58c5.36,1.72,6.27-3.44,11.01,0.46c0.79,4.04-0.76,8.39,1.7,11.11c2.48,2.75,7.25,1.43,11.35,1.86 c0.88,3.49,2.43,6.46,6.35,6.67l0.13-20.69c-3.19,0.03-4.36,2.32-5.79,3.97c1.09-5.54,8.41-7.28,11.74-10.46 c1.67-1.59,4.35-4.14,3.16-7.79c-0.36-1.11-1.61-2.33-2.72-2.92c-1.78-0.96-3.38-0.77-5.49-0.52c-0.64-2.36-1.37-3.94-3.41-4.82 C-55.52,21.7-54.16,23.97-55.35,29.83z"></path> <path class="st1" d="M-97.27,19.15c6.65,1,15.15,4.47,19.55,7.79c2.01,1.52,2.09,1.03,4.81,0.32c1.85-0.49,3.49-0.96,5.37-1.45 c3.77-0.99,7.57-2.19,11.29-2.86c-0.21-4.1-2.23-8.98-4.29-11.09c-3.07-3.14-7.51-0.92-12.07,0.34 C-77.17,13.48-94.82,17.57-97.27,19.15z"></path> <path class="st1" d="M-103.7,20.72c-0.22,3.54,5.84,7.73,9.05,9.02c1.69-2.86-0.39-4.58,7.03-6.15 C-89.98,22.16-101.18,18.66-103.7,20.72z"></path> <path class="st1" d="M-88.71,25.4c2.23,4.42,3.71,4.32,2.9,12.68c3.91-0.45,4.89-1.59,4.39-6.12c-0.39-3.48-1.28-5.29-2.85-7.29 C-86.09,24.47-87.41,24.83-88.71,25.4z"></path> <path class="st1" d="M-86.98,37.46l-1.47-0.69c-1.42-0.7-2.28-2.35-2.73-4.05c-1.08-4.03,0.43-4.81,2.03-5.9 c-0.66-0.46-1.05-0.72-2.09-0.91C-95.88,29.97-90.54,43.25-86.98,37.46z"></path> <path class="st1" d="M-88.25,31.99c1.07-1.71,0.6-3.68-1.87-4.05c-0.05,1.07-0.19,1.58,0.15,2.66 C-89.52,32.06-89.43,31.77-88.25,31.99z"></path> </g> <path class="st1" d="M14.94,44.2c-2.29,0.27-4.42,0.34-4.9-0.92c1.26-0.87,5.09-0.76,6.52,0C15.76,44.54,17.46,43.9,14.94,44.2 L14.94,44.2z M11.89,18.85c5.62-0.44,9.06-1.62,14.66,0.22c-0.16-1.16,0.4-0.64-0.58-1.31c-0.15-0.11-1.7-0.48-2.01-0.54 c-2.52-0.44-8.55-0.52-10.61,0.27C11.39,18.24,12.43,17.9,11.89,18.85L11.89,18.85z M11.92,19.66c4.5-1.66,10.34-1.54,14.75-0.08 c-1.11,2.73-4.02,3.24-7.68,3.2C15.89,22.75,12.87,22.34,11.92,19.66L11.92,19.66z M49.55,19.9c-1.66,0.35-3.9,0.3-5.93,0.33 c-4.15,0.05-3.28,0.52-3.24-3.36C47.65,16.87,50.22,15.94,49.55,19.9L49.55,19.9z M30.05,16.57l5.8,0.39l-0.02,3.09 c-4.55,0.47-5.1-0.43-7.4,0.63c0.62,0.41,0.23,0.31,1.38,0.57c0.62,0.14,0.87,0.15,1.51,0.19l14.41-0.06 c3.1,0,6.07,0.61,6.45-2.4c0.41-3.24-2.72-3.36-5.39-3.34c-2.92,0.02-5.84,0.02-8.76,0.02C36.05,15.66,30.45,14.91,30.05,16.57 L30.05,16.57z M9.95,15.03c2.32-3.11,6.6-6.11,9.51-5.96c2.04,0.11,8.13,2.79,9.21,6.51c-3.96,4.64-4.24-1.95-16.87,1.97 C10.81,16.5,10.5,16.52,9.95,15.03L9.95,15.03z M50.73,46.55c-1.79-7.11,7-9.86,9.24-6.71C62.48,43.38,56.98,49.05,50.73,46.55 L50.73,46.55z M30.45,22.79c2.02-1.59,16.67-0.67,20.44-0.64c4.59,0.05,4.13,1.32,5.31,5.52c0.61,2.19,1.26,5.82,2.36,7.71 c0.16-0.12,2.36-3.95,7.7-3.03c1.81,0.31,1.3,0.25,2.11,1.2c3.1,5.99-8.19,3.05-9.31,3.11c0.85,1.95,1.85,0.96,2.68,2.93 c0.68,1.63,0.05,2.25-0.27,3.96c-0.62,3.38,0.22,7.06-0.25,10.52c-0.39,2.86-3.1,5.1-6.17,3.52c-2.88-1.49-2.25-5.36-2.27-8.64 l-15.33-0.06c-0.73-5.9-2.17-8.6-3.37-13.14l20.18,0.01c-0.33-2.69-0.85-5.34-1.32-7.94c-0.88-4.93-3.28-3.63-14.4-3.63 C30.08,24.19,31.26,25.03,30.45,22.79L30.45,22.79z M21.57,41.22c2.54-1.11,4.38-1.02,6.49,0.16 C26.31,50.81,21.91,47.89,21.57,41.22L21.57,41.22z M18.84,33.6l-2.66,5l-0.24-5.5c-7.24,0.54-9.12,0.27-11.32,6.57 C3,44.34,2.43,50.42,2.07,55.66l34.27,0.45c-0.12-4.96-1.01-11.56-2.43-15.92c-2.04-6.26-4.22-6.66-11.19-7.06l-0.07,5.34 l-2.87-4.63c1.17-0.76,2.06-0.73,3.51-1.67c1.62-1.05,1.82-1.69,2.87-3.3c0.6-0.92,0.66-0.95,1.35-1.71 c0.97-1.08,2.08-1.67,0.96-4.45l-1.44-2.26c-2.2,4.43-11.89,4.03-15.74,0.27l-0.99,1.54c-1.64,3.44-0.02,3.44,1.92,6.23 C14.24,31.39,14.52,32.41,18.84,33.6z"></path> </g> </g> </g> </svg> 