<?xml version="1.0" encoding="UTF-8"?> <svg xmlns="http://www.w3.org/2000/svg" xmlns:xlink="http://www.w3.org/1999/xlink" version="1.1" id="Layer_1" x="0px" y="0px" viewBox="0 0 70 70" style="enable-background:new 0 0 70 70;" xml:space="preserve"> <style type="text/css"> .st0{clip-path:url(#SVGID_1_);} .st1{fill-rule:evenodd;clip-rule:evenodd;fill:#0B2852;} </style> <g> <g> <defs> <rect id="SVGID_3_" width="70" height="70"></rect> </defs> <clipPath id="SVGID_1_"> <use xlink:href="#SVGID_3_" style="overflow:visible;"></use> </clipPath> <g class="st0"> <g> <path class="st1" d="M28.36,30.54c1.17,0.15,1.41,0.32,2.96,0.34c1.03,0.02,2.15,0.08,3.12-0.07c0.93-0.14,1.81-0.19,2.8-0.39 c0.37-0.08,2.38-0.56,2.53-0.55c0.03,0.29,0.02,0.68,0.02,0.99c0,0.4,0.11,0.72,0.09,1.04c-0.27,0.13-0.93,0.28-1.28,0.37 c-2.95,0.73-7.61,1.62-10.1,0.06L28.36,30.54L28.36,30.54z M30.84,26.38c0.06,0.4-0.06,0.46-0.41,0.39l0.01-0.36 C30.66,26.28,30.64,26.31,30.84,26.38L30.84,26.38z M31.45,22.48c0,0.01,0.19-0.04,0.08,0.28c-0.04,0.11-0.11,0.12-0.21,0.18 c-0.38-0.05-0.11-0.01-0.22-0.13c-0.1-0.19-0.07-0.16,0.01-0.32C31.3,22.38,31.25,22.39,31.45,22.48L31.45,22.48z M31.81,18.69 l0.41,0.04l-0.03,0.38l-0.37-0.03L31.81,18.69L31.81,18.69z M29.32,16.07c-0.74,0.16-1.69,0.33-1.64,1.25 c0.04,0.74,0.76,1.55,1.56,1.39C30.18,18.52,32.17,15.46,29.32,16.07L29.32,16.07z M32.65,15.12c0.21-0.22,0.22-0.18,0.46-0.07 c0.11,0.34,0.03,0.41-0.29,0.51l-0.14-0.18L32.65,15.12L32.65,15.12z M35.45,66.75c0.11-0.13-0.16-0.11,0.22-0.12 c0.18,0.15,0.13,0.04,0.15,0.35c-0.02,0.67-0.19,0.68-0.41,1.12c-0.77,1.54,1.29,1.47,2.6,1.49c1.08,0.02,1.74,0.01,2.32-0.64 c0.57-0.64,0.42-1.48,0.42-2.46c0-0.66,0.18-0.67,0.45-1.08c0.98-1.42-0.09-1.19,0.03-2.23c0.06-0.52,1.21-2.41,0.78-3.4 c-0.95-2.19-0.38-3.77-0.64-5.09c-0.42-2.11-0.68-3.17-0.2-5.19c0.19-0.79,0.25-1.68,0.37-2.51c0.27-1.79,0.33-3.65,0.5-5.45 c0.07-0.78,0.22-2.03,0.13-2.79c-0.06-0.47-0.14-2.3-0.06-2.75l0.68-0.23l0.46-0.46c0.14-0.41,0.31-0.69,0.45-1.18 c0.39-1.36,0.36-3.02,0.39-4.45c0.04-1.93-0.22-1.22,0.38-2.86c0.52-1.43-0.09-3.9-0.13-5.92c-0.02-0.98-0.41-1.75-0.55-2.7 c-0.15-1.01-0.2-1.78-0.63-2.59c-0.32-0.6-0.93-1.57-1.7-1.56c-1.08,0.01-1.71,0.55-2.1,1.17c-1.52,2.46,0.7,5.75-0.06,8.44 c-0.68,2.41-2.94,2.45-3.7,1.24c-0.48-0.75-0.55-1.57-0.54-2.68c0-0.68,0.09-2.34,0.23-2.92c1.18-0.39,0.75,1.27,0.65,2.01 c-0.09,0.69-0.23,2.14-0.04,2.81c0.22,0.79,1.23,0.96,1.92,0.33c1.85-1.69,0.37-4.71,0.4-7.63c0.01-0.94,0.3-1.67,0.78-2.24 c0.82-0.99,1.39-0.84,1.93-1.1c-0.87-0.51-1.9-1.25-2.77-1.79c-0.79-0.49-0.71-0.3-1.1-1.19c-0.36-0.84-0.47-0.83-0.37-1.9 c0.55-0.24,1.23-1.17,1.25-2c0-0.18-0.45-2.35-0.09-3l1.45-0.18c0.16-0.43-0.77-0.77-1.15-0.91c-2.01-0.75-6.9-2.38-8.82-1.65 c-0.61,0.23-0.8,0.87-0.36,1.29c0.44,0.42,1,0.42,1.42,0.73c-0.06,1.59-0.44,0.93-0.48,1.97c-0.71,0.38-1.2,1.06,0.16,1.11 c0.35,0.87-0.25,0.76,0.62,2.97c0.94,2.39,1.14,1.57,1.51,2.03c-0.15,0.27-0.28,0.16-0.49,0.5c-0.12,0.18-0.19,0.44-0.36,0.61 c-0.66,0.68-2.81,1.26-3.52,2.28c-0.58,0.83-0.6,1.97-0.84,3.03c-0.24,1.06-0.4,2.21-0.59,3.26l-0.78,5.04 c-0.08,0.6-0.06,1.21-0.15,1.8c-0.16,1.08-0.37,2.45-0.05,3.49c0.08,0.26,0.19,0.43,0.28,0.68l0.35,2.59l0.32,0.13 c-0.01,1.81-0.77,2.29-0.34,5.11c0.11,0.73,0.79,1.21,1.27,1.63c0.45,0.39,0.33,0.31,0.43,1.01c0.06,0.43,0.1,0.82,0.15,1.23 c0.35,3.28,0.88,6.41,1.86,9.56c0.24,0.77,0.41,1.46,0.61,2.3c0.25,1.04,0.19,2.15,0.32,2.51c0.12,0.34,0.41,0.56,0.46,0.97 c0.06,0.45,0.03,0.95,0.11,1.38c0.14,0.79,0.36,1.44,0.82,1.99c0.35,0.41,0.9,1.49,0.54,2.08c-0.34,0.56-0.67,1.09-1.15,1.68 c-1.16,1.43-3.28,0.86-3.24,2.39c1.2,0.76,2.73,0.59,3.98,0.08c0.61-0.24,1.06-0.5,1.62-0.81 C34.24,67.27,34.97,66.8,35.45,66.75z"></path> <path class="st1" d="M42.81,35.78c0.33-0.06,0.36-0.19,0.46-0.46L42.81,35.78z"></path> <path class="st1" d="M35.83,66.98c-0.03-0.3,0.02-0.2-0.15-0.35c-0.39,0.01-0.12-0.01-0.22,0.12l0.24-0.04L35.83,66.98z"></path> </g> </g> </g> </g> </svg> 