<?xml version="1.0" encoding="UTF-8"?> <svg xmlns="http://www.w3.org/2000/svg" xmlns:xlink="http://www.w3.org/1999/xlink" version="1.1" id="Layer_1" x="0px" y="0px" viewBox="0 0 70 70" style="enable-background:new 0 0 70 70;" xml:space="preserve"> <style type="text/css"> .st0{clip-path:url(#SVGID_1_);} .st1{fill-rule:evenodd;clip-rule:evenodd;fill:#0B2852;} </style> <g> <defs> <rect id="SVGID_3_" width="70" height="70"></rect> </defs> <clipPath id="SVGID_1_"> <use xlink:href="#SVGID_3_" style="overflow:visible;"></use> </clipPath> <g class="st0"> <path class="st1" d="M32.87,0.87c-3.45,0.95-7.07,2.44-10.1,3.84c-2.88,1.33-5.52,6.46-3.57,8.61c2.9,3.2,1.24-0.71,2.86,3.92 c1.91,5.45,8.56,7.1,15,6.64c10.51-0.75,10.42-7.35,12.07-9.1c1.45-1.53,3-1.48,2.06-4.68c-1.46-4.96-2.92-4.95-7.21-6.72 C40.61,1.98,36.77-0.21,32.87,0.87L32.87,0.87z M8.63,62.76c3.92,3.8,17.52,6.32,24.52,6.66l-2.1-15.2 c-0.04-2.6,0.72-1.68,1.7-4.06c-1.23-2.78-1.54-0.82-2.46-3.57c0.88-1.62,2.12-1.89,3.72-3.58c-0.59-2.25-3.12-4.69-5.65-5.08 c-3.45,4.19,1.95,2.68-7.6,3.58c-4.04,0.38-5.84,1.45-7.26,4C11.19,49.68,8.47,57,8.63,62.76L8.63,62.76z M35.99,43.02 c0.92,0.97,3.14,2.52,3.35,2.91c1.08,2.1-0.95,1.84-2.1,4.24c1.91,4.46,2.27-0.3,0.95,8.86c-0.5,3.47-0.98,6.84-1.33,10.37 c6.64-0.18,20.76-3.16,24.51-6.6c0.13-5.93-2.54-13.11-4.9-17.26c-3.28-5.77-9.72-3.28-12.54-4.36c-1.78-0.68-0.99-1.47-2.3-3.22 C39.11,38.34,36.58,40.78,35.99,43.02L35.99,43.02z M22.47,23.1l0.62-0.03c0.57,0.1-0.17-0.17,0.59,0.14c0.01,0,1,0.69,1.16,0.79 c1.18,0.8,1.37,0.88,2.8,1.33c9.21,2.91,14.06,0.2,19.53-2.65c0.88,3.71,0.28,3.58-1.23,5.74c-0.98,1.41-1.43,2.79-2.4,4.23 c-4.38,6.48-13.37,6.41-17.65-0.46C23.22,27.9,21.69,26.31,22.47,23.1L22.47,23.1z M43.16,54.76c4.57-1.6,2.8,0.54,5.24-3.92 c2.76,2.76-0.03,3.18,5.65,3.72c-0.78,1.59,0.01,0.11-0.73,1.08l-0.51,0.6c-1.5,1.97-0.91,2.14-0.81,5.16 c-4.2-1.36-2.6-1.48-6.96-0.04C45.46,55.22,45.13,58.48,43.16,54.76L43.16,54.76z M32.07,7.69l2.98-1.89l2.82,1.98 c-0.37,2.72-0.76,3.5-2.86,4.8C32.88,11.29,32.51,10.51,32.07,7.69L32.07,7.69z M18.88,55.07l0.01-2.79l8.09-0.07l-0.03,3.08 L18.88,55.07z"></path> </g> </g> </svg> 