<svg xmlns="http://www.w3.org/2000/svg" id="Layer_1" data-name="Layer 1" viewBox="0 0 90 90"><defs><style>.cls-1{fill:#fff;}.cls-2{fill:#083264;}.cls-3{fill:#fefefe;}</style></defs><circle class="cls-1" cx="45" cy="45" r="45"></circle><path class="cls-2" d="M39.53,40.73a2.5,2.5,0,0,1,.11-.82.64.64,0,0,1,.19-.33A.47.47,0,0,0,40,39.1c0-.19-.09-.45,0-.55s.34.1.51.16a13.12,13.12,0,0,0,6.57.62,14.06,14.06,0,0,0,2.6-.76c.16-.06.24-.07.22.14s0,.2,0,.3,0,.43.21.6a.94.94,0,0,1,.27.7,4.11,4.11,0,0,1-1,3.07,4.53,4.53,0,0,0-.68,1.19,4.69,4.69,0,0,1-1.57,2.11,3.57,3.57,0,0,1-4.71-.17A5.09,5.09,0,0,1,41,44.19a1.23,1.23,0,0,0-.29-.51A4.42,4.42,0,0,1,39.53,40.73Z"></path><path class="cls-2" d="M51,36.25a2.8,2.8,0,0,0-.54-1.19,6.1,6.1,0,0,0-2.28-1.84,6.6,6.6,0,0,0-5.44-.43,7,7,0,0,0-3.12,2.07A2.7,2.7,0,0,0,39,36.59c0,.07,0,.17,0,.27A.61.61,0,0,0,39,37c0,.18.11.21.29.12a13.32,13.32,0,0,1,4.83-1.32,12.71,12.71,0,0,1,6.31,1.21c.49.22.54.2.6-.35A2.26,2.26,0,0,0,51,36.25Zm-6-1.06a1.29,1.29,0,1,1,1.29-1.31A1.29,1.29,0,0,1,45,35.19Z"></path><path class="cls-2" d="M50.65,37.57a12.73,12.73,0,0,1-6.26,1.35,13.18,13.18,0,0,1-5-1.35A12.33,12.33,0,0,1,50.65,37.57Z"></path><path d="M54.48,49.77a.75.75,0,0,1,0,1.1,11.87,11.87,0,0,1-18.94,0,.76.76,0,0,1,0-1.1,9.34,9.34,0,0,1,4.4-2.93c.27-.1.44,0,.64.17a7.22,7.22,0,0,0,8.88,0c.2-.14.37-.28.65-.19A9.36,9.36,0,0,1,54.48,49.77Z"></path><path class="cls-2" d="M64.86,40.21A5.24,5.24,0,0,1,64,36.89a5.84,5.84,0,0,0-3.41-6.06,5.75,5.75,0,0,1-2.63-2.62,5.79,5.79,0,0,0-5.85-3.43,6.2,6.2,0,0,1-3.78-1,5.68,5.68,0,0,0-6.58,0,5.59,5.59,0,0,1-3.76,1,5.73,5.73,0,0,0-5.69,3.13A7.26,7.26,0,0,1,29.16,31,5.62,5.62,0,0,0,26,36.67a5.61,5.61,0,0,1-.88,3.53,5.9,5.9,0,0,0,0,7.13,5.31,5.31,0,0,1,.87,3.4,5.73,5.73,0,0,0,3.27,5.86,6.45,6.45,0,0,1,2.86,2.87,5.58,5.58,0,0,0,5.51,3.26,6.91,6.91,0,0,1,4.19,1.13,5.46,5.46,0,0,0,6.14.07,7.91,7.91,0,0,1,4.53-1.21,5.41,5.41,0,0,0,5.22-3.11,7,7,0,0,1,3.06-3.07A5.64,5.64,0,0,0,64,50.82a5.67,5.67,0,0,1,.9-3.54A5.9,5.9,0,0,0,64.86,40.21ZM45,57.3A13.55,13.55,0,1,1,58.57,43.77,13.57,13.57,0,0,1,45,57.3Z"></path><path class="cls-2" d="M30.23,59.51c.29.53.46.9.68,1.24a7.12,7.12,0,0,0,6.73,3.66c1.71-.1,3,.71,4.3,1.45.38.2.08.48,0,.68-.77,2.92-1.56,5.84-2.34,8.75l-.81,3-2-3.09c-.82-1.3-1.67-2.6-2.46-3.93-.28-.46-.5-.47-.94-.23-2.24,1.2-4.5,2.37-6.75,3.55l-.59.29Z"></path><path class="cls-2" d="M51.18,78.28c-.52-2-1-3.8-1.51-5.66-.56-2.06-1.1-4.13-1.67-6.19-.1-.37,0-.54.3-.7a9.13,9.13,0,0,0,1.17-.68,3.54,3.54,0,0,1,2.16-.62,7.63,7.63,0,0,0,7.94-4.54.24.24,0,0,1,.26-.18c1.35,5,2.7,10.05,4.07,15.19l-6.7-3.51c-1.22-.64-1.22-.64-1.93.5L51.6,77.67C51.49,77.85,51.36,78,51.18,78.28Z"></path><path class="cls-2" d="M62.94,12.69c-.18,1.37-.31,2.6-.52,3.82a.74.74,0,0,0,.4.86c1,.67,2,1.37,3.18,2.16-1.33.24-2.49.48-3.65.64a.92.92,0,0,0-.89.8c-.29,1.16-.66,2.29-1,3.55-.63-1.16-1.25-2.21-1.78-3.31a.88.88,0,0,0-1-.55c-1.18,0-2.37,0-3.6,0,.85-.88,1.68-1.78,2.54-2.65a.75.75,0,0,0,.21-.93c-.45-1.15-.85-2.31-1.26-3.47.4-.08.71.23,1.07.39.8.36,1.59.75,2.37,1.15a.7.7,0,0,0,.89-.09C60.84,14.29,61.83,13.55,62.94,12.69Z"></path><path class="cls-2" d="M29.58,24.53c-.37-1.28-.73-2.47-1-3.66a.79.79,0,0,0-.75-.68c-1.2-.18-2.39-.42-3.76-.66a23.09,23.09,0,0,1,2.38-1.6,1.82,1.82,0,0,0,1.06-2.45A16.69,16.69,0,0,1,27.11,13a1.23,1.23,0,0,1,0-.28c1,.77,2,1.5,2.9,2.26a.83.83,0,0,0,1.07.14c.9-.49,1.83-.91,2.75-1.34.13-.06.25-.26.44-.08s0,.32,0,.45c-.34,1-.68,2-1.06,2.95a.7.7,0,0,0,.19.88c.86.87,1.7,1.78,2.57,2.68-1.24,0-2.44,0-3.64,0a.83.83,0,0,0-.94.52C30.83,22.29,30.22,23.36,29.58,24.53Z"></path><path class="cls-2" d="M45,7.87c.49,1.2.94,2.21,1.31,3.25a1.15,1.15,0,0,0,1.27.92c1.11,0,2.22.15,3.47.24-1.06.9-2,1.71-2.94,2.49a.72.72,0,0,0-.29.9c.33,1.18.59,2.39.91,3.72-1.13-.7-2.18-1.32-3.19-2a.83.83,0,0,0-1.08,0c-1,.67-2,1.28-3.2,2,.32-1.32.58-2.53.91-3.73a.76.76,0,0,0-.33-.95C40.91,14,40,13.17,39,12.28c1.39-.1,2.59-.21,3.8-.26a.8.8,0,0,0,.82-.6C44,10.29,44.48,9.17,45,7.87Z"></path><path class="cls-2" d="M14.69,33.27c.64-1.29,1.22-2.51,1.82-3.72.15-.29,0-.44-.17-.62l-2.4-3.11c1.33.18,2.48.32,3.62.51a1,1,0,0,0,1.16-.52c.61-1,1.3-1.93,2.05-3,.23,1.27.46,2.39.62,3.52a1.06,1.06,0,0,0,.91,1c1.13.26,2.22.63,3.48,1-1.22.66-2.28,1.26-3.38,1.81a.77.77,0,0,0-.48.83c0,1.23,0,2.46,0,3.75-.88-.84-1.79-1.67-2.65-2.55a.78.78,0,0,0-1-.21C17.14,32.42,16,32.82,14.69,33.27Z"></path><path class="cls-2" d="M68.08,34.72c0-1.29,0-2.53,0-3.77a.74.74,0,0,0-.49-.81c-1.08-.55-2.13-1.14-3.35-1.8,1.18-.35,2.22-.72,3.28-.95a1.23,1.23,0,0,0,1.12-1.26c.12-1.08.37-2.14.59-3.35.78,1.13,1.48,2.14,2.15,3.17a.78.78,0,0,0,.87.4c1.2-.19,2.41-.34,3.8-.53A19.43,19.43,0,0,1,74.38,28a2,2,0,0,0-.29,2.84,24.14,24.14,0,0,1,1.21,2.44c-1.2-.42-2.29-.78-3.34-1.2a1.08,1.08,0,0,0-1.41.28C69.78,33.17,68.92,33.92,68.08,34.72Z"></path><path class="cls-3" d="M54.48,50.87a11.87,11.87,0,0,1-18.94,0,.76.76,0,0,1,0-1.1,9.34,9.34,0,0,1,4.4-2.93c.27-.1.44,0,.64.17a7.22,7.22,0,0,0,8.88,0c.2-.14.37-.28.65-.19a9.36,9.36,0,0,1,4.39,2.93A.75.75,0,0,1,54.48,50.87Z"></path><path class="cls-2" d="M54.48,50.87a11.87,11.87,0,0,1-18.94,0,.76.76,0,0,1,0-1.1,9.34,9.34,0,0,1,4.4-2.93c.27-.1.44,0,.64.17a7.22,7.22,0,0,0,8.88,0c.2-.14.37-.28.65-.19a9.36,9.36,0,0,1,4.39,2.93A.75.75,0,0,1,54.48,50.87Z"></path></svg>