<svg xmlns="http://www.w3.org/2000/svg" id="Layer_1" data-name="Layer 1" viewBox="0 0 90 90"><defs><style>.cls-1{fill:#fff;}.cls-2{fill:#083264;}</style></defs><circle class="cls-1" cx="45" cy="45" r="45"></circle><path class="cls-2" d="M45.06,61.85H37.94a3.17,3.17,0,0,1-3.46-3.39c0-2.5-.09-5,0-7.49a10.53,10.53,0,0,1,5.71-9.14.88.88,0,0,1,1,0,7.61,7.61,0,0,0,7.79,0,.93.93,0,0,1,1.05,0,10.48,10.48,0,0,1,5.66,9.32c.07,2.4,0,4.79,0,7.19a3.22,3.22,0,0,1-3.53,3.5H45.06Z"></path><path class="cls-2" d="M52,35.09a6.92,6.92,0,1,1-6.92-7A6.88,6.88,0,0,1,52,35.09Z"></path><path class="cls-2" d="M29.62,58.91c-1.15,0-2.29,0-3.44,0A2.15,2.15,0,0,1,24,57a38.91,38.91,0,0,1,.13-7.4A7.5,7.5,0,0,1,28,44.2a.8.8,0,0,1,.9,0,5.82,5.82,0,0,0,5.7,0,.81.81,0,0,1,1,.09c.38.31-.09.53-.22.74a11.75,11.75,0,0,0-1.85,6.44c0,2.29,0,4.59,0,6.88,0,.45-.09.63-.58.61-1.13,0-2.25,0-3.37,0Z"></path><path class="cls-2" d="M56.63,54.38a33.28,33.28,0,0,0-.23-5.31,11.78,11.78,0,0,0-1.71-4.22c-.11-.17-.51-.33-.17-.61a.73.73,0,0,1,.95-.09,5.87,5.87,0,0,0,5,.38l.07,0c1.09-.89,1.92-.18,2.71.49a7.79,7.79,0,0,1,2.91,6.21c0,1.75,0,3.51,0,5.27a2.29,2.29,0,0,1-2.44,2.44c-2.16,0-4.33,0-6.49,0-.51,0-.64-.14-.62-.64C56.65,57,56.63,55.8,56.63,54.38Z"></path><path class="cls-2" d="M48.62,74.64c0-1.56,0-1.56,1.51-1.84A28.27,28.27,0,0,0,72.91,49.51c.12-.75.37-1.08,1.13-.95a4,4,0,0,0,.69,0c1.58,0,1.61,0,1.35,1.54a30.76,30.76,0,0,1-5.14,12.71,33.07,33.07,0,0,1-4.4,5.06,31.08,31.08,0,0,1-17.25,8.29c-.46.07-.76,0-.68-.54A6.53,6.53,0,0,0,48.62,74.64Z"></path><path class="cls-2" d="M74.63,41.43c-1.49,0-1.5,0-1.78-1.49a27.87,27.87,0,0,0-7-14.07,27.53,27.53,0,0,0-16.22-8.72c-.78-.13-1.09-.38-1-1.19a7.13,7.13,0,0,0,0-1.6c0-.5.14-.61.62-.54a30.22,30.22,0,0,1,9.25,2.76C68.17,21.39,74,29.14,76.06,39.76,76.38,41.43,76.35,41.43,74.63,41.43Z"></path><path class="cls-2" d="M31.57,73.36a27.74,27.74,0,0,1-7.66-5.09,31.18,31.18,0,0,1-10-19c-.07-.46-.06-.72.53-.68.82,0,1.8-.25,2.4.11s.42,1.46.59,2.24a28.53,28.53,0,0,0,5.79,12c.16.2.3.41.45.61-.1.13-.2.28-.39.28a.39.39,0,0,1-.15,0,0,0,0,0,0,0,0,.21.21,0,0,0,.26,0,1.31,1.31,0,0,0,.26-.32,35.5,35.5,0,0,0,4.86,4.39,27.55,27.55,0,0,0,12,5c.79.12,1.18.34,1,1.21a8.57,8.57,0,0,0,0,1.68c0,.36-.08.51-.47.45a29.2,29.2,0,0,1-9.17-2.71c0-.1.12-.14.16-.23C31.86,73.29,31.67,73.15,31.57,73.36Z"></path><path class="cls-2" d="M20.7,30.62A29.29,29.29,0,0,0,17.07,41c0,.33-.16.43-.48.43-.76,0-1.53,0-2.29,0-.46,0-.5-.21-.44-.57a31.5,31.5,0,0,1,7.06-16,31.12,31.12,0,0,1,16-10.26c1.32-.37,2.68-.58,4-.86.2-.07.41-.17.58.06,0,.81,0,1.63,0,2.44,0,.49-.08.69-.63.78A28.29,28.29,0,0,0,22.11,28.53c-.19.26-.4.52-.6.78-.46.31-.46.31-.92.16C20.48,29.87,20.29,30.27,20.7,30.62Z"></path><path class="cls-2" d="M36.8,38.93a5.07,5.07,0,1,1-5.09-5.09A5,5,0,0,1,36.8,38.93Z"></path><path class="cls-2" d="M61.72,35.06a6.64,6.64,0,0,1,1.09,1.49c.08.22.08.48.28.65a5,5,0,0,1-3,6.49A5.07,5.07,0,1,1,61,34.57l.4.21A.38.38,0,0,1,61.72,35.06Z"></path><path class="cls-2" d="M82.71,44.48a1.6,1.6,0,0,1-1.4,2.09q-6.42,0-12.84,0a1.57,1.57,0,0,1,0-3.13c4.28,0,8.57,0,12.85,0a1.19,1.19,0,0,1,1.05.5c-.12.34-.57.44-.59.85C82.07,44.67,82.41,44.62,82.71,44.48Z"></path><path class="cls-2" d="M8.32,46.54c-.92-.55-1.26-1.19-1-2a1.72,1.72,0,0,1,1.87-1.14H21.24a1.65,1.65,0,0,1,1.79,1,1.5,1.5,0,0,1-.61,1.91c-.06,0-.05.19-.17.22a1.2,1.2,0,0,1-.77,0l-.25-.1c-4-.08-7.93,0-11.9,0a3.13,3.13,0,0,0-.6.1A.43.43,0,0,1,8.32,46.54Z"></path><path class="cls-2" d="M45.5,67a1.65,1.65,0,0,1,1.09,2.14,1.45,1.45,0,0,0-.17.18.61.61,0,0,0-.07.24c0,3.48-.05,7,0,10.43a9.87,9.87,0,0,1,.07,1.22,1.21,1.21,0,0,0,.11.32,1.51,1.51,0,0,1-1.73,1.23,1.54,1.54,0,0,1-1.35-1.67q0-6.28,0-12.58a1.36,1.36,0,0,1,.76-1.38C44.65,67.07,45.05,66.81,45.5,67Z"></path><path class="cls-2" d="M46.58,21.59A1.52,1.52,0,0,1,45,23.12a1.54,1.54,0,0,1-1.49-1.7q0-5.76,0-11.53c0-.35,0-.71,0-1.06a1.58,1.58,0,0,1,1.34-1.61,1.54,1.54,0,0,1,1.74,1.21c-.29.32-.15.73-.21,1.1,0,3.84,0,7.67,0,11.51a.69.69,0,0,0,0,.24A1.57,1.57,0,0,0,46.58,21.59Z"></path><path class="cls-2" d="M46.58,21.59l-.16-.15a1.46,1.46,0,0,1-.15-1V9.2c-.15-.35-.23-.66.28-.77a3.23,3.23,0,0,1,.08.53c0,4.08,0,8.17,0,12.26A2.35,2.35,0,0,1,46.58,21.59Z"></path><path class="cls-2" d="M46.55,81.56l-.13-.15a9.92,9.92,0,0,1-.14-1.88c0-3.19,0-6.37,0-9.55a1.2,1.2,0,0,1,.15-.81h.17c0,3.53,0,7,0,10.58A6.47,6.47,0,0,1,46.55,81.56Z"></path><path class="cls-2" d="M20.7,30.62c-.21-.09-.58-.11-.47-.42s0-.79.28-1.1a.52.52,0,0,1,.13-.06c.15.53.55.27.87.27Z"></path><path class="cls-2" d="M82.71,44.48c-.16.68-.88.14-1.19.71,0-.73.27-1.13.85-1.26A.62.62,0,0,1,82.71,44.48Z"></path><path class="cls-2" d="M31.57,73.36c0-.81.49.18.6-.23,0,.27-.21.26-.33.35Z"></path><path class="cls-2" d="M45.5,67l-1.27.13A1,1,0,0,1,45.5,67Z"></path><path class="cls-2" d="M63.09,37.2c-.42-.08-.27-.4-.28-.65A1,1,0,0,1,63.09,37.2Z"></path><path class="cls-2" d="M54.84,50.05c0-.08,0-.17,0-.22s.11,0,.13.06a7.07,7.07,0,0,1,0,1.72c0,1.92,0,3.84,0,5.76,0,.27.1.56-.15.79a7.49,7.49,0,0,1-.07-1.89c0-1.82,0-3.65,0-5.47A1.37,1.37,0,0,1,54.84,50.05Z"></path><path class="cls-2" d="M54.84,50.05v8.11c-.19-.15-.15-.36-.15-.56q0-3.49,0-7C54.69,50.41,54.65,50.2,54.84,50.05Z"></path><path class="cls-2" d="M56.4,46.33c.37.47,0,.7,0,1Z"></path><path class="cls-2" d="M76,39.78l-.25,1.33A1.53,1.53,0,0,1,76,39.78Z"></path><path class="cls-2" d="M74.58,36.59s0,0,0,.07a.31.31,0,0,1-.09.07c0-.31-.15-.63.11-.91A.94.94,0,0,1,74.58,36.59Z"></path><path class="cls-2" d="M51,14.43h.61C51.43,14.65,51.23,14.53,51,14.43Z"></path><path class="cls-2" d="M66.13,22.08c.08.11.14.16.13.17a.73.73,0,0,1-.19.2c-.07,0-.15,0-.1-.11A2.63,2.63,0,0,1,66.13,22.08Z"></path><path class="cls-2" d="M74.58,36.59v-.77A.53.53,0,0,1,74.58,36.59Z"></path><path class="cls-2" d="M40.62,73.55a2.41,2.41,0,0,0,.7-.29c0,.07,0,.17,0,.21C41.13,73.72,40.87,73.55,40.62,73.55Z"></path><path class="cls-2" d="M23.47,64c0,.13,0,.3-.21.15s-.42-.21-.3-.5l.21.05C23.28,63.76,23.42,63.83,23.47,64Z"></path><path class="cls-2" d="M23.47,64a.52.52,0,0,1-.3-.3l.47-.17h0Z"></path><path class="cls-2" d="M31.37,17.26a1.12,1.12,0,0,1,.85-.3A.78.78,0,0,1,31.37,17.26Z"></path><path class="cls-2" d="M23.47,23.43c0,.37-.3.31-.57.36a.61.61,0,0,1,.57-.36Z"></path><path class="cls-2" d="M23.47,23.43a.68.68,0,0,1,.25-.51c.1.29.06.47-.25.51Z"></path><path class="cls-2" d="M62.49,37.25l-.44-.58C62.52,36.71,62.51,37,62.49,37.25Z"></path><path class="cls-2" d="M57,34.56a2.61,2.61,0,0,1,1.24-.08A2.63,2.63,0,0,1,57,34.56Z"></path><path class="cls-2" d="M9.09,46.53a.53.53,0,0,1-.46,0,1,1,0,0,1,.83-.31H20.92c.2,0,.41,0,.56.15a1.63,1.63,0,0,1-.82.07H9.91A1.53,1.53,0,0,0,9.09,46.53Z"></path><path class="cls-2" d="M9.09,46.53c.25-.26.58-.15.87-.15H21.48v.15C17.35,46.59,13.22,46.6,9.09,46.53Z"></path><path class="cls-2" d="M46.42,69.17V81.41c-.3-.37-.08-.82-.15-1.22a.84.84,0,0,1-.07-.52v-10a.85.85,0,0,1,.07-.52Z"></path><path class="cls-2" d="M46.27,69.17v11c-.21-.17-.15-.42-.15-.64V69.81C46.12,69.59,46.06,69.35,46.27,69.17Z"></path><path class="cls-2" d="M46.27,21.44c-.23-.2-.15-.47-.15-.71V9.91c0-.24-.08-.51.15-.71h0a.84.84,0,0,1,.07.52v11.2A.84.84,0,0,1,46.27,21.44Z"></path><path class="cls-2" d="M46.27,21.44V9.2c.25.23.15.53.15.79V21.44Z"></path></svg>